M48
; DRILL file {KiCad (6.0.7-1)-1} date 2022 September 14, Wednesday 08:57:56
; FORMAT={-:-/ absolute / metric / decimal}
; #@! TF.CreationDate,2022-09-14T08:57:56+02:00
; #@! TF.GenerationSoftware,Kicad,Pcbnew,(6.0.7-1)-1
; #@! TF.FileFunction,NonPlated,1,2,NPTH
FMAT,2
METRIC
; #@! TA.AperFunction,NonPlated,NPTH,ComponentDrill
T1C0.900
; #@! TA.AperFunction,NonPlated,NPTH,ComponentDrill
T2C1.500
; #@! TA.AperFunction,NonPlated,NPTH,ComponentDrill
T3C1.700
; #@! TA.AperFunction,NonPlated,NPTH,ComponentDrill
T4C4.000
%
G90
G05
T1
X144.5Y-42.67
X147.5Y-42.67
T3
X45.42Y-51.5
X45.42Y-70.5
X45.42Y-89.5
X45.42Y-108.5
X55.58Y-51.5
X55.58Y-70.5
X55.58Y-89.5
X55.58Y-108.5
X64.42Y-51.5
X64.42Y-70.5
X64.42Y-89.5
X64.42Y-108.5
X74.58Y-51.5
X74.58Y-70.5
X74.58Y-89.5
X74.58Y-108.5
X83.42Y-51.5
X83.42Y-70.5
X83.42Y-89.5
X83.42Y-108.5
X93.58Y-51.5
X93.58Y-70.5
X93.58Y-89.5
X93.58Y-108.5
X102.42Y-51.5
X102.42Y-70.5
X102.42Y-89.5
X102.42Y-108.5
X112.58Y-51.5
X112.58Y-70.5
X112.58Y-89.5
X112.58Y-108.5
X130.92Y-108.5
X141.08Y-108.5
X159.42Y-51.5
X159.42Y-70.5
X159.42Y-108.5
X169.58Y-51.5
X169.58Y-70.5
X169.58Y-108.5
X178.42Y-51.5
X178.42Y-70.5
X178.42Y-89.5
X178.42Y-108.5
X188.58Y-51.5
X188.58Y-70.5
X188.58Y-89.5
X188.58Y-108.5
X197.42Y-51.5
X197.42Y-70.5
X197.42Y-108.5
X207.58Y-51.5
X207.58Y-70.5
X207.58Y-108.5
T4
X50.5Y-51.5
X50.5Y-70.5
X50.5Y-89.5
X50.5Y-108.5
X69.5Y-51.5
X69.5Y-70.5
X69.5Y-89.5
X69.5Y-108.5
X88.5Y-51.5
X88.5Y-70.5
X88.5Y-89.5
X88.5Y-108.5
X107.5Y-51.5
X107.5Y-70.5
X107.5Y-89.5
X107.5Y-108.5
X136.0Y-108.5
X164.5Y-51.5
X164.5Y-70.5
X164.5Y-108.5
X183.5Y-51.5
X183.5Y-70.5
X183.5Y-89.5
X183.5Y-108.5
X202.5Y-51.5
X202.5Y-70.5
X202.5Y-108.5
T2
X239.85Y-45.9G85X241.15Y-45.9
G05
X239.85Y-57.1G85X241.15Y-57.1
G05
X239.85Y-97.4G85X241.15Y-97.4
G05
X239.85Y-108.6G85X241.15Y-108.6
G05
T0
M30
