%TF.GenerationSoftware,KiCad,Pcbnew,(6.0.7-1)-1*%
%TF.CreationDate,2022-09-14T08:57:37+02:00*%
%TF.ProjectId,yts-pcb,7974732d-7063-4622-9e6b-696361645f70,rev?*%
%TF.SameCoordinates,Original*%
%TF.FileFunction,Soldermask,Top*%
%TF.FilePolarity,Negative*%
%FSLAX46Y46*%
G04 Gerber Fmt 4.6, Leading zero omitted, Abs format (unit mm)*
G04 Created by KiCad (PCBNEW (6.0.7-1)-1) date 2022-09-14 08:57:37*
%MOMM*%
%LPD*%
G01*
G04 APERTURE LIST*
G04 Aperture macros list*
%AMRoundRect*
0 Rectangle with rounded corners*
0 $1 Rounding radius*
0 $2 $3 $4 $5 $6 $7 $8 $9 X,Y pos of 4 corners*
0 Add a 4 corners polygon primitive as box body*
4,1,4,$2,$3,$4,$5,$6,$7,$8,$9,$2,$3,0*
0 Add four circle primitives for the rounded corners*
1,1,$1+$1,$2,$3*
1,1,$1+$1,$4,$5*
1,1,$1+$1,$6,$7*
1,1,$1+$1,$8,$9*
0 Add four rect primitives between the rounded corners*
20,1,$1+$1,$2,$3,$4,$5,0*
20,1,$1+$1,$4,$5,$6,$7,0*
20,1,$1+$1,$6,$7,$8,$9,0*
20,1,$1+$1,$8,$9,$2,$3,0*%
G04 Aperture macros list end*
%ADD10C,1.700000*%
%ADD11C,4.000000*%
%ADD12C,2.200000*%
%ADD13O,3.200000X2.000000*%
%ADD14R,2.000000X2.000000*%
%ADD15C,2.000000*%
%ADD16RoundRect,0.250000X-0.250000X-0.750000X0.250000X-0.750000X0.250000X0.750000X-0.250000X0.750000X0*%
%ADD17R,1.752600X1.752600*%
%ADD18C,1.752600*%
%ADD19R,1.000000X0.800000*%
%ADD20C,0.900000*%
%ADD21R,0.700000X1.500000*%
%ADD22R,1.600000X1.200000*%
%ADD23R,1.600000X1.600000*%
%ADD24C,1.600000*%
%ADD25R,1.200000X1.600000*%
G04 APERTURE END LIST*
D10*
%TO.C,SW11*%
X83420000Y-70500000D03*
X93580000Y-70500000D03*
D11*
X88500000Y-70500000D03*
D12*
X91040000Y-65420000D03*
X84690000Y-67960000D03*
%TD*%
D10*
%TO.C,SW3*%
X45420000Y-70500000D03*
D11*
X50500000Y-70500000D03*
D10*
X55580000Y-70500000D03*
D12*
X53040000Y-65420000D03*
X46690000Y-67960000D03*
%TD*%
D13*
%TO.C,SW30*%
X240500000Y-97400000D03*
X240500000Y-108600000D03*
D14*
X233000000Y-100500000D03*
D15*
X233000000Y-105500000D03*
X233000000Y-103000000D03*
X247500000Y-105500000D03*
X247500000Y-100500000D03*
%TD*%
D10*
%TO.C,SW6*%
X64420000Y-51500000D03*
X74580000Y-51500000D03*
D11*
X69500000Y-51500000D03*
D12*
X72040000Y-46420000D03*
X65690000Y-48960000D03*
%TD*%
D11*
%TO.C,SW14*%
X107500000Y-51500000D03*
D10*
X112580000Y-51500000D03*
X102420000Y-51500000D03*
D12*
X110040000Y-46420000D03*
X103690000Y-48960000D03*
%TD*%
D11*
%TO.C,SW17*%
X107500000Y-108500000D03*
D10*
X102420000Y-108500000D03*
X112580000Y-108500000D03*
D12*
X110040000Y-103420000D03*
X103690000Y-105960000D03*
%TD*%
D11*
%TO.C,SW13*%
X88500000Y-108500000D03*
D10*
X93580000Y-108500000D03*
X83420000Y-108500000D03*
D12*
X91040000Y-103420000D03*
X84690000Y-105960000D03*
%TD*%
D10*
%TO.C,SW12*%
X83420000Y-89500000D03*
D11*
X88500000Y-89500000D03*
D10*
X93580000Y-89500000D03*
D12*
X91040000Y-84420000D03*
X84690000Y-86960000D03*
%TD*%
D11*
%TO.C,SW10*%
X88500000Y-51500000D03*
D10*
X83420000Y-51500000D03*
X93580000Y-51500000D03*
D12*
X91040000Y-46420000D03*
X84690000Y-48960000D03*
%TD*%
D11*
%TO.C,SW5*%
X50500000Y-108500000D03*
D10*
X45420000Y-108500000D03*
X55580000Y-108500000D03*
D12*
X53040000Y-103420000D03*
X46690000Y-105960000D03*
%TD*%
D10*
%TO.C,SW15*%
X102420000Y-70500000D03*
D11*
X107500000Y-70500000D03*
D10*
X112580000Y-70500000D03*
D12*
X110040000Y-65420000D03*
X103690000Y-67960000D03*
%TD*%
D11*
%TO.C,SW16*%
X107500000Y-89500000D03*
D10*
X112580000Y-89500000D03*
X102420000Y-89500000D03*
D12*
X110040000Y-84420000D03*
X103690000Y-86960000D03*
%TD*%
D10*
%TO.C,SW8*%
X64420000Y-89500000D03*
X74580000Y-89500000D03*
D11*
X69500000Y-89500000D03*
D12*
X72040000Y-84420000D03*
X65690000Y-86960000D03*
%TD*%
D10*
%TO.C,SW27*%
X207580000Y-108500000D03*
X197420000Y-108500000D03*
D11*
X202500000Y-108500000D03*
D12*
X205040000Y-103420000D03*
X198690000Y-105960000D03*
%TD*%
D10*
%TO.C,SW18*%
X159420000Y-51500000D03*
D11*
X164500000Y-51500000D03*
D10*
X169580000Y-51500000D03*
D12*
X167040000Y-46420000D03*
X160690000Y-48960000D03*
%TD*%
D11*
%TO.C,SW4*%
X50500000Y-89500000D03*
D10*
X55580000Y-89500000D03*
X45420000Y-89500000D03*
D12*
X53040000Y-84420000D03*
X46690000Y-86960000D03*
%TD*%
D16*
%TO.C,J1*%
X148000000Y-51000000D03*
%TD*%
D10*
%TO.C,SW26*%
X197420000Y-70500000D03*
D11*
X202500000Y-70500000D03*
D10*
X207580000Y-70500000D03*
D12*
X205040000Y-65420000D03*
X198690000Y-67960000D03*
%TD*%
D10*
%TO.C,SW24*%
X188580000Y-108500000D03*
X178420000Y-108500000D03*
D11*
X183500000Y-108500000D03*
D12*
X186040000Y-103420000D03*
X179690000Y-105960000D03*
%TD*%
D10*
%TO.C,SW23*%
X178420000Y-89500000D03*
X188580000Y-89500000D03*
D11*
X183500000Y-89500000D03*
D12*
X186040000Y-84420000D03*
X179690000Y-86960000D03*
%TD*%
D17*
%TO.C,U1*%
X121380000Y-42530000D03*
D18*
X121380000Y-45070000D03*
X121380000Y-47610000D03*
X121380000Y-50150000D03*
X121380000Y-52690000D03*
X121380000Y-55230000D03*
X121380000Y-57770000D03*
X121380000Y-60310000D03*
X121380000Y-62850000D03*
X121380000Y-65390000D03*
X121380000Y-67930000D03*
X121380000Y-70470000D03*
X136620000Y-70470000D03*
X136620000Y-67930000D03*
X136620000Y-65390000D03*
X136620000Y-62850000D03*
X136620000Y-60310000D03*
X136620000Y-57770000D03*
X136620000Y-55230000D03*
X136620000Y-52690000D03*
X136620000Y-50150000D03*
X136620000Y-47610000D03*
X136620000Y-45070000D03*
X136620000Y-42530000D03*
%TD*%
D11*
%TO.C,SW21*%
X183500000Y-51500000D03*
D10*
X178420000Y-51500000D03*
X188580000Y-51500000D03*
D12*
X186040000Y-46420000D03*
X179690000Y-48960000D03*
%TD*%
D13*
%TO.C,SW29*%
X240500000Y-45900000D03*
X240500000Y-57100000D03*
D14*
X233000000Y-49000000D03*
D15*
X233000000Y-54000000D03*
X233000000Y-51500000D03*
X247500000Y-54000000D03*
X247500000Y-49000000D03*
%TD*%
D16*
%TO.C,J2*%
X143500000Y-51000000D03*
%TD*%
D10*
%TO.C,SW25*%
X197420000Y-51500000D03*
D11*
X202500000Y-51500000D03*
D10*
X207580000Y-51500000D03*
D12*
X205040000Y-46420000D03*
X198690000Y-48960000D03*
%TD*%
D10*
%TO.C,SW28*%
X130920000Y-108500000D03*
X141080000Y-108500000D03*
D11*
X136000000Y-108500000D03*
D12*
X138540000Y-103420000D03*
X132190000Y-105960000D03*
%TD*%
D10*
%TO.C,SW9*%
X74580000Y-108500000D03*
X64420000Y-108500000D03*
D11*
X69500000Y-108500000D03*
D12*
X72040000Y-103420000D03*
X65690000Y-105960000D03*
%TD*%
D11*
%TO.C,SW7*%
X69500000Y-70500000D03*
D10*
X64420000Y-70500000D03*
X74580000Y-70500000D03*
D12*
X72040000Y-65420000D03*
X65690000Y-67960000D03*
%TD*%
D10*
%TO.C,SW19*%
X159420000Y-70500000D03*
D11*
X164500000Y-70500000D03*
D10*
X169580000Y-70500000D03*
D12*
X167040000Y-65420000D03*
X160690000Y-67960000D03*
%TD*%
D11*
%TO.C,SW2*%
X50500000Y-51500000D03*
D10*
X45420000Y-51500000D03*
X55580000Y-51500000D03*
D12*
X53040000Y-46420000D03*
X46690000Y-48960000D03*
%TD*%
D11*
%TO.C,SW22*%
X183500000Y-70500000D03*
D10*
X188580000Y-70500000D03*
X178420000Y-70500000D03*
D12*
X186040000Y-65420000D03*
X179690000Y-67960000D03*
%TD*%
D19*
%TO.C,SW1*%
X142350000Y-43780000D03*
X142350000Y-41570000D03*
D20*
X147500000Y-42670000D03*
D19*
X149650000Y-43780000D03*
D20*
X144500000Y-42670000D03*
D19*
X149650000Y-41570000D03*
D21*
X148250000Y-44430000D03*
X145250000Y-44430000D03*
X143750000Y-44430000D03*
%TD*%
D10*
%TO.C,SW20*%
X159420000Y-108500000D03*
D11*
X164500000Y-108500000D03*
D10*
X169580000Y-108500000D03*
D12*
X167040000Y-103420000D03*
X160690000Y-105960000D03*
%TD*%
D22*
%TO.C,D27*%
X241500000Y-60000000D03*
D23*
X244000000Y-60000000D03*
D24*
X236200000Y-60000000D03*
D22*
X238700000Y-60000000D03*
%TD*%
D25*
%TO.C,D19*%
X174000000Y-107100000D03*
D23*
X174000000Y-104600000D03*
D25*
X174000000Y-109900000D03*
D24*
X174000000Y-112400000D03*
%TD*%
D23*
%TO.C,D8*%
X79000000Y-104600000D03*
D25*
X79000000Y-107100000D03*
D24*
X79000000Y-112400000D03*
D25*
X79000000Y-109900000D03*
%TD*%
%TO.C,D15*%
X117000000Y-88100000D03*
D23*
X117000000Y-85600000D03*
D24*
X117000000Y-93400000D03*
D25*
X117000000Y-90900000D03*
%TD*%
%TO.C,D1*%
X60000000Y-50000000D03*
D23*
X60000000Y-47500000D03*
D24*
X60000000Y-55300000D03*
D25*
X60000000Y-52800000D03*
%TD*%
D23*
%TO.C,D11*%
X98000000Y-85600000D03*
D25*
X98000000Y-88100000D03*
X98000000Y-90900000D03*
D24*
X98000000Y-93400000D03*
%TD*%
D23*
%TO.C,D25*%
X212000000Y-66600000D03*
D25*
X212000000Y-69100000D03*
X212000000Y-71900000D03*
D24*
X212000000Y-74400000D03*
%TD*%
D25*
%TO.C,D3*%
X60000000Y-88100000D03*
D23*
X60000000Y-85600000D03*
D24*
X60000000Y-93400000D03*
D25*
X60000000Y-90900000D03*
%TD*%
D23*
%TO.C,D17*%
X174000000Y-47100000D03*
D25*
X174000000Y-49600000D03*
D24*
X174000000Y-54900000D03*
D25*
X174000000Y-52400000D03*
%TD*%
D23*
%TO.C,D13*%
X117000000Y-47100000D03*
D25*
X117000000Y-49600000D03*
X117000000Y-52400000D03*
D24*
X117000000Y-54900000D03*
%TD*%
D23*
%TO.C,D29*%
X244300000Y-111500000D03*
D22*
X241800000Y-111500000D03*
X239000000Y-111500000D03*
D24*
X236500000Y-111500000D03*
%TD*%
D23*
%TO.C,D22*%
X193000000Y-85600000D03*
D25*
X193000000Y-88100000D03*
X193000000Y-90900000D03*
D24*
X193000000Y-93400000D03*
%TD*%
D25*
%TO.C,D6*%
X79000000Y-69100000D03*
D23*
X79000000Y-66600000D03*
D25*
X79000000Y-71900000D03*
D24*
X79000000Y-74400000D03*
%TD*%
D23*
%TO.C,D12*%
X98000000Y-104600000D03*
D25*
X98000000Y-107100000D03*
D24*
X98000000Y-112400000D03*
D25*
X98000000Y-109900000D03*
%TD*%
D23*
%TO.C,D4*%
X60000000Y-104600000D03*
D25*
X60000000Y-107100000D03*
X60000000Y-109900000D03*
D24*
X60000000Y-112400000D03*
%TD*%
D23*
%TO.C,D26*%
X212000000Y-104600000D03*
D25*
X212000000Y-107100000D03*
D24*
X212000000Y-112400000D03*
D25*
X212000000Y-109900000D03*
%TD*%
%TO.C,D16*%
X117000000Y-107100000D03*
D23*
X117000000Y-104600000D03*
D24*
X117000000Y-112400000D03*
D25*
X117000000Y-109900000D03*
%TD*%
%TO.C,D7*%
X79000000Y-88100000D03*
D23*
X79000000Y-85600000D03*
D24*
X79000000Y-93400000D03*
D25*
X79000000Y-90900000D03*
%TD*%
%TO.C,D20*%
X193000000Y-49600000D03*
D23*
X193000000Y-47100000D03*
D25*
X193000000Y-52400000D03*
D24*
X193000000Y-54900000D03*
%TD*%
D25*
%TO.C,D18*%
X174000000Y-69100000D03*
D23*
X174000000Y-66600000D03*
D25*
X174000000Y-71900000D03*
D24*
X174000000Y-74400000D03*
%TD*%
D23*
%TO.C,D2*%
X60000000Y-66700000D03*
D25*
X60000000Y-69200000D03*
X60000000Y-72000000D03*
D24*
X60000000Y-74500000D03*
%TD*%
D25*
%TO.C,D9*%
X98000000Y-49600000D03*
D23*
X98000000Y-47100000D03*
D25*
X98000000Y-52400000D03*
D24*
X98000000Y-54900000D03*
%TD*%
D23*
%TO.C,D24*%
X212000000Y-47100000D03*
D25*
X212000000Y-49600000D03*
X212000000Y-52400000D03*
D24*
X212000000Y-54900000D03*
%TD*%
D25*
%TO.C,D28*%
X145500000Y-107100000D03*
D23*
X145500000Y-104600000D03*
D25*
X145500000Y-109900000D03*
D24*
X145500000Y-112400000D03*
%TD*%
D23*
%TO.C,D14*%
X117000000Y-66600000D03*
D25*
X117000000Y-69100000D03*
D24*
X117000000Y-74400000D03*
D25*
X117000000Y-71900000D03*
%TD*%
%TO.C,D10*%
X98000000Y-69100000D03*
D23*
X98000000Y-66600000D03*
D25*
X98000000Y-71900000D03*
D24*
X98000000Y-74400000D03*
%TD*%
D23*
%TO.C,D23*%
X193000000Y-104700000D03*
D25*
X193000000Y-107200000D03*
X193000000Y-110000000D03*
D24*
X193000000Y-112500000D03*
%TD*%
D23*
%TO.C,D21*%
X193000000Y-66600000D03*
D25*
X193000000Y-69100000D03*
D24*
X193000000Y-74400000D03*
D25*
X193000000Y-71900000D03*
%TD*%
D23*
%TO.C,D5*%
X79000000Y-47500000D03*
D25*
X79000000Y-50000000D03*
X79000000Y-52800000D03*
D24*
X79000000Y-55300000D03*
%TD*%
M02*
