%TF.GenerationSoftware,KiCad,Pcbnew,(6.0.7-1)-1*%
%TF.CreationDate,2022-09-14T08:57:37+02:00*%
%TF.ProjectId,yts-pcb,7974732d-7063-4622-9e6b-696361645f70,rev?*%
%TF.SameCoordinates,Original*%
%TF.FileFunction,Legend,Top*%
%TF.FilePolarity,Positive*%
%FSLAX46Y46*%
G04 Gerber Fmt 4.6, Leading zero omitted, Abs format (unit mm)*
G04 Created by KiCad (PCBNEW (6.0.7-1)-1) date 2022-09-14 08:57:37*
%MOMM*%
%LPD*%
G01*
G04 APERTURE LIST*
G04 Aperture macros list*
%AMRoundRect*
0 Rectangle with rounded corners*
0 $1 Rounding radius*
0 $2 $3 $4 $5 $6 $7 $8 $9 X,Y pos of 4 corners*
0 Add a 4 corners polygon primitive as box body*
4,1,4,$2,$3,$4,$5,$6,$7,$8,$9,$2,$3,0*
0 Add four circle primitives for the rounded corners*
1,1,$1+$1,$2,$3*
1,1,$1+$1,$4,$5*
1,1,$1+$1,$6,$7*
1,1,$1+$1,$8,$9*
0 Add four rect primitives between the rounded corners*
20,1,$1+$1,$2,$3,$4,$5,0*
20,1,$1+$1,$4,$5,$6,$7,0*
20,1,$1+$1,$6,$7,$8,$9,0*
20,1,$1+$1,$8,$9,$2,$3,0*%
G04 Aperture macros list end*
%ADD10C,0.300000*%
%ADD11C,0.150000*%
%ADD12C,0.120000*%
%ADD13R,1.752600X1.752600*%
%ADD14C,1.752600*%
%ADD15C,1.700000*%
%ADD16C,4.000000*%
%ADD17C,2.200000*%
%ADD18O,3.200000X2.000000*%
%ADD19R,2.000000X2.000000*%
%ADD20C,2.000000*%
%ADD21RoundRect,0.250000X-0.250000X-0.750000X0.250000X-0.750000X0.250000X0.750000X-0.250000X0.750000X0*%
%ADD22R,1.000000X0.800000*%
%ADD23C,0.900000*%
%ADD24R,0.700000X1.500000*%
%ADD25R,1.600000X1.200000*%
%ADD26R,1.600000X1.600000*%
%ADD27C,1.600000*%
%ADD28R,1.200000X1.600000*%
G04 APERTURE END LIST*
D10*
X217000000Y-44678571D02*
X217357142Y-45678571D01*
X217714285Y-44678571D02*
X217357142Y-45678571D01*
X217214285Y-46035714D01*
X217142857Y-46107142D01*
X217000000Y-46178571D01*
X218071428Y-44678571D02*
X218642857Y-44678571D01*
X218285714Y-44178571D02*
X218285714Y-45464285D01*
X218357142Y-45607142D01*
X218500000Y-45678571D01*
X218642857Y-45678571D01*
X219071428Y-45607142D02*
X219214285Y-45678571D01*
X219500000Y-45678571D01*
X219642857Y-45607142D01*
X219714285Y-45464285D01*
X219714285Y-45392857D01*
X219642857Y-45250000D01*
X219500000Y-45178571D01*
X219285714Y-45178571D01*
X219142857Y-45107142D01*
X219071428Y-44964285D01*
X219071428Y-44892857D01*
X219142857Y-44750000D01*
X219285714Y-44678571D01*
X219500000Y-44678571D01*
X219642857Y-44750000D01*
X220357142Y-45107142D02*
X221500000Y-45107142D01*
X223000000Y-45678571D02*
X222142857Y-45678571D01*
X222571428Y-45678571D02*
X222571428Y-44178571D01*
X222428571Y-44392857D01*
X222285714Y-44535714D01*
X222142857Y-44607142D01*
X224785714Y-45678571D02*
X224785714Y-44678571D01*
X224785714Y-44964285D02*
X224857142Y-44821428D01*
X224928571Y-44750000D01*
X225071428Y-44678571D01*
X225214285Y-44678571D01*
X226285714Y-45607142D02*
X226142857Y-45678571D01*
X225857142Y-45678571D01*
X225714285Y-45607142D01*
X225642857Y-45464285D01*
X225642857Y-44892857D01*
X225714285Y-44750000D01*
X225857142Y-44678571D01*
X226142857Y-44678571D01*
X226285714Y-44750000D01*
X226357142Y-44892857D01*
X226357142Y-45035714D01*
X225642857Y-45178571D01*
X226857142Y-44678571D02*
X227214285Y-45678571D01*
X227571428Y-44678571D01*
X228428571Y-44178571D02*
X228571428Y-44178571D01*
X228714285Y-44250000D01*
X228785714Y-44321428D01*
X228857142Y-44464285D01*
X228928571Y-44750000D01*
X228928571Y-45107142D01*
X228857142Y-45392857D01*
X228785714Y-45535714D01*
X228714285Y-45607142D01*
X228571428Y-45678571D01*
X228428571Y-45678571D01*
X228285714Y-45607142D01*
X228214285Y-45535714D01*
X228142857Y-45392857D01*
X228071428Y-45107142D01*
X228071428Y-44750000D01*
X228142857Y-44464285D01*
X228214285Y-44321428D01*
X228285714Y-44250000D01*
X228428571Y-44178571D01*
D11*
%TO.C,SW11*%
X86690476Y-63030761D02*
X86833333Y-63078380D01*
X87071428Y-63078380D01*
X87166666Y-63030761D01*
X87214285Y-62983142D01*
X87261904Y-62887904D01*
X87261904Y-62792666D01*
X87214285Y-62697428D01*
X87166666Y-62649809D01*
X87071428Y-62602190D01*
X86880952Y-62554571D01*
X86785714Y-62506952D01*
X86738095Y-62459333D01*
X86690476Y-62364095D01*
X86690476Y-62268857D01*
X86738095Y-62173619D01*
X86785714Y-62126000D01*
X86880952Y-62078380D01*
X87119047Y-62078380D01*
X87261904Y-62126000D01*
X87595238Y-62078380D02*
X87833333Y-63078380D01*
X88023809Y-62364095D01*
X88214285Y-63078380D01*
X88452380Y-62078380D01*
X89357142Y-63078380D02*
X88785714Y-63078380D01*
X89071428Y-63078380D02*
X89071428Y-62078380D01*
X88976190Y-62221238D01*
X88880952Y-62316476D01*
X88785714Y-62364095D01*
X90309523Y-63078380D02*
X89738095Y-63078380D01*
X90023809Y-63078380D02*
X90023809Y-62078380D01*
X89928571Y-62221238D01*
X89833333Y-62316476D01*
X89738095Y-62364095D01*
%TO.C,SW3*%
X49166666Y-63030761D02*
X49309523Y-63078380D01*
X49547619Y-63078380D01*
X49642857Y-63030761D01*
X49690476Y-62983142D01*
X49738095Y-62887904D01*
X49738095Y-62792666D01*
X49690476Y-62697428D01*
X49642857Y-62649809D01*
X49547619Y-62602190D01*
X49357142Y-62554571D01*
X49261904Y-62506952D01*
X49214285Y-62459333D01*
X49166666Y-62364095D01*
X49166666Y-62268857D01*
X49214285Y-62173619D01*
X49261904Y-62126000D01*
X49357142Y-62078380D01*
X49595238Y-62078380D01*
X49738095Y-62126000D01*
X50071428Y-62078380D02*
X50309523Y-63078380D01*
X50500000Y-62364095D01*
X50690476Y-63078380D01*
X50928571Y-62078380D01*
X51214285Y-62078380D02*
X51833333Y-62078380D01*
X51500000Y-62459333D01*
X51642857Y-62459333D01*
X51738095Y-62506952D01*
X51785714Y-62554571D01*
X51833333Y-62649809D01*
X51833333Y-62887904D01*
X51785714Y-62983142D01*
X51738095Y-63030761D01*
X51642857Y-63078380D01*
X51357142Y-63078380D01*
X51261904Y-63030761D01*
X51214285Y-62983142D01*
%TO.C,SW6*%
X68166666Y-44030761D02*
X68309523Y-44078380D01*
X68547619Y-44078380D01*
X68642857Y-44030761D01*
X68690476Y-43983142D01*
X68738095Y-43887904D01*
X68738095Y-43792666D01*
X68690476Y-43697428D01*
X68642857Y-43649809D01*
X68547619Y-43602190D01*
X68357142Y-43554571D01*
X68261904Y-43506952D01*
X68214285Y-43459333D01*
X68166666Y-43364095D01*
X68166666Y-43268857D01*
X68214285Y-43173619D01*
X68261904Y-43126000D01*
X68357142Y-43078380D01*
X68595238Y-43078380D01*
X68738095Y-43126000D01*
X69071428Y-43078380D02*
X69309523Y-44078380D01*
X69500000Y-43364095D01*
X69690476Y-44078380D01*
X69928571Y-43078380D01*
X70738095Y-43078380D02*
X70547619Y-43078380D01*
X70452380Y-43126000D01*
X70404761Y-43173619D01*
X70309523Y-43316476D01*
X70261904Y-43506952D01*
X70261904Y-43887904D01*
X70309523Y-43983142D01*
X70357142Y-44030761D01*
X70452380Y-44078380D01*
X70642857Y-44078380D01*
X70738095Y-44030761D01*
X70785714Y-43983142D01*
X70833333Y-43887904D01*
X70833333Y-43649809D01*
X70785714Y-43554571D01*
X70738095Y-43506952D01*
X70642857Y-43459333D01*
X70452380Y-43459333D01*
X70357142Y-43506952D01*
X70309523Y-43554571D01*
X70261904Y-43649809D01*
%TO.C,SW14*%
X105690476Y-44030761D02*
X105833333Y-44078380D01*
X106071428Y-44078380D01*
X106166666Y-44030761D01*
X106214285Y-43983142D01*
X106261904Y-43887904D01*
X106261904Y-43792666D01*
X106214285Y-43697428D01*
X106166666Y-43649809D01*
X106071428Y-43602190D01*
X105880952Y-43554571D01*
X105785714Y-43506952D01*
X105738095Y-43459333D01*
X105690476Y-43364095D01*
X105690476Y-43268857D01*
X105738095Y-43173619D01*
X105785714Y-43126000D01*
X105880952Y-43078380D01*
X106119047Y-43078380D01*
X106261904Y-43126000D01*
X106595238Y-43078380D02*
X106833333Y-44078380D01*
X107023809Y-43364095D01*
X107214285Y-44078380D01*
X107452380Y-43078380D01*
X108357142Y-44078380D02*
X107785714Y-44078380D01*
X108071428Y-44078380D02*
X108071428Y-43078380D01*
X107976190Y-43221238D01*
X107880952Y-43316476D01*
X107785714Y-43364095D01*
X109214285Y-43411714D02*
X109214285Y-44078380D01*
X108976190Y-43030761D02*
X108738095Y-43745047D01*
X109357142Y-43745047D01*
%TO.C,SW17*%
X105690476Y-101030761D02*
X105833333Y-101078380D01*
X106071428Y-101078380D01*
X106166666Y-101030761D01*
X106214285Y-100983142D01*
X106261904Y-100887904D01*
X106261904Y-100792666D01*
X106214285Y-100697428D01*
X106166666Y-100649809D01*
X106071428Y-100602190D01*
X105880952Y-100554571D01*
X105785714Y-100506952D01*
X105738095Y-100459333D01*
X105690476Y-100364095D01*
X105690476Y-100268857D01*
X105738095Y-100173619D01*
X105785714Y-100126000D01*
X105880952Y-100078380D01*
X106119047Y-100078380D01*
X106261904Y-100126000D01*
X106595238Y-100078380D02*
X106833333Y-101078380D01*
X107023809Y-100364095D01*
X107214285Y-101078380D01*
X107452380Y-100078380D01*
X108357142Y-101078380D02*
X107785714Y-101078380D01*
X108071428Y-101078380D02*
X108071428Y-100078380D01*
X107976190Y-100221238D01*
X107880952Y-100316476D01*
X107785714Y-100364095D01*
X108690476Y-100078380D02*
X109357142Y-100078380D01*
X108928571Y-101078380D01*
%TO.C,SW13*%
X86690476Y-101030761D02*
X86833333Y-101078380D01*
X87071428Y-101078380D01*
X87166666Y-101030761D01*
X87214285Y-100983142D01*
X87261904Y-100887904D01*
X87261904Y-100792666D01*
X87214285Y-100697428D01*
X87166666Y-100649809D01*
X87071428Y-100602190D01*
X86880952Y-100554571D01*
X86785714Y-100506952D01*
X86738095Y-100459333D01*
X86690476Y-100364095D01*
X86690476Y-100268857D01*
X86738095Y-100173619D01*
X86785714Y-100126000D01*
X86880952Y-100078380D01*
X87119047Y-100078380D01*
X87261904Y-100126000D01*
X87595238Y-100078380D02*
X87833333Y-101078380D01*
X88023809Y-100364095D01*
X88214285Y-101078380D01*
X88452380Y-100078380D01*
X89357142Y-101078380D02*
X88785714Y-101078380D01*
X89071428Y-101078380D02*
X89071428Y-100078380D01*
X88976190Y-100221238D01*
X88880952Y-100316476D01*
X88785714Y-100364095D01*
X89690476Y-100078380D02*
X90309523Y-100078380D01*
X89976190Y-100459333D01*
X90119047Y-100459333D01*
X90214285Y-100506952D01*
X90261904Y-100554571D01*
X90309523Y-100649809D01*
X90309523Y-100887904D01*
X90261904Y-100983142D01*
X90214285Y-101030761D01*
X90119047Y-101078380D01*
X89833333Y-101078380D01*
X89738095Y-101030761D01*
X89690476Y-100983142D01*
%TO.C,SW12*%
X86690476Y-82030761D02*
X86833333Y-82078380D01*
X87071428Y-82078380D01*
X87166666Y-82030761D01*
X87214285Y-81983142D01*
X87261904Y-81887904D01*
X87261904Y-81792666D01*
X87214285Y-81697428D01*
X87166666Y-81649809D01*
X87071428Y-81602190D01*
X86880952Y-81554571D01*
X86785714Y-81506952D01*
X86738095Y-81459333D01*
X86690476Y-81364095D01*
X86690476Y-81268857D01*
X86738095Y-81173619D01*
X86785714Y-81126000D01*
X86880952Y-81078380D01*
X87119047Y-81078380D01*
X87261904Y-81126000D01*
X87595238Y-81078380D02*
X87833333Y-82078380D01*
X88023809Y-81364095D01*
X88214285Y-82078380D01*
X88452380Y-81078380D01*
X89357142Y-82078380D02*
X88785714Y-82078380D01*
X89071428Y-82078380D02*
X89071428Y-81078380D01*
X88976190Y-81221238D01*
X88880952Y-81316476D01*
X88785714Y-81364095D01*
X89738095Y-81173619D02*
X89785714Y-81126000D01*
X89880952Y-81078380D01*
X90119047Y-81078380D01*
X90214285Y-81126000D01*
X90261904Y-81173619D01*
X90309523Y-81268857D01*
X90309523Y-81364095D01*
X90261904Y-81506952D01*
X89690476Y-82078380D01*
X90309523Y-82078380D01*
%TO.C,SW10*%
X86690476Y-44030761D02*
X86833333Y-44078380D01*
X87071428Y-44078380D01*
X87166666Y-44030761D01*
X87214285Y-43983142D01*
X87261904Y-43887904D01*
X87261904Y-43792666D01*
X87214285Y-43697428D01*
X87166666Y-43649809D01*
X87071428Y-43602190D01*
X86880952Y-43554571D01*
X86785714Y-43506952D01*
X86738095Y-43459333D01*
X86690476Y-43364095D01*
X86690476Y-43268857D01*
X86738095Y-43173619D01*
X86785714Y-43126000D01*
X86880952Y-43078380D01*
X87119047Y-43078380D01*
X87261904Y-43126000D01*
X87595238Y-43078380D02*
X87833333Y-44078380D01*
X88023809Y-43364095D01*
X88214285Y-44078380D01*
X88452380Y-43078380D01*
X89357142Y-44078380D02*
X88785714Y-44078380D01*
X89071428Y-44078380D02*
X89071428Y-43078380D01*
X88976190Y-43221238D01*
X88880952Y-43316476D01*
X88785714Y-43364095D01*
X89976190Y-43078380D02*
X90071428Y-43078380D01*
X90166666Y-43126000D01*
X90214285Y-43173619D01*
X90261904Y-43268857D01*
X90309523Y-43459333D01*
X90309523Y-43697428D01*
X90261904Y-43887904D01*
X90214285Y-43983142D01*
X90166666Y-44030761D01*
X90071428Y-44078380D01*
X89976190Y-44078380D01*
X89880952Y-44030761D01*
X89833333Y-43983142D01*
X89785714Y-43887904D01*
X89738095Y-43697428D01*
X89738095Y-43459333D01*
X89785714Y-43268857D01*
X89833333Y-43173619D01*
X89880952Y-43126000D01*
X89976190Y-43078380D01*
%TO.C,SW5*%
X49166666Y-101030761D02*
X49309523Y-101078380D01*
X49547619Y-101078380D01*
X49642857Y-101030761D01*
X49690476Y-100983142D01*
X49738095Y-100887904D01*
X49738095Y-100792666D01*
X49690476Y-100697428D01*
X49642857Y-100649809D01*
X49547619Y-100602190D01*
X49357142Y-100554571D01*
X49261904Y-100506952D01*
X49214285Y-100459333D01*
X49166666Y-100364095D01*
X49166666Y-100268857D01*
X49214285Y-100173619D01*
X49261904Y-100126000D01*
X49357142Y-100078380D01*
X49595238Y-100078380D01*
X49738095Y-100126000D01*
X50071428Y-100078380D02*
X50309523Y-101078380D01*
X50500000Y-100364095D01*
X50690476Y-101078380D01*
X50928571Y-100078380D01*
X51785714Y-100078380D02*
X51309523Y-100078380D01*
X51261904Y-100554571D01*
X51309523Y-100506952D01*
X51404761Y-100459333D01*
X51642857Y-100459333D01*
X51738095Y-100506952D01*
X51785714Y-100554571D01*
X51833333Y-100649809D01*
X51833333Y-100887904D01*
X51785714Y-100983142D01*
X51738095Y-101030761D01*
X51642857Y-101078380D01*
X51404761Y-101078380D01*
X51309523Y-101030761D01*
X51261904Y-100983142D01*
%TO.C,SW15*%
X105690476Y-63030761D02*
X105833333Y-63078380D01*
X106071428Y-63078380D01*
X106166666Y-63030761D01*
X106214285Y-62983142D01*
X106261904Y-62887904D01*
X106261904Y-62792666D01*
X106214285Y-62697428D01*
X106166666Y-62649809D01*
X106071428Y-62602190D01*
X105880952Y-62554571D01*
X105785714Y-62506952D01*
X105738095Y-62459333D01*
X105690476Y-62364095D01*
X105690476Y-62268857D01*
X105738095Y-62173619D01*
X105785714Y-62126000D01*
X105880952Y-62078380D01*
X106119047Y-62078380D01*
X106261904Y-62126000D01*
X106595238Y-62078380D02*
X106833333Y-63078380D01*
X107023809Y-62364095D01*
X107214285Y-63078380D01*
X107452380Y-62078380D01*
X108357142Y-63078380D02*
X107785714Y-63078380D01*
X108071428Y-63078380D02*
X108071428Y-62078380D01*
X107976190Y-62221238D01*
X107880952Y-62316476D01*
X107785714Y-62364095D01*
X109261904Y-62078380D02*
X108785714Y-62078380D01*
X108738095Y-62554571D01*
X108785714Y-62506952D01*
X108880952Y-62459333D01*
X109119047Y-62459333D01*
X109214285Y-62506952D01*
X109261904Y-62554571D01*
X109309523Y-62649809D01*
X109309523Y-62887904D01*
X109261904Y-62983142D01*
X109214285Y-63030761D01*
X109119047Y-63078380D01*
X108880952Y-63078380D01*
X108785714Y-63030761D01*
X108738095Y-62983142D01*
%TO.C,SW16*%
X105690476Y-82030761D02*
X105833333Y-82078380D01*
X106071428Y-82078380D01*
X106166666Y-82030761D01*
X106214285Y-81983142D01*
X106261904Y-81887904D01*
X106261904Y-81792666D01*
X106214285Y-81697428D01*
X106166666Y-81649809D01*
X106071428Y-81602190D01*
X105880952Y-81554571D01*
X105785714Y-81506952D01*
X105738095Y-81459333D01*
X105690476Y-81364095D01*
X105690476Y-81268857D01*
X105738095Y-81173619D01*
X105785714Y-81126000D01*
X105880952Y-81078380D01*
X106119047Y-81078380D01*
X106261904Y-81126000D01*
X106595238Y-81078380D02*
X106833333Y-82078380D01*
X107023809Y-81364095D01*
X107214285Y-82078380D01*
X107452380Y-81078380D01*
X108357142Y-82078380D02*
X107785714Y-82078380D01*
X108071428Y-82078380D02*
X108071428Y-81078380D01*
X107976190Y-81221238D01*
X107880952Y-81316476D01*
X107785714Y-81364095D01*
X109214285Y-81078380D02*
X109023809Y-81078380D01*
X108928571Y-81126000D01*
X108880952Y-81173619D01*
X108785714Y-81316476D01*
X108738095Y-81506952D01*
X108738095Y-81887904D01*
X108785714Y-81983142D01*
X108833333Y-82030761D01*
X108928571Y-82078380D01*
X109119047Y-82078380D01*
X109214285Y-82030761D01*
X109261904Y-81983142D01*
X109309523Y-81887904D01*
X109309523Y-81649809D01*
X109261904Y-81554571D01*
X109214285Y-81506952D01*
X109119047Y-81459333D01*
X108928571Y-81459333D01*
X108833333Y-81506952D01*
X108785714Y-81554571D01*
X108738095Y-81649809D01*
%TO.C,SW8*%
X68166666Y-82030761D02*
X68309523Y-82078380D01*
X68547619Y-82078380D01*
X68642857Y-82030761D01*
X68690476Y-81983142D01*
X68738095Y-81887904D01*
X68738095Y-81792666D01*
X68690476Y-81697428D01*
X68642857Y-81649809D01*
X68547619Y-81602190D01*
X68357142Y-81554571D01*
X68261904Y-81506952D01*
X68214285Y-81459333D01*
X68166666Y-81364095D01*
X68166666Y-81268857D01*
X68214285Y-81173619D01*
X68261904Y-81126000D01*
X68357142Y-81078380D01*
X68595238Y-81078380D01*
X68738095Y-81126000D01*
X69071428Y-81078380D02*
X69309523Y-82078380D01*
X69500000Y-81364095D01*
X69690476Y-82078380D01*
X69928571Y-81078380D01*
X70452380Y-81506952D02*
X70357142Y-81459333D01*
X70309523Y-81411714D01*
X70261904Y-81316476D01*
X70261904Y-81268857D01*
X70309523Y-81173619D01*
X70357142Y-81126000D01*
X70452380Y-81078380D01*
X70642857Y-81078380D01*
X70738095Y-81126000D01*
X70785714Y-81173619D01*
X70833333Y-81268857D01*
X70833333Y-81316476D01*
X70785714Y-81411714D01*
X70738095Y-81459333D01*
X70642857Y-81506952D01*
X70452380Y-81506952D01*
X70357142Y-81554571D01*
X70309523Y-81602190D01*
X70261904Y-81697428D01*
X70261904Y-81887904D01*
X70309523Y-81983142D01*
X70357142Y-82030761D01*
X70452380Y-82078380D01*
X70642857Y-82078380D01*
X70738095Y-82030761D01*
X70785714Y-81983142D01*
X70833333Y-81887904D01*
X70833333Y-81697428D01*
X70785714Y-81602190D01*
X70738095Y-81554571D01*
X70642857Y-81506952D01*
%TO.C,SW27*%
X200690476Y-101030761D02*
X200833333Y-101078380D01*
X201071428Y-101078380D01*
X201166666Y-101030761D01*
X201214285Y-100983142D01*
X201261904Y-100887904D01*
X201261904Y-100792666D01*
X201214285Y-100697428D01*
X201166666Y-100649809D01*
X201071428Y-100602190D01*
X200880952Y-100554571D01*
X200785714Y-100506952D01*
X200738095Y-100459333D01*
X200690476Y-100364095D01*
X200690476Y-100268857D01*
X200738095Y-100173619D01*
X200785714Y-100126000D01*
X200880952Y-100078380D01*
X201119047Y-100078380D01*
X201261904Y-100126000D01*
X201595238Y-100078380D02*
X201833333Y-101078380D01*
X202023809Y-100364095D01*
X202214285Y-101078380D01*
X202452380Y-100078380D01*
X202785714Y-100173619D02*
X202833333Y-100126000D01*
X202928571Y-100078380D01*
X203166666Y-100078380D01*
X203261904Y-100126000D01*
X203309523Y-100173619D01*
X203357142Y-100268857D01*
X203357142Y-100364095D01*
X203309523Y-100506952D01*
X202738095Y-101078380D01*
X203357142Y-101078380D01*
X203690476Y-100078380D02*
X204357142Y-100078380D01*
X203928571Y-101078380D01*
%TO.C,SW18*%
X162690476Y-44030761D02*
X162833333Y-44078380D01*
X163071428Y-44078380D01*
X163166666Y-44030761D01*
X163214285Y-43983142D01*
X163261904Y-43887904D01*
X163261904Y-43792666D01*
X163214285Y-43697428D01*
X163166666Y-43649809D01*
X163071428Y-43602190D01*
X162880952Y-43554571D01*
X162785714Y-43506952D01*
X162738095Y-43459333D01*
X162690476Y-43364095D01*
X162690476Y-43268857D01*
X162738095Y-43173619D01*
X162785714Y-43126000D01*
X162880952Y-43078380D01*
X163119047Y-43078380D01*
X163261904Y-43126000D01*
X163595238Y-43078380D02*
X163833333Y-44078380D01*
X164023809Y-43364095D01*
X164214285Y-44078380D01*
X164452380Y-43078380D01*
X165357142Y-44078380D02*
X164785714Y-44078380D01*
X165071428Y-44078380D02*
X165071428Y-43078380D01*
X164976190Y-43221238D01*
X164880952Y-43316476D01*
X164785714Y-43364095D01*
X165928571Y-43506952D02*
X165833333Y-43459333D01*
X165785714Y-43411714D01*
X165738095Y-43316476D01*
X165738095Y-43268857D01*
X165785714Y-43173619D01*
X165833333Y-43126000D01*
X165928571Y-43078380D01*
X166119047Y-43078380D01*
X166214285Y-43126000D01*
X166261904Y-43173619D01*
X166309523Y-43268857D01*
X166309523Y-43316476D01*
X166261904Y-43411714D01*
X166214285Y-43459333D01*
X166119047Y-43506952D01*
X165928571Y-43506952D01*
X165833333Y-43554571D01*
X165785714Y-43602190D01*
X165738095Y-43697428D01*
X165738095Y-43887904D01*
X165785714Y-43983142D01*
X165833333Y-44030761D01*
X165928571Y-44078380D01*
X166119047Y-44078380D01*
X166214285Y-44030761D01*
X166261904Y-43983142D01*
X166309523Y-43887904D01*
X166309523Y-43697428D01*
X166261904Y-43602190D01*
X166214285Y-43554571D01*
X166119047Y-43506952D01*
%TO.C,SW4*%
X49166666Y-82030761D02*
X49309523Y-82078380D01*
X49547619Y-82078380D01*
X49642857Y-82030761D01*
X49690476Y-81983142D01*
X49738095Y-81887904D01*
X49738095Y-81792666D01*
X49690476Y-81697428D01*
X49642857Y-81649809D01*
X49547619Y-81602190D01*
X49357142Y-81554571D01*
X49261904Y-81506952D01*
X49214285Y-81459333D01*
X49166666Y-81364095D01*
X49166666Y-81268857D01*
X49214285Y-81173619D01*
X49261904Y-81126000D01*
X49357142Y-81078380D01*
X49595238Y-81078380D01*
X49738095Y-81126000D01*
X50071428Y-81078380D02*
X50309523Y-82078380D01*
X50500000Y-81364095D01*
X50690476Y-82078380D01*
X50928571Y-81078380D01*
X51738095Y-81411714D02*
X51738095Y-82078380D01*
X51500000Y-81030761D02*
X51261904Y-81745047D01*
X51880952Y-81745047D01*
%TO.C,J1*%
X147666666Y-47912380D02*
X147666666Y-48626666D01*
X147619047Y-48769523D01*
X147523809Y-48864761D01*
X147380952Y-48912380D01*
X147285714Y-48912380D01*
X148666666Y-48912380D02*
X148095238Y-48912380D01*
X148380952Y-48912380D02*
X148380952Y-47912380D01*
X148285714Y-48055238D01*
X148190476Y-48150476D01*
X148095238Y-48198095D01*
%TO.C,SW26*%
X200690476Y-63030761D02*
X200833333Y-63078380D01*
X201071428Y-63078380D01*
X201166666Y-63030761D01*
X201214285Y-62983142D01*
X201261904Y-62887904D01*
X201261904Y-62792666D01*
X201214285Y-62697428D01*
X201166666Y-62649809D01*
X201071428Y-62602190D01*
X200880952Y-62554571D01*
X200785714Y-62506952D01*
X200738095Y-62459333D01*
X200690476Y-62364095D01*
X200690476Y-62268857D01*
X200738095Y-62173619D01*
X200785714Y-62126000D01*
X200880952Y-62078380D01*
X201119047Y-62078380D01*
X201261904Y-62126000D01*
X201595238Y-62078380D02*
X201833333Y-63078380D01*
X202023809Y-62364095D01*
X202214285Y-63078380D01*
X202452380Y-62078380D01*
X202785714Y-62173619D02*
X202833333Y-62126000D01*
X202928571Y-62078380D01*
X203166666Y-62078380D01*
X203261904Y-62126000D01*
X203309523Y-62173619D01*
X203357142Y-62268857D01*
X203357142Y-62364095D01*
X203309523Y-62506952D01*
X202738095Y-63078380D01*
X203357142Y-63078380D01*
X204214285Y-62078380D02*
X204023809Y-62078380D01*
X203928571Y-62126000D01*
X203880952Y-62173619D01*
X203785714Y-62316476D01*
X203738095Y-62506952D01*
X203738095Y-62887904D01*
X203785714Y-62983142D01*
X203833333Y-63030761D01*
X203928571Y-63078380D01*
X204119047Y-63078380D01*
X204214285Y-63030761D01*
X204261904Y-62983142D01*
X204309523Y-62887904D01*
X204309523Y-62649809D01*
X204261904Y-62554571D01*
X204214285Y-62506952D01*
X204119047Y-62459333D01*
X203928571Y-62459333D01*
X203833333Y-62506952D01*
X203785714Y-62554571D01*
X203738095Y-62649809D01*
%TO.C,SW24*%
X181690476Y-101030761D02*
X181833333Y-101078380D01*
X182071428Y-101078380D01*
X182166666Y-101030761D01*
X182214285Y-100983142D01*
X182261904Y-100887904D01*
X182261904Y-100792666D01*
X182214285Y-100697428D01*
X182166666Y-100649809D01*
X182071428Y-100602190D01*
X181880952Y-100554571D01*
X181785714Y-100506952D01*
X181738095Y-100459333D01*
X181690476Y-100364095D01*
X181690476Y-100268857D01*
X181738095Y-100173619D01*
X181785714Y-100126000D01*
X181880952Y-100078380D01*
X182119047Y-100078380D01*
X182261904Y-100126000D01*
X182595238Y-100078380D02*
X182833333Y-101078380D01*
X183023809Y-100364095D01*
X183214285Y-101078380D01*
X183452380Y-100078380D01*
X183785714Y-100173619D02*
X183833333Y-100126000D01*
X183928571Y-100078380D01*
X184166666Y-100078380D01*
X184261904Y-100126000D01*
X184309523Y-100173619D01*
X184357142Y-100268857D01*
X184357142Y-100364095D01*
X184309523Y-100506952D01*
X183738095Y-101078380D01*
X184357142Y-101078380D01*
X185214285Y-100411714D02*
X185214285Y-101078380D01*
X184976190Y-100030761D02*
X184738095Y-100745047D01*
X185357142Y-100745047D01*
%TO.C,SW23*%
X181690476Y-82030761D02*
X181833333Y-82078380D01*
X182071428Y-82078380D01*
X182166666Y-82030761D01*
X182214285Y-81983142D01*
X182261904Y-81887904D01*
X182261904Y-81792666D01*
X182214285Y-81697428D01*
X182166666Y-81649809D01*
X182071428Y-81602190D01*
X181880952Y-81554571D01*
X181785714Y-81506952D01*
X181738095Y-81459333D01*
X181690476Y-81364095D01*
X181690476Y-81268857D01*
X181738095Y-81173619D01*
X181785714Y-81126000D01*
X181880952Y-81078380D01*
X182119047Y-81078380D01*
X182261904Y-81126000D01*
X182595238Y-81078380D02*
X182833333Y-82078380D01*
X183023809Y-81364095D01*
X183214285Y-82078380D01*
X183452380Y-81078380D01*
X183785714Y-81173619D02*
X183833333Y-81126000D01*
X183928571Y-81078380D01*
X184166666Y-81078380D01*
X184261904Y-81126000D01*
X184309523Y-81173619D01*
X184357142Y-81268857D01*
X184357142Y-81364095D01*
X184309523Y-81506952D01*
X183738095Y-82078380D01*
X184357142Y-82078380D01*
X184690476Y-81078380D02*
X185309523Y-81078380D01*
X184976190Y-81459333D01*
X185119047Y-81459333D01*
X185214285Y-81506952D01*
X185261904Y-81554571D01*
X185309523Y-81649809D01*
X185309523Y-81887904D01*
X185261904Y-81983142D01*
X185214285Y-82030761D01*
X185119047Y-82078380D01*
X184833333Y-82078380D01*
X184738095Y-82030761D01*
X184690476Y-81983142D01*
%TO.C,SW21*%
X181690476Y-44030761D02*
X181833333Y-44078380D01*
X182071428Y-44078380D01*
X182166666Y-44030761D01*
X182214285Y-43983142D01*
X182261904Y-43887904D01*
X182261904Y-43792666D01*
X182214285Y-43697428D01*
X182166666Y-43649809D01*
X182071428Y-43602190D01*
X181880952Y-43554571D01*
X181785714Y-43506952D01*
X181738095Y-43459333D01*
X181690476Y-43364095D01*
X181690476Y-43268857D01*
X181738095Y-43173619D01*
X181785714Y-43126000D01*
X181880952Y-43078380D01*
X182119047Y-43078380D01*
X182261904Y-43126000D01*
X182595238Y-43078380D02*
X182833333Y-44078380D01*
X183023809Y-43364095D01*
X183214285Y-44078380D01*
X183452380Y-43078380D01*
X183785714Y-43173619D02*
X183833333Y-43126000D01*
X183928571Y-43078380D01*
X184166666Y-43078380D01*
X184261904Y-43126000D01*
X184309523Y-43173619D01*
X184357142Y-43268857D01*
X184357142Y-43364095D01*
X184309523Y-43506952D01*
X183738095Y-44078380D01*
X184357142Y-44078380D01*
X185309523Y-44078380D02*
X184738095Y-44078380D01*
X185023809Y-44078380D02*
X185023809Y-43078380D01*
X184928571Y-43221238D01*
X184833333Y-43316476D01*
X184738095Y-43364095D01*
%TO.C,J2*%
X143166666Y-47912380D02*
X143166666Y-48626666D01*
X143119047Y-48769523D01*
X143023809Y-48864761D01*
X142880952Y-48912380D01*
X142785714Y-48912380D01*
X143595238Y-48007619D02*
X143642857Y-47960000D01*
X143738095Y-47912380D01*
X143976190Y-47912380D01*
X144071428Y-47960000D01*
X144119047Y-48007619D01*
X144166666Y-48102857D01*
X144166666Y-48198095D01*
X144119047Y-48340952D01*
X143547619Y-48912380D01*
X144166666Y-48912380D01*
%TO.C,SW25*%
X200690476Y-44030761D02*
X200833333Y-44078380D01*
X201071428Y-44078380D01*
X201166666Y-44030761D01*
X201214285Y-43983142D01*
X201261904Y-43887904D01*
X201261904Y-43792666D01*
X201214285Y-43697428D01*
X201166666Y-43649809D01*
X201071428Y-43602190D01*
X200880952Y-43554571D01*
X200785714Y-43506952D01*
X200738095Y-43459333D01*
X200690476Y-43364095D01*
X200690476Y-43268857D01*
X200738095Y-43173619D01*
X200785714Y-43126000D01*
X200880952Y-43078380D01*
X201119047Y-43078380D01*
X201261904Y-43126000D01*
X201595238Y-43078380D02*
X201833333Y-44078380D01*
X202023809Y-43364095D01*
X202214285Y-44078380D01*
X202452380Y-43078380D01*
X202785714Y-43173619D02*
X202833333Y-43126000D01*
X202928571Y-43078380D01*
X203166666Y-43078380D01*
X203261904Y-43126000D01*
X203309523Y-43173619D01*
X203357142Y-43268857D01*
X203357142Y-43364095D01*
X203309523Y-43506952D01*
X202738095Y-44078380D01*
X203357142Y-44078380D01*
X204261904Y-43078380D02*
X203785714Y-43078380D01*
X203738095Y-43554571D01*
X203785714Y-43506952D01*
X203880952Y-43459333D01*
X204119047Y-43459333D01*
X204214285Y-43506952D01*
X204261904Y-43554571D01*
X204309523Y-43649809D01*
X204309523Y-43887904D01*
X204261904Y-43983142D01*
X204214285Y-44030761D01*
X204119047Y-44078380D01*
X203880952Y-44078380D01*
X203785714Y-44030761D01*
X203738095Y-43983142D01*
%TO.C,SW28*%
X134190476Y-101030761D02*
X134333333Y-101078380D01*
X134571428Y-101078380D01*
X134666666Y-101030761D01*
X134714285Y-100983142D01*
X134761904Y-100887904D01*
X134761904Y-100792666D01*
X134714285Y-100697428D01*
X134666666Y-100649809D01*
X134571428Y-100602190D01*
X134380952Y-100554571D01*
X134285714Y-100506952D01*
X134238095Y-100459333D01*
X134190476Y-100364095D01*
X134190476Y-100268857D01*
X134238095Y-100173619D01*
X134285714Y-100126000D01*
X134380952Y-100078380D01*
X134619047Y-100078380D01*
X134761904Y-100126000D01*
X135095238Y-100078380D02*
X135333333Y-101078380D01*
X135523809Y-100364095D01*
X135714285Y-101078380D01*
X135952380Y-100078380D01*
X136285714Y-100173619D02*
X136333333Y-100126000D01*
X136428571Y-100078380D01*
X136666666Y-100078380D01*
X136761904Y-100126000D01*
X136809523Y-100173619D01*
X136857142Y-100268857D01*
X136857142Y-100364095D01*
X136809523Y-100506952D01*
X136238095Y-101078380D01*
X136857142Y-101078380D01*
X137428571Y-100506952D02*
X137333333Y-100459333D01*
X137285714Y-100411714D01*
X137238095Y-100316476D01*
X137238095Y-100268857D01*
X137285714Y-100173619D01*
X137333333Y-100126000D01*
X137428571Y-100078380D01*
X137619047Y-100078380D01*
X137714285Y-100126000D01*
X137761904Y-100173619D01*
X137809523Y-100268857D01*
X137809523Y-100316476D01*
X137761904Y-100411714D01*
X137714285Y-100459333D01*
X137619047Y-100506952D01*
X137428571Y-100506952D01*
X137333333Y-100554571D01*
X137285714Y-100602190D01*
X137238095Y-100697428D01*
X137238095Y-100887904D01*
X137285714Y-100983142D01*
X137333333Y-101030761D01*
X137428571Y-101078380D01*
X137619047Y-101078380D01*
X137714285Y-101030761D01*
X137761904Y-100983142D01*
X137809523Y-100887904D01*
X137809523Y-100697428D01*
X137761904Y-100602190D01*
X137714285Y-100554571D01*
X137619047Y-100506952D01*
%TO.C,SW9*%
X68166666Y-101030761D02*
X68309523Y-101078380D01*
X68547619Y-101078380D01*
X68642857Y-101030761D01*
X68690476Y-100983142D01*
X68738095Y-100887904D01*
X68738095Y-100792666D01*
X68690476Y-100697428D01*
X68642857Y-100649809D01*
X68547619Y-100602190D01*
X68357142Y-100554571D01*
X68261904Y-100506952D01*
X68214285Y-100459333D01*
X68166666Y-100364095D01*
X68166666Y-100268857D01*
X68214285Y-100173619D01*
X68261904Y-100126000D01*
X68357142Y-100078380D01*
X68595238Y-100078380D01*
X68738095Y-100126000D01*
X69071428Y-100078380D02*
X69309523Y-101078380D01*
X69500000Y-100364095D01*
X69690476Y-101078380D01*
X69928571Y-100078380D01*
X70357142Y-101078380D02*
X70547619Y-101078380D01*
X70642857Y-101030761D01*
X70690476Y-100983142D01*
X70785714Y-100840285D01*
X70833333Y-100649809D01*
X70833333Y-100268857D01*
X70785714Y-100173619D01*
X70738095Y-100126000D01*
X70642857Y-100078380D01*
X70452380Y-100078380D01*
X70357142Y-100126000D01*
X70309523Y-100173619D01*
X70261904Y-100268857D01*
X70261904Y-100506952D01*
X70309523Y-100602190D01*
X70357142Y-100649809D01*
X70452380Y-100697428D01*
X70642857Y-100697428D01*
X70738095Y-100649809D01*
X70785714Y-100602190D01*
X70833333Y-100506952D01*
%TO.C,SW7*%
X68166666Y-63030761D02*
X68309523Y-63078380D01*
X68547619Y-63078380D01*
X68642857Y-63030761D01*
X68690476Y-62983142D01*
X68738095Y-62887904D01*
X68738095Y-62792666D01*
X68690476Y-62697428D01*
X68642857Y-62649809D01*
X68547619Y-62602190D01*
X68357142Y-62554571D01*
X68261904Y-62506952D01*
X68214285Y-62459333D01*
X68166666Y-62364095D01*
X68166666Y-62268857D01*
X68214285Y-62173619D01*
X68261904Y-62126000D01*
X68357142Y-62078380D01*
X68595238Y-62078380D01*
X68738095Y-62126000D01*
X69071428Y-62078380D02*
X69309523Y-63078380D01*
X69500000Y-62364095D01*
X69690476Y-63078380D01*
X69928571Y-62078380D01*
X70214285Y-62078380D02*
X70880952Y-62078380D01*
X70452380Y-63078380D01*
%TO.C,SW19*%
X162690476Y-63030761D02*
X162833333Y-63078380D01*
X163071428Y-63078380D01*
X163166666Y-63030761D01*
X163214285Y-62983142D01*
X163261904Y-62887904D01*
X163261904Y-62792666D01*
X163214285Y-62697428D01*
X163166666Y-62649809D01*
X163071428Y-62602190D01*
X162880952Y-62554571D01*
X162785714Y-62506952D01*
X162738095Y-62459333D01*
X162690476Y-62364095D01*
X162690476Y-62268857D01*
X162738095Y-62173619D01*
X162785714Y-62126000D01*
X162880952Y-62078380D01*
X163119047Y-62078380D01*
X163261904Y-62126000D01*
X163595238Y-62078380D02*
X163833333Y-63078380D01*
X164023809Y-62364095D01*
X164214285Y-63078380D01*
X164452380Y-62078380D01*
X165357142Y-63078380D02*
X164785714Y-63078380D01*
X165071428Y-63078380D02*
X165071428Y-62078380D01*
X164976190Y-62221238D01*
X164880952Y-62316476D01*
X164785714Y-62364095D01*
X165833333Y-63078380D02*
X166023809Y-63078380D01*
X166119047Y-63030761D01*
X166166666Y-62983142D01*
X166261904Y-62840285D01*
X166309523Y-62649809D01*
X166309523Y-62268857D01*
X166261904Y-62173619D01*
X166214285Y-62126000D01*
X166119047Y-62078380D01*
X165928571Y-62078380D01*
X165833333Y-62126000D01*
X165785714Y-62173619D01*
X165738095Y-62268857D01*
X165738095Y-62506952D01*
X165785714Y-62602190D01*
X165833333Y-62649809D01*
X165928571Y-62697428D01*
X166119047Y-62697428D01*
X166214285Y-62649809D01*
X166261904Y-62602190D01*
X166309523Y-62506952D01*
%TO.C,SW2*%
X49166666Y-44030761D02*
X49309523Y-44078380D01*
X49547619Y-44078380D01*
X49642857Y-44030761D01*
X49690476Y-43983142D01*
X49738095Y-43887904D01*
X49738095Y-43792666D01*
X49690476Y-43697428D01*
X49642857Y-43649809D01*
X49547619Y-43602190D01*
X49357142Y-43554571D01*
X49261904Y-43506952D01*
X49214285Y-43459333D01*
X49166666Y-43364095D01*
X49166666Y-43268857D01*
X49214285Y-43173619D01*
X49261904Y-43126000D01*
X49357142Y-43078380D01*
X49595238Y-43078380D01*
X49738095Y-43126000D01*
X50071428Y-43078380D02*
X50309523Y-44078380D01*
X50500000Y-43364095D01*
X50690476Y-44078380D01*
X50928571Y-43078380D01*
X51261904Y-43173619D02*
X51309523Y-43126000D01*
X51404761Y-43078380D01*
X51642857Y-43078380D01*
X51738095Y-43126000D01*
X51785714Y-43173619D01*
X51833333Y-43268857D01*
X51833333Y-43364095D01*
X51785714Y-43506952D01*
X51214285Y-44078380D01*
X51833333Y-44078380D01*
%TO.C,SW22*%
X181690476Y-63030761D02*
X181833333Y-63078380D01*
X182071428Y-63078380D01*
X182166666Y-63030761D01*
X182214285Y-62983142D01*
X182261904Y-62887904D01*
X182261904Y-62792666D01*
X182214285Y-62697428D01*
X182166666Y-62649809D01*
X182071428Y-62602190D01*
X181880952Y-62554571D01*
X181785714Y-62506952D01*
X181738095Y-62459333D01*
X181690476Y-62364095D01*
X181690476Y-62268857D01*
X181738095Y-62173619D01*
X181785714Y-62126000D01*
X181880952Y-62078380D01*
X182119047Y-62078380D01*
X182261904Y-62126000D01*
X182595238Y-62078380D02*
X182833333Y-63078380D01*
X183023809Y-62364095D01*
X183214285Y-63078380D01*
X183452380Y-62078380D01*
X183785714Y-62173619D02*
X183833333Y-62126000D01*
X183928571Y-62078380D01*
X184166666Y-62078380D01*
X184261904Y-62126000D01*
X184309523Y-62173619D01*
X184357142Y-62268857D01*
X184357142Y-62364095D01*
X184309523Y-62506952D01*
X183738095Y-63078380D01*
X184357142Y-63078380D01*
X184738095Y-62173619D02*
X184785714Y-62126000D01*
X184880952Y-62078380D01*
X185119047Y-62078380D01*
X185214285Y-62126000D01*
X185261904Y-62173619D01*
X185309523Y-62268857D01*
X185309523Y-62364095D01*
X185261904Y-62506952D01*
X184690476Y-63078380D01*
X185309523Y-63078380D01*
%TO.C,SW1*%
X144666666Y-46604761D02*
X144809523Y-46652380D01*
X145047619Y-46652380D01*
X145142857Y-46604761D01*
X145190476Y-46557142D01*
X145238095Y-46461904D01*
X145238095Y-46366666D01*
X145190476Y-46271428D01*
X145142857Y-46223809D01*
X145047619Y-46176190D01*
X144857142Y-46128571D01*
X144761904Y-46080952D01*
X144714285Y-46033333D01*
X144666666Y-45938095D01*
X144666666Y-45842857D01*
X144714285Y-45747619D01*
X144761904Y-45700000D01*
X144857142Y-45652380D01*
X145095238Y-45652380D01*
X145238095Y-45700000D01*
X145571428Y-45652380D02*
X145809523Y-46652380D01*
X146000000Y-45938095D01*
X146190476Y-46652380D01*
X146428571Y-45652380D01*
X147333333Y-46652380D02*
X146761904Y-46652380D01*
X147047619Y-46652380D02*
X147047619Y-45652380D01*
X146952380Y-45795238D01*
X146857142Y-45890476D01*
X146761904Y-45938095D01*
%TO.C,SW20*%
X162690476Y-101030761D02*
X162833333Y-101078380D01*
X163071428Y-101078380D01*
X163166666Y-101030761D01*
X163214285Y-100983142D01*
X163261904Y-100887904D01*
X163261904Y-100792666D01*
X163214285Y-100697428D01*
X163166666Y-100649809D01*
X163071428Y-100602190D01*
X162880952Y-100554571D01*
X162785714Y-100506952D01*
X162738095Y-100459333D01*
X162690476Y-100364095D01*
X162690476Y-100268857D01*
X162738095Y-100173619D01*
X162785714Y-100126000D01*
X162880952Y-100078380D01*
X163119047Y-100078380D01*
X163261904Y-100126000D01*
X163595238Y-100078380D02*
X163833333Y-101078380D01*
X164023809Y-100364095D01*
X164214285Y-101078380D01*
X164452380Y-100078380D01*
X164785714Y-100173619D02*
X164833333Y-100126000D01*
X164928571Y-100078380D01*
X165166666Y-100078380D01*
X165261904Y-100126000D01*
X165309523Y-100173619D01*
X165357142Y-100268857D01*
X165357142Y-100364095D01*
X165309523Y-100506952D01*
X164738095Y-101078380D01*
X165357142Y-101078380D01*
X165976190Y-100078380D02*
X166071428Y-100078380D01*
X166166666Y-100126000D01*
X166214285Y-100173619D01*
X166261904Y-100268857D01*
X166309523Y-100459333D01*
X166309523Y-100697428D01*
X166261904Y-100887904D01*
X166214285Y-100983142D01*
X166166666Y-101030761D01*
X166071428Y-101078380D01*
X165976190Y-101078380D01*
X165880952Y-101030761D01*
X165833333Y-100983142D01*
X165785714Y-100887904D01*
X165738095Y-100697428D01*
X165738095Y-100459333D01*
X165785714Y-100268857D01*
X165833333Y-100173619D01*
X165880952Y-100126000D01*
X165976190Y-100078380D01*
%TO.C,D27*%
X239103171Y-58961904D02*
X239103171Y-58161904D01*
X239293647Y-58161904D01*
X239407933Y-58200000D01*
X239484123Y-58276190D01*
X239522219Y-58352380D01*
X239560314Y-58504761D01*
X239560314Y-58619047D01*
X239522219Y-58771428D01*
X239484123Y-58847619D01*
X239407933Y-58923809D01*
X239293647Y-58961904D01*
X239103171Y-58961904D01*
X239865076Y-58238095D02*
X239903171Y-58200000D01*
X239979361Y-58161904D01*
X240169838Y-58161904D01*
X240246028Y-58200000D01*
X240284123Y-58238095D01*
X240322219Y-58314285D01*
X240322219Y-58390476D01*
X240284123Y-58504761D01*
X239826980Y-58961904D01*
X240322219Y-58961904D01*
X240588885Y-58161904D02*
X241122219Y-58161904D01*
X240779361Y-58961904D01*
%TO.C,D19*%
X172961904Y-109496828D02*
X172161904Y-109496828D01*
X172161904Y-109306352D01*
X172200000Y-109192066D01*
X172276190Y-109115876D01*
X172352380Y-109077780D01*
X172504761Y-109039685D01*
X172619047Y-109039685D01*
X172771428Y-109077780D01*
X172847619Y-109115876D01*
X172923809Y-109192066D01*
X172961904Y-109306352D01*
X172961904Y-109496828D01*
X172961904Y-108277780D02*
X172961904Y-108734923D01*
X172961904Y-108506352D02*
X172161904Y-108506352D01*
X172276190Y-108582542D01*
X172352380Y-108658733D01*
X172390476Y-108734923D01*
X172961904Y-107896828D02*
X172961904Y-107744447D01*
X172923809Y-107668257D01*
X172885714Y-107630161D01*
X172771428Y-107553971D01*
X172619047Y-107515876D01*
X172314285Y-107515876D01*
X172238095Y-107553971D01*
X172200000Y-107592066D01*
X172161904Y-107668257D01*
X172161904Y-107820638D01*
X172200000Y-107896828D01*
X172238095Y-107934923D01*
X172314285Y-107973019D01*
X172504761Y-107973019D01*
X172580952Y-107934923D01*
X172619047Y-107896828D01*
X172657142Y-107820638D01*
X172657142Y-107668257D01*
X172619047Y-107592066D01*
X172580952Y-107553971D01*
X172504761Y-107515876D01*
%TO.C,D8*%
X77961904Y-109115876D02*
X77161904Y-109115876D01*
X77161904Y-108925400D01*
X77200000Y-108811114D01*
X77276190Y-108734923D01*
X77352380Y-108696828D01*
X77504761Y-108658733D01*
X77619047Y-108658733D01*
X77771428Y-108696828D01*
X77847619Y-108734923D01*
X77923809Y-108811114D01*
X77961904Y-108925400D01*
X77961904Y-109115876D01*
X77504761Y-108201590D02*
X77466666Y-108277780D01*
X77428571Y-108315876D01*
X77352380Y-108353971D01*
X77314285Y-108353971D01*
X77238095Y-108315876D01*
X77200000Y-108277780D01*
X77161904Y-108201590D01*
X77161904Y-108049209D01*
X77200000Y-107973019D01*
X77238095Y-107934923D01*
X77314285Y-107896828D01*
X77352380Y-107896828D01*
X77428571Y-107934923D01*
X77466666Y-107973019D01*
X77504761Y-108049209D01*
X77504761Y-108201590D01*
X77542857Y-108277780D01*
X77580952Y-108315876D01*
X77657142Y-108353971D01*
X77809523Y-108353971D01*
X77885714Y-108315876D01*
X77923809Y-108277780D01*
X77961904Y-108201590D01*
X77961904Y-108049209D01*
X77923809Y-107973019D01*
X77885714Y-107934923D01*
X77809523Y-107896828D01*
X77657142Y-107896828D01*
X77580952Y-107934923D01*
X77542857Y-107973019D01*
X77504761Y-108049209D01*
%TO.C,D15*%
X115961904Y-90496828D02*
X115161904Y-90496828D01*
X115161904Y-90306352D01*
X115200000Y-90192066D01*
X115276190Y-90115876D01*
X115352380Y-90077780D01*
X115504761Y-90039685D01*
X115619047Y-90039685D01*
X115771428Y-90077780D01*
X115847619Y-90115876D01*
X115923809Y-90192066D01*
X115961904Y-90306352D01*
X115961904Y-90496828D01*
X115961904Y-89277780D02*
X115961904Y-89734923D01*
X115961904Y-89506352D02*
X115161904Y-89506352D01*
X115276190Y-89582542D01*
X115352380Y-89658733D01*
X115390476Y-89734923D01*
X115161904Y-88553971D02*
X115161904Y-88934923D01*
X115542857Y-88973019D01*
X115504761Y-88934923D01*
X115466666Y-88858733D01*
X115466666Y-88668257D01*
X115504761Y-88592066D01*
X115542857Y-88553971D01*
X115619047Y-88515876D01*
X115809523Y-88515876D01*
X115885714Y-88553971D01*
X115923809Y-88592066D01*
X115961904Y-88668257D01*
X115961904Y-88858733D01*
X115923809Y-88934923D01*
X115885714Y-88973019D01*
%TO.C,D1*%
X58961904Y-52015876D02*
X58161904Y-52015876D01*
X58161904Y-51825400D01*
X58200000Y-51711114D01*
X58276190Y-51634923D01*
X58352380Y-51596828D01*
X58504761Y-51558733D01*
X58619047Y-51558733D01*
X58771428Y-51596828D01*
X58847619Y-51634923D01*
X58923809Y-51711114D01*
X58961904Y-51825400D01*
X58961904Y-52015876D01*
X58961904Y-50796828D02*
X58961904Y-51253971D01*
X58961904Y-51025400D02*
X58161904Y-51025400D01*
X58276190Y-51101590D01*
X58352380Y-51177780D01*
X58390476Y-51253971D01*
%TO.C,D11*%
X96961904Y-90496828D02*
X96161904Y-90496828D01*
X96161904Y-90306352D01*
X96200000Y-90192066D01*
X96276190Y-90115876D01*
X96352380Y-90077780D01*
X96504761Y-90039685D01*
X96619047Y-90039685D01*
X96771428Y-90077780D01*
X96847619Y-90115876D01*
X96923809Y-90192066D01*
X96961904Y-90306352D01*
X96961904Y-90496828D01*
X96961904Y-89277780D02*
X96961904Y-89734923D01*
X96961904Y-89506352D02*
X96161904Y-89506352D01*
X96276190Y-89582542D01*
X96352380Y-89658733D01*
X96390476Y-89734923D01*
X96961904Y-88515876D02*
X96961904Y-88973019D01*
X96961904Y-88744447D02*
X96161904Y-88744447D01*
X96276190Y-88820638D01*
X96352380Y-88896828D01*
X96390476Y-88973019D01*
%TO.C,D25*%
X210961904Y-71496828D02*
X210161904Y-71496828D01*
X210161904Y-71306352D01*
X210200000Y-71192066D01*
X210276190Y-71115876D01*
X210352380Y-71077780D01*
X210504761Y-71039685D01*
X210619047Y-71039685D01*
X210771428Y-71077780D01*
X210847619Y-71115876D01*
X210923809Y-71192066D01*
X210961904Y-71306352D01*
X210961904Y-71496828D01*
X210238095Y-70734923D02*
X210200000Y-70696828D01*
X210161904Y-70620638D01*
X210161904Y-70430161D01*
X210200000Y-70353971D01*
X210238095Y-70315876D01*
X210314285Y-70277780D01*
X210390476Y-70277780D01*
X210504761Y-70315876D01*
X210961904Y-70773019D01*
X210961904Y-70277780D01*
X210161904Y-69553971D02*
X210161904Y-69934923D01*
X210542857Y-69973019D01*
X210504761Y-69934923D01*
X210466666Y-69858733D01*
X210466666Y-69668257D01*
X210504761Y-69592066D01*
X210542857Y-69553971D01*
X210619047Y-69515876D01*
X210809523Y-69515876D01*
X210885714Y-69553971D01*
X210923809Y-69592066D01*
X210961904Y-69668257D01*
X210961904Y-69858733D01*
X210923809Y-69934923D01*
X210885714Y-69973019D01*
%TO.C,D3*%
X58961904Y-90115876D02*
X58161904Y-90115876D01*
X58161904Y-89925400D01*
X58200000Y-89811114D01*
X58276190Y-89734923D01*
X58352380Y-89696828D01*
X58504761Y-89658733D01*
X58619047Y-89658733D01*
X58771428Y-89696828D01*
X58847619Y-89734923D01*
X58923809Y-89811114D01*
X58961904Y-89925400D01*
X58961904Y-90115876D01*
X58161904Y-89392066D02*
X58161904Y-88896828D01*
X58466666Y-89163495D01*
X58466666Y-89049209D01*
X58504761Y-88973019D01*
X58542857Y-88934923D01*
X58619047Y-88896828D01*
X58809523Y-88896828D01*
X58885714Y-88934923D01*
X58923809Y-88973019D01*
X58961904Y-89049209D01*
X58961904Y-89277780D01*
X58923809Y-89353971D01*
X58885714Y-89392066D01*
%TO.C,D17*%
X172961904Y-51996828D02*
X172161904Y-51996828D01*
X172161904Y-51806352D01*
X172200000Y-51692066D01*
X172276190Y-51615876D01*
X172352380Y-51577780D01*
X172504761Y-51539685D01*
X172619047Y-51539685D01*
X172771428Y-51577780D01*
X172847619Y-51615876D01*
X172923809Y-51692066D01*
X172961904Y-51806352D01*
X172961904Y-51996828D01*
X172961904Y-50777780D02*
X172961904Y-51234923D01*
X172961904Y-51006352D02*
X172161904Y-51006352D01*
X172276190Y-51082542D01*
X172352380Y-51158733D01*
X172390476Y-51234923D01*
X172161904Y-50511114D02*
X172161904Y-49977780D01*
X172961904Y-50320638D01*
%TO.C,D13*%
X115961904Y-51996828D02*
X115161904Y-51996828D01*
X115161904Y-51806352D01*
X115200000Y-51692066D01*
X115276190Y-51615876D01*
X115352380Y-51577780D01*
X115504761Y-51539685D01*
X115619047Y-51539685D01*
X115771428Y-51577780D01*
X115847619Y-51615876D01*
X115923809Y-51692066D01*
X115961904Y-51806352D01*
X115961904Y-51996828D01*
X115961904Y-50777780D02*
X115961904Y-51234923D01*
X115961904Y-51006352D02*
X115161904Y-51006352D01*
X115276190Y-51082542D01*
X115352380Y-51158733D01*
X115390476Y-51234923D01*
X115161904Y-50511114D02*
X115161904Y-50015876D01*
X115466666Y-50282542D01*
X115466666Y-50168257D01*
X115504761Y-50092066D01*
X115542857Y-50053971D01*
X115619047Y-50015876D01*
X115809523Y-50015876D01*
X115885714Y-50053971D01*
X115923809Y-50092066D01*
X115961904Y-50168257D01*
X115961904Y-50396828D01*
X115923809Y-50473019D01*
X115885714Y-50511114D01*
%TO.C,D29*%
X239403171Y-110461904D02*
X239403171Y-109661904D01*
X239593647Y-109661904D01*
X239707933Y-109700000D01*
X239784123Y-109776190D01*
X239822219Y-109852380D01*
X239860314Y-110004761D01*
X239860314Y-110119047D01*
X239822219Y-110271428D01*
X239784123Y-110347619D01*
X239707933Y-110423809D01*
X239593647Y-110461904D01*
X239403171Y-110461904D01*
X240165076Y-109738095D02*
X240203171Y-109700000D01*
X240279361Y-109661904D01*
X240469838Y-109661904D01*
X240546028Y-109700000D01*
X240584123Y-109738095D01*
X240622219Y-109814285D01*
X240622219Y-109890476D01*
X240584123Y-110004761D01*
X240126980Y-110461904D01*
X240622219Y-110461904D01*
X241003171Y-110461904D02*
X241155552Y-110461904D01*
X241231742Y-110423809D01*
X241269838Y-110385714D01*
X241346028Y-110271428D01*
X241384123Y-110119047D01*
X241384123Y-109814285D01*
X241346028Y-109738095D01*
X241307933Y-109700000D01*
X241231742Y-109661904D01*
X241079361Y-109661904D01*
X241003171Y-109700000D01*
X240965076Y-109738095D01*
X240926980Y-109814285D01*
X240926980Y-110004761D01*
X240965076Y-110080952D01*
X241003171Y-110119047D01*
X241079361Y-110157142D01*
X241231742Y-110157142D01*
X241307933Y-110119047D01*
X241346028Y-110080952D01*
X241384123Y-110004761D01*
%TO.C,D22*%
X191961904Y-90496828D02*
X191161904Y-90496828D01*
X191161904Y-90306352D01*
X191200000Y-90192066D01*
X191276190Y-90115876D01*
X191352380Y-90077780D01*
X191504761Y-90039685D01*
X191619047Y-90039685D01*
X191771428Y-90077780D01*
X191847619Y-90115876D01*
X191923809Y-90192066D01*
X191961904Y-90306352D01*
X191961904Y-90496828D01*
X191238095Y-89734923D02*
X191200000Y-89696828D01*
X191161904Y-89620638D01*
X191161904Y-89430161D01*
X191200000Y-89353971D01*
X191238095Y-89315876D01*
X191314285Y-89277780D01*
X191390476Y-89277780D01*
X191504761Y-89315876D01*
X191961904Y-89773019D01*
X191961904Y-89277780D01*
X191238095Y-88973019D02*
X191200000Y-88934923D01*
X191161904Y-88858733D01*
X191161904Y-88668257D01*
X191200000Y-88592066D01*
X191238095Y-88553971D01*
X191314285Y-88515876D01*
X191390476Y-88515876D01*
X191504761Y-88553971D01*
X191961904Y-89011114D01*
X191961904Y-88515876D01*
%TO.C,D6*%
X77961904Y-71115876D02*
X77161904Y-71115876D01*
X77161904Y-70925400D01*
X77200000Y-70811114D01*
X77276190Y-70734923D01*
X77352380Y-70696828D01*
X77504761Y-70658733D01*
X77619047Y-70658733D01*
X77771428Y-70696828D01*
X77847619Y-70734923D01*
X77923809Y-70811114D01*
X77961904Y-70925400D01*
X77961904Y-71115876D01*
X77161904Y-69973019D02*
X77161904Y-70125400D01*
X77200000Y-70201590D01*
X77238095Y-70239685D01*
X77352380Y-70315876D01*
X77504761Y-70353971D01*
X77809523Y-70353971D01*
X77885714Y-70315876D01*
X77923809Y-70277780D01*
X77961904Y-70201590D01*
X77961904Y-70049209D01*
X77923809Y-69973019D01*
X77885714Y-69934923D01*
X77809523Y-69896828D01*
X77619047Y-69896828D01*
X77542857Y-69934923D01*
X77504761Y-69973019D01*
X77466666Y-70049209D01*
X77466666Y-70201590D01*
X77504761Y-70277780D01*
X77542857Y-70315876D01*
X77619047Y-70353971D01*
%TO.C,D12*%
X96961904Y-109496828D02*
X96161904Y-109496828D01*
X96161904Y-109306352D01*
X96200000Y-109192066D01*
X96276190Y-109115876D01*
X96352380Y-109077780D01*
X96504761Y-109039685D01*
X96619047Y-109039685D01*
X96771428Y-109077780D01*
X96847619Y-109115876D01*
X96923809Y-109192066D01*
X96961904Y-109306352D01*
X96961904Y-109496828D01*
X96961904Y-108277780D02*
X96961904Y-108734923D01*
X96961904Y-108506352D02*
X96161904Y-108506352D01*
X96276190Y-108582542D01*
X96352380Y-108658733D01*
X96390476Y-108734923D01*
X96238095Y-107973019D02*
X96200000Y-107934923D01*
X96161904Y-107858733D01*
X96161904Y-107668257D01*
X96200000Y-107592066D01*
X96238095Y-107553971D01*
X96314285Y-107515876D01*
X96390476Y-107515876D01*
X96504761Y-107553971D01*
X96961904Y-108011114D01*
X96961904Y-107515876D01*
%TO.C,D4*%
X58961904Y-109115876D02*
X58161904Y-109115876D01*
X58161904Y-108925400D01*
X58200000Y-108811114D01*
X58276190Y-108734923D01*
X58352380Y-108696828D01*
X58504761Y-108658733D01*
X58619047Y-108658733D01*
X58771428Y-108696828D01*
X58847619Y-108734923D01*
X58923809Y-108811114D01*
X58961904Y-108925400D01*
X58961904Y-109115876D01*
X58428571Y-107973019D02*
X58961904Y-107973019D01*
X58123809Y-108163495D02*
X58695238Y-108353971D01*
X58695238Y-107858733D01*
%TO.C,D26*%
X210961904Y-109496828D02*
X210161904Y-109496828D01*
X210161904Y-109306352D01*
X210200000Y-109192066D01*
X210276190Y-109115876D01*
X210352380Y-109077780D01*
X210504761Y-109039685D01*
X210619047Y-109039685D01*
X210771428Y-109077780D01*
X210847619Y-109115876D01*
X210923809Y-109192066D01*
X210961904Y-109306352D01*
X210961904Y-109496828D01*
X210238095Y-108734923D02*
X210200000Y-108696828D01*
X210161904Y-108620638D01*
X210161904Y-108430161D01*
X210200000Y-108353971D01*
X210238095Y-108315876D01*
X210314285Y-108277780D01*
X210390476Y-108277780D01*
X210504761Y-108315876D01*
X210961904Y-108773019D01*
X210961904Y-108277780D01*
X210161904Y-107592066D02*
X210161904Y-107744447D01*
X210200000Y-107820638D01*
X210238095Y-107858733D01*
X210352380Y-107934923D01*
X210504761Y-107973019D01*
X210809523Y-107973019D01*
X210885714Y-107934923D01*
X210923809Y-107896828D01*
X210961904Y-107820638D01*
X210961904Y-107668257D01*
X210923809Y-107592066D01*
X210885714Y-107553971D01*
X210809523Y-107515876D01*
X210619047Y-107515876D01*
X210542857Y-107553971D01*
X210504761Y-107592066D01*
X210466666Y-107668257D01*
X210466666Y-107820638D01*
X210504761Y-107896828D01*
X210542857Y-107934923D01*
X210619047Y-107973019D01*
%TO.C,D16*%
X115961904Y-109496828D02*
X115161904Y-109496828D01*
X115161904Y-109306352D01*
X115200000Y-109192066D01*
X115276190Y-109115876D01*
X115352380Y-109077780D01*
X115504761Y-109039685D01*
X115619047Y-109039685D01*
X115771428Y-109077780D01*
X115847619Y-109115876D01*
X115923809Y-109192066D01*
X115961904Y-109306352D01*
X115961904Y-109496828D01*
X115961904Y-108277780D02*
X115961904Y-108734923D01*
X115961904Y-108506352D02*
X115161904Y-108506352D01*
X115276190Y-108582542D01*
X115352380Y-108658733D01*
X115390476Y-108734923D01*
X115161904Y-107592066D02*
X115161904Y-107744447D01*
X115200000Y-107820638D01*
X115238095Y-107858733D01*
X115352380Y-107934923D01*
X115504761Y-107973019D01*
X115809523Y-107973019D01*
X115885714Y-107934923D01*
X115923809Y-107896828D01*
X115961904Y-107820638D01*
X115961904Y-107668257D01*
X115923809Y-107592066D01*
X115885714Y-107553971D01*
X115809523Y-107515876D01*
X115619047Y-107515876D01*
X115542857Y-107553971D01*
X115504761Y-107592066D01*
X115466666Y-107668257D01*
X115466666Y-107820638D01*
X115504761Y-107896828D01*
X115542857Y-107934923D01*
X115619047Y-107973019D01*
%TO.C,D7*%
X77961904Y-90115876D02*
X77161904Y-90115876D01*
X77161904Y-89925400D01*
X77200000Y-89811114D01*
X77276190Y-89734923D01*
X77352380Y-89696828D01*
X77504761Y-89658733D01*
X77619047Y-89658733D01*
X77771428Y-89696828D01*
X77847619Y-89734923D01*
X77923809Y-89811114D01*
X77961904Y-89925400D01*
X77961904Y-90115876D01*
X77161904Y-89392066D02*
X77161904Y-88858733D01*
X77961904Y-89201590D01*
%TO.C,D20*%
X191961904Y-51996828D02*
X191161904Y-51996828D01*
X191161904Y-51806352D01*
X191200000Y-51692066D01*
X191276190Y-51615876D01*
X191352380Y-51577780D01*
X191504761Y-51539685D01*
X191619047Y-51539685D01*
X191771428Y-51577780D01*
X191847619Y-51615876D01*
X191923809Y-51692066D01*
X191961904Y-51806352D01*
X191961904Y-51996828D01*
X191238095Y-51234923D02*
X191200000Y-51196828D01*
X191161904Y-51120638D01*
X191161904Y-50930161D01*
X191200000Y-50853971D01*
X191238095Y-50815876D01*
X191314285Y-50777780D01*
X191390476Y-50777780D01*
X191504761Y-50815876D01*
X191961904Y-51273019D01*
X191961904Y-50777780D01*
X191161904Y-50282542D02*
X191161904Y-50206352D01*
X191200000Y-50130161D01*
X191238095Y-50092066D01*
X191314285Y-50053971D01*
X191466666Y-50015876D01*
X191657142Y-50015876D01*
X191809523Y-50053971D01*
X191885714Y-50092066D01*
X191923809Y-50130161D01*
X191961904Y-50206352D01*
X191961904Y-50282542D01*
X191923809Y-50358733D01*
X191885714Y-50396828D01*
X191809523Y-50434923D01*
X191657142Y-50473019D01*
X191466666Y-50473019D01*
X191314285Y-50434923D01*
X191238095Y-50396828D01*
X191200000Y-50358733D01*
X191161904Y-50282542D01*
%TO.C,D18*%
X172961904Y-71496828D02*
X172161904Y-71496828D01*
X172161904Y-71306352D01*
X172200000Y-71192066D01*
X172276190Y-71115876D01*
X172352380Y-71077780D01*
X172504761Y-71039685D01*
X172619047Y-71039685D01*
X172771428Y-71077780D01*
X172847619Y-71115876D01*
X172923809Y-71192066D01*
X172961904Y-71306352D01*
X172961904Y-71496828D01*
X172961904Y-70277780D02*
X172961904Y-70734923D01*
X172961904Y-70506352D02*
X172161904Y-70506352D01*
X172276190Y-70582542D01*
X172352380Y-70658733D01*
X172390476Y-70734923D01*
X172504761Y-69820638D02*
X172466666Y-69896828D01*
X172428571Y-69934923D01*
X172352380Y-69973019D01*
X172314285Y-69973019D01*
X172238095Y-69934923D01*
X172200000Y-69896828D01*
X172161904Y-69820638D01*
X172161904Y-69668257D01*
X172200000Y-69592066D01*
X172238095Y-69553971D01*
X172314285Y-69515876D01*
X172352380Y-69515876D01*
X172428571Y-69553971D01*
X172466666Y-69592066D01*
X172504761Y-69668257D01*
X172504761Y-69820638D01*
X172542857Y-69896828D01*
X172580952Y-69934923D01*
X172657142Y-69973019D01*
X172809523Y-69973019D01*
X172885714Y-69934923D01*
X172923809Y-69896828D01*
X172961904Y-69820638D01*
X172961904Y-69668257D01*
X172923809Y-69592066D01*
X172885714Y-69553971D01*
X172809523Y-69515876D01*
X172657142Y-69515876D01*
X172580952Y-69553971D01*
X172542857Y-69592066D01*
X172504761Y-69668257D01*
%TO.C,D2*%
X58961904Y-71215876D02*
X58161904Y-71215876D01*
X58161904Y-71025400D01*
X58200000Y-70911114D01*
X58276190Y-70834923D01*
X58352380Y-70796828D01*
X58504761Y-70758733D01*
X58619047Y-70758733D01*
X58771428Y-70796828D01*
X58847619Y-70834923D01*
X58923809Y-70911114D01*
X58961904Y-71025400D01*
X58961904Y-71215876D01*
X58238095Y-70453971D02*
X58200000Y-70415876D01*
X58161904Y-70339685D01*
X58161904Y-70149209D01*
X58200000Y-70073019D01*
X58238095Y-70034923D01*
X58314285Y-69996828D01*
X58390476Y-69996828D01*
X58504761Y-70034923D01*
X58961904Y-70492066D01*
X58961904Y-69996828D01*
%TO.C,D9*%
X96961904Y-51615876D02*
X96161904Y-51615876D01*
X96161904Y-51425400D01*
X96200000Y-51311114D01*
X96276190Y-51234923D01*
X96352380Y-51196828D01*
X96504761Y-51158733D01*
X96619047Y-51158733D01*
X96771428Y-51196828D01*
X96847619Y-51234923D01*
X96923809Y-51311114D01*
X96961904Y-51425400D01*
X96961904Y-51615876D01*
X96961904Y-50777780D02*
X96961904Y-50625400D01*
X96923809Y-50549209D01*
X96885714Y-50511114D01*
X96771428Y-50434923D01*
X96619047Y-50396828D01*
X96314285Y-50396828D01*
X96238095Y-50434923D01*
X96200000Y-50473019D01*
X96161904Y-50549209D01*
X96161904Y-50701590D01*
X96200000Y-50777780D01*
X96238095Y-50815876D01*
X96314285Y-50853971D01*
X96504761Y-50853971D01*
X96580952Y-50815876D01*
X96619047Y-50777780D01*
X96657142Y-50701590D01*
X96657142Y-50549209D01*
X96619047Y-50473019D01*
X96580952Y-50434923D01*
X96504761Y-50396828D01*
%TO.C,D24*%
X210961904Y-51996828D02*
X210161904Y-51996828D01*
X210161904Y-51806352D01*
X210200000Y-51692066D01*
X210276190Y-51615876D01*
X210352380Y-51577780D01*
X210504761Y-51539685D01*
X210619047Y-51539685D01*
X210771428Y-51577780D01*
X210847619Y-51615876D01*
X210923809Y-51692066D01*
X210961904Y-51806352D01*
X210961904Y-51996828D01*
X210238095Y-51234923D02*
X210200000Y-51196828D01*
X210161904Y-51120638D01*
X210161904Y-50930161D01*
X210200000Y-50853971D01*
X210238095Y-50815876D01*
X210314285Y-50777780D01*
X210390476Y-50777780D01*
X210504761Y-50815876D01*
X210961904Y-51273019D01*
X210961904Y-50777780D01*
X210428571Y-50092066D02*
X210961904Y-50092066D01*
X210123809Y-50282542D02*
X210695238Y-50473019D01*
X210695238Y-49977780D01*
%TO.C,D28*%
X144461904Y-109496828D02*
X143661904Y-109496828D01*
X143661904Y-109306352D01*
X143700000Y-109192066D01*
X143776190Y-109115876D01*
X143852380Y-109077780D01*
X144004761Y-109039685D01*
X144119047Y-109039685D01*
X144271428Y-109077780D01*
X144347619Y-109115876D01*
X144423809Y-109192066D01*
X144461904Y-109306352D01*
X144461904Y-109496828D01*
X143738095Y-108734923D02*
X143700000Y-108696828D01*
X143661904Y-108620638D01*
X143661904Y-108430161D01*
X143700000Y-108353971D01*
X143738095Y-108315876D01*
X143814285Y-108277780D01*
X143890476Y-108277780D01*
X144004761Y-108315876D01*
X144461904Y-108773019D01*
X144461904Y-108277780D01*
X144004761Y-107820638D02*
X143966666Y-107896828D01*
X143928571Y-107934923D01*
X143852380Y-107973019D01*
X143814285Y-107973019D01*
X143738095Y-107934923D01*
X143700000Y-107896828D01*
X143661904Y-107820638D01*
X143661904Y-107668257D01*
X143700000Y-107592066D01*
X143738095Y-107553971D01*
X143814285Y-107515876D01*
X143852380Y-107515876D01*
X143928571Y-107553971D01*
X143966666Y-107592066D01*
X144004761Y-107668257D01*
X144004761Y-107820638D01*
X144042857Y-107896828D01*
X144080952Y-107934923D01*
X144157142Y-107973019D01*
X144309523Y-107973019D01*
X144385714Y-107934923D01*
X144423809Y-107896828D01*
X144461904Y-107820638D01*
X144461904Y-107668257D01*
X144423809Y-107592066D01*
X144385714Y-107553971D01*
X144309523Y-107515876D01*
X144157142Y-107515876D01*
X144080952Y-107553971D01*
X144042857Y-107592066D01*
X144004761Y-107668257D01*
%TO.C,D14*%
X115961904Y-71496828D02*
X115161904Y-71496828D01*
X115161904Y-71306352D01*
X115200000Y-71192066D01*
X115276190Y-71115876D01*
X115352380Y-71077780D01*
X115504761Y-71039685D01*
X115619047Y-71039685D01*
X115771428Y-71077780D01*
X115847619Y-71115876D01*
X115923809Y-71192066D01*
X115961904Y-71306352D01*
X115961904Y-71496828D01*
X115961904Y-70277780D02*
X115961904Y-70734923D01*
X115961904Y-70506352D02*
X115161904Y-70506352D01*
X115276190Y-70582542D01*
X115352380Y-70658733D01*
X115390476Y-70734923D01*
X115428571Y-69592066D02*
X115961904Y-69592066D01*
X115123809Y-69782542D02*
X115695238Y-69973019D01*
X115695238Y-69477780D01*
%TO.C,D10*%
X96961904Y-71496828D02*
X96161904Y-71496828D01*
X96161904Y-71306352D01*
X96200000Y-71192066D01*
X96276190Y-71115876D01*
X96352380Y-71077780D01*
X96504761Y-71039685D01*
X96619047Y-71039685D01*
X96771428Y-71077780D01*
X96847619Y-71115876D01*
X96923809Y-71192066D01*
X96961904Y-71306352D01*
X96961904Y-71496828D01*
X96961904Y-70277780D02*
X96961904Y-70734923D01*
X96961904Y-70506352D02*
X96161904Y-70506352D01*
X96276190Y-70582542D01*
X96352380Y-70658733D01*
X96390476Y-70734923D01*
X96161904Y-69782542D02*
X96161904Y-69706352D01*
X96200000Y-69630161D01*
X96238095Y-69592066D01*
X96314285Y-69553971D01*
X96466666Y-69515876D01*
X96657142Y-69515876D01*
X96809523Y-69553971D01*
X96885714Y-69592066D01*
X96923809Y-69630161D01*
X96961904Y-69706352D01*
X96961904Y-69782542D01*
X96923809Y-69858733D01*
X96885714Y-69896828D01*
X96809523Y-69934923D01*
X96657142Y-69973019D01*
X96466666Y-69973019D01*
X96314285Y-69934923D01*
X96238095Y-69896828D01*
X96200000Y-69858733D01*
X96161904Y-69782542D01*
%TO.C,D23*%
X191961904Y-109596828D02*
X191161904Y-109596828D01*
X191161904Y-109406352D01*
X191200000Y-109292066D01*
X191276190Y-109215876D01*
X191352380Y-109177780D01*
X191504761Y-109139685D01*
X191619047Y-109139685D01*
X191771428Y-109177780D01*
X191847619Y-109215876D01*
X191923809Y-109292066D01*
X191961904Y-109406352D01*
X191961904Y-109596828D01*
X191238095Y-108834923D02*
X191200000Y-108796828D01*
X191161904Y-108720638D01*
X191161904Y-108530161D01*
X191200000Y-108453971D01*
X191238095Y-108415876D01*
X191314285Y-108377780D01*
X191390476Y-108377780D01*
X191504761Y-108415876D01*
X191961904Y-108873019D01*
X191961904Y-108377780D01*
X191161904Y-108111114D02*
X191161904Y-107615876D01*
X191466666Y-107882542D01*
X191466666Y-107768257D01*
X191504761Y-107692066D01*
X191542857Y-107653971D01*
X191619047Y-107615876D01*
X191809523Y-107615876D01*
X191885714Y-107653971D01*
X191923809Y-107692066D01*
X191961904Y-107768257D01*
X191961904Y-107996828D01*
X191923809Y-108073019D01*
X191885714Y-108111114D01*
%TO.C,D21*%
X191961904Y-71496828D02*
X191161904Y-71496828D01*
X191161904Y-71306352D01*
X191200000Y-71192066D01*
X191276190Y-71115876D01*
X191352380Y-71077780D01*
X191504761Y-71039685D01*
X191619047Y-71039685D01*
X191771428Y-71077780D01*
X191847619Y-71115876D01*
X191923809Y-71192066D01*
X191961904Y-71306352D01*
X191961904Y-71496828D01*
X191238095Y-70734923D02*
X191200000Y-70696828D01*
X191161904Y-70620638D01*
X191161904Y-70430161D01*
X191200000Y-70353971D01*
X191238095Y-70315876D01*
X191314285Y-70277780D01*
X191390476Y-70277780D01*
X191504761Y-70315876D01*
X191961904Y-70773019D01*
X191961904Y-70277780D01*
X191961904Y-69515876D02*
X191961904Y-69973019D01*
X191961904Y-69744447D02*
X191161904Y-69744447D01*
X191276190Y-69820638D01*
X191352380Y-69896828D01*
X191390476Y-69973019D01*
%TO.C,D5*%
X77961904Y-52015876D02*
X77161904Y-52015876D01*
X77161904Y-51825400D01*
X77200000Y-51711114D01*
X77276190Y-51634923D01*
X77352380Y-51596828D01*
X77504761Y-51558733D01*
X77619047Y-51558733D01*
X77771428Y-51596828D01*
X77847619Y-51634923D01*
X77923809Y-51711114D01*
X77961904Y-51825400D01*
X77961904Y-52015876D01*
X77161904Y-50834923D02*
X77161904Y-51215876D01*
X77542857Y-51253971D01*
X77504761Y-51215876D01*
X77466666Y-51139685D01*
X77466666Y-50949209D01*
X77504761Y-50873019D01*
X77542857Y-50834923D01*
X77619047Y-50796828D01*
X77809523Y-50796828D01*
X77885714Y-50834923D01*
X77923809Y-50873019D01*
X77961904Y-50949209D01*
X77961904Y-51139685D01*
X77923809Y-51215876D01*
X77885714Y-51253971D01*
D12*
%TO.C,SW11*%
X81515000Y-63515000D02*
X95485000Y-63515000D01*
X81515000Y-77485000D02*
X81515000Y-63515000D01*
X95485000Y-77485000D02*
X81515000Y-77485000D01*
X95485000Y-63515000D02*
X95485000Y-77485000D01*
%TO.C,SW3*%
X43515000Y-77485000D02*
X43515000Y-63515000D01*
X43515000Y-63515000D02*
X57485000Y-63515000D01*
X57485000Y-63515000D02*
X57485000Y-77485000D01*
X57485000Y-77485000D02*
X43515000Y-77485000D01*
%TO.C,SW30*%
X246600000Y-108900000D02*
X242500000Y-108900000D01*
X246600000Y-97100000D02*
X246600000Y-99500000D01*
X246600000Y-106500000D02*
X246600000Y-108900000D01*
X232700000Y-98900000D02*
X233300000Y-98900000D01*
X233000000Y-99200000D02*
X232700000Y-98900000D01*
X240500000Y-102500000D02*
X240500000Y-103500000D01*
X233300000Y-98900000D02*
X233000000Y-99200000D01*
X238500000Y-108900000D02*
X234400000Y-108900000D01*
X242500000Y-97100000D02*
X246600000Y-97100000D01*
X238500000Y-97100000D02*
X234400000Y-97100000D01*
X246600000Y-101700000D02*
X246600000Y-104300000D01*
X234400000Y-97100000D02*
X234400000Y-108900000D01*
X240000000Y-103000000D02*
X241000000Y-103000000D01*
X243500000Y-103000000D02*
G75*
G03*
X243500000Y-103000000I-3000000J0D01*
G01*
%TO.C,SW6*%
X76485000Y-58485000D02*
X62515000Y-58485000D01*
X62515000Y-44515000D02*
X76485000Y-44515000D01*
X76485000Y-44515000D02*
X76485000Y-58485000D01*
X62515000Y-58485000D02*
X62515000Y-44515000D01*
%TO.C,SW14*%
X100515000Y-58485000D02*
X100515000Y-44515000D01*
X114485000Y-58485000D02*
X100515000Y-58485000D01*
X114485000Y-44515000D02*
X114485000Y-58485000D01*
X100515000Y-44515000D02*
X114485000Y-44515000D01*
%TO.C,SW17*%
X114485000Y-101515000D02*
X114485000Y-115485000D01*
X100515000Y-115485000D02*
X100515000Y-101515000D01*
X114485000Y-115485000D02*
X100515000Y-115485000D01*
X100515000Y-101515000D02*
X114485000Y-101515000D01*
%TO.C,SW13*%
X81515000Y-101515000D02*
X95485000Y-101515000D01*
X95485000Y-115485000D02*
X81515000Y-115485000D01*
X81515000Y-115485000D02*
X81515000Y-101515000D01*
X95485000Y-101515000D02*
X95485000Y-115485000D01*
%TO.C,SW12*%
X81515000Y-82515000D02*
X95485000Y-82515000D01*
X81515000Y-96485000D02*
X81515000Y-82515000D01*
X95485000Y-82515000D02*
X95485000Y-96485000D01*
X95485000Y-96485000D02*
X81515000Y-96485000D01*
%TO.C,SW10*%
X81515000Y-44515000D02*
X95485000Y-44515000D01*
X81515000Y-58485000D02*
X81515000Y-44515000D01*
X95485000Y-44515000D02*
X95485000Y-58485000D01*
X95485000Y-58485000D02*
X81515000Y-58485000D01*
%TO.C,SW5*%
X43515000Y-101515000D02*
X57485000Y-101515000D01*
X43515000Y-115485000D02*
X43515000Y-101515000D01*
X57485000Y-101515000D02*
X57485000Y-115485000D01*
X57485000Y-115485000D02*
X43515000Y-115485000D01*
%TO.C,SW15*%
X100515000Y-63515000D02*
X114485000Y-63515000D01*
X100515000Y-77485000D02*
X100515000Y-63515000D01*
X114485000Y-63515000D02*
X114485000Y-77485000D01*
X114485000Y-77485000D02*
X100515000Y-77485000D01*
%TO.C,SW16*%
X114485000Y-82515000D02*
X114485000Y-96485000D01*
X100515000Y-82515000D02*
X114485000Y-82515000D01*
X114485000Y-96485000D02*
X100515000Y-96485000D01*
X100515000Y-96485000D02*
X100515000Y-82515000D01*
%TO.C,SW8*%
X62515000Y-96485000D02*
X62515000Y-82515000D01*
X62515000Y-82515000D02*
X76485000Y-82515000D01*
X76485000Y-82515000D02*
X76485000Y-96485000D01*
X76485000Y-96485000D02*
X62515000Y-96485000D01*
%TO.C,SW27*%
X195515000Y-101515000D02*
X209485000Y-101515000D01*
X195515000Y-115485000D02*
X195515000Y-101515000D01*
X209485000Y-101515000D02*
X209485000Y-115485000D01*
X209485000Y-115485000D02*
X195515000Y-115485000D01*
%TO.C,SW18*%
X171485000Y-58485000D02*
X157515000Y-58485000D01*
X157515000Y-58485000D02*
X157515000Y-44515000D01*
X157515000Y-44515000D02*
X171485000Y-44515000D01*
X171485000Y-44515000D02*
X171485000Y-58485000D01*
%TO.C,SW4*%
X43515000Y-82515000D02*
X57485000Y-82515000D01*
X57485000Y-96485000D02*
X43515000Y-96485000D01*
X57485000Y-82515000D02*
X57485000Y-96485000D01*
X43515000Y-96485000D02*
X43515000Y-82515000D01*
%TO.C,SW26*%
X195515000Y-63515000D02*
X209485000Y-63515000D01*
X209485000Y-77485000D02*
X195515000Y-77485000D01*
X209485000Y-63515000D02*
X209485000Y-77485000D01*
X195515000Y-77485000D02*
X195515000Y-63515000D01*
%TO.C,SW24*%
X190485000Y-101515000D02*
X190485000Y-115485000D01*
X190485000Y-115485000D02*
X176515000Y-115485000D01*
X176515000Y-101515000D02*
X190485000Y-101515000D01*
X176515000Y-115485000D02*
X176515000Y-101515000D01*
%TO.C,SW23*%
X176515000Y-96485000D02*
X176515000Y-82515000D01*
X190485000Y-82515000D02*
X190485000Y-96485000D01*
X190485000Y-96485000D02*
X176515000Y-96485000D01*
X176515000Y-82515000D02*
X190485000Y-82515000D01*
%TO.C,SW21*%
X190485000Y-44515000D02*
X190485000Y-58485000D01*
X176515000Y-44515000D02*
X190485000Y-44515000D01*
X176515000Y-58485000D02*
X176515000Y-44515000D01*
X190485000Y-58485000D02*
X176515000Y-58485000D01*
%TO.C,SW29*%
X238500000Y-45600000D02*
X234400000Y-45600000D01*
X238500000Y-57400000D02*
X234400000Y-57400000D01*
X234400000Y-45600000D02*
X234400000Y-57400000D01*
X232700000Y-47400000D02*
X233300000Y-47400000D01*
X246600000Y-57400000D02*
X242500000Y-57400000D01*
X240500000Y-51000000D02*
X240500000Y-52000000D01*
X240000000Y-51500000D02*
X241000000Y-51500000D01*
X246600000Y-55000000D02*
X246600000Y-57400000D01*
X242500000Y-45600000D02*
X246600000Y-45600000D01*
X233300000Y-47400000D02*
X233000000Y-47700000D01*
X246600000Y-45600000D02*
X246600000Y-48000000D01*
X233000000Y-47700000D02*
X232700000Y-47400000D01*
X246600000Y-50200000D02*
X246600000Y-52800000D01*
X243500000Y-51500000D02*
G75*
G03*
X243500000Y-51500000I-3000000J0D01*
G01*
%TO.C,SW25*%
X195515000Y-44515000D02*
X209485000Y-44515000D01*
X209485000Y-44515000D02*
X209485000Y-58485000D01*
X195515000Y-58485000D02*
X195515000Y-44515000D01*
X209485000Y-58485000D02*
X195515000Y-58485000D01*
%TO.C,SW28*%
X142985000Y-101515000D02*
X142985000Y-115485000D01*
X129015000Y-101515000D02*
X142985000Y-101515000D01*
X129015000Y-115485000D02*
X129015000Y-101515000D01*
X142985000Y-115485000D02*
X129015000Y-115485000D01*
%TO.C,SW9*%
X62515000Y-115485000D02*
X62515000Y-101515000D01*
X76485000Y-115485000D02*
X62515000Y-115485000D01*
X76485000Y-101515000D02*
X76485000Y-115485000D01*
X62515000Y-101515000D02*
X76485000Y-101515000D01*
%TO.C,SW7*%
X62515000Y-77485000D02*
X62515000Y-63515000D01*
X76485000Y-63515000D02*
X76485000Y-77485000D01*
X76485000Y-77485000D02*
X62515000Y-77485000D01*
X62515000Y-63515000D02*
X76485000Y-63515000D01*
%TO.C,SW19*%
X171485000Y-63515000D02*
X171485000Y-77485000D01*
X157515000Y-63515000D02*
X171485000Y-63515000D01*
X171485000Y-77485000D02*
X157515000Y-77485000D01*
X157515000Y-77485000D02*
X157515000Y-63515000D01*
%TO.C,SW2*%
X57485000Y-44515000D02*
X57485000Y-58485000D01*
X43515000Y-44515000D02*
X57485000Y-44515000D01*
X57485000Y-58485000D02*
X43515000Y-58485000D01*
X43515000Y-58485000D02*
X43515000Y-44515000D01*
%TO.C,SW22*%
X176515000Y-63515000D02*
X190485000Y-63515000D01*
X190485000Y-63515000D02*
X190485000Y-77485000D01*
X176515000Y-77485000D02*
X176515000Y-63515000D01*
X190485000Y-77485000D02*
X176515000Y-77485000D01*
%TO.C,SW1*%
X148850000Y-41270000D02*
X143150000Y-41270000D01*
X147400000Y-41270000D02*
X147400000Y-39980000D01*
X146100000Y-39980000D02*
X146100000Y-41270000D01*
X142550000Y-42280000D02*
X142550000Y-43070000D01*
X147200000Y-39770000D02*
X146300000Y-39770000D01*
X146100000Y-39980000D02*
X146300000Y-39770000D01*
X147400000Y-39980000D02*
X147200000Y-39770000D01*
X149450000Y-43070000D02*
X149450000Y-42280000D01*
X144600000Y-44120000D02*
X144400000Y-44120000D01*
X147600000Y-44120000D02*
X145900000Y-44120000D01*
%TO.C,SW20*%
X171485000Y-101515000D02*
X171485000Y-115485000D01*
X157515000Y-101515000D02*
X171485000Y-101515000D01*
X171485000Y-115485000D02*
X157515000Y-115485000D01*
X157515000Y-115485000D02*
X157515000Y-101515000D01*
D11*
%TO.C,D27*%
X242132000Y-60762000D02*
X242132000Y-59238000D01*
X242386000Y-60762000D02*
X242386000Y-59238000D01*
X242005000Y-59238000D02*
X242005000Y-60762000D01*
X242513000Y-59238000D02*
X242513000Y-60762000D01*
X242259000Y-59238000D02*
X242259000Y-60762000D01*
X237560000Y-60762000D02*
X237560000Y-59238000D01*
X237560000Y-59238000D02*
X242640000Y-59238000D01*
X242640000Y-59238000D02*
X242640000Y-60762000D01*
X241878000Y-59238000D02*
X241878000Y-60762000D01*
X242640000Y-60762000D02*
X237560000Y-60762000D01*
%TO.C,D19*%
X173238000Y-106341000D02*
X174762000Y-106341000D01*
X173238000Y-111040000D02*
X173238000Y-105960000D01*
X173238000Y-106722000D02*
X174762000Y-106722000D01*
X173238000Y-106087000D02*
X174762000Y-106087000D01*
X174762000Y-106468000D02*
X173238000Y-106468000D01*
X174762000Y-111040000D02*
X173238000Y-111040000D01*
X174762000Y-105960000D02*
X174762000Y-111040000D01*
X174762000Y-106214000D02*
X173238000Y-106214000D01*
X173238000Y-105960000D02*
X174762000Y-105960000D01*
X173238000Y-106595000D02*
X174762000Y-106595000D01*
%TO.C,D8*%
X78238000Y-106341000D02*
X79762000Y-106341000D01*
X78238000Y-106722000D02*
X79762000Y-106722000D01*
X78238000Y-111040000D02*
X78238000Y-105960000D01*
X78238000Y-106087000D02*
X79762000Y-106087000D01*
X79762000Y-106214000D02*
X78238000Y-106214000D01*
X79762000Y-105960000D02*
X79762000Y-111040000D01*
X78238000Y-106595000D02*
X79762000Y-106595000D01*
X79762000Y-111040000D02*
X78238000Y-111040000D01*
X78238000Y-105960000D02*
X79762000Y-105960000D01*
X79762000Y-106468000D02*
X78238000Y-106468000D01*
%TO.C,D15*%
X116238000Y-87087000D02*
X117762000Y-87087000D01*
X117762000Y-87214000D02*
X116238000Y-87214000D01*
X117762000Y-92040000D02*
X116238000Y-92040000D01*
X116238000Y-87722000D02*
X117762000Y-87722000D01*
X117762000Y-86960000D02*
X117762000Y-92040000D01*
X117762000Y-87468000D02*
X116238000Y-87468000D01*
X116238000Y-87341000D02*
X117762000Y-87341000D01*
X116238000Y-87595000D02*
X117762000Y-87595000D01*
X116238000Y-86960000D02*
X117762000Y-86960000D01*
X116238000Y-92040000D02*
X116238000Y-86960000D01*
%TO.C,D1*%
X60762000Y-49114000D02*
X59238000Y-49114000D01*
X59238000Y-49495000D02*
X60762000Y-49495000D01*
X59238000Y-53940000D02*
X59238000Y-48860000D01*
X59238000Y-48987000D02*
X60762000Y-48987000D01*
X59238000Y-49241000D02*
X60762000Y-49241000D01*
X60762000Y-48860000D02*
X60762000Y-53940000D01*
X60762000Y-53940000D02*
X59238000Y-53940000D01*
X60762000Y-49368000D02*
X59238000Y-49368000D01*
X59238000Y-48860000D02*
X60762000Y-48860000D01*
X59238000Y-49622000D02*
X60762000Y-49622000D01*
%TO.C,D11*%
X97238000Y-87087000D02*
X98762000Y-87087000D01*
X97238000Y-87341000D02*
X98762000Y-87341000D01*
X97238000Y-92040000D02*
X97238000Y-86960000D01*
X98762000Y-92040000D02*
X97238000Y-92040000D01*
X98762000Y-86960000D02*
X98762000Y-92040000D01*
X98762000Y-87468000D02*
X97238000Y-87468000D01*
X97238000Y-86960000D02*
X98762000Y-86960000D01*
X98762000Y-87214000D02*
X97238000Y-87214000D01*
X97238000Y-87722000D02*
X98762000Y-87722000D01*
X97238000Y-87595000D02*
X98762000Y-87595000D01*
%TO.C,D25*%
X212762000Y-68468000D02*
X211238000Y-68468000D01*
X211238000Y-68722000D02*
X212762000Y-68722000D01*
X211238000Y-68595000D02*
X212762000Y-68595000D01*
X211238000Y-67960000D02*
X212762000Y-67960000D01*
X211238000Y-73040000D02*
X211238000Y-67960000D01*
X212762000Y-68214000D02*
X211238000Y-68214000D01*
X211238000Y-68341000D02*
X212762000Y-68341000D01*
X212762000Y-67960000D02*
X212762000Y-73040000D01*
X211238000Y-68087000D02*
X212762000Y-68087000D01*
X212762000Y-73040000D02*
X211238000Y-73040000D01*
%TO.C,D3*%
X60762000Y-86960000D02*
X60762000Y-92040000D01*
X59238000Y-87341000D02*
X60762000Y-87341000D01*
X59238000Y-92040000D02*
X59238000Y-86960000D01*
X59238000Y-87595000D02*
X60762000Y-87595000D01*
X59238000Y-87087000D02*
X60762000Y-87087000D01*
X60762000Y-92040000D02*
X59238000Y-92040000D01*
X60762000Y-87468000D02*
X59238000Y-87468000D01*
X59238000Y-87722000D02*
X60762000Y-87722000D01*
X60762000Y-87214000D02*
X59238000Y-87214000D01*
X59238000Y-86960000D02*
X60762000Y-86960000D01*
%TO.C,D17*%
X174762000Y-48714000D02*
X173238000Y-48714000D01*
X174762000Y-53540000D02*
X173238000Y-53540000D01*
X174762000Y-48968000D02*
X173238000Y-48968000D01*
X173238000Y-49095000D02*
X174762000Y-49095000D01*
X173238000Y-48587000D02*
X174762000Y-48587000D01*
X173238000Y-48460000D02*
X174762000Y-48460000D01*
X173238000Y-49222000D02*
X174762000Y-49222000D01*
X174762000Y-48460000D02*
X174762000Y-53540000D01*
X173238000Y-53540000D02*
X173238000Y-48460000D01*
X173238000Y-48841000D02*
X174762000Y-48841000D01*
%TO.C,D13*%
X116238000Y-49095000D02*
X117762000Y-49095000D01*
X116238000Y-48841000D02*
X117762000Y-48841000D01*
X116238000Y-48460000D02*
X117762000Y-48460000D01*
X116238000Y-49222000D02*
X117762000Y-49222000D01*
X117762000Y-48460000D02*
X117762000Y-53540000D01*
X116238000Y-53540000D02*
X116238000Y-48460000D01*
X117762000Y-48968000D02*
X116238000Y-48968000D01*
X116238000Y-48587000D02*
X117762000Y-48587000D01*
X117762000Y-53540000D02*
X116238000Y-53540000D01*
X117762000Y-48714000D02*
X116238000Y-48714000D01*
%TO.C,D29*%
X242432000Y-112262000D02*
X242432000Y-110738000D01*
X242940000Y-110738000D02*
X242940000Y-112262000D01*
X242178000Y-110738000D02*
X242178000Y-112262000D01*
X242559000Y-110738000D02*
X242559000Y-112262000D01*
X242813000Y-110738000D02*
X242813000Y-112262000D01*
X242686000Y-112262000D02*
X242686000Y-110738000D01*
X237860000Y-110738000D02*
X242940000Y-110738000D01*
X242305000Y-110738000D02*
X242305000Y-112262000D01*
X242940000Y-112262000D02*
X237860000Y-112262000D01*
X237860000Y-112262000D02*
X237860000Y-110738000D01*
%TO.C,D22*%
X192238000Y-87087000D02*
X193762000Y-87087000D01*
X193762000Y-87214000D02*
X192238000Y-87214000D01*
X193762000Y-92040000D02*
X192238000Y-92040000D01*
X193762000Y-87468000D02*
X192238000Y-87468000D01*
X192238000Y-86960000D02*
X193762000Y-86960000D01*
X192238000Y-87595000D02*
X193762000Y-87595000D01*
X193762000Y-86960000D02*
X193762000Y-92040000D01*
X192238000Y-92040000D02*
X192238000Y-86960000D01*
X192238000Y-87722000D02*
X193762000Y-87722000D01*
X192238000Y-87341000D02*
X193762000Y-87341000D01*
%TO.C,D6*%
X78238000Y-68087000D02*
X79762000Y-68087000D01*
X78238000Y-68595000D02*
X79762000Y-68595000D01*
X78238000Y-68722000D02*
X79762000Y-68722000D01*
X78238000Y-73040000D02*
X78238000Y-67960000D01*
X79762000Y-68468000D02*
X78238000Y-68468000D01*
X79762000Y-67960000D02*
X79762000Y-73040000D01*
X79762000Y-68214000D02*
X78238000Y-68214000D01*
X79762000Y-73040000D02*
X78238000Y-73040000D01*
X78238000Y-68341000D02*
X79762000Y-68341000D01*
X78238000Y-67960000D02*
X79762000Y-67960000D01*
%TO.C,D12*%
X97238000Y-106341000D02*
X98762000Y-106341000D01*
X98762000Y-106468000D02*
X97238000Y-106468000D01*
X98762000Y-106214000D02*
X97238000Y-106214000D01*
X97238000Y-111040000D02*
X97238000Y-105960000D01*
X98762000Y-105960000D02*
X98762000Y-111040000D01*
X98762000Y-111040000D02*
X97238000Y-111040000D01*
X97238000Y-106087000D02*
X98762000Y-106087000D01*
X97238000Y-105960000D02*
X98762000Y-105960000D01*
X97238000Y-106595000D02*
X98762000Y-106595000D01*
X97238000Y-106722000D02*
X98762000Y-106722000D01*
%TO.C,D4*%
X59238000Y-111040000D02*
X59238000Y-105960000D01*
X59238000Y-105960000D02*
X60762000Y-105960000D01*
X59238000Y-106341000D02*
X60762000Y-106341000D01*
X59238000Y-106722000D02*
X60762000Y-106722000D01*
X60762000Y-106468000D02*
X59238000Y-106468000D01*
X59238000Y-106087000D02*
X60762000Y-106087000D01*
X59238000Y-106595000D02*
X60762000Y-106595000D01*
X60762000Y-106214000D02*
X59238000Y-106214000D01*
X60762000Y-105960000D02*
X60762000Y-111040000D01*
X60762000Y-111040000D02*
X59238000Y-111040000D01*
%TO.C,D26*%
X211238000Y-106722000D02*
X212762000Y-106722000D01*
X211238000Y-106341000D02*
X212762000Y-106341000D01*
X211238000Y-111040000D02*
X211238000Y-105960000D01*
X212762000Y-106214000D02*
X211238000Y-106214000D01*
X212762000Y-105960000D02*
X212762000Y-111040000D01*
X211238000Y-105960000D02*
X212762000Y-105960000D01*
X211238000Y-106087000D02*
X212762000Y-106087000D01*
X212762000Y-111040000D02*
X211238000Y-111040000D01*
X212762000Y-106468000D02*
X211238000Y-106468000D01*
X211238000Y-106595000D02*
X212762000Y-106595000D01*
%TO.C,D16*%
X116238000Y-106722000D02*
X117762000Y-106722000D01*
X117762000Y-105960000D02*
X117762000Y-111040000D01*
X116238000Y-111040000D02*
X116238000Y-105960000D01*
X116238000Y-106341000D02*
X117762000Y-106341000D01*
X117762000Y-106214000D02*
X116238000Y-106214000D01*
X116238000Y-106087000D02*
X117762000Y-106087000D01*
X117762000Y-111040000D02*
X116238000Y-111040000D01*
X116238000Y-106595000D02*
X117762000Y-106595000D01*
X116238000Y-105960000D02*
X117762000Y-105960000D01*
X117762000Y-106468000D02*
X116238000Y-106468000D01*
%TO.C,D7*%
X79762000Y-86960000D02*
X79762000Y-92040000D01*
X78238000Y-92040000D02*
X78238000Y-86960000D01*
X78238000Y-86960000D02*
X79762000Y-86960000D01*
X79762000Y-87468000D02*
X78238000Y-87468000D01*
X78238000Y-87087000D02*
X79762000Y-87087000D01*
X78238000Y-87341000D02*
X79762000Y-87341000D01*
X79762000Y-92040000D02*
X78238000Y-92040000D01*
X79762000Y-87214000D02*
X78238000Y-87214000D01*
X78238000Y-87595000D02*
X79762000Y-87595000D01*
X78238000Y-87722000D02*
X79762000Y-87722000D01*
%TO.C,D20*%
X192238000Y-48587000D02*
X193762000Y-48587000D01*
X192238000Y-49222000D02*
X193762000Y-49222000D01*
X192238000Y-49095000D02*
X193762000Y-49095000D01*
X192238000Y-48460000D02*
X193762000Y-48460000D01*
X192238000Y-53540000D02*
X192238000Y-48460000D01*
X193762000Y-53540000D02*
X192238000Y-53540000D01*
X193762000Y-48714000D02*
X192238000Y-48714000D01*
X192238000Y-48841000D02*
X193762000Y-48841000D01*
X193762000Y-48460000D02*
X193762000Y-53540000D01*
X193762000Y-48968000D02*
X192238000Y-48968000D01*
%TO.C,D18*%
X174762000Y-73040000D02*
X173238000Y-73040000D01*
X173238000Y-67960000D02*
X174762000Y-67960000D01*
X173238000Y-68722000D02*
X174762000Y-68722000D01*
X173238000Y-68595000D02*
X174762000Y-68595000D01*
X174762000Y-68468000D02*
X173238000Y-68468000D01*
X173238000Y-68341000D02*
X174762000Y-68341000D01*
X173238000Y-73040000D02*
X173238000Y-67960000D01*
X174762000Y-68214000D02*
X173238000Y-68214000D01*
X173238000Y-68087000D02*
X174762000Y-68087000D01*
X174762000Y-67960000D02*
X174762000Y-73040000D01*
%TO.C,D2*%
X59238000Y-68187000D02*
X60762000Y-68187000D01*
X60762000Y-73140000D02*
X59238000Y-73140000D01*
X60762000Y-68314000D02*
X59238000Y-68314000D01*
X59238000Y-68060000D02*
X60762000Y-68060000D01*
X60762000Y-68568000D02*
X59238000Y-68568000D01*
X59238000Y-68441000D02*
X60762000Y-68441000D01*
X59238000Y-68822000D02*
X60762000Y-68822000D01*
X60762000Y-68060000D02*
X60762000Y-73140000D01*
X59238000Y-73140000D02*
X59238000Y-68060000D01*
X59238000Y-68695000D02*
X60762000Y-68695000D01*
%TO.C,D9*%
X97238000Y-49222000D02*
X98762000Y-49222000D01*
X98762000Y-53540000D02*
X97238000Y-53540000D01*
X97238000Y-48460000D02*
X98762000Y-48460000D01*
X97238000Y-53540000D02*
X97238000Y-48460000D01*
X98762000Y-48714000D02*
X97238000Y-48714000D01*
X98762000Y-48460000D02*
X98762000Y-53540000D01*
X97238000Y-49095000D02*
X98762000Y-49095000D01*
X97238000Y-48587000D02*
X98762000Y-48587000D01*
X98762000Y-48968000D02*
X97238000Y-48968000D01*
X97238000Y-48841000D02*
X98762000Y-48841000D01*
%TO.C,D24*%
X211238000Y-49222000D02*
X212762000Y-49222000D01*
X212762000Y-48460000D02*
X212762000Y-53540000D01*
X212762000Y-48714000D02*
X211238000Y-48714000D01*
X211238000Y-48841000D02*
X212762000Y-48841000D01*
X212762000Y-48968000D02*
X211238000Y-48968000D01*
X211238000Y-48460000D02*
X212762000Y-48460000D01*
X211238000Y-49095000D02*
X212762000Y-49095000D01*
X211238000Y-48587000D02*
X212762000Y-48587000D01*
X211238000Y-53540000D02*
X211238000Y-48460000D01*
X212762000Y-53540000D02*
X211238000Y-53540000D01*
%TO.C,D28*%
X146262000Y-105960000D02*
X146262000Y-111040000D01*
X144738000Y-105960000D02*
X146262000Y-105960000D01*
X144738000Y-106341000D02*
X146262000Y-106341000D01*
X144738000Y-111040000D02*
X144738000Y-105960000D01*
X144738000Y-106722000D02*
X146262000Y-106722000D01*
X144738000Y-106595000D02*
X146262000Y-106595000D01*
X146262000Y-111040000D02*
X144738000Y-111040000D01*
X144738000Y-106087000D02*
X146262000Y-106087000D01*
X146262000Y-106214000D02*
X144738000Y-106214000D01*
X146262000Y-106468000D02*
X144738000Y-106468000D01*
%TO.C,D14*%
X116238000Y-67960000D02*
X117762000Y-67960000D01*
X117762000Y-68468000D02*
X116238000Y-68468000D01*
X116238000Y-73040000D02*
X116238000Y-67960000D01*
X116238000Y-68087000D02*
X117762000Y-68087000D01*
X116238000Y-68722000D02*
X117762000Y-68722000D01*
X117762000Y-73040000D02*
X116238000Y-73040000D01*
X117762000Y-67960000D02*
X117762000Y-73040000D01*
X117762000Y-68214000D02*
X116238000Y-68214000D01*
X116238000Y-68595000D02*
X117762000Y-68595000D01*
X116238000Y-68341000D02*
X117762000Y-68341000D01*
%TO.C,D10*%
X98762000Y-73040000D02*
X97238000Y-73040000D01*
X97238000Y-68595000D02*
X98762000Y-68595000D01*
X97238000Y-67960000D02*
X98762000Y-67960000D01*
X97238000Y-73040000D02*
X97238000Y-67960000D01*
X97238000Y-68087000D02*
X98762000Y-68087000D01*
X97238000Y-68722000D02*
X98762000Y-68722000D01*
X98762000Y-68214000D02*
X97238000Y-68214000D01*
X98762000Y-68468000D02*
X97238000Y-68468000D01*
X98762000Y-67960000D02*
X98762000Y-73040000D01*
X97238000Y-68341000D02*
X98762000Y-68341000D01*
%TO.C,D23*%
X193762000Y-106568000D02*
X192238000Y-106568000D01*
X193762000Y-106314000D02*
X192238000Y-106314000D01*
X192238000Y-106822000D02*
X193762000Y-106822000D01*
X193762000Y-111140000D02*
X192238000Y-111140000D01*
X192238000Y-106060000D02*
X193762000Y-106060000D01*
X193762000Y-106060000D02*
X193762000Y-111140000D01*
X192238000Y-106187000D02*
X193762000Y-106187000D01*
X192238000Y-106695000D02*
X193762000Y-106695000D01*
X192238000Y-106441000D02*
X193762000Y-106441000D01*
X192238000Y-111140000D02*
X192238000Y-106060000D01*
%TO.C,D21*%
X193762000Y-73040000D02*
X192238000Y-73040000D01*
X193762000Y-68214000D02*
X192238000Y-68214000D01*
X193762000Y-68468000D02*
X192238000Y-68468000D01*
X192238000Y-68722000D02*
X193762000Y-68722000D01*
X192238000Y-67960000D02*
X193762000Y-67960000D01*
X192238000Y-68341000D02*
X193762000Y-68341000D01*
X192238000Y-73040000D02*
X192238000Y-67960000D01*
X192238000Y-68595000D02*
X193762000Y-68595000D01*
X192238000Y-68087000D02*
X193762000Y-68087000D01*
X193762000Y-67960000D02*
X193762000Y-73040000D01*
%TO.C,D5*%
X78238000Y-48860000D02*
X79762000Y-48860000D01*
X78238000Y-49495000D02*
X79762000Y-49495000D01*
X79762000Y-53940000D02*
X78238000Y-53940000D01*
X78238000Y-53940000D02*
X78238000Y-48860000D01*
X79762000Y-48860000D02*
X79762000Y-53940000D01*
X78238000Y-49241000D02*
X79762000Y-49241000D01*
X78238000Y-49622000D02*
X79762000Y-49622000D01*
X79762000Y-49368000D02*
X78238000Y-49368000D01*
X79762000Y-49114000D02*
X78238000Y-49114000D01*
X78238000Y-48987000D02*
X79762000Y-48987000D01*
%TD*%
D13*
%TO.C,U1*%
X121380000Y-42530000D03*
D14*
X121380000Y-45070000D03*
X121380000Y-47610000D03*
X121380000Y-50150000D03*
X121380000Y-52690000D03*
X121380000Y-55230000D03*
X121380000Y-57770000D03*
X121380000Y-60310000D03*
X121380000Y-62850000D03*
X121380000Y-65390000D03*
X121380000Y-67930000D03*
X121380000Y-70470000D03*
X136620000Y-70470000D03*
X136620000Y-67930000D03*
X136620000Y-65390000D03*
X136620000Y-62850000D03*
X136620000Y-60310000D03*
X136620000Y-57770000D03*
X136620000Y-55230000D03*
X136620000Y-52690000D03*
X136620000Y-50150000D03*
X136620000Y-47610000D03*
X136620000Y-45070000D03*
X136620000Y-42530000D03*
%TD*%
%LPC*%
D15*
%TO.C,SW11*%
X83420000Y-70500000D03*
X93580000Y-70500000D03*
D16*
X88500000Y-70500000D03*
D17*
X91040000Y-65420000D03*
X84690000Y-67960000D03*
%TD*%
D15*
%TO.C,SW3*%
X45420000Y-70500000D03*
D16*
X50500000Y-70500000D03*
D15*
X55580000Y-70500000D03*
D17*
X53040000Y-65420000D03*
X46690000Y-67960000D03*
%TD*%
D18*
%TO.C,SW30*%
X240500000Y-97400000D03*
X240500000Y-108600000D03*
D19*
X233000000Y-100500000D03*
D20*
X233000000Y-105500000D03*
X233000000Y-103000000D03*
X247500000Y-105500000D03*
X247500000Y-100500000D03*
%TD*%
D15*
%TO.C,SW6*%
X64420000Y-51500000D03*
X74580000Y-51500000D03*
D16*
X69500000Y-51500000D03*
D17*
X72040000Y-46420000D03*
X65690000Y-48960000D03*
%TD*%
D16*
%TO.C,SW14*%
X107500000Y-51500000D03*
D15*
X112580000Y-51500000D03*
X102420000Y-51500000D03*
D17*
X110040000Y-46420000D03*
X103690000Y-48960000D03*
%TD*%
D16*
%TO.C,SW17*%
X107500000Y-108500000D03*
D15*
X102420000Y-108500000D03*
X112580000Y-108500000D03*
D17*
X110040000Y-103420000D03*
X103690000Y-105960000D03*
%TD*%
D16*
%TO.C,SW13*%
X88500000Y-108500000D03*
D15*
X93580000Y-108500000D03*
X83420000Y-108500000D03*
D17*
X91040000Y-103420000D03*
X84690000Y-105960000D03*
%TD*%
D15*
%TO.C,SW12*%
X83420000Y-89500000D03*
D16*
X88500000Y-89500000D03*
D15*
X93580000Y-89500000D03*
D17*
X91040000Y-84420000D03*
X84690000Y-86960000D03*
%TD*%
D16*
%TO.C,SW10*%
X88500000Y-51500000D03*
D15*
X83420000Y-51500000D03*
X93580000Y-51500000D03*
D17*
X91040000Y-46420000D03*
X84690000Y-48960000D03*
%TD*%
D16*
%TO.C,SW5*%
X50500000Y-108500000D03*
D15*
X45420000Y-108500000D03*
X55580000Y-108500000D03*
D17*
X53040000Y-103420000D03*
X46690000Y-105960000D03*
%TD*%
D15*
%TO.C,SW15*%
X102420000Y-70500000D03*
D16*
X107500000Y-70500000D03*
D15*
X112580000Y-70500000D03*
D17*
X110040000Y-65420000D03*
X103690000Y-67960000D03*
%TD*%
D16*
%TO.C,SW16*%
X107500000Y-89500000D03*
D15*
X112580000Y-89500000D03*
X102420000Y-89500000D03*
D17*
X110040000Y-84420000D03*
X103690000Y-86960000D03*
%TD*%
D15*
%TO.C,SW8*%
X64420000Y-89500000D03*
X74580000Y-89500000D03*
D16*
X69500000Y-89500000D03*
D17*
X72040000Y-84420000D03*
X65690000Y-86960000D03*
%TD*%
D15*
%TO.C,SW27*%
X207580000Y-108500000D03*
X197420000Y-108500000D03*
D16*
X202500000Y-108500000D03*
D17*
X205040000Y-103420000D03*
X198690000Y-105960000D03*
%TD*%
D15*
%TO.C,SW18*%
X159420000Y-51500000D03*
D16*
X164500000Y-51500000D03*
D15*
X169580000Y-51500000D03*
D17*
X167040000Y-46420000D03*
X160690000Y-48960000D03*
%TD*%
D16*
%TO.C,SW4*%
X50500000Y-89500000D03*
D15*
X55580000Y-89500000D03*
X45420000Y-89500000D03*
D17*
X53040000Y-84420000D03*
X46690000Y-86960000D03*
%TD*%
D21*
%TO.C,J1*%
X148000000Y-51000000D03*
%TD*%
D15*
%TO.C,SW26*%
X197420000Y-70500000D03*
D16*
X202500000Y-70500000D03*
D15*
X207580000Y-70500000D03*
D17*
X205040000Y-65420000D03*
X198690000Y-67960000D03*
%TD*%
D15*
%TO.C,SW24*%
X188580000Y-108500000D03*
X178420000Y-108500000D03*
D16*
X183500000Y-108500000D03*
D17*
X186040000Y-103420000D03*
X179690000Y-105960000D03*
%TD*%
D15*
%TO.C,SW23*%
X178420000Y-89500000D03*
X188580000Y-89500000D03*
D16*
X183500000Y-89500000D03*
D17*
X186040000Y-84420000D03*
X179690000Y-86960000D03*
%TD*%
D13*
%TO.C,U1*%
X121380000Y-42530000D03*
D14*
X121380000Y-45070000D03*
X121380000Y-47610000D03*
X121380000Y-50150000D03*
X121380000Y-52690000D03*
X121380000Y-55230000D03*
X121380000Y-57770000D03*
X121380000Y-60310000D03*
X121380000Y-62850000D03*
X121380000Y-65390000D03*
X121380000Y-67930000D03*
X121380000Y-70470000D03*
X136620000Y-70470000D03*
X136620000Y-67930000D03*
X136620000Y-65390000D03*
X136620000Y-62850000D03*
X136620000Y-60310000D03*
X136620000Y-57770000D03*
X136620000Y-55230000D03*
X136620000Y-52690000D03*
X136620000Y-50150000D03*
X136620000Y-47610000D03*
X136620000Y-45070000D03*
X136620000Y-42530000D03*
%TD*%
D16*
%TO.C,SW21*%
X183500000Y-51500000D03*
D15*
X178420000Y-51500000D03*
X188580000Y-51500000D03*
D17*
X186040000Y-46420000D03*
X179690000Y-48960000D03*
%TD*%
D18*
%TO.C,SW29*%
X240500000Y-45900000D03*
X240500000Y-57100000D03*
D19*
X233000000Y-49000000D03*
D20*
X233000000Y-54000000D03*
X233000000Y-51500000D03*
X247500000Y-54000000D03*
X247500000Y-49000000D03*
%TD*%
D21*
%TO.C,J2*%
X143500000Y-51000000D03*
%TD*%
D15*
%TO.C,SW25*%
X197420000Y-51500000D03*
D16*
X202500000Y-51500000D03*
D15*
X207580000Y-51500000D03*
D17*
X205040000Y-46420000D03*
X198690000Y-48960000D03*
%TD*%
D15*
%TO.C,SW28*%
X130920000Y-108500000D03*
X141080000Y-108500000D03*
D16*
X136000000Y-108500000D03*
D17*
X138540000Y-103420000D03*
X132190000Y-105960000D03*
%TD*%
D15*
%TO.C,SW9*%
X74580000Y-108500000D03*
X64420000Y-108500000D03*
D16*
X69500000Y-108500000D03*
D17*
X72040000Y-103420000D03*
X65690000Y-105960000D03*
%TD*%
D16*
%TO.C,SW7*%
X69500000Y-70500000D03*
D15*
X64420000Y-70500000D03*
X74580000Y-70500000D03*
D17*
X72040000Y-65420000D03*
X65690000Y-67960000D03*
%TD*%
D15*
%TO.C,SW19*%
X159420000Y-70500000D03*
D16*
X164500000Y-70500000D03*
D15*
X169580000Y-70500000D03*
D17*
X167040000Y-65420000D03*
X160690000Y-67960000D03*
%TD*%
D16*
%TO.C,SW2*%
X50500000Y-51500000D03*
D15*
X45420000Y-51500000D03*
X55580000Y-51500000D03*
D17*
X53040000Y-46420000D03*
X46690000Y-48960000D03*
%TD*%
D16*
%TO.C,SW22*%
X183500000Y-70500000D03*
D15*
X188580000Y-70500000D03*
X178420000Y-70500000D03*
D17*
X186040000Y-65420000D03*
X179690000Y-67960000D03*
%TD*%
D22*
%TO.C,SW1*%
X142350000Y-43780000D03*
X142350000Y-41570000D03*
D23*
X147500000Y-42670000D03*
D22*
X149650000Y-43780000D03*
D23*
X144500000Y-42670000D03*
D22*
X149650000Y-41570000D03*
D24*
X148250000Y-44430000D03*
X145250000Y-44430000D03*
X143750000Y-44430000D03*
%TD*%
D15*
%TO.C,SW20*%
X159420000Y-108500000D03*
D16*
X164500000Y-108500000D03*
D15*
X169580000Y-108500000D03*
D17*
X167040000Y-103420000D03*
X160690000Y-105960000D03*
%TD*%
D25*
%TO.C,D27*%
X241500000Y-60000000D03*
D26*
X244000000Y-60000000D03*
D27*
X236200000Y-60000000D03*
D25*
X238700000Y-60000000D03*
%TD*%
D28*
%TO.C,D19*%
X174000000Y-107100000D03*
D26*
X174000000Y-104600000D03*
D28*
X174000000Y-109900000D03*
D27*
X174000000Y-112400000D03*
%TD*%
D26*
%TO.C,D8*%
X79000000Y-104600000D03*
D28*
X79000000Y-107100000D03*
D27*
X79000000Y-112400000D03*
D28*
X79000000Y-109900000D03*
%TD*%
%TO.C,D15*%
X117000000Y-88100000D03*
D26*
X117000000Y-85600000D03*
D27*
X117000000Y-93400000D03*
D28*
X117000000Y-90900000D03*
%TD*%
%TO.C,D1*%
X60000000Y-50000000D03*
D26*
X60000000Y-47500000D03*
D27*
X60000000Y-55300000D03*
D28*
X60000000Y-52800000D03*
%TD*%
D26*
%TO.C,D11*%
X98000000Y-85600000D03*
D28*
X98000000Y-88100000D03*
X98000000Y-90900000D03*
D27*
X98000000Y-93400000D03*
%TD*%
D26*
%TO.C,D25*%
X212000000Y-66600000D03*
D28*
X212000000Y-69100000D03*
X212000000Y-71900000D03*
D27*
X212000000Y-74400000D03*
%TD*%
D28*
%TO.C,D3*%
X60000000Y-88100000D03*
D26*
X60000000Y-85600000D03*
D27*
X60000000Y-93400000D03*
D28*
X60000000Y-90900000D03*
%TD*%
D26*
%TO.C,D17*%
X174000000Y-47100000D03*
D28*
X174000000Y-49600000D03*
D27*
X174000000Y-54900000D03*
D28*
X174000000Y-52400000D03*
%TD*%
D26*
%TO.C,D13*%
X117000000Y-47100000D03*
D28*
X117000000Y-49600000D03*
X117000000Y-52400000D03*
D27*
X117000000Y-54900000D03*
%TD*%
D26*
%TO.C,D29*%
X244300000Y-111500000D03*
D25*
X241800000Y-111500000D03*
X239000000Y-111500000D03*
D27*
X236500000Y-111500000D03*
%TD*%
D26*
%TO.C,D22*%
X193000000Y-85600000D03*
D28*
X193000000Y-88100000D03*
X193000000Y-90900000D03*
D27*
X193000000Y-93400000D03*
%TD*%
D28*
%TO.C,D6*%
X79000000Y-69100000D03*
D26*
X79000000Y-66600000D03*
D28*
X79000000Y-71900000D03*
D27*
X79000000Y-74400000D03*
%TD*%
D26*
%TO.C,D12*%
X98000000Y-104600000D03*
D28*
X98000000Y-107100000D03*
D27*
X98000000Y-112400000D03*
D28*
X98000000Y-109900000D03*
%TD*%
D26*
%TO.C,D4*%
X60000000Y-104600000D03*
D28*
X60000000Y-107100000D03*
X60000000Y-109900000D03*
D27*
X60000000Y-112400000D03*
%TD*%
D26*
%TO.C,D26*%
X212000000Y-104600000D03*
D28*
X212000000Y-107100000D03*
D27*
X212000000Y-112400000D03*
D28*
X212000000Y-109900000D03*
%TD*%
%TO.C,D16*%
X117000000Y-107100000D03*
D26*
X117000000Y-104600000D03*
D27*
X117000000Y-112400000D03*
D28*
X117000000Y-109900000D03*
%TD*%
%TO.C,D7*%
X79000000Y-88100000D03*
D26*
X79000000Y-85600000D03*
D27*
X79000000Y-93400000D03*
D28*
X79000000Y-90900000D03*
%TD*%
%TO.C,D20*%
X193000000Y-49600000D03*
D26*
X193000000Y-47100000D03*
D28*
X193000000Y-52400000D03*
D27*
X193000000Y-54900000D03*
%TD*%
D28*
%TO.C,D18*%
X174000000Y-69100000D03*
D26*
X174000000Y-66600000D03*
D28*
X174000000Y-71900000D03*
D27*
X174000000Y-74400000D03*
%TD*%
D26*
%TO.C,D2*%
X60000000Y-66700000D03*
D28*
X60000000Y-69200000D03*
X60000000Y-72000000D03*
D27*
X60000000Y-74500000D03*
%TD*%
D28*
%TO.C,D9*%
X98000000Y-49600000D03*
D26*
X98000000Y-47100000D03*
D28*
X98000000Y-52400000D03*
D27*
X98000000Y-54900000D03*
%TD*%
D26*
%TO.C,D24*%
X212000000Y-47100000D03*
D28*
X212000000Y-49600000D03*
X212000000Y-52400000D03*
D27*
X212000000Y-54900000D03*
%TD*%
D28*
%TO.C,D28*%
X145500000Y-107100000D03*
D26*
X145500000Y-104600000D03*
D28*
X145500000Y-109900000D03*
D27*
X145500000Y-112400000D03*
%TD*%
D26*
%TO.C,D14*%
X117000000Y-66600000D03*
D28*
X117000000Y-69100000D03*
D27*
X117000000Y-74400000D03*
D28*
X117000000Y-71900000D03*
%TD*%
%TO.C,D10*%
X98000000Y-69100000D03*
D26*
X98000000Y-66600000D03*
D28*
X98000000Y-71900000D03*
D27*
X98000000Y-74400000D03*
%TD*%
D26*
%TO.C,D23*%
X193000000Y-104700000D03*
D28*
X193000000Y-107200000D03*
X193000000Y-110000000D03*
D27*
X193000000Y-112500000D03*
%TD*%
D26*
%TO.C,D21*%
X193000000Y-66600000D03*
D28*
X193000000Y-69100000D03*
D27*
X193000000Y-74400000D03*
D28*
X193000000Y-71900000D03*
%TD*%
D26*
%TO.C,D5*%
X79000000Y-47500000D03*
D28*
X79000000Y-50000000D03*
X79000000Y-52800000D03*
D27*
X79000000Y-55300000D03*
%TD*%
M02*
