%TF.GenerationSoftware,KiCad,Pcbnew,(6.0.7-1)-1*%
%TF.CreationDate,2022-09-14T08:57:37+02:00*%
%TF.ProjectId,yts-pcb,7974732d-7063-4622-9e6b-696361645f70,rev?*%
%TF.SameCoordinates,Original*%
%TF.FileFunction,Legend,Bot*%
%TF.FilePolarity,Positive*%
%FSLAX46Y46*%
G04 Gerber Fmt 4.6, Leading zero omitted, Abs format (unit mm)*
G04 Created by KiCad (PCBNEW (6.0.7-1)-1) date 2022-09-14 08:57:37*
%MOMM*%
%LPD*%
G01*
G04 APERTURE LIST*
%ADD10C,0.300000*%
%ADD11R,1.752600X1.752600*%
%ADD12C,1.752600*%
%ADD13R,1.600000X1.600000*%
%ADD14C,1.600000*%
%ADD15C,1.700000*%
%ADD16C,4.000000*%
%ADD17C,2.200000*%
%ADD18O,3.200000X2.000000*%
%ADD19R,2.000000X2.000000*%
%ADD20C,2.000000*%
%ADD21C,0.900000*%
G04 APERTURE END LIST*
D10*
X231000000Y-44678571D02*
X230642857Y-45678571D01*
X230285714Y-44678571D02*
X230642857Y-45678571D01*
X230785714Y-46035714D01*
X230857142Y-46107142D01*
X231000000Y-46178571D01*
X229928571Y-44678571D02*
X229357142Y-44678571D01*
X229714285Y-44178571D02*
X229714285Y-45464285D01*
X229642857Y-45607142D01*
X229500000Y-45678571D01*
X229357142Y-45678571D01*
X228928571Y-45607142D02*
X228785714Y-45678571D01*
X228500000Y-45678571D01*
X228357142Y-45607142D01*
X228285714Y-45464285D01*
X228285714Y-45392857D01*
X228357142Y-45250000D01*
X228500000Y-45178571D01*
X228714285Y-45178571D01*
X228857142Y-45107142D01*
X228928571Y-44964285D01*
X228928571Y-44892857D01*
X228857142Y-44750000D01*
X228714285Y-44678571D01*
X228500000Y-44678571D01*
X228357142Y-44750000D01*
X227642857Y-45107142D02*
X226500000Y-45107142D01*
X225000000Y-45678571D02*
X225857142Y-45678571D01*
X225428571Y-45678571D02*
X225428571Y-44178571D01*
X225571428Y-44392857D01*
X225714285Y-44535714D01*
X225857142Y-44607142D01*
X223214285Y-45678571D02*
X223214285Y-44678571D01*
X223214285Y-44964285D02*
X223142857Y-44821428D01*
X223071428Y-44750000D01*
X222928571Y-44678571D01*
X222785714Y-44678571D01*
X221714285Y-45607142D02*
X221857142Y-45678571D01*
X222142857Y-45678571D01*
X222285714Y-45607142D01*
X222357142Y-45464285D01*
X222357142Y-44892857D01*
X222285714Y-44750000D01*
X222142857Y-44678571D01*
X221857142Y-44678571D01*
X221714285Y-44750000D01*
X221642857Y-44892857D01*
X221642857Y-45035714D01*
X222357142Y-45178571D01*
X221142857Y-44678571D02*
X220785714Y-45678571D01*
X220428571Y-44678571D01*
X219571428Y-44178571D02*
X219428571Y-44178571D01*
X219285714Y-44250000D01*
X219214285Y-44321428D01*
X219142857Y-44464285D01*
X219071428Y-44750000D01*
X219071428Y-45107142D01*
X219142857Y-45392857D01*
X219214285Y-45535714D01*
X219285714Y-45607142D01*
X219428571Y-45678571D01*
X219571428Y-45678571D01*
X219714285Y-45607142D01*
X219785714Y-45535714D01*
X219857142Y-45392857D01*
X219928571Y-45107142D01*
X219928571Y-44750000D01*
X219857142Y-44464285D01*
X219785714Y-44321428D01*
X219714285Y-44250000D01*
X219571428Y-44178571D01*
D11*
%TO.C,U1*%
X121380000Y-42530000D03*
D12*
X121380000Y-45070000D03*
X121380000Y-47610000D03*
X121380000Y-50150000D03*
X121380000Y-52690000D03*
X121380000Y-55230000D03*
X121380000Y-57770000D03*
X121380000Y-60310000D03*
X121380000Y-62850000D03*
X121380000Y-65390000D03*
X121380000Y-67930000D03*
X121380000Y-70470000D03*
X136620000Y-70470000D03*
X136620000Y-67930000D03*
X136620000Y-65390000D03*
X136620000Y-62850000D03*
X136620000Y-60310000D03*
X136620000Y-57770000D03*
X136620000Y-55230000D03*
X136620000Y-52690000D03*
X136620000Y-50150000D03*
X136620000Y-47610000D03*
X136620000Y-45070000D03*
X136620000Y-42530000D03*
%TD*%
D13*
%TO.C,D27*%
X244000000Y-60000000D03*
D14*
X236200000Y-60000000D03*
%TD*%
D13*
%TO.C,D19*%
X174000000Y-104600000D03*
D14*
X174000000Y-112400000D03*
%TD*%
D13*
%TO.C,D8*%
X79000000Y-104600000D03*
D14*
X79000000Y-112400000D03*
%TD*%
D13*
%TO.C,D15*%
X117000000Y-85600000D03*
D14*
X117000000Y-93400000D03*
%TD*%
D13*
%TO.C,D1*%
X60000000Y-47500000D03*
D14*
X60000000Y-55300000D03*
%TD*%
D13*
%TO.C,D11*%
X98000000Y-85600000D03*
D14*
X98000000Y-93400000D03*
%TD*%
D13*
%TO.C,D25*%
X212000000Y-66600000D03*
D14*
X212000000Y-74400000D03*
%TD*%
D13*
%TO.C,D3*%
X60000000Y-85600000D03*
D14*
X60000000Y-93400000D03*
%TD*%
D13*
%TO.C,D17*%
X174000000Y-47100000D03*
D14*
X174000000Y-54900000D03*
%TD*%
D13*
%TO.C,D13*%
X117000000Y-47100000D03*
D14*
X117000000Y-54900000D03*
%TD*%
D13*
%TO.C,D29*%
X244300000Y-111500000D03*
D14*
X236500000Y-111500000D03*
%TD*%
D13*
%TO.C,D22*%
X193000000Y-85600000D03*
D14*
X193000000Y-93400000D03*
%TD*%
D13*
%TO.C,D6*%
X79000000Y-66600000D03*
D14*
X79000000Y-74400000D03*
%TD*%
D13*
%TO.C,D12*%
X98000000Y-104600000D03*
D14*
X98000000Y-112400000D03*
%TD*%
D13*
%TO.C,D4*%
X60000000Y-104600000D03*
D14*
X60000000Y-112400000D03*
%TD*%
D13*
%TO.C,D26*%
X212000000Y-104600000D03*
D14*
X212000000Y-112400000D03*
%TD*%
D13*
%TO.C,D16*%
X117000000Y-104600000D03*
D14*
X117000000Y-112400000D03*
%TD*%
D13*
%TO.C,D7*%
X79000000Y-85600000D03*
D14*
X79000000Y-93400000D03*
%TD*%
D13*
%TO.C,D20*%
X193000000Y-47100000D03*
D14*
X193000000Y-54900000D03*
%TD*%
D13*
%TO.C,D18*%
X174000000Y-66600000D03*
D14*
X174000000Y-74400000D03*
%TD*%
D13*
%TO.C,D2*%
X60000000Y-66700000D03*
D14*
X60000000Y-74500000D03*
%TD*%
D13*
%TO.C,D9*%
X98000000Y-47100000D03*
D14*
X98000000Y-54900000D03*
%TD*%
D13*
%TO.C,D24*%
X212000000Y-47100000D03*
D14*
X212000000Y-54900000D03*
%TD*%
D13*
%TO.C,D28*%
X145500000Y-104600000D03*
D14*
X145500000Y-112400000D03*
%TD*%
D13*
%TO.C,D14*%
X117000000Y-66600000D03*
D14*
X117000000Y-74400000D03*
%TD*%
D13*
%TO.C,D10*%
X98000000Y-66600000D03*
D14*
X98000000Y-74400000D03*
%TD*%
D13*
%TO.C,D23*%
X193000000Y-104700000D03*
D14*
X193000000Y-112500000D03*
%TD*%
D13*
%TO.C,D21*%
X193000000Y-66600000D03*
D14*
X193000000Y-74400000D03*
%TD*%
D13*
%TO.C,D5*%
X79000000Y-47500000D03*
D14*
X79000000Y-55300000D03*
%TD*%
%LPC*%
D15*
%TO.C,SW11*%
X83420000Y-70500000D03*
X93580000Y-70500000D03*
D16*
X88500000Y-70500000D03*
D17*
X91040000Y-65420000D03*
X84690000Y-67960000D03*
%TD*%
D15*
%TO.C,SW3*%
X45420000Y-70500000D03*
D16*
X50500000Y-70500000D03*
D15*
X55580000Y-70500000D03*
D17*
X53040000Y-65420000D03*
X46690000Y-67960000D03*
%TD*%
D18*
%TO.C,SW30*%
X240500000Y-97400000D03*
X240500000Y-108600000D03*
D19*
X233000000Y-100500000D03*
D20*
X233000000Y-105500000D03*
X233000000Y-103000000D03*
X247500000Y-105500000D03*
X247500000Y-100500000D03*
%TD*%
D15*
%TO.C,SW6*%
X64420000Y-51500000D03*
X74580000Y-51500000D03*
D16*
X69500000Y-51500000D03*
D17*
X72040000Y-46420000D03*
X65690000Y-48960000D03*
%TD*%
D16*
%TO.C,SW14*%
X107500000Y-51500000D03*
D15*
X112580000Y-51500000D03*
X102420000Y-51500000D03*
D17*
X110040000Y-46420000D03*
X103690000Y-48960000D03*
%TD*%
D16*
%TO.C,SW17*%
X107500000Y-108500000D03*
D15*
X102420000Y-108500000D03*
X112580000Y-108500000D03*
D17*
X110040000Y-103420000D03*
X103690000Y-105960000D03*
%TD*%
D16*
%TO.C,SW13*%
X88500000Y-108500000D03*
D15*
X93580000Y-108500000D03*
X83420000Y-108500000D03*
D17*
X91040000Y-103420000D03*
X84690000Y-105960000D03*
%TD*%
D15*
%TO.C,SW12*%
X83420000Y-89500000D03*
D16*
X88500000Y-89500000D03*
D15*
X93580000Y-89500000D03*
D17*
X91040000Y-84420000D03*
X84690000Y-86960000D03*
%TD*%
D16*
%TO.C,SW10*%
X88500000Y-51500000D03*
D15*
X83420000Y-51500000D03*
X93580000Y-51500000D03*
D17*
X91040000Y-46420000D03*
X84690000Y-48960000D03*
%TD*%
D16*
%TO.C,SW5*%
X50500000Y-108500000D03*
D15*
X45420000Y-108500000D03*
X55580000Y-108500000D03*
D17*
X53040000Y-103420000D03*
X46690000Y-105960000D03*
%TD*%
D15*
%TO.C,SW15*%
X102420000Y-70500000D03*
D16*
X107500000Y-70500000D03*
D15*
X112580000Y-70500000D03*
D17*
X110040000Y-65420000D03*
X103690000Y-67960000D03*
%TD*%
D16*
%TO.C,SW16*%
X107500000Y-89500000D03*
D15*
X112580000Y-89500000D03*
X102420000Y-89500000D03*
D17*
X110040000Y-84420000D03*
X103690000Y-86960000D03*
%TD*%
D15*
%TO.C,SW8*%
X64420000Y-89500000D03*
X74580000Y-89500000D03*
D16*
X69500000Y-89500000D03*
D17*
X72040000Y-84420000D03*
X65690000Y-86960000D03*
%TD*%
D15*
%TO.C,SW27*%
X207580000Y-108500000D03*
X197420000Y-108500000D03*
D16*
X202500000Y-108500000D03*
D17*
X205040000Y-103420000D03*
X198690000Y-105960000D03*
%TD*%
D15*
%TO.C,SW18*%
X159420000Y-51500000D03*
D16*
X164500000Y-51500000D03*
D15*
X169580000Y-51500000D03*
D17*
X167040000Y-46420000D03*
X160690000Y-48960000D03*
%TD*%
D16*
%TO.C,SW4*%
X50500000Y-89500000D03*
D15*
X55580000Y-89500000D03*
X45420000Y-89500000D03*
D17*
X53040000Y-84420000D03*
X46690000Y-86960000D03*
%TD*%
D15*
%TO.C,SW26*%
X197420000Y-70500000D03*
D16*
X202500000Y-70500000D03*
D15*
X207580000Y-70500000D03*
D17*
X205040000Y-65420000D03*
X198690000Y-67960000D03*
%TD*%
D15*
%TO.C,SW24*%
X188580000Y-108500000D03*
X178420000Y-108500000D03*
D16*
X183500000Y-108500000D03*
D17*
X186040000Y-103420000D03*
X179690000Y-105960000D03*
%TD*%
D15*
%TO.C,SW23*%
X178420000Y-89500000D03*
X188580000Y-89500000D03*
D16*
X183500000Y-89500000D03*
D17*
X186040000Y-84420000D03*
X179690000Y-86960000D03*
%TD*%
D11*
%TO.C,U1*%
X121380000Y-42530000D03*
D12*
X121380000Y-45070000D03*
X121380000Y-47610000D03*
X121380000Y-50150000D03*
X121380000Y-52690000D03*
X121380000Y-55230000D03*
X121380000Y-57770000D03*
X121380000Y-60310000D03*
X121380000Y-62850000D03*
X121380000Y-65390000D03*
X121380000Y-67930000D03*
X121380000Y-70470000D03*
X136620000Y-70470000D03*
X136620000Y-67930000D03*
X136620000Y-65390000D03*
X136620000Y-62850000D03*
X136620000Y-60310000D03*
X136620000Y-57770000D03*
X136620000Y-55230000D03*
X136620000Y-52690000D03*
X136620000Y-50150000D03*
X136620000Y-47610000D03*
X136620000Y-45070000D03*
X136620000Y-42530000D03*
%TD*%
D16*
%TO.C,SW21*%
X183500000Y-51500000D03*
D15*
X178420000Y-51500000D03*
X188580000Y-51500000D03*
D17*
X186040000Y-46420000D03*
X179690000Y-48960000D03*
%TD*%
D18*
%TO.C,SW29*%
X240500000Y-45900000D03*
X240500000Y-57100000D03*
D19*
X233000000Y-49000000D03*
D20*
X233000000Y-54000000D03*
X233000000Y-51500000D03*
X247500000Y-54000000D03*
X247500000Y-49000000D03*
%TD*%
D15*
%TO.C,SW25*%
X197420000Y-51500000D03*
D16*
X202500000Y-51500000D03*
D15*
X207580000Y-51500000D03*
D17*
X205040000Y-46420000D03*
X198690000Y-48960000D03*
%TD*%
D15*
%TO.C,SW28*%
X130920000Y-108500000D03*
X141080000Y-108500000D03*
D16*
X136000000Y-108500000D03*
D17*
X138540000Y-103420000D03*
X132190000Y-105960000D03*
%TD*%
D15*
%TO.C,SW9*%
X74580000Y-108500000D03*
X64420000Y-108500000D03*
D16*
X69500000Y-108500000D03*
D17*
X72040000Y-103420000D03*
X65690000Y-105960000D03*
%TD*%
D16*
%TO.C,SW7*%
X69500000Y-70500000D03*
D15*
X64420000Y-70500000D03*
X74580000Y-70500000D03*
D17*
X72040000Y-65420000D03*
X65690000Y-67960000D03*
%TD*%
D15*
%TO.C,SW19*%
X159420000Y-70500000D03*
D16*
X164500000Y-70500000D03*
D15*
X169580000Y-70500000D03*
D17*
X167040000Y-65420000D03*
X160690000Y-67960000D03*
%TD*%
D16*
%TO.C,SW2*%
X50500000Y-51500000D03*
D15*
X45420000Y-51500000D03*
X55580000Y-51500000D03*
D17*
X53040000Y-46420000D03*
X46690000Y-48960000D03*
%TD*%
D16*
%TO.C,SW22*%
X183500000Y-70500000D03*
D15*
X188580000Y-70500000D03*
X178420000Y-70500000D03*
D17*
X186040000Y-65420000D03*
X179690000Y-67960000D03*
%TD*%
D21*
%TO.C,SW1*%
X147500000Y-42670000D03*
X144500000Y-42670000D03*
%TD*%
D15*
%TO.C,SW20*%
X159420000Y-108500000D03*
D16*
X164500000Y-108500000D03*
D15*
X169580000Y-108500000D03*
D17*
X167040000Y-103420000D03*
X160690000Y-105960000D03*
%TD*%
D13*
%TO.C,D27*%
X244000000Y-60000000D03*
D14*
X236200000Y-60000000D03*
%TD*%
D13*
%TO.C,D19*%
X174000000Y-104600000D03*
D14*
X174000000Y-112400000D03*
%TD*%
D13*
%TO.C,D8*%
X79000000Y-104600000D03*
D14*
X79000000Y-112400000D03*
%TD*%
D13*
%TO.C,D15*%
X117000000Y-85600000D03*
D14*
X117000000Y-93400000D03*
%TD*%
D13*
%TO.C,D1*%
X60000000Y-47500000D03*
D14*
X60000000Y-55300000D03*
%TD*%
D13*
%TO.C,D11*%
X98000000Y-85600000D03*
D14*
X98000000Y-93400000D03*
%TD*%
D13*
%TO.C,D25*%
X212000000Y-66600000D03*
D14*
X212000000Y-74400000D03*
%TD*%
D13*
%TO.C,D3*%
X60000000Y-85600000D03*
D14*
X60000000Y-93400000D03*
%TD*%
D13*
%TO.C,D17*%
X174000000Y-47100000D03*
D14*
X174000000Y-54900000D03*
%TD*%
D13*
%TO.C,D13*%
X117000000Y-47100000D03*
D14*
X117000000Y-54900000D03*
%TD*%
D13*
%TO.C,D29*%
X244300000Y-111500000D03*
D14*
X236500000Y-111500000D03*
%TD*%
D13*
%TO.C,D22*%
X193000000Y-85600000D03*
D14*
X193000000Y-93400000D03*
%TD*%
D13*
%TO.C,D6*%
X79000000Y-66600000D03*
D14*
X79000000Y-74400000D03*
%TD*%
D13*
%TO.C,D12*%
X98000000Y-104600000D03*
D14*
X98000000Y-112400000D03*
%TD*%
D13*
%TO.C,D4*%
X60000000Y-104600000D03*
D14*
X60000000Y-112400000D03*
%TD*%
D13*
%TO.C,D26*%
X212000000Y-104600000D03*
D14*
X212000000Y-112400000D03*
%TD*%
D13*
%TO.C,D16*%
X117000000Y-104600000D03*
D14*
X117000000Y-112400000D03*
%TD*%
D13*
%TO.C,D7*%
X79000000Y-85600000D03*
D14*
X79000000Y-93400000D03*
%TD*%
D13*
%TO.C,D20*%
X193000000Y-47100000D03*
D14*
X193000000Y-54900000D03*
%TD*%
D13*
%TO.C,D18*%
X174000000Y-66600000D03*
D14*
X174000000Y-74400000D03*
%TD*%
D13*
%TO.C,D2*%
X60000000Y-66700000D03*
D14*
X60000000Y-74500000D03*
%TD*%
D13*
%TO.C,D9*%
X98000000Y-47100000D03*
D14*
X98000000Y-54900000D03*
%TD*%
D13*
%TO.C,D24*%
X212000000Y-47100000D03*
D14*
X212000000Y-54900000D03*
%TD*%
D13*
%TO.C,D28*%
X145500000Y-104600000D03*
D14*
X145500000Y-112400000D03*
%TD*%
D13*
%TO.C,D14*%
X117000000Y-66600000D03*
D14*
X117000000Y-74400000D03*
%TD*%
D13*
%TO.C,D10*%
X98000000Y-66600000D03*
D14*
X98000000Y-74400000D03*
%TD*%
D13*
%TO.C,D23*%
X193000000Y-104700000D03*
D14*
X193000000Y-112500000D03*
%TD*%
D13*
%TO.C,D21*%
X193000000Y-66600000D03*
D14*
X193000000Y-74400000D03*
%TD*%
D13*
%TO.C,D5*%
X79000000Y-47500000D03*
D14*
X79000000Y-55300000D03*
%TD*%
M02*
