M48
; DRILL file {KiCad (6.0.7-1)-1} date 2022 September 14, Wednesday 08:57:56
; FORMAT={-:-/ absolute / metric / decimal}
; #@! TF.CreationDate,2022-09-14T08:57:56+02:00
; #@! TF.GenerationSoftware,Kicad,Pcbnew,(6.0.7-1)-1
; #@! TF.FileFunction,Plated,1,2,PTH
FMAT,2
METRIC
; #@! TA.AperFunction,Plated,PTH,ViaDrill
T1C0.400
; #@! TA.AperFunction,Plated,PTH,ComponentDrill
T2C1.000
; #@! TA.AperFunction,Plated,PTH,ComponentDrill
T3C1.092
; #@! TA.AperFunction,Plated,PTH,ComponentDrill
T4C1.500
%
G90
G05
T1
X121.5Y-84.0
X121.5Y-93.0
X128.5Y-49.0
X132.0Y-67.0
X135.0Y-74.0
X143.2Y-46.7
X147.7Y-46.7
X155.0Y-76.0
X157.5Y-61.0
X162.5Y-82.0
X209.5Y-81.775
X212.0Y-59.0
X212.0Y-61.0
X217.5Y-59.0
T2
X60.0Y-47.5
X60.0Y-55.3
X60.0Y-66.7
X60.0Y-74.5
X60.0Y-85.6
X60.0Y-93.4
X60.0Y-104.6
X60.0Y-112.4
X79.0Y-47.5
X79.0Y-55.3
X79.0Y-66.6
X79.0Y-74.4
X79.0Y-85.6
X79.0Y-93.4
X79.0Y-104.6
X79.0Y-112.4
X98.0Y-47.1
X98.0Y-54.9
X98.0Y-66.6
X98.0Y-74.4
X98.0Y-85.6
X98.0Y-93.4
X98.0Y-104.6
X98.0Y-112.4
X117.0Y-47.1
X117.0Y-54.9
X117.0Y-66.6
X117.0Y-74.4
X117.0Y-85.6
X117.0Y-93.4
X117.0Y-104.6
X117.0Y-112.4
X145.5Y-104.6
X145.5Y-112.4
X174.0Y-47.1
X174.0Y-54.9
X174.0Y-66.6
X174.0Y-74.4
X174.0Y-104.6
X174.0Y-112.4
X193.0Y-47.1
X193.0Y-54.9
X193.0Y-66.6
X193.0Y-74.4
X193.0Y-85.6
X193.0Y-93.4
X193.0Y-104.7
X193.0Y-112.5
X212.0Y-47.1
X212.0Y-54.9
X212.0Y-66.6
X212.0Y-74.4
X212.0Y-104.6
X212.0Y-112.4
X233.0Y-49.0
X233.0Y-51.5
X233.0Y-54.0
X233.0Y-100.5
X233.0Y-103.0
X233.0Y-105.5
X236.2Y-60.0
X236.5Y-111.5
X244.0Y-60.0
X244.3Y-111.5
X247.5Y-49.0
X247.5Y-54.0
X247.5Y-100.5
X247.5Y-105.5
T3
X121.38Y-42.53
X121.38Y-45.07
X121.38Y-47.61
X121.38Y-50.15
X121.38Y-52.69
X121.38Y-55.23
X121.38Y-57.77
X121.38Y-60.31
X121.38Y-62.85
X121.38Y-65.39
X121.38Y-67.93
X121.38Y-70.47
X136.62Y-42.53
X136.62Y-45.07
X136.62Y-47.61
X136.62Y-50.15
X136.62Y-52.69
X136.62Y-55.23
X136.62Y-57.77
X136.62Y-60.31
X136.62Y-62.85
X136.62Y-65.39
X136.62Y-67.93
X136.62Y-70.47
T4
X46.69Y-48.96
X46.69Y-67.96
X46.69Y-86.96
X46.69Y-105.96
X53.04Y-46.42
X53.04Y-65.42
X53.04Y-84.42
X53.04Y-103.42
X65.69Y-48.96
X65.69Y-67.96
X65.69Y-86.96
X65.69Y-105.96
X72.04Y-46.42
X72.04Y-65.42
X72.04Y-84.42
X72.04Y-103.42
X84.69Y-48.96
X84.69Y-67.96
X84.69Y-86.96
X84.69Y-105.96
X91.04Y-46.42
X91.04Y-65.42
X91.04Y-84.42
X91.04Y-103.42
X103.69Y-48.96
X103.69Y-67.96
X103.69Y-86.96
X103.69Y-105.96
X110.04Y-46.42
X110.04Y-65.42
X110.04Y-84.42
X110.04Y-103.42
X132.19Y-105.96
X138.54Y-103.42
X160.69Y-48.96
X160.69Y-67.96
X160.69Y-105.96
X167.04Y-46.42
X167.04Y-65.42
X167.04Y-103.42
X179.69Y-48.96
X179.69Y-67.96
X179.69Y-86.96
X179.69Y-105.96
X186.04Y-46.42
X186.04Y-65.42
X186.04Y-84.42
X186.04Y-103.42
X198.69Y-48.96
X198.69Y-67.96
X198.69Y-105.96
X205.04Y-46.42
X205.04Y-65.42
X205.04Y-103.42
T0
M30
