%TF.GenerationSoftware,KiCad,Pcbnew,(6.0.7-1)-1*%
%TF.CreationDate,2022-09-14T08:57:57+02:00*%
%TF.ProjectId,yts-pcb,7974732d-7063-4622-9e6b-696361645f70,rev?*%
%TF.SameCoordinates,Original*%
%TF.FileFunction,Drillmap*%
%TF.FilePolarity,Positive*%
%FSLAX45Y45*%
G04 Gerber Fmt 4.5, Leading zero omitted, Abs format (unit mm)*
G04 Created by KiCad (PCBNEW (6.0.7-1)-1) date 2022-09-14 08:57:57*
%MOMM*%
%LPD*%
G01*
G04 APERTURE LIST*
%ADD10C,0.100000*%
%ADD11C,0.200000*%
%ADD12C,0.090000*%
%ADD13C,0.150000*%
%ADD14C,0.170000*%
%ADD15C,0.400000*%
G04 APERTURE END LIST*
D10*
X4000000Y-4100000D02*
X25000000Y-4100000D01*
X25000000Y-4100000D02*
X25000000Y-11900000D01*
X25000000Y-11900000D02*
X4000000Y-11900000D01*
X4000000Y-11900000D02*
X4000000Y-4100000D01*
D11*
D12*
X14405000Y-4222000D02*
X14495000Y-4312000D01*
X14495000Y-4222000D02*
X14405000Y-4312000D01*
X14705000Y-4222000D02*
X14795000Y-4312000D01*
X14795000Y-4222000D02*
X14705000Y-4312000D01*
D13*
X24125000Y-4590000D02*
G75*
G03*
X24125000Y-4590000I-75000J0D01*
G01*
D11*
X23985000Y-4665000D02*
X24115000Y-4665000D01*
X23985000Y-4515000D02*
X24115000Y-4515000D01*
X24115000Y-4665000D02*
G75*
G03*
X24115000Y-4515000I0J75000D01*
G01*
X23985000Y-4515000D02*
G75*
G03*
X23985000Y-4665000I0J-75000D01*
G01*
D13*
X24125000Y-5710000D02*
G75*
G03*
X24125000Y-5710000I-75000J0D01*
G01*
D11*
X23985000Y-5785000D02*
X24115000Y-5785000D01*
X23985000Y-5635000D02*
X24115000Y-5635000D01*
X24115000Y-5785000D02*
G75*
G03*
X24115000Y-5635000I0J75000D01*
G01*
X23985000Y-5635000D02*
G75*
G03*
X23985000Y-5785000I0J-75000D01*
G01*
D13*
X24125000Y-9740000D02*
G75*
G03*
X24125000Y-9740000I-75000J0D01*
G01*
D11*
X23985000Y-9815000D02*
X24115000Y-9815000D01*
X23985000Y-9665000D02*
X24115000Y-9665000D01*
X24115000Y-9815000D02*
G75*
G03*
X24115000Y-9665000I0J75000D01*
G01*
X23985000Y-9665000D02*
G75*
G03*
X23985000Y-9815000I0J-75000D01*
G01*
D13*
X24125000Y-10860000D02*
G75*
G03*
X24125000Y-10860000I-75000J0D01*
G01*
D11*
X23985000Y-10935000D02*
X24115000Y-10935000D01*
X23985000Y-10785000D02*
X24115000Y-10785000D01*
X24115000Y-10935000D02*
G75*
G03*
X24115000Y-10785000I0J75000D01*
G01*
X23985000Y-10785000D02*
G75*
G03*
X23985000Y-10935000I0J-75000D01*
G01*
D14*
X4542000Y-5065000D02*
X4542000Y-5235000D01*
X4457000Y-5150000D02*
X4627000Y-5150000D01*
X4542000Y-6965000D02*
X4542000Y-7135000D01*
X4457000Y-7050000D02*
X4627000Y-7050000D01*
X4542000Y-8865000D02*
X4542000Y-9035000D01*
X4457000Y-8950000D02*
X4627000Y-8950000D01*
X4542000Y-10765000D02*
X4542000Y-10935000D01*
X4457000Y-10850000D02*
X4627000Y-10850000D01*
X5558000Y-5065000D02*
X5558000Y-5235000D01*
X5473000Y-5150000D02*
X5643000Y-5150000D01*
X5558000Y-6965000D02*
X5558000Y-7135000D01*
X5473000Y-7050000D02*
X5643000Y-7050000D01*
X5558000Y-8865000D02*
X5558000Y-9035000D01*
X5473000Y-8950000D02*
X5643000Y-8950000D01*
X5558000Y-10765000D02*
X5558000Y-10935000D01*
X5473000Y-10850000D02*
X5643000Y-10850000D01*
X6442000Y-5065000D02*
X6442000Y-5235000D01*
X6357000Y-5150000D02*
X6527000Y-5150000D01*
X6442000Y-6965000D02*
X6442000Y-7135000D01*
X6357000Y-7050000D02*
X6527000Y-7050000D01*
X6442000Y-8865000D02*
X6442000Y-9035000D01*
X6357000Y-8950000D02*
X6527000Y-8950000D01*
X6442000Y-10765000D02*
X6442000Y-10935000D01*
X6357000Y-10850000D02*
X6527000Y-10850000D01*
X7458000Y-5065000D02*
X7458000Y-5235000D01*
X7373000Y-5150000D02*
X7543000Y-5150000D01*
X7458000Y-6965000D02*
X7458000Y-7135000D01*
X7373000Y-7050000D02*
X7543000Y-7050000D01*
X7458000Y-8865000D02*
X7458000Y-9035000D01*
X7373000Y-8950000D02*
X7543000Y-8950000D01*
X7458000Y-10765000D02*
X7458000Y-10935000D01*
X7373000Y-10850000D02*
X7543000Y-10850000D01*
X8342000Y-5065000D02*
X8342000Y-5235000D01*
X8257000Y-5150000D02*
X8427000Y-5150000D01*
X8342000Y-6965000D02*
X8342000Y-7135000D01*
X8257000Y-7050000D02*
X8427000Y-7050000D01*
X8342000Y-8865000D02*
X8342000Y-9035000D01*
X8257000Y-8950000D02*
X8427000Y-8950000D01*
X8342000Y-10765000D02*
X8342000Y-10935000D01*
X8257000Y-10850000D02*
X8427000Y-10850000D01*
X9358000Y-5065000D02*
X9358000Y-5235000D01*
X9273000Y-5150000D02*
X9443000Y-5150000D01*
X9358000Y-6965000D02*
X9358000Y-7135000D01*
X9273000Y-7050000D02*
X9443000Y-7050000D01*
X9358000Y-8865000D02*
X9358000Y-9035000D01*
X9273000Y-8950000D02*
X9443000Y-8950000D01*
X9358000Y-10765000D02*
X9358000Y-10935000D01*
X9273000Y-10850000D02*
X9443000Y-10850000D01*
X10242000Y-5065000D02*
X10242000Y-5235000D01*
X10157000Y-5150000D02*
X10327000Y-5150000D01*
X10242000Y-6965000D02*
X10242000Y-7135000D01*
X10157000Y-7050000D02*
X10327000Y-7050000D01*
X10242000Y-8865000D02*
X10242000Y-9035000D01*
X10157000Y-8950000D02*
X10327000Y-8950000D01*
X10242000Y-10765000D02*
X10242000Y-10935000D01*
X10157000Y-10850000D02*
X10327000Y-10850000D01*
X11258000Y-5065000D02*
X11258000Y-5235000D01*
X11173000Y-5150000D02*
X11343000Y-5150000D01*
X11258000Y-6965000D02*
X11258000Y-7135000D01*
X11173000Y-7050000D02*
X11343000Y-7050000D01*
X11258000Y-8865000D02*
X11258000Y-9035000D01*
X11173000Y-8950000D02*
X11343000Y-8950000D01*
X11258000Y-10765000D02*
X11258000Y-10935000D01*
X11173000Y-10850000D02*
X11343000Y-10850000D01*
X13092000Y-10765000D02*
X13092000Y-10935000D01*
X13007000Y-10850000D02*
X13177000Y-10850000D01*
X14108000Y-10765000D02*
X14108000Y-10935000D01*
X14023000Y-10850000D02*
X14193000Y-10850000D01*
X15942000Y-5065000D02*
X15942000Y-5235000D01*
X15857000Y-5150000D02*
X16027000Y-5150000D01*
X15942000Y-6965000D02*
X15942000Y-7135000D01*
X15857000Y-7050000D02*
X16027000Y-7050000D01*
X15942000Y-10765000D02*
X15942000Y-10935000D01*
X15857000Y-10850000D02*
X16027000Y-10850000D01*
X16958000Y-5065000D02*
X16958000Y-5235000D01*
X16873000Y-5150000D02*
X17043000Y-5150000D01*
X16958000Y-6965000D02*
X16958000Y-7135000D01*
X16873000Y-7050000D02*
X17043000Y-7050000D01*
X16958000Y-10765000D02*
X16958000Y-10935000D01*
X16873000Y-10850000D02*
X17043000Y-10850000D01*
X17842000Y-5065000D02*
X17842000Y-5235000D01*
X17757000Y-5150000D02*
X17927000Y-5150000D01*
X17842000Y-6965000D02*
X17842000Y-7135000D01*
X17757000Y-7050000D02*
X17927000Y-7050000D01*
X17842000Y-8865000D02*
X17842000Y-9035000D01*
X17757000Y-8950000D02*
X17927000Y-8950000D01*
X17842000Y-10765000D02*
X17842000Y-10935000D01*
X17757000Y-10850000D02*
X17927000Y-10850000D01*
X18858000Y-5065000D02*
X18858000Y-5235000D01*
X18773000Y-5150000D02*
X18943000Y-5150000D01*
X18858000Y-6965000D02*
X18858000Y-7135000D01*
X18773000Y-7050000D02*
X18943000Y-7050000D01*
X18858000Y-8865000D02*
X18858000Y-9035000D01*
X18773000Y-8950000D02*
X18943000Y-8950000D01*
X18858000Y-10765000D02*
X18858000Y-10935000D01*
X18773000Y-10850000D02*
X18943000Y-10850000D01*
X19742000Y-5065000D02*
X19742000Y-5235000D01*
X19657000Y-5150000D02*
X19827000Y-5150000D01*
X19742000Y-6965000D02*
X19742000Y-7135000D01*
X19657000Y-7050000D02*
X19827000Y-7050000D01*
X19742000Y-10765000D02*
X19742000Y-10935000D01*
X19657000Y-10850000D02*
X19827000Y-10850000D01*
X20758000Y-5065000D02*
X20758000Y-5235000D01*
X20673000Y-5150000D02*
X20843000Y-5150000D01*
X20758000Y-6965000D02*
X20758000Y-7135000D01*
X20673000Y-7050000D02*
X20843000Y-7050000D01*
X20758000Y-10765000D02*
X20758000Y-10935000D01*
X20673000Y-10850000D02*
X20843000Y-10850000D01*
D15*
X5191423Y-5291423D02*
X5191423Y-5008577D01*
X4908577Y-5008577D01*
X4908577Y-5291423D01*
X5191423Y-5291423D01*
X5191423Y-7191423D02*
X5191423Y-6908577D01*
X4908577Y-6908577D01*
X4908577Y-7191423D01*
X5191423Y-7191423D01*
X5191423Y-9091423D02*
X5191423Y-8808577D01*
X4908577Y-8808577D01*
X4908577Y-9091423D01*
X5191423Y-9091423D01*
X5191423Y-10991423D02*
X5191423Y-10708577D01*
X4908577Y-10708577D01*
X4908577Y-10991423D01*
X5191423Y-10991423D01*
X7091423Y-5291423D02*
X7091423Y-5008577D01*
X6808577Y-5008577D01*
X6808577Y-5291423D01*
X7091423Y-5291423D01*
X7091423Y-7191423D02*
X7091423Y-6908577D01*
X6808577Y-6908577D01*
X6808577Y-7191423D01*
X7091423Y-7191423D01*
X7091423Y-9091423D02*
X7091423Y-8808577D01*
X6808577Y-8808577D01*
X6808577Y-9091423D01*
X7091423Y-9091423D01*
X7091423Y-10991423D02*
X7091423Y-10708577D01*
X6808577Y-10708577D01*
X6808577Y-10991423D01*
X7091423Y-10991423D01*
X8991423Y-5291423D02*
X8991423Y-5008577D01*
X8708577Y-5008577D01*
X8708577Y-5291423D01*
X8991423Y-5291423D01*
X8991423Y-7191423D02*
X8991423Y-6908577D01*
X8708577Y-6908577D01*
X8708577Y-7191423D01*
X8991423Y-7191423D01*
X8991423Y-9091423D02*
X8991423Y-8808577D01*
X8708577Y-8808577D01*
X8708577Y-9091423D01*
X8991423Y-9091423D01*
X8991423Y-10991423D02*
X8991423Y-10708577D01*
X8708577Y-10708577D01*
X8708577Y-10991423D01*
X8991423Y-10991423D01*
X10891423Y-5291423D02*
X10891423Y-5008577D01*
X10608577Y-5008577D01*
X10608577Y-5291423D01*
X10891423Y-5291423D01*
X10891423Y-7191423D02*
X10891423Y-6908577D01*
X10608577Y-6908577D01*
X10608577Y-7191423D01*
X10891423Y-7191423D01*
X10891423Y-9091423D02*
X10891423Y-8808577D01*
X10608577Y-8808577D01*
X10608577Y-9091423D01*
X10891423Y-9091423D01*
X10891423Y-10991423D02*
X10891423Y-10708577D01*
X10608577Y-10708577D01*
X10608577Y-10991423D01*
X10891423Y-10991423D01*
X13741423Y-10991423D02*
X13741423Y-10708577D01*
X13458577Y-10708577D01*
X13458577Y-10991423D01*
X13741423Y-10991423D01*
X16591423Y-5291423D02*
X16591423Y-5008577D01*
X16308577Y-5008577D01*
X16308577Y-5291423D01*
X16591423Y-5291423D01*
X16591423Y-7191423D02*
X16591423Y-6908577D01*
X16308577Y-6908577D01*
X16308577Y-7191423D01*
X16591423Y-7191423D01*
X16591423Y-10991423D02*
X16591423Y-10708577D01*
X16308577Y-10708577D01*
X16308577Y-10991423D01*
X16591423Y-10991423D01*
X18491423Y-5291423D02*
X18491423Y-5008577D01*
X18208577Y-5008577D01*
X18208577Y-5291423D01*
X18491423Y-5291423D01*
X18491423Y-7191423D02*
X18491423Y-6908577D01*
X18208577Y-6908577D01*
X18208577Y-7191423D01*
X18491423Y-7191423D01*
X18491423Y-9091423D02*
X18491423Y-8808577D01*
X18208577Y-8808577D01*
X18208577Y-9091423D01*
X18491423Y-9091423D01*
X18491423Y-10991423D02*
X18491423Y-10708577D01*
X18208577Y-10708577D01*
X18208577Y-10991423D01*
X18491423Y-10991423D01*
X20391423Y-5291423D02*
X20391423Y-5008577D01*
X20108577Y-5008577D01*
X20108577Y-5291423D01*
X20391423Y-5291423D01*
X20391423Y-7191423D02*
X20391423Y-6908577D01*
X20108577Y-6908577D01*
X20108577Y-7191423D01*
X20391423Y-7191423D01*
X20391423Y-10991423D02*
X20391423Y-10708577D01*
X20108577Y-10708577D01*
X20108577Y-10991423D01*
X20391423Y-10991423D01*
D11*
X4252619Y-12215476D02*
X4252619Y-12015476D01*
X4300238Y-12015476D01*
X4328810Y-12025000D01*
X4347857Y-12044048D01*
X4357381Y-12063095D01*
X4366905Y-12101190D01*
X4366905Y-12129762D01*
X4357381Y-12167857D01*
X4347857Y-12186905D01*
X4328810Y-12205952D01*
X4300238Y-12215476D01*
X4252619Y-12215476D01*
X4452619Y-12215476D02*
X4452619Y-12082143D01*
X4452619Y-12120238D02*
X4462143Y-12101190D01*
X4471667Y-12091667D01*
X4490714Y-12082143D01*
X4509762Y-12082143D01*
X4576429Y-12215476D02*
X4576429Y-12082143D01*
X4576429Y-12015476D02*
X4566905Y-12025000D01*
X4576429Y-12034524D01*
X4585952Y-12025000D01*
X4576429Y-12015476D01*
X4576429Y-12034524D01*
X4700238Y-12215476D02*
X4681190Y-12205952D01*
X4671667Y-12186905D01*
X4671667Y-12015476D01*
X4805000Y-12215476D02*
X4785952Y-12205952D01*
X4776429Y-12186905D01*
X4776429Y-12015476D01*
X5033571Y-12215476D02*
X5033571Y-12015476D01*
X5100238Y-12158333D01*
X5166905Y-12015476D01*
X5166905Y-12215476D01*
X5347857Y-12215476D02*
X5347857Y-12110714D01*
X5338333Y-12091667D01*
X5319286Y-12082143D01*
X5281190Y-12082143D01*
X5262143Y-12091667D01*
X5347857Y-12205952D02*
X5328810Y-12215476D01*
X5281190Y-12215476D01*
X5262143Y-12205952D01*
X5252619Y-12186905D01*
X5252619Y-12167857D01*
X5262143Y-12148809D01*
X5281190Y-12139286D01*
X5328810Y-12139286D01*
X5347857Y-12129762D01*
X5443095Y-12082143D02*
X5443095Y-12282143D01*
X5443095Y-12091667D02*
X5462143Y-12082143D01*
X5500238Y-12082143D01*
X5519286Y-12091667D01*
X5528810Y-12101190D01*
X5538333Y-12120238D01*
X5538333Y-12177381D01*
X5528810Y-12196428D01*
X5519286Y-12205952D01*
X5500238Y-12215476D01*
X5462143Y-12215476D01*
X5443095Y-12205952D01*
X5624048Y-12196428D02*
X5633571Y-12205952D01*
X5624048Y-12215476D01*
X5614524Y-12205952D01*
X5624048Y-12196428D01*
X5624048Y-12215476D01*
X5624048Y-12091667D02*
X5633571Y-12101190D01*
X5624048Y-12110714D01*
X5614524Y-12101190D01*
X5624048Y-12091667D01*
X5624048Y-12110714D01*
D12*
X3905000Y-12500000D02*
X3995000Y-12590000D01*
X3995000Y-12500000D02*
X3905000Y-12590000D01*
D11*
X4290714Y-12435476D02*
X4309762Y-12435476D01*
X4328810Y-12445000D01*
X4338333Y-12454524D01*
X4347857Y-12473571D01*
X4357381Y-12511667D01*
X4357381Y-12559286D01*
X4347857Y-12597381D01*
X4338333Y-12616428D01*
X4328810Y-12625952D01*
X4309762Y-12635476D01*
X4290714Y-12635476D01*
X4271667Y-12625952D01*
X4262143Y-12616428D01*
X4252619Y-12597381D01*
X4243095Y-12559286D01*
X4243095Y-12511667D01*
X4252619Y-12473571D01*
X4262143Y-12454524D01*
X4271667Y-12445000D01*
X4290714Y-12435476D01*
X4443095Y-12616428D02*
X4452619Y-12625952D01*
X4443095Y-12635476D01*
X4433571Y-12625952D01*
X4443095Y-12616428D01*
X4443095Y-12635476D01*
X4547857Y-12635476D02*
X4585952Y-12635476D01*
X4605000Y-12625952D01*
X4614524Y-12616428D01*
X4633571Y-12587857D01*
X4643095Y-12549762D01*
X4643095Y-12473571D01*
X4633571Y-12454524D01*
X4624048Y-12445000D01*
X4605000Y-12435476D01*
X4566905Y-12435476D01*
X4547857Y-12445000D01*
X4538333Y-12454524D01*
X4528810Y-12473571D01*
X4528810Y-12521190D01*
X4538333Y-12540238D01*
X4547857Y-12549762D01*
X4566905Y-12559286D01*
X4605000Y-12559286D01*
X4624048Y-12549762D01*
X4633571Y-12540238D01*
X4643095Y-12521190D01*
X4766905Y-12435476D02*
X4785952Y-12435476D01*
X4805000Y-12445000D01*
X4814524Y-12454524D01*
X4824048Y-12473571D01*
X4833571Y-12511667D01*
X4833571Y-12559286D01*
X4824048Y-12597381D01*
X4814524Y-12616428D01*
X4805000Y-12625952D01*
X4785952Y-12635476D01*
X4766905Y-12635476D01*
X4747857Y-12625952D01*
X4738333Y-12616428D01*
X4728810Y-12597381D01*
X4719286Y-12559286D01*
X4719286Y-12511667D01*
X4728810Y-12473571D01*
X4738333Y-12454524D01*
X4747857Y-12445000D01*
X4766905Y-12435476D01*
X4957381Y-12435476D02*
X4976429Y-12435476D01*
X4995476Y-12445000D01*
X5005000Y-12454524D01*
X5014524Y-12473571D01*
X5024048Y-12511667D01*
X5024048Y-12559286D01*
X5014524Y-12597381D01*
X5005000Y-12616428D01*
X4995476Y-12625952D01*
X4976429Y-12635476D01*
X4957381Y-12635476D01*
X4938333Y-12625952D01*
X4928810Y-12616428D01*
X4919286Y-12597381D01*
X4909762Y-12559286D01*
X4909762Y-12511667D01*
X4919286Y-12473571D01*
X4928810Y-12454524D01*
X4938333Y-12445000D01*
X4957381Y-12435476D01*
X5109762Y-12635476D02*
X5109762Y-12502143D01*
X5109762Y-12521190D02*
X5119286Y-12511667D01*
X5138333Y-12502143D01*
X5166905Y-12502143D01*
X5185952Y-12511667D01*
X5195476Y-12530714D01*
X5195476Y-12635476D01*
X5195476Y-12530714D02*
X5205000Y-12511667D01*
X5224048Y-12502143D01*
X5252619Y-12502143D01*
X5271667Y-12511667D01*
X5281190Y-12530714D01*
X5281190Y-12635476D01*
X5376429Y-12635476D02*
X5376429Y-12502143D01*
X5376429Y-12521190D02*
X5385952Y-12511667D01*
X5405000Y-12502143D01*
X5433571Y-12502143D01*
X5452619Y-12511667D01*
X5462143Y-12530714D01*
X5462143Y-12635476D01*
X5462143Y-12530714D02*
X5471667Y-12511667D01*
X5490714Y-12502143D01*
X5519286Y-12502143D01*
X5538333Y-12511667D01*
X5547857Y-12530714D01*
X5547857Y-12635476D01*
X5938333Y-12425952D02*
X5766905Y-12683095D01*
X6195476Y-12435476D02*
X6214524Y-12435476D01*
X6233571Y-12445000D01*
X6243095Y-12454524D01*
X6252619Y-12473571D01*
X6262143Y-12511667D01*
X6262143Y-12559286D01*
X6252619Y-12597381D01*
X6243095Y-12616428D01*
X6233571Y-12625952D01*
X6214524Y-12635476D01*
X6195476Y-12635476D01*
X6176428Y-12625952D01*
X6166905Y-12616428D01*
X6157381Y-12597381D01*
X6147857Y-12559286D01*
X6147857Y-12511667D01*
X6157381Y-12473571D01*
X6166905Y-12454524D01*
X6176428Y-12445000D01*
X6195476Y-12435476D01*
X6347857Y-12616428D02*
X6357381Y-12625952D01*
X6347857Y-12635476D01*
X6338333Y-12625952D01*
X6347857Y-12616428D01*
X6347857Y-12635476D01*
X6481190Y-12435476D02*
X6500238Y-12435476D01*
X6519286Y-12445000D01*
X6528809Y-12454524D01*
X6538333Y-12473571D01*
X6547857Y-12511667D01*
X6547857Y-12559286D01*
X6538333Y-12597381D01*
X6528809Y-12616428D01*
X6519286Y-12625952D01*
X6500238Y-12635476D01*
X6481190Y-12635476D01*
X6462143Y-12625952D01*
X6452619Y-12616428D01*
X6443095Y-12597381D01*
X6433571Y-12559286D01*
X6433571Y-12511667D01*
X6443095Y-12473571D01*
X6452619Y-12454524D01*
X6462143Y-12445000D01*
X6481190Y-12435476D01*
X6614524Y-12435476D02*
X6738333Y-12435476D01*
X6671667Y-12511667D01*
X6700238Y-12511667D01*
X6719286Y-12521190D01*
X6728809Y-12530714D01*
X6738333Y-12549762D01*
X6738333Y-12597381D01*
X6728809Y-12616428D01*
X6719286Y-12625952D01*
X6700238Y-12635476D01*
X6643095Y-12635476D01*
X6624048Y-12625952D01*
X6614524Y-12616428D01*
X6919286Y-12435476D02*
X6824048Y-12435476D01*
X6814524Y-12530714D01*
X6824048Y-12521190D01*
X6843095Y-12511667D01*
X6890714Y-12511667D01*
X6909762Y-12521190D01*
X6919286Y-12530714D01*
X6928809Y-12549762D01*
X6928809Y-12597381D01*
X6919286Y-12616428D01*
X6909762Y-12625952D01*
X6890714Y-12635476D01*
X6843095Y-12635476D01*
X6824048Y-12625952D01*
X6814524Y-12616428D01*
X7100238Y-12502143D02*
X7100238Y-12635476D01*
X7052619Y-12425952D02*
X7005000Y-12568809D01*
X7128809Y-12568809D01*
X7195476Y-12435476D02*
X7195476Y-12473571D01*
X7271667Y-12435476D02*
X7271667Y-12473571D01*
X7566905Y-12711667D02*
X7557381Y-12702143D01*
X7538333Y-12673571D01*
X7528809Y-12654524D01*
X7519286Y-12625952D01*
X7509762Y-12578333D01*
X7509762Y-12540238D01*
X7519286Y-12492619D01*
X7528809Y-12464048D01*
X7538333Y-12445000D01*
X7557381Y-12416428D01*
X7566905Y-12406905D01*
X7633571Y-12454524D02*
X7643095Y-12445000D01*
X7662143Y-12435476D01*
X7709762Y-12435476D01*
X7728809Y-12445000D01*
X7738333Y-12454524D01*
X7747857Y-12473571D01*
X7747857Y-12492619D01*
X7738333Y-12521190D01*
X7624048Y-12635476D01*
X7747857Y-12635476D01*
X7985952Y-12635476D02*
X7985952Y-12435476D01*
X8071667Y-12635476D02*
X8071667Y-12530714D01*
X8062143Y-12511667D01*
X8043095Y-12502143D01*
X8014524Y-12502143D01*
X7995476Y-12511667D01*
X7985952Y-12521190D01*
X8195476Y-12635476D02*
X8176428Y-12625952D01*
X8166905Y-12616428D01*
X8157381Y-12597381D01*
X8157381Y-12540238D01*
X8166905Y-12521190D01*
X8176428Y-12511667D01*
X8195476Y-12502143D01*
X8224048Y-12502143D01*
X8243095Y-12511667D01*
X8252619Y-12521190D01*
X8262143Y-12540238D01*
X8262143Y-12597381D01*
X8252619Y-12616428D01*
X8243095Y-12625952D01*
X8224048Y-12635476D01*
X8195476Y-12635476D01*
X8376428Y-12635476D02*
X8357381Y-12625952D01*
X8347857Y-12606905D01*
X8347857Y-12435476D01*
X8528810Y-12625952D02*
X8509762Y-12635476D01*
X8471667Y-12635476D01*
X8452619Y-12625952D01*
X8443095Y-12606905D01*
X8443095Y-12530714D01*
X8452619Y-12511667D01*
X8471667Y-12502143D01*
X8509762Y-12502143D01*
X8528810Y-12511667D01*
X8538333Y-12530714D01*
X8538333Y-12549762D01*
X8443095Y-12568809D01*
X8614524Y-12625952D02*
X8633571Y-12635476D01*
X8671667Y-12635476D01*
X8690714Y-12625952D01*
X8700238Y-12606905D01*
X8700238Y-12597381D01*
X8690714Y-12578333D01*
X8671667Y-12568809D01*
X8643095Y-12568809D01*
X8624048Y-12559286D01*
X8614524Y-12540238D01*
X8614524Y-12530714D01*
X8624048Y-12511667D01*
X8643095Y-12502143D01*
X8671667Y-12502143D01*
X8690714Y-12511667D01*
X8766905Y-12711667D02*
X8776429Y-12702143D01*
X8795476Y-12673571D01*
X8805000Y-12654524D01*
X8814524Y-12625952D01*
X8824048Y-12578333D01*
X8824048Y-12540238D01*
X8814524Y-12492619D01*
X8805000Y-12464048D01*
X8795476Y-12445000D01*
X8776429Y-12416428D01*
X8766905Y-12406905D01*
X9128810Y-12711667D02*
X9119286Y-12702143D01*
X9100238Y-12673571D01*
X9090714Y-12654524D01*
X9081190Y-12625952D01*
X9071667Y-12578333D01*
X9071667Y-12540238D01*
X9081190Y-12492619D01*
X9090714Y-12464048D01*
X9100238Y-12445000D01*
X9119286Y-12416428D01*
X9128810Y-12406905D01*
X9205000Y-12502143D02*
X9205000Y-12635476D01*
X9205000Y-12521190D02*
X9214524Y-12511667D01*
X9233571Y-12502143D01*
X9262143Y-12502143D01*
X9281190Y-12511667D01*
X9290714Y-12530714D01*
X9290714Y-12635476D01*
X9414524Y-12635476D02*
X9395476Y-12625952D01*
X9385952Y-12616428D01*
X9376429Y-12597381D01*
X9376429Y-12540238D01*
X9385952Y-12521190D01*
X9395476Y-12511667D01*
X9414524Y-12502143D01*
X9443095Y-12502143D01*
X9462143Y-12511667D01*
X9471667Y-12521190D01*
X9481190Y-12540238D01*
X9481190Y-12597381D01*
X9471667Y-12616428D01*
X9462143Y-12625952D01*
X9443095Y-12635476D01*
X9414524Y-12635476D01*
X9538333Y-12502143D02*
X9614524Y-12502143D01*
X9566905Y-12435476D02*
X9566905Y-12606905D01*
X9576429Y-12625952D01*
X9595476Y-12635476D01*
X9614524Y-12635476D01*
X9833571Y-12502143D02*
X9833571Y-12702143D01*
X9833571Y-12511667D02*
X9852619Y-12502143D01*
X9890714Y-12502143D01*
X9909762Y-12511667D01*
X9919286Y-12521190D01*
X9928810Y-12540238D01*
X9928810Y-12597381D01*
X9919286Y-12616428D01*
X9909762Y-12625952D01*
X9890714Y-12635476D01*
X9852619Y-12635476D01*
X9833571Y-12625952D01*
X10043095Y-12635476D02*
X10024048Y-12625952D01*
X10014524Y-12606905D01*
X10014524Y-12435476D01*
X10205000Y-12635476D02*
X10205000Y-12530714D01*
X10195476Y-12511667D01*
X10176429Y-12502143D01*
X10138333Y-12502143D01*
X10119286Y-12511667D01*
X10205000Y-12625952D02*
X10185952Y-12635476D01*
X10138333Y-12635476D01*
X10119286Y-12625952D01*
X10109762Y-12606905D01*
X10109762Y-12587857D01*
X10119286Y-12568809D01*
X10138333Y-12559286D01*
X10185952Y-12559286D01*
X10205000Y-12549762D01*
X10271667Y-12502143D02*
X10347857Y-12502143D01*
X10300238Y-12435476D02*
X10300238Y-12606905D01*
X10309762Y-12625952D01*
X10328810Y-12635476D01*
X10347857Y-12635476D01*
X10490714Y-12625952D02*
X10471667Y-12635476D01*
X10433571Y-12635476D01*
X10414524Y-12625952D01*
X10405000Y-12606905D01*
X10405000Y-12530714D01*
X10414524Y-12511667D01*
X10433571Y-12502143D01*
X10471667Y-12502143D01*
X10490714Y-12511667D01*
X10500238Y-12530714D01*
X10500238Y-12549762D01*
X10405000Y-12568809D01*
X10671667Y-12635476D02*
X10671667Y-12435476D01*
X10671667Y-12625952D02*
X10652619Y-12635476D01*
X10614524Y-12635476D01*
X10595476Y-12625952D01*
X10585952Y-12616428D01*
X10576429Y-12597381D01*
X10576429Y-12540238D01*
X10585952Y-12521190D01*
X10595476Y-12511667D01*
X10614524Y-12502143D01*
X10652619Y-12502143D01*
X10671667Y-12511667D01*
X10747857Y-12711667D02*
X10757381Y-12702143D01*
X10776429Y-12673571D01*
X10785952Y-12654524D01*
X10795476Y-12625952D01*
X10805000Y-12578333D01*
X10805000Y-12540238D01*
X10795476Y-12492619D01*
X10785952Y-12464048D01*
X10776429Y-12445000D01*
X10757381Y-12416428D01*
X10747857Y-12406905D01*
D13*
X3995000Y-12809000D02*
G75*
G03*
X3995000Y-12809000I-75000J0D01*
G01*
D11*
X4357381Y-12899476D02*
X4243095Y-12899476D01*
X4300238Y-12899476D02*
X4300238Y-12699476D01*
X4281190Y-12728048D01*
X4262143Y-12747095D01*
X4243095Y-12756619D01*
X4443095Y-12880428D02*
X4452619Y-12889952D01*
X4443095Y-12899476D01*
X4433571Y-12889952D01*
X4443095Y-12880428D01*
X4443095Y-12899476D01*
X4633571Y-12699476D02*
X4538333Y-12699476D01*
X4528810Y-12794714D01*
X4538333Y-12785190D01*
X4557381Y-12775667D01*
X4605000Y-12775667D01*
X4624048Y-12785190D01*
X4633571Y-12794714D01*
X4643095Y-12813762D01*
X4643095Y-12861381D01*
X4633571Y-12880428D01*
X4624048Y-12889952D01*
X4605000Y-12899476D01*
X4557381Y-12899476D01*
X4538333Y-12889952D01*
X4528810Y-12880428D01*
X4766905Y-12699476D02*
X4785952Y-12699476D01*
X4805000Y-12709000D01*
X4814524Y-12718524D01*
X4824048Y-12737571D01*
X4833571Y-12775667D01*
X4833571Y-12823286D01*
X4824048Y-12861381D01*
X4814524Y-12880428D01*
X4805000Y-12889952D01*
X4785952Y-12899476D01*
X4766905Y-12899476D01*
X4747857Y-12889952D01*
X4738333Y-12880428D01*
X4728810Y-12861381D01*
X4719286Y-12823286D01*
X4719286Y-12775667D01*
X4728810Y-12737571D01*
X4738333Y-12718524D01*
X4747857Y-12709000D01*
X4766905Y-12699476D01*
X4957381Y-12699476D02*
X4976429Y-12699476D01*
X4995476Y-12709000D01*
X5005000Y-12718524D01*
X5014524Y-12737571D01*
X5024048Y-12775667D01*
X5024048Y-12823286D01*
X5014524Y-12861381D01*
X5005000Y-12880428D01*
X4995476Y-12889952D01*
X4976429Y-12899476D01*
X4957381Y-12899476D01*
X4938333Y-12889952D01*
X4928810Y-12880428D01*
X4919286Y-12861381D01*
X4909762Y-12823286D01*
X4909762Y-12775667D01*
X4919286Y-12737571D01*
X4928810Y-12718524D01*
X4938333Y-12709000D01*
X4957381Y-12699476D01*
X5109762Y-12899476D02*
X5109762Y-12766143D01*
X5109762Y-12785190D02*
X5119286Y-12775667D01*
X5138333Y-12766143D01*
X5166905Y-12766143D01*
X5185952Y-12775667D01*
X5195476Y-12794714D01*
X5195476Y-12899476D01*
X5195476Y-12794714D02*
X5205000Y-12775667D01*
X5224048Y-12766143D01*
X5252619Y-12766143D01*
X5271667Y-12775667D01*
X5281190Y-12794714D01*
X5281190Y-12899476D01*
X5376429Y-12899476D02*
X5376429Y-12766143D01*
X5376429Y-12785190D02*
X5385952Y-12775667D01*
X5405000Y-12766143D01*
X5433571Y-12766143D01*
X5452619Y-12775667D01*
X5462143Y-12794714D01*
X5462143Y-12899476D01*
X5462143Y-12794714D02*
X5471667Y-12775667D01*
X5490714Y-12766143D01*
X5519286Y-12766143D01*
X5538333Y-12775667D01*
X5547857Y-12794714D01*
X5547857Y-12899476D01*
X5938333Y-12689952D02*
X5766905Y-12947095D01*
X6195476Y-12699476D02*
X6214524Y-12699476D01*
X6233571Y-12709000D01*
X6243095Y-12718524D01*
X6252619Y-12737571D01*
X6262143Y-12775667D01*
X6262143Y-12823286D01*
X6252619Y-12861381D01*
X6243095Y-12880428D01*
X6233571Y-12889952D01*
X6214524Y-12899476D01*
X6195476Y-12899476D01*
X6176428Y-12889952D01*
X6166905Y-12880428D01*
X6157381Y-12861381D01*
X6147857Y-12823286D01*
X6147857Y-12775667D01*
X6157381Y-12737571D01*
X6166905Y-12718524D01*
X6176428Y-12709000D01*
X6195476Y-12699476D01*
X6347857Y-12880428D02*
X6357381Y-12889952D01*
X6347857Y-12899476D01*
X6338333Y-12889952D01*
X6347857Y-12880428D01*
X6347857Y-12899476D01*
X6481190Y-12699476D02*
X6500238Y-12699476D01*
X6519286Y-12709000D01*
X6528809Y-12718524D01*
X6538333Y-12737571D01*
X6547857Y-12775667D01*
X6547857Y-12823286D01*
X6538333Y-12861381D01*
X6528809Y-12880428D01*
X6519286Y-12889952D01*
X6500238Y-12899476D01*
X6481190Y-12899476D01*
X6462143Y-12889952D01*
X6452619Y-12880428D01*
X6443095Y-12861381D01*
X6433571Y-12823286D01*
X6433571Y-12775667D01*
X6443095Y-12737571D01*
X6452619Y-12718524D01*
X6462143Y-12709000D01*
X6481190Y-12699476D01*
X6728809Y-12699476D02*
X6633571Y-12699476D01*
X6624048Y-12794714D01*
X6633571Y-12785190D01*
X6652619Y-12775667D01*
X6700238Y-12775667D01*
X6719286Y-12785190D01*
X6728809Y-12794714D01*
X6738333Y-12813762D01*
X6738333Y-12861381D01*
X6728809Y-12880428D01*
X6719286Y-12889952D01*
X6700238Y-12899476D01*
X6652619Y-12899476D01*
X6633571Y-12889952D01*
X6624048Y-12880428D01*
X6833571Y-12899476D02*
X6871667Y-12899476D01*
X6890714Y-12889952D01*
X6900238Y-12880428D01*
X6919286Y-12851857D01*
X6928809Y-12813762D01*
X6928809Y-12737571D01*
X6919286Y-12718524D01*
X6909762Y-12709000D01*
X6890714Y-12699476D01*
X6852619Y-12699476D01*
X6833571Y-12709000D01*
X6824048Y-12718524D01*
X6814524Y-12737571D01*
X6814524Y-12785190D01*
X6824048Y-12804238D01*
X6833571Y-12813762D01*
X6852619Y-12823286D01*
X6890714Y-12823286D01*
X6909762Y-12813762D01*
X6919286Y-12804238D01*
X6928809Y-12785190D01*
X7119286Y-12899476D02*
X7005000Y-12899476D01*
X7062143Y-12899476D02*
X7062143Y-12699476D01*
X7043095Y-12728048D01*
X7024048Y-12747095D01*
X7005000Y-12756619D01*
X7195476Y-12699476D02*
X7195476Y-12737571D01*
X7271667Y-12699476D02*
X7271667Y-12737571D01*
X7566905Y-12975667D02*
X7557381Y-12966143D01*
X7538333Y-12937571D01*
X7528809Y-12918524D01*
X7519286Y-12889952D01*
X7509762Y-12842333D01*
X7509762Y-12804238D01*
X7519286Y-12756619D01*
X7528809Y-12728048D01*
X7538333Y-12709000D01*
X7557381Y-12680428D01*
X7566905Y-12670905D01*
X7681190Y-12699476D02*
X7700238Y-12699476D01*
X7719286Y-12709000D01*
X7728809Y-12718524D01*
X7738333Y-12737571D01*
X7747857Y-12775667D01*
X7747857Y-12823286D01*
X7738333Y-12861381D01*
X7728809Y-12880428D01*
X7719286Y-12889952D01*
X7700238Y-12899476D01*
X7681190Y-12899476D01*
X7662143Y-12889952D01*
X7652619Y-12880428D01*
X7643095Y-12861381D01*
X7633571Y-12823286D01*
X7633571Y-12775667D01*
X7643095Y-12737571D01*
X7652619Y-12718524D01*
X7662143Y-12709000D01*
X7681190Y-12699476D01*
X7985952Y-12899476D02*
X7985952Y-12699476D01*
X8071667Y-12899476D02*
X8071667Y-12794714D01*
X8062143Y-12775667D01*
X8043095Y-12766143D01*
X8014524Y-12766143D01*
X7995476Y-12775667D01*
X7985952Y-12785190D01*
X8195476Y-12899476D02*
X8176428Y-12889952D01*
X8166905Y-12880428D01*
X8157381Y-12861381D01*
X8157381Y-12804238D01*
X8166905Y-12785190D01*
X8176428Y-12775667D01*
X8195476Y-12766143D01*
X8224048Y-12766143D01*
X8243095Y-12775667D01*
X8252619Y-12785190D01*
X8262143Y-12804238D01*
X8262143Y-12861381D01*
X8252619Y-12880428D01*
X8243095Y-12889952D01*
X8224048Y-12899476D01*
X8195476Y-12899476D01*
X8376428Y-12899476D02*
X8357381Y-12889952D01*
X8347857Y-12870905D01*
X8347857Y-12699476D01*
X8528810Y-12889952D02*
X8509762Y-12899476D01*
X8471667Y-12899476D01*
X8452619Y-12889952D01*
X8443095Y-12870905D01*
X8443095Y-12794714D01*
X8452619Y-12775667D01*
X8471667Y-12766143D01*
X8509762Y-12766143D01*
X8528810Y-12775667D01*
X8538333Y-12794714D01*
X8538333Y-12813762D01*
X8443095Y-12832809D01*
X8614524Y-12889952D02*
X8633571Y-12899476D01*
X8671667Y-12899476D01*
X8690714Y-12889952D01*
X8700238Y-12870905D01*
X8700238Y-12861381D01*
X8690714Y-12842333D01*
X8671667Y-12832809D01*
X8643095Y-12832809D01*
X8624048Y-12823286D01*
X8614524Y-12804238D01*
X8614524Y-12794714D01*
X8624048Y-12775667D01*
X8643095Y-12766143D01*
X8671667Y-12766143D01*
X8690714Y-12775667D01*
X8938333Y-12823286D02*
X9090714Y-12823286D01*
X9014524Y-12899476D02*
X9014524Y-12747095D01*
X9424048Y-12766143D02*
X9424048Y-12899476D01*
X9376429Y-12689952D02*
X9328810Y-12832809D01*
X9452619Y-12832809D01*
X9671667Y-12889952D02*
X9690714Y-12899476D01*
X9728810Y-12899476D01*
X9747857Y-12889952D01*
X9757381Y-12870905D01*
X9757381Y-12861381D01*
X9747857Y-12842333D01*
X9728810Y-12832809D01*
X9700238Y-12832809D01*
X9681190Y-12823286D01*
X9671667Y-12804238D01*
X9671667Y-12794714D01*
X9681190Y-12775667D01*
X9700238Y-12766143D01*
X9728810Y-12766143D01*
X9747857Y-12775667D01*
X9871667Y-12899476D02*
X9852619Y-12889952D01*
X9843095Y-12870905D01*
X9843095Y-12699476D01*
X9976429Y-12899476D02*
X9957381Y-12889952D01*
X9947857Y-12880428D01*
X9938333Y-12861381D01*
X9938333Y-12804238D01*
X9947857Y-12785190D01*
X9957381Y-12775667D01*
X9976429Y-12766143D01*
X10005000Y-12766143D01*
X10024048Y-12775667D01*
X10033571Y-12785190D01*
X10043095Y-12804238D01*
X10043095Y-12861381D01*
X10033571Y-12880428D01*
X10024048Y-12889952D01*
X10005000Y-12899476D01*
X9976429Y-12899476D01*
X10100238Y-12766143D02*
X10176429Y-12766143D01*
X10128810Y-12699476D02*
X10128810Y-12870905D01*
X10138333Y-12889952D01*
X10157381Y-12899476D01*
X10176429Y-12899476D01*
X10233571Y-12889952D02*
X10252619Y-12899476D01*
X10290714Y-12899476D01*
X10309762Y-12889952D01*
X10319286Y-12870905D01*
X10319286Y-12861381D01*
X10309762Y-12842333D01*
X10290714Y-12832809D01*
X10262143Y-12832809D01*
X10243095Y-12823286D01*
X10233571Y-12804238D01*
X10233571Y-12794714D01*
X10243095Y-12775667D01*
X10262143Y-12766143D01*
X10290714Y-12766143D01*
X10309762Y-12775667D01*
X10385952Y-12975667D02*
X10395476Y-12966143D01*
X10414524Y-12937571D01*
X10424048Y-12918524D01*
X10433571Y-12889952D01*
X10443095Y-12842333D01*
X10443095Y-12804238D01*
X10433571Y-12756619D01*
X10424048Y-12728048D01*
X10414524Y-12709000D01*
X10395476Y-12680428D01*
X10385952Y-12670905D01*
X10747857Y-12975667D02*
X10738333Y-12966143D01*
X10719286Y-12937571D01*
X10709762Y-12918524D01*
X10700238Y-12889952D01*
X10690714Y-12842333D01*
X10690714Y-12804238D01*
X10700238Y-12756619D01*
X10709762Y-12728048D01*
X10719286Y-12709000D01*
X10738333Y-12680428D01*
X10747857Y-12670905D01*
X10824048Y-12766143D02*
X10824048Y-12899476D01*
X10824048Y-12785190D02*
X10833571Y-12775667D01*
X10852619Y-12766143D01*
X10881190Y-12766143D01*
X10900238Y-12775667D01*
X10909762Y-12794714D01*
X10909762Y-12899476D01*
X11033571Y-12899476D02*
X11014524Y-12889952D01*
X11005000Y-12880428D01*
X10995476Y-12861381D01*
X10995476Y-12804238D01*
X11005000Y-12785190D01*
X11014524Y-12775667D01*
X11033571Y-12766143D01*
X11062143Y-12766143D01*
X11081190Y-12775667D01*
X11090714Y-12785190D01*
X11100238Y-12804238D01*
X11100238Y-12861381D01*
X11090714Y-12880428D01*
X11081190Y-12889952D01*
X11062143Y-12899476D01*
X11033571Y-12899476D01*
X11157381Y-12766143D02*
X11233571Y-12766143D01*
X11185952Y-12699476D02*
X11185952Y-12870905D01*
X11195476Y-12889952D01*
X11214524Y-12899476D01*
X11233571Y-12899476D01*
X11452619Y-12766143D02*
X11452619Y-12966143D01*
X11452619Y-12775667D02*
X11471667Y-12766143D01*
X11509762Y-12766143D01*
X11528809Y-12775667D01*
X11538333Y-12785190D01*
X11547857Y-12804238D01*
X11547857Y-12861381D01*
X11538333Y-12880428D01*
X11528809Y-12889952D01*
X11509762Y-12899476D01*
X11471667Y-12899476D01*
X11452619Y-12889952D01*
X11662143Y-12899476D02*
X11643095Y-12889952D01*
X11633571Y-12870905D01*
X11633571Y-12699476D01*
X11824048Y-12899476D02*
X11824048Y-12794714D01*
X11814524Y-12775667D01*
X11795476Y-12766143D01*
X11757381Y-12766143D01*
X11738333Y-12775667D01*
X11824048Y-12889952D02*
X11805000Y-12899476D01*
X11757381Y-12899476D01*
X11738333Y-12889952D01*
X11728809Y-12870905D01*
X11728809Y-12851857D01*
X11738333Y-12832809D01*
X11757381Y-12823286D01*
X11805000Y-12823286D01*
X11824048Y-12813762D01*
X11890714Y-12766143D02*
X11966905Y-12766143D01*
X11919286Y-12699476D02*
X11919286Y-12870905D01*
X11928809Y-12889952D01*
X11947857Y-12899476D01*
X11966905Y-12899476D01*
X12109762Y-12889952D02*
X12090714Y-12899476D01*
X12052619Y-12899476D01*
X12033571Y-12889952D01*
X12024048Y-12870905D01*
X12024048Y-12794714D01*
X12033571Y-12775667D01*
X12052619Y-12766143D01*
X12090714Y-12766143D01*
X12109762Y-12775667D01*
X12119286Y-12794714D01*
X12119286Y-12813762D01*
X12024048Y-12832809D01*
X12290714Y-12899476D02*
X12290714Y-12699476D01*
X12290714Y-12889952D02*
X12271667Y-12899476D01*
X12233571Y-12899476D01*
X12214524Y-12889952D01*
X12205000Y-12880428D01*
X12195476Y-12861381D01*
X12195476Y-12804238D01*
X12205000Y-12785190D01*
X12214524Y-12775667D01*
X12233571Y-12766143D01*
X12271667Y-12766143D01*
X12290714Y-12775667D01*
X12366905Y-12975667D02*
X12376428Y-12966143D01*
X12395476Y-12937571D01*
X12405000Y-12918524D01*
X12414524Y-12889952D01*
X12424048Y-12842333D01*
X12424048Y-12804238D01*
X12414524Y-12756619D01*
X12405000Y-12728048D01*
X12395476Y-12709000D01*
X12376428Y-12680428D01*
X12366905Y-12670905D01*
D14*
X3910000Y-12994000D02*
X3910000Y-13164000D01*
X3825000Y-13079000D02*
X3995000Y-13079000D01*
D11*
X4357381Y-13169476D02*
X4243095Y-13169476D01*
X4300238Y-13169476D02*
X4300238Y-12969476D01*
X4281190Y-12998048D01*
X4262143Y-13017095D01*
X4243095Y-13026619D01*
X4443095Y-13150428D02*
X4452619Y-13159952D01*
X4443095Y-13169476D01*
X4433571Y-13159952D01*
X4443095Y-13150428D01*
X4443095Y-13169476D01*
X4519286Y-12969476D02*
X4652619Y-12969476D01*
X4566905Y-13169476D01*
X4766905Y-12969476D02*
X4785952Y-12969476D01*
X4805000Y-12979000D01*
X4814524Y-12988524D01*
X4824048Y-13007571D01*
X4833571Y-13045667D01*
X4833571Y-13093286D01*
X4824048Y-13131381D01*
X4814524Y-13150428D01*
X4805000Y-13159952D01*
X4785952Y-13169476D01*
X4766905Y-13169476D01*
X4747857Y-13159952D01*
X4738333Y-13150428D01*
X4728810Y-13131381D01*
X4719286Y-13093286D01*
X4719286Y-13045667D01*
X4728810Y-13007571D01*
X4738333Y-12988524D01*
X4747857Y-12979000D01*
X4766905Y-12969476D01*
X4957381Y-12969476D02*
X4976429Y-12969476D01*
X4995476Y-12979000D01*
X5005000Y-12988524D01*
X5014524Y-13007571D01*
X5024048Y-13045667D01*
X5024048Y-13093286D01*
X5014524Y-13131381D01*
X5005000Y-13150428D01*
X4995476Y-13159952D01*
X4976429Y-13169476D01*
X4957381Y-13169476D01*
X4938333Y-13159952D01*
X4928810Y-13150428D01*
X4919286Y-13131381D01*
X4909762Y-13093286D01*
X4909762Y-13045667D01*
X4919286Y-13007571D01*
X4928810Y-12988524D01*
X4938333Y-12979000D01*
X4957381Y-12969476D01*
X5109762Y-13169476D02*
X5109762Y-13036143D01*
X5109762Y-13055190D02*
X5119286Y-13045667D01*
X5138333Y-13036143D01*
X5166905Y-13036143D01*
X5185952Y-13045667D01*
X5195476Y-13064714D01*
X5195476Y-13169476D01*
X5195476Y-13064714D02*
X5205000Y-13045667D01*
X5224048Y-13036143D01*
X5252619Y-13036143D01*
X5271667Y-13045667D01*
X5281190Y-13064714D01*
X5281190Y-13169476D01*
X5376429Y-13169476D02*
X5376429Y-13036143D01*
X5376429Y-13055190D02*
X5385952Y-13045667D01*
X5405000Y-13036143D01*
X5433571Y-13036143D01*
X5452619Y-13045667D01*
X5462143Y-13064714D01*
X5462143Y-13169476D01*
X5462143Y-13064714D02*
X5471667Y-13045667D01*
X5490714Y-13036143D01*
X5519286Y-13036143D01*
X5538333Y-13045667D01*
X5547857Y-13064714D01*
X5547857Y-13169476D01*
X5938333Y-12959952D02*
X5766905Y-13217095D01*
X6195476Y-12969476D02*
X6214524Y-12969476D01*
X6233571Y-12979000D01*
X6243095Y-12988524D01*
X6252619Y-13007571D01*
X6262143Y-13045667D01*
X6262143Y-13093286D01*
X6252619Y-13131381D01*
X6243095Y-13150428D01*
X6233571Y-13159952D01*
X6214524Y-13169476D01*
X6195476Y-13169476D01*
X6176428Y-13159952D01*
X6166905Y-13150428D01*
X6157381Y-13131381D01*
X6147857Y-13093286D01*
X6147857Y-13045667D01*
X6157381Y-13007571D01*
X6166905Y-12988524D01*
X6176428Y-12979000D01*
X6195476Y-12969476D01*
X6347857Y-13150428D02*
X6357381Y-13159952D01*
X6347857Y-13169476D01*
X6338333Y-13159952D01*
X6347857Y-13150428D01*
X6347857Y-13169476D01*
X6481190Y-12969476D02*
X6500238Y-12969476D01*
X6519286Y-12979000D01*
X6528809Y-12988524D01*
X6538333Y-13007571D01*
X6547857Y-13045667D01*
X6547857Y-13093286D01*
X6538333Y-13131381D01*
X6528809Y-13150428D01*
X6519286Y-13159952D01*
X6500238Y-13169476D01*
X6481190Y-13169476D01*
X6462143Y-13159952D01*
X6452619Y-13150428D01*
X6443095Y-13131381D01*
X6433571Y-13093286D01*
X6433571Y-13045667D01*
X6443095Y-13007571D01*
X6452619Y-12988524D01*
X6462143Y-12979000D01*
X6481190Y-12969476D01*
X6719286Y-12969476D02*
X6681190Y-12969476D01*
X6662143Y-12979000D01*
X6652619Y-12988524D01*
X6633571Y-13017095D01*
X6624048Y-13055190D01*
X6624048Y-13131381D01*
X6633571Y-13150428D01*
X6643095Y-13159952D01*
X6662143Y-13169476D01*
X6700238Y-13169476D01*
X6719286Y-13159952D01*
X6728809Y-13150428D01*
X6738333Y-13131381D01*
X6738333Y-13083762D01*
X6728809Y-13064714D01*
X6719286Y-13055190D01*
X6700238Y-13045667D01*
X6662143Y-13045667D01*
X6643095Y-13055190D01*
X6633571Y-13064714D01*
X6624048Y-13083762D01*
X6909762Y-12969476D02*
X6871667Y-12969476D01*
X6852619Y-12979000D01*
X6843095Y-12988524D01*
X6824048Y-13017095D01*
X6814524Y-13055190D01*
X6814524Y-13131381D01*
X6824048Y-13150428D01*
X6833571Y-13159952D01*
X6852619Y-13169476D01*
X6890714Y-13169476D01*
X6909762Y-13159952D01*
X6919286Y-13150428D01*
X6928809Y-13131381D01*
X6928809Y-13083762D01*
X6919286Y-13064714D01*
X6909762Y-13055190D01*
X6890714Y-13045667D01*
X6852619Y-13045667D01*
X6833571Y-13055190D01*
X6824048Y-13064714D01*
X6814524Y-13083762D01*
X7024048Y-13169476D02*
X7062143Y-13169476D01*
X7081190Y-13159952D01*
X7090714Y-13150428D01*
X7109762Y-13121857D01*
X7119286Y-13083762D01*
X7119286Y-13007571D01*
X7109762Y-12988524D01*
X7100238Y-12979000D01*
X7081190Y-12969476D01*
X7043095Y-12969476D01*
X7024048Y-12979000D01*
X7014524Y-12988524D01*
X7005000Y-13007571D01*
X7005000Y-13055190D01*
X7014524Y-13074238D01*
X7024048Y-13083762D01*
X7043095Y-13093286D01*
X7081190Y-13093286D01*
X7100238Y-13083762D01*
X7109762Y-13074238D01*
X7119286Y-13055190D01*
X7195476Y-12969476D02*
X7195476Y-13007571D01*
X7271667Y-12969476D02*
X7271667Y-13007571D01*
X7566905Y-13245667D02*
X7557381Y-13236143D01*
X7538333Y-13207571D01*
X7528809Y-13188524D01*
X7519286Y-13159952D01*
X7509762Y-13112333D01*
X7509762Y-13074238D01*
X7519286Y-13026619D01*
X7528809Y-12998048D01*
X7538333Y-12979000D01*
X7557381Y-12950428D01*
X7566905Y-12940905D01*
X7738333Y-12969476D02*
X7643095Y-12969476D01*
X7633571Y-13064714D01*
X7643095Y-13055190D01*
X7662143Y-13045667D01*
X7709762Y-13045667D01*
X7728809Y-13055190D01*
X7738333Y-13064714D01*
X7747857Y-13083762D01*
X7747857Y-13131381D01*
X7738333Y-13150428D01*
X7728809Y-13159952D01*
X7709762Y-13169476D01*
X7662143Y-13169476D01*
X7643095Y-13159952D01*
X7633571Y-13150428D01*
X7919286Y-13036143D02*
X7919286Y-13169476D01*
X7871667Y-12959952D02*
X7824048Y-13102809D01*
X7947857Y-13102809D01*
X8176428Y-13169476D02*
X8176428Y-12969476D01*
X8262143Y-13169476D02*
X8262143Y-13064714D01*
X8252619Y-13045667D01*
X8233571Y-13036143D01*
X8205000Y-13036143D01*
X8185952Y-13045667D01*
X8176428Y-13055190D01*
X8385952Y-13169476D02*
X8366905Y-13159952D01*
X8357381Y-13150428D01*
X8347857Y-13131381D01*
X8347857Y-13074238D01*
X8357381Y-13055190D01*
X8366905Y-13045667D01*
X8385952Y-13036143D01*
X8414524Y-13036143D01*
X8433571Y-13045667D01*
X8443095Y-13055190D01*
X8452619Y-13074238D01*
X8452619Y-13131381D01*
X8443095Y-13150428D01*
X8433571Y-13159952D01*
X8414524Y-13169476D01*
X8385952Y-13169476D01*
X8566905Y-13169476D02*
X8547857Y-13159952D01*
X8538333Y-13140905D01*
X8538333Y-12969476D01*
X8719286Y-13159952D02*
X8700238Y-13169476D01*
X8662143Y-13169476D01*
X8643095Y-13159952D01*
X8633571Y-13140905D01*
X8633571Y-13064714D01*
X8643095Y-13045667D01*
X8662143Y-13036143D01*
X8700238Y-13036143D01*
X8719286Y-13045667D01*
X8728810Y-13064714D01*
X8728810Y-13083762D01*
X8633571Y-13102809D01*
X8805000Y-13159952D02*
X8824048Y-13169476D01*
X8862143Y-13169476D01*
X8881190Y-13159952D01*
X8890714Y-13140905D01*
X8890714Y-13131381D01*
X8881190Y-13112333D01*
X8862143Y-13102809D01*
X8833571Y-13102809D01*
X8814524Y-13093286D01*
X8805000Y-13074238D01*
X8805000Y-13064714D01*
X8814524Y-13045667D01*
X8833571Y-13036143D01*
X8862143Y-13036143D01*
X8881190Y-13045667D01*
X8957381Y-13245667D02*
X8966905Y-13236143D01*
X8985952Y-13207571D01*
X8995476Y-13188524D01*
X9005000Y-13159952D01*
X9014524Y-13112333D01*
X9014524Y-13074238D01*
X9005000Y-13026619D01*
X8995476Y-12998048D01*
X8985952Y-12979000D01*
X8966905Y-12950428D01*
X8957381Y-12940905D01*
X9319286Y-13245667D02*
X9309762Y-13236143D01*
X9290714Y-13207571D01*
X9281190Y-13188524D01*
X9271667Y-13159952D01*
X9262143Y-13112333D01*
X9262143Y-13074238D01*
X9271667Y-13026619D01*
X9281190Y-12998048D01*
X9290714Y-12979000D01*
X9309762Y-12950428D01*
X9319286Y-12940905D01*
X9395476Y-13036143D02*
X9395476Y-13169476D01*
X9395476Y-13055190D02*
X9405000Y-13045667D01*
X9424048Y-13036143D01*
X9452619Y-13036143D01*
X9471667Y-13045667D01*
X9481190Y-13064714D01*
X9481190Y-13169476D01*
X9605000Y-13169476D02*
X9585952Y-13159952D01*
X9576429Y-13150428D01*
X9566905Y-13131381D01*
X9566905Y-13074238D01*
X9576429Y-13055190D01*
X9585952Y-13045667D01*
X9605000Y-13036143D01*
X9633571Y-13036143D01*
X9652619Y-13045667D01*
X9662143Y-13055190D01*
X9671667Y-13074238D01*
X9671667Y-13131381D01*
X9662143Y-13150428D01*
X9652619Y-13159952D01*
X9633571Y-13169476D01*
X9605000Y-13169476D01*
X9728810Y-13036143D02*
X9805000Y-13036143D01*
X9757381Y-12969476D02*
X9757381Y-13140905D01*
X9766905Y-13159952D01*
X9785952Y-13169476D01*
X9805000Y-13169476D01*
X10024048Y-13036143D02*
X10024048Y-13236143D01*
X10024048Y-13045667D02*
X10043095Y-13036143D01*
X10081190Y-13036143D01*
X10100238Y-13045667D01*
X10109762Y-13055190D01*
X10119286Y-13074238D01*
X10119286Y-13131381D01*
X10109762Y-13150428D01*
X10100238Y-13159952D01*
X10081190Y-13169476D01*
X10043095Y-13169476D01*
X10024048Y-13159952D01*
X10233571Y-13169476D02*
X10214524Y-13159952D01*
X10205000Y-13140905D01*
X10205000Y-12969476D01*
X10395476Y-13169476D02*
X10395476Y-13064714D01*
X10385952Y-13045667D01*
X10366905Y-13036143D01*
X10328810Y-13036143D01*
X10309762Y-13045667D01*
X10395476Y-13159952D02*
X10376429Y-13169476D01*
X10328810Y-13169476D01*
X10309762Y-13159952D01*
X10300238Y-13140905D01*
X10300238Y-13121857D01*
X10309762Y-13102809D01*
X10328810Y-13093286D01*
X10376429Y-13093286D01*
X10395476Y-13083762D01*
X10462143Y-13036143D02*
X10538333Y-13036143D01*
X10490714Y-12969476D02*
X10490714Y-13140905D01*
X10500238Y-13159952D01*
X10519286Y-13169476D01*
X10538333Y-13169476D01*
X10681190Y-13159952D02*
X10662143Y-13169476D01*
X10624048Y-13169476D01*
X10605000Y-13159952D01*
X10595476Y-13140905D01*
X10595476Y-13064714D01*
X10605000Y-13045667D01*
X10624048Y-13036143D01*
X10662143Y-13036143D01*
X10681190Y-13045667D01*
X10690714Y-13064714D01*
X10690714Y-13083762D01*
X10595476Y-13102809D01*
X10862143Y-13169476D02*
X10862143Y-12969476D01*
X10862143Y-13159952D02*
X10843095Y-13169476D01*
X10805000Y-13169476D01*
X10785952Y-13159952D01*
X10776429Y-13150428D01*
X10766905Y-13131381D01*
X10766905Y-13074238D01*
X10776429Y-13055190D01*
X10785952Y-13045667D01*
X10805000Y-13036143D01*
X10843095Y-13036143D01*
X10862143Y-13045667D01*
X10938333Y-13245667D02*
X10947857Y-13236143D01*
X10966905Y-13207571D01*
X10976429Y-13188524D01*
X10985952Y-13159952D01*
X10995476Y-13112333D01*
X10995476Y-13074238D01*
X10985952Y-13026619D01*
X10976429Y-12998048D01*
X10966905Y-12979000D01*
X10947857Y-12950428D01*
X10938333Y-12940905D01*
X3965711Y-13439711D02*
X3965711Y-13298289D01*
X3824289Y-13298289D01*
X3824289Y-13439711D01*
X3965711Y-13439711D01*
X4338333Y-13326143D02*
X4338333Y-13459476D01*
X4290714Y-13249952D02*
X4243095Y-13392809D01*
X4366905Y-13392809D01*
X4443095Y-13440428D02*
X4452619Y-13449952D01*
X4443095Y-13459476D01*
X4433571Y-13449952D01*
X4443095Y-13440428D01*
X4443095Y-13459476D01*
X4576429Y-13259476D02*
X4595476Y-13259476D01*
X4614524Y-13269000D01*
X4624048Y-13278524D01*
X4633571Y-13297571D01*
X4643095Y-13335667D01*
X4643095Y-13383286D01*
X4633571Y-13421381D01*
X4624048Y-13440428D01*
X4614524Y-13449952D01*
X4595476Y-13459476D01*
X4576429Y-13459476D01*
X4557381Y-13449952D01*
X4547857Y-13440428D01*
X4538333Y-13421381D01*
X4528810Y-13383286D01*
X4528810Y-13335667D01*
X4538333Y-13297571D01*
X4547857Y-13278524D01*
X4557381Y-13269000D01*
X4576429Y-13259476D01*
X4766905Y-13259476D02*
X4785952Y-13259476D01*
X4805000Y-13269000D01*
X4814524Y-13278524D01*
X4824048Y-13297571D01*
X4833571Y-13335667D01*
X4833571Y-13383286D01*
X4824048Y-13421381D01*
X4814524Y-13440428D01*
X4805000Y-13449952D01*
X4785952Y-13459476D01*
X4766905Y-13459476D01*
X4747857Y-13449952D01*
X4738333Y-13440428D01*
X4728810Y-13421381D01*
X4719286Y-13383286D01*
X4719286Y-13335667D01*
X4728810Y-13297571D01*
X4738333Y-13278524D01*
X4747857Y-13269000D01*
X4766905Y-13259476D01*
X4957381Y-13259476D02*
X4976429Y-13259476D01*
X4995476Y-13269000D01*
X5005000Y-13278524D01*
X5014524Y-13297571D01*
X5024048Y-13335667D01*
X5024048Y-13383286D01*
X5014524Y-13421381D01*
X5005000Y-13440428D01*
X4995476Y-13449952D01*
X4976429Y-13459476D01*
X4957381Y-13459476D01*
X4938333Y-13449952D01*
X4928810Y-13440428D01*
X4919286Y-13421381D01*
X4909762Y-13383286D01*
X4909762Y-13335667D01*
X4919286Y-13297571D01*
X4928810Y-13278524D01*
X4938333Y-13269000D01*
X4957381Y-13259476D01*
X5109762Y-13459476D02*
X5109762Y-13326143D01*
X5109762Y-13345190D02*
X5119286Y-13335667D01*
X5138333Y-13326143D01*
X5166905Y-13326143D01*
X5185952Y-13335667D01*
X5195476Y-13354714D01*
X5195476Y-13459476D01*
X5195476Y-13354714D02*
X5205000Y-13335667D01*
X5224048Y-13326143D01*
X5252619Y-13326143D01*
X5271667Y-13335667D01*
X5281190Y-13354714D01*
X5281190Y-13459476D01*
X5376429Y-13459476D02*
X5376429Y-13326143D01*
X5376429Y-13345190D02*
X5385952Y-13335667D01*
X5405000Y-13326143D01*
X5433571Y-13326143D01*
X5452619Y-13335667D01*
X5462143Y-13354714D01*
X5462143Y-13459476D01*
X5462143Y-13354714D02*
X5471667Y-13335667D01*
X5490714Y-13326143D01*
X5519286Y-13326143D01*
X5538333Y-13335667D01*
X5547857Y-13354714D01*
X5547857Y-13459476D01*
X5938333Y-13249952D02*
X5766905Y-13507095D01*
X6195476Y-13259476D02*
X6214524Y-13259476D01*
X6233571Y-13269000D01*
X6243095Y-13278524D01*
X6252619Y-13297571D01*
X6262143Y-13335667D01*
X6262143Y-13383286D01*
X6252619Y-13421381D01*
X6243095Y-13440428D01*
X6233571Y-13449952D01*
X6214524Y-13459476D01*
X6195476Y-13459476D01*
X6176428Y-13449952D01*
X6166905Y-13440428D01*
X6157381Y-13421381D01*
X6147857Y-13383286D01*
X6147857Y-13335667D01*
X6157381Y-13297571D01*
X6166905Y-13278524D01*
X6176428Y-13269000D01*
X6195476Y-13259476D01*
X6347857Y-13440428D02*
X6357381Y-13449952D01*
X6347857Y-13459476D01*
X6338333Y-13449952D01*
X6347857Y-13440428D01*
X6347857Y-13459476D01*
X6547857Y-13459476D02*
X6433571Y-13459476D01*
X6490714Y-13459476D02*
X6490714Y-13259476D01*
X6471667Y-13288048D01*
X6452619Y-13307095D01*
X6433571Y-13316619D01*
X6728809Y-13259476D02*
X6633571Y-13259476D01*
X6624048Y-13354714D01*
X6633571Y-13345190D01*
X6652619Y-13335667D01*
X6700238Y-13335667D01*
X6719286Y-13345190D01*
X6728809Y-13354714D01*
X6738333Y-13373762D01*
X6738333Y-13421381D01*
X6728809Y-13440428D01*
X6719286Y-13449952D01*
X6700238Y-13459476D01*
X6652619Y-13459476D01*
X6633571Y-13449952D01*
X6624048Y-13440428D01*
X6805000Y-13259476D02*
X6938333Y-13259476D01*
X6852619Y-13459476D01*
X7109762Y-13259476D02*
X7014524Y-13259476D01*
X7005000Y-13354714D01*
X7014524Y-13345190D01*
X7033571Y-13335667D01*
X7081190Y-13335667D01*
X7100238Y-13345190D01*
X7109762Y-13354714D01*
X7119286Y-13373762D01*
X7119286Y-13421381D01*
X7109762Y-13440428D01*
X7100238Y-13449952D01*
X7081190Y-13459476D01*
X7033571Y-13459476D01*
X7014524Y-13449952D01*
X7005000Y-13440428D01*
X7195476Y-13259476D02*
X7195476Y-13297571D01*
X7271667Y-13259476D02*
X7271667Y-13297571D01*
X7566905Y-13535667D02*
X7557381Y-13526143D01*
X7538333Y-13497571D01*
X7528809Y-13478524D01*
X7519286Y-13449952D01*
X7509762Y-13402333D01*
X7509762Y-13364238D01*
X7519286Y-13316619D01*
X7528809Y-13288048D01*
X7538333Y-13269000D01*
X7557381Y-13240428D01*
X7566905Y-13230905D01*
X7633571Y-13278524D02*
X7643095Y-13269000D01*
X7662143Y-13259476D01*
X7709762Y-13259476D01*
X7728809Y-13269000D01*
X7738333Y-13278524D01*
X7747857Y-13297571D01*
X7747857Y-13316619D01*
X7738333Y-13345190D01*
X7624048Y-13459476D01*
X7747857Y-13459476D01*
X7814524Y-13259476D02*
X7947857Y-13259476D01*
X7862143Y-13459476D01*
X8176428Y-13459476D02*
X8176428Y-13259476D01*
X8262143Y-13459476D02*
X8262143Y-13354714D01*
X8252619Y-13335667D01*
X8233571Y-13326143D01*
X8205000Y-13326143D01*
X8185952Y-13335667D01*
X8176428Y-13345190D01*
X8385952Y-13459476D02*
X8366905Y-13449952D01*
X8357381Y-13440428D01*
X8347857Y-13421381D01*
X8347857Y-13364238D01*
X8357381Y-13345190D01*
X8366905Y-13335667D01*
X8385952Y-13326143D01*
X8414524Y-13326143D01*
X8433571Y-13335667D01*
X8443095Y-13345190D01*
X8452619Y-13364238D01*
X8452619Y-13421381D01*
X8443095Y-13440428D01*
X8433571Y-13449952D01*
X8414524Y-13459476D01*
X8385952Y-13459476D01*
X8566905Y-13459476D02*
X8547857Y-13449952D01*
X8538333Y-13430905D01*
X8538333Y-13259476D01*
X8719286Y-13449952D02*
X8700238Y-13459476D01*
X8662143Y-13459476D01*
X8643095Y-13449952D01*
X8633571Y-13430905D01*
X8633571Y-13354714D01*
X8643095Y-13335667D01*
X8662143Y-13326143D01*
X8700238Y-13326143D01*
X8719286Y-13335667D01*
X8728810Y-13354714D01*
X8728810Y-13373762D01*
X8633571Y-13392809D01*
X8805000Y-13449952D02*
X8824048Y-13459476D01*
X8862143Y-13459476D01*
X8881190Y-13449952D01*
X8890714Y-13430905D01*
X8890714Y-13421381D01*
X8881190Y-13402333D01*
X8862143Y-13392809D01*
X8833571Y-13392809D01*
X8814524Y-13383286D01*
X8805000Y-13364238D01*
X8805000Y-13354714D01*
X8814524Y-13335667D01*
X8833571Y-13326143D01*
X8862143Y-13326143D01*
X8881190Y-13335667D01*
X8957381Y-13535667D02*
X8966905Y-13526143D01*
X8985952Y-13497571D01*
X8995476Y-13478524D01*
X9005000Y-13449952D01*
X9014524Y-13402333D01*
X9014524Y-13364238D01*
X9005000Y-13316619D01*
X8995476Y-13288048D01*
X8985952Y-13269000D01*
X8966905Y-13240428D01*
X8957381Y-13230905D01*
X9319286Y-13535667D02*
X9309762Y-13526143D01*
X9290714Y-13497571D01*
X9281190Y-13478524D01*
X9271667Y-13449952D01*
X9262143Y-13402333D01*
X9262143Y-13364238D01*
X9271667Y-13316619D01*
X9281190Y-13288048D01*
X9290714Y-13269000D01*
X9309762Y-13240428D01*
X9319286Y-13230905D01*
X9395476Y-13326143D02*
X9395476Y-13459476D01*
X9395476Y-13345190D02*
X9405000Y-13335667D01*
X9424048Y-13326143D01*
X9452619Y-13326143D01*
X9471667Y-13335667D01*
X9481190Y-13354714D01*
X9481190Y-13459476D01*
X9605000Y-13459476D02*
X9585952Y-13449952D01*
X9576429Y-13440428D01*
X9566905Y-13421381D01*
X9566905Y-13364238D01*
X9576429Y-13345190D01*
X9585952Y-13335667D01*
X9605000Y-13326143D01*
X9633571Y-13326143D01*
X9652619Y-13335667D01*
X9662143Y-13345190D01*
X9671667Y-13364238D01*
X9671667Y-13421381D01*
X9662143Y-13440428D01*
X9652619Y-13449952D01*
X9633571Y-13459476D01*
X9605000Y-13459476D01*
X9728810Y-13326143D02*
X9805000Y-13326143D01*
X9757381Y-13259476D02*
X9757381Y-13430905D01*
X9766905Y-13449952D01*
X9785952Y-13459476D01*
X9805000Y-13459476D01*
X10024048Y-13326143D02*
X10024048Y-13526143D01*
X10024048Y-13335667D02*
X10043095Y-13326143D01*
X10081190Y-13326143D01*
X10100238Y-13335667D01*
X10109762Y-13345190D01*
X10119286Y-13364238D01*
X10119286Y-13421381D01*
X10109762Y-13440428D01*
X10100238Y-13449952D01*
X10081190Y-13459476D01*
X10043095Y-13459476D01*
X10024048Y-13449952D01*
X10233571Y-13459476D02*
X10214524Y-13449952D01*
X10205000Y-13430905D01*
X10205000Y-13259476D01*
X10395476Y-13459476D02*
X10395476Y-13354714D01*
X10385952Y-13335667D01*
X10366905Y-13326143D01*
X10328810Y-13326143D01*
X10309762Y-13335667D01*
X10395476Y-13449952D02*
X10376429Y-13459476D01*
X10328810Y-13459476D01*
X10309762Y-13449952D01*
X10300238Y-13430905D01*
X10300238Y-13411857D01*
X10309762Y-13392809D01*
X10328810Y-13383286D01*
X10376429Y-13383286D01*
X10395476Y-13373762D01*
X10462143Y-13326143D02*
X10538333Y-13326143D01*
X10490714Y-13259476D02*
X10490714Y-13430905D01*
X10500238Y-13449952D01*
X10519286Y-13459476D01*
X10538333Y-13459476D01*
X10681190Y-13449952D02*
X10662143Y-13459476D01*
X10624048Y-13459476D01*
X10605000Y-13449952D01*
X10595476Y-13430905D01*
X10595476Y-13354714D01*
X10605000Y-13335667D01*
X10624048Y-13326143D01*
X10662143Y-13326143D01*
X10681190Y-13335667D01*
X10690714Y-13354714D01*
X10690714Y-13373762D01*
X10595476Y-13392809D01*
X10862143Y-13459476D02*
X10862143Y-13259476D01*
X10862143Y-13449952D02*
X10843095Y-13459476D01*
X10805000Y-13459476D01*
X10785952Y-13449952D01*
X10776429Y-13440428D01*
X10766905Y-13421381D01*
X10766905Y-13364238D01*
X10776429Y-13345190D01*
X10785952Y-13335667D01*
X10805000Y-13326143D01*
X10843095Y-13326143D01*
X10862143Y-13335667D01*
X10938333Y-13535667D02*
X10947857Y-13526143D01*
X10966905Y-13497571D01*
X10976429Y-13478524D01*
X10985952Y-13449952D01*
X10995476Y-13402333D01*
X10995476Y-13364238D01*
X10985952Y-13316619D01*
X10976429Y-13288048D01*
X10966905Y-13269000D01*
X10947857Y-13240428D01*
X10938333Y-13230905D01*
M02*
