%TF.GenerationSoftware,KiCad,Pcbnew,(6.0.7-1)-1*%
%TF.CreationDate,2022-09-14T08:57:57+02:00*%
%TF.ProjectId,yts-pcb,7974732d-7063-4622-9e6b-696361645f70,rev?*%
%TF.SameCoordinates,Original*%
%TF.FileFunction,Drillmap*%
%TF.FilePolarity,Positive*%
%FSLAX45Y45*%
G04 Gerber Fmt 4.5, Leading zero omitted, Abs format (unit mm)*
G04 Created by KiCad (PCBNEW (6.0.7-1)-1) date 2022-09-14 08:57:57*
%MOMM*%
%LPD*%
G01*
G04 APERTURE LIST*
%ADD10C,0.100000*%
%ADD11C,0.200000*%
%ADD12C,0.040000*%
%ADD13C,0.109220*%
%ADD14C,0.150000*%
G04 APERTURE END LIST*
D10*
X4000000Y-4100000D02*
X25000000Y-4100000D01*
X25000000Y-4100000D02*
X25000000Y-11900000D01*
X25000000Y-11900000D02*
X4000000Y-11900000D01*
X4000000Y-11900000D02*
X4000000Y-4100000D01*
D11*
D12*
X12130000Y-8380000D02*
X12170000Y-8420000D01*
X12170000Y-8380000D02*
X12130000Y-8420000D01*
X12130000Y-9280000D02*
X12170000Y-9320000D01*
X12170000Y-9280000D02*
X12130000Y-9320000D01*
X12830000Y-4880000D02*
X12870000Y-4920000D01*
X12870000Y-4880000D02*
X12830000Y-4920000D01*
X13180000Y-6680000D02*
X13220000Y-6720000D01*
X13220000Y-6680000D02*
X13180000Y-6720000D01*
X13480000Y-7380000D02*
X13520000Y-7420000D01*
X13520000Y-7380000D02*
X13480000Y-7420000D01*
X14300000Y-4650000D02*
X14340000Y-4690000D01*
X14340000Y-4650000D02*
X14300000Y-4690000D01*
X14750000Y-4650000D02*
X14790000Y-4690000D01*
X14790000Y-4650000D02*
X14750000Y-4690000D01*
X15480000Y-7580000D02*
X15520000Y-7620000D01*
X15520000Y-7580000D02*
X15480000Y-7620000D01*
X15730000Y-6080000D02*
X15770000Y-6120000D01*
X15770000Y-6080000D02*
X15730000Y-6120000D01*
X16230000Y-8180000D02*
X16270000Y-8220000D01*
X16270000Y-8180000D02*
X16230000Y-8220000D01*
X20930000Y-8157550D02*
X20970000Y-8197550D01*
X20970000Y-8157550D02*
X20930000Y-8197550D01*
X21180000Y-5880000D02*
X21220000Y-5920000D01*
X21220000Y-5880000D02*
X21180000Y-5920000D01*
X21180000Y-6080000D02*
X21220000Y-6120000D01*
X21220000Y-6080000D02*
X21180000Y-6120000D01*
X21730000Y-5880000D02*
X21770000Y-5920000D01*
X21770000Y-5880000D02*
X21730000Y-5920000D01*
D10*
X6050000Y-4750000D02*
G75*
G03*
X6050000Y-4750000I-50000J0D01*
G01*
X6050000Y-5530000D02*
G75*
G03*
X6050000Y-5530000I-50000J0D01*
G01*
X6050000Y-6670000D02*
G75*
G03*
X6050000Y-6670000I-50000J0D01*
G01*
X6050000Y-7450000D02*
G75*
G03*
X6050000Y-7450000I-50000J0D01*
G01*
X6050000Y-8560000D02*
G75*
G03*
X6050000Y-8560000I-50000J0D01*
G01*
X6050000Y-9340000D02*
G75*
G03*
X6050000Y-9340000I-50000J0D01*
G01*
X6050000Y-10460000D02*
G75*
G03*
X6050000Y-10460000I-50000J0D01*
G01*
X6050000Y-11240000D02*
G75*
G03*
X6050000Y-11240000I-50000J0D01*
G01*
X7950000Y-4750000D02*
G75*
G03*
X7950000Y-4750000I-50000J0D01*
G01*
X7950000Y-5530000D02*
G75*
G03*
X7950000Y-5530000I-50000J0D01*
G01*
X7950000Y-6660000D02*
G75*
G03*
X7950000Y-6660000I-50000J0D01*
G01*
X7950000Y-7440000D02*
G75*
G03*
X7950000Y-7440000I-50000J0D01*
G01*
X7950000Y-8560000D02*
G75*
G03*
X7950000Y-8560000I-50000J0D01*
G01*
X7950000Y-9340000D02*
G75*
G03*
X7950000Y-9340000I-50000J0D01*
G01*
X7950000Y-10460000D02*
G75*
G03*
X7950000Y-10460000I-50000J0D01*
G01*
X7950000Y-11240000D02*
G75*
G03*
X7950000Y-11240000I-50000J0D01*
G01*
X9850000Y-4710000D02*
G75*
G03*
X9850000Y-4710000I-50000J0D01*
G01*
X9850000Y-5490000D02*
G75*
G03*
X9850000Y-5490000I-50000J0D01*
G01*
X9850000Y-6660000D02*
G75*
G03*
X9850000Y-6660000I-50000J0D01*
G01*
X9850000Y-7440000D02*
G75*
G03*
X9850000Y-7440000I-50000J0D01*
G01*
X9850000Y-8560000D02*
G75*
G03*
X9850000Y-8560000I-50000J0D01*
G01*
X9850000Y-9340000D02*
G75*
G03*
X9850000Y-9340000I-50000J0D01*
G01*
X9850000Y-10460000D02*
G75*
G03*
X9850000Y-10460000I-50000J0D01*
G01*
X9850000Y-11240000D02*
G75*
G03*
X9850000Y-11240000I-50000J0D01*
G01*
X11750000Y-4710000D02*
G75*
G03*
X11750000Y-4710000I-50000J0D01*
G01*
X11750000Y-5490000D02*
G75*
G03*
X11750000Y-5490000I-50000J0D01*
G01*
X11750000Y-6660000D02*
G75*
G03*
X11750000Y-6660000I-50000J0D01*
G01*
X11750000Y-7440000D02*
G75*
G03*
X11750000Y-7440000I-50000J0D01*
G01*
X11750000Y-8560000D02*
G75*
G03*
X11750000Y-8560000I-50000J0D01*
G01*
X11750000Y-9340000D02*
G75*
G03*
X11750000Y-9340000I-50000J0D01*
G01*
X11750000Y-10460000D02*
G75*
G03*
X11750000Y-10460000I-50000J0D01*
G01*
X11750000Y-11240000D02*
G75*
G03*
X11750000Y-11240000I-50000J0D01*
G01*
X14600000Y-10460000D02*
G75*
G03*
X14600000Y-10460000I-50000J0D01*
G01*
X14600000Y-11240000D02*
G75*
G03*
X14600000Y-11240000I-50000J0D01*
G01*
X17450000Y-4710000D02*
G75*
G03*
X17450000Y-4710000I-50000J0D01*
G01*
X17450000Y-5490000D02*
G75*
G03*
X17450000Y-5490000I-50000J0D01*
G01*
X17450000Y-6660000D02*
G75*
G03*
X17450000Y-6660000I-50000J0D01*
G01*
X17450000Y-7440000D02*
G75*
G03*
X17450000Y-7440000I-50000J0D01*
G01*
X17450000Y-10460000D02*
G75*
G03*
X17450000Y-10460000I-50000J0D01*
G01*
X17450000Y-11240000D02*
G75*
G03*
X17450000Y-11240000I-50000J0D01*
G01*
X19350000Y-4710000D02*
G75*
G03*
X19350000Y-4710000I-50000J0D01*
G01*
X19350000Y-5490000D02*
G75*
G03*
X19350000Y-5490000I-50000J0D01*
G01*
X19350000Y-6660000D02*
G75*
G03*
X19350000Y-6660000I-50000J0D01*
G01*
X19350000Y-7440000D02*
G75*
G03*
X19350000Y-7440000I-50000J0D01*
G01*
X19350000Y-8560000D02*
G75*
G03*
X19350000Y-8560000I-50000J0D01*
G01*
X19350000Y-9340000D02*
G75*
G03*
X19350000Y-9340000I-50000J0D01*
G01*
X19350000Y-10470000D02*
G75*
G03*
X19350000Y-10470000I-50000J0D01*
G01*
X19350000Y-11250000D02*
G75*
G03*
X19350000Y-11250000I-50000J0D01*
G01*
X21250000Y-4710000D02*
G75*
G03*
X21250000Y-4710000I-50000J0D01*
G01*
X21250000Y-5490000D02*
G75*
G03*
X21250000Y-5490000I-50000J0D01*
G01*
X21250000Y-6660000D02*
G75*
G03*
X21250000Y-6660000I-50000J0D01*
G01*
X21250000Y-7440000D02*
G75*
G03*
X21250000Y-7440000I-50000J0D01*
G01*
X21250000Y-10460000D02*
G75*
G03*
X21250000Y-10460000I-50000J0D01*
G01*
X21250000Y-11240000D02*
G75*
G03*
X21250000Y-11240000I-50000J0D01*
G01*
X23350000Y-4900000D02*
G75*
G03*
X23350000Y-4900000I-50000J0D01*
G01*
X23350000Y-5150000D02*
G75*
G03*
X23350000Y-5150000I-50000J0D01*
G01*
X23350000Y-5400000D02*
G75*
G03*
X23350000Y-5400000I-50000J0D01*
G01*
X23350000Y-10050000D02*
G75*
G03*
X23350000Y-10050000I-50000J0D01*
G01*
X23350000Y-10300000D02*
G75*
G03*
X23350000Y-10300000I-50000J0D01*
G01*
X23350000Y-10550000D02*
G75*
G03*
X23350000Y-10550000I-50000J0D01*
G01*
X23670000Y-6000000D02*
G75*
G03*
X23670000Y-6000000I-50000J0D01*
G01*
X23700000Y-11150000D02*
G75*
G03*
X23700000Y-11150000I-50000J0D01*
G01*
X24450000Y-6000000D02*
G75*
G03*
X24450000Y-6000000I-50000J0D01*
G01*
X24480000Y-11150000D02*
G75*
G03*
X24480000Y-11150000I-50000J0D01*
G01*
X24800000Y-4900000D02*
G75*
G03*
X24800000Y-4900000I-50000J0D01*
G01*
X24800000Y-5400000D02*
G75*
G03*
X24800000Y-5400000I-50000J0D01*
G01*
X24800000Y-10050000D02*
G75*
G03*
X24800000Y-10050000I-50000J0D01*
G01*
X24800000Y-10550000D02*
G75*
G03*
X24800000Y-10550000I-50000J0D01*
G01*
D13*
X12138000Y-4198390D02*
X12138000Y-4307610D01*
X12083390Y-4253000D02*
X12192610Y-4253000D01*
X12138000Y-4452390D02*
X12138000Y-4561610D01*
X12083390Y-4507000D02*
X12192610Y-4507000D01*
X12138000Y-4706390D02*
X12138000Y-4815610D01*
X12083390Y-4761000D02*
X12192610Y-4761000D01*
X12138000Y-4960390D02*
X12138000Y-5069610D01*
X12083390Y-5015000D02*
X12192610Y-5015000D01*
X12138000Y-5214390D02*
X12138000Y-5323610D01*
X12083390Y-5269000D02*
X12192610Y-5269000D01*
X12138000Y-5468390D02*
X12138000Y-5577610D01*
X12083390Y-5523000D02*
X12192610Y-5523000D01*
X12138000Y-5722390D02*
X12138000Y-5831610D01*
X12083390Y-5777000D02*
X12192610Y-5777000D01*
X12138000Y-5976390D02*
X12138000Y-6085610D01*
X12083390Y-6031000D02*
X12192610Y-6031000D01*
X12138000Y-6230390D02*
X12138000Y-6339610D01*
X12083390Y-6285000D02*
X12192610Y-6285000D01*
X12138000Y-6484390D02*
X12138000Y-6593610D01*
X12083390Y-6539000D02*
X12192610Y-6539000D01*
X12138000Y-6738390D02*
X12138000Y-6847610D01*
X12083390Y-6793000D02*
X12192610Y-6793000D01*
X12138000Y-6992390D02*
X12138000Y-7101610D01*
X12083390Y-7047000D02*
X12192610Y-7047000D01*
X13662000Y-4198390D02*
X13662000Y-4307610D01*
X13607390Y-4253000D02*
X13716610Y-4253000D01*
X13662000Y-4452390D02*
X13662000Y-4561610D01*
X13607390Y-4507000D02*
X13716610Y-4507000D01*
X13662000Y-4706390D02*
X13662000Y-4815610D01*
X13607390Y-4761000D02*
X13716610Y-4761000D01*
X13662000Y-4960390D02*
X13662000Y-5069610D01*
X13607390Y-5015000D02*
X13716610Y-5015000D01*
X13662000Y-5214390D02*
X13662000Y-5323610D01*
X13607390Y-5269000D02*
X13716610Y-5269000D01*
X13662000Y-5468390D02*
X13662000Y-5577610D01*
X13607390Y-5523000D02*
X13716610Y-5523000D01*
X13662000Y-5722390D02*
X13662000Y-5831610D01*
X13607390Y-5777000D02*
X13716610Y-5777000D01*
X13662000Y-5976390D02*
X13662000Y-6085610D01*
X13607390Y-6031000D02*
X13716610Y-6031000D01*
X13662000Y-6230390D02*
X13662000Y-6339610D01*
X13607390Y-6285000D02*
X13716610Y-6285000D01*
X13662000Y-6484390D02*
X13662000Y-6593610D01*
X13607390Y-6539000D02*
X13716610Y-6539000D01*
X13662000Y-6738390D02*
X13662000Y-6847610D01*
X13607390Y-6793000D02*
X13716610Y-6793000D01*
X13662000Y-6992390D02*
X13662000Y-7101610D01*
X13607390Y-7047000D02*
X13716610Y-7047000D01*
D14*
X4722034Y-4949034D02*
X4722034Y-4842967D01*
X4615967Y-4842967D01*
X4615967Y-4949034D01*
X4722034Y-4949034D01*
X4722034Y-6849033D02*
X4722034Y-6742966D01*
X4615967Y-6742966D01*
X4615967Y-6849033D01*
X4722034Y-6849033D01*
X4722034Y-8749034D02*
X4722034Y-8642967D01*
X4615967Y-8642967D01*
X4615967Y-8749034D01*
X4722034Y-8749034D01*
X4722034Y-10649034D02*
X4722034Y-10542967D01*
X4615967Y-10542967D01*
X4615967Y-10649034D01*
X4722034Y-10649034D01*
X5357034Y-4695034D02*
X5357034Y-4588967D01*
X5250967Y-4588967D01*
X5250967Y-4695034D01*
X5357034Y-4695034D01*
X5357034Y-6595033D02*
X5357034Y-6488966D01*
X5250967Y-6488966D01*
X5250967Y-6595033D01*
X5357034Y-6595033D01*
X5357034Y-8495034D02*
X5357034Y-8388967D01*
X5250967Y-8388967D01*
X5250967Y-8495034D01*
X5357034Y-8495034D01*
X5357034Y-10395034D02*
X5357034Y-10288967D01*
X5250967Y-10288967D01*
X5250967Y-10395034D01*
X5357034Y-10395034D01*
X6622033Y-4949034D02*
X6622033Y-4842967D01*
X6515966Y-4842967D01*
X6515966Y-4949034D01*
X6622033Y-4949034D01*
X6622033Y-6849033D02*
X6622033Y-6742966D01*
X6515966Y-6742966D01*
X6515966Y-6849033D01*
X6622033Y-6849033D01*
X6622033Y-8749034D02*
X6622033Y-8642967D01*
X6515966Y-8642967D01*
X6515966Y-8749034D01*
X6622033Y-8749034D01*
X6622033Y-10649034D02*
X6622033Y-10542967D01*
X6515966Y-10542967D01*
X6515966Y-10649034D01*
X6622033Y-10649034D01*
X7257033Y-4695034D02*
X7257033Y-4588967D01*
X7150966Y-4588967D01*
X7150966Y-4695034D01*
X7257033Y-4695034D01*
X7257033Y-6595033D02*
X7257033Y-6488966D01*
X7150966Y-6488966D01*
X7150966Y-6595033D01*
X7257033Y-6595033D01*
X7257033Y-8495034D02*
X7257033Y-8388967D01*
X7150966Y-8388967D01*
X7150966Y-8495034D01*
X7257033Y-8495034D01*
X7257033Y-10395034D02*
X7257033Y-10288967D01*
X7150966Y-10288967D01*
X7150966Y-10395034D01*
X7257033Y-10395034D01*
X8522034Y-4949034D02*
X8522034Y-4842967D01*
X8415967Y-4842967D01*
X8415967Y-4949034D01*
X8522034Y-4949034D01*
X8522034Y-6849033D02*
X8522034Y-6742966D01*
X8415967Y-6742966D01*
X8415967Y-6849033D01*
X8522034Y-6849033D01*
X8522034Y-8749034D02*
X8522034Y-8642967D01*
X8415967Y-8642967D01*
X8415967Y-8749034D01*
X8522034Y-8749034D01*
X8522034Y-10649034D02*
X8522034Y-10542967D01*
X8415967Y-10542967D01*
X8415967Y-10649034D01*
X8522034Y-10649034D01*
X9157034Y-4695034D02*
X9157034Y-4588967D01*
X9050967Y-4588967D01*
X9050967Y-4695034D01*
X9157034Y-4695034D01*
X9157034Y-6595033D02*
X9157034Y-6488966D01*
X9050967Y-6488966D01*
X9050967Y-6595033D01*
X9157034Y-6595033D01*
X9157034Y-8495034D02*
X9157034Y-8388967D01*
X9050967Y-8388967D01*
X9050967Y-8495034D01*
X9157034Y-8495034D01*
X9157034Y-10395034D02*
X9157034Y-10288967D01*
X9050967Y-10288967D01*
X9050967Y-10395034D01*
X9157034Y-10395034D01*
X10422034Y-4949034D02*
X10422034Y-4842967D01*
X10315967Y-4842967D01*
X10315967Y-4949034D01*
X10422034Y-4949034D01*
X10422034Y-6849033D02*
X10422034Y-6742966D01*
X10315967Y-6742966D01*
X10315967Y-6849033D01*
X10422034Y-6849033D01*
X10422034Y-8749034D02*
X10422034Y-8642967D01*
X10315967Y-8642967D01*
X10315967Y-8749034D01*
X10422034Y-8749034D01*
X10422034Y-10649034D02*
X10422034Y-10542967D01*
X10315967Y-10542967D01*
X10315967Y-10649034D01*
X10422034Y-10649034D01*
X11057034Y-4695034D02*
X11057034Y-4588967D01*
X10950967Y-4588967D01*
X10950967Y-4695034D01*
X11057034Y-4695034D01*
X11057034Y-6595033D02*
X11057034Y-6488966D01*
X10950967Y-6488966D01*
X10950967Y-6595033D01*
X11057034Y-6595033D01*
X11057034Y-8495034D02*
X11057034Y-8388967D01*
X10950967Y-8388967D01*
X10950967Y-8495034D01*
X11057034Y-8495034D01*
X11057034Y-10395034D02*
X11057034Y-10288967D01*
X10950967Y-10288967D01*
X10950967Y-10395034D01*
X11057034Y-10395034D01*
X13272033Y-10649034D02*
X13272033Y-10542967D01*
X13165966Y-10542967D01*
X13165966Y-10649034D01*
X13272033Y-10649034D01*
X13907033Y-10395034D02*
X13907033Y-10288967D01*
X13800966Y-10288967D01*
X13800966Y-10395034D01*
X13907033Y-10395034D01*
X16122033Y-4949034D02*
X16122033Y-4842967D01*
X16015966Y-4842967D01*
X16015966Y-4949034D01*
X16122033Y-4949034D01*
X16122033Y-6849033D02*
X16122033Y-6742966D01*
X16015966Y-6742966D01*
X16015966Y-6849033D01*
X16122033Y-6849033D01*
X16122033Y-10649034D02*
X16122033Y-10542967D01*
X16015966Y-10542967D01*
X16015966Y-10649034D01*
X16122033Y-10649034D01*
X16757033Y-4695034D02*
X16757033Y-4588967D01*
X16650966Y-4588967D01*
X16650966Y-4695034D01*
X16757033Y-4695034D01*
X16757033Y-6595033D02*
X16757033Y-6488966D01*
X16650966Y-6488966D01*
X16650966Y-6595033D01*
X16757033Y-6595033D01*
X16757033Y-10395034D02*
X16757033Y-10288967D01*
X16650966Y-10288967D01*
X16650966Y-10395034D01*
X16757033Y-10395034D01*
X18022034Y-4949034D02*
X18022034Y-4842967D01*
X17915967Y-4842967D01*
X17915967Y-4949034D01*
X18022034Y-4949034D01*
X18022034Y-6849033D02*
X18022034Y-6742966D01*
X17915967Y-6742966D01*
X17915967Y-6849033D01*
X18022034Y-6849033D01*
X18022034Y-8749034D02*
X18022034Y-8642967D01*
X17915967Y-8642967D01*
X17915967Y-8749034D01*
X18022034Y-8749034D01*
X18022034Y-10649034D02*
X18022034Y-10542967D01*
X17915967Y-10542967D01*
X17915967Y-10649034D01*
X18022034Y-10649034D01*
X18657034Y-4695034D02*
X18657034Y-4588967D01*
X18550967Y-4588967D01*
X18550967Y-4695034D01*
X18657034Y-4695034D01*
X18657034Y-6595033D02*
X18657034Y-6488966D01*
X18550967Y-6488966D01*
X18550967Y-6595033D01*
X18657034Y-6595033D01*
X18657034Y-8495034D02*
X18657034Y-8388967D01*
X18550967Y-8388967D01*
X18550967Y-8495034D01*
X18657034Y-8495034D01*
X18657034Y-10395034D02*
X18657034Y-10288967D01*
X18550967Y-10288967D01*
X18550967Y-10395034D01*
X18657034Y-10395034D01*
X19922034Y-4949034D02*
X19922034Y-4842967D01*
X19815967Y-4842967D01*
X19815967Y-4949034D01*
X19922034Y-4949034D01*
X19922034Y-6849033D02*
X19922034Y-6742966D01*
X19815967Y-6742966D01*
X19815967Y-6849033D01*
X19922034Y-6849033D01*
X19922034Y-10649034D02*
X19922034Y-10542967D01*
X19815967Y-10542967D01*
X19815967Y-10649034D01*
X19922034Y-10649034D01*
X20557034Y-4695034D02*
X20557034Y-4588967D01*
X20450967Y-4588967D01*
X20450967Y-4695034D01*
X20557034Y-4695034D01*
X20557034Y-6595033D02*
X20557034Y-6488966D01*
X20450967Y-6488966D01*
X20450967Y-6595033D01*
X20557034Y-6595033D01*
X20557034Y-10395034D02*
X20557034Y-10288967D01*
X20450967Y-10288967D01*
X20450967Y-10395034D01*
X20557034Y-10395034D01*
D11*
X4252619Y-12215476D02*
X4252619Y-12015476D01*
X4300238Y-12015476D01*
X4328810Y-12025000D01*
X4347857Y-12044048D01*
X4357381Y-12063095D01*
X4366905Y-12101190D01*
X4366905Y-12129762D01*
X4357381Y-12167857D01*
X4347857Y-12186905D01*
X4328810Y-12205952D01*
X4300238Y-12215476D01*
X4252619Y-12215476D01*
X4452619Y-12215476D02*
X4452619Y-12082143D01*
X4452619Y-12120238D02*
X4462143Y-12101190D01*
X4471667Y-12091667D01*
X4490714Y-12082143D01*
X4509762Y-12082143D01*
X4576429Y-12215476D02*
X4576429Y-12082143D01*
X4576429Y-12015476D02*
X4566905Y-12025000D01*
X4576429Y-12034524D01*
X4585952Y-12025000D01*
X4576429Y-12015476D01*
X4576429Y-12034524D01*
X4700238Y-12215476D02*
X4681190Y-12205952D01*
X4671667Y-12186905D01*
X4671667Y-12015476D01*
X4805000Y-12215476D02*
X4785952Y-12205952D01*
X4776429Y-12186905D01*
X4776429Y-12015476D01*
X5033571Y-12215476D02*
X5033571Y-12015476D01*
X5100238Y-12158333D01*
X5166905Y-12015476D01*
X5166905Y-12215476D01*
X5347857Y-12215476D02*
X5347857Y-12110714D01*
X5338333Y-12091667D01*
X5319286Y-12082143D01*
X5281190Y-12082143D01*
X5262143Y-12091667D01*
X5347857Y-12205952D02*
X5328810Y-12215476D01*
X5281190Y-12215476D01*
X5262143Y-12205952D01*
X5252619Y-12186905D01*
X5252619Y-12167857D01*
X5262143Y-12148809D01*
X5281190Y-12139286D01*
X5328810Y-12139286D01*
X5347857Y-12129762D01*
X5443095Y-12082143D02*
X5443095Y-12282143D01*
X5443095Y-12091667D02*
X5462143Y-12082143D01*
X5500238Y-12082143D01*
X5519286Y-12091667D01*
X5528810Y-12101190D01*
X5538333Y-12120238D01*
X5538333Y-12177381D01*
X5528810Y-12196428D01*
X5519286Y-12205952D01*
X5500238Y-12215476D01*
X5462143Y-12215476D01*
X5443095Y-12205952D01*
X5624048Y-12196428D02*
X5633571Y-12205952D01*
X5624048Y-12215476D01*
X5614524Y-12205952D01*
X5624048Y-12196428D01*
X5624048Y-12215476D01*
X5624048Y-12091667D02*
X5633571Y-12101190D01*
X5624048Y-12110714D01*
X5614524Y-12101190D01*
X5624048Y-12091667D01*
X5624048Y-12110714D01*
D12*
X3955000Y-12525000D02*
X3995000Y-12565000D01*
X3995000Y-12525000D02*
X3955000Y-12565000D01*
D11*
X4290714Y-12435476D02*
X4309762Y-12435476D01*
X4328810Y-12445000D01*
X4338333Y-12454524D01*
X4347857Y-12473571D01*
X4357381Y-12511667D01*
X4357381Y-12559286D01*
X4347857Y-12597381D01*
X4338333Y-12616428D01*
X4328810Y-12625952D01*
X4309762Y-12635476D01*
X4290714Y-12635476D01*
X4271667Y-12625952D01*
X4262143Y-12616428D01*
X4252619Y-12597381D01*
X4243095Y-12559286D01*
X4243095Y-12511667D01*
X4252619Y-12473571D01*
X4262143Y-12454524D01*
X4271667Y-12445000D01*
X4290714Y-12435476D01*
X4443095Y-12616428D02*
X4452619Y-12625952D01*
X4443095Y-12635476D01*
X4433571Y-12625952D01*
X4443095Y-12616428D01*
X4443095Y-12635476D01*
X4624048Y-12502143D02*
X4624048Y-12635476D01*
X4576429Y-12425952D02*
X4528810Y-12568809D01*
X4652619Y-12568809D01*
X4766905Y-12435476D02*
X4785952Y-12435476D01*
X4805000Y-12445000D01*
X4814524Y-12454524D01*
X4824048Y-12473571D01*
X4833571Y-12511667D01*
X4833571Y-12559286D01*
X4824048Y-12597381D01*
X4814524Y-12616428D01*
X4805000Y-12625952D01*
X4785952Y-12635476D01*
X4766905Y-12635476D01*
X4747857Y-12625952D01*
X4738333Y-12616428D01*
X4728810Y-12597381D01*
X4719286Y-12559286D01*
X4719286Y-12511667D01*
X4728810Y-12473571D01*
X4738333Y-12454524D01*
X4747857Y-12445000D01*
X4766905Y-12435476D01*
X4957381Y-12435476D02*
X4976429Y-12435476D01*
X4995476Y-12445000D01*
X5005000Y-12454524D01*
X5014524Y-12473571D01*
X5024048Y-12511667D01*
X5024048Y-12559286D01*
X5014524Y-12597381D01*
X5005000Y-12616428D01*
X4995476Y-12625952D01*
X4976429Y-12635476D01*
X4957381Y-12635476D01*
X4938333Y-12625952D01*
X4928810Y-12616428D01*
X4919286Y-12597381D01*
X4909762Y-12559286D01*
X4909762Y-12511667D01*
X4919286Y-12473571D01*
X4928810Y-12454524D01*
X4938333Y-12445000D01*
X4957381Y-12435476D01*
X5109762Y-12635476D02*
X5109762Y-12502143D01*
X5109762Y-12521190D02*
X5119286Y-12511667D01*
X5138333Y-12502143D01*
X5166905Y-12502143D01*
X5185952Y-12511667D01*
X5195476Y-12530714D01*
X5195476Y-12635476D01*
X5195476Y-12530714D02*
X5205000Y-12511667D01*
X5224048Y-12502143D01*
X5252619Y-12502143D01*
X5271667Y-12511667D01*
X5281190Y-12530714D01*
X5281190Y-12635476D01*
X5376429Y-12635476D02*
X5376429Y-12502143D01*
X5376429Y-12521190D02*
X5385952Y-12511667D01*
X5405000Y-12502143D01*
X5433571Y-12502143D01*
X5452619Y-12511667D01*
X5462143Y-12530714D01*
X5462143Y-12635476D01*
X5462143Y-12530714D02*
X5471667Y-12511667D01*
X5490714Y-12502143D01*
X5519286Y-12502143D01*
X5538333Y-12511667D01*
X5547857Y-12530714D01*
X5547857Y-12635476D01*
X5938333Y-12425952D02*
X5766905Y-12683095D01*
X6195476Y-12435476D02*
X6214524Y-12435476D01*
X6233571Y-12445000D01*
X6243095Y-12454524D01*
X6252619Y-12473571D01*
X6262143Y-12511667D01*
X6262143Y-12559286D01*
X6252619Y-12597381D01*
X6243095Y-12616428D01*
X6233571Y-12625952D01*
X6214524Y-12635476D01*
X6195476Y-12635476D01*
X6176428Y-12625952D01*
X6166905Y-12616428D01*
X6157381Y-12597381D01*
X6147857Y-12559286D01*
X6147857Y-12511667D01*
X6157381Y-12473571D01*
X6166905Y-12454524D01*
X6176428Y-12445000D01*
X6195476Y-12435476D01*
X6347857Y-12616428D02*
X6357381Y-12625952D01*
X6347857Y-12635476D01*
X6338333Y-12625952D01*
X6347857Y-12616428D01*
X6347857Y-12635476D01*
X6481190Y-12435476D02*
X6500238Y-12435476D01*
X6519286Y-12445000D01*
X6528809Y-12454524D01*
X6538333Y-12473571D01*
X6547857Y-12511667D01*
X6547857Y-12559286D01*
X6538333Y-12597381D01*
X6528809Y-12616428D01*
X6519286Y-12625952D01*
X6500238Y-12635476D01*
X6481190Y-12635476D01*
X6462143Y-12625952D01*
X6452619Y-12616428D01*
X6443095Y-12597381D01*
X6433571Y-12559286D01*
X6433571Y-12511667D01*
X6443095Y-12473571D01*
X6452619Y-12454524D01*
X6462143Y-12445000D01*
X6481190Y-12435476D01*
X6738333Y-12635476D02*
X6624048Y-12635476D01*
X6681190Y-12635476D02*
X6681190Y-12435476D01*
X6662143Y-12464048D01*
X6643095Y-12483095D01*
X6624048Y-12492619D01*
X6919286Y-12435476D02*
X6824048Y-12435476D01*
X6814524Y-12530714D01*
X6824048Y-12521190D01*
X6843095Y-12511667D01*
X6890714Y-12511667D01*
X6909762Y-12521190D01*
X6919286Y-12530714D01*
X6928809Y-12549762D01*
X6928809Y-12597381D01*
X6919286Y-12616428D01*
X6909762Y-12625952D01*
X6890714Y-12635476D01*
X6843095Y-12635476D01*
X6824048Y-12625952D01*
X6814524Y-12616428D01*
X6995476Y-12435476D02*
X7128809Y-12435476D01*
X7043095Y-12635476D01*
X7195476Y-12435476D02*
X7195476Y-12473571D01*
X7271667Y-12435476D02*
X7271667Y-12473571D01*
X7566905Y-12711667D02*
X7557381Y-12702143D01*
X7538333Y-12673571D01*
X7528809Y-12654524D01*
X7519286Y-12625952D01*
X7509762Y-12578333D01*
X7509762Y-12540238D01*
X7519286Y-12492619D01*
X7528809Y-12464048D01*
X7538333Y-12445000D01*
X7557381Y-12416428D01*
X7566905Y-12406905D01*
X7747857Y-12635476D02*
X7633571Y-12635476D01*
X7690714Y-12635476D02*
X7690714Y-12435476D01*
X7671667Y-12464048D01*
X7652619Y-12483095D01*
X7633571Y-12492619D01*
X7919286Y-12502143D02*
X7919286Y-12635476D01*
X7871667Y-12425952D02*
X7824048Y-12568809D01*
X7947857Y-12568809D01*
X8176428Y-12635476D02*
X8176428Y-12435476D01*
X8262143Y-12635476D02*
X8262143Y-12530714D01*
X8252619Y-12511667D01*
X8233571Y-12502143D01*
X8205000Y-12502143D01*
X8185952Y-12511667D01*
X8176428Y-12521190D01*
X8385952Y-12635476D02*
X8366905Y-12625952D01*
X8357381Y-12616428D01*
X8347857Y-12597381D01*
X8347857Y-12540238D01*
X8357381Y-12521190D01*
X8366905Y-12511667D01*
X8385952Y-12502143D01*
X8414524Y-12502143D01*
X8433571Y-12511667D01*
X8443095Y-12521190D01*
X8452619Y-12540238D01*
X8452619Y-12597381D01*
X8443095Y-12616428D01*
X8433571Y-12625952D01*
X8414524Y-12635476D01*
X8385952Y-12635476D01*
X8566905Y-12635476D02*
X8547857Y-12625952D01*
X8538333Y-12606905D01*
X8538333Y-12435476D01*
X8719286Y-12625952D02*
X8700238Y-12635476D01*
X8662143Y-12635476D01*
X8643095Y-12625952D01*
X8633571Y-12606905D01*
X8633571Y-12530714D01*
X8643095Y-12511667D01*
X8662143Y-12502143D01*
X8700238Y-12502143D01*
X8719286Y-12511667D01*
X8728810Y-12530714D01*
X8728810Y-12549762D01*
X8633571Y-12568809D01*
X8805000Y-12625952D02*
X8824048Y-12635476D01*
X8862143Y-12635476D01*
X8881190Y-12625952D01*
X8890714Y-12606905D01*
X8890714Y-12597381D01*
X8881190Y-12578333D01*
X8862143Y-12568809D01*
X8833571Y-12568809D01*
X8814524Y-12559286D01*
X8805000Y-12540238D01*
X8805000Y-12530714D01*
X8814524Y-12511667D01*
X8833571Y-12502143D01*
X8862143Y-12502143D01*
X8881190Y-12511667D01*
X8957381Y-12711667D02*
X8966905Y-12702143D01*
X8985952Y-12673571D01*
X8995476Y-12654524D01*
X9005000Y-12625952D01*
X9014524Y-12578333D01*
X9014524Y-12540238D01*
X9005000Y-12492619D01*
X8995476Y-12464048D01*
X8985952Y-12445000D01*
X8966905Y-12416428D01*
X8957381Y-12406905D01*
D10*
X3995000Y-12809000D02*
G75*
G03*
X3995000Y-12809000I-50000J0D01*
G01*
D11*
X4357381Y-12899476D02*
X4243095Y-12899476D01*
X4300238Y-12899476D02*
X4300238Y-12699476D01*
X4281190Y-12728048D01*
X4262143Y-12747095D01*
X4243095Y-12756619D01*
X4443095Y-12880428D02*
X4452619Y-12889952D01*
X4443095Y-12899476D01*
X4433571Y-12889952D01*
X4443095Y-12880428D01*
X4443095Y-12899476D01*
X4576429Y-12699476D02*
X4595476Y-12699476D01*
X4614524Y-12709000D01*
X4624048Y-12718524D01*
X4633571Y-12737571D01*
X4643095Y-12775667D01*
X4643095Y-12823286D01*
X4633571Y-12861381D01*
X4624048Y-12880428D01*
X4614524Y-12889952D01*
X4595476Y-12899476D01*
X4576429Y-12899476D01*
X4557381Y-12889952D01*
X4547857Y-12880428D01*
X4538333Y-12861381D01*
X4528810Y-12823286D01*
X4528810Y-12775667D01*
X4538333Y-12737571D01*
X4547857Y-12718524D01*
X4557381Y-12709000D01*
X4576429Y-12699476D01*
X4766905Y-12699476D02*
X4785952Y-12699476D01*
X4805000Y-12709000D01*
X4814524Y-12718524D01*
X4824048Y-12737571D01*
X4833571Y-12775667D01*
X4833571Y-12823286D01*
X4824048Y-12861381D01*
X4814524Y-12880428D01*
X4805000Y-12889952D01*
X4785952Y-12899476D01*
X4766905Y-12899476D01*
X4747857Y-12889952D01*
X4738333Y-12880428D01*
X4728810Y-12861381D01*
X4719286Y-12823286D01*
X4719286Y-12775667D01*
X4728810Y-12737571D01*
X4738333Y-12718524D01*
X4747857Y-12709000D01*
X4766905Y-12699476D01*
X4957381Y-12699476D02*
X4976429Y-12699476D01*
X4995476Y-12709000D01*
X5005000Y-12718524D01*
X5014524Y-12737571D01*
X5024048Y-12775667D01*
X5024048Y-12823286D01*
X5014524Y-12861381D01*
X5005000Y-12880428D01*
X4995476Y-12889952D01*
X4976429Y-12899476D01*
X4957381Y-12899476D01*
X4938333Y-12889952D01*
X4928810Y-12880428D01*
X4919286Y-12861381D01*
X4909762Y-12823286D01*
X4909762Y-12775667D01*
X4919286Y-12737571D01*
X4928810Y-12718524D01*
X4938333Y-12709000D01*
X4957381Y-12699476D01*
X5109762Y-12899476D02*
X5109762Y-12766143D01*
X5109762Y-12785190D02*
X5119286Y-12775667D01*
X5138333Y-12766143D01*
X5166905Y-12766143D01*
X5185952Y-12775667D01*
X5195476Y-12794714D01*
X5195476Y-12899476D01*
X5195476Y-12794714D02*
X5205000Y-12775667D01*
X5224048Y-12766143D01*
X5252619Y-12766143D01*
X5271667Y-12775667D01*
X5281190Y-12794714D01*
X5281190Y-12899476D01*
X5376429Y-12899476D02*
X5376429Y-12766143D01*
X5376429Y-12785190D02*
X5385952Y-12775667D01*
X5405000Y-12766143D01*
X5433571Y-12766143D01*
X5452619Y-12775667D01*
X5462143Y-12794714D01*
X5462143Y-12899476D01*
X5462143Y-12794714D02*
X5471667Y-12775667D01*
X5490714Y-12766143D01*
X5519286Y-12766143D01*
X5538333Y-12775667D01*
X5547857Y-12794714D01*
X5547857Y-12899476D01*
X5938333Y-12689952D02*
X5766905Y-12947095D01*
X6195476Y-12699476D02*
X6214524Y-12699476D01*
X6233571Y-12709000D01*
X6243095Y-12718524D01*
X6252619Y-12737571D01*
X6262143Y-12775667D01*
X6262143Y-12823286D01*
X6252619Y-12861381D01*
X6243095Y-12880428D01*
X6233571Y-12889952D01*
X6214524Y-12899476D01*
X6195476Y-12899476D01*
X6176428Y-12889952D01*
X6166905Y-12880428D01*
X6157381Y-12861381D01*
X6147857Y-12823286D01*
X6147857Y-12775667D01*
X6157381Y-12737571D01*
X6166905Y-12718524D01*
X6176428Y-12709000D01*
X6195476Y-12699476D01*
X6347857Y-12880428D02*
X6357381Y-12889952D01*
X6347857Y-12899476D01*
X6338333Y-12889952D01*
X6347857Y-12880428D01*
X6347857Y-12899476D01*
X6481190Y-12699476D02*
X6500238Y-12699476D01*
X6519286Y-12709000D01*
X6528809Y-12718524D01*
X6538333Y-12737571D01*
X6547857Y-12775667D01*
X6547857Y-12823286D01*
X6538333Y-12861381D01*
X6528809Y-12880428D01*
X6519286Y-12889952D01*
X6500238Y-12899476D01*
X6481190Y-12899476D01*
X6462143Y-12889952D01*
X6452619Y-12880428D01*
X6443095Y-12861381D01*
X6433571Y-12823286D01*
X6433571Y-12775667D01*
X6443095Y-12737571D01*
X6452619Y-12718524D01*
X6462143Y-12709000D01*
X6481190Y-12699476D01*
X6614524Y-12699476D02*
X6738333Y-12699476D01*
X6671667Y-12775667D01*
X6700238Y-12775667D01*
X6719286Y-12785190D01*
X6728809Y-12794714D01*
X6738333Y-12813762D01*
X6738333Y-12861381D01*
X6728809Y-12880428D01*
X6719286Y-12889952D01*
X6700238Y-12899476D01*
X6643095Y-12899476D01*
X6624048Y-12889952D01*
X6614524Y-12880428D01*
X6833571Y-12899476D02*
X6871667Y-12899476D01*
X6890714Y-12889952D01*
X6900238Y-12880428D01*
X6919286Y-12851857D01*
X6928809Y-12813762D01*
X6928809Y-12737571D01*
X6919286Y-12718524D01*
X6909762Y-12709000D01*
X6890714Y-12699476D01*
X6852619Y-12699476D01*
X6833571Y-12709000D01*
X6824048Y-12718524D01*
X6814524Y-12737571D01*
X6814524Y-12785190D01*
X6824048Y-12804238D01*
X6833571Y-12813762D01*
X6852619Y-12823286D01*
X6890714Y-12823286D01*
X6909762Y-12813762D01*
X6919286Y-12804238D01*
X6928809Y-12785190D01*
X7100238Y-12766143D02*
X7100238Y-12899476D01*
X7052619Y-12689952D02*
X7005000Y-12832809D01*
X7128809Y-12832809D01*
X7195476Y-12699476D02*
X7195476Y-12737571D01*
X7271667Y-12699476D02*
X7271667Y-12737571D01*
X7566905Y-12975667D02*
X7557381Y-12966143D01*
X7538333Y-12937571D01*
X7528809Y-12918524D01*
X7519286Y-12889952D01*
X7509762Y-12842333D01*
X7509762Y-12804238D01*
X7519286Y-12756619D01*
X7528809Y-12728048D01*
X7538333Y-12709000D01*
X7557381Y-12680428D01*
X7566905Y-12670905D01*
X7728809Y-12699476D02*
X7690714Y-12699476D01*
X7671667Y-12709000D01*
X7662143Y-12718524D01*
X7643095Y-12747095D01*
X7633571Y-12785190D01*
X7633571Y-12861381D01*
X7643095Y-12880428D01*
X7652619Y-12889952D01*
X7671667Y-12899476D01*
X7709762Y-12899476D01*
X7728809Y-12889952D01*
X7738333Y-12880428D01*
X7747857Y-12861381D01*
X7747857Y-12813762D01*
X7738333Y-12794714D01*
X7728809Y-12785190D01*
X7709762Y-12775667D01*
X7671667Y-12775667D01*
X7652619Y-12785190D01*
X7643095Y-12794714D01*
X7633571Y-12813762D01*
X7862143Y-12785190D02*
X7843095Y-12775667D01*
X7833571Y-12766143D01*
X7824048Y-12747095D01*
X7824048Y-12737571D01*
X7833571Y-12718524D01*
X7843095Y-12709000D01*
X7862143Y-12699476D01*
X7900238Y-12699476D01*
X7919286Y-12709000D01*
X7928809Y-12718524D01*
X7938333Y-12737571D01*
X7938333Y-12747095D01*
X7928809Y-12766143D01*
X7919286Y-12775667D01*
X7900238Y-12785190D01*
X7862143Y-12785190D01*
X7843095Y-12794714D01*
X7833571Y-12804238D01*
X7824048Y-12823286D01*
X7824048Y-12861381D01*
X7833571Y-12880428D01*
X7843095Y-12889952D01*
X7862143Y-12899476D01*
X7900238Y-12899476D01*
X7919286Y-12889952D01*
X7928809Y-12880428D01*
X7938333Y-12861381D01*
X7938333Y-12823286D01*
X7928809Y-12804238D01*
X7919286Y-12794714D01*
X7900238Y-12785190D01*
X8176428Y-12899476D02*
X8176428Y-12699476D01*
X8262143Y-12899476D02*
X8262143Y-12794714D01*
X8252619Y-12775667D01*
X8233571Y-12766143D01*
X8205000Y-12766143D01*
X8185952Y-12775667D01*
X8176428Y-12785190D01*
X8385952Y-12899476D02*
X8366905Y-12889952D01*
X8357381Y-12880428D01*
X8347857Y-12861381D01*
X8347857Y-12804238D01*
X8357381Y-12785190D01*
X8366905Y-12775667D01*
X8385952Y-12766143D01*
X8414524Y-12766143D01*
X8433571Y-12775667D01*
X8443095Y-12785190D01*
X8452619Y-12804238D01*
X8452619Y-12861381D01*
X8443095Y-12880428D01*
X8433571Y-12889952D01*
X8414524Y-12899476D01*
X8385952Y-12899476D01*
X8566905Y-12899476D02*
X8547857Y-12889952D01*
X8538333Y-12870905D01*
X8538333Y-12699476D01*
X8719286Y-12889952D02*
X8700238Y-12899476D01*
X8662143Y-12899476D01*
X8643095Y-12889952D01*
X8633571Y-12870905D01*
X8633571Y-12794714D01*
X8643095Y-12775667D01*
X8662143Y-12766143D01*
X8700238Y-12766143D01*
X8719286Y-12775667D01*
X8728810Y-12794714D01*
X8728810Y-12813762D01*
X8633571Y-12832809D01*
X8805000Y-12889952D02*
X8824048Y-12899476D01*
X8862143Y-12899476D01*
X8881190Y-12889952D01*
X8890714Y-12870905D01*
X8890714Y-12861381D01*
X8881190Y-12842333D01*
X8862143Y-12832809D01*
X8833571Y-12832809D01*
X8814524Y-12823286D01*
X8805000Y-12804238D01*
X8805000Y-12794714D01*
X8814524Y-12775667D01*
X8833571Y-12766143D01*
X8862143Y-12766143D01*
X8881190Y-12775667D01*
X8957381Y-12975667D02*
X8966905Y-12966143D01*
X8985952Y-12937571D01*
X8995476Y-12918524D01*
X9005000Y-12889952D01*
X9014524Y-12842333D01*
X9014524Y-12804238D01*
X9005000Y-12756619D01*
X8995476Y-12728048D01*
X8985952Y-12709000D01*
X8966905Y-12680428D01*
X8957381Y-12670905D01*
D13*
X3940390Y-13018390D02*
X3940390Y-13127610D01*
X3885780Y-13073000D02*
X3995000Y-13073000D01*
D11*
X4357381Y-13163476D02*
X4243095Y-13163476D01*
X4300238Y-13163476D02*
X4300238Y-12963476D01*
X4281190Y-12992048D01*
X4262143Y-13011095D01*
X4243095Y-13020619D01*
X4443095Y-13144428D02*
X4452619Y-13153952D01*
X4443095Y-13163476D01*
X4433571Y-13153952D01*
X4443095Y-13144428D01*
X4443095Y-13163476D01*
X4576429Y-12963476D02*
X4595476Y-12963476D01*
X4614524Y-12973000D01*
X4624048Y-12982524D01*
X4633571Y-13001571D01*
X4643095Y-13039667D01*
X4643095Y-13087286D01*
X4633571Y-13125381D01*
X4624048Y-13144428D01*
X4614524Y-13153952D01*
X4595476Y-13163476D01*
X4576429Y-13163476D01*
X4557381Y-13153952D01*
X4547857Y-13144428D01*
X4538333Y-13125381D01*
X4528810Y-13087286D01*
X4528810Y-13039667D01*
X4538333Y-13001571D01*
X4547857Y-12982524D01*
X4557381Y-12973000D01*
X4576429Y-12963476D01*
X4738333Y-13163476D02*
X4776429Y-13163476D01*
X4795476Y-13153952D01*
X4805000Y-13144428D01*
X4824048Y-13115857D01*
X4833571Y-13077762D01*
X4833571Y-13001571D01*
X4824048Y-12982524D01*
X4814524Y-12973000D01*
X4795476Y-12963476D01*
X4757381Y-12963476D01*
X4738333Y-12973000D01*
X4728810Y-12982524D01*
X4719286Y-13001571D01*
X4719286Y-13049190D01*
X4728810Y-13068238D01*
X4738333Y-13077762D01*
X4757381Y-13087286D01*
X4795476Y-13087286D01*
X4814524Y-13077762D01*
X4824048Y-13068238D01*
X4833571Y-13049190D01*
X4909762Y-12982524D02*
X4919286Y-12973000D01*
X4938333Y-12963476D01*
X4985952Y-12963476D01*
X5005000Y-12973000D01*
X5014524Y-12982524D01*
X5024048Y-13001571D01*
X5024048Y-13020619D01*
X5014524Y-13049190D01*
X4900238Y-13163476D01*
X5024048Y-13163476D01*
X5109762Y-13163476D02*
X5109762Y-13030143D01*
X5109762Y-13049190D02*
X5119286Y-13039667D01*
X5138333Y-13030143D01*
X5166905Y-13030143D01*
X5185952Y-13039667D01*
X5195476Y-13058714D01*
X5195476Y-13163476D01*
X5195476Y-13058714D02*
X5205000Y-13039667D01*
X5224048Y-13030143D01*
X5252619Y-13030143D01*
X5271667Y-13039667D01*
X5281190Y-13058714D01*
X5281190Y-13163476D01*
X5376429Y-13163476D02*
X5376429Y-13030143D01*
X5376429Y-13049190D02*
X5385952Y-13039667D01*
X5405000Y-13030143D01*
X5433571Y-13030143D01*
X5452619Y-13039667D01*
X5462143Y-13058714D01*
X5462143Y-13163476D01*
X5462143Y-13058714D02*
X5471667Y-13039667D01*
X5490714Y-13030143D01*
X5519286Y-13030143D01*
X5538333Y-13039667D01*
X5547857Y-13058714D01*
X5547857Y-13163476D01*
X5938333Y-12953952D02*
X5766905Y-13211095D01*
X6195476Y-12963476D02*
X6214524Y-12963476D01*
X6233571Y-12973000D01*
X6243095Y-12982524D01*
X6252619Y-13001571D01*
X6262143Y-13039667D01*
X6262143Y-13087286D01*
X6252619Y-13125381D01*
X6243095Y-13144428D01*
X6233571Y-13153952D01*
X6214524Y-13163476D01*
X6195476Y-13163476D01*
X6176428Y-13153952D01*
X6166905Y-13144428D01*
X6157381Y-13125381D01*
X6147857Y-13087286D01*
X6147857Y-13039667D01*
X6157381Y-13001571D01*
X6166905Y-12982524D01*
X6176428Y-12973000D01*
X6195476Y-12963476D01*
X6347857Y-13144428D02*
X6357381Y-13153952D01*
X6347857Y-13163476D01*
X6338333Y-13153952D01*
X6347857Y-13144428D01*
X6347857Y-13163476D01*
X6481190Y-12963476D02*
X6500238Y-12963476D01*
X6519286Y-12973000D01*
X6528809Y-12982524D01*
X6538333Y-13001571D01*
X6547857Y-13039667D01*
X6547857Y-13087286D01*
X6538333Y-13125381D01*
X6528809Y-13144428D01*
X6519286Y-13153952D01*
X6500238Y-13163476D01*
X6481190Y-13163476D01*
X6462143Y-13153952D01*
X6452619Y-13144428D01*
X6443095Y-13125381D01*
X6433571Y-13087286D01*
X6433571Y-13039667D01*
X6443095Y-13001571D01*
X6452619Y-12982524D01*
X6462143Y-12973000D01*
X6481190Y-12963476D01*
X6719286Y-13030143D02*
X6719286Y-13163476D01*
X6671667Y-12953952D02*
X6624048Y-13096809D01*
X6747857Y-13096809D01*
X6805000Y-12963476D02*
X6928809Y-12963476D01*
X6862143Y-13039667D01*
X6890714Y-13039667D01*
X6909762Y-13049190D01*
X6919286Y-13058714D01*
X6928809Y-13077762D01*
X6928809Y-13125381D01*
X6919286Y-13144428D01*
X6909762Y-13153952D01*
X6890714Y-13163476D01*
X6833571Y-13163476D01*
X6814524Y-13153952D01*
X6805000Y-13144428D01*
X7052619Y-12963476D02*
X7071667Y-12963476D01*
X7090714Y-12973000D01*
X7100238Y-12982524D01*
X7109762Y-13001571D01*
X7119286Y-13039667D01*
X7119286Y-13087286D01*
X7109762Y-13125381D01*
X7100238Y-13144428D01*
X7090714Y-13153952D01*
X7071667Y-13163476D01*
X7052619Y-13163476D01*
X7033571Y-13153952D01*
X7024048Y-13144428D01*
X7014524Y-13125381D01*
X7005000Y-13087286D01*
X7005000Y-13039667D01*
X7014524Y-13001571D01*
X7024048Y-12982524D01*
X7033571Y-12973000D01*
X7052619Y-12963476D01*
X7195476Y-12963476D02*
X7195476Y-13001571D01*
X7271667Y-12963476D02*
X7271667Y-13001571D01*
X7566905Y-13239667D02*
X7557381Y-13230143D01*
X7538333Y-13201571D01*
X7528809Y-13182524D01*
X7519286Y-13153952D01*
X7509762Y-13106333D01*
X7509762Y-13068238D01*
X7519286Y-13020619D01*
X7528809Y-12992048D01*
X7538333Y-12973000D01*
X7557381Y-12944428D01*
X7566905Y-12934905D01*
X7633571Y-12982524D02*
X7643095Y-12973000D01*
X7662143Y-12963476D01*
X7709762Y-12963476D01*
X7728809Y-12973000D01*
X7738333Y-12982524D01*
X7747857Y-13001571D01*
X7747857Y-13020619D01*
X7738333Y-13049190D01*
X7624048Y-13163476D01*
X7747857Y-13163476D01*
X7919286Y-13030143D02*
X7919286Y-13163476D01*
X7871667Y-12953952D02*
X7824048Y-13096809D01*
X7947857Y-13096809D01*
X8176428Y-13163476D02*
X8176428Y-12963476D01*
X8262143Y-13163476D02*
X8262143Y-13058714D01*
X8252619Y-13039667D01*
X8233571Y-13030143D01*
X8205000Y-13030143D01*
X8185952Y-13039667D01*
X8176428Y-13049190D01*
X8385952Y-13163476D02*
X8366905Y-13153952D01*
X8357381Y-13144428D01*
X8347857Y-13125381D01*
X8347857Y-13068238D01*
X8357381Y-13049190D01*
X8366905Y-13039667D01*
X8385952Y-13030143D01*
X8414524Y-13030143D01*
X8433571Y-13039667D01*
X8443095Y-13049190D01*
X8452619Y-13068238D01*
X8452619Y-13125381D01*
X8443095Y-13144428D01*
X8433571Y-13153952D01*
X8414524Y-13163476D01*
X8385952Y-13163476D01*
X8566905Y-13163476D02*
X8547857Y-13153952D01*
X8538333Y-13134905D01*
X8538333Y-12963476D01*
X8719286Y-13153952D02*
X8700238Y-13163476D01*
X8662143Y-13163476D01*
X8643095Y-13153952D01*
X8633571Y-13134905D01*
X8633571Y-13058714D01*
X8643095Y-13039667D01*
X8662143Y-13030143D01*
X8700238Y-13030143D01*
X8719286Y-13039667D01*
X8728810Y-13058714D01*
X8728810Y-13077762D01*
X8633571Y-13096809D01*
X8805000Y-13153952D02*
X8824048Y-13163476D01*
X8862143Y-13163476D01*
X8881190Y-13153952D01*
X8890714Y-13134905D01*
X8890714Y-13125381D01*
X8881190Y-13106333D01*
X8862143Y-13096809D01*
X8833571Y-13096809D01*
X8814524Y-13087286D01*
X8805000Y-13068238D01*
X8805000Y-13058714D01*
X8814524Y-13039667D01*
X8833571Y-13030143D01*
X8862143Y-13030143D01*
X8881190Y-13039667D01*
X8957381Y-13239667D02*
X8966905Y-13230143D01*
X8985952Y-13201571D01*
X8995476Y-13182524D01*
X9005000Y-13153952D01*
X9014524Y-13106333D01*
X9014524Y-13068238D01*
X9005000Y-13020619D01*
X8995476Y-12992048D01*
X8985952Y-12973000D01*
X8966905Y-12944428D01*
X8957381Y-12934905D01*
D14*
X3973033Y-13390033D02*
X3973033Y-13283966D01*
X3866966Y-13283966D01*
X3866966Y-13390033D01*
X3973033Y-13390033D01*
D11*
X4357381Y-13427476D02*
X4243095Y-13427476D01*
X4300238Y-13427476D02*
X4300238Y-13227476D01*
X4281190Y-13256048D01*
X4262143Y-13275095D01*
X4243095Y-13284619D01*
X4443095Y-13408428D02*
X4452619Y-13417952D01*
X4443095Y-13427476D01*
X4433571Y-13417952D01*
X4443095Y-13408428D01*
X4443095Y-13427476D01*
X4633571Y-13227476D02*
X4538333Y-13227476D01*
X4528810Y-13322714D01*
X4538333Y-13313190D01*
X4557381Y-13303667D01*
X4605000Y-13303667D01*
X4624048Y-13313190D01*
X4633571Y-13322714D01*
X4643095Y-13341762D01*
X4643095Y-13389381D01*
X4633571Y-13408428D01*
X4624048Y-13417952D01*
X4605000Y-13427476D01*
X4557381Y-13427476D01*
X4538333Y-13417952D01*
X4528810Y-13408428D01*
X4766905Y-13227476D02*
X4785952Y-13227476D01*
X4805000Y-13237000D01*
X4814524Y-13246524D01*
X4824048Y-13265571D01*
X4833571Y-13303667D01*
X4833571Y-13351286D01*
X4824048Y-13389381D01*
X4814524Y-13408428D01*
X4805000Y-13417952D01*
X4785952Y-13427476D01*
X4766905Y-13427476D01*
X4747857Y-13417952D01*
X4738333Y-13408428D01*
X4728810Y-13389381D01*
X4719286Y-13351286D01*
X4719286Y-13303667D01*
X4728810Y-13265571D01*
X4738333Y-13246524D01*
X4747857Y-13237000D01*
X4766905Y-13227476D01*
X4957381Y-13227476D02*
X4976429Y-13227476D01*
X4995476Y-13237000D01*
X5005000Y-13246524D01*
X5014524Y-13265571D01*
X5024048Y-13303667D01*
X5024048Y-13351286D01*
X5014524Y-13389381D01*
X5005000Y-13408428D01*
X4995476Y-13417952D01*
X4976429Y-13427476D01*
X4957381Y-13427476D01*
X4938333Y-13417952D01*
X4928810Y-13408428D01*
X4919286Y-13389381D01*
X4909762Y-13351286D01*
X4909762Y-13303667D01*
X4919286Y-13265571D01*
X4928810Y-13246524D01*
X4938333Y-13237000D01*
X4957381Y-13227476D01*
X5109762Y-13427476D02*
X5109762Y-13294143D01*
X5109762Y-13313190D02*
X5119286Y-13303667D01*
X5138333Y-13294143D01*
X5166905Y-13294143D01*
X5185952Y-13303667D01*
X5195476Y-13322714D01*
X5195476Y-13427476D01*
X5195476Y-13322714D02*
X5205000Y-13303667D01*
X5224048Y-13294143D01*
X5252619Y-13294143D01*
X5271667Y-13303667D01*
X5281190Y-13322714D01*
X5281190Y-13427476D01*
X5376429Y-13427476D02*
X5376429Y-13294143D01*
X5376429Y-13313190D02*
X5385952Y-13303667D01*
X5405000Y-13294143D01*
X5433571Y-13294143D01*
X5452619Y-13303667D01*
X5462143Y-13322714D01*
X5462143Y-13427476D01*
X5462143Y-13322714D02*
X5471667Y-13303667D01*
X5490714Y-13294143D01*
X5519286Y-13294143D01*
X5538333Y-13303667D01*
X5547857Y-13322714D01*
X5547857Y-13427476D01*
X5938333Y-13217952D02*
X5766905Y-13475095D01*
X6195476Y-13227476D02*
X6214524Y-13227476D01*
X6233571Y-13237000D01*
X6243095Y-13246524D01*
X6252619Y-13265571D01*
X6262143Y-13303667D01*
X6262143Y-13351286D01*
X6252619Y-13389381D01*
X6243095Y-13408428D01*
X6233571Y-13417952D01*
X6214524Y-13427476D01*
X6195476Y-13427476D01*
X6176428Y-13417952D01*
X6166905Y-13408428D01*
X6157381Y-13389381D01*
X6147857Y-13351286D01*
X6147857Y-13303667D01*
X6157381Y-13265571D01*
X6166905Y-13246524D01*
X6176428Y-13237000D01*
X6195476Y-13227476D01*
X6347857Y-13408428D02*
X6357381Y-13417952D01*
X6347857Y-13427476D01*
X6338333Y-13417952D01*
X6347857Y-13408428D01*
X6347857Y-13427476D01*
X6481190Y-13227476D02*
X6500238Y-13227476D01*
X6519286Y-13237000D01*
X6528809Y-13246524D01*
X6538333Y-13265571D01*
X6547857Y-13303667D01*
X6547857Y-13351286D01*
X6538333Y-13389381D01*
X6528809Y-13408428D01*
X6519286Y-13417952D01*
X6500238Y-13427476D01*
X6481190Y-13427476D01*
X6462143Y-13417952D01*
X6452619Y-13408428D01*
X6443095Y-13389381D01*
X6433571Y-13351286D01*
X6433571Y-13303667D01*
X6443095Y-13265571D01*
X6452619Y-13246524D01*
X6462143Y-13237000D01*
X6481190Y-13227476D01*
X6728809Y-13227476D02*
X6633571Y-13227476D01*
X6624048Y-13322714D01*
X6633571Y-13313190D01*
X6652619Y-13303667D01*
X6700238Y-13303667D01*
X6719286Y-13313190D01*
X6728809Y-13322714D01*
X6738333Y-13341762D01*
X6738333Y-13389381D01*
X6728809Y-13408428D01*
X6719286Y-13417952D01*
X6700238Y-13427476D01*
X6652619Y-13427476D01*
X6633571Y-13417952D01*
X6624048Y-13408428D01*
X6833571Y-13427476D02*
X6871667Y-13427476D01*
X6890714Y-13417952D01*
X6900238Y-13408428D01*
X6919286Y-13379857D01*
X6928809Y-13341762D01*
X6928809Y-13265571D01*
X6919286Y-13246524D01*
X6909762Y-13237000D01*
X6890714Y-13227476D01*
X6852619Y-13227476D01*
X6833571Y-13237000D01*
X6824048Y-13246524D01*
X6814524Y-13265571D01*
X6814524Y-13313190D01*
X6824048Y-13332238D01*
X6833571Y-13341762D01*
X6852619Y-13351286D01*
X6890714Y-13351286D01*
X6909762Y-13341762D01*
X6919286Y-13332238D01*
X6928809Y-13313190D01*
X7119286Y-13427476D02*
X7005000Y-13427476D01*
X7062143Y-13427476D02*
X7062143Y-13227476D01*
X7043095Y-13256048D01*
X7024048Y-13275095D01*
X7005000Y-13284619D01*
X7195476Y-13227476D02*
X7195476Y-13265571D01*
X7271667Y-13227476D02*
X7271667Y-13265571D01*
X7566905Y-13503667D02*
X7557381Y-13494143D01*
X7538333Y-13465571D01*
X7528809Y-13446524D01*
X7519286Y-13417952D01*
X7509762Y-13370333D01*
X7509762Y-13332238D01*
X7519286Y-13284619D01*
X7528809Y-13256048D01*
X7538333Y-13237000D01*
X7557381Y-13208428D01*
X7566905Y-13198905D01*
X7738333Y-13227476D02*
X7643095Y-13227476D01*
X7633571Y-13322714D01*
X7643095Y-13313190D01*
X7662143Y-13303667D01*
X7709762Y-13303667D01*
X7728809Y-13313190D01*
X7738333Y-13322714D01*
X7747857Y-13341762D01*
X7747857Y-13389381D01*
X7738333Y-13408428D01*
X7728809Y-13417952D01*
X7709762Y-13427476D01*
X7662143Y-13427476D01*
X7643095Y-13417952D01*
X7633571Y-13408428D01*
X7919286Y-13294143D02*
X7919286Y-13427476D01*
X7871667Y-13217952D02*
X7824048Y-13360809D01*
X7947857Y-13360809D01*
X8176428Y-13427476D02*
X8176428Y-13227476D01*
X8262143Y-13427476D02*
X8262143Y-13322714D01*
X8252619Y-13303667D01*
X8233571Y-13294143D01*
X8205000Y-13294143D01*
X8185952Y-13303667D01*
X8176428Y-13313190D01*
X8385952Y-13427476D02*
X8366905Y-13417952D01*
X8357381Y-13408428D01*
X8347857Y-13389381D01*
X8347857Y-13332238D01*
X8357381Y-13313190D01*
X8366905Y-13303667D01*
X8385952Y-13294143D01*
X8414524Y-13294143D01*
X8433571Y-13303667D01*
X8443095Y-13313190D01*
X8452619Y-13332238D01*
X8452619Y-13389381D01*
X8443095Y-13408428D01*
X8433571Y-13417952D01*
X8414524Y-13427476D01*
X8385952Y-13427476D01*
X8566905Y-13427476D02*
X8547857Y-13417952D01*
X8538333Y-13398905D01*
X8538333Y-13227476D01*
X8719286Y-13417952D02*
X8700238Y-13427476D01*
X8662143Y-13427476D01*
X8643095Y-13417952D01*
X8633571Y-13398905D01*
X8633571Y-13322714D01*
X8643095Y-13303667D01*
X8662143Y-13294143D01*
X8700238Y-13294143D01*
X8719286Y-13303667D01*
X8728810Y-13322714D01*
X8728810Y-13341762D01*
X8633571Y-13360809D01*
X8805000Y-13417952D02*
X8824048Y-13427476D01*
X8862143Y-13427476D01*
X8881190Y-13417952D01*
X8890714Y-13398905D01*
X8890714Y-13389381D01*
X8881190Y-13370333D01*
X8862143Y-13360809D01*
X8833571Y-13360809D01*
X8814524Y-13351286D01*
X8805000Y-13332238D01*
X8805000Y-13322714D01*
X8814524Y-13303667D01*
X8833571Y-13294143D01*
X8862143Y-13294143D01*
X8881190Y-13303667D01*
X8957381Y-13503667D02*
X8966905Y-13494143D01*
X8985952Y-13465571D01*
X8995476Y-13446524D01*
X9005000Y-13417952D01*
X9014524Y-13370333D01*
X9014524Y-13332238D01*
X9005000Y-13284619D01*
X8995476Y-13256048D01*
X8985952Y-13237000D01*
X8966905Y-13208428D01*
X8957381Y-13198905D01*
M02*
