G04 #@! TF.GenerationSoftware,KiCad,Pcbnew,(6.0.7-1)-1*
G04 #@! TF.CreationDate,2022-09-15T21:48:11+02:00*
G04 #@! TF.ProjectId,yts-switchblade,7974732d-7377-4697-9463-68626c616465,rev?*
G04 #@! TF.SameCoordinates,Original*
G04 #@! TF.FileFunction,Legend,Bot*
G04 #@! TF.FilePolarity,Positive*
%FSLAX46Y46*%
G04 Gerber Fmt 4.6, Leading zero omitted, Abs format (unit mm)*
G04 Created by KiCad (PCBNEW (6.0.7-1)-1) date 2022-09-15 21:48:11*
%MOMM*%
%LPD*%
G01*
G04 APERTURE LIST*
%ADD10C,0.150000*%
G04 APERTURE END LIST*
D10*
X56523809Y-49785714D02*
X56285714Y-50452380D01*
X56047619Y-49785714D02*
X56285714Y-50452380D01*
X56380952Y-50690476D01*
X56428571Y-50738095D01*
X56523809Y-50785714D01*
X55809523Y-49785714D02*
X55428571Y-49785714D01*
X55666666Y-49452380D02*
X55666666Y-50309523D01*
X55619047Y-50404761D01*
X55523809Y-50452380D01*
X55428571Y-50452380D01*
X55142857Y-50404761D02*
X55047619Y-50452380D01*
X54857142Y-50452380D01*
X54761904Y-50404761D01*
X54714285Y-50309523D01*
X54714285Y-50261904D01*
X54761904Y-50166666D01*
X54857142Y-50119047D01*
X55000000Y-50119047D01*
X55095238Y-50071428D01*
X55142857Y-49976190D01*
X55142857Y-49928571D01*
X55095238Y-49833333D01*
X55000000Y-49785714D01*
X54857142Y-49785714D01*
X54761904Y-49833333D01*
X54285714Y-50071428D02*
X53523809Y-50071428D01*
X52523809Y-50452380D02*
X53095238Y-50452380D01*
X52809523Y-50452380D02*
X52809523Y-49452380D01*
X52904761Y-49595238D01*
X53000000Y-49690476D01*
X53095238Y-49738095D01*
%LPC*%
X56523809Y-49785714D02*
X56285714Y-50452380D01*
X56047619Y-49785714D02*
X56285714Y-50452380D01*
X56380952Y-50690476D01*
X56428571Y-50738095D01*
X56523809Y-50785714D01*
X55809523Y-49785714D02*
X55428571Y-49785714D01*
X55666666Y-49452380D02*
X55666666Y-50309523D01*
X55619047Y-50404761D01*
X55523809Y-50452380D01*
X55428571Y-50452380D01*
X55142857Y-50404761D02*
X55047619Y-50452380D01*
X54857142Y-50452380D01*
X54761904Y-50404761D01*
X54714285Y-50309523D01*
X54714285Y-50261904D01*
X54761904Y-50166666D01*
X54857142Y-50119047D01*
X55000000Y-50119047D01*
X55095238Y-50071428D01*
X55142857Y-49976190D01*
X55142857Y-49928571D01*
X55095238Y-49833333D01*
X55000000Y-49785714D01*
X54857142Y-49785714D01*
X54761904Y-49833333D01*
X54285714Y-50071428D02*
X53523809Y-50071428D01*
X52523809Y-50452380D02*
X53095238Y-50452380D01*
X52809523Y-50452380D02*
X52809523Y-49452380D01*
X52904761Y-49595238D01*
X53000000Y-49690476D01*
X53095238Y-49738095D01*
M02*
