G04 #@! TF.GenerationSoftware,KiCad,Pcbnew,(6.0.7-1)-1*
G04 #@! TF.CreationDate,2022-09-15T21:48:11+02:00*
G04 #@! TF.ProjectId,yts-switchblade,7974732d-7377-4697-9463-68626c616465,rev?*
G04 #@! TF.SameCoordinates,Original*
G04 #@! TF.FileFunction,Copper,L1,Top*
G04 #@! TF.FilePolarity,Positive*
%FSLAX46Y46*%
G04 Gerber Fmt 4.6, Leading zero omitted, Abs format (unit mm)*
G04 Created by KiCad (PCBNEW (6.0.7-1)-1) date 2022-09-15 21:48:11*
%MOMM*%
%LPD*%
G01*
G04 APERTURE LIST*
G04 APERTURE END LIST*
G04 #@! TA.AperFunction,NonConductor*
G36*
X316970018Y-36510000D02*
G01*
X316984852Y-36512310D01*
X316984855Y-36512310D01*
X316993724Y-36513691D01*
X317002626Y-36512527D01*
X317002750Y-36512511D01*
X317033192Y-36512240D01*
X317040621Y-36513077D01*
X317095264Y-36519234D01*
X317122771Y-36525513D01*
X317199853Y-36552485D01*
X317225274Y-36564727D01*
X317294426Y-36608178D01*
X317316485Y-36625770D01*
X317374230Y-36683515D01*
X317391822Y-36705574D01*
X317435273Y-36774726D01*
X317447515Y-36800147D01*
X317474487Y-36877228D01*
X317480766Y-36904736D01*
X317487018Y-36960226D01*
X317486923Y-36975868D01*
X317487800Y-36975879D01*
X317487690Y-36984851D01*
X317486309Y-36993724D01*
X317487473Y-37002626D01*
X317487473Y-37002628D01*
X317490436Y-37025283D01*
X317491500Y-37041621D01*
X317491500Y-131550633D01*
X317490000Y-131570018D01*
X317486309Y-131593724D01*
X317487473Y-131602626D01*
X317487489Y-131602750D01*
X317487760Y-131633192D01*
X317485430Y-131653870D01*
X317480766Y-131695264D01*
X317474487Y-131722771D01*
X317447515Y-131799853D01*
X317435273Y-131825274D01*
X317391822Y-131894426D01*
X317374230Y-131916485D01*
X317316485Y-131974230D01*
X317294426Y-131991822D01*
X317225274Y-132035273D01*
X317199853Y-132047515D01*
X317122772Y-132074487D01*
X317095264Y-132080766D01*
X317039774Y-132087018D01*
X317024132Y-132086923D01*
X317024121Y-132087800D01*
X317015149Y-132087690D01*
X317006276Y-132086309D01*
X316997374Y-132087473D01*
X316997372Y-132087473D01*
X316986385Y-132088910D01*
X316974714Y-132090436D01*
X316958379Y-132091500D01*
X32049367Y-132091500D01*
X32029982Y-132090000D01*
X32015148Y-132087690D01*
X32015145Y-132087690D01*
X32006276Y-132086309D01*
X31997374Y-132087473D01*
X31997250Y-132087489D01*
X31966808Y-132087760D01*
X31946130Y-132085430D01*
X31904736Y-132080766D01*
X31877229Y-132074487D01*
X31800147Y-132047515D01*
X31774726Y-132035273D01*
X31705574Y-131991822D01*
X31683515Y-131974230D01*
X31625770Y-131916485D01*
X31608178Y-131894426D01*
X31564727Y-131825274D01*
X31552485Y-131799853D01*
X31525513Y-131722772D01*
X31519234Y-131695266D01*
X31513170Y-131641451D01*
X31512888Y-131616640D01*
X31513576Y-131612552D01*
X31513729Y-131600000D01*
X31509773Y-131572376D01*
X31508500Y-131554514D01*
X31508500Y-119369721D01*
X75491024Y-119369721D01*
X75493491Y-119378352D01*
X75499150Y-119398153D01*
X75502728Y-119414915D01*
X75506920Y-119444187D01*
X75510634Y-119452355D01*
X75510634Y-119452356D01*
X75517548Y-119467562D01*
X75523996Y-119485086D01*
X75531051Y-119509771D01*
X75535843Y-119517365D01*
X75535844Y-119517368D01*
X75546830Y-119534780D01*
X75554969Y-119549863D01*
X75567208Y-119576782D01*
X75573069Y-119583584D01*
X75583970Y-119596235D01*
X75595073Y-119611239D01*
X75608776Y-119632958D01*
X75615501Y-119638897D01*
X75615504Y-119638901D01*
X75630938Y-119652532D01*
X75642982Y-119664724D01*
X75656427Y-119680327D01*
X75656430Y-119680329D01*
X75662287Y-119687127D01*
X75669816Y-119692007D01*
X75669817Y-119692008D01*
X75683835Y-119701094D01*
X75698709Y-119712385D01*
X75711217Y-119723431D01*
X75717951Y-119729378D01*
X75744711Y-119741942D01*
X75759691Y-119750263D01*
X75776983Y-119761471D01*
X75776988Y-119761473D01*
X75784515Y-119766352D01*
X75793108Y-119768922D01*
X75793113Y-119768924D01*
X75809120Y-119773711D01*
X75826564Y-119780372D01*
X75841676Y-119787467D01*
X75841678Y-119787468D01*
X75849800Y-119791281D01*
X75858667Y-119792662D01*
X75858668Y-119792662D01*
X75861353Y-119793080D01*
X75879017Y-119795830D01*
X75895732Y-119799613D01*
X75915466Y-119805515D01*
X75915472Y-119805516D01*
X75924066Y-119808086D01*
X75933037Y-119808141D01*
X75933038Y-119808141D01*
X75943097Y-119808202D01*
X75958506Y-119808296D01*
X75959289Y-119808329D01*
X75960386Y-119808500D01*
X75991377Y-119808500D01*
X75992147Y-119808502D01*
X76065785Y-119808952D01*
X76065786Y-119808952D01*
X76069721Y-119808976D01*
X76071065Y-119808592D01*
X76072410Y-119808500D01*
X88991377Y-119808500D01*
X88992148Y-119808502D01*
X89069721Y-119808976D01*
X89098152Y-119800850D01*
X89114915Y-119797272D01*
X89115753Y-119797152D01*
X89144187Y-119793080D01*
X89167564Y-119782451D01*
X89185087Y-119776004D01*
X89209771Y-119768949D01*
X89217365Y-119764157D01*
X89217368Y-119764156D01*
X89234780Y-119753170D01*
X89249865Y-119745030D01*
X89276782Y-119732792D01*
X89296235Y-119716030D01*
X89311239Y-119704927D01*
X89332958Y-119691224D01*
X89338897Y-119684499D01*
X89338901Y-119684496D01*
X89352532Y-119669062D01*
X89364724Y-119657018D01*
X89380327Y-119643573D01*
X89380329Y-119643570D01*
X89387127Y-119637713D01*
X89401094Y-119616165D01*
X89412385Y-119601291D01*
X89423431Y-119588783D01*
X89423432Y-119588782D01*
X89429378Y-119582049D01*
X89441943Y-119555287D01*
X89450263Y-119540309D01*
X89461471Y-119523017D01*
X89461473Y-119523012D01*
X89466352Y-119515485D01*
X89468922Y-119506892D01*
X89468924Y-119506887D01*
X89473711Y-119490880D01*
X89480372Y-119473436D01*
X89487467Y-119458324D01*
X89487468Y-119458322D01*
X89491281Y-119450200D01*
X89495830Y-119420983D01*
X89499613Y-119404268D01*
X89505515Y-119384534D01*
X89505516Y-119384528D01*
X89508086Y-119375934D01*
X89508124Y-119369721D01*
X94491024Y-119369721D01*
X94493491Y-119378352D01*
X94499150Y-119398153D01*
X94502728Y-119414915D01*
X94506920Y-119444187D01*
X94510634Y-119452355D01*
X94510634Y-119452356D01*
X94517548Y-119467562D01*
X94523996Y-119485086D01*
X94531051Y-119509771D01*
X94535843Y-119517365D01*
X94535844Y-119517368D01*
X94546830Y-119534780D01*
X94554969Y-119549863D01*
X94567208Y-119576782D01*
X94573069Y-119583584D01*
X94583970Y-119596235D01*
X94595073Y-119611239D01*
X94608776Y-119632958D01*
X94615501Y-119638897D01*
X94615504Y-119638901D01*
X94630938Y-119652532D01*
X94642982Y-119664724D01*
X94656427Y-119680327D01*
X94656430Y-119680329D01*
X94662287Y-119687127D01*
X94669816Y-119692007D01*
X94669817Y-119692008D01*
X94683835Y-119701094D01*
X94698709Y-119712385D01*
X94711217Y-119723431D01*
X94717951Y-119729378D01*
X94744711Y-119741942D01*
X94759691Y-119750263D01*
X94776983Y-119761471D01*
X94776988Y-119761473D01*
X94784515Y-119766352D01*
X94793108Y-119768922D01*
X94793113Y-119768924D01*
X94809120Y-119773711D01*
X94826564Y-119780372D01*
X94841676Y-119787467D01*
X94841678Y-119787468D01*
X94849800Y-119791281D01*
X94858667Y-119792662D01*
X94858668Y-119792662D01*
X94861353Y-119793080D01*
X94879017Y-119795830D01*
X94895732Y-119799613D01*
X94915466Y-119805515D01*
X94915472Y-119805516D01*
X94924066Y-119808086D01*
X94933037Y-119808141D01*
X94933038Y-119808141D01*
X94943097Y-119808202D01*
X94958506Y-119808296D01*
X94959289Y-119808329D01*
X94960386Y-119808500D01*
X94991377Y-119808500D01*
X94992147Y-119808502D01*
X95065785Y-119808952D01*
X95065786Y-119808952D01*
X95069721Y-119808976D01*
X95071065Y-119808592D01*
X95072410Y-119808500D01*
X107991377Y-119808500D01*
X107992148Y-119808502D01*
X108069721Y-119808976D01*
X108098152Y-119800850D01*
X108114915Y-119797272D01*
X108115753Y-119797152D01*
X108144187Y-119793080D01*
X108167564Y-119782451D01*
X108185087Y-119776004D01*
X108209771Y-119768949D01*
X108217365Y-119764157D01*
X108217368Y-119764156D01*
X108234780Y-119753170D01*
X108249865Y-119745030D01*
X108276782Y-119732792D01*
X108296235Y-119716030D01*
X108311239Y-119704927D01*
X108332958Y-119691224D01*
X108338897Y-119684499D01*
X108338901Y-119684496D01*
X108352532Y-119669062D01*
X108364724Y-119657018D01*
X108380327Y-119643573D01*
X108380329Y-119643570D01*
X108387127Y-119637713D01*
X108401094Y-119616165D01*
X108412385Y-119601291D01*
X108423431Y-119588783D01*
X108423432Y-119588782D01*
X108429378Y-119582049D01*
X108441943Y-119555287D01*
X108450263Y-119540309D01*
X108461471Y-119523017D01*
X108461473Y-119523012D01*
X108466352Y-119515485D01*
X108468922Y-119506892D01*
X108468924Y-119506887D01*
X108473711Y-119490880D01*
X108480372Y-119473436D01*
X108487467Y-119458324D01*
X108487468Y-119458322D01*
X108491281Y-119450200D01*
X108495830Y-119420983D01*
X108499613Y-119404268D01*
X108505515Y-119384534D01*
X108505516Y-119384528D01*
X108508086Y-119375934D01*
X108508124Y-119369721D01*
X113491024Y-119369721D01*
X113493491Y-119378352D01*
X113499150Y-119398153D01*
X113502728Y-119414915D01*
X113506920Y-119444187D01*
X113510634Y-119452355D01*
X113510634Y-119452356D01*
X113517548Y-119467562D01*
X113523996Y-119485086D01*
X113531051Y-119509771D01*
X113535843Y-119517365D01*
X113535844Y-119517368D01*
X113546830Y-119534780D01*
X113554969Y-119549863D01*
X113567208Y-119576782D01*
X113573069Y-119583584D01*
X113583970Y-119596235D01*
X113595073Y-119611239D01*
X113608776Y-119632958D01*
X113615501Y-119638897D01*
X113615504Y-119638901D01*
X113630938Y-119652532D01*
X113642982Y-119664724D01*
X113656427Y-119680327D01*
X113656430Y-119680329D01*
X113662287Y-119687127D01*
X113669816Y-119692007D01*
X113669817Y-119692008D01*
X113683835Y-119701094D01*
X113698709Y-119712385D01*
X113711217Y-119723431D01*
X113717951Y-119729378D01*
X113744711Y-119741942D01*
X113759691Y-119750263D01*
X113776983Y-119761471D01*
X113776988Y-119761473D01*
X113784515Y-119766352D01*
X113793108Y-119768922D01*
X113793113Y-119768924D01*
X113809120Y-119773711D01*
X113826564Y-119780372D01*
X113841676Y-119787467D01*
X113841678Y-119787468D01*
X113849800Y-119791281D01*
X113858667Y-119792662D01*
X113858668Y-119792662D01*
X113861353Y-119793080D01*
X113879017Y-119795830D01*
X113895732Y-119799613D01*
X113915466Y-119805515D01*
X113915472Y-119805516D01*
X113924066Y-119808086D01*
X113933037Y-119808141D01*
X113933038Y-119808141D01*
X113943097Y-119808202D01*
X113958506Y-119808296D01*
X113959289Y-119808329D01*
X113960386Y-119808500D01*
X113991377Y-119808500D01*
X113992147Y-119808502D01*
X114065785Y-119808952D01*
X114065786Y-119808952D01*
X114069721Y-119808976D01*
X114071065Y-119808592D01*
X114072410Y-119808500D01*
X126991377Y-119808500D01*
X126992148Y-119808502D01*
X127069721Y-119808976D01*
X127098152Y-119800850D01*
X127114915Y-119797272D01*
X127115753Y-119797152D01*
X127144187Y-119793080D01*
X127167564Y-119782451D01*
X127185087Y-119776004D01*
X127209771Y-119768949D01*
X127217365Y-119764157D01*
X127217368Y-119764156D01*
X127234780Y-119753170D01*
X127249865Y-119745030D01*
X127276782Y-119732792D01*
X127296235Y-119716030D01*
X127311239Y-119704927D01*
X127332958Y-119691224D01*
X127338897Y-119684499D01*
X127338901Y-119684496D01*
X127352532Y-119669062D01*
X127364724Y-119657018D01*
X127380327Y-119643573D01*
X127380329Y-119643570D01*
X127387127Y-119637713D01*
X127401094Y-119616165D01*
X127412385Y-119601291D01*
X127423431Y-119588783D01*
X127423432Y-119588782D01*
X127429378Y-119582049D01*
X127441943Y-119555287D01*
X127450263Y-119540309D01*
X127461471Y-119523017D01*
X127461473Y-119523012D01*
X127466352Y-119515485D01*
X127468922Y-119506892D01*
X127468924Y-119506887D01*
X127473711Y-119490880D01*
X127480372Y-119473436D01*
X127487467Y-119458324D01*
X127487468Y-119458322D01*
X127491281Y-119450200D01*
X127495830Y-119420983D01*
X127499613Y-119404268D01*
X127505515Y-119384534D01*
X127505516Y-119384528D01*
X127508086Y-119375934D01*
X127508124Y-119369721D01*
X132491024Y-119369721D01*
X132493491Y-119378352D01*
X132499150Y-119398153D01*
X132502728Y-119414915D01*
X132506920Y-119444187D01*
X132510634Y-119452355D01*
X132510634Y-119452356D01*
X132517548Y-119467562D01*
X132523996Y-119485086D01*
X132531051Y-119509771D01*
X132535843Y-119517365D01*
X132535844Y-119517368D01*
X132546830Y-119534780D01*
X132554969Y-119549863D01*
X132567208Y-119576782D01*
X132573069Y-119583584D01*
X132583970Y-119596235D01*
X132595073Y-119611239D01*
X132608776Y-119632958D01*
X132615501Y-119638897D01*
X132615504Y-119638901D01*
X132630938Y-119652532D01*
X132642982Y-119664724D01*
X132656427Y-119680327D01*
X132656430Y-119680329D01*
X132662287Y-119687127D01*
X132669816Y-119692007D01*
X132669817Y-119692008D01*
X132683835Y-119701094D01*
X132698709Y-119712385D01*
X132711217Y-119723431D01*
X132717951Y-119729378D01*
X132744711Y-119741942D01*
X132759691Y-119750263D01*
X132776983Y-119761471D01*
X132776988Y-119761473D01*
X132784515Y-119766352D01*
X132793108Y-119768922D01*
X132793113Y-119768924D01*
X132809120Y-119773711D01*
X132826564Y-119780372D01*
X132841676Y-119787467D01*
X132841678Y-119787468D01*
X132849800Y-119791281D01*
X132858667Y-119792662D01*
X132858668Y-119792662D01*
X132861353Y-119793080D01*
X132879017Y-119795830D01*
X132895732Y-119799613D01*
X132915466Y-119805515D01*
X132915472Y-119805516D01*
X132924066Y-119808086D01*
X132933037Y-119808141D01*
X132933038Y-119808141D01*
X132943097Y-119808202D01*
X132958506Y-119808296D01*
X132959289Y-119808329D01*
X132960386Y-119808500D01*
X132991377Y-119808500D01*
X132992147Y-119808502D01*
X133065785Y-119808952D01*
X133065786Y-119808952D01*
X133069721Y-119808976D01*
X133071065Y-119808592D01*
X133072410Y-119808500D01*
X145991377Y-119808500D01*
X145992148Y-119808502D01*
X146069721Y-119808976D01*
X146098152Y-119800850D01*
X146114915Y-119797272D01*
X146115753Y-119797152D01*
X146144187Y-119793080D01*
X146167564Y-119782451D01*
X146185087Y-119776004D01*
X146209771Y-119768949D01*
X146217365Y-119764157D01*
X146217368Y-119764156D01*
X146234780Y-119753170D01*
X146249865Y-119745030D01*
X146276782Y-119732792D01*
X146296235Y-119716030D01*
X146311239Y-119704927D01*
X146332958Y-119691224D01*
X146338897Y-119684499D01*
X146338901Y-119684496D01*
X146352532Y-119669062D01*
X146364724Y-119657018D01*
X146380327Y-119643573D01*
X146380329Y-119643570D01*
X146387127Y-119637713D01*
X146401094Y-119616165D01*
X146412385Y-119601291D01*
X146423431Y-119588783D01*
X146423432Y-119588782D01*
X146429378Y-119582049D01*
X146441943Y-119555287D01*
X146450263Y-119540309D01*
X146461471Y-119523017D01*
X146461473Y-119523012D01*
X146466352Y-119515485D01*
X146468922Y-119506892D01*
X146468924Y-119506887D01*
X146473711Y-119490880D01*
X146480372Y-119473436D01*
X146487467Y-119458324D01*
X146487468Y-119458322D01*
X146491281Y-119450200D01*
X146495830Y-119420983D01*
X146499613Y-119404268D01*
X146505515Y-119384534D01*
X146505516Y-119384528D01*
X146508086Y-119375934D01*
X146508124Y-119369721D01*
X160991024Y-119369721D01*
X160993491Y-119378352D01*
X160999150Y-119398153D01*
X161002728Y-119414915D01*
X161006920Y-119444187D01*
X161010634Y-119452355D01*
X161010634Y-119452356D01*
X161017548Y-119467562D01*
X161023996Y-119485086D01*
X161031051Y-119509771D01*
X161035843Y-119517365D01*
X161035844Y-119517368D01*
X161046830Y-119534780D01*
X161054969Y-119549863D01*
X161067208Y-119576782D01*
X161073069Y-119583584D01*
X161083970Y-119596235D01*
X161095073Y-119611239D01*
X161108776Y-119632958D01*
X161115501Y-119638897D01*
X161115504Y-119638901D01*
X161130938Y-119652532D01*
X161142982Y-119664724D01*
X161156427Y-119680327D01*
X161156430Y-119680329D01*
X161162287Y-119687127D01*
X161169816Y-119692007D01*
X161169817Y-119692008D01*
X161183835Y-119701094D01*
X161198709Y-119712385D01*
X161211217Y-119723431D01*
X161217951Y-119729378D01*
X161244711Y-119741942D01*
X161259691Y-119750263D01*
X161276983Y-119761471D01*
X161276988Y-119761473D01*
X161284515Y-119766352D01*
X161293108Y-119768922D01*
X161293113Y-119768924D01*
X161309120Y-119773711D01*
X161326564Y-119780372D01*
X161341676Y-119787467D01*
X161341678Y-119787468D01*
X161349800Y-119791281D01*
X161358667Y-119792662D01*
X161358668Y-119792662D01*
X161361353Y-119793080D01*
X161379017Y-119795830D01*
X161395732Y-119799613D01*
X161415466Y-119805515D01*
X161415472Y-119805516D01*
X161424066Y-119808086D01*
X161433037Y-119808141D01*
X161433038Y-119808141D01*
X161443097Y-119808202D01*
X161458506Y-119808296D01*
X161459289Y-119808329D01*
X161460386Y-119808500D01*
X161491377Y-119808500D01*
X161492147Y-119808502D01*
X161565785Y-119808952D01*
X161565786Y-119808952D01*
X161569721Y-119808976D01*
X161571065Y-119808592D01*
X161572410Y-119808500D01*
X174491377Y-119808500D01*
X174492148Y-119808502D01*
X174569721Y-119808976D01*
X174598152Y-119800850D01*
X174614915Y-119797272D01*
X174615753Y-119797152D01*
X174644187Y-119793080D01*
X174667564Y-119782451D01*
X174685087Y-119776004D01*
X174709771Y-119768949D01*
X174717365Y-119764157D01*
X174717368Y-119764156D01*
X174734780Y-119753170D01*
X174749865Y-119745030D01*
X174776782Y-119732792D01*
X174796235Y-119716030D01*
X174811239Y-119704927D01*
X174832958Y-119691224D01*
X174838897Y-119684499D01*
X174838901Y-119684496D01*
X174852532Y-119669062D01*
X174864724Y-119657018D01*
X174880327Y-119643573D01*
X174880329Y-119643570D01*
X174887127Y-119637713D01*
X174901094Y-119616165D01*
X174912385Y-119601291D01*
X174923431Y-119588783D01*
X174923432Y-119588782D01*
X174929378Y-119582049D01*
X174941943Y-119555287D01*
X174950263Y-119540309D01*
X174961471Y-119523017D01*
X174961473Y-119523012D01*
X174966352Y-119515485D01*
X174968922Y-119506892D01*
X174968924Y-119506887D01*
X174973711Y-119490880D01*
X174980372Y-119473436D01*
X174987467Y-119458324D01*
X174987468Y-119458322D01*
X174991281Y-119450200D01*
X174995830Y-119420983D01*
X174999613Y-119404268D01*
X175005515Y-119384534D01*
X175005516Y-119384528D01*
X175008086Y-119375934D01*
X175008124Y-119369721D01*
X189491024Y-119369721D01*
X189493491Y-119378352D01*
X189499150Y-119398153D01*
X189502728Y-119414915D01*
X189506920Y-119444187D01*
X189510634Y-119452355D01*
X189510634Y-119452356D01*
X189517548Y-119467562D01*
X189523996Y-119485086D01*
X189531051Y-119509771D01*
X189535843Y-119517365D01*
X189535844Y-119517368D01*
X189546830Y-119534780D01*
X189554969Y-119549863D01*
X189567208Y-119576782D01*
X189573069Y-119583584D01*
X189583970Y-119596235D01*
X189595073Y-119611239D01*
X189608776Y-119632958D01*
X189615501Y-119638897D01*
X189615504Y-119638901D01*
X189630938Y-119652532D01*
X189642982Y-119664724D01*
X189656427Y-119680327D01*
X189656430Y-119680329D01*
X189662287Y-119687127D01*
X189669816Y-119692007D01*
X189669817Y-119692008D01*
X189683835Y-119701094D01*
X189698709Y-119712385D01*
X189711217Y-119723431D01*
X189717951Y-119729378D01*
X189744711Y-119741942D01*
X189759691Y-119750263D01*
X189776983Y-119761471D01*
X189776988Y-119761473D01*
X189784515Y-119766352D01*
X189793108Y-119768922D01*
X189793113Y-119768924D01*
X189809120Y-119773711D01*
X189826564Y-119780372D01*
X189841676Y-119787467D01*
X189841678Y-119787468D01*
X189849800Y-119791281D01*
X189858667Y-119792662D01*
X189858668Y-119792662D01*
X189861353Y-119793080D01*
X189879017Y-119795830D01*
X189895732Y-119799613D01*
X189915466Y-119805515D01*
X189915472Y-119805516D01*
X189924066Y-119808086D01*
X189933037Y-119808141D01*
X189933038Y-119808141D01*
X189943097Y-119808202D01*
X189958506Y-119808296D01*
X189959289Y-119808329D01*
X189960386Y-119808500D01*
X189991377Y-119808500D01*
X189992147Y-119808502D01*
X190065785Y-119808952D01*
X190065786Y-119808952D01*
X190069721Y-119808976D01*
X190071065Y-119808592D01*
X190072410Y-119808500D01*
X202991377Y-119808500D01*
X202992148Y-119808502D01*
X203069721Y-119808976D01*
X203098152Y-119800850D01*
X203114915Y-119797272D01*
X203115753Y-119797152D01*
X203144187Y-119793080D01*
X203167564Y-119782451D01*
X203185087Y-119776004D01*
X203209771Y-119768949D01*
X203217365Y-119764157D01*
X203217368Y-119764156D01*
X203234780Y-119753170D01*
X203249865Y-119745030D01*
X203276782Y-119732792D01*
X203296235Y-119716030D01*
X203311239Y-119704927D01*
X203332958Y-119691224D01*
X203338897Y-119684499D01*
X203338901Y-119684496D01*
X203352532Y-119669062D01*
X203364724Y-119657018D01*
X203380327Y-119643573D01*
X203380329Y-119643570D01*
X203387127Y-119637713D01*
X203401094Y-119616165D01*
X203412385Y-119601291D01*
X203423431Y-119588783D01*
X203423432Y-119588782D01*
X203429378Y-119582049D01*
X203441943Y-119555287D01*
X203450263Y-119540309D01*
X203461471Y-119523017D01*
X203461473Y-119523012D01*
X203466352Y-119515485D01*
X203468922Y-119506892D01*
X203468924Y-119506887D01*
X203473711Y-119490880D01*
X203480372Y-119473436D01*
X203487467Y-119458324D01*
X203487468Y-119458322D01*
X203491281Y-119450200D01*
X203495830Y-119420983D01*
X203499613Y-119404268D01*
X203505515Y-119384534D01*
X203505516Y-119384528D01*
X203508086Y-119375934D01*
X203508124Y-119369721D01*
X208491024Y-119369721D01*
X208493491Y-119378352D01*
X208499150Y-119398153D01*
X208502728Y-119414915D01*
X208506920Y-119444187D01*
X208510634Y-119452355D01*
X208510634Y-119452356D01*
X208517548Y-119467562D01*
X208523996Y-119485086D01*
X208531051Y-119509771D01*
X208535843Y-119517365D01*
X208535844Y-119517368D01*
X208546830Y-119534780D01*
X208554969Y-119549863D01*
X208567208Y-119576782D01*
X208573069Y-119583584D01*
X208583970Y-119596235D01*
X208595073Y-119611239D01*
X208608776Y-119632958D01*
X208615501Y-119638897D01*
X208615504Y-119638901D01*
X208630938Y-119652532D01*
X208642982Y-119664724D01*
X208656427Y-119680327D01*
X208656430Y-119680329D01*
X208662287Y-119687127D01*
X208669816Y-119692007D01*
X208669817Y-119692008D01*
X208683835Y-119701094D01*
X208698709Y-119712385D01*
X208711217Y-119723431D01*
X208717951Y-119729378D01*
X208744711Y-119741942D01*
X208759691Y-119750263D01*
X208776983Y-119761471D01*
X208776988Y-119761473D01*
X208784515Y-119766352D01*
X208793108Y-119768922D01*
X208793113Y-119768924D01*
X208809120Y-119773711D01*
X208826564Y-119780372D01*
X208841676Y-119787467D01*
X208841678Y-119787468D01*
X208849800Y-119791281D01*
X208858667Y-119792662D01*
X208858668Y-119792662D01*
X208861353Y-119793080D01*
X208879017Y-119795830D01*
X208895732Y-119799613D01*
X208915466Y-119805515D01*
X208915472Y-119805516D01*
X208924066Y-119808086D01*
X208933037Y-119808141D01*
X208933038Y-119808141D01*
X208943097Y-119808202D01*
X208958506Y-119808296D01*
X208959289Y-119808329D01*
X208960386Y-119808500D01*
X208991377Y-119808500D01*
X208992147Y-119808502D01*
X209065785Y-119808952D01*
X209065786Y-119808952D01*
X209069721Y-119808976D01*
X209071065Y-119808592D01*
X209072410Y-119808500D01*
X221991377Y-119808500D01*
X221992148Y-119808502D01*
X222069721Y-119808976D01*
X222098152Y-119800850D01*
X222114915Y-119797272D01*
X222115753Y-119797152D01*
X222144187Y-119793080D01*
X222167564Y-119782451D01*
X222185087Y-119776004D01*
X222209771Y-119768949D01*
X222217365Y-119764157D01*
X222217368Y-119764156D01*
X222234780Y-119753170D01*
X222249865Y-119745030D01*
X222276782Y-119732792D01*
X222296235Y-119716030D01*
X222311239Y-119704927D01*
X222332958Y-119691224D01*
X222338897Y-119684499D01*
X222338901Y-119684496D01*
X222352532Y-119669062D01*
X222364724Y-119657018D01*
X222380327Y-119643573D01*
X222380329Y-119643570D01*
X222387127Y-119637713D01*
X222401094Y-119616165D01*
X222412385Y-119601291D01*
X222423431Y-119588783D01*
X222423432Y-119588782D01*
X222429378Y-119582049D01*
X222441943Y-119555287D01*
X222450263Y-119540309D01*
X222461471Y-119523017D01*
X222461473Y-119523012D01*
X222466352Y-119515485D01*
X222468922Y-119506892D01*
X222468924Y-119506887D01*
X222473711Y-119490880D01*
X222480372Y-119473436D01*
X222487467Y-119458324D01*
X222487468Y-119458322D01*
X222491281Y-119450200D01*
X222495830Y-119420983D01*
X222499613Y-119404268D01*
X222505515Y-119384534D01*
X222505516Y-119384528D01*
X222508086Y-119375934D01*
X222508124Y-119369721D01*
X227491024Y-119369721D01*
X227493491Y-119378352D01*
X227499150Y-119398153D01*
X227502728Y-119414915D01*
X227506920Y-119444187D01*
X227510634Y-119452355D01*
X227510634Y-119452356D01*
X227517548Y-119467562D01*
X227523996Y-119485086D01*
X227531051Y-119509771D01*
X227535843Y-119517365D01*
X227535844Y-119517368D01*
X227546830Y-119534780D01*
X227554969Y-119549863D01*
X227567208Y-119576782D01*
X227573069Y-119583584D01*
X227583970Y-119596235D01*
X227595073Y-119611239D01*
X227608776Y-119632958D01*
X227615501Y-119638897D01*
X227615504Y-119638901D01*
X227630938Y-119652532D01*
X227642982Y-119664724D01*
X227656427Y-119680327D01*
X227656430Y-119680329D01*
X227662287Y-119687127D01*
X227669816Y-119692007D01*
X227669817Y-119692008D01*
X227683835Y-119701094D01*
X227698709Y-119712385D01*
X227711217Y-119723431D01*
X227717951Y-119729378D01*
X227744711Y-119741942D01*
X227759691Y-119750263D01*
X227776983Y-119761471D01*
X227776988Y-119761473D01*
X227784515Y-119766352D01*
X227793108Y-119768922D01*
X227793113Y-119768924D01*
X227809120Y-119773711D01*
X227826564Y-119780372D01*
X227841676Y-119787467D01*
X227841678Y-119787468D01*
X227849800Y-119791281D01*
X227858667Y-119792662D01*
X227858668Y-119792662D01*
X227861353Y-119793080D01*
X227879017Y-119795830D01*
X227895732Y-119799613D01*
X227915466Y-119805515D01*
X227915472Y-119805516D01*
X227924066Y-119808086D01*
X227933037Y-119808141D01*
X227933038Y-119808141D01*
X227943097Y-119808202D01*
X227958506Y-119808296D01*
X227959289Y-119808329D01*
X227960386Y-119808500D01*
X227991377Y-119808500D01*
X227992147Y-119808502D01*
X228065785Y-119808952D01*
X228065786Y-119808952D01*
X228069721Y-119808976D01*
X228071065Y-119808592D01*
X228072410Y-119808500D01*
X240991377Y-119808500D01*
X240992148Y-119808502D01*
X241069721Y-119808976D01*
X241098152Y-119800850D01*
X241114915Y-119797272D01*
X241115753Y-119797152D01*
X241144187Y-119793080D01*
X241167564Y-119782451D01*
X241185087Y-119776004D01*
X241209771Y-119768949D01*
X241217365Y-119764157D01*
X241217368Y-119764156D01*
X241234780Y-119753170D01*
X241249865Y-119745030D01*
X241276782Y-119732792D01*
X241296235Y-119716030D01*
X241311239Y-119704927D01*
X241332958Y-119691224D01*
X241338897Y-119684499D01*
X241338901Y-119684496D01*
X241352532Y-119669062D01*
X241364724Y-119657018D01*
X241380327Y-119643573D01*
X241380329Y-119643570D01*
X241387127Y-119637713D01*
X241401094Y-119616165D01*
X241412385Y-119601291D01*
X241423431Y-119588783D01*
X241423432Y-119588782D01*
X241429378Y-119582049D01*
X241441943Y-119555287D01*
X241450263Y-119540309D01*
X241461471Y-119523017D01*
X241461473Y-119523012D01*
X241466352Y-119515485D01*
X241468922Y-119506892D01*
X241468924Y-119506887D01*
X241473711Y-119490880D01*
X241480372Y-119473436D01*
X241487467Y-119458324D01*
X241487468Y-119458322D01*
X241491281Y-119450200D01*
X241495830Y-119420983D01*
X241499613Y-119404268D01*
X241505515Y-119384534D01*
X241505516Y-119384528D01*
X241508086Y-119375934D01*
X241508296Y-119341494D01*
X241508329Y-119340711D01*
X241508500Y-119339614D01*
X241508500Y-119308623D01*
X241508502Y-119307853D01*
X241508952Y-119234215D01*
X241508952Y-119234214D01*
X241508976Y-119230279D01*
X241508592Y-119228935D01*
X241508500Y-119227590D01*
X241508500Y-113869721D01*
X265391024Y-113869721D01*
X265393491Y-113878352D01*
X265399150Y-113898153D01*
X265402728Y-113914915D01*
X265406920Y-113944187D01*
X265410634Y-113952355D01*
X265410634Y-113952356D01*
X265417548Y-113967562D01*
X265423996Y-113985086D01*
X265431051Y-114009771D01*
X265435843Y-114017365D01*
X265435844Y-114017368D01*
X265446830Y-114034780D01*
X265454969Y-114049863D01*
X265467208Y-114076782D01*
X265473069Y-114083584D01*
X265483970Y-114096235D01*
X265495073Y-114111239D01*
X265508776Y-114132958D01*
X265515501Y-114138897D01*
X265515504Y-114138901D01*
X265530938Y-114152532D01*
X265542982Y-114164724D01*
X265556427Y-114180327D01*
X265556430Y-114180329D01*
X265562287Y-114187127D01*
X265569816Y-114192007D01*
X265569817Y-114192008D01*
X265583835Y-114201094D01*
X265598709Y-114212385D01*
X265611217Y-114223431D01*
X265617951Y-114229378D01*
X265644711Y-114241942D01*
X265659691Y-114250263D01*
X265676983Y-114261471D01*
X265676988Y-114261473D01*
X265684515Y-114266352D01*
X265693108Y-114268922D01*
X265693113Y-114268924D01*
X265709120Y-114273711D01*
X265726564Y-114280372D01*
X265741676Y-114287467D01*
X265741678Y-114287468D01*
X265749800Y-114291281D01*
X265758667Y-114292662D01*
X265758668Y-114292662D01*
X265761353Y-114293080D01*
X265779017Y-114295830D01*
X265795732Y-114299613D01*
X265815466Y-114305515D01*
X265815472Y-114305516D01*
X265824066Y-114308086D01*
X265833037Y-114308141D01*
X265833038Y-114308141D01*
X265843097Y-114308202D01*
X265858506Y-114308296D01*
X265859289Y-114308329D01*
X265860386Y-114308500D01*
X265891377Y-114308500D01*
X265892147Y-114308502D01*
X265965785Y-114308952D01*
X265965786Y-114308952D01*
X265969721Y-114308976D01*
X265971065Y-114308592D01*
X265972410Y-114308500D01*
X278891377Y-114308500D01*
X278892148Y-114308502D01*
X278969721Y-114308976D01*
X278998152Y-114300850D01*
X279014915Y-114297272D01*
X279015753Y-114297152D01*
X279044187Y-114293080D01*
X279067564Y-114282451D01*
X279085087Y-114276004D01*
X279109771Y-114268949D01*
X279117365Y-114264157D01*
X279117368Y-114264156D01*
X279134780Y-114253170D01*
X279149865Y-114245030D01*
X279176782Y-114232792D01*
X279196235Y-114216030D01*
X279211239Y-114204927D01*
X279232958Y-114191224D01*
X279238897Y-114184499D01*
X279238901Y-114184496D01*
X279252532Y-114169062D01*
X279264724Y-114157018D01*
X279280327Y-114143573D01*
X279280329Y-114143570D01*
X279287127Y-114137713D01*
X279301094Y-114116165D01*
X279312385Y-114101291D01*
X279323431Y-114088783D01*
X279323432Y-114088782D01*
X279329378Y-114082049D01*
X279341943Y-114055287D01*
X279350263Y-114040309D01*
X279361471Y-114023017D01*
X279361473Y-114023012D01*
X279366352Y-114015485D01*
X279368922Y-114006892D01*
X279368924Y-114006887D01*
X279373711Y-113990880D01*
X279380372Y-113973436D01*
X279387467Y-113958324D01*
X279387468Y-113958322D01*
X279391281Y-113950200D01*
X279395830Y-113920983D01*
X279399613Y-113904268D01*
X279405515Y-113884534D01*
X279405516Y-113884528D01*
X279408086Y-113875934D01*
X279408296Y-113841494D01*
X279408329Y-113840711D01*
X279408500Y-113839614D01*
X279408500Y-113808623D01*
X279408502Y-113807853D01*
X279408952Y-113734215D01*
X279408952Y-113734214D01*
X279408976Y-113730279D01*
X279408592Y-113728935D01*
X279408500Y-113727590D01*
X279408500Y-100808623D01*
X279408502Y-100807853D01*
X279408740Y-100768924D01*
X279408976Y-100730279D01*
X279400850Y-100701847D01*
X279397272Y-100685085D01*
X279394352Y-100664698D01*
X279393080Y-100655813D01*
X279382451Y-100632436D01*
X279376004Y-100614913D01*
X279374348Y-100609120D01*
X279368949Y-100590229D01*
X279363788Y-100582049D01*
X279353170Y-100565220D01*
X279345030Y-100550135D01*
X279342564Y-100544711D01*
X279332792Y-100523218D01*
X279316030Y-100503765D01*
X279304927Y-100488761D01*
X279291224Y-100467042D01*
X279284499Y-100461103D01*
X279284496Y-100461099D01*
X279269062Y-100447468D01*
X279257018Y-100435276D01*
X279243573Y-100419673D01*
X279243570Y-100419671D01*
X279237713Y-100412873D01*
X279224438Y-100404268D01*
X279216165Y-100398906D01*
X279201291Y-100387615D01*
X279188783Y-100376569D01*
X279188782Y-100376568D01*
X279182049Y-100370622D01*
X279155287Y-100358057D01*
X279140309Y-100349737D01*
X279123017Y-100338529D01*
X279123012Y-100338527D01*
X279115485Y-100333648D01*
X279106892Y-100331078D01*
X279106887Y-100331076D01*
X279090880Y-100326289D01*
X279073436Y-100319628D01*
X279058324Y-100312533D01*
X279058322Y-100312532D01*
X279050200Y-100308719D01*
X279041333Y-100307338D01*
X279041332Y-100307338D01*
X279030478Y-100305648D01*
X279020983Y-100304170D01*
X279004268Y-100300387D01*
X278984534Y-100294485D01*
X278984528Y-100294484D01*
X278975934Y-100291914D01*
X278966963Y-100291859D01*
X278966962Y-100291859D01*
X278956903Y-100291798D01*
X278941494Y-100291704D01*
X278940711Y-100291671D01*
X278939614Y-100291500D01*
X278908623Y-100291500D01*
X278907853Y-100291498D01*
X278834215Y-100291048D01*
X278834214Y-100291048D01*
X278830279Y-100291024D01*
X278828935Y-100291408D01*
X278827590Y-100291500D01*
X265908623Y-100291500D01*
X265907853Y-100291498D01*
X265907037Y-100291493D01*
X265830279Y-100291024D01*
X265807918Y-100297415D01*
X265801847Y-100299150D01*
X265785085Y-100302728D01*
X265755813Y-100306920D01*
X265747645Y-100310634D01*
X265747644Y-100310634D01*
X265732438Y-100317548D01*
X265714914Y-100323996D01*
X265690229Y-100331051D01*
X265682635Y-100335843D01*
X265682632Y-100335844D01*
X265665220Y-100346830D01*
X265650137Y-100354969D01*
X265623218Y-100367208D01*
X265616416Y-100373069D01*
X265603765Y-100383970D01*
X265588761Y-100395073D01*
X265567042Y-100408776D01*
X265561103Y-100415501D01*
X265561099Y-100415504D01*
X265547468Y-100430938D01*
X265535276Y-100442982D01*
X265519673Y-100456427D01*
X265519671Y-100456430D01*
X265512873Y-100462287D01*
X265507993Y-100469816D01*
X265507992Y-100469817D01*
X265498906Y-100483835D01*
X265487615Y-100498709D01*
X265480393Y-100506887D01*
X265470622Y-100517951D01*
X265464312Y-100531391D01*
X265458058Y-100544711D01*
X265449737Y-100559691D01*
X265438529Y-100576983D01*
X265438527Y-100576988D01*
X265433648Y-100584515D01*
X265431078Y-100593108D01*
X265431076Y-100593113D01*
X265426289Y-100609120D01*
X265419628Y-100626564D01*
X265416626Y-100632958D01*
X265408719Y-100649800D01*
X265407338Y-100658667D01*
X265407338Y-100658668D01*
X265404170Y-100679015D01*
X265400387Y-100695732D01*
X265394485Y-100715466D01*
X265394484Y-100715472D01*
X265391914Y-100724066D01*
X265391859Y-100733037D01*
X265391859Y-100733038D01*
X265391704Y-100758497D01*
X265391671Y-100759289D01*
X265391500Y-100760386D01*
X265391500Y-100791377D01*
X265391498Y-100792147D01*
X265391396Y-100808921D01*
X265391024Y-100869721D01*
X265391408Y-100871065D01*
X265391500Y-100872410D01*
X265391500Y-113791377D01*
X265391498Y-113792147D01*
X265391024Y-113869721D01*
X241508500Y-113869721D01*
X241508500Y-106308623D01*
X241508502Y-106307853D01*
X241508800Y-106259102D01*
X241508976Y-106230279D01*
X241500850Y-106201847D01*
X241497272Y-106185085D01*
X241494352Y-106164698D01*
X241493080Y-106155813D01*
X241482451Y-106132436D01*
X241476004Y-106114913D01*
X241471416Y-106098862D01*
X241468949Y-106090229D01*
X241464156Y-106082632D01*
X241453170Y-106065220D01*
X241445030Y-106050135D01*
X241442564Y-106044711D01*
X241432792Y-106023218D01*
X241416030Y-106003765D01*
X241404927Y-105988761D01*
X241391224Y-105967042D01*
X241384499Y-105961103D01*
X241384496Y-105961099D01*
X241369062Y-105947468D01*
X241357018Y-105935276D01*
X241343573Y-105919673D01*
X241343570Y-105919671D01*
X241337713Y-105912873D01*
X241324009Y-105903990D01*
X241316165Y-105898906D01*
X241301291Y-105887615D01*
X241288783Y-105876569D01*
X241288782Y-105876568D01*
X241282049Y-105870622D01*
X241255287Y-105858057D01*
X241240309Y-105849737D01*
X241223017Y-105838529D01*
X241223012Y-105838527D01*
X241215485Y-105833648D01*
X241206892Y-105831078D01*
X241206887Y-105831076D01*
X241190880Y-105826289D01*
X241173436Y-105819628D01*
X241158324Y-105812533D01*
X241158322Y-105812532D01*
X241150200Y-105808719D01*
X241141333Y-105807338D01*
X241141332Y-105807338D01*
X241130478Y-105805648D01*
X241120983Y-105804170D01*
X241104268Y-105800387D01*
X241084534Y-105794485D01*
X241084528Y-105794484D01*
X241075934Y-105791914D01*
X241066963Y-105791859D01*
X241066962Y-105791859D01*
X241056903Y-105791798D01*
X241041494Y-105791704D01*
X241040711Y-105791671D01*
X241039614Y-105791500D01*
X241008623Y-105791500D01*
X241007853Y-105791498D01*
X240934215Y-105791048D01*
X240934214Y-105791048D01*
X240930279Y-105791024D01*
X240928935Y-105791408D01*
X240927590Y-105791500D01*
X228008623Y-105791500D01*
X228007853Y-105791498D01*
X228007037Y-105791493D01*
X227930279Y-105791024D01*
X227907918Y-105797415D01*
X227901847Y-105799150D01*
X227885085Y-105802728D01*
X227855813Y-105806920D01*
X227847645Y-105810634D01*
X227847644Y-105810634D01*
X227832438Y-105817548D01*
X227814914Y-105823996D01*
X227790229Y-105831051D01*
X227782635Y-105835843D01*
X227782632Y-105835844D01*
X227765220Y-105846830D01*
X227750137Y-105854969D01*
X227723218Y-105867208D01*
X227716416Y-105873069D01*
X227703765Y-105883970D01*
X227688761Y-105895073D01*
X227667042Y-105908776D01*
X227661103Y-105915501D01*
X227661099Y-105915504D01*
X227647468Y-105930938D01*
X227635276Y-105942982D01*
X227619673Y-105956427D01*
X227619671Y-105956430D01*
X227612873Y-105962287D01*
X227607993Y-105969816D01*
X227607992Y-105969817D01*
X227598906Y-105983835D01*
X227587615Y-105998709D01*
X227576569Y-106011217D01*
X227570622Y-106017951D01*
X227564312Y-106031391D01*
X227558058Y-106044711D01*
X227549737Y-106059691D01*
X227538529Y-106076983D01*
X227538527Y-106076988D01*
X227533648Y-106084515D01*
X227531078Y-106093108D01*
X227531076Y-106093113D01*
X227526289Y-106109120D01*
X227519628Y-106126564D01*
X227512533Y-106141676D01*
X227508719Y-106149800D01*
X227507338Y-106158667D01*
X227507338Y-106158668D01*
X227504170Y-106179015D01*
X227500387Y-106195732D01*
X227494485Y-106215466D01*
X227494484Y-106215472D01*
X227491914Y-106224066D01*
X227491859Y-106233037D01*
X227491859Y-106233038D01*
X227491704Y-106258497D01*
X227491671Y-106259289D01*
X227491500Y-106260386D01*
X227491500Y-106291377D01*
X227491498Y-106292147D01*
X227491024Y-106369721D01*
X227491408Y-106371065D01*
X227491500Y-106372410D01*
X227491500Y-119291377D01*
X227491498Y-119292147D01*
X227491024Y-119369721D01*
X222508124Y-119369721D01*
X222508296Y-119341494D01*
X222508329Y-119340711D01*
X222508500Y-119339614D01*
X222508500Y-119308623D01*
X222508502Y-119307853D01*
X222508952Y-119234215D01*
X222508952Y-119234214D01*
X222508976Y-119230279D01*
X222508592Y-119228935D01*
X222508500Y-119227590D01*
X222508500Y-106308623D01*
X222508502Y-106307853D01*
X222508800Y-106259102D01*
X222508976Y-106230279D01*
X222500850Y-106201847D01*
X222497272Y-106185085D01*
X222494352Y-106164698D01*
X222493080Y-106155813D01*
X222482451Y-106132436D01*
X222476004Y-106114913D01*
X222471416Y-106098862D01*
X222468949Y-106090229D01*
X222464156Y-106082632D01*
X222453170Y-106065220D01*
X222445030Y-106050135D01*
X222442564Y-106044711D01*
X222432792Y-106023218D01*
X222416030Y-106003765D01*
X222404927Y-105988761D01*
X222391224Y-105967042D01*
X222384499Y-105961103D01*
X222384496Y-105961099D01*
X222369062Y-105947468D01*
X222357018Y-105935276D01*
X222343573Y-105919673D01*
X222343570Y-105919671D01*
X222337713Y-105912873D01*
X222324009Y-105903990D01*
X222316165Y-105898906D01*
X222301291Y-105887615D01*
X222288783Y-105876569D01*
X222288782Y-105876568D01*
X222282049Y-105870622D01*
X222255287Y-105858057D01*
X222240309Y-105849737D01*
X222223017Y-105838529D01*
X222223012Y-105838527D01*
X222215485Y-105833648D01*
X222206892Y-105831078D01*
X222206887Y-105831076D01*
X222190880Y-105826289D01*
X222173436Y-105819628D01*
X222158324Y-105812533D01*
X222158322Y-105812532D01*
X222150200Y-105808719D01*
X222141333Y-105807338D01*
X222141332Y-105807338D01*
X222130478Y-105805648D01*
X222120983Y-105804170D01*
X222104268Y-105800387D01*
X222084534Y-105794485D01*
X222084528Y-105794484D01*
X222075934Y-105791914D01*
X222066963Y-105791859D01*
X222066962Y-105791859D01*
X222056903Y-105791798D01*
X222041494Y-105791704D01*
X222040711Y-105791671D01*
X222039614Y-105791500D01*
X222008623Y-105791500D01*
X222007853Y-105791498D01*
X221934215Y-105791048D01*
X221934214Y-105791048D01*
X221930279Y-105791024D01*
X221928935Y-105791408D01*
X221927590Y-105791500D01*
X209008623Y-105791500D01*
X209007853Y-105791498D01*
X209007037Y-105791493D01*
X208930279Y-105791024D01*
X208907918Y-105797415D01*
X208901847Y-105799150D01*
X208885085Y-105802728D01*
X208855813Y-105806920D01*
X208847645Y-105810634D01*
X208847644Y-105810634D01*
X208832438Y-105817548D01*
X208814914Y-105823996D01*
X208790229Y-105831051D01*
X208782635Y-105835843D01*
X208782632Y-105835844D01*
X208765220Y-105846830D01*
X208750137Y-105854969D01*
X208723218Y-105867208D01*
X208716416Y-105873069D01*
X208703765Y-105883970D01*
X208688761Y-105895073D01*
X208667042Y-105908776D01*
X208661103Y-105915501D01*
X208661099Y-105915504D01*
X208647468Y-105930938D01*
X208635276Y-105942982D01*
X208619673Y-105956427D01*
X208619671Y-105956430D01*
X208612873Y-105962287D01*
X208607993Y-105969816D01*
X208607992Y-105969817D01*
X208598906Y-105983835D01*
X208587615Y-105998709D01*
X208576569Y-106011217D01*
X208570622Y-106017951D01*
X208564312Y-106031391D01*
X208558058Y-106044711D01*
X208549737Y-106059691D01*
X208538529Y-106076983D01*
X208538527Y-106076988D01*
X208533648Y-106084515D01*
X208531078Y-106093108D01*
X208531076Y-106093113D01*
X208526289Y-106109120D01*
X208519628Y-106126564D01*
X208512533Y-106141676D01*
X208508719Y-106149800D01*
X208507338Y-106158667D01*
X208507338Y-106158668D01*
X208504170Y-106179015D01*
X208500387Y-106195732D01*
X208494485Y-106215466D01*
X208494484Y-106215472D01*
X208491914Y-106224066D01*
X208491859Y-106233037D01*
X208491859Y-106233038D01*
X208491704Y-106258497D01*
X208491671Y-106259289D01*
X208491500Y-106260386D01*
X208491500Y-106291377D01*
X208491498Y-106292147D01*
X208491024Y-106369721D01*
X208491408Y-106371065D01*
X208491500Y-106372410D01*
X208491500Y-119291377D01*
X208491498Y-119292147D01*
X208491024Y-119369721D01*
X203508124Y-119369721D01*
X203508296Y-119341494D01*
X203508329Y-119340711D01*
X203508500Y-119339614D01*
X203508500Y-119308623D01*
X203508502Y-119307853D01*
X203508952Y-119234215D01*
X203508952Y-119234214D01*
X203508976Y-119230279D01*
X203508592Y-119228935D01*
X203508500Y-119227590D01*
X203508500Y-106308623D01*
X203508502Y-106307853D01*
X203508800Y-106259102D01*
X203508976Y-106230279D01*
X203500850Y-106201847D01*
X203497272Y-106185085D01*
X203494352Y-106164698D01*
X203493080Y-106155813D01*
X203482451Y-106132436D01*
X203476004Y-106114913D01*
X203471416Y-106098862D01*
X203468949Y-106090229D01*
X203464156Y-106082632D01*
X203453170Y-106065220D01*
X203445030Y-106050135D01*
X203442564Y-106044711D01*
X203432792Y-106023218D01*
X203416030Y-106003765D01*
X203404927Y-105988761D01*
X203391224Y-105967042D01*
X203384499Y-105961103D01*
X203384496Y-105961099D01*
X203369062Y-105947468D01*
X203357018Y-105935276D01*
X203343573Y-105919673D01*
X203343570Y-105919671D01*
X203337713Y-105912873D01*
X203324009Y-105903990D01*
X203316165Y-105898906D01*
X203301291Y-105887615D01*
X203288783Y-105876569D01*
X203288782Y-105876568D01*
X203282049Y-105870622D01*
X203255287Y-105858057D01*
X203240309Y-105849737D01*
X203223017Y-105838529D01*
X203223012Y-105838527D01*
X203215485Y-105833648D01*
X203206892Y-105831078D01*
X203206887Y-105831076D01*
X203190880Y-105826289D01*
X203173436Y-105819628D01*
X203158324Y-105812533D01*
X203158322Y-105812532D01*
X203150200Y-105808719D01*
X203141333Y-105807338D01*
X203141332Y-105807338D01*
X203130478Y-105805648D01*
X203120983Y-105804170D01*
X203104268Y-105800387D01*
X203084534Y-105794485D01*
X203084528Y-105794484D01*
X203075934Y-105791914D01*
X203066963Y-105791859D01*
X203066962Y-105791859D01*
X203056903Y-105791798D01*
X203041494Y-105791704D01*
X203040711Y-105791671D01*
X203039614Y-105791500D01*
X203008623Y-105791500D01*
X203007853Y-105791498D01*
X202934215Y-105791048D01*
X202934214Y-105791048D01*
X202930279Y-105791024D01*
X202928935Y-105791408D01*
X202927590Y-105791500D01*
X190008623Y-105791500D01*
X190007853Y-105791498D01*
X190007037Y-105791493D01*
X189930279Y-105791024D01*
X189907918Y-105797415D01*
X189901847Y-105799150D01*
X189885085Y-105802728D01*
X189855813Y-105806920D01*
X189847645Y-105810634D01*
X189847644Y-105810634D01*
X189832438Y-105817548D01*
X189814914Y-105823996D01*
X189790229Y-105831051D01*
X189782635Y-105835843D01*
X189782632Y-105835844D01*
X189765220Y-105846830D01*
X189750137Y-105854969D01*
X189723218Y-105867208D01*
X189716416Y-105873069D01*
X189703765Y-105883970D01*
X189688761Y-105895073D01*
X189667042Y-105908776D01*
X189661103Y-105915501D01*
X189661099Y-105915504D01*
X189647468Y-105930938D01*
X189635276Y-105942982D01*
X189619673Y-105956427D01*
X189619671Y-105956430D01*
X189612873Y-105962287D01*
X189607993Y-105969816D01*
X189607992Y-105969817D01*
X189598906Y-105983835D01*
X189587615Y-105998709D01*
X189576569Y-106011217D01*
X189570622Y-106017951D01*
X189564312Y-106031391D01*
X189558058Y-106044711D01*
X189549737Y-106059691D01*
X189538529Y-106076983D01*
X189538527Y-106076988D01*
X189533648Y-106084515D01*
X189531078Y-106093108D01*
X189531076Y-106093113D01*
X189526289Y-106109120D01*
X189519628Y-106126564D01*
X189512533Y-106141676D01*
X189508719Y-106149800D01*
X189507338Y-106158667D01*
X189507338Y-106158668D01*
X189504170Y-106179015D01*
X189500387Y-106195732D01*
X189494485Y-106215466D01*
X189494484Y-106215472D01*
X189491914Y-106224066D01*
X189491859Y-106233037D01*
X189491859Y-106233038D01*
X189491704Y-106258497D01*
X189491671Y-106259289D01*
X189491500Y-106260386D01*
X189491500Y-106291377D01*
X189491498Y-106292147D01*
X189491024Y-106369721D01*
X189491408Y-106371065D01*
X189491500Y-106372410D01*
X189491500Y-119291377D01*
X189491498Y-119292147D01*
X189491024Y-119369721D01*
X175008124Y-119369721D01*
X175008296Y-119341494D01*
X175008329Y-119340711D01*
X175008500Y-119339614D01*
X175008500Y-119308623D01*
X175008502Y-119307853D01*
X175008952Y-119234215D01*
X175008952Y-119234214D01*
X175008976Y-119230279D01*
X175008592Y-119228935D01*
X175008500Y-119227590D01*
X175008500Y-106308623D01*
X175008502Y-106307853D01*
X175008800Y-106259102D01*
X175008976Y-106230279D01*
X175000850Y-106201847D01*
X174997272Y-106185085D01*
X174994352Y-106164698D01*
X174993080Y-106155813D01*
X174982451Y-106132436D01*
X174976004Y-106114913D01*
X174971416Y-106098862D01*
X174968949Y-106090229D01*
X174964156Y-106082632D01*
X174953170Y-106065220D01*
X174945030Y-106050135D01*
X174942564Y-106044711D01*
X174932792Y-106023218D01*
X174916030Y-106003765D01*
X174904927Y-105988761D01*
X174891224Y-105967042D01*
X174884499Y-105961103D01*
X174884496Y-105961099D01*
X174869062Y-105947468D01*
X174857018Y-105935276D01*
X174843573Y-105919673D01*
X174843570Y-105919671D01*
X174837713Y-105912873D01*
X174824009Y-105903990D01*
X174816165Y-105898906D01*
X174801291Y-105887615D01*
X174788783Y-105876569D01*
X174788782Y-105876568D01*
X174782049Y-105870622D01*
X174755287Y-105858057D01*
X174740309Y-105849737D01*
X174723017Y-105838529D01*
X174723012Y-105838527D01*
X174715485Y-105833648D01*
X174706892Y-105831078D01*
X174706887Y-105831076D01*
X174690880Y-105826289D01*
X174673436Y-105819628D01*
X174658324Y-105812533D01*
X174658322Y-105812532D01*
X174650200Y-105808719D01*
X174641333Y-105807338D01*
X174641332Y-105807338D01*
X174630478Y-105805648D01*
X174620983Y-105804170D01*
X174604268Y-105800387D01*
X174584534Y-105794485D01*
X174584528Y-105794484D01*
X174575934Y-105791914D01*
X174566963Y-105791859D01*
X174566962Y-105791859D01*
X174556903Y-105791798D01*
X174541494Y-105791704D01*
X174540711Y-105791671D01*
X174539614Y-105791500D01*
X174508623Y-105791500D01*
X174507853Y-105791498D01*
X174434215Y-105791048D01*
X174434214Y-105791048D01*
X174430279Y-105791024D01*
X174428935Y-105791408D01*
X174427590Y-105791500D01*
X161508623Y-105791500D01*
X161507853Y-105791498D01*
X161507037Y-105791493D01*
X161430279Y-105791024D01*
X161407918Y-105797415D01*
X161401847Y-105799150D01*
X161385085Y-105802728D01*
X161355813Y-105806920D01*
X161347645Y-105810634D01*
X161347644Y-105810634D01*
X161332438Y-105817548D01*
X161314914Y-105823996D01*
X161290229Y-105831051D01*
X161282635Y-105835843D01*
X161282632Y-105835844D01*
X161265220Y-105846830D01*
X161250137Y-105854969D01*
X161223218Y-105867208D01*
X161216416Y-105873069D01*
X161203765Y-105883970D01*
X161188761Y-105895073D01*
X161167042Y-105908776D01*
X161161103Y-105915501D01*
X161161099Y-105915504D01*
X161147468Y-105930938D01*
X161135276Y-105942982D01*
X161119673Y-105956427D01*
X161119671Y-105956430D01*
X161112873Y-105962287D01*
X161107993Y-105969816D01*
X161107992Y-105969817D01*
X161098906Y-105983835D01*
X161087615Y-105998709D01*
X161076569Y-106011217D01*
X161070622Y-106017951D01*
X161064312Y-106031391D01*
X161058058Y-106044711D01*
X161049737Y-106059691D01*
X161038529Y-106076983D01*
X161038527Y-106076988D01*
X161033648Y-106084515D01*
X161031078Y-106093108D01*
X161031076Y-106093113D01*
X161026289Y-106109120D01*
X161019628Y-106126564D01*
X161012533Y-106141676D01*
X161008719Y-106149800D01*
X161007338Y-106158667D01*
X161007338Y-106158668D01*
X161004170Y-106179015D01*
X161000387Y-106195732D01*
X160994485Y-106215466D01*
X160994484Y-106215472D01*
X160991914Y-106224066D01*
X160991859Y-106233037D01*
X160991859Y-106233038D01*
X160991704Y-106258497D01*
X160991671Y-106259289D01*
X160991500Y-106260386D01*
X160991500Y-106291377D01*
X160991498Y-106292147D01*
X160991024Y-106369721D01*
X160991408Y-106371065D01*
X160991500Y-106372410D01*
X160991500Y-119291377D01*
X160991498Y-119292147D01*
X160991024Y-119369721D01*
X146508124Y-119369721D01*
X146508296Y-119341494D01*
X146508329Y-119340711D01*
X146508500Y-119339614D01*
X146508500Y-119308623D01*
X146508502Y-119307853D01*
X146508952Y-119234215D01*
X146508952Y-119234214D01*
X146508976Y-119230279D01*
X146508592Y-119228935D01*
X146508500Y-119227590D01*
X146508500Y-106308623D01*
X146508502Y-106307853D01*
X146508800Y-106259102D01*
X146508976Y-106230279D01*
X146500850Y-106201847D01*
X146497272Y-106185085D01*
X146494352Y-106164698D01*
X146493080Y-106155813D01*
X146482451Y-106132436D01*
X146476004Y-106114913D01*
X146471416Y-106098862D01*
X146468949Y-106090229D01*
X146464156Y-106082632D01*
X146453170Y-106065220D01*
X146445030Y-106050135D01*
X146442564Y-106044711D01*
X146432792Y-106023218D01*
X146416030Y-106003765D01*
X146404927Y-105988761D01*
X146391224Y-105967042D01*
X146384499Y-105961103D01*
X146384496Y-105961099D01*
X146369062Y-105947468D01*
X146357018Y-105935276D01*
X146343573Y-105919673D01*
X146343570Y-105919671D01*
X146337713Y-105912873D01*
X146324009Y-105903990D01*
X146316165Y-105898906D01*
X146301291Y-105887615D01*
X146288783Y-105876569D01*
X146288782Y-105876568D01*
X146282049Y-105870622D01*
X146255287Y-105858057D01*
X146240309Y-105849737D01*
X146223017Y-105838529D01*
X146223012Y-105838527D01*
X146215485Y-105833648D01*
X146206892Y-105831078D01*
X146206887Y-105831076D01*
X146190880Y-105826289D01*
X146173436Y-105819628D01*
X146158324Y-105812533D01*
X146158322Y-105812532D01*
X146150200Y-105808719D01*
X146141333Y-105807338D01*
X146141332Y-105807338D01*
X146130478Y-105805648D01*
X146120983Y-105804170D01*
X146104268Y-105800387D01*
X146084534Y-105794485D01*
X146084528Y-105794484D01*
X146075934Y-105791914D01*
X146066963Y-105791859D01*
X146066962Y-105791859D01*
X146056903Y-105791798D01*
X146041494Y-105791704D01*
X146040711Y-105791671D01*
X146039614Y-105791500D01*
X146008623Y-105791500D01*
X146007853Y-105791498D01*
X145934215Y-105791048D01*
X145934214Y-105791048D01*
X145930279Y-105791024D01*
X145928935Y-105791408D01*
X145927590Y-105791500D01*
X133008623Y-105791500D01*
X133007853Y-105791498D01*
X133007037Y-105791493D01*
X132930279Y-105791024D01*
X132907918Y-105797415D01*
X132901847Y-105799150D01*
X132885085Y-105802728D01*
X132855813Y-105806920D01*
X132847645Y-105810634D01*
X132847644Y-105810634D01*
X132832438Y-105817548D01*
X132814914Y-105823996D01*
X132790229Y-105831051D01*
X132782635Y-105835843D01*
X132782632Y-105835844D01*
X132765220Y-105846830D01*
X132750137Y-105854969D01*
X132723218Y-105867208D01*
X132716416Y-105873069D01*
X132703765Y-105883970D01*
X132688761Y-105895073D01*
X132667042Y-105908776D01*
X132661103Y-105915501D01*
X132661099Y-105915504D01*
X132647468Y-105930938D01*
X132635276Y-105942982D01*
X132619673Y-105956427D01*
X132619671Y-105956430D01*
X132612873Y-105962287D01*
X132607993Y-105969816D01*
X132607992Y-105969817D01*
X132598906Y-105983835D01*
X132587615Y-105998709D01*
X132576569Y-106011217D01*
X132570622Y-106017951D01*
X132564312Y-106031391D01*
X132558058Y-106044711D01*
X132549737Y-106059691D01*
X132538529Y-106076983D01*
X132538527Y-106076988D01*
X132533648Y-106084515D01*
X132531078Y-106093108D01*
X132531076Y-106093113D01*
X132526289Y-106109120D01*
X132519628Y-106126564D01*
X132512533Y-106141676D01*
X132508719Y-106149800D01*
X132507338Y-106158667D01*
X132507338Y-106158668D01*
X132504170Y-106179015D01*
X132500387Y-106195732D01*
X132494485Y-106215466D01*
X132494484Y-106215472D01*
X132491914Y-106224066D01*
X132491859Y-106233037D01*
X132491859Y-106233038D01*
X132491704Y-106258497D01*
X132491671Y-106259289D01*
X132491500Y-106260386D01*
X132491500Y-106291377D01*
X132491498Y-106292147D01*
X132491024Y-106369721D01*
X132491408Y-106371065D01*
X132491500Y-106372410D01*
X132491500Y-119291377D01*
X132491498Y-119292147D01*
X132491024Y-119369721D01*
X127508124Y-119369721D01*
X127508296Y-119341494D01*
X127508329Y-119340711D01*
X127508500Y-119339614D01*
X127508500Y-119308623D01*
X127508502Y-119307853D01*
X127508952Y-119234215D01*
X127508952Y-119234214D01*
X127508976Y-119230279D01*
X127508592Y-119228935D01*
X127508500Y-119227590D01*
X127508500Y-106308623D01*
X127508502Y-106307853D01*
X127508800Y-106259102D01*
X127508976Y-106230279D01*
X127500850Y-106201847D01*
X127497272Y-106185085D01*
X127494352Y-106164698D01*
X127493080Y-106155813D01*
X127482451Y-106132436D01*
X127476004Y-106114913D01*
X127471416Y-106098862D01*
X127468949Y-106090229D01*
X127464156Y-106082632D01*
X127453170Y-106065220D01*
X127445030Y-106050135D01*
X127442564Y-106044711D01*
X127432792Y-106023218D01*
X127416030Y-106003765D01*
X127404927Y-105988761D01*
X127391224Y-105967042D01*
X127384499Y-105961103D01*
X127384496Y-105961099D01*
X127369062Y-105947468D01*
X127357018Y-105935276D01*
X127343573Y-105919673D01*
X127343570Y-105919671D01*
X127337713Y-105912873D01*
X127324009Y-105903990D01*
X127316165Y-105898906D01*
X127301291Y-105887615D01*
X127288783Y-105876569D01*
X127288782Y-105876568D01*
X127282049Y-105870622D01*
X127255287Y-105858057D01*
X127240309Y-105849737D01*
X127223017Y-105838529D01*
X127223012Y-105838527D01*
X127215485Y-105833648D01*
X127206892Y-105831078D01*
X127206887Y-105831076D01*
X127190880Y-105826289D01*
X127173436Y-105819628D01*
X127158324Y-105812533D01*
X127158322Y-105812532D01*
X127150200Y-105808719D01*
X127141333Y-105807338D01*
X127141332Y-105807338D01*
X127130478Y-105805648D01*
X127120983Y-105804170D01*
X127104268Y-105800387D01*
X127084534Y-105794485D01*
X127084528Y-105794484D01*
X127075934Y-105791914D01*
X127066963Y-105791859D01*
X127066962Y-105791859D01*
X127056903Y-105791798D01*
X127041494Y-105791704D01*
X127040711Y-105791671D01*
X127039614Y-105791500D01*
X127008623Y-105791500D01*
X127007853Y-105791498D01*
X126934215Y-105791048D01*
X126934214Y-105791048D01*
X126930279Y-105791024D01*
X126928935Y-105791408D01*
X126927590Y-105791500D01*
X114008623Y-105791500D01*
X114007853Y-105791498D01*
X114007037Y-105791493D01*
X113930279Y-105791024D01*
X113907918Y-105797415D01*
X113901847Y-105799150D01*
X113885085Y-105802728D01*
X113855813Y-105806920D01*
X113847645Y-105810634D01*
X113847644Y-105810634D01*
X113832438Y-105817548D01*
X113814914Y-105823996D01*
X113790229Y-105831051D01*
X113782635Y-105835843D01*
X113782632Y-105835844D01*
X113765220Y-105846830D01*
X113750137Y-105854969D01*
X113723218Y-105867208D01*
X113716416Y-105873069D01*
X113703765Y-105883970D01*
X113688761Y-105895073D01*
X113667042Y-105908776D01*
X113661103Y-105915501D01*
X113661099Y-105915504D01*
X113647468Y-105930938D01*
X113635276Y-105942982D01*
X113619673Y-105956427D01*
X113619671Y-105956430D01*
X113612873Y-105962287D01*
X113607993Y-105969816D01*
X113607992Y-105969817D01*
X113598906Y-105983835D01*
X113587615Y-105998709D01*
X113576569Y-106011217D01*
X113570622Y-106017951D01*
X113564312Y-106031391D01*
X113558058Y-106044711D01*
X113549737Y-106059691D01*
X113538529Y-106076983D01*
X113538527Y-106076988D01*
X113533648Y-106084515D01*
X113531078Y-106093108D01*
X113531076Y-106093113D01*
X113526289Y-106109120D01*
X113519628Y-106126564D01*
X113512533Y-106141676D01*
X113508719Y-106149800D01*
X113507338Y-106158667D01*
X113507338Y-106158668D01*
X113504170Y-106179015D01*
X113500387Y-106195732D01*
X113494485Y-106215466D01*
X113494484Y-106215472D01*
X113491914Y-106224066D01*
X113491859Y-106233037D01*
X113491859Y-106233038D01*
X113491704Y-106258497D01*
X113491671Y-106259289D01*
X113491500Y-106260386D01*
X113491500Y-106291377D01*
X113491498Y-106292147D01*
X113491024Y-106369721D01*
X113491408Y-106371065D01*
X113491500Y-106372410D01*
X113491500Y-119291377D01*
X113491498Y-119292147D01*
X113491024Y-119369721D01*
X108508124Y-119369721D01*
X108508296Y-119341494D01*
X108508329Y-119340711D01*
X108508500Y-119339614D01*
X108508500Y-119308623D01*
X108508502Y-119307853D01*
X108508952Y-119234215D01*
X108508952Y-119234214D01*
X108508976Y-119230279D01*
X108508592Y-119228935D01*
X108508500Y-119227590D01*
X108508500Y-106308623D01*
X108508502Y-106307853D01*
X108508800Y-106259102D01*
X108508976Y-106230279D01*
X108500850Y-106201847D01*
X108497272Y-106185085D01*
X108494352Y-106164698D01*
X108493080Y-106155813D01*
X108482451Y-106132436D01*
X108476004Y-106114913D01*
X108471416Y-106098862D01*
X108468949Y-106090229D01*
X108464156Y-106082632D01*
X108453170Y-106065220D01*
X108445030Y-106050135D01*
X108442564Y-106044711D01*
X108432792Y-106023218D01*
X108416030Y-106003765D01*
X108404927Y-105988761D01*
X108391224Y-105967042D01*
X108384499Y-105961103D01*
X108384496Y-105961099D01*
X108369062Y-105947468D01*
X108357018Y-105935276D01*
X108343573Y-105919673D01*
X108343570Y-105919671D01*
X108337713Y-105912873D01*
X108324009Y-105903990D01*
X108316165Y-105898906D01*
X108301291Y-105887615D01*
X108288783Y-105876569D01*
X108288782Y-105876568D01*
X108282049Y-105870622D01*
X108255287Y-105858057D01*
X108240309Y-105849737D01*
X108223017Y-105838529D01*
X108223012Y-105838527D01*
X108215485Y-105833648D01*
X108206892Y-105831078D01*
X108206887Y-105831076D01*
X108190880Y-105826289D01*
X108173436Y-105819628D01*
X108158324Y-105812533D01*
X108158322Y-105812532D01*
X108150200Y-105808719D01*
X108141333Y-105807338D01*
X108141332Y-105807338D01*
X108130478Y-105805648D01*
X108120983Y-105804170D01*
X108104268Y-105800387D01*
X108084534Y-105794485D01*
X108084528Y-105794484D01*
X108075934Y-105791914D01*
X108066963Y-105791859D01*
X108066962Y-105791859D01*
X108056903Y-105791798D01*
X108041494Y-105791704D01*
X108040711Y-105791671D01*
X108039614Y-105791500D01*
X108008623Y-105791500D01*
X108007853Y-105791498D01*
X107934215Y-105791048D01*
X107934214Y-105791048D01*
X107930279Y-105791024D01*
X107928935Y-105791408D01*
X107927590Y-105791500D01*
X95008623Y-105791500D01*
X95007853Y-105791498D01*
X95007037Y-105791493D01*
X94930279Y-105791024D01*
X94907918Y-105797415D01*
X94901847Y-105799150D01*
X94885085Y-105802728D01*
X94855813Y-105806920D01*
X94847645Y-105810634D01*
X94847644Y-105810634D01*
X94832438Y-105817548D01*
X94814914Y-105823996D01*
X94790229Y-105831051D01*
X94782635Y-105835843D01*
X94782632Y-105835844D01*
X94765220Y-105846830D01*
X94750137Y-105854969D01*
X94723218Y-105867208D01*
X94716416Y-105873069D01*
X94703765Y-105883970D01*
X94688761Y-105895073D01*
X94667042Y-105908776D01*
X94661103Y-105915501D01*
X94661099Y-105915504D01*
X94647468Y-105930938D01*
X94635276Y-105942982D01*
X94619673Y-105956427D01*
X94619671Y-105956430D01*
X94612873Y-105962287D01*
X94607993Y-105969816D01*
X94607992Y-105969817D01*
X94598906Y-105983835D01*
X94587615Y-105998709D01*
X94576569Y-106011217D01*
X94570622Y-106017951D01*
X94564312Y-106031391D01*
X94558058Y-106044711D01*
X94549737Y-106059691D01*
X94538529Y-106076983D01*
X94538527Y-106076988D01*
X94533648Y-106084515D01*
X94531078Y-106093108D01*
X94531076Y-106093113D01*
X94526289Y-106109120D01*
X94519628Y-106126564D01*
X94512533Y-106141676D01*
X94508719Y-106149800D01*
X94507338Y-106158667D01*
X94507338Y-106158668D01*
X94504170Y-106179015D01*
X94500387Y-106195732D01*
X94494485Y-106215466D01*
X94494484Y-106215472D01*
X94491914Y-106224066D01*
X94491859Y-106233037D01*
X94491859Y-106233038D01*
X94491704Y-106258497D01*
X94491671Y-106259289D01*
X94491500Y-106260386D01*
X94491500Y-106291377D01*
X94491498Y-106292147D01*
X94491024Y-106369721D01*
X94491408Y-106371065D01*
X94491500Y-106372410D01*
X94491500Y-119291377D01*
X94491498Y-119292147D01*
X94491024Y-119369721D01*
X89508124Y-119369721D01*
X89508296Y-119341494D01*
X89508329Y-119340711D01*
X89508500Y-119339614D01*
X89508500Y-119308623D01*
X89508502Y-119307853D01*
X89508952Y-119234215D01*
X89508952Y-119234214D01*
X89508976Y-119230279D01*
X89508592Y-119228935D01*
X89508500Y-119227590D01*
X89508500Y-106308623D01*
X89508502Y-106307853D01*
X89508800Y-106259102D01*
X89508976Y-106230279D01*
X89500850Y-106201847D01*
X89497272Y-106185085D01*
X89494352Y-106164698D01*
X89493080Y-106155813D01*
X89482451Y-106132436D01*
X89476004Y-106114913D01*
X89471416Y-106098862D01*
X89468949Y-106090229D01*
X89464156Y-106082632D01*
X89453170Y-106065220D01*
X89445030Y-106050135D01*
X89442564Y-106044711D01*
X89432792Y-106023218D01*
X89416030Y-106003765D01*
X89404927Y-105988761D01*
X89391224Y-105967042D01*
X89384499Y-105961103D01*
X89384496Y-105961099D01*
X89369062Y-105947468D01*
X89357018Y-105935276D01*
X89343573Y-105919673D01*
X89343570Y-105919671D01*
X89337713Y-105912873D01*
X89324009Y-105903990D01*
X89316165Y-105898906D01*
X89301291Y-105887615D01*
X89288783Y-105876569D01*
X89288782Y-105876568D01*
X89282049Y-105870622D01*
X89255287Y-105858057D01*
X89240309Y-105849737D01*
X89223017Y-105838529D01*
X89223012Y-105838527D01*
X89215485Y-105833648D01*
X89206892Y-105831078D01*
X89206887Y-105831076D01*
X89190880Y-105826289D01*
X89173436Y-105819628D01*
X89158324Y-105812533D01*
X89158322Y-105812532D01*
X89150200Y-105808719D01*
X89141333Y-105807338D01*
X89141332Y-105807338D01*
X89130478Y-105805648D01*
X89120983Y-105804170D01*
X89104268Y-105800387D01*
X89084534Y-105794485D01*
X89084528Y-105794484D01*
X89075934Y-105791914D01*
X89066963Y-105791859D01*
X89066962Y-105791859D01*
X89056903Y-105791798D01*
X89041494Y-105791704D01*
X89040711Y-105791671D01*
X89039614Y-105791500D01*
X89008623Y-105791500D01*
X89007853Y-105791498D01*
X88934215Y-105791048D01*
X88934214Y-105791048D01*
X88930279Y-105791024D01*
X88928935Y-105791408D01*
X88927590Y-105791500D01*
X76008623Y-105791500D01*
X76007853Y-105791498D01*
X76007037Y-105791493D01*
X75930279Y-105791024D01*
X75907918Y-105797415D01*
X75901847Y-105799150D01*
X75885085Y-105802728D01*
X75855813Y-105806920D01*
X75847645Y-105810634D01*
X75847644Y-105810634D01*
X75832438Y-105817548D01*
X75814914Y-105823996D01*
X75790229Y-105831051D01*
X75782635Y-105835843D01*
X75782632Y-105835844D01*
X75765220Y-105846830D01*
X75750137Y-105854969D01*
X75723218Y-105867208D01*
X75716416Y-105873069D01*
X75703765Y-105883970D01*
X75688761Y-105895073D01*
X75667042Y-105908776D01*
X75661103Y-105915501D01*
X75661099Y-105915504D01*
X75647468Y-105930938D01*
X75635276Y-105942982D01*
X75619673Y-105956427D01*
X75619671Y-105956430D01*
X75612873Y-105962287D01*
X75607993Y-105969816D01*
X75607992Y-105969817D01*
X75598906Y-105983835D01*
X75587615Y-105998709D01*
X75576569Y-106011217D01*
X75570622Y-106017951D01*
X75564312Y-106031391D01*
X75558058Y-106044711D01*
X75549737Y-106059691D01*
X75538529Y-106076983D01*
X75538527Y-106076988D01*
X75533648Y-106084515D01*
X75531078Y-106093108D01*
X75531076Y-106093113D01*
X75526289Y-106109120D01*
X75519628Y-106126564D01*
X75512533Y-106141676D01*
X75508719Y-106149800D01*
X75507338Y-106158667D01*
X75507338Y-106158668D01*
X75504170Y-106179015D01*
X75500387Y-106195732D01*
X75494485Y-106215466D01*
X75494484Y-106215472D01*
X75491914Y-106224066D01*
X75491859Y-106233037D01*
X75491859Y-106233038D01*
X75491704Y-106258497D01*
X75491671Y-106259289D01*
X75491500Y-106260386D01*
X75491500Y-106291377D01*
X75491498Y-106292147D01*
X75491024Y-106369721D01*
X75491408Y-106371065D01*
X75491500Y-106372410D01*
X75491500Y-119291377D01*
X75491498Y-119292147D01*
X75491024Y-119369721D01*
X31508500Y-119369721D01*
X31508500Y-100369721D01*
X75491024Y-100369721D01*
X75495258Y-100384534D01*
X75499150Y-100398153D01*
X75502728Y-100414915D01*
X75506920Y-100444187D01*
X75517312Y-100467042D01*
X75517548Y-100467562D01*
X75523996Y-100485086D01*
X75531051Y-100509771D01*
X75535843Y-100517365D01*
X75535844Y-100517368D01*
X75546830Y-100534780D01*
X75554969Y-100549863D01*
X75567208Y-100576782D01*
X75573069Y-100583584D01*
X75583970Y-100596235D01*
X75595073Y-100611239D01*
X75608776Y-100632958D01*
X75615501Y-100638897D01*
X75615504Y-100638901D01*
X75630938Y-100652532D01*
X75642982Y-100664724D01*
X75656427Y-100680327D01*
X75656430Y-100680329D01*
X75662287Y-100687127D01*
X75669816Y-100692007D01*
X75669817Y-100692008D01*
X75683835Y-100701094D01*
X75698709Y-100712385D01*
X75709198Y-100721648D01*
X75717951Y-100729378D01*
X75738986Y-100739254D01*
X75744711Y-100741942D01*
X75759691Y-100750263D01*
X75776983Y-100761471D01*
X75776988Y-100761473D01*
X75784515Y-100766352D01*
X75793108Y-100768922D01*
X75793113Y-100768924D01*
X75809120Y-100773711D01*
X75826564Y-100780372D01*
X75841676Y-100787467D01*
X75841678Y-100787468D01*
X75849800Y-100791281D01*
X75858667Y-100792662D01*
X75858668Y-100792662D01*
X75861353Y-100793080D01*
X75879017Y-100795830D01*
X75895732Y-100799613D01*
X75915466Y-100805515D01*
X75915472Y-100805516D01*
X75924066Y-100808086D01*
X75933037Y-100808141D01*
X75933038Y-100808141D01*
X75943097Y-100808202D01*
X75958506Y-100808296D01*
X75959289Y-100808329D01*
X75960386Y-100808500D01*
X75991377Y-100808500D01*
X75992147Y-100808502D01*
X76065785Y-100808952D01*
X76065786Y-100808952D01*
X76069721Y-100808976D01*
X76071065Y-100808592D01*
X76072410Y-100808500D01*
X88991377Y-100808500D01*
X88992148Y-100808502D01*
X89069721Y-100808976D01*
X89098152Y-100800850D01*
X89114915Y-100797272D01*
X89115753Y-100797152D01*
X89144187Y-100793080D01*
X89167564Y-100782451D01*
X89185087Y-100776004D01*
X89209771Y-100768949D01*
X89217365Y-100764157D01*
X89217368Y-100764156D01*
X89234780Y-100753170D01*
X89249865Y-100745030D01*
X89276782Y-100732792D01*
X89296235Y-100716030D01*
X89311239Y-100704927D01*
X89332958Y-100691224D01*
X89338897Y-100684499D01*
X89338901Y-100684496D01*
X89352532Y-100669062D01*
X89364724Y-100657018D01*
X89380327Y-100643573D01*
X89380329Y-100643570D01*
X89387127Y-100637713D01*
X89399848Y-100618088D01*
X89401094Y-100616165D01*
X89412385Y-100601291D01*
X89423431Y-100588783D01*
X89423432Y-100588782D01*
X89429378Y-100582049D01*
X89441943Y-100555287D01*
X89450263Y-100540309D01*
X89461471Y-100523017D01*
X89461473Y-100523012D01*
X89466352Y-100515485D01*
X89468922Y-100506892D01*
X89468924Y-100506887D01*
X89473711Y-100490880D01*
X89480372Y-100473436D01*
X89487467Y-100458324D01*
X89487468Y-100458322D01*
X89491281Y-100450200D01*
X89495830Y-100420983D01*
X89499613Y-100404268D01*
X89505515Y-100384534D01*
X89505516Y-100384528D01*
X89508086Y-100375934D01*
X89508124Y-100369721D01*
X94491024Y-100369721D01*
X94495258Y-100384534D01*
X94499150Y-100398153D01*
X94502728Y-100414915D01*
X94506920Y-100444187D01*
X94517312Y-100467042D01*
X94517548Y-100467562D01*
X94523996Y-100485086D01*
X94531051Y-100509771D01*
X94535843Y-100517365D01*
X94535844Y-100517368D01*
X94546830Y-100534780D01*
X94554969Y-100549863D01*
X94567208Y-100576782D01*
X94573069Y-100583584D01*
X94583970Y-100596235D01*
X94595073Y-100611239D01*
X94608776Y-100632958D01*
X94615501Y-100638897D01*
X94615504Y-100638901D01*
X94630938Y-100652532D01*
X94642982Y-100664724D01*
X94656427Y-100680327D01*
X94656430Y-100680329D01*
X94662287Y-100687127D01*
X94669816Y-100692007D01*
X94669817Y-100692008D01*
X94683835Y-100701094D01*
X94698709Y-100712385D01*
X94709198Y-100721648D01*
X94717951Y-100729378D01*
X94738986Y-100739254D01*
X94744711Y-100741942D01*
X94759691Y-100750263D01*
X94776983Y-100761471D01*
X94776988Y-100761473D01*
X94784515Y-100766352D01*
X94793108Y-100768922D01*
X94793113Y-100768924D01*
X94809120Y-100773711D01*
X94826564Y-100780372D01*
X94841676Y-100787467D01*
X94841678Y-100787468D01*
X94849800Y-100791281D01*
X94858667Y-100792662D01*
X94858668Y-100792662D01*
X94861353Y-100793080D01*
X94879017Y-100795830D01*
X94895732Y-100799613D01*
X94915466Y-100805515D01*
X94915472Y-100805516D01*
X94924066Y-100808086D01*
X94933037Y-100808141D01*
X94933038Y-100808141D01*
X94943097Y-100808202D01*
X94958506Y-100808296D01*
X94959289Y-100808329D01*
X94960386Y-100808500D01*
X94991377Y-100808500D01*
X94992147Y-100808502D01*
X95065785Y-100808952D01*
X95065786Y-100808952D01*
X95069721Y-100808976D01*
X95071065Y-100808592D01*
X95072410Y-100808500D01*
X107991377Y-100808500D01*
X107992148Y-100808502D01*
X108069721Y-100808976D01*
X108098152Y-100800850D01*
X108114915Y-100797272D01*
X108115753Y-100797152D01*
X108144187Y-100793080D01*
X108167564Y-100782451D01*
X108185087Y-100776004D01*
X108209771Y-100768949D01*
X108217365Y-100764157D01*
X108217368Y-100764156D01*
X108234780Y-100753170D01*
X108249865Y-100745030D01*
X108276782Y-100732792D01*
X108296235Y-100716030D01*
X108311239Y-100704927D01*
X108332958Y-100691224D01*
X108338897Y-100684499D01*
X108338901Y-100684496D01*
X108352532Y-100669062D01*
X108364724Y-100657018D01*
X108380327Y-100643573D01*
X108380329Y-100643570D01*
X108387127Y-100637713D01*
X108399848Y-100618088D01*
X108401094Y-100616165D01*
X108412385Y-100601291D01*
X108423431Y-100588783D01*
X108423432Y-100588782D01*
X108429378Y-100582049D01*
X108441943Y-100555287D01*
X108450263Y-100540309D01*
X108461471Y-100523017D01*
X108461473Y-100523012D01*
X108466352Y-100515485D01*
X108468922Y-100506892D01*
X108468924Y-100506887D01*
X108473711Y-100490880D01*
X108480372Y-100473436D01*
X108487467Y-100458324D01*
X108487468Y-100458322D01*
X108491281Y-100450200D01*
X108495830Y-100420983D01*
X108499613Y-100404268D01*
X108505515Y-100384534D01*
X108505516Y-100384528D01*
X108508086Y-100375934D01*
X108508124Y-100369721D01*
X113491024Y-100369721D01*
X113495258Y-100384534D01*
X113499150Y-100398153D01*
X113502728Y-100414915D01*
X113506920Y-100444187D01*
X113517312Y-100467042D01*
X113517548Y-100467562D01*
X113523996Y-100485086D01*
X113531051Y-100509771D01*
X113535843Y-100517365D01*
X113535844Y-100517368D01*
X113546830Y-100534780D01*
X113554969Y-100549863D01*
X113567208Y-100576782D01*
X113573069Y-100583584D01*
X113583970Y-100596235D01*
X113595073Y-100611239D01*
X113608776Y-100632958D01*
X113615501Y-100638897D01*
X113615504Y-100638901D01*
X113630938Y-100652532D01*
X113642982Y-100664724D01*
X113656427Y-100680327D01*
X113656430Y-100680329D01*
X113662287Y-100687127D01*
X113669816Y-100692007D01*
X113669817Y-100692008D01*
X113683835Y-100701094D01*
X113698709Y-100712385D01*
X113709198Y-100721648D01*
X113717951Y-100729378D01*
X113738986Y-100739254D01*
X113744711Y-100741942D01*
X113759691Y-100750263D01*
X113776983Y-100761471D01*
X113776988Y-100761473D01*
X113784515Y-100766352D01*
X113793108Y-100768922D01*
X113793113Y-100768924D01*
X113809120Y-100773711D01*
X113826564Y-100780372D01*
X113841676Y-100787467D01*
X113841678Y-100787468D01*
X113849800Y-100791281D01*
X113858667Y-100792662D01*
X113858668Y-100792662D01*
X113861353Y-100793080D01*
X113879017Y-100795830D01*
X113895732Y-100799613D01*
X113915466Y-100805515D01*
X113915472Y-100805516D01*
X113924066Y-100808086D01*
X113933037Y-100808141D01*
X113933038Y-100808141D01*
X113943097Y-100808202D01*
X113958506Y-100808296D01*
X113959289Y-100808329D01*
X113960386Y-100808500D01*
X113991377Y-100808500D01*
X113992147Y-100808502D01*
X114065785Y-100808952D01*
X114065786Y-100808952D01*
X114069721Y-100808976D01*
X114071065Y-100808592D01*
X114072410Y-100808500D01*
X126991377Y-100808500D01*
X126992148Y-100808502D01*
X127069721Y-100808976D01*
X127098152Y-100800850D01*
X127114915Y-100797272D01*
X127115753Y-100797152D01*
X127144187Y-100793080D01*
X127167564Y-100782451D01*
X127185087Y-100776004D01*
X127209771Y-100768949D01*
X127217365Y-100764157D01*
X127217368Y-100764156D01*
X127234780Y-100753170D01*
X127249865Y-100745030D01*
X127276782Y-100732792D01*
X127296235Y-100716030D01*
X127311239Y-100704927D01*
X127332958Y-100691224D01*
X127338897Y-100684499D01*
X127338901Y-100684496D01*
X127352532Y-100669062D01*
X127364724Y-100657018D01*
X127380327Y-100643573D01*
X127380329Y-100643570D01*
X127387127Y-100637713D01*
X127399848Y-100618088D01*
X127401094Y-100616165D01*
X127412385Y-100601291D01*
X127423431Y-100588783D01*
X127423432Y-100588782D01*
X127429378Y-100582049D01*
X127441943Y-100555287D01*
X127450263Y-100540309D01*
X127461471Y-100523017D01*
X127461473Y-100523012D01*
X127466352Y-100515485D01*
X127468922Y-100506892D01*
X127468924Y-100506887D01*
X127473711Y-100490880D01*
X127480372Y-100473436D01*
X127487467Y-100458324D01*
X127487468Y-100458322D01*
X127491281Y-100450200D01*
X127495830Y-100420983D01*
X127499613Y-100404268D01*
X127505515Y-100384534D01*
X127505516Y-100384528D01*
X127508086Y-100375934D01*
X127508124Y-100369721D01*
X132491024Y-100369721D01*
X132495258Y-100384534D01*
X132499150Y-100398153D01*
X132502728Y-100414915D01*
X132506920Y-100444187D01*
X132517312Y-100467042D01*
X132517548Y-100467562D01*
X132523996Y-100485086D01*
X132531051Y-100509771D01*
X132535843Y-100517365D01*
X132535844Y-100517368D01*
X132546830Y-100534780D01*
X132554969Y-100549863D01*
X132567208Y-100576782D01*
X132573069Y-100583584D01*
X132583970Y-100596235D01*
X132595073Y-100611239D01*
X132608776Y-100632958D01*
X132615501Y-100638897D01*
X132615504Y-100638901D01*
X132630938Y-100652532D01*
X132642982Y-100664724D01*
X132656427Y-100680327D01*
X132656430Y-100680329D01*
X132662287Y-100687127D01*
X132669816Y-100692007D01*
X132669817Y-100692008D01*
X132683835Y-100701094D01*
X132698709Y-100712385D01*
X132709198Y-100721648D01*
X132717951Y-100729378D01*
X132738986Y-100739254D01*
X132744711Y-100741942D01*
X132759691Y-100750263D01*
X132776983Y-100761471D01*
X132776988Y-100761473D01*
X132784515Y-100766352D01*
X132793108Y-100768922D01*
X132793113Y-100768924D01*
X132809120Y-100773711D01*
X132826564Y-100780372D01*
X132841676Y-100787467D01*
X132841678Y-100787468D01*
X132849800Y-100791281D01*
X132858667Y-100792662D01*
X132858668Y-100792662D01*
X132861353Y-100793080D01*
X132879017Y-100795830D01*
X132895732Y-100799613D01*
X132915466Y-100805515D01*
X132915472Y-100805516D01*
X132924066Y-100808086D01*
X132933037Y-100808141D01*
X132933038Y-100808141D01*
X132943097Y-100808202D01*
X132958506Y-100808296D01*
X132959289Y-100808329D01*
X132960386Y-100808500D01*
X132991377Y-100808500D01*
X132992147Y-100808502D01*
X133065785Y-100808952D01*
X133065786Y-100808952D01*
X133069721Y-100808976D01*
X133071065Y-100808592D01*
X133072410Y-100808500D01*
X145991377Y-100808500D01*
X145992148Y-100808502D01*
X146069721Y-100808976D01*
X146098152Y-100800850D01*
X146114915Y-100797272D01*
X146115753Y-100797152D01*
X146144187Y-100793080D01*
X146167564Y-100782451D01*
X146185087Y-100776004D01*
X146209771Y-100768949D01*
X146217365Y-100764157D01*
X146217368Y-100764156D01*
X146234780Y-100753170D01*
X146249865Y-100745030D01*
X146276782Y-100732792D01*
X146296235Y-100716030D01*
X146311239Y-100704927D01*
X146332958Y-100691224D01*
X146338897Y-100684499D01*
X146338901Y-100684496D01*
X146352532Y-100669062D01*
X146364724Y-100657018D01*
X146380327Y-100643573D01*
X146380329Y-100643570D01*
X146387127Y-100637713D01*
X146399848Y-100618088D01*
X146401094Y-100616165D01*
X146412385Y-100601291D01*
X146423431Y-100588783D01*
X146423432Y-100588782D01*
X146429378Y-100582049D01*
X146441943Y-100555287D01*
X146450263Y-100540309D01*
X146461471Y-100523017D01*
X146461473Y-100523012D01*
X146466352Y-100515485D01*
X146468922Y-100506892D01*
X146468924Y-100506887D01*
X146473711Y-100490880D01*
X146480372Y-100473436D01*
X146487467Y-100458324D01*
X146487468Y-100458322D01*
X146491281Y-100450200D01*
X146495830Y-100420983D01*
X146499613Y-100404268D01*
X146505515Y-100384534D01*
X146505516Y-100384528D01*
X146508086Y-100375934D01*
X146508124Y-100369721D01*
X208491024Y-100369721D01*
X208495258Y-100384534D01*
X208499150Y-100398153D01*
X208502728Y-100414915D01*
X208506920Y-100444187D01*
X208517312Y-100467042D01*
X208517548Y-100467562D01*
X208523996Y-100485086D01*
X208531051Y-100509771D01*
X208535843Y-100517365D01*
X208535844Y-100517368D01*
X208546830Y-100534780D01*
X208554969Y-100549863D01*
X208567208Y-100576782D01*
X208573069Y-100583584D01*
X208583970Y-100596235D01*
X208595073Y-100611239D01*
X208608776Y-100632958D01*
X208615501Y-100638897D01*
X208615504Y-100638901D01*
X208630938Y-100652532D01*
X208642982Y-100664724D01*
X208656427Y-100680327D01*
X208656430Y-100680329D01*
X208662287Y-100687127D01*
X208669816Y-100692007D01*
X208669817Y-100692008D01*
X208683835Y-100701094D01*
X208698709Y-100712385D01*
X208709198Y-100721648D01*
X208717951Y-100729378D01*
X208738986Y-100739254D01*
X208744711Y-100741942D01*
X208759691Y-100750263D01*
X208776983Y-100761471D01*
X208776988Y-100761473D01*
X208784515Y-100766352D01*
X208793108Y-100768922D01*
X208793113Y-100768924D01*
X208809120Y-100773711D01*
X208826564Y-100780372D01*
X208841676Y-100787467D01*
X208841678Y-100787468D01*
X208849800Y-100791281D01*
X208858667Y-100792662D01*
X208858668Y-100792662D01*
X208861353Y-100793080D01*
X208879017Y-100795830D01*
X208895732Y-100799613D01*
X208915466Y-100805515D01*
X208915472Y-100805516D01*
X208924066Y-100808086D01*
X208933037Y-100808141D01*
X208933038Y-100808141D01*
X208943097Y-100808202D01*
X208958506Y-100808296D01*
X208959289Y-100808329D01*
X208960386Y-100808500D01*
X208991377Y-100808500D01*
X208992147Y-100808502D01*
X209065785Y-100808952D01*
X209065786Y-100808952D01*
X209069721Y-100808976D01*
X209071065Y-100808592D01*
X209072410Y-100808500D01*
X221991377Y-100808500D01*
X221992148Y-100808502D01*
X222069721Y-100808976D01*
X222098152Y-100800850D01*
X222114915Y-100797272D01*
X222115753Y-100797152D01*
X222144187Y-100793080D01*
X222167564Y-100782451D01*
X222185087Y-100776004D01*
X222209771Y-100768949D01*
X222217365Y-100764157D01*
X222217368Y-100764156D01*
X222234780Y-100753170D01*
X222249865Y-100745030D01*
X222276782Y-100732792D01*
X222296235Y-100716030D01*
X222311239Y-100704927D01*
X222332958Y-100691224D01*
X222338897Y-100684499D01*
X222338901Y-100684496D01*
X222352532Y-100669062D01*
X222364724Y-100657018D01*
X222380327Y-100643573D01*
X222380329Y-100643570D01*
X222387127Y-100637713D01*
X222399848Y-100618088D01*
X222401094Y-100616165D01*
X222412385Y-100601291D01*
X222423431Y-100588783D01*
X222423432Y-100588782D01*
X222429378Y-100582049D01*
X222441943Y-100555287D01*
X222450263Y-100540309D01*
X222461471Y-100523017D01*
X222461473Y-100523012D01*
X222466352Y-100515485D01*
X222468922Y-100506892D01*
X222468924Y-100506887D01*
X222473711Y-100490880D01*
X222480372Y-100473436D01*
X222487467Y-100458324D01*
X222487468Y-100458322D01*
X222491281Y-100450200D01*
X222495830Y-100420983D01*
X222499613Y-100404268D01*
X222505515Y-100384534D01*
X222505516Y-100384528D01*
X222508086Y-100375934D01*
X222508296Y-100341494D01*
X222508329Y-100340711D01*
X222508500Y-100339614D01*
X222508500Y-100308623D01*
X222508502Y-100307853D01*
X222508952Y-100234215D01*
X222508952Y-100234214D01*
X222508976Y-100230279D01*
X222508592Y-100228935D01*
X222508500Y-100227590D01*
X222508500Y-87308623D01*
X222508502Y-87307853D01*
X222508800Y-87259102D01*
X222508976Y-87230279D01*
X222500850Y-87201847D01*
X222497272Y-87185085D01*
X222494352Y-87164698D01*
X222493080Y-87155813D01*
X222482451Y-87132436D01*
X222476004Y-87114913D01*
X222471416Y-87098862D01*
X222468949Y-87090229D01*
X222464156Y-87082632D01*
X222453170Y-87065220D01*
X222445030Y-87050135D01*
X222442564Y-87044711D01*
X222432792Y-87023218D01*
X222416030Y-87003765D01*
X222404927Y-86988761D01*
X222391224Y-86967042D01*
X222384499Y-86961103D01*
X222384496Y-86961099D01*
X222369062Y-86947468D01*
X222357018Y-86935276D01*
X222343573Y-86919673D01*
X222343570Y-86919671D01*
X222337713Y-86912873D01*
X222324009Y-86903990D01*
X222316165Y-86898906D01*
X222301291Y-86887615D01*
X222288783Y-86876569D01*
X222288782Y-86876568D01*
X222282049Y-86870622D01*
X222255287Y-86858057D01*
X222240309Y-86849737D01*
X222223017Y-86838529D01*
X222223012Y-86838527D01*
X222215485Y-86833648D01*
X222206892Y-86831078D01*
X222206887Y-86831076D01*
X222190880Y-86826289D01*
X222173436Y-86819628D01*
X222158324Y-86812533D01*
X222158322Y-86812532D01*
X222150200Y-86808719D01*
X222141333Y-86807338D01*
X222141332Y-86807338D01*
X222130478Y-86805648D01*
X222120983Y-86804170D01*
X222104268Y-86800387D01*
X222084534Y-86794485D01*
X222084528Y-86794484D01*
X222075934Y-86791914D01*
X222066963Y-86791859D01*
X222066962Y-86791859D01*
X222056903Y-86791798D01*
X222041494Y-86791704D01*
X222040711Y-86791671D01*
X222039614Y-86791500D01*
X222008623Y-86791500D01*
X222007853Y-86791498D01*
X221934215Y-86791048D01*
X221934214Y-86791048D01*
X221930279Y-86791024D01*
X221928935Y-86791408D01*
X221927590Y-86791500D01*
X209008623Y-86791500D01*
X209007853Y-86791498D01*
X209007037Y-86791493D01*
X208930279Y-86791024D01*
X208907918Y-86797415D01*
X208901847Y-86799150D01*
X208885085Y-86802728D01*
X208855813Y-86806920D01*
X208847645Y-86810634D01*
X208847644Y-86810634D01*
X208832438Y-86817548D01*
X208814914Y-86823996D01*
X208790229Y-86831051D01*
X208782635Y-86835843D01*
X208782632Y-86835844D01*
X208765220Y-86846830D01*
X208750137Y-86854969D01*
X208723218Y-86867208D01*
X208716416Y-86873069D01*
X208703765Y-86883970D01*
X208688761Y-86895073D01*
X208667042Y-86908776D01*
X208661103Y-86915501D01*
X208661099Y-86915504D01*
X208647468Y-86930938D01*
X208635276Y-86942982D01*
X208619673Y-86956427D01*
X208619671Y-86956430D01*
X208612873Y-86962287D01*
X208607993Y-86969816D01*
X208607992Y-86969817D01*
X208598906Y-86983835D01*
X208587615Y-86998709D01*
X208576569Y-87011217D01*
X208570622Y-87017951D01*
X208564312Y-87031391D01*
X208558058Y-87044711D01*
X208549737Y-87059691D01*
X208538529Y-87076983D01*
X208538527Y-87076988D01*
X208533648Y-87084515D01*
X208531078Y-87093108D01*
X208531076Y-87093113D01*
X208526289Y-87109120D01*
X208519628Y-87126564D01*
X208512533Y-87141676D01*
X208508719Y-87149800D01*
X208507338Y-87158667D01*
X208507338Y-87158668D01*
X208504170Y-87179015D01*
X208500387Y-87195732D01*
X208494485Y-87215466D01*
X208494484Y-87215472D01*
X208491914Y-87224066D01*
X208491859Y-87233037D01*
X208491859Y-87233038D01*
X208491704Y-87258497D01*
X208491671Y-87259289D01*
X208491500Y-87260386D01*
X208491500Y-87291377D01*
X208491498Y-87292147D01*
X208491024Y-87369721D01*
X208491408Y-87371065D01*
X208491500Y-87372410D01*
X208491500Y-100291377D01*
X208491499Y-100291914D01*
X208491024Y-100369721D01*
X146508124Y-100369721D01*
X146508296Y-100341494D01*
X146508329Y-100340711D01*
X146508500Y-100339614D01*
X146508500Y-100308623D01*
X146508502Y-100307853D01*
X146508952Y-100234215D01*
X146508952Y-100234214D01*
X146508976Y-100230279D01*
X146508592Y-100228935D01*
X146508500Y-100227590D01*
X146508500Y-87308623D01*
X146508502Y-87307853D01*
X146508800Y-87259102D01*
X146508976Y-87230279D01*
X146500850Y-87201847D01*
X146497272Y-87185085D01*
X146494352Y-87164698D01*
X146493080Y-87155813D01*
X146482451Y-87132436D01*
X146476004Y-87114913D01*
X146471416Y-87098862D01*
X146468949Y-87090229D01*
X146464156Y-87082632D01*
X146453170Y-87065220D01*
X146445030Y-87050135D01*
X146442564Y-87044711D01*
X146432792Y-87023218D01*
X146416030Y-87003765D01*
X146404927Y-86988761D01*
X146391224Y-86967042D01*
X146384499Y-86961103D01*
X146384496Y-86961099D01*
X146369062Y-86947468D01*
X146357018Y-86935276D01*
X146343573Y-86919673D01*
X146343570Y-86919671D01*
X146337713Y-86912873D01*
X146324009Y-86903990D01*
X146316165Y-86898906D01*
X146301291Y-86887615D01*
X146288783Y-86876569D01*
X146288782Y-86876568D01*
X146282049Y-86870622D01*
X146255287Y-86858057D01*
X146240309Y-86849737D01*
X146223017Y-86838529D01*
X146223012Y-86838527D01*
X146215485Y-86833648D01*
X146206892Y-86831078D01*
X146206887Y-86831076D01*
X146190880Y-86826289D01*
X146173436Y-86819628D01*
X146158324Y-86812533D01*
X146158322Y-86812532D01*
X146150200Y-86808719D01*
X146141333Y-86807338D01*
X146141332Y-86807338D01*
X146130478Y-86805648D01*
X146120983Y-86804170D01*
X146104268Y-86800387D01*
X146084534Y-86794485D01*
X146084528Y-86794484D01*
X146075934Y-86791914D01*
X146066963Y-86791859D01*
X146066962Y-86791859D01*
X146056903Y-86791798D01*
X146041494Y-86791704D01*
X146040711Y-86791671D01*
X146039614Y-86791500D01*
X146008623Y-86791500D01*
X146007853Y-86791498D01*
X145934215Y-86791048D01*
X145934214Y-86791048D01*
X145930279Y-86791024D01*
X145928935Y-86791408D01*
X145927590Y-86791500D01*
X133008623Y-86791500D01*
X133007853Y-86791498D01*
X133007037Y-86791493D01*
X132930279Y-86791024D01*
X132907918Y-86797415D01*
X132901847Y-86799150D01*
X132885085Y-86802728D01*
X132855813Y-86806920D01*
X132847645Y-86810634D01*
X132847644Y-86810634D01*
X132832438Y-86817548D01*
X132814914Y-86823996D01*
X132790229Y-86831051D01*
X132782635Y-86835843D01*
X132782632Y-86835844D01*
X132765220Y-86846830D01*
X132750137Y-86854969D01*
X132723218Y-86867208D01*
X132716416Y-86873069D01*
X132703765Y-86883970D01*
X132688761Y-86895073D01*
X132667042Y-86908776D01*
X132661103Y-86915501D01*
X132661099Y-86915504D01*
X132647468Y-86930938D01*
X132635276Y-86942982D01*
X132619673Y-86956427D01*
X132619671Y-86956430D01*
X132612873Y-86962287D01*
X132607993Y-86969816D01*
X132607992Y-86969817D01*
X132598906Y-86983835D01*
X132587615Y-86998709D01*
X132576569Y-87011217D01*
X132570622Y-87017951D01*
X132564312Y-87031391D01*
X132558058Y-87044711D01*
X132549737Y-87059691D01*
X132538529Y-87076983D01*
X132538527Y-87076988D01*
X132533648Y-87084515D01*
X132531078Y-87093108D01*
X132531076Y-87093113D01*
X132526289Y-87109120D01*
X132519628Y-87126564D01*
X132512533Y-87141676D01*
X132508719Y-87149800D01*
X132507338Y-87158667D01*
X132507338Y-87158668D01*
X132504170Y-87179015D01*
X132500387Y-87195732D01*
X132494485Y-87215466D01*
X132494484Y-87215472D01*
X132491914Y-87224066D01*
X132491859Y-87233037D01*
X132491859Y-87233038D01*
X132491704Y-87258497D01*
X132491671Y-87259289D01*
X132491500Y-87260386D01*
X132491500Y-87291377D01*
X132491498Y-87292147D01*
X132491024Y-87369721D01*
X132491408Y-87371065D01*
X132491500Y-87372410D01*
X132491500Y-100291377D01*
X132491499Y-100291914D01*
X132491024Y-100369721D01*
X127508124Y-100369721D01*
X127508296Y-100341494D01*
X127508329Y-100340711D01*
X127508500Y-100339614D01*
X127508500Y-100308623D01*
X127508502Y-100307853D01*
X127508952Y-100234215D01*
X127508952Y-100234214D01*
X127508976Y-100230279D01*
X127508592Y-100228935D01*
X127508500Y-100227590D01*
X127508500Y-87308623D01*
X127508502Y-87307853D01*
X127508800Y-87259102D01*
X127508976Y-87230279D01*
X127500850Y-87201847D01*
X127497272Y-87185085D01*
X127494352Y-87164698D01*
X127493080Y-87155813D01*
X127482451Y-87132436D01*
X127476004Y-87114913D01*
X127471416Y-87098862D01*
X127468949Y-87090229D01*
X127464156Y-87082632D01*
X127453170Y-87065220D01*
X127445030Y-87050135D01*
X127442564Y-87044711D01*
X127432792Y-87023218D01*
X127416030Y-87003765D01*
X127404927Y-86988761D01*
X127391224Y-86967042D01*
X127384499Y-86961103D01*
X127384496Y-86961099D01*
X127369062Y-86947468D01*
X127357018Y-86935276D01*
X127343573Y-86919673D01*
X127343570Y-86919671D01*
X127337713Y-86912873D01*
X127324009Y-86903990D01*
X127316165Y-86898906D01*
X127301291Y-86887615D01*
X127288783Y-86876569D01*
X127288782Y-86876568D01*
X127282049Y-86870622D01*
X127255287Y-86858057D01*
X127240309Y-86849737D01*
X127223017Y-86838529D01*
X127223012Y-86838527D01*
X127215485Y-86833648D01*
X127206892Y-86831078D01*
X127206887Y-86831076D01*
X127190880Y-86826289D01*
X127173436Y-86819628D01*
X127158324Y-86812533D01*
X127158322Y-86812532D01*
X127150200Y-86808719D01*
X127141333Y-86807338D01*
X127141332Y-86807338D01*
X127130478Y-86805648D01*
X127120983Y-86804170D01*
X127104268Y-86800387D01*
X127084534Y-86794485D01*
X127084528Y-86794484D01*
X127075934Y-86791914D01*
X127066963Y-86791859D01*
X127066962Y-86791859D01*
X127056903Y-86791798D01*
X127041494Y-86791704D01*
X127040711Y-86791671D01*
X127039614Y-86791500D01*
X127008623Y-86791500D01*
X127007853Y-86791498D01*
X126934215Y-86791048D01*
X126934214Y-86791048D01*
X126930279Y-86791024D01*
X126928935Y-86791408D01*
X126927590Y-86791500D01*
X114008623Y-86791500D01*
X114007853Y-86791498D01*
X114007037Y-86791493D01*
X113930279Y-86791024D01*
X113907918Y-86797415D01*
X113901847Y-86799150D01*
X113885085Y-86802728D01*
X113855813Y-86806920D01*
X113847645Y-86810634D01*
X113847644Y-86810634D01*
X113832438Y-86817548D01*
X113814914Y-86823996D01*
X113790229Y-86831051D01*
X113782635Y-86835843D01*
X113782632Y-86835844D01*
X113765220Y-86846830D01*
X113750137Y-86854969D01*
X113723218Y-86867208D01*
X113716416Y-86873069D01*
X113703765Y-86883970D01*
X113688761Y-86895073D01*
X113667042Y-86908776D01*
X113661103Y-86915501D01*
X113661099Y-86915504D01*
X113647468Y-86930938D01*
X113635276Y-86942982D01*
X113619673Y-86956427D01*
X113619671Y-86956430D01*
X113612873Y-86962287D01*
X113607993Y-86969816D01*
X113607992Y-86969817D01*
X113598906Y-86983835D01*
X113587615Y-86998709D01*
X113576569Y-87011217D01*
X113570622Y-87017951D01*
X113564312Y-87031391D01*
X113558058Y-87044711D01*
X113549737Y-87059691D01*
X113538529Y-87076983D01*
X113538527Y-87076988D01*
X113533648Y-87084515D01*
X113531078Y-87093108D01*
X113531076Y-87093113D01*
X113526289Y-87109120D01*
X113519628Y-87126564D01*
X113512533Y-87141676D01*
X113508719Y-87149800D01*
X113507338Y-87158667D01*
X113507338Y-87158668D01*
X113504170Y-87179015D01*
X113500387Y-87195732D01*
X113494485Y-87215466D01*
X113494484Y-87215472D01*
X113491914Y-87224066D01*
X113491859Y-87233037D01*
X113491859Y-87233038D01*
X113491704Y-87258497D01*
X113491671Y-87259289D01*
X113491500Y-87260386D01*
X113491500Y-87291377D01*
X113491498Y-87292147D01*
X113491024Y-87369721D01*
X113491408Y-87371065D01*
X113491500Y-87372410D01*
X113491500Y-100291377D01*
X113491499Y-100291914D01*
X113491024Y-100369721D01*
X108508124Y-100369721D01*
X108508296Y-100341494D01*
X108508329Y-100340711D01*
X108508500Y-100339614D01*
X108508500Y-100308623D01*
X108508502Y-100307853D01*
X108508952Y-100234215D01*
X108508952Y-100234214D01*
X108508976Y-100230279D01*
X108508592Y-100228935D01*
X108508500Y-100227590D01*
X108508500Y-87308623D01*
X108508502Y-87307853D01*
X108508800Y-87259102D01*
X108508976Y-87230279D01*
X108500850Y-87201847D01*
X108497272Y-87185085D01*
X108494352Y-87164698D01*
X108493080Y-87155813D01*
X108482451Y-87132436D01*
X108476004Y-87114913D01*
X108471416Y-87098862D01*
X108468949Y-87090229D01*
X108464156Y-87082632D01*
X108453170Y-87065220D01*
X108445030Y-87050135D01*
X108442564Y-87044711D01*
X108432792Y-87023218D01*
X108416030Y-87003765D01*
X108404927Y-86988761D01*
X108391224Y-86967042D01*
X108384499Y-86961103D01*
X108384496Y-86961099D01*
X108369062Y-86947468D01*
X108357018Y-86935276D01*
X108343573Y-86919673D01*
X108343570Y-86919671D01*
X108337713Y-86912873D01*
X108324009Y-86903990D01*
X108316165Y-86898906D01*
X108301291Y-86887615D01*
X108288783Y-86876569D01*
X108288782Y-86876568D01*
X108282049Y-86870622D01*
X108255287Y-86858057D01*
X108240309Y-86849737D01*
X108223017Y-86838529D01*
X108223012Y-86838527D01*
X108215485Y-86833648D01*
X108206892Y-86831078D01*
X108206887Y-86831076D01*
X108190880Y-86826289D01*
X108173436Y-86819628D01*
X108158324Y-86812533D01*
X108158322Y-86812532D01*
X108150200Y-86808719D01*
X108141333Y-86807338D01*
X108141332Y-86807338D01*
X108130478Y-86805648D01*
X108120983Y-86804170D01*
X108104268Y-86800387D01*
X108084534Y-86794485D01*
X108084528Y-86794484D01*
X108075934Y-86791914D01*
X108066963Y-86791859D01*
X108066962Y-86791859D01*
X108056903Y-86791798D01*
X108041494Y-86791704D01*
X108040711Y-86791671D01*
X108039614Y-86791500D01*
X108008623Y-86791500D01*
X108007853Y-86791498D01*
X107934215Y-86791048D01*
X107934214Y-86791048D01*
X107930279Y-86791024D01*
X107928935Y-86791408D01*
X107927590Y-86791500D01*
X95008623Y-86791500D01*
X95007853Y-86791498D01*
X95007037Y-86791493D01*
X94930279Y-86791024D01*
X94907918Y-86797415D01*
X94901847Y-86799150D01*
X94885085Y-86802728D01*
X94855813Y-86806920D01*
X94847645Y-86810634D01*
X94847644Y-86810634D01*
X94832438Y-86817548D01*
X94814914Y-86823996D01*
X94790229Y-86831051D01*
X94782635Y-86835843D01*
X94782632Y-86835844D01*
X94765220Y-86846830D01*
X94750137Y-86854969D01*
X94723218Y-86867208D01*
X94716416Y-86873069D01*
X94703765Y-86883970D01*
X94688761Y-86895073D01*
X94667042Y-86908776D01*
X94661103Y-86915501D01*
X94661099Y-86915504D01*
X94647468Y-86930938D01*
X94635276Y-86942982D01*
X94619673Y-86956427D01*
X94619671Y-86956430D01*
X94612873Y-86962287D01*
X94607993Y-86969816D01*
X94607992Y-86969817D01*
X94598906Y-86983835D01*
X94587615Y-86998709D01*
X94576569Y-87011217D01*
X94570622Y-87017951D01*
X94564312Y-87031391D01*
X94558058Y-87044711D01*
X94549737Y-87059691D01*
X94538529Y-87076983D01*
X94538527Y-87076988D01*
X94533648Y-87084515D01*
X94531078Y-87093108D01*
X94531076Y-87093113D01*
X94526289Y-87109120D01*
X94519628Y-87126564D01*
X94512533Y-87141676D01*
X94508719Y-87149800D01*
X94507338Y-87158667D01*
X94507338Y-87158668D01*
X94504170Y-87179015D01*
X94500387Y-87195732D01*
X94494485Y-87215466D01*
X94494484Y-87215472D01*
X94491914Y-87224066D01*
X94491859Y-87233037D01*
X94491859Y-87233038D01*
X94491704Y-87258497D01*
X94491671Y-87259289D01*
X94491500Y-87260386D01*
X94491500Y-87291377D01*
X94491498Y-87292147D01*
X94491024Y-87369721D01*
X94491408Y-87371065D01*
X94491500Y-87372410D01*
X94491500Y-100291377D01*
X94491499Y-100291914D01*
X94491024Y-100369721D01*
X89508124Y-100369721D01*
X89508296Y-100341494D01*
X89508329Y-100340711D01*
X89508500Y-100339614D01*
X89508500Y-100308623D01*
X89508502Y-100307853D01*
X89508952Y-100234215D01*
X89508952Y-100234214D01*
X89508976Y-100230279D01*
X89508592Y-100228935D01*
X89508500Y-100227590D01*
X89508500Y-87308623D01*
X89508502Y-87307853D01*
X89508800Y-87259102D01*
X89508976Y-87230279D01*
X89500850Y-87201847D01*
X89497272Y-87185085D01*
X89494352Y-87164698D01*
X89493080Y-87155813D01*
X89482451Y-87132436D01*
X89476004Y-87114913D01*
X89471416Y-87098862D01*
X89468949Y-87090229D01*
X89464156Y-87082632D01*
X89453170Y-87065220D01*
X89445030Y-87050135D01*
X89442564Y-87044711D01*
X89432792Y-87023218D01*
X89416030Y-87003765D01*
X89404927Y-86988761D01*
X89391224Y-86967042D01*
X89384499Y-86961103D01*
X89384496Y-86961099D01*
X89369062Y-86947468D01*
X89357018Y-86935276D01*
X89343573Y-86919673D01*
X89343570Y-86919671D01*
X89337713Y-86912873D01*
X89324009Y-86903990D01*
X89316165Y-86898906D01*
X89301291Y-86887615D01*
X89288783Y-86876569D01*
X89288782Y-86876568D01*
X89282049Y-86870622D01*
X89255287Y-86858057D01*
X89240309Y-86849737D01*
X89223017Y-86838529D01*
X89223012Y-86838527D01*
X89215485Y-86833648D01*
X89206892Y-86831078D01*
X89206887Y-86831076D01*
X89190880Y-86826289D01*
X89173436Y-86819628D01*
X89158324Y-86812533D01*
X89158322Y-86812532D01*
X89150200Y-86808719D01*
X89141333Y-86807338D01*
X89141332Y-86807338D01*
X89130478Y-86805648D01*
X89120983Y-86804170D01*
X89104268Y-86800387D01*
X89084534Y-86794485D01*
X89084528Y-86794484D01*
X89075934Y-86791914D01*
X89066963Y-86791859D01*
X89066962Y-86791859D01*
X89056903Y-86791798D01*
X89041494Y-86791704D01*
X89040711Y-86791671D01*
X89039614Y-86791500D01*
X89008623Y-86791500D01*
X89007853Y-86791498D01*
X88934215Y-86791048D01*
X88934214Y-86791048D01*
X88930279Y-86791024D01*
X88928935Y-86791408D01*
X88927590Y-86791500D01*
X76008623Y-86791500D01*
X76007853Y-86791498D01*
X76007037Y-86791493D01*
X75930279Y-86791024D01*
X75907918Y-86797415D01*
X75901847Y-86799150D01*
X75885085Y-86802728D01*
X75855813Y-86806920D01*
X75847645Y-86810634D01*
X75847644Y-86810634D01*
X75832438Y-86817548D01*
X75814914Y-86823996D01*
X75790229Y-86831051D01*
X75782635Y-86835843D01*
X75782632Y-86835844D01*
X75765220Y-86846830D01*
X75750137Y-86854969D01*
X75723218Y-86867208D01*
X75716416Y-86873069D01*
X75703765Y-86883970D01*
X75688761Y-86895073D01*
X75667042Y-86908776D01*
X75661103Y-86915501D01*
X75661099Y-86915504D01*
X75647468Y-86930938D01*
X75635276Y-86942982D01*
X75619673Y-86956427D01*
X75619671Y-86956430D01*
X75612873Y-86962287D01*
X75607993Y-86969816D01*
X75607992Y-86969817D01*
X75598906Y-86983835D01*
X75587615Y-86998709D01*
X75576569Y-87011217D01*
X75570622Y-87017951D01*
X75564312Y-87031391D01*
X75558058Y-87044711D01*
X75549737Y-87059691D01*
X75538529Y-87076983D01*
X75538527Y-87076988D01*
X75533648Y-87084515D01*
X75531078Y-87093108D01*
X75531076Y-87093113D01*
X75526289Y-87109120D01*
X75519628Y-87126564D01*
X75512533Y-87141676D01*
X75508719Y-87149800D01*
X75507338Y-87158667D01*
X75507338Y-87158668D01*
X75504170Y-87179015D01*
X75500387Y-87195732D01*
X75494485Y-87215466D01*
X75494484Y-87215472D01*
X75491914Y-87224066D01*
X75491859Y-87233037D01*
X75491859Y-87233038D01*
X75491704Y-87258497D01*
X75491671Y-87259289D01*
X75491500Y-87260386D01*
X75491500Y-87291377D01*
X75491498Y-87292147D01*
X75491024Y-87369721D01*
X75491408Y-87371065D01*
X75491500Y-87372410D01*
X75491500Y-100291377D01*
X75491499Y-100291914D01*
X75491024Y-100369721D01*
X31508500Y-100369721D01*
X31508500Y-81369721D01*
X75491024Y-81369721D01*
X75493491Y-81378352D01*
X75499150Y-81398153D01*
X75502728Y-81414915D01*
X75506920Y-81444187D01*
X75510634Y-81452355D01*
X75510634Y-81452356D01*
X75517548Y-81467562D01*
X75523996Y-81485086D01*
X75531051Y-81509771D01*
X75535843Y-81517365D01*
X75535844Y-81517368D01*
X75546830Y-81534780D01*
X75554969Y-81549863D01*
X75567208Y-81576782D01*
X75573069Y-81583584D01*
X75583970Y-81596235D01*
X75595073Y-81611239D01*
X75608776Y-81632958D01*
X75615501Y-81638897D01*
X75615504Y-81638901D01*
X75630938Y-81652532D01*
X75642982Y-81664724D01*
X75656427Y-81680327D01*
X75656430Y-81680329D01*
X75662287Y-81687127D01*
X75669816Y-81692007D01*
X75669817Y-81692008D01*
X75683835Y-81701094D01*
X75698709Y-81712385D01*
X75711217Y-81723431D01*
X75717951Y-81729378D01*
X75744711Y-81741942D01*
X75759691Y-81750263D01*
X75776983Y-81761471D01*
X75776988Y-81761473D01*
X75784515Y-81766352D01*
X75793108Y-81768922D01*
X75793113Y-81768924D01*
X75809120Y-81773711D01*
X75826564Y-81780372D01*
X75841676Y-81787467D01*
X75841678Y-81787468D01*
X75849800Y-81791281D01*
X75858667Y-81792662D01*
X75858668Y-81792662D01*
X75861353Y-81793080D01*
X75879017Y-81795830D01*
X75895732Y-81799613D01*
X75915466Y-81805515D01*
X75915472Y-81805516D01*
X75924066Y-81808086D01*
X75933037Y-81808141D01*
X75933038Y-81808141D01*
X75943097Y-81808202D01*
X75958506Y-81808296D01*
X75959289Y-81808329D01*
X75960386Y-81808500D01*
X75991377Y-81808500D01*
X75992147Y-81808502D01*
X76065785Y-81808952D01*
X76065786Y-81808952D01*
X76069721Y-81808976D01*
X76071065Y-81808592D01*
X76072410Y-81808500D01*
X88991377Y-81808500D01*
X88992148Y-81808502D01*
X89069721Y-81808976D01*
X89098152Y-81800850D01*
X89114915Y-81797272D01*
X89115753Y-81797152D01*
X89144187Y-81793080D01*
X89167564Y-81782451D01*
X89185087Y-81776004D01*
X89209771Y-81768949D01*
X89217365Y-81764157D01*
X89217368Y-81764156D01*
X89234780Y-81753170D01*
X89249865Y-81745030D01*
X89276782Y-81732792D01*
X89296235Y-81716030D01*
X89311239Y-81704927D01*
X89332958Y-81691224D01*
X89338897Y-81684499D01*
X89338901Y-81684496D01*
X89352532Y-81669062D01*
X89364724Y-81657018D01*
X89380327Y-81643573D01*
X89380329Y-81643570D01*
X89387127Y-81637713D01*
X89401094Y-81616165D01*
X89412385Y-81601291D01*
X89423431Y-81588783D01*
X89423432Y-81588782D01*
X89429378Y-81582049D01*
X89441943Y-81555287D01*
X89450263Y-81540309D01*
X89461471Y-81523017D01*
X89461473Y-81523012D01*
X89466352Y-81515485D01*
X89468922Y-81506892D01*
X89468924Y-81506887D01*
X89473711Y-81490880D01*
X89480372Y-81473436D01*
X89487467Y-81458324D01*
X89487468Y-81458322D01*
X89491281Y-81450200D01*
X89495830Y-81420983D01*
X89499613Y-81404268D01*
X89505515Y-81384534D01*
X89505516Y-81384528D01*
X89508086Y-81375934D01*
X89508124Y-81369721D01*
X94491024Y-81369721D01*
X94493491Y-81378352D01*
X94499150Y-81398153D01*
X94502728Y-81414915D01*
X94506920Y-81444187D01*
X94510634Y-81452355D01*
X94510634Y-81452356D01*
X94517548Y-81467562D01*
X94523996Y-81485086D01*
X94531051Y-81509771D01*
X94535843Y-81517365D01*
X94535844Y-81517368D01*
X94546830Y-81534780D01*
X94554969Y-81549863D01*
X94567208Y-81576782D01*
X94573069Y-81583584D01*
X94583970Y-81596235D01*
X94595073Y-81611239D01*
X94608776Y-81632958D01*
X94615501Y-81638897D01*
X94615504Y-81638901D01*
X94630938Y-81652532D01*
X94642982Y-81664724D01*
X94656427Y-81680327D01*
X94656430Y-81680329D01*
X94662287Y-81687127D01*
X94669816Y-81692007D01*
X94669817Y-81692008D01*
X94683835Y-81701094D01*
X94698709Y-81712385D01*
X94711217Y-81723431D01*
X94717951Y-81729378D01*
X94744711Y-81741942D01*
X94759691Y-81750263D01*
X94776983Y-81761471D01*
X94776988Y-81761473D01*
X94784515Y-81766352D01*
X94793108Y-81768922D01*
X94793113Y-81768924D01*
X94809120Y-81773711D01*
X94826564Y-81780372D01*
X94841676Y-81787467D01*
X94841678Y-81787468D01*
X94849800Y-81791281D01*
X94858667Y-81792662D01*
X94858668Y-81792662D01*
X94861353Y-81793080D01*
X94879017Y-81795830D01*
X94895732Y-81799613D01*
X94915466Y-81805515D01*
X94915472Y-81805516D01*
X94924066Y-81808086D01*
X94933037Y-81808141D01*
X94933038Y-81808141D01*
X94943097Y-81808202D01*
X94958506Y-81808296D01*
X94959289Y-81808329D01*
X94960386Y-81808500D01*
X94991377Y-81808500D01*
X94992147Y-81808502D01*
X95065785Y-81808952D01*
X95065786Y-81808952D01*
X95069721Y-81808976D01*
X95071065Y-81808592D01*
X95072410Y-81808500D01*
X107991377Y-81808500D01*
X107992148Y-81808502D01*
X108069721Y-81808976D01*
X108098152Y-81800850D01*
X108114915Y-81797272D01*
X108115753Y-81797152D01*
X108144187Y-81793080D01*
X108167564Y-81782451D01*
X108185087Y-81776004D01*
X108209771Y-81768949D01*
X108217365Y-81764157D01*
X108217368Y-81764156D01*
X108234780Y-81753170D01*
X108249865Y-81745030D01*
X108276782Y-81732792D01*
X108296235Y-81716030D01*
X108311239Y-81704927D01*
X108332958Y-81691224D01*
X108338897Y-81684499D01*
X108338901Y-81684496D01*
X108352532Y-81669062D01*
X108364724Y-81657018D01*
X108380327Y-81643573D01*
X108380329Y-81643570D01*
X108387127Y-81637713D01*
X108401094Y-81616165D01*
X108412385Y-81601291D01*
X108423431Y-81588783D01*
X108423432Y-81588782D01*
X108429378Y-81582049D01*
X108441943Y-81555287D01*
X108450263Y-81540309D01*
X108461471Y-81523017D01*
X108461473Y-81523012D01*
X108466352Y-81515485D01*
X108468922Y-81506892D01*
X108468924Y-81506887D01*
X108473711Y-81490880D01*
X108480372Y-81473436D01*
X108487467Y-81458324D01*
X108487468Y-81458322D01*
X108491281Y-81450200D01*
X108495830Y-81420983D01*
X108499613Y-81404268D01*
X108505515Y-81384534D01*
X108505516Y-81384528D01*
X108508086Y-81375934D01*
X108508124Y-81369721D01*
X113491024Y-81369721D01*
X113493491Y-81378352D01*
X113499150Y-81398153D01*
X113502728Y-81414915D01*
X113506920Y-81444187D01*
X113510634Y-81452355D01*
X113510634Y-81452356D01*
X113517548Y-81467562D01*
X113523996Y-81485086D01*
X113531051Y-81509771D01*
X113535843Y-81517365D01*
X113535844Y-81517368D01*
X113546830Y-81534780D01*
X113554969Y-81549863D01*
X113567208Y-81576782D01*
X113573069Y-81583584D01*
X113583970Y-81596235D01*
X113595073Y-81611239D01*
X113608776Y-81632958D01*
X113615501Y-81638897D01*
X113615504Y-81638901D01*
X113630938Y-81652532D01*
X113642982Y-81664724D01*
X113656427Y-81680327D01*
X113656430Y-81680329D01*
X113662287Y-81687127D01*
X113669816Y-81692007D01*
X113669817Y-81692008D01*
X113683835Y-81701094D01*
X113698709Y-81712385D01*
X113711217Y-81723431D01*
X113717951Y-81729378D01*
X113744711Y-81741942D01*
X113759691Y-81750263D01*
X113776983Y-81761471D01*
X113776988Y-81761473D01*
X113784515Y-81766352D01*
X113793108Y-81768922D01*
X113793113Y-81768924D01*
X113809120Y-81773711D01*
X113826564Y-81780372D01*
X113841676Y-81787467D01*
X113841678Y-81787468D01*
X113849800Y-81791281D01*
X113858667Y-81792662D01*
X113858668Y-81792662D01*
X113861353Y-81793080D01*
X113879017Y-81795830D01*
X113895732Y-81799613D01*
X113915466Y-81805515D01*
X113915472Y-81805516D01*
X113924066Y-81808086D01*
X113933037Y-81808141D01*
X113933038Y-81808141D01*
X113943097Y-81808202D01*
X113958506Y-81808296D01*
X113959289Y-81808329D01*
X113960386Y-81808500D01*
X113991377Y-81808500D01*
X113992147Y-81808502D01*
X114065785Y-81808952D01*
X114065786Y-81808952D01*
X114069721Y-81808976D01*
X114071065Y-81808592D01*
X114072410Y-81808500D01*
X126991377Y-81808500D01*
X126992148Y-81808502D01*
X127069721Y-81808976D01*
X127098152Y-81800850D01*
X127114915Y-81797272D01*
X127115753Y-81797152D01*
X127144187Y-81793080D01*
X127167564Y-81782451D01*
X127185087Y-81776004D01*
X127209771Y-81768949D01*
X127217365Y-81764157D01*
X127217368Y-81764156D01*
X127234780Y-81753170D01*
X127249865Y-81745030D01*
X127276782Y-81732792D01*
X127296235Y-81716030D01*
X127311239Y-81704927D01*
X127332958Y-81691224D01*
X127338897Y-81684499D01*
X127338901Y-81684496D01*
X127352532Y-81669062D01*
X127364724Y-81657018D01*
X127380327Y-81643573D01*
X127380329Y-81643570D01*
X127387127Y-81637713D01*
X127401094Y-81616165D01*
X127412385Y-81601291D01*
X127423431Y-81588783D01*
X127423432Y-81588782D01*
X127429378Y-81582049D01*
X127441943Y-81555287D01*
X127450263Y-81540309D01*
X127461471Y-81523017D01*
X127461473Y-81523012D01*
X127466352Y-81515485D01*
X127468922Y-81506892D01*
X127468924Y-81506887D01*
X127473711Y-81490880D01*
X127480372Y-81473436D01*
X127487467Y-81458324D01*
X127487468Y-81458322D01*
X127491281Y-81450200D01*
X127495830Y-81420983D01*
X127499613Y-81404268D01*
X127505515Y-81384534D01*
X127505516Y-81384528D01*
X127508086Y-81375934D01*
X127508124Y-81369721D01*
X132491024Y-81369721D01*
X132493491Y-81378352D01*
X132499150Y-81398153D01*
X132502728Y-81414915D01*
X132506920Y-81444187D01*
X132510634Y-81452355D01*
X132510634Y-81452356D01*
X132517548Y-81467562D01*
X132523996Y-81485086D01*
X132531051Y-81509771D01*
X132535843Y-81517365D01*
X132535844Y-81517368D01*
X132546830Y-81534780D01*
X132554969Y-81549863D01*
X132567208Y-81576782D01*
X132573069Y-81583584D01*
X132583970Y-81596235D01*
X132595073Y-81611239D01*
X132608776Y-81632958D01*
X132615501Y-81638897D01*
X132615504Y-81638901D01*
X132630938Y-81652532D01*
X132642982Y-81664724D01*
X132656427Y-81680327D01*
X132656430Y-81680329D01*
X132662287Y-81687127D01*
X132669816Y-81692007D01*
X132669817Y-81692008D01*
X132683835Y-81701094D01*
X132698709Y-81712385D01*
X132711217Y-81723431D01*
X132717951Y-81729378D01*
X132744711Y-81741942D01*
X132759691Y-81750263D01*
X132776983Y-81761471D01*
X132776988Y-81761473D01*
X132784515Y-81766352D01*
X132793108Y-81768922D01*
X132793113Y-81768924D01*
X132809120Y-81773711D01*
X132826564Y-81780372D01*
X132841676Y-81787467D01*
X132841678Y-81787468D01*
X132849800Y-81791281D01*
X132858667Y-81792662D01*
X132858668Y-81792662D01*
X132861353Y-81793080D01*
X132879017Y-81795830D01*
X132895732Y-81799613D01*
X132915466Y-81805515D01*
X132915472Y-81805516D01*
X132924066Y-81808086D01*
X132933037Y-81808141D01*
X132933038Y-81808141D01*
X132943097Y-81808202D01*
X132958506Y-81808296D01*
X132959289Y-81808329D01*
X132960386Y-81808500D01*
X132991377Y-81808500D01*
X132992147Y-81808502D01*
X133065785Y-81808952D01*
X133065786Y-81808952D01*
X133069721Y-81808976D01*
X133071065Y-81808592D01*
X133072410Y-81808500D01*
X145991377Y-81808500D01*
X145992148Y-81808502D01*
X146069721Y-81808976D01*
X146098152Y-81800850D01*
X146114915Y-81797272D01*
X146115753Y-81797152D01*
X146144187Y-81793080D01*
X146167564Y-81782451D01*
X146185087Y-81776004D01*
X146209771Y-81768949D01*
X146217365Y-81764157D01*
X146217368Y-81764156D01*
X146234780Y-81753170D01*
X146249865Y-81745030D01*
X146276782Y-81732792D01*
X146296235Y-81716030D01*
X146311239Y-81704927D01*
X146332958Y-81691224D01*
X146338897Y-81684499D01*
X146338901Y-81684496D01*
X146352532Y-81669062D01*
X146364724Y-81657018D01*
X146380327Y-81643573D01*
X146380329Y-81643570D01*
X146387127Y-81637713D01*
X146401094Y-81616165D01*
X146412385Y-81601291D01*
X146423431Y-81588783D01*
X146423432Y-81588782D01*
X146429378Y-81582049D01*
X146441943Y-81555287D01*
X146450263Y-81540309D01*
X146461471Y-81523017D01*
X146461473Y-81523012D01*
X146466352Y-81515485D01*
X146468922Y-81506892D01*
X146468924Y-81506887D01*
X146473711Y-81490880D01*
X146480372Y-81473436D01*
X146487467Y-81458324D01*
X146487468Y-81458322D01*
X146491281Y-81450200D01*
X146495830Y-81420983D01*
X146499613Y-81404268D01*
X146505515Y-81384534D01*
X146505516Y-81384528D01*
X146508086Y-81375934D01*
X146508124Y-81369721D01*
X189491024Y-81369721D01*
X189493491Y-81378352D01*
X189499150Y-81398153D01*
X189502728Y-81414915D01*
X189506920Y-81444187D01*
X189510634Y-81452355D01*
X189510634Y-81452356D01*
X189517548Y-81467562D01*
X189523996Y-81485086D01*
X189531051Y-81509771D01*
X189535843Y-81517365D01*
X189535844Y-81517368D01*
X189546830Y-81534780D01*
X189554969Y-81549863D01*
X189567208Y-81576782D01*
X189573069Y-81583584D01*
X189583970Y-81596235D01*
X189595073Y-81611239D01*
X189608776Y-81632958D01*
X189615501Y-81638897D01*
X189615504Y-81638901D01*
X189630938Y-81652532D01*
X189642982Y-81664724D01*
X189656427Y-81680327D01*
X189656430Y-81680329D01*
X189662287Y-81687127D01*
X189669816Y-81692007D01*
X189669817Y-81692008D01*
X189683835Y-81701094D01*
X189698709Y-81712385D01*
X189711217Y-81723431D01*
X189717951Y-81729378D01*
X189744711Y-81741942D01*
X189759691Y-81750263D01*
X189776983Y-81761471D01*
X189776988Y-81761473D01*
X189784515Y-81766352D01*
X189793108Y-81768922D01*
X189793113Y-81768924D01*
X189809120Y-81773711D01*
X189826564Y-81780372D01*
X189841676Y-81787467D01*
X189841678Y-81787468D01*
X189849800Y-81791281D01*
X189858667Y-81792662D01*
X189858668Y-81792662D01*
X189861353Y-81793080D01*
X189879017Y-81795830D01*
X189895732Y-81799613D01*
X189915466Y-81805515D01*
X189915472Y-81805516D01*
X189924066Y-81808086D01*
X189933037Y-81808141D01*
X189933038Y-81808141D01*
X189943097Y-81808202D01*
X189958506Y-81808296D01*
X189959289Y-81808329D01*
X189960386Y-81808500D01*
X189991377Y-81808500D01*
X189992147Y-81808502D01*
X190065785Y-81808952D01*
X190065786Y-81808952D01*
X190069721Y-81808976D01*
X190071065Y-81808592D01*
X190072410Y-81808500D01*
X202991377Y-81808500D01*
X202992148Y-81808502D01*
X203069721Y-81808976D01*
X203098152Y-81800850D01*
X203114915Y-81797272D01*
X203115753Y-81797152D01*
X203144187Y-81793080D01*
X203167564Y-81782451D01*
X203185087Y-81776004D01*
X203209771Y-81768949D01*
X203217365Y-81764157D01*
X203217368Y-81764156D01*
X203234780Y-81753170D01*
X203249865Y-81745030D01*
X203276782Y-81732792D01*
X203296235Y-81716030D01*
X203311239Y-81704927D01*
X203332958Y-81691224D01*
X203338897Y-81684499D01*
X203338901Y-81684496D01*
X203352532Y-81669062D01*
X203364724Y-81657018D01*
X203380327Y-81643573D01*
X203380329Y-81643570D01*
X203387127Y-81637713D01*
X203401094Y-81616165D01*
X203412385Y-81601291D01*
X203423431Y-81588783D01*
X203423432Y-81588782D01*
X203429378Y-81582049D01*
X203441943Y-81555287D01*
X203450263Y-81540309D01*
X203461471Y-81523017D01*
X203461473Y-81523012D01*
X203466352Y-81515485D01*
X203468922Y-81506892D01*
X203468924Y-81506887D01*
X203473711Y-81490880D01*
X203480372Y-81473436D01*
X203487467Y-81458324D01*
X203487468Y-81458322D01*
X203491281Y-81450200D01*
X203495830Y-81420983D01*
X203499613Y-81404268D01*
X203505515Y-81384534D01*
X203505516Y-81384528D01*
X203508086Y-81375934D01*
X203508124Y-81369721D01*
X208491024Y-81369721D01*
X208493491Y-81378352D01*
X208499150Y-81398153D01*
X208502728Y-81414915D01*
X208506920Y-81444187D01*
X208510634Y-81452355D01*
X208510634Y-81452356D01*
X208517548Y-81467562D01*
X208523996Y-81485086D01*
X208531051Y-81509771D01*
X208535843Y-81517365D01*
X208535844Y-81517368D01*
X208546830Y-81534780D01*
X208554969Y-81549863D01*
X208567208Y-81576782D01*
X208573069Y-81583584D01*
X208583970Y-81596235D01*
X208595073Y-81611239D01*
X208608776Y-81632958D01*
X208615501Y-81638897D01*
X208615504Y-81638901D01*
X208630938Y-81652532D01*
X208642982Y-81664724D01*
X208656427Y-81680327D01*
X208656430Y-81680329D01*
X208662287Y-81687127D01*
X208669816Y-81692007D01*
X208669817Y-81692008D01*
X208683835Y-81701094D01*
X208698709Y-81712385D01*
X208711217Y-81723431D01*
X208717951Y-81729378D01*
X208744711Y-81741942D01*
X208759691Y-81750263D01*
X208776983Y-81761471D01*
X208776988Y-81761473D01*
X208784515Y-81766352D01*
X208793108Y-81768922D01*
X208793113Y-81768924D01*
X208809120Y-81773711D01*
X208826564Y-81780372D01*
X208841676Y-81787467D01*
X208841678Y-81787468D01*
X208849800Y-81791281D01*
X208858667Y-81792662D01*
X208858668Y-81792662D01*
X208861353Y-81793080D01*
X208879017Y-81795830D01*
X208895732Y-81799613D01*
X208915466Y-81805515D01*
X208915472Y-81805516D01*
X208924066Y-81808086D01*
X208933037Y-81808141D01*
X208933038Y-81808141D01*
X208943097Y-81808202D01*
X208958506Y-81808296D01*
X208959289Y-81808329D01*
X208960386Y-81808500D01*
X208991377Y-81808500D01*
X208992147Y-81808502D01*
X209065785Y-81808952D01*
X209065786Y-81808952D01*
X209069721Y-81808976D01*
X209071065Y-81808592D01*
X209072410Y-81808500D01*
X221991377Y-81808500D01*
X221992148Y-81808502D01*
X222069721Y-81808976D01*
X222098152Y-81800850D01*
X222114915Y-81797272D01*
X222115753Y-81797152D01*
X222144187Y-81793080D01*
X222167564Y-81782451D01*
X222185087Y-81776004D01*
X222209771Y-81768949D01*
X222217365Y-81764157D01*
X222217368Y-81764156D01*
X222234780Y-81753170D01*
X222249865Y-81745030D01*
X222276782Y-81732792D01*
X222296235Y-81716030D01*
X222311239Y-81704927D01*
X222332958Y-81691224D01*
X222338897Y-81684499D01*
X222338901Y-81684496D01*
X222352532Y-81669062D01*
X222364724Y-81657018D01*
X222380327Y-81643573D01*
X222380329Y-81643570D01*
X222387127Y-81637713D01*
X222401094Y-81616165D01*
X222412385Y-81601291D01*
X222423431Y-81588783D01*
X222423432Y-81588782D01*
X222429378Y-81582049D01*
X222441943Y-81555287D01*
X222450263Y-81540309D01*
X222461471Y-81523017D01*
X222461473Y-81523012D01*
X222466352Y-81515485D01*
X222468922Y-81506892D01*
X222468924Y-81506887D01*
X222473711Y-81490880D01*
X222480372Y-81473436D01*
X222487467Y-81458324D01*
X222487468Y-81458322D01*
X222491281Y-81450200D01*
X222495830Y-81420983D01*
X222499613Y-81404268D01*
X222505515Y-81384534D01*
X222505516Y-81384528D01*
X222508086Y-81375934D01*
X222508124Y-81369721D01*
X227491024Y-81369721D01*
X227493491Y-81378352D01*
X227499150Y-81398153D01*
X227502728Y-81414915D01*
X227506920Y-81444187D01*
X227510634Y-81452355D01*
X227510634Y-81452356D01*
X227517548Y-81467562D01*
X227523996Y-81485086D01*
X227531051Y-81509771D01*
X227535843Y-81517365D01*
X227535844Y-81517368D01*
X227546830Y-81534780D01*
X227554969Y-81549863D01*
X227567208Y-81576782D01*
X227573069Y-81583584D01*
X227583970Y-81596235D01*
X227595073Y-81611239D01*
X227608776Y-81632958D01*
X227615501Y-81638897D01*
X227615504Y-81638901D01*
X227630938Y-81652532D01*
X227642982Y-81664724D01*
X227656427Y-81680327D01*
X227656430Y-81680329D01*
X227662287Y-81687127D01*
X227669816Y-81692007D01*
X227669817Y-81692008D01*
X227683835Y-81701094D01*
X227698709Y-81712385D01*
X227711217Y-81723431D01*
X227717951Y-81729378D01*
X227744711Y-81741942D01*
X227759691Y-81750263D01*
X227776983Y-81761471D01*
X227776988Y-81761473D01*
X227784515Y-81766352D01*
X227793108Y-81768922D01*
X227793113Y-81768924D01*
X227809120Y-81773711D01*
X227826564Y-81780372D01*
X227841676Y-81787467D01*
X227841678Y-81787468D01*
X227849800Y-81791281D01*
X227858667Y-81792662D01*
X227858668Y-81792662D01*
X227861353Y-81793080D01*
X227879017Y-81795830D01*
X227895732Y-81799613D01*
X227915466Y-81805515D01*
X227915472Y-81805516D01*
X227924066Y-81808086D01*
X227933037Y-81808141D01*
X227933038Y-81808141D01*
X227943097Y-81808202D01*
X227958506Y-81808296D01*
X227959289Y-81808329D01*
X227960386Y-81808500D01*
X227991377Y-81808500D01*
X227992147Y-81808502D01*
X228065785Y-81808952D01*
X228065786Y-81808952D01*
X228069721Y-81808976D01*
X228071065Y-81808592D01*
X228072410Y-81808500D01*
X240991377Y-81808500D01*
X240992148Y-81808502D01*
X241069721Y-81808976D01*
X241098152Y-81800850D01*
X241114915Y-81797272D01*
X241115753Y-81797152D01*
X241144187Y-81793080D01*
X241167564Y-81782451D01*
X241185087Y-81776004D01*
X241209771Y-81768949D01*
X241217365Y-81764157D01*
X241217368Y-81764156D01*
X241234780Y-81753170D01*
X241249865Y-81745030D01*
X241276782Y-81732792D01*
X241296235Y-81716030D01*
X241311239Y-81704927D01*
X241332958Y-81691224D01*
X241338897Y-81684499D01*
X241338901Y-81684496D01*
X241352532Y-81669062D01*
X241364724Y-81657018D01*
X241380327Y-81643573D01*
X241380329Y-81643570D01*
X241387127Y-81637713D01*
X241401094Y-81616165D01*
X241412385Y-81601291D01*
X241423431Y-81588783D01*
X241423432Y-81588782D01*
X241429378Y-81582049D01*
X241441943Y-81555287D01*
X241450263Y-81540309D01*
X241461471Y-81523017D01*
X241461473Y-81523012D01*
X241466352Y-81515485D01*
X241468922Y-81506892D01*
X241468924Y-81506887D01*
X241473711Y-81490880D01*
X241480372Y-81473436D01*
X241487467Y-81458324D01*
X241487468Y-81458322D01*
X241491281Y-81450200D01*
X241495830Y-81420983D01*
X241499613Y-81404268D01*
X241505515Y-81384534D01*
X241505516Y-81384528D01*
X241508086Y-81375934D01*
X241508296Y-81341494D01*
X241508329Y-81340711D01*
X241508500Y-81339614D01*
X241508500Y-81308623D01*
X241508502Y-81307853D01*
X241508952Y-81234215D01*
X241508952Y-81234214D01*
X241508976Y-81230279D01*
X241508592Y-81228935D01*
X241508500Y-81227590D01*
X241508500Y-68308623D01*
X241508502Y-68307853D01*
X241508800Y-68259102D01*
X241508976Y-68230279D01*
X241500850Y-68201847D01*
X241497272Y-68185085D01*
X241494352Y-68164698D01*
X241493080Y-68155813D01*
X241482451Y-68132436D01*
X241476004Y-68114913D01*
X241471416Y-68098862D01*
X241468949Y-68090229D01*
X241464156Y-68082632D01*
X241453170Y-68065220D01*
X241445030Y-68050135D01*
X241442564Y-68044711D01*
X241432792Y-68023218D01*
X241416030Y-68003765D01*
X241404927Y-67988761D01*
X241391224Y-67967042D01*
X241384499Y-67961103D01*
X241384496Y-67961099D01*
X241369062Y-67947468D01*
X241357018Y-67935276D01*
X241343573Y-67919673D01*
X241343570Y-67919671D01*
X241337713Y-67912873D01*
X241324009Y-67903990D01*
X241316165Y-67898906D01*
X241301291Y-67887615D01*
X241288783Y-67876569D01*
X241288782Y-67876568D01*
X241282049Y-67870622D01*
X241255287Y-67858057D01*
X241240309Y-67849737D01*
X241223017Y-67838529D01*
X241223012Y-67838527D01*
X241215485Y-67833648D01*
X241206892Y-67831078D01*
X241206887Y-67831076D01*
X241190880Y-67826289D01*
X241173436Y-67819628D01*
X241158324Y-67812533D01*
X241158322Y-67812532D01*
X241150200Y-67808719D01*
X241141333Y-67807338D01*
X241141332Y-67807338D01*
X241130478Y-67805648D01*
X241120983Y-67804170D01*
X241104268Y-67800387D01*
X241084534Y-67794485D01*
X241084528Y-67794484D01*
X241075934Y-67791914D01*
X241066963Y-67791859D01*
X241066962Y-67791859D01*
X241056903Y-67791798D01*
X241041494Y-67791704D01*
X241040711Y-67791671D01*
X241039614Y-67791500D01*
X241008623Y-67791500D01*
X241007853Y-67791498D01*
X240934215Y-67791048D01*
X240934214Y-67791048D01*
X240930279Y-67791024D01*
X240928935Y-67791408D01*
X240927590Y-67791500D01*
X228008623Y-67791500D01*
X228007853Y-67791498D01*
X228007037Y-67791493D01*
X227930279Y-67791024D01*
X227907918Y-67797415D01*
X227901847Y-67799150D01*
X227885085Y-67802728D01*
X227855813Y-67806920D01*
X227847645Y-67810634D01*
X227847644Y-67810634D01*
X227832438Y-67817548D01*
X227814914Y-67823996D01*
X227790229Y-67831051D01*
X227782635Y-67835843D01*
X227782632Y-67835844D01*
X227765220Y-67846830D01*
X227750137Y-67854969D01*
X227723218Y-67867208D01*
X227716416Y-67873069D01*
X227703765Y-67883970D01*
X227688761Y-67895073D01*
X227667042Y-67908776D01*
X227661103Y-67915501D01*
X227661099Y-67915504D01*
X227647468Y-67930938D01*
X227635276Y-67942982D01*
X227619673Y-67956427D01*
X227619671Y-67956430D01*
X227612873Y-67962287D01*
X227607993Y-67969816D01*
X227607992Y-67969817D01*
X227598906Y-67983835D01*
X227587615Y-67998709D01*
X227576569Y-68011217D01*
X227570622Y-68017951D01*
X227564312Y-68031391D01*
X227558058Y-68044711D01*
X227549737Y-68059691D01*
X227538529Y-68076983D01*
X227538527Y-68076988D01*
X227533648Y-68084515D01*
X227531078Y-68093108D01*
X227531076Y-68093113D01*
X227526289Y-68109120D01*
X227519628Y-68126564D01*
X227512533Y-68141676D01*
X227508719Y-68149800D01*
X227507338Y-68158667D01*
X227507338Y-68158668D01*
X227504170Y-68179015D01*
X227500387Y-68195732D01*
X227494485Y-68215466D01*
X227494484Y-68215472D01*
X227491914Y-68224066D01*
X227491859Y-68233037D01*
X227491859Y-68233038D01*
X227491704Y-68258497D01*
X227491671Y-68259289D01*
X227491500Y-68260386D01*
X227491500Y-68291377D01*
X227491498Y-68292147D01*
X227491024Y-68369721D01*
X227491408Y-68371065D01*
X227491500Y-68372410D01*
X227491500Y-81291377D01*
X227491498Y-81292147D01*
X227491024Y-81369721D01*
X222508124Y-81369721D01*
X222508296Y-81341494D01*
X222508329Y-81340711D01*
X222508500Y-81339614D01*
X222508500Y-81308623D01*
X222508502Y-81307853D01*
X222508952Y-81234215D01*
X222508952Y-81234214D01*
X222508976Y-81230279D01*
X222508592Y-81228935D01*
X222508500Y-81227590D01*
X222508500Y-68308623D01*
X222508502Y-68307853D01*
X222508800Y-68259102D01*
X222508976Y-68230279D01*
X222500850Y-68201847D01*
X222497272Y-68185085D01*
X222494352Y-68164698D01*
X222493080Y-68155813D01*
X222482451Y-68132436D01*
X222476004Y-68114913D01*
X222471416Y-68098862D01*
X222468949Y-68090229D01*
X222464156Y-68082632D01*
X222453170Y-68065220D01*
X222445030Y-68050135D01*
X222442564Y-68044711D01*
X222432792Y-68023218D01*
X222416030Y-68003765D01*
X222404927Y-67988761D01*
X222391224Y-67967042D01*
X222384499Y-67961103D01*
X222384496Y-67961099D01*
X222369062Y-67947468D01*
X222357018Y-67935276D01*
X222343573Y-67919673D01*
X222343570Y-67919671D01*
X222337713Y-67912873D01*
X222324009Y-67903990D01*
X222316165Y-67898906D01*
X222301291Y-67887615D01*
X222288783Y-67876569D01*
X222288782Y-67876568D01*
X222282049Y-67870622D01*
X222255287Y-67858057D01*
X222240309Y-67849737D01*
X222223017Y-67838529D01*
X222223012Y-67838527D01*
X222215485Y-67833648D01*
X222206892Y-67831078D01*
X222206887Y-67831076D01*
X222190880Y-67826289D01*
X222173436Y-67819628D01*
X222158324Y-67812533D01*
X222158322Y-67812532D01*
X222150200Y-67808719D01*
X222141333Y-67807338D01*
X222141332Y-67807338D01*
X222130478Y-67805648D01*
X222120983Y-67804170D01*
X222104268Y-67800387D01*
X222084534Y-67794485D01*
X222084528Y-67794484D01*
X222075934Y-67791914D01*
X222066963Y-67791859D01*
X222066962Y-67791859D01*
X222056903Y-67791798D01*
X222041494Y-67791704D01*
X222040711Y-67791671D01*
X222039614Y-67791500D01*
X222008623Y-67791500D01*
X222007853Y-67791498D01*
X221934215Y-67791048D01*
X221934214Y-67791048D01*
X221930279Y-67791024D01*
X221928935Y-67791408D01*
X221927590Y-67791500D01*
X209008623Y-67791500D01*
X209007853Y-67791498D01*
X209007037Y-67791493D01*
X208930279Y-67791024D01*
X208907918Y-67797415D01*
X208901847Y-67799150D01*
X208885085Y-67802728D01*
X208855813Y-67806920D01*
X208847645Y-67810634D01*
X208847644Y-67810634D01*
X208832438Y-67817548D01*
X208814914Y-67823996D01*
X208790229Y-67831051D01*
X208782635Y-67835843D01*
X208782632Y-67835844D01*
X208765220Y-67846830D01*
X208750137Y-67854969D01*
X208723218Y-67867208D01*
X208716416Y-67873069D01*
X208703765Y-67883970D01*
X208688761Y-67895073D01*
X208667042Y-67908776D01*
X208661103Y-67915501D01*
X208661099Y-67915504D01*
X208647468Y-67930938D01*
X208635276Y-67942982D01*
X208619673Y-67956427D01*
X208619671Y-67956430D01*
X208612873Y-67962287D01*
X208607993Y-67969816D01*
X208607992Y-67969817D01*
X208598906Y-67983835D01*
X208587615Y-67998709D01*
X208576569Y-68011217D01*
X208570622Y-68017951D01*
X208564312Y-68031391D01*
X208558058Y-68044711D01*
X208549737Y-68059691D01*
X208538529Y-68076983D01*
X208538527Y-68076988D01*
X208533648Y-68084515D01*
X208531078Y-68093108D01*
X208531076Y-68093113D01*
X208526289Y-68109120D01*
X208519628Y-68126564D01*
X208512533Y-68141676D01*
X208508719Y-68149800D01*
X208507338Y-68158667D01*
X208507338Y-68158668D01*
X208504170Y-68179015D01*
X208500387Y-68195732D01*
X208494485Y-68215466D01*
X208494484Y-68215472D01*
X208491914Y-68224066D01*
X208491859Y-68233037D01*
X208491859Y-68233038D01*
X208491704Y-68258497D01*
X208491671Y-68259289D01*
X208491500Y-68260386D01*
X208491500Y-68291377D01*
X208491498Y-68292147D01*
X208491024Y-68369721D01*
X208491408Y-68371065D01*
X208491500Y-68372410D01*
X208491500Y-81291377D01*
X208491498Y-81292147D01*
X208491024Y-81369721D01*
X203508124Y-81369721D01*
X203508296Y-81341494D01*
X203508329Y-81340711D01*
X203508500Y-81339614D01*
X203508500Y-81308623D01*
X203508502Y-81307853D01*
X203508952Y-81234215D01*
X203508952Y-81234214D01*
X203508976Y-81230279D01*
X203508592Y-81228935D01*
X203508500Y-81227590D01*
X203508500Y-68308623D01*
X203508502Y-68307853D01*
X203508800Y-68259102D01*
X203508976Y-68230279D01*
X203500850Y-68201847D01*
X203497272Y-68185085D01*
X203494352Y-68164698D01*
X203493080Y-68155813D01*
X203482451Y-68132436D01*
X203476004Y-68114913D01*
X203471416Y-68098862D01*
X203468949Y-68090229D01*
X203464156Y-68082632D01*
X203453170Y-68065220D01*
X203445030Y-68050135D01*
X203442564Y-68044711D01*
X203432792Y-68023218D01*
X203416030Y-68003765D01*
X203404927Y-67988761D01*
X203391224Y-67967042D01*
X203384499Y-67961103D01*
X203384496Y-67961099D01*
X203369062Y-67947468D01*
X203357018Y-67935276D01*
X203343573Y-67919673D01*
X203343570Y-67919671D01*
X203337713Y-67912873D01*
X203324009Y-67903990D01*
X203316165Y-67898906D01*
X203301291Y-67887615D01*
X203288783Y-67876569D01*
X203288782Y-67876568D01*
X203282049Y-67870622D01*
X203255287Y-67858057D01*
X203240309Y-67849737D01*
X203223017Y-67838529D01*
X203223012Y-67838527D01*
X203215485Y-67833648D01*
X203206892Y-67831078D01*
X203206887Y-67831076D01*
X203190880Y-67826289D01*
X203173436Y-67819628D01*
X203158324Y-67812533D01*
X203158322Y-67812532D01*
X203150200Y-67808719D01*
X203141333Y-67807338D01*
X203141332Y-67807338D01*
X203130478Y-67805648D01*
X203120983Y-67804170D01*
X203104268Y-67800387D01*
X203084534Y-67794485D01*
X203084528Y-67794484D01*
X203075934Y-67791914D01*
X203066963Y-67791859D01*
X203066962Y-67791859D01*
X203056903Y-67791798D01*
X203041494Y-67791704D01*
X203040711Y-67791671D01*
X203039614Y-67791500D01*
X203008623Y-67791500D01*
X203007853Y-67791498D01*
X202934215Y-67791048D01*
X202934214Y-67791048D01*
X202930279Y-67791024D01*
X202928935Y-67791408D01*
X202927590Y-67791500D01*
X190008623Y-67791500D01*
X190007853Y-67791498D01*
X190007037Y-67791493D01*
X189930279Y-67791024D01*
X189907918Y-67797415D01*
X189901847Y-67799150D01*
X189885085Y-67802728D01*
X189855813Y-67806920D01*
X189847645Y-67810634D01*
X189847644Y-67810634D01*
X189832438Y-67817548D01*
X189814914Y-67823996D01*
X189790229Y-67831051D01*
X189782635Y-67835843D01*
X189782632Y-67835844D01*
X189765220Y-67846830D01*
X189750137Y-67854969D01*
X189723218Y-67867208D01*
X189716416Y-67873069D01*
X189703765Y-67883970D01*
X189688761Y-67895073D01*
X189667042Y-67908776D01*
X189661103Y-67915501D01*
X189661099Y-67915504D01*
X189647468Y-67930938D01*
X189635276Y-67942982D01*
X189619673Y-67956427D01*
X189619671Y-67956430D01*
X189612873Y-67962287D01*
X189607993Y-67969816D01*
X189607992Y-67969817D01*
X189598906Y-67983835D01*
X189587615Y-67998709D01*
X189576569Y-68011217D01*
X189570622Y-68017951D01*
X189564312Y-68031391D01*
X189558058Y-68044711D01*
X189549737Y-68059691D01*
X189538529Y-68076983D01*
X189538527Y-68076988D01*
X189533648Y-68084515D01*
X189531078Y-68093108D01*
X189531076Y-68093113D01*
X189526289Y-68109120D01*
X189519628Y-68126564D01*
X189512533Y-68141676D01*
X189508719Y-68149800D01*
X189507338Y-68158667D01*
X189507338Y-68158668D01*
X189504170Y-68179015D01*
X189500387Y-68195732D01*
X189494485Y-68215466D01*
X189494484Y-68215472D01*
X189491914Y-68224066D01*
X189491859Y-68233037D01*
X189491859Y-68233038D01*
X189491704Y-68258497D01*
X189491671Y-68259289D01*
X189491500Y-68260386D01*
X189491500Y-68291377D01*
X189491498Y-68292147D01*
X189491024Y-68369721D01*
X189491408Y-68371065D01*
X189491500Y-68372410D01*
X189491500Y-81291377D01*
X189491498Y-81292147D01*
X189491024Y-81369721D01*
X146508124Y-81369721D01*
X146508296Y-81341494D01*
X146508329Y-81340711D01*
X146508500Y-81339614D01*
X146508500Y-81308623D01*
X146508502Y-81307853D01*
X146508952Y-81234215D01*
X146508952Y-81234214D01*
X146508976Y-81230279D01*
X146508592Y-81228935D01*
X146508500Y-81227590D01*
X146508500Y-68308623D01*
X146508502Y-68307853D01*
X146508800Y-68259102D01*
X146508976Y-68230279D01*
X146500850Y-68201847D01*
X146497272Y-68185085D01*
X146494352Y-68164698D01*
X146493080Y-68155813D01*
X146482451Y-68132436D01*
X146476004Y-68114913D01*
X146471416Y-68098862D01*
X146468949Y-68090229D01*
X146464156Y-68082632D01*
X146453170Y-68065220D01*
X146445030Y-68050135D01*
X146442564Y-68044711D01*
X146432792Y-68023218D01*
X146416030Y-68003765D01*
X146404927Y-67988761D01*
X146391224Y-67967042D01*
X146384499Y-67961103D01*
X146384496Y-67961099D01*
X146369062Y-67947468D01*
X146357018Y-67935276D01*
X146343573Y-67919673D01*
X146343570Y-67919671D01*
X146337713Y-67912873D01*
X146324009Y-67903990D01*
X146316165Y-67898906D01*
X146301291Y-67887615D01*
X146288783Y-67876569D01*
X146288782Y-67876568D01*
X146282049Y-67870622D01*
X146255287Y-67858057D01*
X146240309Y-67849737D01*
X146223017Y-67838529D01*
X146223012Y-67838527D01*
X146215485Y-67833648D01*
X146206892Y-67831078D01*
X146206887Y-67831076D01*
X146190880Y-67826289D01*
X146173436Y-67819628D01*
X146158324Y-67812533D01*
X146158322Y-67812532D01*
X146150200Y-67808719D01*
X146141333Y-67807338D01*
X146141332Y-67807338D01*
X146130478Y-67805648D01*
X146120983Y-67804170D01*
X146104268Y-67800387D01*
X146084534Y-67794485D01*
X146084528Y-67794484D01*
X146075934Y-67791914D01*
X146066963Y-67791859D01*
X146066962Y-67791859D01*
X146056903Y-67791798D01*
X146041494Y-67791704D01*
X146040711Y-67791671D01*
X146039614Y-67791500D01*
X146008623Y-67791500D01*
X146007853Y-67791498D01*
X145934215Y-67791048D01*
X145934214Y-67791048D01*
X145930279Y-67791024D01*
X145928935Y-67791408D01*
X145927590Y-67791500D01*
X133008623Y-67791500D01*
X133007853Y-67791498D01*
X133007037Y-67791493D01*
X132930279Y-67791024D01*
X132907918Y-67797415D01*
X132901847Y-67799150D01*
X132885085Y-67802728D01*
X132855813Y-67806920D01*
X132847645Y-67810634D01*
X132847644Y-67810634D01*
X132832438Y-67817548D01*
X132814914Y-67823996D01*
X132790229Y-67831051D01*
X132782635Y-67835843D01*
X132782632Y-67835844D01*
X132765220Y-67846830D01*
X132750137Y-67854969D01*
X132723218Y-67867208D01*
X132716416Y-67873069D01*
X132703765Y-67883970D01*
X132688761Y-67895073D01*
X132667042Y-67908776D01*
X132661103Y-67915501D01*
X132661099Y-67915504D01*
X132647468Y-67930938D01*
X132635276Y-67942982D01*
X132619673Y-67956427D01*
X132619671Y-67956430D01*
X132612873Y-67962287D01*
X132607993Y-67969816D01*
X132607992Y-67969817D01*
X132598906Y-67983835D01*
X132587615Y-67998709D01*
X132576569Y-68011217D01*
X132570622Y-68017951D01*
X132564312Y-68031391D01*
X132558058Y-68044711D01*
X132549737Y-68059691D01*
X132538529Y-68076983D01*
X132538527Y-68076988D01*
X132533648Y-68084515D01*
X132531078Y-68093108D01*
X132531076Y-68093113D01*
X132526289Y-68109120D01*
X132519628Y-68126564D01*
X132512533Y-68141676D01*
X132508719Y-68149800D01*
X132507338Y-68158667D01*
X132507338Y-68158668D01*
X132504170Y-68179015D01*
X132500387Y-68195732D01*
X132494485Y-68215466D01*
X132494484Y-68215472D01*
X132491914Y-68224066D01*
X132491859Y-68233037D01*
X132491859Y-68233038D01*
X132491704Y-68258497D01*
X132491671Y-68259289D01*
X132491500Y-68260386D01*
X132491500Y-68291377D01*
X132491498Y-68292147D01*
X132491024Y-68369721D01*
X132491408Y-68371065D01*
X132491500Y-68372410D01*
X132491500Y-81291377D01*
X132491498Y-81292147D01*
X132491024Y-81369721D01*
X127508124Y-81369721D01*
X127508296Y-81341494D01*
X127508329Y-81340711D01*
X127508500Y-81339614D01*
X127508500Y-81308623D01*
X127508502Y-81307853D01*
X127508952Y-81234215D01*
X127508952Y-81234214D01*
X127508976Y-81230279D01*
X127508592Y-81228935D01*
X127508500Y-81227590D01*
X127508500Y-68308623D01*
X127508502Y-68307853D01*
X127508800Y-68259102D01*
X127508976Y-68230279D01*
X127500850Y-68201847D01*
X127497272Y-68185085D01*
X127494352Y-68164698D01*
X127493080Y-68155813D01*
X127482451Y-68132436D01*
X127476004Y-68114913D01*
X127471416Y-68098862D01*
X127468949Y-68090229D01*
X127464156Y-68082632D01*
X127453170Y-68065220D01*
X127445030Y-68050135D01*
X127442564Y-68044711D01*
X127432792Y-68023218D01*
X127416030Y-68003765D01*
X127404927Y-67988761D01*
X127391224Y-67967042D01*
X127384499Y-67961103D01*
X127384496Y-67961099D01*
X127369062Y-67947468D01*
X127357018Y-67935276D01*
X127343573Y-67919673D01*
X127343570Y-67919671D01*
X127337713Y-67912873D01*
X127324009Y-67903990D01*
X127316165Y-67898906D01*
X127301291Y-67887615D01*
X127288783Y-67876569D01*
X127288782Y-67876568D01*
X127282049Y-67870622D01*
X127255287Y-67858057D01*
X127240309Y-67849737D01*
X127223017Y-67838529D01*
X127223012Y-67838527D01*
X127215485Y-67833648D01*
X127206892Y-67831078D01*
X127206887Y-67831076D01*
X127190880Y-67826289D01*
X127173436Y-67819628D01*
X127158324Y-67812533D01*
X127158322Y-67812532D01*
X127150200Y-67808719D01*
X127141333Y-67807338D01*
X127141332Y-67807338D01*
X127130478Y-67805648D01*
X127120983Y-67804170D01*
X127104268Y-67800387D01*
X127084534Y-67794485D01*
X127084528Y-67794484D01*
X127075934Y-67791914D01*
X127066963Y-67791859D01*
X127066962Y-67791859D01*
X127056903Y-67791798D01*
X127041494Y-67791704D01*
X127040711Y-67791671D01*
X127039614Y-67791500D01*
X127008623Y-67791500D01*
X127007853Y-67791498D01*
X126934215Y-67791048D01*
X126934214Y-67791048D01*
X126930279Y-67791024D01*
X126928935Y-67791408D01*
X126927590Y-67791500D01*
X114008623Y-67791500D01*
X114007853Y-67791498D01*
X114007037Y-67791493D01*
X113930279Y-67791024D01*
X113907918Y-67797415D01*
X113901847Y-67799150D01*
X113885085Y-67802728D01*
X113855813Y-67806920D01*
X113847645Y-67810634D01*
X113847644Y-67810634D01*
X113832438Y-67817548D01*
X113814914Y-67823996D01*
X113790229Y-67831051D01*
X113782635Y-67835843D01*
X113782632Y-67835844D01*
X113765220Y-67846830D01*
X113750137Y-67854969D01*
X113723218Y-67867208D01*
X113716416Y-67873069D01*
X113703765Y-67883970D01*
X113688761Y-67895073D01*
X113667042Y-67908776D01*
X113661103Y-67915501D01*
X113661099Y-67915504D01*
X113647468Y-67930938D01*
X113635276Y-67942982D01*
X113619673Y-67956427D01*
X113619671Y-67956430D01*
X113612873Y-67962287D01*
X113607993Y-67969816D01*
X113607992Y-67969817D01*
X113598906Y-67983835D01*
X113587615Y-67998709D01*
X113576569Y-68011217D01*
X113570622Y-68017951D01*
X113564312Y-68031391D01*
X113558058Y-68044711D01*
X113549737Y-68059691D01*
X113538529Y-68076983D01*
X113538527Y-68076988D01*
X113533648Y-68084515D01*
X113531078Y-68093108D01*
X113531076Y-68093113D01*
X113526289Y-68109120D01*
X113519628Y-68126564D01*
X113512533Y-68141676D01*
X113508719Y-68149800D01*
X113507338Y-68158667D01*
X113507338Y-68158668D01*
X113504170Y-68179015D01*
X113500387Y-68195732D01*
X113494485Y-68215466D01*
X113494484Y-68215472D01*
X113491914Y-68224066D01*
X113491859Y-68233037D01*
X113491859Y-68233038D01*
X113491704Y-68258497D01*
X113491671Y-68259289D01*
X113491500Y-68260386D01*
X113491500Y-68291377D01*
X113491498Y-68292147D01*
X113491024Y-68369721D01*
X113491408Y-68371065D01*
X113491500Y-68372410D01*
X113491500Y-81291377D01*
X113491498Y-81292147D01*
X113491024Y-81369721D01*
X108508124Y-81369721D01*
X108508296Y-81341494D01*
X108508329Y-81340711D01*
X108508500Y-81339614D01*
X108508500Y-81308623D01*
X108508502Y-81307853D01*
X108508952Y-81234215D01*
X108508952Y-81234214D01*
X108508976Y-81230279D01*
X108508592Y-81228935D01*
X108508500Y-81227590D01*
X108508500Y-68308623D01*
X108508502Y-68307853D01*
X108508800Y-68259102D01*
X108508976Y-68230279D01*
X108500850Y-68201847D01*
X108497272Y-68185085D01*
X108494352Y-68164698D01*
X108493080Y-68155813D01*
X108482451Y-68132436D01*
X108476004Y-68114913D01*
X108471416Y-68098862D01*
X108468949Y-68090229D01*
X108464156Y-68082632D01*
X108453170Y-68065220D01*
X108445030Y-68050135D01*
X108442564Y-68044711D01*
X108432792Y-68023218D01*
X108416030Y-68003765D01*
X108404927Y-67988761D01*
X108391224Y-67967042D01*
X108384499Y-67961103D01*
X108384496Y-67961099D01*
X108369062Y-67947468D01*
X108357018Y-67935276D01*
X108343573Y-67919673D01*
X108343570Y-67919671D01*
X108337713Y-67912873D01*
X108324009Y-67903990D01*
X108316165Y-67898906D01*
X108301291Y-67887615D01*
X108288783Y-67876569D01*
X108288782Y-67876568D01*
X108282049Y-67870622D01*
X108255287Y-67858057D01*
X108240309Y-67849737D01*
X108223017Y-67838529D01*
X108223012Y-67838527D01*
X108215485Y-67833648D01*
X108206892Y-67831078D01*
X108206887Y-67831076D01*
X108190880Y-67826289D01*
X108173436Y-67819628D01*
X108158324Y-67812533D01*
X108158322Y-67812532D01*
X108150200Y-67808719D01*
X108141333Y-67807338D01*
X108141332Y-67807338D01*
X108130478Y-67805648D01*
X108120983Y-67804170D01*
X108104268Y-67800387D01*
X108084534Y-67794485D01*
X108084528Y-67794484D01*
X108075934Y-67791914D01*
X108066963Y-67791859D01*
X108066962Y-67791859D01*
X108056903Y-67791798D01*
X108041494Y-67791704D01*
X108040711Y-67791671D01*
X108039614Y-67791500D01*
X108008623Y-67791500D01*
X108007853Y-67791498D01*
X107934215Y-67791048D01*
X107934214Y-67791048D01*
X107930279Y-67791024D01*
X107928935Y-67791408D01*
X107927590Y-67791500D01*
X95008623Y-67791500D01*
X95007853Y-67791498D01*
X95007037Y-67791493D01*
X94930279Y-67791024D01*
X94907918Y-67797415D01*
X94901847Y-67799150D01*
X94885085Y-67802728D01*
X94855813Y-67806920D01*
X94847645Y-67810634D01*
X94847644Y-67810634D01*
X94832438Y-67817548D01*
X94814914Y-67823996D01*
X94790229Y-67831051D01*
X94782635Y-67835843D01*
X94782632Y-67835844D01*
X94765220Y-67846830D01*
X94750137Y-67854969D01*
X94723218Y-67867208D01*
X94716416Y-67873069D01*
X94703765Y-67883970D01*
X94688761Y-67895073D01*
X94667042Y-67908776D01*
X94661103Y-67915501D01*
X94661099Y-67915504D01*
X94647468Y-67930938D01*
X94635276Y-67942982D01*
X94619673Y-67956427D01*
X94619671Y-67956430D01*
X94612873Y-67962287D01*
X94607993Y-67969816D01*
X94607992Y-67969817D01*
X94598906Y-67983835D01*
X94587615Y-67998709D01*
X94576569Y-68011217D01*
X94570622Y-68017951D01*
X94564312Y-68031391D01*
X94558058Y-68044711D01*
X94549737Y-68059691D01*
X94538529Y-68076983D01*
X94538527Y-68076988D01*
X94533648Y-68084515D01*
X94531078Y-68093108D01*
X94531076Y-68093113D01*
X94526289Y-68109120D01*
X94519628Y-68126564D01*
X94512533Y-68141676D01*
X94508719Y-68149800D01*
X94507338Y-68158667D01*
X94507338Y-68158668D01*
X94504170Y-68179015D01*
X94500387Y-68195732D01*
X94494485Y-68215466D01*
X94494484Y-68215472D01*
X94491914Y-68224066D01*
X94491859Y-68233037D01*
X94491859Y-68233038D01*
X94491704Y-68258497D01*
X94491671Y-68259289D01*
X94491500Y-68260386D01*
X94491500Y-68291377D01*
X94491498Y-68292147D01*
X94491024Y-68369721D01*
X94491408Y-68371065D01*
X94491500Y-68372410D01*
X94491500Y-81291377D01*
X94491498Y-81292147D01*
X94491024Y-81369721D01*
X89508124Y-81369721D01*
X89508296Y-81341494D01*
X89508329Y-81340711D01*
X89508500Y-81339614D01*
X89508500Y-81308623D01*
X89508502Y-81307853D01*
X89508952Y-81234215D01*
X89508952Y-81234214D01*
X89508976Y-81230279D01*
X89508592Y-81228935D01*
X89508500Y-81227590D01*
X89508500Y-68308623D01*
X89508502Y-68307853D01*
X89508800Y-68259102D01*
X89508976Y-68230279D01*
X89500850Y-68201847D01*
X89497272Y-68185085D01*
X89494352Y-68164698D01*
X89493080Y-68155813D01*
X89482451Y-68132436D01*
X89476004Y-68114913D01*
X89471416Y-68098862D01*
X89468949Y-68090229D01*
X89464156Y-68082632D01*
X89453170Y-68065220D01*
X89445030Y-68050135D01*
X89442564Y-68044711D01*
X89432792Y-68023218D01*
X89416030Y-68003765D01*
X89404927Y-67988761D01*
X89391224Y-67967042D01*
X89384499Y-67961103D01*
X89384496Y-67961099D01*
X89369062Y-67947468D01*
X89357018Y-67935276D01*
X89343573Y-67919673D01*
X89343570Y-67919671D01*
X89337713Y-67912873D01*
X89324009Y-67903990D01*
X89316165Y-67898906D01*
X89301291Y-67887615D01*
X89288783Y-67876569D01*
X89288782Y-67876568D01*
X89282049Y-67870622D01*
X89255287Y-67858057D01*
X89240309Y-67849737D01*
X89223017Y-67838529D01*
X89223012Y-67838527D01*
X89215485Y-67833648D01*
X89206892Y-67831078D01*
X89206887Y-67831076D01*
X89190880Y-67826289D01*
X89173436Y-67819628D01*
X89158324Y-67812533D01*
X89158322Y-67812532D01*
X89150200Y-67808719D01*
X89141333Y-67807338D01*
X89141332Y-67807338D01*
X89130478Y-67805648D01*
X89120983Y-67804170D01*
X89104268Y-67800387D01*
X89084534Y-67794485D01*
X89084528Y-67794484D01*
X89075934Y-67791914D01*
X89066963Y-67791859D01*
X89066962Y-67791859D01*
X89056903Y-67791798D01*
X89041494Y-67791704D01*
X89040711Y-67791671D01*
X89039614Y-67791500D01*
X89008623Y-67791500D01*
X89007853Y-67791498D01*
X88934215Y-67791048D01*
X88934214Y-67791048D01*
X88930279Y-67791024D01*
X88928935Y-67791408D01*
X88927590Y-67791500D01*
X76008623Y-67791500D01*
X76007853Y-67791498D01*
X76007037Y-67791493D01*
X75930279Y-67791024D01*
X75907918Y-67797415D01*
X75901847Y-67799150D01*
X75885085Y-67802728D01*
X75855813Y-67806920D01*
X75847645Y-67810634D01*
X75847644Y-67810634D01*
X75832438Y-67817548D01*
X75814914Y-67823996D01*
X75790229Y-67831051D01*
X75782635Y-67835843D01*
X75782632Y-67835844D01*
X75765220Y-67846830D01*
X75750137Y-67854969D01*
X75723218Y-67867208D01*
X75716416Y-67873069D01*
X75703765Y-67883970D01*
X75688761Y-67895073D01*
X75667042Y-67908776D01*
X75661103Y-67915501D01*
X75661099Y-67915504D01*
X75647468Y-67930938D01*
X75635276Y-67942982D01*
X75619673Y-67956427D01*
X75619671Y-67956430D01*
X75612873Y-67962287D01*
X75607993Y-67969816D01*
X75607992Y-67969817D01*
X75598906Y-67983835D01*
X75587615Y-67998709D01*
X75576569Y-68011217D01*
X75570622Y-68017951D01*
X75564312Y-68031391D01*
X75558058Y-68044711D01*
X75549737Y-68059691D01*
X75538529Y-68076983D01*
X75538527Y-68076988D01*
X75533648Y-68084515D01*
X75531078Y-68093108D01*
X75531076Y-68093113D01*
X75526289Y-68109120D01*
X75519628Y-68126564D01*
X75512533Y-68141676D01*
X75508719Y-68149800D01*
X75507338Y-68158667D01*
X75507338Y-68158668D01*
X75504170Y-68179015D01*
X75500387Y-68195732D01*
X75494485Y-68215466D01*
X75494484Y-68215472D01*
X75491914Y-68224066D01*
X75491859Y-68233037D01*
X75491859Y-68233038D01*
X75491704Y-68258497D01*
X75491671Y-68259289D01*
X75491500Y-68260386D01*
X75491500Y-68291377D01*
X75491498Y-68292147D01*
X75491024Y-68369721D01*
X75491408Y-68371065D01*
X75491500Y-68372410D01*
X75491500Y-81291377D01*
X75491498Y-81292147D01*
X75491024Y-81369721D01*
X31508500Y-81369721D01*
X31508500Y-62369721D01*
X75491024Y-62369721D01*
X75493491Y-62378352D01*
X75499150Y-62398153D01*
X75502728Y-62414915D01*
X75506920Y-62444187D01*
X75510634Y-62452355D01*
X75510634Y-62452356D01*
X75517548Y-62467562D01*
X75523996Y-62485086D01*
X75531051Y-62509771D01*
X75535843Y-62517365D01*
X75535844Y-62517368D01*
X75546830Y-62534780D01*
X75554969Y-62549863D01*
X75567208Y-62576782D01*
X75573069Y-62583584D01*
X75583970Y-62596235D01*
X75595073Y-62611239D01*
X75608776Y-62632958D01*
X75615501Y-62638897D01*
X75615504Y-62638901D01*
X75630938Y-62652532D01*
X75642982Y-62664724D01*
X75656427Y-62680327D01*
X75656430Y-62680329D01*
X75662287Y-62687127D01*
X75669816Y-62692007D01*
X75669817Y-62692008D01*
X75683835Y-62701094D01*
X75698709Y-62712385D01*
X75711217Y-62723431D01*
X75717951Y-62729378D01*
X75744711Y-62741942D01*
X75759691Y-62750263D01*
X75776983Y-62761471D01*
X75776988Y-62761473D01*
X75784515Y-62766352D01*
X75793108Y-62768922D01*
X75793113Y-62768924D01*
X75809120Y-62773711D01*
X75826564Y-62780372D01*
X75841676Y-62787467D01*
X75841678Y-62787468D01*
X75849800Y-62791281D01*
X75858667Y-62792662D01*
X75858668Y-62792662D01*
X75861353Y-62793080D01*
X75879017Y-62795830D01*
X75895732Y-62799613D01*
X75915466Y-62805515D01*
X75915472Y-62805516D01*
X75924066Y-62808086D01*
X75933037Y-62808141D01*
X75933038Y-62808141D01*
X75943097Y-62808202D01*
X75958506Y-62808296D01*
X75959289Y-62808329D01*
X75960386Y-62808500D01*
X75991377Y-62808500D01*
X75992147Y-62808502D01*
X76065785Y-62808952D01*
X76065786Y-62808952D01*
X76069721Y-62808976D01*
X76071065Y-62808592D01*
X76072410Y-62808500D01*
X88991377Y-62808500D01*
X88992148Y-62808502D01*
X89069721Y-62808976D01*
X89098152Y-62800850D01*
X89114915Y-62797272D01*
X89115753Y-62797152D01*
X89144187Y-62793080D01*
X89167564Y-62782451D01*
X89185087Y-62776004D01*
X89209771Y-62768949D01*
X89217365Y-62764157D01*
X89217368Y-62764156D01*
X89234780Y-62753170D01*
X89249865Y-62745030D01*
X89276782Y-62732792D01*
X89296235Y-62716030D01*
X89311239Y-62704927D01*
X89332958Y-62691224D01*
X89338897Y-62684499D01*
X89338901Y-62684496D01*
X89352532Y-62669062D01*
X89364724Y-62657018D01*
X89380327Y-62643573D01*
X89380329Y-62643570D01*
X89387127Y-62637713D01*
X89401094Y-62616165D01*
X89412385Y-62601291D01*
X89423431Y-62588783D01*
X89423432Y-62588782D01*
X89429378Y-62582049D01*
X89441943Y-62555287D01*
X89450263Y-62540309D01*
X89461471Y-62523017D01*
X89461473Y-62523012D01*
X89466352Y-62515485D01*
X89468922Y-62506892D01*
X89468924Y-62506887D01*
X89473711Y-62490880D01*
X89480372Y-62473436D01*
X89487467Y-62458324D01*
X89487468Y-62458322D01*
X89491281Y-62450200D01*
X89495830Y-62420983D01*
X89499613Y-62404268D01*
X89505515Y-62384534D01*
X89505516Y-62384528D01*
X89508086Y-62375934D01*
X89508124Y-62369721D01*
X94491024Y-62369721D01*
X94493491Y-62378352D01*
X94499150Y-62398153D01*
X94502728Y-62414915D01*
X94506920Y-62444187D01*
X94510634Y-62452355D01*
X94510634Y-62452356D01*
X94517548Y-62467562D01*
X94523996Y-62485086D01*
X94531051Y-62509771D01*
X94535843Y-62517365D01*
X94535844Y-62517368D01*
X94546830Y-62534780D01*
X94554969Y-62549863D01*
X94567208Y-62576782D01*
X94573069Y-62583584D01*
X94583970Y-62596235D01*
X94595073Y-62611239D01*
X94608776Y-62632958D01*
X94615501Y-62638897D01*
X94615504Y-62638901D01*
X94630938Y-62652532D01*
X94642982Y-62664724D01*
X94656427Y-62680327D01*
X94656430Y-62680329D01*
X94662287Y-62687127D01*
X94669816Y-62692007D01*
X94669817Y-62692008D01*
X94683835Y-62701094D01*
X94698709Y-62712385D01*
X94711217Y-62723431D01*
X94717951Y-62729378D01*
X94744711Y-62741942D01*
X94759691Y-62750263D01*
X94776983Y-62761471D01*
X94776988Y-62761473D01*
X94784515Y-62766352D01*
X94793108Y-62768922D01*
X94793113Y-62768924D01*
X94809120Y-62773711D01*
X94826564Y-62780372D01*
X94841676Y-62787467D01*
X94841678Y-62787468D01*
X94849800Y-62791281D01*
X94858667Y-62792662D01*
X94858668Y-62792662D01*
X94861353Y-62793080D01*
X94879017Y-62795830D01*
X94895732Y-62799613D01*
X94915466Y-62805515D01*
X94915472Y-62805516D01*
X94924066Y-62808086D01*
X94933037Y-62808141D01*
X94933038Y-62808141D01*
X94943097Y-62808202D01*
X94958506Y-62808296D01*
X94959289Y-62808329D01*
X94960386Y-62808500D01*
X94991377Y-62808500D01*
X94992147Y-62808502D01*
X95065785Y-62808952D01*
X95065786Y-62808952D01*
X95069721Y-62808976D01*
X95071065Y-62808592D01*
X95072410Y-62808500D01*
X107991377Y-62808500D01*
X107992148Y-62808502D01*
X108069721Y-62808976D01*
X108098152Y-62800850D01*
X108114915Y-62797272D01*
X108115753Y-62797152D01*
X108144187Y-62793080D01*
X108167564Y-62782451D01*
X108185087Y-62776004D01*
X108209771Y-62768949D01*
X108217365Y-62764157D01*
X108217368Y-62764156D01*
X108234780Y-62753170D01*
X108249865Y-62745030D01*
X108276782Y-62732792D01*
X108296235Y-62716030D01*
X108311239Y-62704927D01*
X108332958Y-62691224D01*
X108338897Y-62684499D01*
X108338901Y-62684496D01*
X108352532Y-62669062D01*
X108364724Y-62657018D01*
X108380327Y-62643573D01*
X108380329Y-62643570D01*
X108387127Y-62637713D01*
X108401094Y-62616165D01*
X108412385Y-62601291D01*
X108423431Y-62588783D01*
X108423432Y-62588782D01*
X108429378Y-62582049D01*
X108441943Y-62555287D01*
X108450263Y-62540309D01*
X108461471Y-62523017D01*
X108461473Y-62523012D01*
X108466352Y-62515485D01*
X108468922Y-62506892D01*
X108468924Y-62506887D01*
X108473711Y-62490880D01*
X108480372Y-62473436D01*
X108487467Y-62458324D01*
X108487468Y-62458322D01*
X108491281Y-62450200D01*
X108495830Y-62420983D01*
X108499613Y-62404268D01*
X108505515Y-62384534D01*
X108505516Y-62384528D01*
X108508086Y-62375934D01*
X108508124Y-62369721D01*
X113491024Y-62369721D01*
X113493491Y-62378352D01*
X113499150Y-62398153D01*
X113502728Y-62414915D01*
X113506920Y-62444187D01*
X113510634Y-62452355D01*
X113510634Y-62452356D01*
X113517548Y-62467562D01*
X113523996Y-62485086D01*
X113531051Y-62509771D01*
X113535843Y-62517365D01*
X113535844Y-62517368D01*
X113546830Y-62534780D01*
X113554969Y-62549863D01*
X113567208Y-62576782D01*
X113573069Y-62583584D01*
X113583970Y-62596235D01*
X113595073Y-62611239D01*
X113608776Y-62632958D01*
X113615501Y-62638897D01*
X113615504Y-62638901D01*
X113630938Y-62652532D01*
X113642982Y-62664724D01*
X113656427Y-62680327D01*
X113656430Y-62680329D01*
X113662287Y-62687127D01*
X113669816Y-62692007D01*
X113669817Y-62692008D01*
X113683835Y-62701094D01*
X113698709Y-62712385D01*
X113711217Y-62723431D01*
X113717951Y-62729378D01*
X113744711Y-62741942D01*
X113759691Y-62750263D01*
X113776983Y-62761471D01*
X113776988Y-62761473D01*
X113784515Y-62766352D01*
X113793108Y-62768922D01*
X113793113Y-62768924D01*
X113809120Y-62773711D01*
X113826564Y-62780372D01*
X113841676Y-62787467D01*
X113841678Y-62787468D01*
X113849800Y-62791281D01*
X113858667Y-62792662D01*
X113858668Y-62792662D01*
X113861353Y-62793080D01*
X113879017Y-62795830D01*
X113895732Y-62799613D01*
X113915466Y-62805515D01*
X113915472Y-62805516D01*
X113924066Y-62808086D01*
X113933037Y-62808141D01*
X113933038Y-62808141D01*
X113943097Y-62808202D01*
X113958506Y-62808296D01*
X113959289Y-62808329D01*
X113960386Y-62808500D01*
X113991377Y-62808500D01*
X113992147Y-62808502D01*
X114065785Y-62808952D01*
X114065786Y-62808952D01*
X114069721Y-62808976D01*
X114071065Y-62808592D01*
X114072410Y-62808500D01*
X126991377Y-62808500D01*
X126992148Y-62808502D01*
X127069721Y-62808976D01*
X127098152Y-62800850D01*
X127114915Y-62797272D01*
X127115753Y-62797152D01*
X127144187Y-62793080D01*
X127167564Y-62782451D01*
X127185087Y-62776004D01*
X127209771Y-62768949D01*
X127217365Y-62764157D01*
X127217368Y-62764156D01*
X127234780Y-62753170D01*
X127249865Y-62745030D01*
X127276782Y-62732792D01*
X127296235Y-62716030D01*
X127311239Y-62704927D01*
X127332958Y-62691224D01*
X127338897Y-62684499D01*
X127338901Y-62684496D01*
X127352532Y-62669062D01*
X127364724Y-62657018D01*
X127380327Y-62643573D01*
X127380329Y-62643570D01*
X127387127Y-62637713D01*
X127401094Y-62616165D01*
X127412385Y-62601291D01*
X127423431Y-62588783D01*
X127423432Y-62588782D01*
X127429378Y-62582049D01*
X127441943Y-62555287D01*
X127450263Y-62540309D01*
X127461471Y-62523017D01*
X127461473Y-62523012D01*
X127466352Y-62515485D01*
X127468922Y-62506892D01*
X127468924Y-62506887D01*
X127473711Y-62490880D01*
X127480372Y-62473436D01*
X127487467Y-62458324D01*
X127487468Y-62458322D01*
X127491281Y-62450200D01*
X127495830Y-62420983D01*
X127499613Y-62404268D01*
X127505515Y-62384534D01*
X127505516Y-62384528D01*
X127508086Y-62375934D01*
X127508124Y-62369721D01*
X132491024Y-62369721D01*
X132493491Y-62378352D01*
X132499150Y-62398153D01*
X132502728Y-62414915D01*
X132506920Y-62444187D01*
X132510634Y-62452355D01*
X132510634Y-62452356D01*
X132517548Y-62467562D01*
X132523996Y-62485086D01*
X132531051Y-62509771D01*
X132535843Y-62517365D01*
X132535844Y-62517368D01*
X132546830Y-62534780D01*
X132554969Y-62549863D01*
X132567208Y-62576782D01*
X132573069Y-62583584D01*
X132583970Y-62596235D01*
X132595073Y-62611239D01*
X132608776Y-62632958D01*
X132615501Y-62638897D01*
X132615504Y-62638901D01*
X132630938Y-62652532D01*
X132642982Y-62664724D01*
X132656427Y-62680327D01*
X132656430Y-62680329D01*
X132662287Y-62687127D01*
X132669816Y-62692007D01*
X132669817Y-62692008D01*
X132683835Y-62701094D01*
X132698709Y-62712385D01*
X132711217Y-62723431D01*
X132717951Y-62729378D01*
X132744711Y-62741942D01*
X132759691Y-62750263D01*
X132776983Y-62761471D01*
X132776988Y-62761473D01*
X132784515Y-62766352D01*
X132793108Y-62768922D01*
X132793113Y-62768924D01*
X132809120Y-62773711D01*
X132826564Y-62780372D01*
X132841676Y-62787467D01*
X132841678Y-62787468D01*
X132849800Y-62791281D01*
X132858667Y-62792662D01*
X132858668Y-62792662D01*
X132861353Y-62793080D01*
X132879017Y-62795830D01*
X132895732Y-62799613D01*
X132915466Y-62805515D01*
X132915472Y-62805516D01*
X132924066Y-62808086D01*
X132933037Y-62808141D01*
X132933038Y-62808141D01*
X132943097Y-62808202D01*
X132958506Y-62808296D01*
X132959289Y-62808329D01*
X132960386Y-62808500D01*
X132991377Y-62808500D01*
X132992147Y-62808502D01*
X133065785Y-62808952D01*
X133065786Y-62808952D01*
X133069721Y-62808976D01*
X133071065Y-62808592D01*
X133072410Y-62808500D01*
X145991377Y-62808500D01*
X145992148Y-62808502D01*
X146069721Y-62808976D01*
X146098152Y-62800850D01*
X146114915Y-62797272D01*
X146115753Y-62797152D01*
X146144187Y-62793080D01*
X146167564Y-62782451D01*
X146185087Y-62776004D01*
X146209771Y-62768949D01*
X146217365Y-62764157D01*
X146217368Y-62764156D01*
X146234780Y-62753170D01*
X146249865Y-62745030D01*
X146276782Y-62732792D01*
X146296235Y-62716030D01*
X146311239Y-62704927D01*
X146332958Y-62691224D01*
X146338897Y-62684499D01*
X146338901Y-62684496D01*
X146352532Y-62669062D01*
X146364724Y-62657018D01*
X146380327Y-62643573D01*
X146380329Y-62643570D01*
X146387127Y-62637713D01*
X146401094Y-62616165D01*
X146412385Y-62601291D01*
X146423431Y-62588783D01*
X146423432Y-62588782D01*
X146429378Y-62582049D01*
X146441943Y-62555287D01*
X146450263Y-62540309D01*
X146461471Y-62523017D01*
X146461473Y-62523012D01*
X146466352Y-62515485D01*
X146468922Y-62506892D01*
X146468924Y-62506887D01*
X146473711Y-62490880D01*
X146480372Y-62473436D01*
X146487467Y-62458324D01*
X146487468Y-62458322D01*
X146491281Y-62450200D01*
X146495830Y-62420983D01*
X146499613Y-62404268D01*
X146505515Y-62384534D01*
X146505516Y-62384528D01*
X146508086Y-62375934D01*
X146508124Y-62369721D01*
X189491024Y-62369721D01*
X189493491Y-62378352D01*
X189499150Y-62398153D01*
X189502728Y-62414915D01*
X189506920Y-62444187D01*
X189510634Y-62452355D01*
X189510634Y-62452356D01*
X189517548Y-62467562D01*
X189523996Y-62485086D01*
X189531051Y-62509771D01*
X189535843Y-62517365D01*
X189535844Y-62517368D01*
X189546830Y-62534780D01*
X189554969Y-62549863D01*
X189567208Y-62576782D01*
X189573069Y-62583584D01*
X189583970Y-62596235D01*
X189595073Y-62611239D01*
X189608776Y-62632958D01*
X189615501Y-62638897D01*
X189615504Y-62638901D01*
X189630938Y-62652532D01*
X189642982Y-62664724D01*
X189656427Y-62680327D01*
X189656430Y-62680329D01*
X189662287Y-62687127D01*
X189669816Y-62692007D01*
X189669817Y-62692008D01*
X189683835Y-62701094D01*
X189698709Y-62712385D01*
X189711217Y-62723431D01*
X189717951Y-62729378D01*
X189744711Y-62741942D01*
X189759691Y-62750263D01*
X189776983Y-62761471D01*
X189776988Y-62761473D01*
X189784515Y-62766352D01*
X189793108Y-62768922D01*
X189793113Y-62768924D01*
X189809120Y-62773711D01*
X189826564Y-62780372D01*
X189841676Y-62787467D01*
X189841678Y-62787468D01*
X189849800Y-62791281D01*
X189858667Y-62792662D01*
X189858668Y-62792662D01*
X189861353Y-62793080D01*
X189879017Y-62795830D01*
X189895732Y-62799613D01*
X189915466Y-62805515D01*
X189915472Y-62805516D01*
X189924066Y-62808086D01*
X189933037Y-62808141D01*
X189933038Y-62808141D01*
X189943097Y-62808202D01*
X189958506Y-62808296D01*
X189959289Y-62808329D01*
X189960386Y-62808500D01*
X189991377Y-62808500D01*
X189992147Y-62808502D01*
X190065785Y-62808952D01*
X190065786Y-62808952D01*
X190069721Y-62808976D01*
X190071065Y-62808592D01*
X190072410Y-62808500D01*
X202991377Y-62808500D01*
X202992148Y-62808502D01*
X203069721Y-62808976D01*
X203098152Y-62800850D01*
X203114915Y-62797272D01*
X203115753Y-62797152D01*
X203144187Y-62793080D01*
X203167564Y-62782451D01*
X203185087Y-62776004D01*
X203209771Y-62768949D01*
X203217365Y-62764157D01*
X203217368Y-62764156D01*
X203234780Y-62753170D01*
X203249865Y-62745030D01*
X203276782Y-62732792D01*
X203296235Y-62716030D01*
X203311239Y-62704927D01*
X203332958Y-62691224D01*
X203338897Y-62684499D01*
X203338901Y-62684496D01*
X203352532Y-62669062D01*
X203364724Y-62657018D01*
X203380327Y-62643573D01*
X203380329Y-62643570D01*
X203387127Y-62637713D01*
X203401094Y-62616165D01*
X203412385Y-62601291D01*
X203423431Y-62588783D01*
X203423432Y-62588782D01*
X203429378Y-62582049D01*
X203441943Y-62555287D01*
X203450263Y-62540309D01*
X203461471Y-62523017D01*
X203461473Y-62523012D01*
X203466352Y-62515485D01*
X203468922Y-62506892D01*
X203468924Y-62506887D01*
X203473711Y-62490880D01*
X203480372Y-62473436D01*
X203487467Y-62458324D01*
X203487468Y-62458322D01*
X203491281Y-62450200D01*
X203495830Y-62420983D01*
X203499613Y-62404268D01*
X203505515Y-62384534D01*
X203505516Y-62384528D01*
X203508086Y-62375934D01*
X203508124Y-62369721D01*
X208491024Y-62369721D01*
X208493491Y-62378352D01*
X208499150Y-62398153D01*
X208502728Y-62414915D01*
X208506920Y-62444187D01*
X208510634Y-62452355D01*
X208510634Y-62452356D01*
X208517548Y-62467562D01*
X208523996Y-62485086D01*
X208531051Y-62509771D01*
X208535843Y-62517365D01*
X208535844Y-62517368D01*
X208546830Y-62534780D01*
X208554969Y-62549863D01*
X208567208Y-62576782D01*
X208573069Y-62583584D01*
X208583970Y-62596235D01*
X208595073Y-62611239D01*
X208608776Y-62632958D01*
X208615501Y-62638897D01*
X208615504Y-62638901D01*
X208630938Y-62652532D01*
X208642982Y-62664724D01*
X208656427Y-62680327D01*
X208656430Y-62680329D01*
X208662287Y-62687127D01*
X208669816Y-62692007D01*
X208669817Y-62692008D01*
X208683835Y-62701094D01*
X208698709Y-62712385D01*
X208711217Y-62723431D01*
X208717951Y-62729378D01*
X208744711Y-62741942D01*
X208759691Y-62750263D01*
X208776983Y-62761471D01*
X208776988Y-62761473D01*
X208784515Y-62766352D01*
X208793108Y-62768922D01*
X208793113Y-62768924D01*
X208809120Y-62773711D01*
X208826564Y-62780372D01*
X208841676Y-62787467D01*
X208841678Y-62787468D01*
X208849800Y-62791281D01*
X208858667Y-62792662D01*
X208858668Y-62792662D01*
X208861353Y-62793080D01*
X208879017Y-62795830D01*
X208895732Y-62799613D01*
X208915466Y-62805515D01*
X208915472Y-62805516D01*
X208924066Y-62808086D01*
X208933037Y-62808141D01*
X208933038Y-62808141D01*
X208943097Y-62808202D01*
X208958506Y-62808296D01*
X208959289Y-62808329D01*
X208960386Y-62808500D01*
X208991377Y-62808500D01*
X208992147Y-62808502D01*
X209065785Y-62808952D01*
X209065786Y-62808952D01*
X209069721Y-62808976D01*
X209071065Y-62808592D01*
X209072410Y-62808500D01*
X221991377Y-62808500D01*
X221992148Y-62808502D01*
X222069721Y-62808976D01*
X222098152Y-62800850D01*
X222114915Y-62797272D01*
X222115753Y-62797152D01*
X222144187Y-62793080D01*
X222167564Y-62782451D01*
X222185087Y-62776004D01*
X222209771Y-62768949D01*
X222217365Y-62764157D01*
X222217368Y-62764156D01*
X222234780Y-62753170D01*
X222249865Y-62745030D01*
X222276782Y-62732792D01*
X222296235Y-62716030D01*
X222311239Y-62704927D01*
X222332958Y-62691224D01*
X222338897Y-62684499D01*
X222338901Y-62684496D01*
X222352532Y-62669062D01*
X222364724Y-62657018D01*
X222380327Y-62643573D01*
X222380329Y-62643570D01*
X222387127Y-62637713D01*
X222401094Y-62616165D01*
X222412385Y-62601291D01*
X222423431Y-62588783D01*
X222423432Y-62588782D01*
X222429378Y-62582049D01*
X222441943Y-62555287D01*
X222450263Y-62540309D01*
X222461471Y-62523017D01*
X222461473Y-62523012D01*
X222466352Y-62515485D01*
X222468922Y-62506892D01*
X222468924Y-62506887D01*
X222473711Y-62490880D01*
X222480372Y-62473436D01*
X222487467Y-62458324D01*
X222487468Y-62458322D01*
X222491281Y-62450200D01*
X222495830Y-62420983D01*
X222499613Y-62404268D01*
X222505515Y-62384534D01*
X222505516Y-62384528D01*
X222508086Y-62375934D01*
X222508124Y-62369721D01*
X227491024Y-62369721D01*
X227493491Y-62378352D01*
X227499150Y-62398153D01*
X227502728Y-62414915D01*
X227506920Y-62444187D01*
X227510634Y-62452355D01*
X227510634Y-62452356D01*
X227517548Y-62467562D01*
X227523996Y-62485086D01*
X227531051Y-62509771D01*
X227535843Y-62517365D01*
X227535844Y-62517368D01*
X227546830Y-62534780D01*
X227554969Y-62549863D01*
X227567208Y-62576782D01*
X227573069Y-62583584D01*
X227583970Y-62596235D01*
X227595073Y-62611239D01*
X227608776Y-62632958D01*
X227615501Y-62638897D01*
X227615504Y-62638901D01*
X227630938Y-62652532D01*
X227642982Y-62664724D01*
X227656427Y-62680327D01*
X227656430Y-62680329D01*
X227662287Y-62687127D01*
X227669816Y-62692007D01*
X227669817Y-62692008D01*
X227683835Y-62701094D01*
X227698709Y-62712385D01*
X227711217Y-62723431D01*
X227717951Y-62729378D01*
X227744711Y-62741942D01*
X227759691Y-62750263D01*
X227776983Y-62761471D01*
X227776988Y-62761473D01*
X227784515Y-62766352D01*
X227793108Y-62768922D01*
X227793113Y-62768924D01*
X227809120Y-62773711D01*
X227826564Y-62780372D01*
X227841676Y-62787467D01*
X227841678Y-62787468D01*
X227849800Y-62791281D01*
X227858667Y-62792662D01*
X227858668Y-62792662D01*
X227861353Y-62793080D01*
X227879017Y-62795830D01*
X227895732Y-62799613D01*
X227915466Y-62805515D01*
X227915472Y-62805516D01*
X227924066Y-62808086D01*
X227933037Y-62808141D01*
X227933038Y-62808141D01*
X227943097Y-62808202D01*
X227958506Y-62808296D01*
X227959289Y-62808329D01*
X227960386Y-62808500D01*
X227991377Y-62808500D01*
X227992147Y-62808502D01*
X228065785Y-62808952D01*
X228065786Y-62808952D01*
X228069721Y-62808976D01*
X228071065Y-62808592D01*
X228072410Y-62808500D01*
X240991377Y-62808500D01*
X240992148Y-62808502D01*
X241069721Y-62808976D01*
X241098152Y-62800850D01*
X241114915Y-62797272D01*
X241115753Y-62797152D01*
X241144187Y-62793080D01*
X241167564Y-62782451D01*
X241185087Y-62776004D01*
X241209771Y-62768949D01*
X241217365Y-62764157D01*
X241217368Y-62764156D01*
X241234780Y-62753170D01*
X241249865Y-62745030D01*
X241276782Y-62732792D01*
X241296235Y-62716030D01*
X241311239Y-62704927D01*
X241332958Y-62691224D01*
X241338897Y-62684499D01*
X241338901Y-62684496D01*
X241352532Y-62669062D01*
X241364724Y-62657018D01*
X241380327Y-62643573D01*
X241380329Y-62643570D01*
X241387127Y-62637713D01*
X241401094Y-62616165D01*
X241412385Y-62601291D01*
X241423431Y-62588783D01*
X241423432Y-62588782D01*
X241429378Y-62582049D01*
X241441943Y-62555287D01*
X241450263Y-62540309D01*
X241461471Y-62523017D01*
X241461473Y-62523012D01*
X241466352Y-62515485D01*
X241468922Y-62506892D01*
X241468924Y-62506887D01*
X241473711Y-62490880D01*
X241480372Y-62473436D01*
X241487467Y-62458324D01*
X241487468Y-62458322D01*
X241491281Y-62450200D01*
X241495830Y-62420983D01*
X241499613Y-62404268D01*
X241505515Y-62384534D01*
X241505516Y-62384528D01*
X241508086Y-62375934D01*
X241508124Y-62369721D01*
X265391024Y-62369721D01*
X265393491Y-62378352D01*
X265399150Y-62398153D01*
X265402728Y-62414915D01*
X265406920Y-62444187D01*
X265410634Y-62452355D01*
X265410634Y-62452356D01*
X265417548Y-62467562D01*
X265423996Y-62485086D01*
X265431051Y-62509771D01*
X265435843Y-62517365D01*
X265435844Y-62517368D01*
X265446830Y-62534780D01*
X265454969Y-62549863D01*
X265467208Y-62576782D01*
X265473069Y-62583584D01*
X265483970Y-62596235D01*
X265495073Y-62611239D01*
X265508776Y-62632958D01*
X265515501Y-62638897D01*
X265515504Y-62638901D01*
X265530938Y-62652532D01*
X265542982Y-62664724D01*
X265556427Y-62680327D01*
X265556430Y-62680329D01*
X265562287Y-62687127D01*
X265569816Y-62692007D01*
X265569817Y-62692008D01*
X265583835Y-62701094D01*
X265598709Y-62712385D01*
X265611217Y-62723431D01*
X265617951Y-62729378D01*
X265644711Y-62741942D01*
X265659691Y-62750263D01*
X265676983Y-62761471D01*
X265676988Y-62761473D01*
X265684515Y-62766352D01*
X265693108Y-62768922D01*
X265693113Y-62768924D01*
X265709120Y-62773711D01*
X265726564Y-62780372D01*
X265741676Y-62787467D01*
X265741678Y-62787468D01*
X265749800Y-62791281D01*
X265758667Y-62792662D01*
X265758668Y-62792662D01*
X265761353Y-62793080D01*
X265779017Y-62795830D01*
X265795732Y-62799613D01*
X265815466Y-62805515D01*
X265815472Y-62805516D01*
X265824066Y-62808086D01*
X265833037Y-62808141D01*
X265833038Y-62808141D01*
X265843097Y-62808202D01*
X265858506Y-62808296D01*
X265859289Y-62808329D01*
X265860386Y-62808500D01*
X265891377Y-62808500D01*
X265892147Y-62808502D01*
X265965785Y-62808952D01*
X265965786Y-62808952D01*
X265969721Y-62808976D01*
X265971065Y-62808592D01*
X265972410Y-62808500D01*
X278891377Y-62808500D01*
X278892148Y-62808502D01*
X278969721Y-62808976D01*
X278998152Y-62800850D01*
X279014915Y-62797272D01*
X279015753Y-62797152D01*
X279044187Y-62793080D01*
X279067564Y-62782451D01*
X279085087Y-62776004D01*
X279109771Y-62768949D01*
X279117365Y-62764157D01*
X279117368Y-62764156D01*
X279134780Y-62753170D01*
X279149865Y-62745030D01*
X279176782Y-62732792D01*
X279196235Y-62716030D01*
X279211239Y-62704927D01*
X279232958Y-62691224D01*
X279238897Y-62684499D01*
X279238901Y-62684496D01*
X279252532Y-62669062D01*
X279264724Y-62657018D01*
X279280327Y-62643573D01*
X279280329Y-62643570D01*
X279287127Y-62637713D01*
X279301094Y-62616165D01*
X279312385Y-62601291D01*
X279323431Y-62588783D01*
X279323432Y-62588782D01*
X279329378Y-62582049D01*
X279341943Y-62555287D01*
X279350263Y-62540309D01*
X279361471Y-62523017D01*
X279361473Y-62523012D01*
X279366352Y-62515485D01*
X279368922Y-62506892D01*
X279368924Y-62506887D01*
X279373711Y-62490880D01*
X279380372Y-62473436D01*
X279387467Y-62458324D01*
X279387468Y-62458322D01*
X279391281Y-62450200D01*
X279395830Y-62420983D01*
X279399613Y-62404268D01*
X279405515Y-62384534D01*
X279405516Y-62384528D01*
X279408086Y-62375934D01*
X279408296Y-62341494D01*
X279408329Y-62340711D01*
X279408500Y-62339614D01*
X279408500Y-62308623D01*
X279408502Y-62307853D01*
X279408952Y-62234215D01*
X279408952Y-62234214D01*
X279408976Y-62230279D01*
X279408592Y-62228935D01*
X279408500Y-62227590D01*
X279408500Y-49308623D01*
X279408502Y-49307853D01*
X279408800Y-49259102D01*
X279408976Y-49230279D01*
X279400850Y-49201847D01*
X279397272Y-49185085D01*
X279394352Y-49164698D01*
X279393080Y-49155813D01*
X279382451Y-49132436D01*
X279376004Y-49114913D01*
X279371416Y-49098862D01*
X279368949Y-49090229D01*
X279364156Y-49082632D01*
X279353170Y-49065220D01*
X279345030Y-49050135D01*
X279342564Y-49044711D01*
X279332792Y-49023218D01*
X279316030Y-49003765D01*
X279304927Y-48988761D01*
X279291224Y-48967042D01*
X279284499Y-48961103D01*
X279284496Y-48961099D01*
X279269062Y-48947468D01*
X279257018Y-48935276D01*
X279243573Y-48919673D01*
X279243570Y-48919671D01*
X279237713Y-48912873D01*
X279224009Y-48903990D01*
X279216165Y-48898906D01*
X279201291Y-48887615D01*
X279188783Y-48876569D01*
X279188782Y-48876568D01*
X279182049Y-48870622D01*
X279155287Y-48858057D01*
X279140309Y-48849737D01*
X279123017Y-48838529D01*
X279123012Y-48838527D01*
X279115485Y-48833648D01*
X279106892Y-48831078D01*
X279106887Y-48831076D01*
X279090880Y-48826289D01*
X279073436Y-48819628D01*
X279058324Y-48812533D01*
X279058322Y-48812532D01*
X279050200Y-48808719D01*
X279041333Y-48807338D01*
X279041332Y-48807338D01*
X279030478Y-48805648D01*
X279020983Y-48804170D01*
X279004268Y-48800387D01*
X278984534Y-48794485D01*
X278984528Y-48794484D01*
X278975934Y-48791914D01*
X278966963Y-48791859D01*
X278966962Y-48791859D01*
X278956903Y-48791798D01*
X278941494Y-48791704D01*
X278940711Y-48791671D01*
X278939614Y-48791500D01*
X278908623Y-48791500D01*
X278907853Y-48791498D01*
X278834215Y-48791048D01*
X278834214Y-48791048D01*
X278830279Y-48791024D01*
X278828935Y-48791408D01*
X278827590Y-48791500D01*
X265908623Y-48791500D01*
X265907853Y-48791498D01*
X265907037Y-48791493D01*
X265830279Y-48791024D01*
X265807918Y-48797415D01*
X265801847Y-48799150D01*
X265785085Y-48802728D01*
X265755813Y-48806920D01*
X265747645Y-48810634D01*
X265747644Y-48810634D01*
X265732438Y-48817548D01*
X265714914Y-48823996D01*
X265690229Y-48831051D01*
X265682635Y-48835843D01*
X265682632Y-48835844D01*
X265665220Y-48846830D01*
X265650137Y-48854969D01*
X265623218Y-48867208D01*
X265616416Y-48873069D01*
X265603765Y-48883970D01*
X265588761Y-48895073D01*
X265567042Y-48908776D01*
X265561103Y-48915501D01*
X265561099Y-48915504D01*
X265547468Y-48930938D01*
X265535276Y-48942982D01*
X265519673Y-48956427D01*
X265519671Y-48956430D01*
X265512873Y-48962287D01*
X265507993Y-48969816D01*
X265507992Y-48969817D01*
X265498906Y-48983835D01*
X265487615Y-48998709D01*
X265476569Y-49011217D01*
X265470622Y-49017951D01*
X265464312Y-49031391D01*
X265458058Y-49044711D01*
X265449737Y-49059691D01*
X265438529Y-49076983D01*
X265438527Y-49076988D01*
X265433648Y-49084515D01*
X265431078Y-49093108D01*
X265431076Y-49093113D01*
X265426289Y-49109120D01*
X265419628Y-49126564D01*
X265412533Y-49141676D01*
X265408719Y-49149800D01*
X265407338Y-49158667D01*
X265407338Y-49158668D01*
X265404170Y-49179015D01*
X265400387Y-49195732D01*
X265394485Y-49215466D01*
X265394484Y-49215472D01*
X265391914Y-49224066D01*
X265391859Y-49233037D01*
X265391859Y-49233038D01*
X265391704Y-49258497D01*
X265391671Y-49259289D01*
X265391500Y-49260386D01*
X265391500Y-49291377D01*
X265391498Y-49292147D01*
X265391024Y-49369721D01*
X265391408Y-49371065D01*
X265391500Y-49372410D01*
X265391500Y-62291377D01*
X265391498Y-62292147D01*
X265391024Y-62369721D01*
X241508124Y-62369721D01*
X241508296Y-62341494D01*
X241508329Y-62340711D01*
X241508500Y-62339614D01*
X241508500Y-62308623D01*
X241508502Y-62307853D01*
X241508952Y-62234215D01*
X241508952Y-62234214D01*
X241508976Y-62230279D01*
X241508592Y-62228935D01*
X241508500Y-62227590D01*
X241508500Y-49308623D01*
X241508502Y-49307853D01*
X241508800Y-49259102D01*
X241508976Y-49230279D01*
X241500850Y-49201847D01*
X241497272Y-49185085D01*
X241494352Y-49164698D01*
X241493080Y-49155813D01*
X241482451Y-49132436D01*
X241476004Y-49114913D01*
X241471416Y-49098862D01*
X241468949Y-49090229D01*
X241464156Y-49082632D01*
X241453170Y-49065220D01*
X241445030Y-49050135D01*
X241442564Y-49044711D01*
X241432792Y-49023218D01*
X241416030Y-49003765D01*
X241404927Y-48988761D01*
X241391224Y-48967042D01*
X241384499Y-48961103D01*
X241384496Y-48961099D01*
X241369062Y-48947468D01*
X241357018Y-48935276D01*
X241343573Y-48919673D01*
X241343570Y-48919671D01*
X241337713Y-48912873D01*
X241324009Y-48903990D01*
X241316165Y-48898906D01*
X241301291Y-48887615D01*
X241288783Y-48876569D01*
X241288782Y-48876568D01*
X241282049Y-48870622D01*
X241255287Y-48858057D01*
X241240309Y-48849737D01*
X241223017Y-48838529D01*
X241223012Y-48838527D01*
X241215485Y-48833648D01*
X241206892Y-48831078D01*
X241206887Y-48831076D01*
X241190880Y-48826289D01*
X241173436Y-48819628D01*
X241158324Y-48812533D01*
X241158322Y-48812532D01*
X241150200Y-48808719D01*
X241141333Y-48807338D01*
X241141332Y-48807338D01*
X241130478Y-48805648D01*
X241120983Y-48804170D01*
X241104268Y-48800387D01*
X241084534Y-48794485D01*
X241084528Y-48794484D01*
X241075934Y-48791914D01*
X241066963Y-48791859D01*
X241066962Y-48791859D01*
X241056903Y-48791798D01*
X241041494Y-48791704D01*
X241040711Y-48791671D01*
X241039614Y-48791500D01*
X241008623Y-48791500D01*
X241007853Y-48791498D01*
X240934215Y-48791048D01*
X240934214Y-48791048D01*
X240930279Y-48791024D01*
X240928935Y-48791408D01*
X240927590Y-48791500D01*
X228008623Y-48791500D01*
X228007853Y-48791498D01*
X228007037Y-48791493D01*
X227930279Y-48791024D01*
X227907918Y-48797415D01*
X227901847Y-48799150D01*
X227885085Y-48802728D01*
X227855813Y-48806920D01*
X227847645Y-48810634D01*
X227847644Y-48810634D01*
X227832438Y-48817548D01*
X227814914Y-48823996D01*
X227790229Y-48831051D01*
X227782635Y-48835843D01*
X227782632Y-48835844D01*
X227765220Y-48846830D01*
X227750137Y-48854969D01*
X227723218Y-48867208D01*
X227716416Y-48873069D01*
X227703765Y-48883970D01*
X227688761Y-48895073D01*
X227667042Y-48908776D01*
X227661103Y-48915501D01*
X227661099Y-48915504D01*
X227647468Y-48930938D01*
X227635276Y-48942982D01*
X227619673Y-48956427D01*
X227619671Y-48956430D01*
X227612873Y-48962287D01*
X227607993Y-48969816D01*
X227607992Y-48969817D01*
X227598906Y-48983835D01*
X227587615Y-48998709D01*
X227576569Y-49011217D01*
X227570622Y-49017951D01*
X227564312Y-49031391D01*
X227558058Y-49044711D01*
X227549737Y-49059691D01*
X227538529Y-49076983D01*
X227538527Y-49076988D01*
X227533648Y-49084515D01*
X227531078Y-49093108D01*
X227531076Y-49093113D01*
X227526289Y-49109120D01*
X227519628Y-49126564D01*
X227512533Y-49141676D01*
X227508719Y-49149800D01*
X227507338Y-49158667D01*
X227507338Y-49158668D01*
X227504170Y-49179015D01*
X227500387Y-49195732D01*
X227494485Y-49215466D01*
X227494484Y-49215472D01*
X227491914Y-49224066D01*
X227491859Y-49233037D01*
X227491859Y-49233038D01*
X227491704Y-49258497D01*
X227491671Y-49259289D01*
X227491500Y-49260386D01*
X227491500Y-49291377D01*
X227491498Y-49292147D01*
X227491024Y-49369721D01*
X227491408Y-49371065D01*
X227491500Y-49372410D01*
X227491500Y-62291377D01*
X227491498Y-62292147D01*
X227491024Y-62369721D01*
X222508124Y-62369721D01*
X222508296Y-62341494D01*
X222508329Y-62340711D01*
X222508500Y-62339614D01*
X222508500Y-62308623D01*
X222508502Y-62307853D01*
X222508952Y-62234215D01*
X222508952Y-62234214D01*
X222508976Y-62230279D01*
X222508592Y-62228935D01*
X222508500Y-62227590D01*
X222508500Y-49308623D01*
X222508502Y-49307853D01*
X222508800Y-49259102D01*
X222508976Y-49230279D01*
X222500850Y-49201847D01*
X222497272Y-49185085D01*
X222494352Y-49164698D01*
X222493080Y-49155813D01*
X222482451Y-49132436D01*
X222476004Y-49114913D01*
X222471416Y-49098862D01*
X222468949Y-49090229D01*
X222464156Y-49082632D01*
X222453170Y-49065220D01*
X222445030Y-49050135D01*
X222442564Y-49044711D01*
X222432792Y-49023218D01*
X222416030Y-49003765D01*
X222404927Y-48988761D01*
X222391224Y-48967042D01*
X222384499Y-48961103D01*
X222384496Y-48961099D01*
X222369062Y-48947468D01*
X222357018Y-48935276D01*
X222343573Y-48919673D01*
X222343570Y-48919671D01*
X222337713Y-48912873D01*
X222324009Y-48903990D01*
X222316165Y-48898906D01*
X222301291Y-48887615D01*
X222288783Y-48876569D01*
X222288782Y-48876568D01*
X222282049Y-48870622D01*
X222255287Y-48858057D01*
X222240309Y-48849737D01*
X222223017Y-48838529D01*
X222223012Y-48838527D01*
X222215485Y-48833648D01*
X222206892Y-48831078D01*
X222206887Y-48831076D01*
X222190880Y-48826289D01*
X222173436Y-48819628D01*
X222158324Y-48812533D01*
X222158322Y-48812532D01*
X222150200Y-48808719D01*
X222141333Y-48807338D01*
X222141332Y-48807338D01*
X222130478Y-48805648D01*
X222120983Y-48804170D01*
X222104268Y-48800387D01*
X222084534Y-48794485D01*
X222084528Y-48794484D01*
X222075934Y-48791914D01*
X222066963Y-48791859D01*
X222066962Y-48791859D01*
X222056903Y-48791798D01*
X222041494Y-48791704D01*
X222040711Y-48791671D01*
X222039614Y-48791500D01*
X222008623Y-48791500D01*
X222007853Y-48791498D01*
X221934215Y-48791048D01*
X221934214Y-48791048D01*
X221930279Y-48791024D01*
X221928935Y-48791408D01*
X221927590Y-48791500D01*
X209008623Y-48791500D01*
X209007853Y-48791498D01*
X209007037Y-48791493D01*
X208930279Y-48791024D01*
X208907918Y-48797415D01*
X208901847Y-48799150D01*
X208885085Y-48802728D01*
X208855813Y-48806920D01*
X208847645Y-48810634D01*
X208847644Y-48810634D01*
X208832438Y-48817548D01*
X208814914Y-48823996D01*
X208790229Y-48831051D01*
X208782635Y-48835843D01*
X208782632Y-48835844D01*
X208765220Y-48846830D01*
X208750137Y-48854969D01*
X208723218Y-48867208D01*
X208716416Y-48873069D01*
X208703765Y-48883970D01*
X208688761Y-48895073D01*
X208667042Y-48908776D01*
X208661103Y-48915501D01*
X208661099Y-48915504D01*
X208647468Y-48930938D01*
X208635276Y-48942982D01*
X208619673Y-48956427D01*
X208619671Y-48956430D01*
X208612873Y-48962287D01*
X208607993Y-48969816D01*
X208607992Y-48969817D01*
X208598906Y-48983835D01*
X208587615Y-48998709D01*
X208576569Y-49011217D01*
X208570622Y-49017951D01*
X208564312Y-49031391D01*
X208558058Y-49044711D01*
X208549737Y-49059691D01*
X208538529Y-49076983D01*
X208538527Y-49076988D01*
X208533648Y-49084515D01*
X208531078Y-49093108D01*
X208531076Y-49093113D01*
X208526289Y-49109120D01*
X208519628Y-49126564D01*
X208512533Y-49141676D01*
X208508719Y-49149800D01*
X208507338Y-49158667D01*
X208507338Y-49158668D01*
X208504170Y-49179015D01*
X208500387Y-49195732D01*
X208494485Y-49215466D01*
X208494484Y-49215472D01*
X208491914Y-49224066D01*
X208491859Y-49233037D01*
X208491859Y-49233038D01*
X208491704Y-49258497D01*
X208491671Y-49259289D01*
X208491500Y-49260386D01*
X208491500Y-49291377D01*
X208491498Y-49292147D01*
X208491024Y-49369721D01*
X208491408Y-49371065D01*
X208491500Y-49372410D01*
X208491500Y-62291377D01*
X208491498Y-62292147D01*
X208491024Y-62369721D01*
X203508124Y-62369721D01*
X203508296Y-62341494D01*
X203508329Y-62340711D01*
X203508500Y-62339614D01*
X203508500Y-62308623D01*
X203508502Y-62307853D01*
X203508952Y-62234215D01*
X203508952Y-62234214D01*
X203508976Y-62230279D01*
X203508592Y-62228935D01*
X203508500Y-62227590D01*
X203508500Y-49308623D01*
X203508502Y-49307853D01*
X203508800Y-49259102D01*
X203508976Y-49230279D01*
X203500850Y-49201847D01*
X203497272Y-49185085D01*
X203494352Y-49164698D01*
X203493080Y-49155813D01*
X203482451Y-49132436D01*
X203476004Y-49114913D01*
X203471416Y-49098862D01*
X203468949Y-49090229D01*
X203464156Y-49082632D01*
X203453170Y-49065220D01*
X203445030Y-49050135D01*
X203442564Y-49044711D01*
X203432792Y-49023218D01*
X203416030Y-49003765D01*
X203404927Y-48988761D01*
X203391224Y-48967042D01*
X203384499Y-48961103D01*
X203384496Y-48961099D01*
X203369062Y-48947468D01*
X203357018Y-48935276D01*
X203343573Y-48919673D01*
X203343570Y-48919671D01*
X203337713Y-48912873D01*
X203324009Y-48903990D01*
X203316165Y-48898906D01*
X203301291Y-48887615D01*
X203288783Y-48876569D01*
X203288782Y-48876568D01*
X203282049Y-48870622D01*
X203255287Y-48858057D01*
X203240309Y-48849737D01*
X203223017Y-48838529D01*
X203223012Y-48838527D01*
X203215485Y-48833648D01*
X203206892Y-48831078D01*
X203206887Y-48831076D01*
X203190880Y-48826289D01*
X203173436Y-48819628D01*
X203158324Y-48812533D01*
X203158322Y-48812532D01*
X203150200Y-48808719D01*
X203141333Y-48807338D01*
X203141332Y-48807338D01*
X203130478Y-48805648D01*
X203120983Y-48804170D01*
X203104268Y-48800387D01*
X203084534Y-48794485D01*
X203084528Y-48794484D01*
X203075934Y-48791914D01*
X203066963Y-48791859D01*
X203066962Y-48791859D01*
X203056903Y-48791798D01*
X203041494Y-48791704D01*
X203040711Y-48791671D01*
X203039614Y-48791500D01*
X203008623Y-48791500D01*
X203007853Y-48791498D01*
X202934215Y-48791048D01*
X202934214Y-48791048D01*
X202930279Y-48791024D01*
X202928935Y-48791408D01*
X202927590Y-48791500D01*
X190008623Y-48791500D01*
X190007853Y-48791498D01*
X190007037Y-48791493D01*
X189930279Y-48791024D01*
X189907918Y-48797415D01*
X189901847Y-48799150D01*
X189885085Y-48802728D01*
X189855813Y-48806920D01*
X189847645Y-48810634D01*
X189847644Y-48810634D01*
X189832438Y-48817548D01*
X189814914Y-48823996D01*
X189790229Y-48831051D01*
X189782635Y-48835843D01*
X189782632Y-48835844D01*
X189765220Y-48846830D01*
X189750137Y-48854969D01*
X189723218Y-48867208D01*
X189716416Y-48873069D01*
X189703765Y-48883970D01*
X189688761Y-48895073D01*
X189667042Y-48908776D01*
X189661103Y-48915501D01*
X189661099Y-48915504D01*
X189647468Y-48930938D01*
X189635276Y-48942982D01*
X189619673Y-48956427D01*
X189619671Y-48956430D01*
X189612873Y-48962287D01*
X189607993Y-48969816D01*
X189607992Y-48969817D01*
X189598906Y-48983835D01*
X189587615Y-48998709D01*
X189576569Y-49011217D01*
X189570622Y-49017951D01*
X189564312Y-49031391D01*
X189558058Y-49044711D01*
X189549737Y-49059691D01*
X189538529Y-49076983D01*
X189538527Y-49076988D01*
X189533648Y-49084515D01*
X189531078Y-49093108D01*
X189531076Y-49093113D01*
X189526289Y-49109120D01*
X189519628Y-49126564D01*
X189512533Y-49141676D01*
X189508719Y-49149800D01*
X189507338Y-49158667D01*
X189507338Y-49158668D01*
X189504170Y-49179015D01*
X189500387Y-49195732D01*
X189494485Y-49215466D01*
X189494484Y-49215472D01*
X189491914Y-49224066D01*
X189491859Y-49233037D01*
X189491859Y-49233038D01*
X189491704Y-49258497D01*
X189491671Y-49259289D01*
X189491500Y-49260386D01*
X189491500Y-49291377D01*
X189491498Y-49292147D01*
X189491024Y-49369721D01*
X189491408Y-49371065D01*
X189491500Y-49372410D01*
X189491500Y-62291377D01*
X189491498Y-62292147D01*
X189491024Y-62369721D01*
X146508124Y-62369721D01*
X146508296Y-62341494D01*
X146508329Y-62340711D01*
X146508500Y-62339614D01*
X146508500Y-62308623D01*
X146508502Y-62307853D01*
X146508952Y-62234215D01*
X146508952Y-62234214D01*
X146508976Y-62230279D01*
X146508592Y-62228935D01*
X146508500Y-62227590D01*
X146508500Y-49308623D01*
X146508502Y-49307853D01*
X146508800Y-49259102D01*
X146508976Y-49230279D01*
X146500850Y-49201847D01*
X146497272Y-49185085D01*
X146494352Y-49164698D01*
X146493080Y-49155813D01*
X146482451Y-49132436D01*
X146476004Y-49114913D01*
X146471416Y-49098862D01*
X146468949Y-49090229D01*
X146464156Y-49082632D01*
X146453170Y-49065220D01*
X146445030Y-49050135D01*
X146442564Y-49044711D01*
X146432792Y-49023218D01*
X146416030Y-49003765D01*
X146404927Y-48988761D01*
X146391224Y-48967042D01*
X146384499Y-48961103D01*
X146384496Y-48961099D01*
X146369062Y-48947468D01*
X146357018Y-48935276D01*
X146343573Y-48919673D01*
X146343570Y-48919671D01*
X146337713Y-48912873D01*
X146324009Y-48903990D01*
X146316165Y-48898906D01*
X146301291Y-48887615D01*
X146288783Y-48876569D01*
X146288782Y-48876568D01*
X146282049Y-48870622D01*
X146255287Y-48858057D01*
X146240309Y-48849737D01*
X146223017Y-48838529D01*
X146223012Y-48838527D01*
X146215485Y-48833648D01*
X146206892Y-48831078D01*
X146206887Y-48831076D01*
X146190880Y-48826289D01*
X146173436Y-48819628D01*
X146158324Y-48812533D01*
X146158322Y-48812532D01*
X146150200Y-48808719D01*
X146141333Y-48807338D01*
X146141332Y-48807338D01*
X146130478Y-48805648D01*
X146120983Y-48804170D01*
X146104268Y-48800387D01*
X146084534Y-48794485D01*
X146084528Y-48794484D01*
X146075934Y-48791914D01*
X146066963Y-48791859D01*
X146066962Y-48791859D01*
X146056903Y-48791798D01*
X146041494Y-48791704D01*
X146040711Y-48791671D01*
X146039614Y-48791500D01*
X146008623Y-48791500D01*
X146007853Y-48791498D01*
X145934215Y-48791048D01*
X145934214Y-48791048D01*
X145930279Y-48791024D01*
X145928935Y-48791408D01*
X145927590Y-48791500D01*
X133008623Y-48791500D01*
X133007853Y-48791498D01*
X133007037Y-48791493D01*
X132930279Y-48791024D01*
X132907918Y-48797415D01*
X132901847Y-48799150D01*
X132885085Y-48802728D01*
X132855813Y-48806920D01*
X132847645Y-48810634D01*
X132847644Y-48810634D01*
X132832438Y-48817548D01*
X132814914Y-48823996D01*
X132790229Y-48831051D01*
X132782635Y-48835843D01*
X132782632Y-48835844D01*
X132765220Y-48846830D01*
X132750137Y-48854969D01*
X132723218Y-48867208D01*
X132716416Y-48873069D01*
X132703765Y-48883970D01*
X132688761Y-48895073D01*
X132667042Y-48908776D01*
X132661103Y-48915501D01*
X132661099Y-48915504D01*
X132647468Y-48930938D01*
X132635276Y-48942982D01*
X132619673Y-48956427D01*
X132619671Y-48956430D01*
X132612873Y-48962287D01*
X132607993Y-48969816D01*
X132607992Y-48969817D01*
X132598906Y-48983835D01*
X132587615Y-48998709D01*
X132576569Y-49011217D01*
X132570622Y-49017951D01*
X132564312Y-49031391D01*
X132558058Y-49044711D01*
X132549737Y-49059691D01*
X132538529Y-49076983D01*
X132538527Y-49076988D01*
X132533648Y-49084515D01*
X132531078Y-49093108D01*
X132531076Y-49093113D01*
X132526289Y-49109120D01*
X132519628Y-49126564D01*
X132512533Y-49141676D01*
X132508719Y-49149800D01*
X132507338Y-49158667D01*
X132507338Y-49158668D01*
X132504170Y-49179015D01*
X132500387Y-49195732D01*
X132494485Y-49215466D01*
X132494484Y-49215472D01*
X132491914Y-49224066D01*
X132491859Y-49233037D01*
X132491859Y-49233038D01*
X132491704Y-49258497D01*
X132491671Y-49259289D01*
X132491500Y-49260386D01*
X132491500Y-49291377D01*
X132491498Y-49292147D01*
X132491024Y-49369721D01*
X132491408Y-49371065D01*
X132491500Y-49372410D01*
X132491500Y-62291377D01*
X132491498Y-62292147D01*
X132491024Y-62369721D01*
X127508124Y-62369721D01*
X127508296Y-62341494D01*
X127508329Y-62340711D01*
X127508500Y-62339614D01*
X127508500Y-62308623D01*
X127508502Y-62307853D01*
X127508952Y-62234215D01*
X127508952Y-62234214D01*
X127508976Y-62230279D01*
X127508592Y-62228935D01*
X127508500Y-62227590D01*
X127508500Y-49308623D01*
X127508502Y-49307853D01*
X127508800Y-49259102D01*
X127508976Y-49230279D01*
X127500850Y-49201847D01*
X127497272Y-49185085D01*
X127494352Y-49164698D01*
X127493080Y-49155813D01*
X127482451Y-49132436D01*
X127476004Y-49114913D01*
X127471416Y-49098862D01*
X127468949Y-49090229D01*
X127464156Y-49082632D01*
X127453170Y-49065220D01*
X127445030Y-49050135D01*
X127442564Y-49044711D01*
X127432792Y-49023218D01*
X127416030Y-49003765D01*
X127404927Y-48988761D01*
X127391224Y-48967042D01*
X127384499Y-48961103D01*
X127384496Y-48961099D01*
X127369062Y-48947468D01*
X127357018Y-48935276D01*
X127343573Y-48919673D01*
X127343570Y-48919671D01*
X127337713Y-48912873D01*
X127324009Y-48903990D01*
X127316165Y-48898906D01*
X127301291Y-48887615D01*
X127288783Y-48876569D01*
X127288782Y-48876568D01*
X127282049Y-48870622D01*
X127255287Y-48858057D01*
X127240309Y-48849737D01*
X127223017Y-48838529D01*
X127223012Y-48838527D01*
X127215485Y-48833648D01*
X127206892Y-48831078D01*
X127206887Y-48831076D01*
X127190880Y-48826289D01*
X127173436Y-48819628D01*
X127158324Y-48812533D01*
X127158322Y-48812532D01*
X127150200Y-48808719D01*
X127141333Y-48807338D01*
X127141332Y-48807338D01*
X127130478Y-48805648D01*
X127120983Y-48804170D01*
X127104268Y-48800387D01*
X127084534Y-48794485D01*
X127084528Y-48794484D01*
X127075934Y-48791914D01*
X127066963Y-48791859D01*
X127066962Y-48791859D01*
X127056903Y-48791798D01*
X127041494Y-48791704D01*
X127040711Y-48791671D01*
X127039614Y-48791500D01*
X127008623Y-48791500D01*
X127007853Y-48791498D01*
X126934215Y-48791048D01*
X126934214Y-48791048D01*
X126930279Y-48791024D01*
X126928935Y-48791408D01*
X126927590Y-48791500D01*
X114008623Y-48791500D01*
X114007853Y-48791498D01*
X114007037Y-48791493D01*
X113930279Y-48791024D01*
X113907918Y-48797415D01*
X113901847Y-48799150D01*
X113885085Y-48802728D01*
X113855813Y-48806920D01*
X113847645Y-48810634D01*
X113847644Y-48810634D01*
X113832438Y-48817548D01*
X113814914Y-48823996D01*
X113790229Y-48831051D01*
X113782635Y-48835843D01*
X113782632Y-48835844D01*
X113765220Y-48846830D01*
X113750137Y-48854969D01*
X113723218Y-48867208D01*
X113716416Y-48873069D01*
X113703765Y-48883970D01*
X113688761Y-48895073D01*
X113667042Y-48908776D01*
X113661103Y-48915501D01*
X113661099Y-48915504D01*
X113647468Y-48930938D01*
X113635276Y-48942982D01*
X113619673Y-48956427D01*
X113619671Y-48956430D01*
X113612873Y-48962287D01*
X113607993Y-48969816D01*
X113607992Y-48969817D01*
X113598906Y-48983835D01*
X113587615Y-48998709D01*
X113576569Y-49011217D01*
X113570622Y-49017951D01*
X113564312Y-49031391D01*
X113558058Y-49044711D01*
X113549737Y-49059691D01*
X113538529Y-49076983D01*
X113538527Y-49076988D01*
X113533648Y-49084515D01*
X113531078Y-49093108D01*
X113531076Y-49093113D01*
X113526289Y-49109120D01*
X113519628Y-49126564D01*
X113512533Y-49141676D01*
X113508719Y-49149800D01*
X113507338Y-49158667D01*
X113507338Y-49158668D01*
X113504170Y-49179015D01*
X113500387Y-49195732D01*
X113494485Y-49215466D01*
X113494484Y-49215472D01*
X113491914Y-49224066D01*
X113491859Y-49233037D01*
X113491859Y-49233038D01*
X113491704Y-49258497D01*
X113491671Y-49259289D01*
X113491500Y-49260386D01*
X113491500Y-49291377D01*
X113491498Y-49292147D01*
X113491024Y-49369721D01*
X113491408Y-49371065D01*
X113491500Y-49372410D01*
X113491500Y-62291377D01*
X113491498Y-62292147D01*
X113491024Y-62369721D01*
X108508124Y-62369721D01*
X108508296Y-62341494D01*
X108508329Y-62340711D01*
X108508500Y-62339614D01*
X108508500Y-62308623D01*
X108508502Y-62307853D01*
X108508952Y-62234215D01*
X108508952Y-62234214D01*
X108508976Y-62230279D01*
X108508592Y-62228935D01*
X108508500Y-62227590D01*
X108508500Y-49308623D01*
X108508502Y-49307853D01*
X108508800Y-49259102D01*
X108508976Y-49230279D01*
X108500850Y-49201847D01*
X108497272Y-49185085D01*
X108494352Y-49164698D01*
X108493080Y-49155813D01*
X108482451Y-49132436D01*
X108476004Y-49114913D01*
X108471416Y-49098862D01*
X108468949Y-49090229D01*
X108464156Y-49082632D01*
X108453170Y-49065220D01*
X108445030Y-49050135D01*
X108442564Y-49044711D01*
X108432792Y-49023218D01*
X108416030Y-49003765D01*
X108404927Y-48988761D01*
X108391224Y-48967042D01*
X108384499Y-48961103D01*
X108384496Y-48961099D01*
X108369062Y-48947468D01*
X108357018Y-48935276D01*
X108343573Y-48919673D01*
X108343570Y-48919671D01*
X108337713Y-48912873D01*
X108324009Y-48903990D01*
X108316165Y-48898906D01*
X108301291Y-48887615D01*
X108288783Y-48876569D01*
X108288782Y-48876568D01*
X108282049Y-48870622D01*
X108255287Y-48858057D01*
X108240309Y-48849737D01*
X108223017Y-48838529D01*
X108223012Y-48838527D01*
X108215485Y-48833648D01*
X108206892Y-48831078D01*
X108206887Y-48831076D01*
X108190880Y-48826289D01*
X108173436Y-48819628D01*
X108158324Y-48812533D01*
X108158322Y-48812532D01*
X108150200Y-48808719D01*
X108141333Y-48807338D01*
X108141332Y-48807338D01*
X108130478Y-48805648D01*
X108120983Y-48804170D01*
X108104268Y-48800387D01*
X108084534Y-48794485D01*
X108084528Y-48794484D01*
X108075934Y-48791914D01*
X108066963Y-48791859D01*
X108066962Y-48791859D01*
X108056903Y-48791798D01*
X108041494Y-48791704D01*
X108040711Y-48791671D01*
X108039614Y-48791500D01*
X108008623Y-48791500D01*
X108007853Y-48791498D01*
X107934215Y-48791048D01*
X107934214Y-48791048D01*
X107930279Y-48791024D01*
X107928935Y-48791408D01*
X107927590Y-48791500D01*
X95008623Y-48791500D01*
X95007853Y-48791498D01*
X95007037Y-48791493D01*
X94930279Y-48791024D01*
X94907918Y-48797415D01*
X94901847Y-48799150D01*
X94885085Y-48802728D01*
X94855813Y-48806920D01*
X94847645Y-48810634D01*
X94847644Y-48810634D01*
X94832438Y-48817548D01*
X94814914Y-48823996D01*
X94790229Y-48831051D01*
X94782635Y-48835843D01*
X94782632Y-48835844D01*
X94765220Y-48846830D01*
X94750137Y-48854969D01*
X94723218Y-48867208D01*
X94716416Y-48873069D01*
X94703765Y-48883970D01*
X94688761Y-48895073D01*
X94667042Y-48908776D01*
X94661103Y-48915501D01*
X94661099Y-48915504D01*
X94647468Y-48930938D01*
X94635276Y-48942982D01*
X94619673Y-48956427D01*
X94619671Y-48956430D01*
X94612873Y-48962287D01*
X94607993Y-48969816D01*
X94607992Y-48969817D01*
X94598906Y-48983835D01*
X94587615Y-48998709D01*
X94576569Y-49011217D01*
X94570622Y-49017951D01*
X94564312Y-49031391D01*
X94558058Y-49044711D01*
X94549737Y-49059691D01*
X94538529Y-49076983D01*
X94538527Y-49076988D01*
X94533648Y-49084515D01*
X94531078Y-49093108D01*
X94531076Y-49093113D01*
X94526289Y-49109120D01*
X94519628Y-49126564D01*
X94512533Y-49141676D01*
X94508719Y-49149800D01*
X94507338Y-49158667D01*
X94507338Y-49158668D01*
X94504170Y-49179015D01*
X94500387Y-49195732D01*
X94494485Y-49215466D01*
X94494484Y-49215472D01*
X94491914Y-49224066D01*
X94491859Y-49233037D01*
X94491859Y-49233038D01*
X94491704Y-49258497D01*
X94491671Y-49259289D01*
X94491500Y-49260386D01*
X94491500Y-49291377D01*
X94491498Y-49292147D01*
X94491024Y-49369721D01*
X94491408Y-49371065D01*
X94491500Y-49372410D01*
X94491500Y-62291377D01*
X94491498Y-62292147D01*
X94491024Y-62369721D01*
X89508124Y-62369721D01*
X89508296Y-62341494D01*
X89508329Y-62340711D01*
X89508500Y-62339614D01*
X89508500Y-62308623D01*
X89508502Y-62307853D01*
X89508952Y-62234215D01*
X89508952Y-62234214D01*
X89508976Y-62230279D01*
X89508592Y-62228935D01*
X89508500Y-62227590D01*
X89508500Y-49308623D01*
X89508502Y-49307853D01*
X89508800Y-49259102D01*
X89508976Y-49230279D01*
X89500850Y-49201847D01*
X89497272Y-49185085D01*
X89494352Y-49164698D01*
X89493080Y-49155813D01*
X89482451Y-49132436D01*
X89476004Y-49114913D01*
X89471416Y-49098862D01*
X89468949Y-49090229D01*
X89464156Y-49082632D01*
X89453170Y-49065220D01*
X89445030Y-49050135D01*
X89442564Y-49044711D01*
X89432792Y-49023218D01*
X89416030Y-49003765D01*
X89404927Y-48988761D01*
X89391224Y-48967042D01*
X89384499Y-48961103D01*
X89384496Y-48961099D01*
X89369062Y-48947468D01*
X89357018Y-48935276D01*
X89343573Y-48919673D01*
X89343570Y-48919671D01*
X89337713Y-48912873D01*
X89324009Y-48903990D01*
X89316165Y-48898906D01*
X89301291Y-48887615D01*
X89288783Y-48876569D01*
X89288782Y-48876568D01*
X89282049Y-48870622D01*
X89255287Y-48858057D01*
X89240309Y-48849737D01*
X89223017Y-48838529D01*
X89223012Y-48838527D01*
X89215485Y-48833648D01*
X89206892Y-48831078D01*
X89206887Y-48831076D01*
X89190880Y-48826289D01*
X89173436Y-48819628D01*
X89158324Y-48812533D01*
X89158322Y-48812532D01*
X89150200Y-48808719D01*
X89141333Y-48807338D01*
X89141332Y-48807338D01*
X89130478Y-48805648D01*
X89120983Y-48804170D01*
X89104268Y-48800387D01*
X89084534Y-48794485D01*
X89084528Y-48794484D01*
X89075934Y-48791914D01*
X89066963Y-48791859D01*
X89066962Y-48791859D01*
X89056903Y-48791798D01*
X89041494Y-48791704D01*
X89040711Y-48791671D01*
X89039614Y-48791500D01*
X89008623Y-48791500D01*
X89007853Y-48791498D01*
X88934215Y-48791048D01*
X88934214Y-48791048D01*
X88930279Y-48791024D01*
X88928935Y-48791408D01*
X88927590Y-48791500D01*
X76008623Y-48791500D01*
X76007853Y-48791498D01*
X76007037Y-48791493D01*
X75930279Y-48791024D01*
X75907918Y-48797415D01*
X75901847Y-48799150D01*
X75885085Y-48802728D01*
X75855813Y-48806920D01*
X75847645Y-48810634D01*
X75847644Y-48810634D01*
X75832438Y-48817548D01*
X75814914Y-48823996D01*
X75790229Y-48831051D01*
X75782635Y-48835843D01*
X75782632Y-48835844D01*
X75765220Y-48846830D01*
X75750137Y-48854969D01*
X75723218Y-48867208D01*
X75716416Y-48873069D01*
X75703765Y-48883970D01*
X75688761Y-48895073D01*
X75667042Y-48908776D01*
X75661103Y-48915501D01*
X75661099Y-48915504D01*
X75647468Y-48930938D01*
X75635276Y-48942982D01*
X75619673Y-48956427D01*
X75619671Y-48956430D01*
X75612873Y-48962287D01*
X75607993Y-48969816D01*
X75607992Y-48969817D01*
X75598906Y-48983835D01*
X75587615Y-48998709D01*
X75576569Y-49011217D01*
X75570622Y-49017951D01*
X75564312Y-49031391D01*
X75558058Y-49044711D01*
X75549737Y-49059691D01*
X75538529Y-49076983D01*
X75538527Y-49076988D01*
X75533648Y-49084515D01*
X75531078Y-49093108D01*
X75531076Y-49093113D01*
X75526289Y-49109120D01*
X75519628Y-49126564D01*
X75512533Y-49141676D01*
X75508719Y-49149800D01*
X75507338Y-49158667D01*
X75507338Y-49158668D01*
X75504170Y-49179015D01*
X75500387Y-49195732D01*
X75494485Y-49215466D01*
X75494484Y-49215472D01*
X75491914Y-49224066D01*
X75491859Y-49233037D01*
X75491859Y-49233038D01*
X75491704Y-49258497D01*
X75491671Y-49259289D01*
X75491500Y-49260386D01*
X75491500Y-49291377D01*
X75491498Y-49292147D01*
X75491024Y-49369721D01*
X75491408Y-49371065D01*
X75491500Y-49372410D01*
X75491500Y-62291377D01*
X75491498Y-62292147D01*
X75491024Y-62369721D01*
X31508500Y-62369721D01*
X31508500Y-37053250D01*
X31510246Y-37032345D01*
X31512770Y-37017344D01*
X31512770Y-37017341D01*
X31513576Y-37012552D01*
X31513729Y-37000000D01*
X31513040Y-36995188D01*
X31512723Y-36990327D01*
X31513008Y-36990308D01*
X31512607Y-36963549D01*
X31519234Y-36904736D01*
X31525513Y-36877229D01*
X31552485Y-36800147D01*
X31564727Y-36774726D01*
X31608178Y-36705574D01*
X31625770Y-36683515D01*
X31683515Y-36625770D01*
X31705574Y-36608178D01*
X31774726Y-36564727D01*
X31800147Y-36552485D01*
X31877228Y-36525513D01*
X31904736Y-36519234D01*
X31960226Y-36512982D01*
X31975868Y-36513077D01*
X31975879Y-36512200D01*
X31984851Y-36512310D01*
X31993724Y-36513691D01*
X32002626Y-36512527D01*
X32002628Y-36512527D01*
X32017951Y-36510523D01*
X32025286Y-36509564D01*
X32041621Y-36508500D01*
X316950633Y-36508500D01*
X316970018Y-36510000D01*
G37*
G04 #@! TD.AperFunction*
M02*
