G04 #@! TF.GenerationSoftware,KiCad,Pcbnew,(6.0.7-1)-1*
G04 #@! TF.CreationDate,2022-09-15T21:48:11+02:00*
G04 #@! TF.ProjectId,yts-switchblade,7974732d-7377-4697-9463-68626c616465,rev?*
G04 #@! TF.SameCoordinates,Original*
G04 #@! TF.FileFunction,Legend,Top*
G04 #@! TF.FilePolarity,Positive*
%FSLAX46Y46*%
G04 Gerber Fmt 4.6, Leading zero omitted, Abs format (unit mm)*
G04 Created by KiCad (PCBNEW (6.0.7-1)-1) date 2022-09-15 21:48:11*
%MOMM*%
%LPD*%
G01*
G04 APERTURE LIST*
%ADD10C,0.150000*%
G04 APERTURE END LIST*
D10*
X52476190Y-49785714D02*
X52714285Y-50452380D01*
X52952380Y-49785714D02*
X52714285Y-50452380D01*
X52619047Y-50690476D01*
X52571428Y-50738095D01*
X52476190Y-50785714D01*
X53190476Y-49785714D02*
X53571428Y-49785714D01*
X53333333Y-49452380D02*
X53333333Y-50309523D01*
X53380952Y-50404761D01*
X53476190Y-50452380D01*
X53571428Y-50452380D01*
X53857142Y-50404761D02*
X53952380Y-50452380D01*
X54142857Y-50452380D01*
X54238095Y-50404761D01*
X54285714Y-50309523D01*
X54285714Y-50261904D01*
X54238095Y-50166666D01*
X54142857Y-50119047D01*
X54000000Y-50119047D01*
X53904761Y-50071428D01*
X53857142Y-49976190D01*
X53857142Y-49928571D01*
X53904761Y-49833333D01*
X54000000Y-49785714D01*
X54142857Y-49785714D01*
X54238095Y-49833333D01*
X54714285Y-50071428D02*
X55476190Y-50071428D01*
X56476190Y-50452380D02*
X55904761Y-50452380D01*
X56190476Y-50452380D02*
X56190476Y-49452380D01*
X56095238Y-49595238D01*
X56000000Y-49690476D01*
X55904761Y-49738095D01*
%LPC*%
X52476190Y-49785714D02*
X52714285Y-50452380D01*
X52952380Y-49785714D02*
X52714285Y-50452380D01*
X52619047Y-50690476D01*
X52571428Y-50738095D01*
X52476190Y-50785714D01*
X53190476Y-49785714D02*
X53571428Y-49785714D01*
X53333333Y-49452380D02*
X53333333Y-50309523D01*
X53380952Y-50404761D01*
X53476190Y-50452380D01*
X53571428Y-50452380D01*
X53857142Y-50404761D02*
X53952380Y-50452380D01*
X54142857Y-50452380D01*
X54238095Y-50404761D01*
X54285714Y-50309523D01*
X54285714Y-50261904D01*
X54238095Y-50166666D01*
X54142857Y-50119047D01*
X54000000Y-50119047D01*
X53904761Y-50071428D01*
X53857142Y-49976190D01*
X53857142Y-49928571D01*
X53904761Y-49833333D01*
X54000000Y-49785714D01*
X54142857Y-49785714D01*
X54238095Y-49833333D01*
X54714285Y-50071428D02*
X55476190Y-50071428D01*
X56476190Y-50452380D02*
X55904761Y-50452380D01*
X56190476Y-50452380D02*
X56190476Y-49452380D01*
X56095238Y-49595238D01*
X56000000Y-49690476D01*
X55904761Y-49738095D01*
M02*
