M48
; DRILL file {KiCad (6.0.7-1)-1} date 2022 October 11, Tuesday 23:10:28
; FORMAT={-:-/ absolute / metric / decimal}
; #@! TF.CreationDate,2022-10-11T23:10:28+02:00
; #@! TF.GenerationSoftware,Kicad,Pcbnew,(6.0.7-1)-1
; #@! TF.FileFunction,NonPlated,1,2,NPTH
FMAT,2
METRIC
; #@! TA.AperFunction,NonPlated,NPTH,ComponentDrill
T1C0.900
; #@! TA.AperFunction,NonPlated,NPTH,ComponentDrill
T2C1.500
; #@! TA.AperFunction,NonPlated,NPTH,ComponentDrill
T3C1.700
; #@! TA.AperFunction,NonPlated,NPTH,ComponentDrill
T4C4.000
%
G90
G05
T1
X78.1Y-92.845
X81.1Y-92.845
T3
X107.398Y-106.7
X107.398Y-125.7
X107.398Y-144.7
X107.398Y-163.7
X117.558Y-106.7
X117.558Y-125.7
X117.558Y-144.7
X117.558Y-163.7
X126.398Y-106.7
X126.398Y-125.7
X126.398Y-144.7
X126.398Y-163.7
X136.558Y-106.7
X136.558Y-125.7
X136.558Y-144.7
X136.558Y-163.7
X145.398Y-106.7
X145.398Y-125.7
X145.398Y-144.7
X145.398Y-163.7
X155.558Y-106.7
X155.558Y-125.7
X155.558Y-144.7
X155.558Y-163.7
X164.398Y-106.7
X164.398Y-125.7
X164.398Y-144.7
X164.398Y-163.7
X174.558Y-106.7
X174.558Y-125.7
X174.558Y-144.7
X174.558Y-163.7
X192.898Y-163.7
X203.058Y-163.7
X221.398Y-106.7
X221.398Y-125.7
X221.398Y-163.7
X231.558Y-106.7
X231.558Y-125.7
X231.558Y-163.7
X240.398Y-106.7
X240.398Y-125.7
X240.398Y-144.7
X240.398Y-163.7
X250.558Y-106.7
X250.558Y-125.7
X250.558Y-144.7
X250.558Y-163.7
X259.398Y-106.7
X259.398Y-125.7
X259.398Y-163.7
X269.558Y-106.7
X269.558Y-125.7
X269.558Y-163.7
T4
X112.478Y-106.7
X112.478Y-125.7
X112.478Y-144.7
X112.478Y-163.7
X131.478Y-106.7
X131.478Y-125.7
X131.478Y-144.7
X131.478Y-163.7
X150.478Y-106.7
X150.478Y-125.7
X150.478Y-144.7
X150.478Y-163.7
X169.478Y-106.7
X169.478Y-125.7
X169.478Y-144.7
X169.478Y-163.7
X197.978Y-163.7
X226.478Y-106.7
X226.478Y-125.7
X226.478Y-163.7
X245.478Y-106.7
X245.478Y-125.7
X245.478Y-144.7
X245.478Y-163.7
X264.478Y-106.7
X264.478Y-125.7
X264.478Y-163.7
T2
X311.35Y-101.1G85X312.65Y-101.1
G05
X311.35Y-112.3G85X312.65Y-112.3
G05
X311.35Y-152.6G85X312.65Y-152.6
G05
X311.35Y-163.8G85X312.65Y-163.8
G05
T0
M30
