G04 #@! TF.GenerationSoftware,KiCad,Pcbnew,(6.0.7-1)-1*
G04 #@! TF.CreationDate,2022-10-11T23:10:25+02:00*
G04 #@! TF.ProjectId,yts-pcb,7974732d-7063-4622-9e6b-696361645f70,rev?*
G04 #@! TF.SameCoordinates,Original*
G04 #@! TF.FileFunction,Soldermask,Bot*
G04 #@! TF.FilePolarity,Negative*
%FSLAX46Y46*%
G04 Gerber Fmt 4.6, Leading zero omitted, Abs format (unit mm)*
G04 Created by KiCad (PCBNEW (6.0.7-1)-1) date 2022-10-11 23:10:25*
%MOMM*%
%LPD*%
G01*
G04 APERTURE LIST*
G04 Aperture macros list*
%AMRoundRect*
0 Rectangle with rounded corners*
0 $1 Rounding radius*
0 $2 $3 $4 $5 $6 $7 $8 $9 X,Y pos of 4 corners*
0 Add a 4 corners polygon primitive as box body*
4,1,4,$2,$3,$4,$5,$6,$7,$8,$9,$2,$3,0*
0 Add four circle primitives for the rounded corners*
1,1,$1+$1,$2,$3*
1,1,$1+$1,$4,$5*
1,1,$1+$1,$6,$7*
1,1,$1+$1,$8,$9*
0 Add four rect primitives between the rounded corners*
20,1,$1+$1,$2,$3,$4,$5,0*
20,1,$1+$1,$4,$5,$6,$7,0*
20,1,$1+$1,$6,$7,$8,$9,0*
20,1,$1+$1,$8,$9,$2,$3,0*%
G04 Aperture macros list end*
%ADD10C,1.700000*%
%ADD11C,4.000000*%
%ADD12C,2.200000*%
%ADD13O,3.200000X2.000000*%
%ADD14R,2.000000X2.000000*%
%ADD15C,2.000000*%
%ADD16C,4.400000*%
%ADD17O,10.000000X4.400000*%
%ADD18C,0.900000*%
%ADD19R,1.600000X1.600000*%
%ADD20C,1.600000*%
%ADD21RoundRect,0.250000X0.250000X0.750000X-0.250000X0.750000X-0.250000X-0.750000X0.250000X-0.750000X0*%
%ADD22R,1.752600X1.752600*%
%ADD23C,1.752600*%
G04 APERTURE END LIST*
D10*
X145397958Y-125700000D03*
D11*
X150477958Y-125700000D03*
D10*
X155557958Y-125700000D03*
D12*
X153017958Y-120620000D03*
X146667958Y-123160000D03*
D11*
X112477958Y-125700000D03*
D10*
X107397958Y-125700000D03*
X117557958Y-125700000D03*
D12*
X115017958Y-120620000D03*
X108667958Y-123160000D03*
D13*
X312000000Y-152600000D03*
X312000000Y-163800000D03*
D14*
X304500000Y-155700000D03*
D15*
X304500000Y-160700000D03*
X304500000Y-158200000D03*
X319000000Y-160700000D03*
X319000000Y-155700000D03*
D10*
X126397958Y-106700000D03*
D11*
X131477958Y-106700000D03*
D10*
X136557958Y-106700000D03*
D12*
X134017958Y-101620000D03*
X127667958Y-104160000D03*
D10*
X164397958Y-106700000D03*
D11*
X169477958Y-106700000D03*
D10*
X174557958Y-106700000D03*
D12*
X172017958Y-101620000D03*
X165667958Y-104160000D03*
D16*
X252500000Y-173500000D03*
X322047959Y-116202042D03*
D10*
X174557958Y-163700000D03*
X164397958Y-163700000D03*
D11*
X169477958Y-163700000D03*
D12*
X172017958Y-158620000D03*
X165667958Y-161160000D03*
D10*
X145397958Y-163700000D03*
X155557958Y-163700000D03*
D11*
X150477958Y-163700000D03*
D12*
X153017958Y-158620000D03*
X146667958Y-161160000D03*
D11*
X150477958Y-144700000D03*
D10*
X145397958Y-144700000D03*
X155557958Y-144700000D03*
D12*
X153017958Y-139620000D03*
X146667958Y-142160000D03*
D10*
X145397958Y-106700000D03*
D11*
X150477958Y-106700000D03*
D10*
X155557958Y-106700000D03*
D12*
X153017958Y-101620000D03*
X146667958Y-104160000D03*
D11*
X112477958Y-163700000D03*
D10*
X107397958Y-163700000D03*
X117557958Y-163700000D03*
D12*
X115017958Y-158620000D03*
X108667958Y-161160000D03*
D10*
X174557958Y-125700000D03*
D11*
X169477958Y-125700000D03*
D10*
X164397958Y-125700000D03*
D12*
X172017958Y-120620000D03*
X165667958Y-123160000D03*
D11*
X169477958Y-144700000D03*
D10*
X174557958Y-144700000D03*
X164397958Y-144700000D03*
D12*
X172017958Y-139620000D03*
X165667958Y-142160000D03*
D10*
X126397958Y-144700000D03*
D11*
X131477958Y-144700000D03*
D10*
X136557958Y-144700000D03*
D12*
X134017958Y-139620000D03*
X127667958Y-142160000D03*
D11*
X264477958Y-163700000D03*
D10*
X269557958Y-163700000D03*
X259397958Y-163700000D03*
D12*
X267017958Y-158620000D03*
X260667958Y-161160000D03*
D10*
X231557958Y-106700000D03*
D11*
X226477958Y-106700000D03*
D10*
X221397958Y-106700000D03*
D12*
X229017958Y-101620000D03*
X222667958Y-104160000D03*
D10*
X107397958Y-144700000D03*
X117557958Y-144700000D03*
D11*
X112477958Y-144700000D03*
D12*
X115017958Y-139620000D03*
X108667958Y-142160000D03*
D17*
X344100000Y-144802042D03*
X64900000Y-144800000D03*
D11*
X264477958Y-125700000D03*
D10*
X259397958Y-125700000D03*
X269557958Y-125700000D03*
D12*
X267017958Y-120620000D03*
X260667958Y-123160000D03*
D10*
X250557958Y-163700000D03*
X240397958Y-163700000D03*
D11*
X245477958Y-163700000D03*
D12*
X248017958Y-158620000D03*
X241667958Y-161160000D03*
D10*
X240397958Y-144700000D03*
X250557958Y-144700000D03*
D11*
X245477958Y-144700000D03*
D12*
X248017958Y-139620000D03*
X241667958Y-142160000D03*
D10*
X250557958Y-106700000D03*
D11*
X245477958Y-106700000D03*
D10*
X240397958Y-106700000D03*
D12*
X248017958Y-101620000D03*
X241667958Y-104160000D03*
D13*
X312000000Y-112300000D03*
X312000000Y-101100000D03*
D14*
X304500000Y-104200000D03*
D15*
X304500000Y-109200000D03*
X304500000Y-106700000D03*
X319000000Y-109200000D03*
X319000000Y-104200000D03*
D11*
X264477958Y-106700000D03*
D10*
X269557958Y-106700000D03*
X259397958Y-106700000D03*
D12*
X267017958Y-101620000D03*
X260667958Y-104160000D03*
D10*
X192897958Y-163700000D03*
D11*
X197977958Y-163700000D03*
D10*
X203057958Y-163700000D03*
D12*
X200517958Y-158620000D03*
X194167958Y-161160000D03*
D10*
X126397958Y-163700000D03*
D11*
X131477958Y-163700000D03*
D10*
X136557958Y-163700000D03*
D12*
X134017958Y-158620000D03*
X127667958Y-161160000D03*
D10*
X126397958Y-125700000D03*
D11*
X131477958Y-125700000D03*
D10*
X136557958Y-125700000D03*
D12*
X134017958Y-120620000D03*
X127667958Y-123160000D03*
D10*
X231557958Y-125700000D03*
X221397958Y-125700000D03*
D11*
X226477958Y-125700000D03*
D12*
X229017958Y-120620000D03*
X222667958Y-123160000D03*
D10*
X107397958Y-106700000D03*
D11*
X112477958Y-106700000D03*
D10*
X117557958Y-106700000D03*
D12*
X115017958Y-101620000D03*
X108667958Y-104160000D03*
D16*
X190200000Y-135200000D03*
D10*
X250557958Y-125700000D03*
D11*
X245477958Y-125700000D03*
D10*
X240397958Y-125700000D03*
D12*
X248017958Y-120620000D03*
X241667958Y-123160000D03*
D18*
X81100000Y-92845000D03*
X78100000Y-92845000D03*
D10*
X221397958Y-163700000D03*
X231557958Y-163700000D03*
D11*
X226477958Y-163700000D03*
D12*
X229017958Y-158620000D03*
X222667958Y-161160000D03*
D19*
X315900000Y-115200000D03*
D20*
X308100000Y-115200000D03*
D19*
X235977958Y-159800000D03*
D20*
X235977958Y-167600000D03*
D19*
X140977958Y-159800000D03*
D20*
X140977958Y-167600000D03*
D19*
X178977958Y-140800000D03*
D20*
X178977958Y-148600000D03*
D19*
X121977958Y-102300000D03*
D20*
X121977958Y-110100000D03*
D19*
X159977958Y-140800000D03*
D20*
X159977958Y-148600000D03*
D19*
X273977958Y-121800000D03*
D20*
X273977958Y-129600000D03*
D19*
X121977958Y-140800000D03*
D20*
X121977958Y-148600000D03*
D19*
X235977958Y-102300000D03*
D20*
X235977958Y-110100000D03*
D19*
X178977958Y-102300000D03*
D20*
X178977958Y-110100000D03*
D21*
X79700000Y-129100000D03*
D19*
X315900000Y-166700000D03*
D20*
X308100000Y-166700000D03*
D19*
X254977958Y-140800000D03*
D20*
X254977958Y-148600000D03*
D19*
X140977958Y-121800000D03*
D20*
X140977958Y-129600000D03*
D19*
X159977958Y-159800000D03*
D20*
X159977958Y-167600000D03*
D19*
X121977958Y-159800000D03*
D20*
X121977958Y-167600000D03*
D19*
X273977958Y-159800000D03*
D20*
X273977958Y-167600000D03*
D19*
X178977958Y-159800000D03*
D20*
X178977958Y-167600000D03*
D19*
X140977958Y-140800000D03*
D20*
X140977958Y-148600000D03*
D22*
X87120000Y-92130000D03*
D23*
X87120000Y-94670000D03*
X87120000Y-97210000D03*
X87120000Y-99750000D03*
X87120000Y-102290000D03*
X87120000Y-104830000D03*
X87120000Y-107370000D03*
X87120000Y-109910000D03*
X87120000Y-112450000D03*
X87120000Y-114990000D03*
X87120000Y-117530000D03*
X87120000Y-120070000D03*
X71880000Y-120070000D03*
X71880000Y-117530000D03*
X71880000Y-114990000D03*
X71880000Y-112450000D03*
X71880000Y-109910000D03*
X71880000Y-107370000D03*
X71880000Y-104830000D03*
X71880000Y-102290000D03*
X71880000Y-99750000D03*
X71880000Y-97210000D03*
X71880000Y-94670000D03*
X71880000Y-92130000D03*
D19*
X254977958Y-102300000D03*
D20*
X254977958Y-110100000D03*
D19*
X235977958Y-121800000D03*
D20*
X235977958Y-129600000D03*
D21*
X84200000Y-129100000D03*
D19*
X121977958Y-121900000D03*
D20*
X121977958Y-129700000D03*
D19*
X159977958Y-102300000D03*
D20*
X159977958Y-110100000D03*
D19*
X274000000Y-102300000D03*
D20*
X274000000Y-110100000D03*
D19*
X207477958Y-159800000D03*
D20*
X207477958Y-167600000D03*
D19*
X178977958Y-121800000D03*
D20*
X178977958Y-129600000D03*
D19*
X159977958Y-121800000D03*
D20*
X159977958Y-129600000D03*
D19*
X254977958Y-159900000D03*
D20*
X254977958Y-167700000D03*
D19*
X254977958Y-121800000D03*
D20*
X254977958Y-129600000D03*
D19*
X141000000Y-102300000D03*
D20*
X141000000Y-110100000D03*
M02*
