M48
; DRILL file {KiCad (6.0.7-1)-1} date 2022 October 11, Tuesday 23:10:28
; FORMAT={-:-/ absolute / metric / decimal}
; #@! TF.CreationDate,2022-10-11T23:10:28+02:00
; #@! TF.GenerationSoftware,Kicad,Pcbnew,(6.0.7-1)-1
; #@! TF.FileFunction,Plated,1,2,PTH
FMAT,2
METRIC
; #@! TA.AperFunction,Plated,PTH,ViaDrill
T1C0.400
; #@! TA.AperFunction,Plated,PTH,ComponentDrill
T2C1.000
; #@! TA.AperFunction,Plated,PTH,ComponentDrill
T3C1.092
; #@! TA.AperFunction,Plated,PTH,ComponentDrill
T4C1.500
; #@! TA.AperFunction,Plated,PTH,ComponentDrill
T5C2.200
%
G90
G05
T1
X77.3Y-92.0
X79.7Y-129.1
X82.0Y-92.0
X84.2Y-129.1
X84.5Y-106.2
X85.175Y-103.462
X85.9Y-98.5
X88.841Y-91.189
X95.238Y-96.562
X96.051Y-97.375
X96.758Y-98.082
X105.5Y-98.749
X105.5Y-100.3
X105.5Y-104.8
X255.0Y-96.85
T2
X121.978Y-102.3
X121.978Y-110.1
X121.978Y-121.9
X121.978Y-129.7
X121.978Y-140.8
X121.978Y-148.6
X121.978Y-159.8
X121.978Y-167.6
X140.978Y-121.8
X140.978Y-129.6
X140.978Y-140.8
X140.978Y-148.6
X140.978Y-159.8
X140.978Y-167.6
X141.0Y-102.3
X141.0Y-110.1
X159.978Y-102.3
X159.978Y-110.1
X159.978Y-121.8
X159.978Y-129.6
X159.978Y-140.8
X159.978Y-148.6
X159.978Y-159.8
X159.978Y-167.6
X178.978Y-102.3
X178.978Y-110.1
X178.978Y-121.8
X178.978Y-129.6
X178.978Y-140.8
X178.978Y-148.6
X178.978Y-159.8
X178.978Y-167.6
X207.478Y-159.8
X207.478Y-167.6
X235.978Y-102.3
X235.978Y-110.1
X235.978Y-121.8
X235.978Y-129.6
X235.978Y-159.8
X235.978Y-167.6
X254.978Y-102.3
X254.978Y-110.1
X254.978Y-121.8
X254.978Y-129.6
X254.978Y-140.8
X254.978Y-148.6
X254.978Y-159.9
X254.978Y-167.7
X273.978Y-121.8
X273.978Y-129.6
X273.978Y-159.8
X273.978Y-167.6
X274.0Y-102.3
X274.0Y-110.1
X304.5Y-104.2
X304.5Y-106.7
X304.5Y-109.2
X304.5Y-155.7
X304.5Y-158.2
X304.5Y-160.7
X308.1Y-115.2
X308.1Y-166.7
X315.9Y-115.2
X315.9Y-166.7
X319.0Y-104.2
X319.0Y-109.2
X319.0Y-155.7
X319.0Y-160.7
T3
X71.88Y-92.13
X71.88Y-94.67
X71.88Y-97.21
X71.88Y-99.75
X71.88Y-102.29
X71.88Y-104.83
X71.88Y-107.37
X71.88Y-109.91
X71.88Y-112.45
X71.88Y-114.99
X71.88Y-117.53
X71.88Y-120.07
X87.12Y-92.13
X87.12Y-94.67
X87.12Y-97.21
X87.12Y-99.75
X87.12Y-102.29
X87.12Y-104.83
X87.12Y-107.37
X87.12Y-109.91
X87.12Y-112.45
X87.12Y-114.99
X87.12Y-117.53
X87.12Y-120.07
T4
X108.668Y-104.16
X108.668Y-123.16
X108.668Y-142.16
X108.668Y-161.16
X115.018Y-101.62
X115.018Y-120.62
X115.018Y-139.62
X115.018Y-158.62
X127.668Y-104.16
X127.668Y-123.16
X127.668Y-142.16
X127.668Y-161.16
X134.018Y-101.62
X134.018Y-120.62
X134.018Y-139.62
X134.018Y-158.62
X146.668Y-104.16
X146.668Y-123.16
X146.668Y-142.16
X146.668Y-161.16
X153.018Y-101.62
X153.018Y-120.62
X153.018Y-139.62
X153.018Y-158.62
X165.668Y-104.16
X165.668Y-123.16
X165.668Y-142.16
X165.668Y-161.16
X172.018Y-101.62
X172.018Y-120.62
X172.018Y-139.62
X172.018Y-158.62
X194.168Y-161.16
X200.518Y-158.62
X222.668Y-104.16
X222.668Y-123.16
X222.668Y-161.16
X229.018Y-101.62
X229.018Y-120.62
X229.018Y-158.62
X241.668Y-104.16
X241.668Y-123.16
X241.668Y-142.16
X241.668Y-161.16
X248.018Y-101.62
X248.018Y-120.62
X248.018Y-139.62
X248.018Y-158.62
X260.668Y-104.16
X260.668Y-123.16
X260.668Y-161.16
X267.018Y-101.62
X267.018Y-120.62
X267.018Y-158.62
T5
X190.2Y-135.2
X252.5Y-173.5
X322.048Y-116.202
T5
X62.5Y-144.8G85X67.3Y-144.8
G05
X341.7Y-144.802G85X346.5Y-144.802
G05
T0
M30
