G04 #@! TF.GenerationSoftware,KiCad,Pcbnew,(6.0.7-1)-1*
G04 #@! TF.CreationDate,2022-10-11T23:10:24+02:00*
G04 #@! TF.ProjectId,yts-pcb,7974732d-7063-4622-9e6b-696361645f70,rev?*
G04 #@! TF.SameCoordinates,Original*
G04 #@! TF.FileFunction,Paste,Top*
G04 #@! TF.FilePolarity,Positive*
%FSLAX46Y46*%
G04 Gerber Fmt 4.6, Leading zero omitted, Abs format (unit mm)*
G04 Created by KiCad (PCBNEW (6.0.7-1)-1) date 2022-10-11 23:10:24*
%MOMM*%
%LPD*%
G01*
G04 APERTURE LIST*
%ADD10R,1.000000X0.800000*%
%ADD11R,0.700000X1.500000*%
%ADD12R,1.600000X1.200000*%
%ADD13R,1.200000X1.600000*%
G04 APERTURE END LIST*
D10*
X83250000Y-91745000D03*
X75950000Y-93955000D03*
X75950000Y-91745000D03*
X83250000Y-93955000D03*
D11*
X81850000Y-94605000D03*
X78850000Y-94605000D03*
X77350000Y-94605000D03*
D12*
X313400000Y-115200000D03*
X310600000Y-115200000D03*
D13*
X235977958Y-162300000D03*
X235977958Y-165100000D03*
X140977958Y-162300000D03*
X140977958Y-165100000D03*
X178977958Y-143300000D03*
X178977958Y-146100000D03*
X121977958Y-104800000D03*
X121977958Y-107600000D03*
X159977958Y-143300000D03*
X159977958Y-146100000D03*
X273977958Y-124300000D03*
X273977958Y-127100000D03*
X121977958Y-143300000D03*
X121977958Y-146100000D03*
X235977958Y-104800000D03*
X235977958Y-107600000D03*
X178977958Y-104800000D03*
X178977958Y-107600000D03*
D12*
X313400000Y-166700000D03*
X310600000Y-166700000D03*
D13*
X254977958Y-143300000D03*
X254977958Y-146100000D03*
X140977958Y-124300000D03*
X140977958Y-127100000D03*
X159977958Y-162300000D03*
X159977958Y-165100000D03*
X121977958Y-162300000D03*
X121977958Y-165100000D03*
X273977958Y-162300000D03*
X273977958Y-165100000D03*
X178977958Y-162300000D03*
X178977958Y-165100000D03*
X140977958Y-143300000D03*
X140977958Y-146100000D03*
X254977958Y-104800000D03*
X254977958Y-107600000D03*
X235977958Y-124300000D03*
X235977958Y-127100000D03*
X121977958Y-124400000D03*
X121977958Y-127200000D03*
X159977958Y-104800000D03*
X159977958Y-107600000D03*
X274000000Y-104800000D03*
X274000000Y-107600000D03*
X207477958Y-162300000D03*
X207477958Y-165100000D03*
X178977958Y-124300000D03*
X178977958Y-127100000D03*
X159977958Y-124300000D03*
X159977958Y-127100000D03*
X254977958Y-162400000D03*
X254977958Y-165200000D03*
X254977958Y-124300000D03*
X254977958Y-127100000D03*
X141000000Y-104800000D03*
X141000000Y-107600000D03*
M02*
