G04 #@! TF.GenerationSoftware,KiCad,Pcbnew,(6.0.7-1)-1*
G04 #@! TF.CreationDate,2022-10-11T23:10:25+02:00*
G04 #@! TF.ProjectId,yts-pcb,7974732d-7063-4622-9e6b-696361645f70,rev?*
G04 #@! TF.SameCoordinates,Original*
G04 #@! TF.FileFunction,Soldermask,Top*
G04 #@! TF.FilePolarity,Negative*
%FSLAX46Y46*%
G04 Gerber Fmt 4.6, Leading zero omitted, Abs format (unit mm)*
G04 Created by KiCad (PCBNEW (6.0.7-1)-1) date 2022-10-11 23:10:25*
%MOMM*%
%LPD*%
G01*
G04 APERTURE LIST*
%ADD10C,1.700000*%
%ADD11C,4.000000*%
%ADD12C,2.200000*%
%ADD13O,3.200000X2.000000*%
%ADD14R,2.000000X2.000000*%
%ADD15C,2.000000*%
%ADD16C,4.400000*%
%ADD17O,10.000000X4.400000*%
%ADD18C,0.900000*%
%ADD19R,1.000000X0.800000*%
%ADD20R,0.700000X1.500000*%
%ADD21R,1.600000X1.200000*%
%ADD22R,1.600000X1.600000*%
%ADD23C,1.600000*%
%ADD24R,1.200000X1.600000*%
%ADD25R,1.752600X1.752600*%
%ADD26C,1.752600*%
G04 APERTURE END LIST*
D10*
X145397958Y-125700000D03*
D11*
X150477958Y-125700000D03*
D10*
X155557958Y-125700000D03*
D12*
X153017958Y-120620000D03*
X146667958Y-123160000D03*
D11*
X112477958Y-125700000D03*
D10*
X107397958Y-125700000D03*
X117557958Y-125700000D03*
D12*
X115017958Y-120620000D03*
X108667958Y-123160000D03*
D13*
X312000000Y-152600000D03*
X312000000Y-163800000D03*
D14*
X304500000Y-155700000D03*
D15*
X304500000Y-160700000D03*
X304500000Y-158200000D03*
X319000000Y-160700000D03*
X319000000Y-155700000D03*
D10*
X126397958Y-106700000D03*
D11*
X131477958Y-106700000D03*
D10*
X136557958Y-106700000D03*
D12*
X134017958Y-101620000D03*
X127667958Y-104160000D03*
D10*
X164397958Y-106700000D03*
D11*
X169477958Y-106700000D03*
D10*
X174557958Y-106700000D03*
D12*
X172017958Y-101620000D03*
X165667958Y-104160000D03*
D16*
X252500000Y-173500000D03*
X322047959Y-116202042D03*
D10*
X174557958Y-163700000D03*
X164397958Y-163700000D03*
D11*
X169477958Y-163700000D03*
D12*
X172017958Y-158620000D03*
X165667958Y-161160000D03*
D10*
X145397958Y-163700000D03*
X155557958Y-163700000D03*
D11*
X150477958Y-163700000D03*
D12*
X153017958Y-158620000D03*
X146667958Y-161160000D03*
D11*
X150477958Y-144700000D03*
D10*
X145397958Y-144700000D03*
X155557958Y-144700000D03*
D12*
X153017958Y-139620000D03*
X146667958Y-142160000D03*
D10*
X145397958Y-106700000D03*
D11*
X150477958Y-106700000D03*
D10*
X155557958Y-106700000D03*
D12*
X153017958Y-101620000D03*
X146667958Y-104160000D03*
D11*
X112477958Y-163700000D03*
D10*
X107397958Y-163700000D03*
X117557958Y-163700000D03*
D12*
X115017958Y-158620000D03*
X108667958Y-161160000D03*
D10*
X174557958Y-125700000D03*
D11*
X169477958Y-125700000D03*
D10*
X164397958Y-125700000D03*
D12*
X172017958Y-120620000D03*
X165667958Y-123160000D03*
D11*
X169477958Y-144700000D03*
D10*
X174557958Y-144700000D03*
X164397958Y-144700000D03*
D12*
X172017958Y-139620000D03*
X165667958Y-142160000D03*
D10*
X126397958Y-144700000D03*
D11*
X131477958Y-144700000D03*
D10*
X136557958Y-144700000D03*
D12*
X134017958Y-139620000D03*
X127667958Y-142160000D03*
D11*
X264477958Y-163700000D03*
D10*
X269557958Y-163700000D03*
X259397958Y-163700000D03*
D12*
X267017958Y-158620000D03*
X260667958Y-161160000D03*
D10*
X231557958Y-106700000D03*
D11*
X226477958Y-106700000D03*
D10*
X221397958Y-106700000D03*
D12*
X229017958Y-101620000D03*
X222667958Y-104160000D03*
D10*
X107397958Y-144700000D03*
X117557958Y-144700000D03*
D11*
X112477958Y-144700000D03*
D12*
X115017958Y-139620000D03*
X108667958Y-142160000D03*
D17*
X344100000Y-144802042D03*
X64900000Y-144800000D03*
D11*
X264477958Y-125700000D03*
D10*
X259397958Y-125700000D03*
X269557958Y-125700000D03*
D12*
X267017958Y-120620000D03*
X260667958Y-123160000D03*
D10*
X250557958Y-163700000D03*
X240397958Y-163700000D03*
D11*
X245477958Y-163700000D03*
D12*
X248017958Y-158620000D03*
X241667958Y-161160000D03*
D10*
X240397958Y-144700000D03*
X250557958Y-144700000D03*
D11*
X245477958Y-144700000D03*
D12*
X248017958Y-139620000D03*
X241667958Y-142160000D03*
D10*
X250557958Y-106700000D03*
D11*
X245477958Y-106700000D03*
D10*
X240397958Y-106700000D03*
D12*
X248017958Y-101620000D03*
X241667958Y-104160000D03*
D13*
X312000000Y-112300000D03*
X312000000Y-101100000D03*
D14*
X304500000Y-104200000D03*
D15*
X304500000Y-109200000D03*
X304500000Y-106700000D03*
X319000000Y-109200000D03*
X319000000Y-104200000D03*
D11*
X264477958Y-106700000D03*
D10*
X269557958Y-106700000D03*
X259397958Y-106700000D03*
D12*
X267017958Y-101620000D03*
X260667958Y-104160000D03*
D10*
X192897958Y-163700000D03*
D11*
X197977958Y-163700000D03*
D10*
X203057958Y-163700000D03*
D12*
X200517958Y-158620000D03*
X194167958Y-161160000D03*
D10*
X126397958Y-163700000D03*
D11*
X131477958Y-163700000D03*
D10*
X136557958Y-163700000D03*
D12*
X134017958Y-158620000D03*
X127667958Y-161160000D03*
D10*
X126397958Y-125700000D03*
D11*
X131477958Y-125700000D03*
D10*
X136557958Y-125700000D03*
D12*
X134017958Y-120620000D03*
X127667958Y-123160000D03*
D10*
X231557958Y-125700000D03*
X221397958Y-125700000D03*
D11*
X226477958Y-125700000D03*
D12*
X229017958Y-120620000D03*
X222667958Y-123160000D03*
D10*
X107397958Y-106700000D03*
D11*
X112477958Y-106700000D03*
D10*
X117557958Y-106700000D03*
D12*
X115017958Y-101620000D03*
X108667958Y-104160000D03*
D16*
X190200000Y-135200000D03*
D10*
X250557958Y-125700000D03*
D11*
X245477958Y-125700000D03*
D10*
X240397958Y-125700000D03*
D12*
X248017958Y-120620000D03*
X241667958Y-123160000D03*
D18*
X81100000Y-92845000D03*
D19*
X83250000Y-91745000D03*
D18*
X78100000Y-92845000D03*
D19*
X75950000Y-93955000D03*
X75950000Y-91745000D03*
X83250000Y-93955000D03*
D20*
X81850000Y-94605000D03*
X78850000Y-94605000D03*
X77350000Y-94605000D03*
D10*
X221397958Y-163700000D03*
X231557958Y-163700000D03*
D11*
X226477958Y-163700000D03*
D12*
X229017958Y-158620000D03*
X222667958Y-161160000D03*
D21*
X313400000Y-115200000D03*
D22*
X315900000Y-115200000D03*
D21*
X310600000Y-115200000D03*
D23*
X308100000Y-115200000D03*
D24*
X235977958Y-162300000D03*
D22*
X235977958Y-159800000D03*
D24*
X235977958Y-165100000D03*
D23*
X235977958Y-167600000D03*
D24*
X140977958Y-162300000D03*
D22*
X140977958Y-159800000D03*
D23*
X140977958Y-167600000D03*
D24*
X140977958Y-165100000D03*
D22*
X178977958Y-140800000D03*
D24*
X178977958Y-143300000D03*
D23*
X178977958Y-148600000D03*
D24*
X178977958Y-146100000D03*
X121977958Y-104800000D03*
D22*
X121977958Y-102300000D03*
D23*
X121977958Y-110100000D03*
D24*
X121977958Y-107600000D03*
D22*
X159977958Y-140800000D03*
D24*
X159977958Y-143300000D03*
D23*
X159977958Y-148600000D03*
D24*
X159977958Y-146100000D03*
X273977958Y-124300000D03*
D22*
X273977958Y-121800000D03*
D24*
X273977958Y-127100000D03*
D23*
X273977958Y-129600000D03*
D24*
X121977958Y-143300000D03*
D22*
X121977958Y-140800000D03*
D24*
X121977958Y-146100000D03*
D23*
X121977958Y-148600000D03*
D24*
X235977958Y-104800000D03*
D22*
X235977958Y-102300000D03*
D23*
X235977958Y-110100000D03*
D24*
X235977958Y-107600000D03*
X178977958Y-104800000D03*
D22*
X178977958Y-102300000D03*
D24*
X178977958Y-107600000D03*
D23*
X178977958Y-110100000D03*
D21*
X313400000Y-166700000D03*
D22*
X315900000Y-166700000D03*
D23*
X308100000Y-166700000D03*
D21*
X310600000Y-166700000D03*
D22*
X254977958Y-140800000D03*
D24*
X254977958Y-143300000D03*
D23*
X254977958Y-148600000D03*
D24*
X254977958Y-146100000D03*
D22*
X140977958Y-121800000D03*
D24*
X140977958Y-124300000D03*
X140977958Y-127100000D03*
D23*
X140977958Y-129600000D03*
D22*
X159977958Y-159800000D03*
D24*
X159977958Y-162300000D03*
D23*
X159977958Y-167600000D03*
D24*
X159977958Y-165100000D03*
X121977958Y-162300000D03*
D22*
X121977958Y-159800000D03*
D23*
X121977958Y-167600000D03*
D24*
X121977958Y-165100000D03*
D22*
X273977958Y-159800000D03*
D24*
X273977958Y-162300000D03*
D23*
X273977958Y-167600000D03*
D24*
X273977958Y-165100000D03*
D22*
X178977958Y-159800000D03*
D24*
X178977958Y-162300000D03*
X178977958Y-165100000D03*
D23*
X178977958Y-167600000D03*
D24*
X140977958Y-143300000D03*
D22*
X140977958Y-140800000D03*
D23*
X140977958Y-148600000D03*
D24*
X140977958Y-146100000D03*
D25*
X87120000Y-92130000D03*
D26*
X87120000Y-94670000D03*
X87120000Y-97210000D03*
X87120000Y-99750000D03*
X87120000Y-102290000D03*
X87120000Y-104830000D03*
X87120000Y-107370000D03*
X87120000Y-109910000D03*
X87120000Y-112450000D03*
X87120000Y-114990000D03*
X87120000Y-117530000D03*
X87120000Y-120070000D03*
X71880000Y-120070000D03*
X71880000Y-117530000D03*
X71880000Y-114990000D03*
X71880000Y-112450000D03*
X71880000Y-109910000D03*
X71880000Y-107370000D03*
X71880000Y-104830000D03*
X71880000Y-102290000D03*
X71880000Y-99750000D03*
X71880000Y-97210000D03*
X71880000Y-94670000D03*
X71880000Y-92130000D03*
D22*
X254977958Y-102300000D03*
D24*
X254977958Y-104800000D03*
D23*
X254977958Y-110100000D03*
D24*
X254977958Y-107600000D03*
D22*
X235977958Y-121800000D03*
D24*
X235977958Y-124300000D03*
D23*
X235977958Y-129600000D03*
D24*
X235977958Y-127100000D03*
X121977958Y-124400000D03*
D22*
X121977958Y-121900000D03*
D23*
X121977958Y-129700000D03*
D24*
X121977958Y-127200000D03*
X159977958Y-104800000D03*
D22*
X159977958Y-102300000D03*
D24*
X159977958Y-107600000D03*
D23*
X159977958Y-110100000D03*
D22*
X274000000Y-102300000D03*
D24*
X274000000Y-104800000D03*
D23*
X274000000Y-110100000D03*
D24*
X274000000Y-107600000D03*
X207477958Y-162300000D03*
D22*
X207477958Y-159800000D03*
D24*
X207477958Y-165100000D03*
D23*
X207477958Y-167600000D03*
D22*
X178977958Y-121800000D03*
D24*
X178977958Y-124300000D03*
D23*
X178977958Y-129600000D03*
D24*
X178977958Y-127100000D03*
X159977958Y-124300000D03*
D22*
X159977958Y-121800000D03*
D24*
X159977958Y-127100000D03*
D23*
X159977958Y-129600000D03*
D24*
X254977958Y-162400000D03*
D22*
X254977958Y-159900000D03*
D23*
X254977958Y-167700000D03*
D24*
X254977958Y-165200000D03*
X254977958Y-124300000D03*
D22*
X254977958Y-121800000D03*
D24*
X254977958Y-127100000D03*
D23*
X254977958Y-129600000D03*
D24*
X141000000Y-104800000D03*
D22*
X141000000Y-102300000D03*
D23*
X141000000Y-110100000D03*
D24*
X141000000Y-107600000D03*
M02*
