G04 #@! TF.GenerationSoftware,KiCad,Pcbnew,(6.0.7-1)-1*
G04 #@! TF.CreationDate,2022-10-11T23:10:25+02:00*
G04 #@! TF.ProjectId,yts-pcb,7974732d-7063-4622-9e6b-696361645f70,rev?*
G04 #@! TF.SameCoordinates,Original*
G04 #@! TF.FileFunction,Legend,Top*
G04 #@! TF.FilePolarity,Positive*
%FSLAX46Y46*%
G04 Gerber Fmt 4.6, Leading zero omitted, Abs format (unit mm)*
G04 Created by KiCad (PCBNEW (6.0.7-1)-1) date 2022-10-11 23:10:25*
%MOMM*%
%LPD*%
G01*
G04 APERTURE LIST*
%ADD10C,0.300000*%
%ADD11C,0.150000*%
%ADD12C,0.120000*%
%ADD13C,0.381000*%
%ADD14R,1.752600X1.752600*%
%ADD15C,1.752600*%
%ADD16C,1.700000*%
%ADD17C,4.000000*%
%ADD18C,2.200000*%
%ADD19O,3.200000X2.000000*%
%ADD20R,2.000000X2.000000*%
%ADD21C,2.000000*%
%ADD22C,4.400000*%
%ADD23O,10.000000X4.400000*%
%ADD24C,0.900000*%
%ADD25R,1.000000X0.800000*%
%ADD26R,0.700000X1.500000*%
%ADD27R,1.600000X1.200000*%
%ADD28R,1.600000X1.600000*%
%ADD29C,1.600000*%
%ADD30R,1.200000X1.600000*%
G04 APERTURE END LIST*
D10*
X195664285Y-100678571D02*
X196021428Y-101678571D01*
X196378571Y-100678571D02*
X196021428Y-101678571D01*
X195878571Y-102035714D01*
X195807142Y-102107142D01*
X195664285Y-102178571D01*
X196735714Y-100678571D02*
X197307142Y-100678571D01*
X196950000Y-100178571D02*
X196950000Y-101464285D01*
X197021428Y-101607142D01*
X197164285Y-101678571D01*
X197307142Y-101678571D01*
X197735714Y-101607142D02*
X197878571Y-101678571D01*
X198164285Y-101678571D01*
X198307142Y-101607142D01*
X198378571Y-101464285D01*
X198378571Y-101392857D01*
X198307142Y-101250000D01*
X198164285Y-101178571D01*
X197950000Y-101178571D01*
X197807142Y-101107142D01*
X197735714Y-100964285D01*
X197735714Y-100892857D01*
X197807142Y-100750000D01*
X197950000Y-100678571D01*
X198164285Y-100678571D01*
X198307142Y-100750000D01*
X199021428Y-101107142D02*
X200164285Y-101107142D01*
X201664285Y-101678571D02*
X200807142Y-101678571D01*
X201235714Y-101678571D02*
X201235714Y-100178571D01*
X201092857Y-100392857D01*
X200950000Y-100535714D01*
X200807142Y-100607142D01*
D11*
D12*
X143492958Y-132685000D02*
X143492958Y-118715000D01*
X157462958Y-118715000D02*
X157462958Y-132685000D01*
X143492958Y-118715000D02*
X157462958Y-118715000D01*
X157462958Y-132685000D02*
X143492958Y-132685000D01*
X119462958Y-118715000D02*
X119462958Y-132685000D01*
X105492958Y-118715000D02*
X119462958Y-118715000D01*
X119462958Y-132685000D02*
X105492958Y-132685000D01*
X105492958Y-132685000D02*
X105492958Y-118715000D01*
X314000000Y-152300000D02*
X318100000Y-152300000D01*
X318100000Y-164100000D02*
X314000000Y-164100000D01*
X318100000Y-161700000D02*
X318100000Y-164100000D01*
X310000000Y-164100000D02*
X305900000Y-164100000D01*
X304800000Y-154100000D02*
X304500000Y-154400000D01*
X304200000Y-154100000D02*
X304800000Y-154100000D01*
X318100000Y-152300000D02*
X318100000Y-154700000D01*
X304500000Y-154400000D02*
X304200000Y-154100000D01*
X312000000Y-157700000D02*
X312000000Y-158700000D01*
X311500000Y-158200000D02*
X312500000Y-158200000D01*
X318100000Y-156900000D02*
X318100000Y-159500000D01*
X310000000Y-152300000D02*
X305900000Y-152300000D01*
X305900000Y-152300000D02*
X305900000Y-164100000D01*
X315000000Y-158200000D02*
G75*
G03*
X315000000Y-158200000I-3000000J0D01*
G01*
X124492958Y-113685000D02*
X124492958Y-99715000D01*
X124492958Y-99715000D02*
X138462958Y-99715000D01*
X138462958Y-99715000D02*
X138462958Y-113685000D01*
X138462958Y-113685000D02*
X124492958Y-113685000D01*
X176462958Y-113685000D02*
X162492958Y-113685000D01*
X162492958Y-113685000D02*
X162492958Y-99715000D01*
X162492958Y-99715000D02*
X176462958Y-99715000D01*
X176462958Y-99715000D02*
X176462958Y-113685000D01*
X162492958Y-156715000D02*
X176462958Y-156715000D01*
X176462958Y-156715000D02*
X176462958Y-170685000D01*
X162492958Y-170685000D02*
X162492958Y-156715000D01*
X176462958Y-170685000D02*
X162492958Y-170685000D01*
X143492958Y-156715000D02*
X157462958Y-156715000D01*
X157462958Y-170685000D02*
X143492958Y-170685000D01*
X143492958Y-170685000D02*
X143492958Y-156715000D01*
X157462958Y-156715000D02*
X157462958Y-170685000D01*
X143492958Y-151685000D02*
X143492958Y-137715000D01*
X157462958Y-137715000D02*
X157462958Y-151685000D01*
X157462958Y-151685000D02*
X143492958Y-151685000D01*
X143492958Y-137715000D02*
X157462958Y-137715000D01*
X157462958Y-99715000D02*
X157462958Y-113685000D01*
X143492958Y-113685000D02*
X143492958Y-99715000D01*
X143492958Y-99715000D02*
X157462958Y-99715000D01*
X157462958Y-113685000D02*
X143492958Y-113685000D01*
X119462958Y-156715000D02*
X119462958Y-170685000D01*
X105492958Y-156715000D02*
X119462958Y-156715000D01*
X105492958Y-170685000D02*
X105492958Y-156715000D01*
X119462958Y-170685000D02*
X105492958Y-170685000D01*
X162492958Y-132685000D02*
X162492958Y-118715000D01*
X176462958Y-118715000D02*
X176462958Y-132685000D01*
X162492958Y-118715000D02*
X176462958Y-118715000D01*
X176462958Y-132685000D02*
X162492958Y-132685000D01*
X176462958Y-151685000D02*
X162492958Y-151685000D01*
X176462958Y-137715000D02*
X176462958Y-151685000D01*
X162492958Y-137715000D02*
X176462958Y-137715000D01*
X162492958Y-151685000D02*
X162492958Y-137715000D01*
X138462958Y-137715000D02*
X138462958Y-151685000D01*
X124492958Y-151685000D02*
X124492958Y-137715000D01*
X124492958Y-137715000D02*
X138462958Y-137715000D01*
X138462958Y-151685000D02*
X124492958Y-151685000D01*
X271462958Y-156715000D02*
X271462958Y-170685000D01*
X257492958Y-170685000D02*
X257492958Y-156715000D01*
X271462958Y-170685000D02*
X257492958Y-170685000D01*
X257492958Y-156715000D02*
X271462958Y-156715000D01*
X233462958Y-99715000D02*
X233462958Y-113685000D01*
X219492958Y-113685000D02*
X219492958Y-99715000D01*
X233462958Y-113685000D02*
X219492958Y-113685000D01*
X219492958Y-99715000D02*
X233462958Y-99715000D01*
X105492958Y-137715000D02*
X119462958Y-137715000D01*
X105492958Y-151685000D02*
X105492958Y-137715000D01*
X119462958Y-151685000D02*
X105492958Y-151685000D01*
X119462958Y-137715000D02*
X119462958Y-151685000D01*
X271462958Y-132685000D02*
X257492958Y-132685000D01*
X257492958Y-118715000D02*
X271462958Y-118715000D01*
X257492958Y-132685000D02*
X257492958Y-118715000D01*
X271462958Y-118715000D02*
X271462958Y-132685000D01*
X238492958Y-170685000D02*
X238492958Y-156715000D01*
X252462958Y-170685000D02*
X238492958Y-170685000D01*
X238492958Y-156715000D02*
X252462958Y-156715000D01*
X252462958Y-156715000D02*
X252462958Y-170685000D01*
X238492958Y-137715000D02*
X252462958Y-137715000D01*
X238492958Y-151685000D02*
X238492958Y-137715000D01*
X252462958Y-151685000D02*
X238492958Y-151685000D01*
X252462958Y-137715000D02*
X252462958Y-151685000D01*
X238492958Y-113685000D02*
X238492958Y-99715000D01*
X252462958Y-113685000D02*
X238492958Y-113685000D01*
X238492958Y-99715000D02*
X252462958Y-99715000D01*
X252462958Y-99715000D02*
X252462958Y-113685000D01*
X304200000Y-102600000D02*
X304800000Y-102600000D01*
X305900000Y-100800000D02*
X305900000Y-112600000D01*
X318100000Y-105400000D02*
X318100000Y-108000000D01*
X311500000Y-106700000D02*
X312500000Y-106700000D01*
X318100000Y-110200000D02*
X318100000Y-112600000D01*
X312000000Y-106200000D02*
X312000000Y-107200000D01*
X314000000Y-100800000D02*
X318100000Y-100800000D01*
X318100000Y-100800000D02*
X318100000Y-103200000D01*
X310000000Y-100800000D02*
X305900000Y-100800000D01*
X318100000Y-112600000D02*
X314000000Y-112600000D01*
X304800000Y-102600000D02*
X304500000Y-102900000D01*
X310000000Y-112600000D02*
X305900000Y-112600000D01*
X304500000Y-102900000D02*
X304200000Y-102600000D01*
X315000000Y-106700000D02*
G75*
G03*
X315000000Y-106700000I-3000000J0D01*
G01*
X271462958Y-99715000D02*
X271462958Y-113685000D01*
X271462958Y-113685000D02*
X257492958Y-113685000D01*
X257492958Y-113685000D02*
X257492958Y-99715000D01*
X257492958Y-99715000D02*
X271462958Y-99715000D01*
X204962958Y-170685000D02*
X190992958Y-170685000D01*
X204962958Y-156715000D02*
X204962958Y-170685000D01*
X190992958Y-170685000D02*
X190992958Y-156715000D01*
X190992958Y-156715000D02*
X204962958Y-156715000D01*
X124492958Y-156715000D02*
X138462958Y-156715000D01*
X138462958Y-156715000D02*
X138462958Y-170685000D01*
X124492958Y-170685000D02*
X124492958Y-156715000D01*
X138462958Y-170685000D02*
X124492958Y-170685000D01*
X138462958Y-132685000D02*
X124492958Y-132685000D01*
X124492958Y-132685000D02*
X124492958Y-118715000D01*
X124492958Y-118715000D02*
X138462958Y-118715000D01*
X138462958Y-118715000D02*
X138462958Y-132685000D01*
X219492958Y-118715000D02*
X233462958Y-118715000D01*
X219492958Y-132685000D02*
X219492958Y-118715000D01*
X233462958Y-132685000D02*
X219492958Y-132685000D01*
X233462958Y-118715000D02*
X233462958Y-132685000D01*
X119462958Y-99715000D02*
X119462958Y-113685000D01*
X119462958Y-113685000D02*
X105492958Y-113685000D01*
X105492958Y-99715000D02*
X119462958Y-99715000D01*
X105492958Y-113685000D02*
X105492958Y-99715000D01*
X252462958Y-118715000D02*
X252462958Y-132685000D01*
X238492958Y-118715000D02*
X252462958Y-118715000D01*
X252462958Y-132685000D02*
X238492958Y-132685000D01*
X238492958Y-132685000D02*
X238492958Y-118715000D01*
X83050000Y-93245000D02*
X83050000Y-92455000D01*
X81200000Y-94295000D02*
X79500000Y-94295000D01*
X82450000Y-91445000D02*
X76750000Y-91445000D01*
X81000000Y-91445000D02*
X81000000Y-90155000D01*
X76150000Y-92455000D02*
X76150000Y-93245000D01*
X80800000Y-89945000D02*
X79900000Y-89945000D01*
X79700000Y-90155000D02*
X79700000Y-91445000D01*
X78200000Y-94295000D02*
X78000000Y-94295000D01*
X81000000Y-90155000D02*
X80800000Y-89945000D01*
X79700000Y-90155000D02*
X79900000Y-89945000D01*
X219492958Y-170685000D02*
X219492958Y-156715000D01*
X233462958Y-170685000D02*
X219492958Y-170685000D01*
X233462958Y-156715000D02*
X233462958Y-170685000D01*
X219492958Y-156715000D02*
X233462958Y-156715000D01*
D11*
X314032000Y-115962000D02*
X314032000Y-114438000D01*
X314540000Y-115962000D02*
X309460000Y-115962000D01*
X309460000Y-115962000D02*
X309460000Y-114438000D01*
X314540000Y-114438000D02*
X314540000Y-115962000D01*
X314286000Y-115962000D02*
X314286000Y-114438000D01*
X314159000Y-114438000D02*
X314159000Y-115962000D01*
X313905000Y-114438000D02*
X313905000Y-115962000D01*
X313778000Y-114438000D02*
X313778000Y-115962000D01*
X309460000Y-114438000D02*
X314540000Y-114438000D01*
X314413000Y-114438000D02*
X314413000Y-115962000D01*
X235215958Y-161160000D02*
X236739958Y-161160000D01*
X236739958Y-161414000D02*
X235215958Y-161414000D01*
X235215958Y-166240000D02*
X235215958Y-161160000D01*
X236739958Y-166240000D02*
X235215958Y-166240000D01*
X235215958Y-161795000D02*
X236739958Y-161795000D01*
X235215958Y-161287000D02*
X236739958Y-161287000D01*
X236739958Y-161668000D02*
X235215958Y-161668000D01*
X236739958Y-161160000D02*
X236739958Y-166240000D01*
X235215958Y-161922000D02*
X236739958Y-161922000D01*
X235215958Y-161541000D02*
X236739958Y-161541000D01*
X140215958Y-161287000D02*
X141739958Y-161287000D01*
X140215958Y-161160000D02*
X141739958Y-161160000D01*
X140215958Y-161541000D02*
X141739958Y-161541000D01*
X141739958Y-161160000D02*
X141739958Y-166240000D01*
X141739958Y-161414000D02*
X140215958Y-161414000D01*
X141739958Y-161668000D02*
X140215958Y-161668000D01*
X140215958Y-161795000D02*
X141739958Y-161795000D01*
X141739958Y-166240000D02*
X140215958Y-166240000D01*
X140215958Y-166240000D02*
X140215958Y-161160000D01*
X140215958Y-161922000D02*
X141739958Y-161922000D01*
X178215958Y-147240000D02*
X178215958Y-142160000D01*
X179739958Y-142160000D02*
X179739958Y-147240000D01*
X179739958Y-147240000D02*
X178215958Y-147240000D01*
X178215958Y-142541000D02*
X179739958Y-142541000D01*
X179739958Y-142414000D02*
X178215958Y-142414000D01*
X178215958Y-142160000D02*
X179739958Y-142160000D01*
X178215958Y-142795000D02*
X179739958Y-142795000D01*
X178215958Y-142287000D02*
X179739958Y-142287000D01*
X179739958Y-142668000D02*
X178215958Y-142668000D01*
X178215958Y-142922000D02*
X179739958Y-142922000D01*
X121215958Y-108740000D02*
X121215958Y-103660000D01*
X121215958Y-104295000D02*
X122739958Y-104295000D01*
X122739958Y-108740000D02*
X121215958Y-108740000D01*
X121215958Y-103787000D02*
X122739958Y-103787000D01*
X121215958Y-104041000D02*
X122739958Y-104041000D01*
X122739958Y-104168000D02*
X121215958Y-104168000D01*
X122739958Y-103660000D02*
X122739958Y-108740000D01*
X121215958Y-103660000D02*
X122739958Y-103660000D01*
X121215958Y-104422000D02*
X122739958Y-104422000D01*
X122739958Y-103914000D02*
X121215958Y-103914000D01*
X160739958Y-147240000D02*
X159215958Y-147240000D01*
X160739958Y-142414000D02*
X159215958Y-142414000D01*
X159215958Y-142795000D02*
X160739958Y-142795000D01*
X159215958Y-147240000D02*
X159215958Y-142160000D01*
X159215958Y-142287000D02*
X160739958Y-142287000D01*
X160739958Y-142160000D02*
X160739958Y-147240000D01*
X159215958Y-142160000D02*
X160739958Y-142160000D01*
X160739958Y-142668000D02*
X159215958Y-142668000D01*
X159215958Y-142541000D02*
X160739958Y-142541000D01*
X159215958Y-142922000D02*
X160739958Y-142922000D01*
X274739958Y-123668000D02*
X273215958Y-123668000D01*
X273215958Y-123795000D02*
X274739958Y-123795000D01*
X274739958Y-123414000D02*
X273215958Y-123414000D01*
X273215958Y-128240000D02*
X273215958Y-123160000D01*
X274739958Y-128240000D02*
X273215958Y-128240000D01*
X273215958Y-123541000D02*
X274739958Y-123541000D01*
X273215958Y-123160000D02*
X274739958Y-123160000D01*
X274739958Y-123160000D02*
X274739958Y-128240000D01*
X273215958Y-123922000D02*
X274739958Y-123922000D01*
X273215958Y-123287000D02*
X274739958Y-123287000D01*
X122739958Y-142414000D02*
X121215958Y-142414000D01*
X122739958Y-142160000D02*
X122739958Y-147240000D01*
X121215958Y-142160000D02*
X122739958Y-142160000D01*
X121215958Y-142922000D02*
X122739958Y-142922000D01*
X122739958Y-142668000D02*
X121215958Y-142668000D01*
X122739958Y-147240000D02*
X121215958Y-147240000D01*
X121215958Y-142287000D02*
X122739958Y-142287000D01*
X121215958Y-142541000D02*
X122739958Y-142541000D01*
X121215958Y-147240000D02*
X121215958Y-142160000D01*
X121215958Y-142795000D02*
X122739958Y-142795000D01*
X236739958Y-104168000D02*
X235215958Y-104168000D01*
X235215958Y-104295000D02*
X236739958Y-104295000D01*
X235215958Y-108740000D02*
X235215958Y-103660000D01*
X235215958Y-104422000D02*
X236739958Y-104422000D01*
X236739958Y-103914000D02*
X235215958Y-103914000D01*
X236739958Y-103660000D02*
X236739958Y-108740000D01*
X235215958Y-103660000D02*
X236739958Y-103660000D01*
X236739958Y-108740000D02*
X235215958Y-108740000D01*
X235215958Y-104041000D02*
X236739958Y-104041000D01*
X235215958Y-103787000D02*
X236739958Y-103787000D01*
X178215958Y-104295000D02*
X179739958Y-104295000D01*
X178215958Y-104422000D02*
X179739958Y-104422000D01*
X178215958Y-104041000D02*
X179739958Y-104041000D01*
X179739958Y-108740000D02*
X178215958Y-108740000D01*
X179739958Y-104168000D02*
X178215958Y-104168000D01*
X178215958Y-108740000D02*
X178215958Y-103660000D01*
X178215958Y-103787000D02*
X179739958Y-103787000D01*
X179739958Y-103914000D02*
X178215958Y-103914000D01*
X179739958Y-103660000D02*
X179739958Y-108740000D01*
X178215958Y-103660000D02*
X179739958Y-103660000D01*
X309460000Y-165938000D02*
X314540000Y-165938000D01*
X314032000Y-167462000D02*
X314032000Y-165938000D01*
X313905000Y-165938000D02*
X313905000Y-167462000D01*
X314286000Y-167462000D02*
X314286000Y-165938000D01*
X314540000Y-165938000D02*
X314540000Y-167462000D01*
X314413000Y-165938000D02*
X314413000Y-167462000D01*
X314540000Y-167462000D02*
X309460000Y-167462000D01*
X313778000Y-165938000D02*
X313778000Y-167462000D01*
X314159000Y-165938000D02*
X314159000Y-167462000D01*
X309460000Y-167462000D02*
X309460000Y-165938000D01*
X254215958Y-142160000D02*
X255739958Y-142160000D01*
X254215958Y-147240000D02*
X254215958Y-142160000D01*
X254215958Y-142795000D02*
X255739958Y-142795000D01*
X254215958Y-142287000D02*
X255739958Y-142287000D01*
X255739958Y-142160000D02*
X255739958Y-147240000D01*
X255739958Y-142668000D02*
X254215958Y-142668000D01*
X255739958Y-142414000D02*
X254215958Y-142414000D01*
X254215958Y-142541000D02*
X255739958Y-142541000D01*
X254215958Y-142922000D02*
X255739958Y-142922000D01*
X255739958Y-147240000D02*
X254215958Y-147240000D01*
X140215958Y-123160000D02*
X141739958Y-123160000D01*
X141739958Y-123414000D02*
X140215958Y-123414000D01*
X141739958Y-128240000D02*
X140215958Y-128240000D01*
X140215958Y-123541000D02*
X141739958Y-123541000D01*
X141739958Y-123668000D02*
X140215958Y-123668000D01*
X140215958Y-123922000D02*
X141739958Y-123922000D01*
X140215958Y-123287000D02*
X141739958Y-123287000D01*
X141739958Y-123160000D02*
X141739958Y-128240000D01*
X140215958Y-128240000D02*
X140215958Y-123160000D01*
X140215958Y-123795000D02*
X141739958Y-123795000D01*
X160739958Y-166240000D02*
X159215958Y-166240000D01*
X160739958Y-161160000D02*
X160739958Y-166240000D01*
X159215958Y-161541000D02*
X160739958Y-161541000D01*
X159215958Y-161795000D02*
X160739958Y-161795000D01*
X160739958Y-161414000D02*
X159215958Y-161414000D01*
X160739958Y-161668000D02*
X159215958Y-161668000D01*
X159215958Y-161287000D02*
X160739958Y-161287000D01*
X159215958Y-161922000D02*
X160739958Y-161922000D01*
X159215958Y-161160000D02*
X160739958Y-161160000D01*
X159215958Y-166240000D02*
X159215958Y-161160000D01*
X121215958Y-166240000D02*
X121215958Y-161160000D01*
X121215958Y-161287000D02*
X122739958Y-161287000D01*
X121215958Y-161795000D02*
X122739958Y-161795000D01*
X121215958Y-161922000D02*
X122739958Y-161922000D01*
X122739958Y-166240000D02*
X121215958Y-166240000D01*
X122739958Y-161668000D02*
X121215958Y-161668000D01*
X121215958Y-161160000D02*
X122739958Y-161160000D01*
X121215958Y-161541000D02*
X122739958Y-161541000D01*
X122739958Y-161160000D02*
X122739958Y-166240000D01*
X122739958Y-161414000D02*
X121215958Y-161414000D01*
X274739958Y-161160000D02*
X274739958Y-166240000D01*
X273215958Y-161922000D02*
X274739958Y-161922000D01*
X273215958Y-161287000D02*
X274739958Y-161287000D01*
X273215958Y-161795000D02*
X274739958Y-161795000D01*
X273215958Y-161160000D02*
X274739958Y-161160000D01*
X274739958Y-161414000D02*
X273215958Y-161414000D01*
X273215958Y-161541000D02*
X274739958Y-161541000D01*
X274739958Y-166240000D02*
X273215958Y-166240000D01*
X273215958Y-166240000D02*
X273215958Y-161160000D01*
X274739958Y-161668000D02*
X273215958Y-161668000D01*
X178215958Y-161160000D02*
X179739958Y-161160000D01*
X179739958Y-166240000D02*
X178215958Y-166240000D01*
X178215958Y-161922000D02*
X179739958Y-161922000D01*
X179739958Y-161160000D02*
X179739958Y-166240000D01*
X178215958Y-161541000D02*
X179739958Y-161541000D01*
X179739958Y-161414000D02*
X178215958Y-161414000D01*
X178215958Y-166240000D02*
X178215958Y-161160000D01*
X178215958Y-161795000D02*
X179739958Y-161795000D01*
X178215958Y-161287000D02*
X179739958Y-161287000D01*
X179739958Y-161668000D02*
X178215958Y-161668000D01*
X141739958Y-147240000D02*
X140215958Y-147240000D01*
X140215958Y-147240000D02*
X140215958Y-142160000D01*
X140215958Y-142287000D02*
X141739958Y-142287000D01*
X140215958Y-142541000D02*
X141739958Y-142541000D01*
X140215958Y-142160000D02*
X141739958Y-142160000D01*
X141739958Y-142160000D02*
X141739958Y-147240000D01*
X140215958Y-142922000D02*
X141739958Y-142922000D01*
X141739958Y-142414000D02*
X140215958Y-142414000D01*
X140215958Y-142795000D02*
X141739958Y-142795000D01*
X141739958Y-142668000D02*
X140215958Y-142668000D01*
D13*
X88390000Y-121340000D02*
X70610000Y-121340000D01*
X85850000Y-93400000D02*
X88390000Y-93400000D01*
X88390000Y-90860000D02*
X88390000Y-121340000D01*
X70610000Y-121340000D02*
X70610000Y-90860000D01*
X70610000Y-90860000D02*
X88390000Y-90860000D01*
X85850000Y-90860000D02*
X85850000Y-93400000D01*
D11*
X254215958Y-103660000D02*
X255739958Y-103660000D01*
X255739958Y-103914000D02*
X254215958Y-103914000D01*
X254215958Y-104422000D02*
X255739958Y-104422000D01*
X255739958Y-103660000D02*
X255739958Y-108740000D01*
X255739958Y-104168000D02*
X254215958Y-104168000D01*
X254215958Y-104041000D02*
X255739958Y-104041000D01*
X254215958Y-108740000D02*
X254215958Y-103660000D01*
X254215958Y-104295000D02*
X255739958Y-104295000D01*
X255739958Y-108740000D02*
X254215958Y-108740000D01*
X254215958Y-103787000D02*
X255739958Y-103787000D01*
X235215958Y-123541000D02*
X236739958Y-123541000D01*
X235215958Y-123160000D02*
X236739958Y-123160000D01*
X235215958Y-123795000D02*
X236739958Y-123795000D01*
X235215958Y-128240000D02*
X235215958Y-123160000D01*
X236739958Y-123414000D02*
X235215958Y-123414000D01*
X236739958Y-123160000D02*
X236739958Y-128240000D01*
X236739958Y-128240000D02*
X235215958Y-128240000D01*
X235215958Y-123922000D02*
X236739958Y-123922000D01*
X236739958Y-123668000D02*
X235215958Y-123668000D01*
X235215958Y-123287000D02*
X236739958Y-123287000D01*
X122739958Y-123260000D02*
X122739958Y-128340000D01*
X121215958Y-123641000D02*
X122739958Y-123641000D01*
X122739958Y-123768000D02*
X121215958Y-123768000D01*
X122739958Y-123514000D02*
X121215958Y-123514000D01*
X122739958Y-128340000D02*
X121215958Y-128340000D01*
X121215958Y-128340000D02*
X121215958Y-123260000D01*
X121215958Y-123260000D02*
X122739958Y-123260000D01*
X121215958Y-123895000D02*
X122739958Y-123895000D01*
X121215958Y-123387000D02*
X122739958Y-123387000D01*
X121215958Y-124022000D02*
X122739958Y-124022000D01*
X159215958Y-104041000D02*
X160739958Y-104041000D01*
X159215958Y-103660000D02*
X160739958Y-103660000D01*
X160739958Y-103914000D02*
X159215958Y-103914000D01*
X160739958Y-108740000D02*
X159215958Y-108740000D01*
X160739958Y-103660000D02*
X160739958Y-108740000D01*
X159215958Y-103787000D02*
X160739958Y-103787000D01*
X160739958Y-104168000D02*
X159215958Y-104168000D01*
X159215958Y-104422000D02*
X160739958Y-104422000D01*
X159215958Y-104295000D02*
X160739958Y-104295000D01*
X159215958Y-108740000D02*
X159215958Y-103660000D01*
X273238000Y-108740000D02*
X273238000Y-103660000D01*
X274762000Y-108740000D02*
X273238000Y-108740000D01*
X274762000Y-104168000D02*
X273238000Y-104168000D01*
X273238000Y-104295000D02*
X274762000Y-104295000D01*
X273238000Y-104041000D02*
X274762000Y-104041000D01*
X273238000Y-104422000D02*
X274762000Y-104422000D01*
X273238000Y-103660000D02*
X274762000Y-103660000D01*
X273238000Y-103787000D02*
X274762000Y-103787000D01*
X274762000Y-103660000D02*
X274762000Y-108740000D01*
X274762000Y-103914000D02*
X273238000Y-103914000D01*
X206715958Y-161160000D02*
X208239958Y-161160000D01*
X206715958Y-161922000D02*
X208239958Y-161922000D01*
X208239958Y-161668000D02*
X206715958Y-161668000D01*
X206715958Y-161287000D02*
X208239958Y-161287000D01*
X206715958Y-166240000D02*
X206715958Y-161160000D01*
X208239958Y-166240000D02*
X206715958Y-166240000D01*
X208239958Y-161414000D02*
X206715958Y-161414000D01*
X208239958Y-161160000D02*
X208239958Y-166240000D01*
X206715958Y-161795000D02*
X208239958Y-161795000D01*
X206715958Y-161541000D02*
X208239958Y-161541000D01*
X178215958Y-128240000D02*
X178215958Y-123160000D01*
X179739958Y-123414000D02*
X178215958Y-123414000D01*
X179739958Y-128240000D02*
X178215958Y-128240000D01*
X178215958Y-123541000D02*
X179739958Y-123541000D01*
X178215958Y-123287000D02*
X179739958Y-123287000D01*
X178215958Y-123922000D02*
X179739958Y-123922000D01*
X179739958Y-123668000D02*
X178215958Y-123668000D01*
X178215958Y-123795000D02*
X179739958Y-123795000D01*
X178215958Y-123160000D02*
X179739958Y-123160000D01*
X179739958Y-123160000D02*
X179739958Y-128240000D01*
X160739958Y-123160000D02*
X160739958Y-128240000D01*
X160739958Y-123668000D02*
X159215958Y-123668000D01*
X160739958Y-123414000D02*
X159215958Y-123414000D01*
X159215958Y-123287000D02*
X160739958Y-123287000D01*
X159215958Y-123541000D02*
X160739958Y-123541000D01*
X159215958Y-123795000D02*
X160739958Y-123795000D01*
X159215958Y-128240000D02*
X159215958Y-123160000D01*
X159215958Y-123922000D02*
X160739958Y-123922000D01*
X159215958Y-123160000D02*
X160739958Y-123160000D01*
X160739958Y-128240000D02*
X159215958Y-128240000D01*
X254215958Y-161895000D02*
X255739958Y-161895000D01*
X254215958Y-161260000D02*
X255739958Y-161260000D01*
X255739958Y-166340000D02*
X254215958Y-166340000D01*
X255739958Y-161768000D02*
X254215958Y-161768000D01*
X255739958Y-161260000D02*
X255739958Y-166340000D01*
X254215958Y-162022000D02*
X255739958Y-162022000D01*
X254215958Y-161641000D02*
X255739958Y-161641000D01*
X255739958Y-161514000D02*
X254215958Y-161514000D01*
X254215958Y-166340000D02*
X254215958Y-161260000D01*
X254215958Y-161387000D02*
X255739958Y-161387000D01*
X255739958Y-123414000D02*
X254215958Y-123414000D01*
X254215958Y-123160000D02*
X255739958Y-123160000D01*
X255739958Y-123668000D02*
X254215958Y-123668000D01*
X254215958Y-123541000D02*
X255739958Y-123541000D01*
X254215958Y-128240000D02*
X254215958Y-123160000D01*
X255739958Y-123160000D02*
X255739958Y-128240000D01*
X255739958Y-128240000D02*
X254215958Y-128240000D01*
X254215958Y-123795000D02*
X255739958Y-123795000D01*
X254215958Y-123922000D02*
X255739958Y-123922000D01*
X254215958Y-123287000D02*
X255739958Y-123287000D01*
X140238000Y-104422000D02*
X141762000Y-104422000D01*
X140238000Y-108740000D02*
X140238000Y-103660000D01*
X141762000Y-108740000D02*
X140238000Y-108740000D01*
X140238000Y-103660000D02*
X141762000Y-103660000D01*
X141762000Y-103660000D02*
X141762000Y-108740000D01*
X140238000Y-104295000D02*
X141762000Y-104295000D01*
X140238000Y-104041000D02*
X141762000Y-104041000D01*
X140238000Y-103787000D02*
X141762000Y-103787000D01*
X141762000Y-103914000D02*
X140238000Y-103914000D01*
X141762000Y-104168000D02*
X140238000Y-104168000D01*
D14*
X87120000Y-92130000D03*
D15*
X87120000Y-94670000D03*
X87120000Y-97210000D03*
X87120000Y-99750000D03*
X87120000Y-102290000D03*
X87120000Y-104830000D03*
X87120000Y-107370000D03*
X87120000Y-109910000D03*
X87120000Y-112450000D03*
X87120000Y-114990000D03*
X87120000Y-117530000D03*
X87120000Y-120070000D03*
X71880000Y-120070000D03*
X71880000Y-117530000D03*
X71880000Y-114990000D03*
X71880000Y-112450000D03*
X71880000Y-109910000D03*
X71880000Y-107370000D03*
X71880000Y-104830000D03*
X71880000Y-102290000D03*
X71880000Y-99750000D03*
X71880000Y-97210000D03*
X71880000Y-94670000D03*
X71880000Y-92130000D03*
%LPC*%
D16*
X145397958Y-125700000D03*
D17*
X150477958Y-125700000D03*
D16*
X155557958Y-125700000D03*
D18*
X153017958Y-120620000D03*
X146667958Y-123160000D03*
D17*
X112477958Y-125700000D03*
D16*
X107397958Y-125700000D03*
X117557958Y-125700000D03*
D18*
X115017958Y-120620000D03*
X108667958Y-123160000D03*
D19*
X312000000Y-152600000D03*
X312000000Y-163800000D03*
D20*
X304500000Y-155700000D03*
D21*
X304500000Y-160700000D03*
X304500000Y-158200000D03*
X319000000Y-160700000D03*
X319000000Y-155700000D03*
D16*
X126397958Y-106700000D03*
D17*
X131477958Y-106700000D03*
D16*
X136557958Y-106700000D03*
D18*
X134017958Y-101620000D03*
X127667958Y-104160000D03*
D16*
X164397958Y-106700000D03*
D17*
X169477958Y-106700000D03*
D16*
X174557958Y-106700000D03*
D18*
X172017958Y-101620000D03*
X165667958Y-104160000D03*
D22*
X252500000Y-173500000D03*
X322047959Y-116202042D03*
D16*
X174557958Y-163700000D03*
X164397958Y-163700000D03*
D17*
X169477958Y-163700000D03*
D18*
X172017958Y-158620000D03*
X165667958Y-161160000D03*
D16*
X145397958Y-163700000D03*
X155557958Y-163700000D03*
D17*
X150477958Y-163700000D03*
D18*
X153017958Y-158620000D03*
X146667958Y-161160000D03*
D17*
X150477958Y-144700000D03*
D16*
X145397958Y-144700000D03*
X155557958Y-144700000D03*
D18*
X153017958Y-139620000D03*
X146667958Y-142160000D03*
D16*
X145397958Y-106700000D03*
D17*
X150477958Y-106700000D03*
D16*
X155557958Y-106700000D03*
D18*
X153017958Y-101620000D03*
X146667958Y-104160000D03*
D17*
X112477958Y-163700000D03*
D16*
X107397958Y-163700000D03*
X117557958Y-163700000D03*
D18*
X115017958Y-158620000D03*
X108667958Y-161160000D03*
D16*
X174557958Y-125700000D03*
D17*
X169477958Y-125700000D03*
D16*
X164397958Y-125700000D03*
D18*
X172017958Y-120620000D03*
X165667958Y-123160000D03*
D17*
X169477958Y-144700000D03*
D16*
X174557958Y-144700000D03*
X164397958Y-144700000D03*
D18*
X172017958Y-139620000D03*
X165667958Y-142160000D03*
D16*
X126397958Y-144700000D03*
D17*
X131477958Y-144700000D03*
D16*
X136557958Y-144700000D03*
D18*
X134017958Y-139620000D03*
X127667958Y-142160000D03*
D17*
X264477958Y-163700000D03*
D16*
X269557958Y-163700000D03*
X259397958Y-163700000D03*
D18*
X267017958Y-158620000D03*
X260667958Y-161160000D03*
D16*
X231557958Y-106700000D03*
D17*
X226477958Y-106700000D03*
D16*
X221397958Y-106700000D03*
D18*
X229017958Y-101620000D03*
X222667958Y-104160000D03*
D16*
X107397958Y-144700000D03*
X117557958Y-144700000D03*
D17*
X112477958Y-144700000D03*
D18*
X115017958Y-139620000D03*
X108667958Y-142160000D03*
D23*
X344100000Y-144802042D03*
X64900000Y-144800000D03*
D17*
X264477958Y-125700000D03*
D16*
X259397958Y-125700000D03*
X269557958Y-125700000D03*
D18*
X267017958Y-120620000D03*
X260667958Y-123160000D03*
D16*
X250557958Y-163700000D03*
X240397958Y-163700000D03*
D17*
X245477958Y-163700000D03*
D18*
X248017958Y-158620000D03*
X241667958Y-161160000D03*
D16*
X240397958Y-144700000D03*
X250557958Y-144700000D03*
D17*
X245477958Y-144700000D03*
D18*
X248017958Y-139620000D03*
X241667958Y-142160000D03*
D16*
X250557958Y-106700000D03*
D17*
X245477958Y-106700000D03*
D16*
X240397958Y-106700000D03*
D18*
X248017958Y-101620000D03*
X241667958Y-104160000D03*
D19*
X312000000Y-112300000D03*
X312000000Y-101100000D03*
D20*
X304500000Y-104200000D03*
D21*
X304500000Y-109200000D03*
X304500000Y-106700000D03*
X319000000Y-109200000D03*
X319000000Y-104200000D03*
D17*
X264477958Y-106700000D03*
D16*
X269557958Y-106700000D03*
X259397958Y-106700000D03*
D18*
X267017958Y-101620000D03*
X260667958Y-104160000D03*
D16*
X192897958Y-163700000D03*
D17*
X197977958Y-163700000D03*
D16*
X203057958Y-163700000D03*
D18*
X200517958Y-158620000D03*
X194167958Y-161160000D03*
D16*
X126397958Y-163700000D03*
D17*
X131477958Y-163700000D03*
D16*
X136557958Y-163700000D03*
D18*
X134017958Y-158620000D03*
X127667958Y-161160000D03*
D16*
X126397958Y-125700000D03*
D17*
X131477958Y-125700000D03*
D16*
X136557958Y-125700000D03*
D18*
X134017958Y-120620000D03*
X127667958Y-123160000D03*
D16*
X231557958Y-125700000D03*
X221397958Y-125700000D03*
D17*
X226477958Y-125700000D03*
D18*
X229017958Y-120620000D03*
X222667958Y-123160000D03*
D16*
X107397958Y-106700000D03*
D17*
X112477958Y-106700000D03*
D16*
X117557958Y-106700000D03*
D18*
X115017958Y-101620000D03*
X108667958Y-104160000D03*
D22*
X190200000Y-135200000D03*
D16*
X250557958Y-125700000D03*
D17*
X245477958Y-125700000D03*
D16*
X240397958Y-125700000D03*
D18*
X248017958Y-120620000D03*
X241667958Y-123160000D03*
D24*
X81100000Y-92845000D03*
D25*
X83250000Y-91745000D03*
D24*
X78100000Y-92845000D03*
D25*
X75950000Y-93955000D03*
X75950000Y-91745000D03*
X83250000Y-93955000D03*
D26*
X81850000Y-94605000D03*
X78850000Y-94605000D03*
X77350000Y-94605000D03*
D16*
X221397958Y-163700000D03*
X231557958Y-163700000D03*
D17*
X226477958Y-163700000D03*
D18*
X229017958Y-158620000D03*
X222667958Y-161160000D03*
D27*
X313400000Y-115200000D03*
D28*
X315900000Y-115200000D03*
D27*
X310600000Y-115200000D03*
D29*
X308100000Y-115200000D03*
D30*
X235977958Y-162300000D03*
D28*
X235977958Y-159800000D03*
D30*
X235977958Y-165100000D03*
D29*
X235977958Y-167600000D03*
D30*
X140977958Y-162300000D03*
D28*
X140977958Y-159800000D03*
D29*
X140977958Y-167600000D03*
D30*
X140977958Y-165100000D03*
D28*
X178977958Y-140800000D03*
D30*
X178977958Y-143300000D03*
D29*
X178977958Y-148600000D03*
D30*
X178977958Y-146100000D03*
X121977958Y-104800000D03*
D28*
X121977958Y-102300000D03*
D29*
X121977958Y-110100000D03*
D30*
X121977958Y-107600000D03*
D28*
X159977958Y-140800000D03*
D30*
X159977958Y-143300000D03*
D29*
X159977958Y-148600000D03*
D30*
X159977958Y-146100000D03*
X273977958Y-124300000D03*
D28*
X273977958Y-121800000D03*
D30*
X273977958Y-127100000D03*
D29*
X273977958Y-129600000D03*
D30*
X121977958Y-143300000D03*
D28*
X121977958Y-140800000D03*
D30*
X121977958Y-146100000D03*
D29*
X121977958Y-148600000D03*
D30*
X235977958Y-104800000D03*
D28*
X235977958Y-102300000D03*
D29*
X235977958Y-110100000D03*
D30*
X235977958Y-107600000D03*
X178977958Y-104800000D03*
D28*
X178977958Y-102300000D03*
D30*
X178977958Y-107600000D03*
D29*
X178977958Y-110100000D03*
D27*
X313400000Y-166700000D03*
D28*
X315900000Y-166700000D03*
D29*
X308100000Y-166700000D03*
D27*
X310600000Y-166700000D03*
D28*
X254977958Y-140800000D03*
D30*
X254977958Y-143300000D03*
D29*
X254977958Y-148600000D03*
D30*
X254977958Y-146100000D03*
D28*
X140977958Y-121800000D03*
D30*
X140977958Y-124300000D03*
X140977958Y-127100000D03*
D29*
X140977958Y-129600000D03*
D28*
X159977958Y-159800000D03*
D30*
X159977958Y-162300000D03*
D29*
X159977958Y-167600000D03*
D30*
X159977958Y-165100000D03*
X121977958Y-162300000D03*
D28*
X121977958Y-159800000D03*
D29*
X121977958Y-167600000D03*
D30*
X121977958Y-165100000D03*
D28*
X273977958Y-159800000D03*
D30*
X273977958Y-162300000D03*
D29*
X273977958Y-167600000D03*
D30*
X273977958Y-165100000D03*
D28*
X178977958Y-159800000D03*
D30*
X178977958Y-162300000D03*
X178977958Y-165100000D03*
D29*
X178977958Y-167600000D03*
D30*
X140977958Y-143300000D03*
D28*
X140977958Y-140800000D03*
D29*
X140977958Y-148600000D03*
D30*
X140977958Y-146100000D03*
D14*
X87120000Y-92130000D03*
D15*
X87120000Y-94670000D03*
X87120000Y-97210000D03*
X87120000Y-99750000D03*
X87120000Y-102290000D03*
X87120000Y-104830000D03*
X87120000Y-107370000D03*
X87120000Y-109910000D03*
X87120000Y-112450000D03*
X87120000Y-114990000D03*
X87120000Y-117530000D03*
X87120000Y-120070000D03*
X71880000Y-120070000D03*
X71880000Y-117530000D03*
X71880000Y-114990000D03*
X71880000Y-112450000D03*
X71880000Y-109910000D03*
X71880000Y-107370000D03*
X71880000Y-104830000D03*
X71880000Y-102290000D03*
X71880000Y-99750000D03*
X71880000Y-97210000D03*
X71880000Y-94670000D03*
X71880000Y-92130000D03*
D28*
X254977958Y-102300000D03*
D30*
X254977958Y-104800000D03*
D29*
X254977958Y-110100000D03*
D30*
X254977958Y-107600000D03*
D28*
X235977958Y-121800000D03*
D30*
X235977958Y-124300000D03*
D29*
X235977958Y-129600000D03*
D30*
X235977958Y-127100000D03*
X121977958Y-124400000D03*
D28*
X121977958Y-121900000D03*
D29*
X121977958Y-129700000D03*
D30*
X121977958Y-127200000D03*
X159977958Y-104800000D03*
D28*
X159977958Y-102300000D03*
D30*
X159977958Y-107600000D03*
D29*
X159977958Y-110100000D03*
D28*
X274000000Y-102300000D03*
D30*
X274000000Y-104800000D03*
D29*
X274000000Y-110100000D03*
D30*
X274000000Y-107600000D03*
X207477958Y-162300000D03*
D28*
X207477958Y-159800000D03*
D30*
X207477958Y-165100000D03*
D29*
X207477958Y-167600000D03*
D28*
X178977958Y-121800000D03*
D30*
X178977958Y-124300000D03*
D29*
X178977958Y-129600000D03*
D30*
X178977958Y-127100000D03*
X159977958Y-124300000D03*
D28*
X159977958Y-121800000D03*
D30*
X159977958Y-127100000D03*
D29*
X159977958Y-129600000D03*
D30*
X254977958Y-162400000D03*
D28*
X254977958Y-159900000D03*
D29*
X254977958Y-167700000D03*
D30*
X254977958Y-165200000D03*
X254977958Y-124300000D03*
D28*
X254977958Y-121800000D03*
D30*
X254977958Y-127100000D03*
D29*
X254977958Y-129600000D03*
D30*
X141000000Y-104800000D03*
D28*
X141000000Y-102300000D03*
D29*
X141000000Y-110100000D03*
D30*
X141000000Y-107600000D03*
M02*
