G04 #@! TF.GenerationSoftware,KiCad,Pcbnew,(6.0.7-1)-1*
G04 #@! TF.CreationDate,2022-09-15T21:20:34+02:00*
G04 #@! TF.ProjectId,yts-pcb,7974732d-7063-4622-9e6b-696361645f70,rev?*
G04 #@! TF.SameCoordinates,Original*
G04 #@! TF.FileFunction,Paste,Top*
G04 #@! TF.FilePolarity,Positive*
%FSLAX46Y46*%
G04 Gerber Fmt 4.6, Leading zero omitted, Abs format (unit mm)*
G04 Created by KiCad (PCBNEW (6.0.7-1)-1) date 2022-09-15 21:20:34*
%MOMM*%
%LPD*%
G01*
G04 APERTURE LIST*
G04 Aperture macros list*
%AMRoundRect*
0 Rectangle with rounded corners*
0 $1 Rounding radius*
0 $2 $3 $4 $5 $6 $7 $8 $9 X,Y pos of 4 corners*
0 Add a 4 corners polygon primitive as box body*
4,1,4,$2,$3,$4,$5,$6,$7,$8,$9,$2,$3,0*
0 Add four circle primitives for the rounded corners*
1,1,$1+$1,$2,$3*
1,1,$1+$1,$4,$5*
1,1,$1+$1,$6,$7*
1,1,$1+$1,$8,$9*
0 Add four rect primitives between the rounded corners*
20,1,$1+$1,$2,$3,$4,$5,0*
20,1,$1+$1,$4,$5,$6,$7,0*
20,1,$1+$1,$6,$7,$8,$9,0*
20,1,$1+$1,$8,$9,$2,$3,0*%
G04 Aperture macros list end*
%ADD10RoundRect,0.250000X-0.250000X-0.750000X0.250000X-0.750000X0.250000X0.750000X-0.250000X0.750000X0*%
%ADD11R,0.700000X1.500000*%
%ADD12R,1.000000X0.800000*%
%ADD13R,1.600000X1.200000*%
%ADD14R,1.200000X1.600000*%
G04 APERTURE END LIST*
D10*
X209977958Y-106200000D03*
X205477958Y-106200000D03*
D11*
X205727958Y-99630000D03*
X207227958Y-99630000D03*
X210227958Y-99630000D03*
D12*
X211627958Y-96770000D03*
X211627958Y-98980000D03*
X204327958Y-96770000D03*
X204327958Y-98980000D03*
D13*
X300677958Y-115200000D03*
X303477958Y-115200000D03*
D14*
X235977958Y-165100000D03*
X235977958Y-162300000D03*
X140977958Y-165100000D03*
X140977958Y-162300000D03*
X178977958Y-146100000D03*
X178977958Y-143300000D03*
X121977958Y-108000000D03*
X121977958Y-105200000D03*
X159977958Y-146100000D03*
X159977958Y-143300000D03*
X273977958Y-127100000D03*
X273977958Y-124300000D03*
X121977958Y-146100000D03*
X121977958Y-143300000D03*
X235977958Y-107600000D03*
X235977958Y-104800000D03*
X178977958Y-107600000D03*
X178977958Y-104800000D03*
D13*
X300977958Y-166700000D03*
X303777958Y-166700000D03*
D14*
X254977958Y-146100000D03*
X254977958Y-143300000D03*
X140977958Y-127100000D03*
X140977958Y-124300000D03*
X159977958Y-165100000D03*
X159977958Y-162300000D03*
X121977958Y-165100000D03*
X121977958Y-162300000D03*
X273977958Y-165100000D03*
X273977958Y-162300000D03*
X178977958Y-165100000D03*
X178977958Y-162300000D03*
X140977958Y-146100000D03*
X140977958Y-143300000D03*
X254977958Y-107600000D03*
X254977958Y-104800000D03*
X235977958Y-127100000D03*
X235977958Y-124300000D03*
X121977958Y-127200000D03*
X121977958Y-124400000D03*
X159977958Y-107600000D03*
X159977958Y-104800000D03*
X273977958Y-107600000D03*
X273977958Y-104800000D03*
X207477958Y-165100000D03*
X207477958Y-162300000D03*
X178977958Y-127100000D03*
X178977958Y-124300000D03*
X159977958Y-127100000D03*
X159977958Y-124300000D03*
X254977958Y-165200000D03*
X254977958Y-162400000D03*
X254977958Y-127100000D03*
X254977958Y-124300000D03*
X140977958Y-108000000D03*
X140977958Y-105200000D03*
M02*
