M48
; DRILL file {KiCad (6.0.7-1)-1} date 2022 September 15, Thursday 21:20:57
; FORMAT={-:-/ absolute / metric / decimal}
; #@! TF.CreationDate,2022-09-15T21:20:57+02:00
; #@! TF.GenerationSoftware,Kicad,Pcbnew,(6.0.7-1)-1
; #@! TF.FileFunction,Plated,1,2,PTH
FMAT,2
METRIC
; #@! TA.AperFunction,Plated,PTH,ViaDrill
T1C0.400
; #@! TA.AperFunction,Plated,PTH,ComponentDrill
T2C1.000
; #@! TA.AperFunction,Plated,PTH,ComponentDrill
T3C1.092
; #@! TA.AperFunction,Plated,PTH,ComponentDrill
T4C1.500
; #@! TA.AperFunction,Plated,PTH,ComponentDrill
T5C2.200
%
G90
G05
T1
X183.478Y-139.2
X183.478Y-148.2
X190.478Y-104.2
X193.978Y-122.2
X196.978Y-129.2
X205.178Y-101.9
X209.678Y-101.9
X216.978Y-131.2
X219.478Y-116.2
X271.478Y-136.975
X273.978Y-114.2
X273.978Y-116.2
X279.478Y-114.2
T2
X121.978Y-102.7
X121.978Y-110.5
X121.978Y-121.9
X121.978Y-129.7
X121.978Y-140.8
X121.978Y-148.6
X121.978Y-159.8
X121.978Y-167.6
X140.978Y-102.7
X140.978Y-110.5
X140.978Y-121.8
X140.978Y-129.6
X140.978Y-140.8
X140.978Y-148.6
X140.978Y-159.8
X140.978Y-167.6
X159.978Y-102.3
X159.978Y-110.1
X159.978Y-121.8
X159.978Y-129.6
X159.978Y-140.8
X159.978Y-148.6
X159.978Y-159.8
X159.978Y-167.6
X178.978Y-102.3
X178.978Y-110.1
X178.978Y-121.8
X178.978Y-129.6
X178.978Y-140.8
X178.978Y-148.6
X178.978Y-159.8
X178.978Y-167.6
X207.478Y-159.8
X207.478Y-167.6
X235.978Y-102.3
X235.978Y-110.1
X235.978Y-121.8
X235.978Y-129.6
X235.978Y-159.8
X235.978Y-167.6
X254.978Y-102.3
X254.978Y-110.1
X254.978Y-121.8
X254.978Y-129.6
X254.978Y-140.8
X254.978Y-148.6
X254.978Y-159.9
X254.978Y-167.7
X273.978Y-102.3
X273.978Y-110.1
X273.978Y-121.8
X273.978Y-129.6
X273.978Y-159.8
X273.978Y-167.6
X294.978Y-104.2
X294.978Y-106.7
X294.978Y-109.2
X294.978Y-155.7
X294.978Y-158.2
X294.978Y-160.7
X298.178Y-115.2
X298.478Y-166.7
X305.978Y-115.2
X306.278Y-166.7
X309.478Y-104.2
X309.478Y-109.2
X309.478Y-155.7
X309.478Y-160.7
T3
X183.358Y-97.73
X183.358Y-100.27
X183.358Y-102.81
X183.358Y-105.35
X183.358Y-107.89
X183.358Y-110.43
X183.358Y-112.97
X183.358Y-115.51
X183.358Y-118.05
X183.358Y-120.59
X183.358Y-123.13
X183.358Y-125.67
X198.598Y-97.73
X198.598Y-100.27
X198.598Y-102.81
X198.598Y-105.35
X198.598Y-107.89
X198.598Y-110.43
X198.598Y-112.97
X198.598Y-115.51
X198.598Y-118.05
X198.598Y-120.59
X198.598Y-123.13
X198.598Y-125.67
T4
X108.668Y-104.16
X108.668Y-123.16
X108.668Y-142.16
X108.668Y-161.16
X115.018Y-101.62
X115.018Y-120.62
X115.018Y-139.62
X115.018Y-158.62
X127.668Y-104.16
X127.668Y-123.16
X127.668Y-142.16
X127.668Y-161.16
X134.018Y-101.62
X134.018Y-120.62
X134.018Y-139.62
X134.018Y-158.62
X146.668Y-104.16
X146.668Y-123.16
X146.668Y-142.16
X146.668Y-161.16
X153.018Y-101.62
X153.018Y-120.62
X153.018Y-139.62
X153.018Y-158.62
X165.668Y-104.16
X165.668Y-123.16
X165.668Y-142.16
X165.668Y-161.16
X172.018Y-101.62
X172.018Y-120.62
X172.018Y-139.62
X172.018Y-158.62
X194.168Y-161.16
X200.518Y-158.62
X222.668Y-104.16
X222.668Y-123.16
X222.668Y-161.16
X229.018Y-101.62
X229.018Y-120.62
X229.018Y-158.62
X241.668Y-104.16
X241.668Y-123.16
X241.668Y-142.16
X241.668Y-161.16
X248.018Y-101.62
X248.018Y-120.62
X248.018Y-139.62
X248.018Y-158.62
X260.668Y-104.16
X260.668Y-123.16
X260.668Y-161.16
X267.018Y-101.62
X267.018Y-120.62
X267.018Y-158.62
T5
X65.998Y-144.802
X87.198Y-116.202
X322.048Y-116.202
X342.998Y-144.802
T0
M30
