G04 #@! TF.GenerationSoftware,KiCad,Pcbnew,(6.0.7-1)-1*
G04 #@! TF.CreationDate,2022-09-15T21:20:34+02:00*
G04 #@! TF.ProjectId,yts-pcb,7974732d-7063-4622-9e6b-696361645f70,rev?*
G04 #@! TF.SameCoordinates,Original*
G04 #@! TF.FileFunction,Legend,Top*
G04 #@! TF.FilePolarity,Positive*
%FSLAX46Y46*%
G04 Gerber Fmt 4.6, Leading zero omitted, Abs format (unit mm)*
G04 Created by KiCad (PCBNEW (6.0.7-1)-1) date 2022-09-15 21:20:34*
%MOMM*%
%LPD*%
G01*
G04 APERTURE LIST*
G04 Aperture macros list*
%AMRoundRect*
0 Rectangle with rounded corners*
0 $1 Rounding radius*
0 $2 $3 $4 $5 $6 $7 $8 $9 X,Y pos of 4 corners*
0 Add a 4 corners polygon primitive as box body*
4,1,4,$2,$3,$4,$5,$6,$7,$8,$9,$2,$3,0*
0 Add four circle primitives for the rounded corners*
1,1,$1+$1,$2,$3*
1,1,$1+$1,$4,$5*
1,1,$1+$1,$6,$7*
1,1,$1+$1,$8,$9*
0 Add four rect primitives between the rounded corners*
20,1,$1+$1,$2,$3,$4,$5,0*
20,1,$1+$1,$4,$5,$6,$7,0*
20,1,$1+$1,$6,$7,$8,$9,0*
20,1,$1+$1,$8,$9,$2,$3,0*%
G04 Aperture macros list end*
%ADD10C,0.300000*%
%ADD11C,0.150000*%
%ADD12C,0.120000*%
%ADD13C,1.752600*%
%ADD14R,1.752600X1.752600*%
%ADD15C,2.200000*%
%ADD16C,4.000000*%
%ADD17C,1.700000*%
%ADD18C,2.000000*%
%ADD19R,2.000000X2.000000*%
%ADD20O,3.200000X2.000000*%
%ADD21C,4.400000*%
%ADD22RoundRect,0.250000X-0.250000X-0.750000X0.250000X-0.750000X0.250000X0.750000X-0.250000X0.750000X0*%
%ADD23R,0.700000X1.500000*%
%ADD24R,1.000000X0.800000*%
%ADD25C,0.900000*%
%ADD26R,1.600000X1.200000*%
%ADD27C,1.600000*%
%ADD28R,1.600000X1.600000*%
%ADD29R,1.200000X1.600000*%
G04 APERTURE END LIST*
D10*
X321000000Y-99678571D02*
X321357142Y-100678571D01*
X321714285Y-99678571D02*
X321357142Y-100678571D01*
X321214285Y-101035714D01*
X321142857Y-101107142D01*
X321000000Y-101178571D01*
X322071428Y-99678571D02*
X322642857Y-99678571D01*
X322285714Y-99178571D02*
X322285714Y-100464285D01*
X322357142Y-100607142D01*
X322500000Y-100678571D01*
X322642857Y-100678571D01*
X323071428Y-100607142D02*
X323214285Y-100678571D01*
X323500000Y-100678571D01*
X323642857Y-100607142D01*
X323714285Y-100464285D01*
X323714285Y-100392857D01*
X323642857Y-100250000D01*
X323500000Y-100178571D01*
X323285714Y-100178571D01*
X323142857Y-100107142D01*
X323071428Y-99964285D01*
X323071428Y-99892857D01*
X323142857Y-99750000D01*
X323285714Y-99678571D01*
X323500000Y-99678571D01*
X323642857Y-99750000D01*
X324357142Y-100107142D02*
X325500000Y-100107142D01*
X327000000Y-100678571D02*
X326142857Y-100678571D01*
X326571428Y-100678571D02*
X326571428Y-99178571D01*
X326428571Y-99392857D01*
X326285714Y-99535714D01*
X326142857Y-99607142D01*
X328785714Y-100678571D02*
X328785714Y-99678571D01*
X328785714Y-99964285D02*
X328857142Y-99821428D01*
X328928571Y-99750000D01*
X329071428Y-99678571D01*
X329214285Y-99678571D01*
X330285714Y-100607142D02*
X330142857Y-100678571D01*
X329857142Y-100678571D01*
X329714285Y-100607142D01*
X329642857Y-100464285D01*
X329642857Y-99892857D01*
X329714285Y-99750000D01*
X329857142Y-99678571D01*
X330142857Y-99678571D01*
X330285714Y-99750000D01*
X330357142Y-99892857D01*
X330357142Y-100035714D01*
X329642857Y-100178571D01*
X330857142Y-99678571D02*
X331214285Y-100678571D01*
X331571428Y-99678571D01*
X332928571Y-100678571D02*
X332071428Y-100678571D01*
X332500000Y-100678571D02*
X332500000Y-99178571D01*
X332357142Y-99392857D01*
X332214285Y-99535714D01*
X332071428Y-99607142D01*
D11*
X148668434Y-118230761D02*
X148811291Y-118278380D01*
X149049386Y-118278380D01*
X149144624Y-118230761D01*
X149192243Y-118183142D01*
X149239862Y-118087904D01*
X149239862Y-117992666D01*
X149192243Y-117897428D01*
X149144624Y-117849809D01*
X149049386Y-117802190D01*
X148858910Y-117754571D01*
X148763672Y-117706952D01*
X148716053Y-117659333D01*
X148668434Y-117564095D01*
X148668434Y-117468857D01*
X148716053Y-117373619D01*
X148763672Y-117326000D01*
X148858910Y-117278380D01*
X149097005Y-117278380D01*
X149239862Y-117326000D01*
X149573196Y-117278380D02*
X149811291Y-118278380D01*
X150001767Y-117564095D01*
X150192243Y-118278380D01*
X150430338Y-117278380D01*
X151335100Y-118278380D02*
X150763672Y-118278380D01*
X151049386Y-118278380D02*
X151049386Y-117278380D01*
X150954148Y-117421238D01*
X150858910Y-117516476D01*
X150763672Y-117564095D01*
X152287481Y-118278380D02*
X151716053Y-118278380D01*
X152001767Y-118278380D02*
X152001767Y-117278380D01*
X151906529Y-117421238D01*
X151811291Y-117516476D01*
X151716053Y-117564095D01*
X111144624Y-118230761D02*
X111287481Y-118278380D01*
X111525577Y-118278380D01*
X111620815Y-118230761D01*
X111668434Y-118183142D01*
X111716053Y-118087904D01*
X111716053Y-117992666D01*
X111668434Y-117897428D01*
X111620815Y-117849809D01*
X111525577Y-117802190D01*
X111335100Y-117754571D01*
X111239862Y-117706952D01*
X111192243Y-117659333D01*
X111144624Y-117564095D01*
X111144624Y-117468857D01*
X111192243Y-117373619D01*
X111239862Y-117326000D01*
X111335100Y-117278380D01*
X111573196Y-117278380D01*
X111716053Y-117326000D01*
X112049386Y-117278380D02*
X112287481Y-118278380D01*
X112477958Y-117564095D01*
X112668434Y-118278380D01*
X112906529Y-117278380D01*
X113192243Y-117278380D02*
X113811291Y-117278380D01*
X113477958Y-117659333D01*
X113620815Y-117659333D01*
X113716053Y-117706952D01*
X113763672Y-117754571D01*
X113811291Y-117849809D01*
X113811291Y-118087904D01*
X113763672Y-118183142D01*
X113716053Y-118230761D01*
X113620815Y-118278380D01*
X113335100Y-118278380D01*
X113239862Y-118230761D01*
X113192243Y-118183142D01*
X130144624Y-99230761D02*
X130287481Y-99278380D01*
X130525577Y-99278380D01*
X130620815Y-99230761D01*
X130668434Y-99183142D01*
X130716053Y-99087904D01*
X130716053Y-98992666D01*
X130668434Y-98897428D01*
X130620815Y-98849809D01*
X130525577Y-98802190D01*
X130335100Y-98754571D01*
X130239862Y-98706952D01*
X130192243Y-98659333D01*
X130144624Y-98564095D01*
X130144624Y-98468857D01*
X130192243Y-98373619D01*
X130239862Y-98326000D01*
X130335100Y-98278380D01*
X130573196Y-98278380D01*
X130716053Y-98326000D01*
X131049386Y-98278380D02*
X131287481Y-99278380D01*
X131477958Y-98564095D01*
X131668434Y-99278380D01*
X131906529Y-98278380D01*
X132716053Y-98278380D02*
X132525577Y-98278380D01*
X132430338Y-98326000D01*
X132382719Y-98373619D01*
X132287481Y-98516476D01*
X132239862Y-98706952D01*
X132239862Y-99087904D01*
X132287481Y-99183142D01*
X132335100Y-99230761D01*
X132430338Y-99278380D01*
X132620815Y-99278380D01*
X132716053Y-99230761D01*
X132763672Y-99183142D01*
X132811291Y-99087904D01*
X132811291Y-98849809D01*
X132763672Y-98754571D01*
X132716053Y-98706952D01*
X132620815Y-98659333D01*
X132430338Y-98659333D01*
X132335100Y-98706952D01*
X132287481Y-98754571D01*
X132239862Y-98849809D01*
X167668434Y-99230761D02*
X167811291Y-99278380D01*
X168049386Y-99278380D01*
X168144624Y-99230761D01*
X168192243Y-99183142D01*
X168239862Y-99087904D01*
X168239862Y-98992666D01*
X168192243Y-98897428D01*
X168144624Y-98849809D01*
X168049386Y-98802190D01*
X167858910Y-98754571D01*
X167763672Y-98706952D01*
X167716053Y-98659333D01*
X167668434Y-98564095D01*
X167668434Y-98468857D01*
X167716053Y-98373619D01*
X167763672Y-98326000D01*
X167858910Y-98278380D01*
X168097005Y-98278380D01*
X168239862Y-98326000D01*
X168573196Y-98278380D02*
X168811291Y-99278380D01*
X169001767Y-98564095D01*
X169192243Y-99278380D01*
X169430338Y-98278380D01*
X170335100Y-99278380D02*
X169763672Y-99278380D01*
X170049386Y-99278380D02*
X170049386Y-98278380D01*
X169954148Y-98421238D01*
X169858910Y-98516476D01*
X169763672Y-98564095D01*
X171192243Y-98611714D02*
X171192243Y-99278380D01*
X170954148Y-98230761D02*
X170716053Y-98945047D01*
X171335100Y-98945047D01*
X167668434Y-156230761D02*
X167811291Y-156278380D01*
X168049386Y-156278380D01*
X168144624Y-156230761D01*
X168192243Y-156183142D01*
X168239862Y-156087904D01*
X168239862Y-155992666D01*
X168192243Y-155897428D01*
X168144624Y-155849809D01*
X168049386Y-155802190D01*
X167858910Y-155754571D01*
X167763672Y-155706952D01*
X167716053Y-155659333D01*
X167668434Y-155564095D01*
X167668434Y-155468857D01*
X167716053Y-155373619D01*
X167763672Y-155326000D01*
X167858910Y-155278380D01*
X168097005Y-155278380D01*
X168239862Y-155326000D01*
X168573196Y-155278380D02*
X168811291Y-156278380D01*
X169001767Y-155564095D01*
X169192243Y-156278380D01*
X169430338Y-155278380D01*
X170335100Y-156278380D02*
X169763672Y-156278380D01*
X170049386Y-156278380D02*
X170049386Y-155278380D01*
X169954148Y-155421238D01*
X169858910Y-155516476D01*
X169763672Y-155564095D01*
X170668434Y-155278380D02*
X171335100Y-155278380D01*
X170906529Y-156278380D01*
X148668434Y-156230761D02*
X148811291Y-156278380D01*
X149049386Y-156278380D01*
X149144624Y-156230761D01*
X149192243Y-156183142D01*
X149239862Y-156087904D01*
X149239862Y-155992666D01*
X149192243Y-155897428D01*
X149144624Y-155849809D01*
X149049386Y-155802190D01*
X148858910Y-155754571D01*
X148763672Y-155706952D01*
X148716053Y-155659333D01*
X148668434Y-155564095D01*
X148668434Y-155468857D01*
X148716053Y-155373619D01*
X148763672Y-155326000D01*
X148858910Y-155278380D01*
X149097005Y-155278380D01*
X149239862Y-155326000D01*
X149573196Y-155278380D02*
X149811291Y-156278380D01*
X150001767Y-155564095D01*
X150192243Y-156278380D01*
X150430338Y-155278380D01*
X151335100Y-156278380D02*
X150763672Y-156278380D01*
X151049386Y-156278380D02*
X151049386Y-155278380D01*
X150954148Y-155421238D01*
X150858910Y-155516476D01*
X150763672Y-155564095D01*
X151668434Y-155278380D02*
X152287481Y-155278380D01*
X151954148Y-155659333D01*
X152097005Y-155659333D01*
X152192243Y-155706952D01*
X152239862Y-155754571D01*
X152287481Y-155849809D01*
X152287481Y-156087904D01*
X152239862Y-156183142D01*
X152192243Y-156230761D01*
X152097005Y-156278380D01*
X151811291Y-156278380D01*
X151716053Y-156230761D01*
X151668434Y-156183142D01*
X148668434Y-137230761D02*
X148811291Y-137278380D01*
X149049386Y-137278380D01*
X149144624Y-137230761D01*
X149192243Y-137183142D01*
X149239862Y-137087904D01*
X149239862Y-136992666D01*
X149192243Y-136897428D01*
X149144624Y-136849809D01*
X149049386Y-136802190D01*
X148858910Y-136754571D01*
X148763672Y-136706952D01*
X148716053Y-136659333D01*
X148668434Y-136564095D01*
X148668434Y-136468857D01*
X148716053Y-136373619D01*
X148763672Y-136326000D01*
X148858910Y-136278380D01*
X149097005Y-136278380D01*
X149239862Y-136326000D01*
X149573196Y-136278380D02*
X149811291Y-137278380D01*
X150001767Y-136564095D01*
X150192243Y-137278380D01*
X150430338Y-136278380D01*
X151335100Y-137278380D02*
X150763672Y-137278380D01*
X151049386Y-137278380D02*
X151049386Y-136278380D01*
X150954148Y-136421238D01*
X150858910Y-136516476D01*
X150763672Y-136564095D01*
X151716053Y-136373619D02*
X151763672Y-136326000D01*
X151858910Y-136278380D01*
X152097005Y-136278380D01*
X152192243Y-136326000D01*
X152239862Y-136373619D01*
X152287481Y-136468857D01*
X152287481Y-136564095D01*
X152239862Y-136706952D01*
X151668434Y-137278380D01*
X152287481Y-137278380D01*
X148668434Y-99230761D02*
X148811291Y-99278380D01*
X149049386Y-99278380D01*
X149144624Y-99230761D01*
X149192243Y-99183142D01*
X149239862Y-99087904D01*
X149239862Y-98992666D01*
X149192243Y-98897428D01*
X149144624Y-98849809D01*
X149049386Y-98802190D01*
X148858910Y-98754571D01*
X148763672Y-98706952D01*
X148716053Y-98659333D01*
X148668434Y-98564095D01*
X148668434Y-98468857D01*
X148716053Y-98373619D01*
X148763672Y-98326000D01*
X148858910Y-98278380D01*
X149097005Y-98278380D01*
X149239862Y-98326000D01*
X149573196Y-98278380D02*
X149811291Y-99278380D01*
X150001767Y-98564095D01*
X150192243Y-99278380D01*
X150430338Y-98278380D01*
X151335100Y-99278380D02*
X150763672Y-99278380D01*
X151049386Y-99278380D02*
X151049386Y-98278380D01*
X150954148Y-98421238D01*
X150858910Y-98516476D01*
X150763672Y-98564095D01*
X151954148Y-98278380D02*
X152049386Y-98278380D01*
X152144624Y-98326000D01*
X152192243Y-98373619D01*
X152239862Y-98468857D01*
X152287481Y-98659333D01*
X152287481Y-98897428D01*
X152239862Y-99087904D01*
X152192243Y-99183142D01*
X152144624Y-99230761D01*
X152049386Y-99278380D01*
X151954148Y-99278380D01*
X151858910Y-99230761D01*
X151811291Y-99183142D01*
X151763672Y-99087904D01*
X151716053Y-98897428D01*
X151716053Y-98659333D01*
X151763672Y-98468857D01*
X151811291Y-98373619D01*
X151858910Y-98326000D01*
X151954148Y-98278380D01*
X111144624Y-156230761D02*
X111287481Y-156278380D01*
X111525577Y-156278380D01*
X111620815Y-156230761D01*
X111668434Y-156183142D01*
X111716053Y-156087904D01*
X111716053Y-155992666D01*
X111668434Y-155897428D01*
X111620815Y-155849809D01*
X111525577Y-155802190D01*
X111335100Y-155754571D01*
X111239862Y-155706952D01*
X111192243Y-155659333D01*
X111144624Y-155564095D01*
X111144624Y-155468857D01*
X111192243Y-155373619D01*
X111239862Y-155326000D01*
X111335100Y-155278380D01*
X111573196Y-155278380D01*
X111716053Y-155326000D01*
X112049386Y-155278380D02*
X112287481Y-156278380D01*
X112477958Y-155564095D01*
X112668434Y-156278380D01*
X112906529Y-155278380D01*
X113763672Y-155278380D02*
X113287481Y-155278380D01*
X113239862Y-155754571D01*
X113287481Y-155706952D01*
X113382719Y-155659333D01*
X113620815Y-155659333D01*
X113716053Y-155706952D01*
X113763672Y-155754571D01*
X113811291Y-155849809D01*
X113811291Y-156087904D01*
X113763672Y-156183142D01*
X113716053Y-156230761D01*
X113620815Y-156278380D01*
X113382719Y-156278380D01*
X113287481Y-156230761D01*
X113239862Y-156183142D01*
X167668434Y-118230761D02*
X167811291Y-118278380D01*
X168049386Y-118278380D01*
X168144624Y-118230761D01*
X168192243Y-118183142D01*
X168239862Y-118087904D01*
X168239862Y-117992666D01*
X168192243Y-117897428D01*
X168144624Y-117849809D01*
X168049386Y-117802190D01*
X167858910Y-117754571D01*
X167763672Y-117706952D01*
X167716053Y-117659333D01*
X167668434Y-117564095D01*
X167668434Y-117468857D01*
X167716053Y-117373619D01*
X167763672Y-117326000D01*
X167858910Y-117278380D01*
X168097005Y-117278380D01*
X168239862Y-117326000D01*
X168573196Y-117278380D02*
X168811291Y-118278380D01*
X169001767Y-117564095D01*
X169192243Y-118278380D01*
X169430338Y-117278380D01*
X170335100Y-118278380D02*
X169763672Y-118278380D01*
X170049386Y-118278380D02*
X170049386Y-117278380D01*
X169954148Y-117421238D01*
X169858910Y-117516476D01*
X169763672Y-117564095D01*
X171239862Y-117278380D02*
X170763672Y-117278380D01*
X170716053Y-117754571D01*
X170763672Y-117706952D01*
X170858910Y-117659333D01*
X171097005Y-117659333D01*
X171192243Y-117706952D01*
X171239862Y-117754571D01*
X171287481Y-117849809D01*
X171287481Y-118087904D01*
X171239862Y-118183142D01*
X171192243Y-118230761D01*
X171097005Y-118278380D01*
X170858910Y-118278380D01*
X170763672Y-118230761D01*
X170716053Y-118183142D01*
X167668434Y-137230761D02*
X167811291Y-137278380D01*
X168049386Y-137278380D01*
X168144624Y-137230761D01*
X168192243Y-137183142D01*
X168239862Y-137087904D01*
X168239862Y-136992666D01*
X168192243Y-136897428D01*
X168144624Y-136849809D01*
X168049386Y-136802190D01*
X167858910Y-136754571D01*
X167763672Y-136706952D01*
X167716053Y-136659333D01*
X167668434Y-136564095D01*
X167668434Y-136468857D01*
X167716053Y-136373619D01*
X167763672Y-136326000D01*
X167858910Y-136278380D01*
X168097005Y-136278380D01*
X168239862Y-136326000D01*
X168573196Y-136278380D02*
X168811291Y-137278380D01*
X169001767Y-136564095D01*
X169192243Y-137278380D01*
X169430338Y-136278380D01*
X170335100Y-137278380D02*
X169763672Y-137278380D01*
X170049386Y-137278380D02*
X170049386Y-136278380D01*
X169954148Y-136421238D01*
X169858910Y-136516476D01*
X169763672Y-136564095D01*
X171192243Y-136278380D02*
X171001767Y-136278380D01*
X170906529Y-136326000D01*
X170858910Y-136373619D01*
X170763672Y-136516476D01*
X170716053Y-136706952D01*
X170716053Y-137087904D01*
X170763672Y-137183142D01*
X170811291Y-137230761D01*
X170906529Y-137278380D01*
X171097005Y-137278380D01*
X171192243Y-137230761D01*
X171239862Y-137183142D01*
X171287481Y-137087904D01*
X171287481Y-136849809D01*
X171239862Y-136754571D01*
X171192243Y-136706952D01*
X171097005Y-136659333D01*
X170906529Y-136659333D01*
X170811291Y-136706952D01*
X170763672Y-136754571D01*
X170716053Y-136849809D01*
X130144624Y-137230761D02*
X130287481Y-137278380D01*
X130525577Y-137278380D01*
X130620815Y-137230761D01*
X130668434Y-137183142D01*
X130716053Y-137087904D01*
X130716053Y-136992666D01*
X130668434Y-136897428D01*
X130620815Y-136849809D01*
X130525577Y-136802190D01*
X130335100Y-136754571D01*
X130239862Y-136706952D01*
X130192243Y-136659333D01*
X130144624Y-136564095D01*
X130144624Y-136468857D01*
X130192243Y-136373619D01*
X130239862Y-136326000D01*
X130335100Y-136278380D01*
X130573196Y-136278380D01*
X130716053Y-136326000D01*
X131049386Y-136278380D02*
X131287481Y-137278380D01*
X131477958Y-136564095D01*
X131668434Y-137278380D01*
X131906529Y-136278380D01*
X132430338Y-136706952D02*
X132335100Y-136659333D01*
X132287481Y-136611714D01*
X132239862Y-136516476D01*
X132239862Y-136468857D01*
X132287481Y-136373619D01*
X132335100Y-136326000D01*
X132430338Y-136278380D01*
X132620815Y-136278380D01*
X132716053Y-136326000D01*
X132763672Y-136373619D01*
X132811291Y-136468857D01*
X132811291Y-136516476D01*
X132763672Y-136611714D01*
X132716053Y-136659333D01*
X132620815Y-136706952D01*
X132430338Y-136706952D01*
X132335100Y-136754571D01*
X132287481Y-136802190D01*
X132239862Y-136897428D01*
X132239862Y-137087904D01*
X132287481Y-137183142D01*
X132335100Y-137230761D01*
X132430338Y-137278380D01*
X132620815Y-137278380D01*
X132716053Y-137230761D01*
X132763672Y-137183142D01*
X132811291Y-137087904D01*
X132811291Y-136897428D01*
X132763672Y-136802190D01*
X132716053Y-136754571D01*
X132620815Y-136706952D01*
X262668434Y-156230761D02*
X262811291Y-156278380D01*
X263049386Y-156278380D01*
X263144624Y-156230761D01*
X263192243Y-156183142D01*
X263239862Y-156087904D01*
X263239862Y-155992666D01*
X263192243Y-155897428D01*
X263144624Y-155849809D01*
X263049386Y-155802190D01*
X262858910Y-155754571D01*
X262763672Y-155706952D01*
X262716053Y-155659333D01*
X262668434Y-155564095D01*
X262668434Y-155468857D01*
X262716053Y-155373619D01*
X262763672Y-155326000D01*
X262858910Y-155278380D01*
X263097005Y-155278380D01*
X263239862Y-155326000D01*
X263573196Y-155278380D02*
X263811291Y-156278380D01*
X264001767Y-155564095D01*
X264192243Y-156278380D01*
X264430338Y-155278380D01*
X264763672Y-155373619D02*
X264811291Y-155326000D01*
X264906529Y-155278380D01*
X265144624Y-155278380D01*
X265239862Y-155326000D01*
X265287481Y-155373619D01*
X265335100Y-155468857D01*
X265335100Y-155564095D01*
X265287481Y-155706952D01*
X264716053Y-156278380D01*
X265335100Y-156278380D01*
X265668434Y-155278380D02*
X266335100Y-155278380D01*
X265906529Y-156278380D01*
X224668434Y-99230761D02*
X224811291Y-99278380D01*
X225049386Y-99278380D01*
X225144624Y-99230761D01*
X225192243Y-99183142D01*
X225239862Y-99087904D01*
X225239862Y-98992666D01*
X225192243Y-98897428D01*
X225144624Y-98849809D01*
X225049386Y-98802190D01*
X224858910Y-98754571D01*
X224763672Y-98706952D01*
X224716053Y-98659333D01*
X224668434Y-98564095D01*
X224668434Y-98468857D01*
X224716053Y-98373619D01*
X224763672Y-98326000D01*
X224858910Y-98278380D01*
X225097005Y-98278380D01*
X225239862Y-98326000D01*
X225573196Y-98278380D02*
X225811291Y-99278380D01*
X226001767Y-98564095D01*
X226192243Y-99278380D01*
X226430338Y-98278380D01*
X227335100Y-99278380D02*
X226763672Y-99278380D01*
X227049386Y-99278380D02*
X227049386Y-98278380D01*
X226954148Y-98421238D01*
X226858910Y-98516476D01*
X226763672Y-98564095D01*
X227906529Y-98706952D02*
X227811291Y-98659333D01*
X227763672Y-98611714D01*
X227716053Y-98516476D01*
X227716053Y-98468857D01*
X227763672Y-98373619D01*
X227811291Y-98326000D01*
X227906529Y-98278380D01*
X228097005Y-98278380D01*
X228192243Y-98326000D01*
X228239862Y-98373619D01*
X228287481Y-98468857D01*
X228287481Y-98516476D01*
X228239862Y-98611714D01*
X228192243Y-98659333D01*
X228097005Y-98706952D01*
X227906529Y-98706952D01*
X227811291Y-98754571D01*
X227763672Y-98802190D01*
X227716053Y-98897428D01*
X227716053Y-99087904D01*
X227763672Y-99183142D01*
X227811291Y-99230761D01*
X227906529Y-99278380D01*
X228097005Y-99278380D01*
X228192243Y-99230761D01*
X228239862Y-99183142D01*
X228287481Y-99087904D01*
X228287481Y-98897428D01*
X228239862Y-98802190D01*
X228192243Y-98754571D01*
X228097005Y-98706952D01*
X111144624Y-137230761D02*
X111287481Y-137278380D01*
X111525577Y-137278380D01*
X111620815Y-137230761D01*
X111668434Y-137183142D01*
X111716053Y-137087904D01*
X111716053Y-136992666D01*
X111668434Y-136897428D01*
X111620815Y-136849809D01*
X111525577Y-136802190D01*
X111335100Y-136754571D01*
X111239862Y-136706952D01*
X111192243Y-136659333D01*
X111144624Y-136564095D01*
X111144624Y-136468857D01*
X111192243Y-136373619D01*
X111239862Y-136326000D01*
X111335100Y-136278380D01*
X111573196Y-136278380D01*
X111716053Y-136326000D01*
X112049386Y-136278380D02*
X112287481Y-137278380D01*
X112477958Y-136564095D01*
X112668434Y-137278380D01*
X112906529Y-136278380D01*
X113716053Y-136611714D02*
X113716053Y-137278380D01*
X113477958Y-136230761D02*
X113239862Y-136945047D01*
X113858910Y-136945047D01*
X209644624Y-103112380D02*
X209644624Y-103826666D01*
X209597005Y-103969523D01*
X209501767Y-104064761D01*
X209358910Y-104112380D01*
X209263672Y-104112380D01*
X210644624Y-104112380D02*
X210073196Y-104112380D01*
X210358910Y-104112380D02*
X210358910Y-103112380D01*
X210263672Y-103255238D01*
X210168434Y-103350476D01*
X210073196Y-103398095D01*
X262668434Y-118230761D02*
X262811291Y-118278380D01*
X263049386Y-118278380D01*
X263144624Y-118230761D01*
X263192243Y-118183142D01*
X263239862Y-118087904D01*
X263239862Y-117992666D01*
X263192243Y-117897428D01*
X263144624Y-117849809D01*
X263049386Y-117802190D01*
X262858910Y-117754571D01*
X262763672Y-117706952D01*
X262716053Y-117659333D01*
X262668434Y-117564095D01*
X262668434Y-117468857D01*
X262716053Y-117373619D01*
X262763672Y-117326000D01*
X262858910Y-117278380D01*
X263097005Y-117278380D01*
X263239862Y-117326000D01*
X263573196Y-117278380D02*
X263811291Y-118278380D01*
X264001767Y-117564095D01*
X264192243Y-118278380D01*
X264430338Y-117278380D01*
X264763672Y-117373619D02*
X264811291Y-117326000D01*
X264906529Y-117278380D01*
X265144624Y-117278380D01*
X265239862Y-117326000D01*
X265287481Y-117373619D01*
X265335100Y-117468857D01*
X265335100Y-117564095D01*
X265287481Y-117706952D01*
X264716053Y-118278380D01*
X265335100Y-118278380D01*
X266192243Y-117278380D02*
X266001767Y-117278380D01*
X265906529Y-117326000D01*
X265858910Y-117373619D01*
X265763672Y-117516476D01*
X265716053Y-117706952D01*
X265716053Y-118087904D01*
X265763672Y-118183142D01*
X265811291Y-118230761D01*
X265906529Y-118278380D01*
X266097005Y-118278380D01*
X266192243Y-118230761D01*
X266239862Y-118183142D01*
X266287481Y-118087904D01*
X266287481Y-117849809D01*
X266239862Y-117754571D01*
X266192243Y-117706952D01*
X266097005Y-117659333D01*
X265906529Y-117659333D01*
X265811291Y-117706952D01*
X265763672Y-117754571D01*
X265716053Y-117849809D01*
X243668434Y-156230761D02*
X243811291Y-156278380D01*
X244049386Y-156278380D01*
X244144624Y-156230761D01*
X244192243Y-156183142D01*
X244239862Y-156087904D01*
X244239862Y-155992666D01*
X244192243Y-155897428D01*
X244144624Y-155849809D01*
X244049386Y-155802190D01*
X243858910Y-155754571D01*
X243763672Y-155706952D01*
X243716053Y-155659333D01*
X243668434Y-155564095D01*
X243668434Y-155468857D01*
X243716053Y-155373619D01*
X243763672Y-155326000D01*
X243858910Y-155278380D01*
X244097005Y-155278380D01*
X244239862Y-155326000D01*
X244573196Y-155278380D02*
X244811291Y-156278380D01*
X245001767Y-155564095D01*
X245192243Y-156278380D01*
X245430338Y-155278380D01*
X245763672Y-155373619D02*
X245811291Y-155326000D01*
X245906529Y-155278380D01*
X246144624Y-155278380D01*
X246239862Y-155326000D01*
X246287481Y-155373619D01*
X246335100Y-155468857D01*
X246335100Y-155564095D01*
X246287481Y-155706952D01*
X245716053Y-156278380D01*
X246335100Y-156278380D01*
X247192243Y-155611714D02*
X247192243Y-156278380D01*
X246954148Y-155230761D02*
X246716053Y-155945047D01*
X247335100Y-155945047D01*
X243668434Y-137230761D02*
X243811291Y-137278380D01*
X244049386Y-137278380D01*
X244144624Y-137230761D01*
X244192243Y-137183142D01*
X244239862Y-137087904D01*
X244239862Y-136992666D01*
X244192243Y-136897428D01*
X244144624Y-136849809D01*
X244049386Y-136802190D01*
X243858910Y-136754571D01*
X243763672Y-136706952D01*
X243716053Y-136659333D01*
X243668434Y-136564095D01*
X243668434Y-136468857D01*
X243716053Y-136373619D01*
X243763672Y-136326000D01*
X243858910Y-136278380D01*
X244097005Y-136278380D01*
X244239862Y-136326000D01*
X244573196Y-136278380D02*
X244811291Y-137278380D01*
X245001767Y-136564095D01*
X245192243Y-137278380D01*
X245430338Y-136278380D01*
X245763672Y-136373619D02*
X245811291Y-136326000D01*
X245906529Y-136278380D01*
X246144624Y-136278380D01*
X246239862Y-136326000D01*
X246287481Y-136373619D01*
X246335100Y-136468857D01*
X246335100Y-136564095D01*
X246287481Y-136706952D01*
X245716053Y-137278380D01*
X246335100Y-137278380D01*
X246668434Y-136278380D02*
X247287481Y-136278380D01*
X246954148Y-136659333D01*
X247097005Y-136659333D01*
X247192243Y-136706952D01*
X247239862Y-136754571D01*
X247287481Y-136849809D01*
X247287481Y-137087904D01*
X247239862Y-137183142D01*
X247192243Y-137230761D01*
X247097005Y-137278380D01*
X246811291Y-137278380D01*
X246716053Y-137230761D01*
X246668434Y-137183142D01*
X243668434Y-99230761D02*
X243811291Y-99278380D01*
X244049386Y-99278380D01*
X244144624Y-99230761D01*
X244192243Y-99183142D01*
X244239862Y-99087904D01*
X244239862Y-98992666D01*
X244192243Y-98897428D01*
X244144624Y-98849809D01*
X244049386Y-98802190D01*
X243858910Y-98754571D01*
X243763672Y-98706952D01*
X243716053Y-98659333D01*
X243668434Y-98564095D01*
X243668434Y-98468857D01*
X243716053Y-98373619D01*
X243763672Y-98326000D01*
X243858910Y-98278380D01*
X244097005Y-98278380D01*
X244239862Y-98326000D01*
X244573196Y-98278380D02*
X244811291Y-99278380D01*
X245001767Y-98564095D01*
X245192243Y-99278380D01*
X245430338Y-98278380D01*
X245763672Y-98373619D02*
X245811291Y-98326000D01*
X245906529Y-98278380D01*
X246144624Y-98278380D01*
X246239862Y-98326000D01*
X246287481Y-98373619D01*
X246335100Y-98468857D01*
X246335100Y-98564095D01*
X246287481Y-98706952D01*
X245716053Y-99278380D01*
X246335100Y-99278380D01*
X247287481Y-99278380D02*
X246716053Y-99278380D01*
X247001767Y-99278380D02*
X247001767Y-98278380D01*
X246906529Y-98421238D01*
X246811291Y-98516476D01*
X246716053Y-98564095D01*
X205144624Y-103112380D02*
X205144624Y-103826666D01*
X205097005Y-103969523D01*
X205001767Y-104064761D01*
X204858910Y-104112380D01*
X204763672Y-104112380D01*
X205573196Y-103207619D02*
X205620815Y-103160000D01*
X205716053Y-103112380D01*
X205954148Y-103112380D01*
X206049386Y-103160000D01*
X206097005Y-103207619D01*
X206144624Y-103302857D01*
X206144624Y-103398095D01*
X206097005Y-103540952D01*
X205525577Y-104112380D01*
X206144624Y-104112380D01*
X262668434Y-99230761D02*
X262811291Y-99278380D01*
X263049386Y-99278380D01*
X263144624Y-99230761D01*
X263192243Y-99183142D01*
X263239862Y-99087904D01*
X263239862Y-98992666D01*
X263192243Y-98897428D01*
X263144624Y-98849809D01*
X263049386Y-98802190D01*
X262858910Y-98754571D01*
X262763672Y-98706952D01*
X262716053Y-98659333D01*
X262668434Y-98564095D01*
X262668434Y-98468857D01*
X262716053Y-98373619D01*
X262763672Y-98326000D01*
X262858910Y-98278380D01*
X263097005Y-98278380D01*
X263239862Y-98326000D01*
X263573196Y-98278380D02*
X263811291Y-99278380D01*
X264001767Y-98564095D01*
X264192243Y-99278380D01*
X264430338Y-98278380D01*
X264763672Y-98373619D02*
X264811291Y-98326000D01*
X264906529Y-98278380D01*
X265144624Y-98278380D01*
X265239862Y-98326000D01*
X265287481Y-98373619D01*
X265335100Y-98468857D01*
X265335100Y-98564095D01*
X265287481Y-98706952D01*
X264716053Y-99278380D01*
X265335100Y-99278380D01*
X266239862Y-98278380D02*
X265763672Y-98278380D01*
X265716053Y-98754571D01*
X265763672Y-98706952D01*
X265858910Y-98659333D01*
X266097005Y-98659333D01*
X266192243Y-98706952D01*
X266239862Y-98754571D01*
X266287481Y-98849809D01*
X266287481Y-99087904D01*
X266239862Y-99183142D01*
X266192243Y-99230761D01*
X266097005Y-99278380D01*
X265858910Y-99278380D01*
X265763672Y-99230761D01*
X265716053Y-99183142D01*
X196168434Y-156230761D02*
X196311291Y-156278380D01*
X196549386Y-156278380D01*
X196644624Y-156230761D01*
X196692243Y-156183142D01*
X196739862Y-156087904D01*
X196739862Y-155992666D01*
X196692243Y-155897428D01*
X196644624Y-155849809D01*
X196549386Y-155802190D01*
X196358910Y-155754571D01*
X196263672Y-155706952D01*
X196216053Y-155659333D01*
X196168434Y-155564095D01*
X196168434Y-155468857D01*
X196216053Y-155373619D01*
X196263672Y-155326000D01*
X196358910Y-155278380D01*
X196597005Y-155278380D01*
X196739862Y-155326000D01*
X197073196Y-155278380D02*
X197311291Y-156278380D01*
X197501767Y-155564095D01*
X197692243Y-156278380D01*
X197930338Y-155278380D01*
X198263672Y-155373619D02*
X198311291Y-155326000D01*
X198406529Y-155278380D01*
X198644624Y-155278380D01*
X198739862Y-155326000D01*
X198787481Y-155373619D01*
X198835100Y-155468857D01*
X198835100Y-155564095D01*
X198787481Y-155706952D01*
X198216053Y-156278380D01*
X198835100Y-156278380D01*
X199406529Y-155706952D02*
X199311291Y-155659333D01*
X199263672Y-155611714D01*
X199216053Y-155516476D01*
X199216053Y-155468857D01*
X199263672Y-155373619D01*
X199311291Y-155326000D01*
X199406529Y-155278380D01*
X199597005Y-155278380D01*
X199692243Y-155326000D01*
X199739862Y-155373619D01*
X199787481Y-155468857D01*
X199787481Y-155516476D01*
X199739862Y-155611714D01*
X199692243Y-155659333D01*
X199597005Y-155706952D01*
X199406529Y-155706952D01*
X199311291Y-155754571D01*
X199263672Y-155802190D01*
X199216053Y-155897428D01*
X199216053Y-156087904D01*
X199263672Y-156183142D01*
X199311291Y-156230761D01*
X199406529Y-156278380D01*
X199597005Y-156278380D01*
X199692243Y-156230761D01*
X199739862Y-156183142D01*
X199787481Y-156087904D01*
X199787481Y-155897428D01*
X199739862Y-155802190D01*
X199692243Y-155754571D01*
X199597005Y-155706952D01*
X130144624Y-156230761D02*
X130287481Y-156278380D01*
X130525577Y-156278380D01*
X130620815Y-156230761D01*
X130668434Y-156183142D01*
X130716053Y-156087904D01*
X130716053Y-155992666D01*
X130668434Y-155897428D01*
X130620815Y-155849809D01*
X130525577Y-155802190D01*
X130335100Y-155754571D01*
X130239862Y-155706952D01*
X130192243Y-155659333D01*
X130144624Y-155564095D01*
X130144624Y-155468857D01*
X130192243Y-155373619D01*
X130239862Y-155326000D01*
X130335100Y-155278380D01*
X130573196Y-155278380D01*
X130716053Y-155326000D01*
X131049386Y-155278380D02*
X131287481Y-156278380D01*
X131477958Y-155564095D01*
X131668434Y-156278380D01*
X131906529Y-155278380D01*
X132335100Y-156278380D02*
X132525577Y-156278380D01*
X132620815Y-156230761D01*
X132668434Y-156183142D01*
X132763672Y-156040285D01*
X132811291Y-155849809D01*
X132811291Y-155468857D01*
X132763672Y-155373619D01*
X132716053Y-155326000D01*
X132620815Y-155278380D01*
X132430338Y-155278380D01*
X132335100Y-155326000D01*
X132287481Y-155373619D01*
X132239862Y-155468857D01*
X132239862Y-155706952D01*
X132287481Y-155802190D01*
X132335100Y-155849809D01*
X132430338Y-155897428D01*
X132620815Y-155897428D01*
X132716053Y-155849809D01*
X132763672Y-155802190D01*
X132811291Y-155706952D01*
X130144624Y-118230761D02*
X130287481Y-118278380D01*
X130525577Y-118278380D01*
X130620815Y-118230761D01*
X130668434Y-118183142D01*
X130716053Y-118087904D01*
X130716053Y-117992666D01*
X130668434Y-117897428D01*
X130620815Y-117849809D01*
X130525577Y-117802190D01*
X130335100Y-117754571D01*
X130239862Y-117706952D01*
X130192243Y-117659333D01*
X130144624Y-117564095D01*
X130144624Y-117468857D01*
X130192243Y-117373619D01*
X130239862Y-117326000D01*
X130335100Y-117278380D01*
X130573196Y-117278380D01*
X130716053Y-117326000D01*
X131049386Y-117278380D02*
X131287481Y-118278380D01*
X131477958Y-117564095D01*
X131668434Y-118278380D01*
X131906529Y-117278380D01*
X132192243Y-117278380D02*
X132858910Y-117278380D01*
X132430338Y-118278380D01*
X224668434Y-118230761D02*
X224811291Y-118278380D01*
X225049386Y-118278380D01*
X225144624Y-118230761D01*
X225192243Y-118183142D01*
X225239862Y-118087904D01*
X225239862Y-117992666D01*
X225192243Y-117897428D01*
X225144624Y-117849809D01*
X225049386Y-117802190D01*
X224858910Y-117754571D01*
X224763672Y-117706952D01*
X224716053Y-117659333D01*
X224668434Y-117564095D01*
X224668434Y-117468857D01*
X224716053Y-117373619D01*
X224763672Y-117326000D01*
X224858910Y-117278380D01*
X225097005Y-117278380D01*
X225239862Y-117326000D01*
X225573196Y-117278380D02*
X225811291Y-118278380D01*
X226001767Y-117564095D01*
X226192243Y-118278380D01*
X226430338Y-117278380D01*
X227335100Y-118278380D02*
X226763672Y-118278380D01*
X227049386Y-118278380D02*
X227049386Y-117278380D01*
X226954148Y-117421238D01*
X226858910Y-117516476D01*
X226763672Y-117564095D01*
X227811291Y-118278380D02*
X228001767Y-118278380D01*
X228097005Y-118230761D01*
X228144624Y-118183142D01*
X228239862Y-118040285D01*
X228287481Y-117849809D01*
X228287481Y-117468857D01*
X228239862Y-117373619D01*
X228192243Y-117326000D01*
X228097005Y-117278380D01*
X227906529Y-117278380D01*
X227811291Y-117326000D01*
X227763672Y-117373619D01*
X227716053Y-117468857D01*
X227716053Y-117706952D01*
X227763672Y-117802190D01*
X227811291Y-117849809D01*
X227906529Y-117897428D01*
X228097005Y-117897428D01*
X228192243Y-117849809D01*
X228239862Y-117802190D01*
X228287481Y-117706952D01*
X111144624Y-99230761D02*
X111287481Y-99278380D01*
X111525577Y-99278380D01*
X111620815Y-99230761D01*
X111668434Y-99183142D01*
X111716053Y-99087904D01*
X111716053Y-98992666D01*
X111668434Y-98897428D01*
X111620815Y-98849809D01*
X111525577Y-98802190D01*
X111335100Y-98754571D01*
X111239862Y-98706952D01*
X111192243Y-98659333D01*
X111144624Y-98564095D01*
X111144624Y-98468857D01*
X111192243Y-98373619D01*
X111239862Y-98326000D01*
X111335100Y-98278380D01*
X111573196Y-98278380D01*
X111716053Y-98326000D01*
X112049386Y-98278380D02*
X112287481Y-99278380D01*
X112477958Y-98564095D01*
X112668434Y-99278380D01*
X112906529Y-98278380D01*
X113239862Y-98373619D02*
X113287481Y-98326000D01*
X113382719Y-98278380D01*
X113620815Y-98278380D01*
X113716053Y-98326000D01*
X113763672Y-98373619D01*
X113811291Y-98468857D01*
X113811291Y-98564095D01*
X113763672Y-98706952D01*
X113192243Y-99278380D01*
X113811291Y-99278380D01*
X243668434Y-118230761D02*
X243811291Y-118278380D01*
X244049386Y-118278380D01*
X244144624Y-118230761D01*
X244192243Y-118183142D01*
X244239862Y-118087904D01*
X244239862Y-117992666D01*
X244192243Y-117897428D01*
X244144624Y-117849809D01*
X244049386Y-117802190D01*
X243858910Y-117754571D01*
X243763672Y-117706952D01*
X243716053Y-117659333D01*
X243668434Y-117564095D01*
X243668434Y-117468857D01*
X243716053Y-117373619D01*
X243763672Y-117326000D01*
X243858910Y-117278380D01*
X244097005Y-117278380D01*
X244239862Y-117326000D01*
X244573196Y-117278380D02*
X244811291Y-118278380D01*
X245001767Y-117564095D01*
X245192243Y-118278380D01*
X245430338Y-117278380D01*
X245763672Y-117373619D02*
X245811291Y-117326000D01*
X245906529Y-117278380D01*
X246144624Y-117278380D01*
X246239862Y-117326000D01*
X246287481Y-117373619D01*
X246335100Y-117468857D01*
X246335100Y-117564095D01*
X246287481Y-117706952D01*
X245716053Y-118278380D01*
X246335100Y-118278380D01*
X246716053Y-117373619D02*
X246763672Y-117326000D01*
X246858910Y-117278380D01*
X247097005Y-117278380D01*
X247192243Y-117326000D01*
X247239862Y-117373619D01*
X247287481Y-117468857D01*
X247287481Y-117564095D01*
X247239862Y-117706952D01*
X246668434Y-118278380D01*
X247287481Y-118278380D01*
X206644624Y-101804761D02*
X206787481Y-101852380D01*
X207025577Y-101852380D01*
X207120815Y-101804761D01*
X207168434Y-101757142D01*
X207216053Y-101661904D01*
X207216053Y-101566666D01*
X207168434Y-101471428D01*
X207120815Y-101423809D01*
X207025577Y-101376190D01*
X206835100Y-101328571D01*
X206739862Y-101280952D01*
X206692243Y-101233333D01*
X206644624Y-101138095D01*
X206644624Y-101042857D01*
X206692243Y-100947619D01*
X206739862Y-100900000D01*
X206835100Y-100852380D01*
X207073196Y-100852380D01*
X207216053Y-100900000D01*
X207549386Y-100852380D02*
X207787481Y-101852380D01*
X207977958Y-101138095D01*
X208168434Y-101852380D01*
X208406529Y-100852380D01*
X209311291Y-101852380D02*
X208739862Y-101852380D01*
X209025577Y-101852380D02*
X209025577Y-100852380D01*
X208930338Y-100995238D01*
X208835100Y-101090476D01*
X208739862Y-101138095D01*
X224668434Y-156230761D02*
X224811291Y-156278380D01*
X225049386Y-156278380D01*
X225144624Y-156230761D01*
X225192243Y-156183142D01*
X225239862Y-156087904D01*
X225239862Y-155992666D01*
X225192243Y-155897428D01*
X225144624Y-155849809D01*
X225049386Y-155802190D01*
X224858910Y-155754571D01*
X224763672Y-155706952D01*
X224716053Y-155659333D01*
X224668434Y-155564095D01*
X224668434Y-155468857D01*
X224716053Y-155373619D01*
X224763672Y-155326000D01*
X224858910Y-155278380D01*
X225097005Y-155278380D01*
X225239862Y-155326000D01*
X225573196Y-155278380D02*
X225811291Y-156278380D01*
X226001767Y-155564095D01*
X226192243Y-156278380D01*
X226430338Y-155278380D01*
X226763672Y-155373619D02*
X226811291Y-155326000D01*
X226906529Y-155278380D01*
X227144624Y-155278380D01*
X227239862Y-155326000D01*
X227287481Y-155373619D01*
X227335100Y-155468857D01*
X227335100Y-155564095D01*
X227287481Y-155706952D01*
X226716053Y-156278380D01*
X227335100Y-156278380D01*
X227954148Y-155278380D02*
X228049386Y-155278380D01*
X228144624Y-155326000D01*
X228192243Y-155373619D01*
X228239862Y-155468857D01*
X228287481Y-155659333D01*
X228287481Y-155897428D01*
X228239862Y-156087904D01*
X228192243Y-156183142D01*
X228144624Y-156230761D01*
X228049386Y-156278380D01*
X227954148Y-156278380D01*
X227858910Y-156230761D01*
X227811291Y-156183142D01*
X227763672Y-156087904D01*
X227716053Y-155897428D01*
X227716053Y-155659333D01*
X227763672Y-155468857D01*
X227811291Y-155373619D01*
X227858910Y-155326000D01*
X227954148Y-155278380D01*
X301081129Y-114161904D02*
X301081129Y-113361904D01*
X301271605Y-113361904D01*
X301385891Y-113400000D01*
X301462081Y-113476190D01*
X301500177Y-113552380D01*
X301538272Y-113704761D01*
X301538272Y-113819047D01*
X301500177Y-113971428D01*
X301462081Y-114047619D01*
X301385891Y-114123809D01*
X301271605Y-114161904D01*
X301081129Y-114161904D01*
X301843034Y-113438095D02*
X301881129Y-113400000D01*
X301957319Y-113361904D01*
X302147796Y-113361904D01*
X302223986Y-113400000D01*
X302262081Y-113438095D01*
X302300177Y-113514285D01*
X302300177Y-113590476D01*
X302262081Y-113704761D01*
X301804938Y-114161904D01*
X302300177Y-114161904D01*
X302566843Y-113361904D02*
X303100177Y-113361904D01*
X302757319Y-114161904D01*
X234939862Y-164696828D02*
X234139862Y-164696828D01*
X234139862Y-164506352D01*
X234177958Y-164392066D01*
X234254148Y-164315876D01*
X234330338Y-164277780D01*
X234482719Y-164239685D01*
X234597005Y-164239685D01*
X234749386Y-164277780D01*
X234825577Y-164315876D01*
X234901767Y-164392066D01*
X234939862Y-164506352D01*
X234939862Y-164696828D01*
X234939862Y-163477780D02*
X234939862Y-163934923D01*
X234939862Y-163706352D02*
X234139862Y-163706352D01*
X234254148Y-163782542D01*
X234330338Y-163858733D01*
X234368434Y-163934923D01*
X234939862Y-163096828D02*
X234939862Y-162944447D01*
X234901767Y-162868257D01*
X234863672Y-162830161D01*
X234749386Y-162753971D01*
X234597005Y-162715876D01*
X234292243Y-162715876D01*
X234216053Y-162753971D01*
X234177958Y-162792066D01*
X234139862Y-162868257D01*
X234139862Y-163020638D01*
X234177958Y-163096828D01*
X234216053Y-163134923D01*
X234292243Y-163173019D01*
X234482719Y-163173019D01*
X234558910Y-163134923D01*
X234597005Y-163096828D01*
X234635100Y-163020638D01*
X234635100Y-162868257D01*
X234597005Y-162792066D01*
X234558910Y-162753971D01*
X234482719Y-162715876D01*
X139939862Y-164315876D02*
X139139862Y-164315876D01*
X139139862Y-164125400D01*
X139177958Y-164011114D01*
X139254148Y-163934923D01*
X139330338Y-163896828D01*
X139482719Y-163858733D01*
X139597005Y-163858733D01*
X139749386Y-163896828D01*
X139825577Y-163934923D01*
X139901767Y-164011114D01*
X139939862Y-164125400D01*
X139939862Y-164315876D01*
X139482719Y-163401590D02*
X139444624Y-163477780D01*
X139406529Y-163515876D01*
X139330338Y-163553971D01*
X139292243Y-163553971D01*
X139216053Y-163515876D01*
X139177958Y-163477780D01*
X139139862Y-163401590D01*
X139139862Y-163249209D01*
X139177958Y-163173019D01*
X139216053Y-163134923D01*
X139292243Y-163096828D01*
X139330338Y-163096828D01*
X139406529Y-163134923D01*
X139444624Y-163173019D01*
X139482719Y-163249209D01*
X139482719Y-163401590D01*
X139520815Y-163477780D01*
X139558910Y-163515876D01*
X139635100Y-163553971D01*
X139787481Y-163553971D01*
X139863672Y-163515876D01*
X139901767Y-163477780D01*
X139939862Y-163401590D01*
X139939862Y-163249209D01*
X139901767Y-163173019D01*
X139863672Y-163134923D01*
X139787481Y-163096828D01*
X139635100Y-163096828D01*
X139558910Y-163134923D01*
X139520815Y-163173019D01*
X139482719Y-163249209D01*
X177939862Y-145696828D02*
X177139862Y-145696828D01*
X177139862Y-145506352D01*
X177177958Y-145392066D01*
X177254148Y-145315876D01*
X177330338Y-145277780D01*
X177482719Y-145239685D01*
X177597005Y-145239685D01*
X177749386Y-145277780D01*
X177825577Y-145315876D01*
X177901767Y-145392066D01*
X177939862Y-145506352D01*
X177939862Y-145696828D01*
X177939862Y-144477780D02*
X177939862Y-144934923D01*
X177939862Y-144706352D02*
X177139862Y-144706352D01*
X177254148Y-144782542D01*
X177330338Y-144858733D01*
X177368434Y-144934923D01*
X177139862Y-143753971D02*
X177139862Y-144134923D01*
X177520815Y-144173019D01*
X177482719Y-144134923D01*
X177444624Y-144058733D01*
X177444624Y-143868257D01*
X177482719Y-143792066D01*
X177520815Y-143753971D01*
X177597005Y-143715876D01*
X177787481Y-143715876D01*
X177863672Y-143753971D01*
X177901767Y-143792066D01*
X177939862Y-143868257D01*
X177939862Y-144058733D01*
X177901767Y-144134923D01*
X177863672Y-144173019D01*
X120939862Y-107215876D02*
X120139862Y-107215876D01*
X120139862Y-107025400D01*
X120177958Y-106911114D01*
X120254148Y-106834923D01*
X120330338Y-106796828D01*
X120482719Y-106758733D01*
X120597005Y-106758733D01*
X120749386Y-106796828D01*
X120825577Y-106834923D01*
X120901767Y-106911114D01*
X120939862Y-107025400D01*
X120939862Y-107215876D01*
X120939862Y-105996828D02*
X120939862Y-106453971D01*
X120939862Y-106225400D02*
X120139862Y-106225400D01*
X120254148Y-106301590D01*
X120330338Y-106377780D01*
X120368434Y-106453971D01*
X158939862Y-145696828D02*
X158139862Y-145696828D01*
X158139862Y-145506352D01*
X158177958Y-145392066D01*
X158254148Y-145315876D01*
X158330338Y-145277780D01*
X158482719Y-145239685D01*
X158597005Y-145239685D01*
X158749386Y-145277780D01*
X158825577Y-145315876D01*
X158901767Y-145392066D01*
X158939862Y-145506352D01*
X158939862Y-145696828D01*
X158939862Y-144477780D02*
X158939862Y-144934923D01*
X158939862Y-144706352D02*
X158139862Y-144706352D01*
X158254148Y-144782542D01*
X158330338Y-144858733D01*
X158368434Y-144934923D01*
X158939862Y-143715876D02*
X158939862Y-144173019D01*
X158939862Y-143944447D02*
X158139862Y-143944447D01*
X158254148Y-144020638D01*
X158330338Y-144096828D01*
X158368434Y-144173019D01*
X272939862Y-126696828D02*
X272139862Y-126696828D01*
X272139862Y-126506352D01*
X272177958Y-126392066D01*
X272254148Y-126315876D01*
X272330338Y-126277780D01*
X272482719Y-126239685D01*
X272597005Y-126239685D01*
X272749386Y-126277780D01*
X272825577Y-126315876D01*
X272901767Y-126392066D01*
X272939862Y-126506352D01*
X272939862Y-126696828D01*
X272216053Y-125934923D02*
X272177958Y-125896828D01*
X272139862Y-125820638D01*
X272139862Y-125630161D01*
X272177958Y-125553971D01*
X272216053Y-125515876D01*
X272292243Y-125477780D01*
X272368434Y-125477780D01*
X272482719Y-125515876D01*
X272939862Y-125973019D01*
X272939862Y-125477780D01*
X272139862Y-124753971D02*
X272139862Y-125134923D01*
X272520815Y-125173019D01*
X272482719Y-125134923D01*
X272444624Y-125058733D01*
X272444624Y-124868257D01*
X272482719Y-124792066D01*
X272520815Y-124753971D01*
X272597005Y-124715876D01*
X272787481Y-124715876D01*
X272863672Y-124753971D01*
X272901767Y-124792066D01*
X272939862Y-124868257D01*
X272939862Y-125058733D01*
X272901767Y-125134923D01*
X272863672Y-125173019D01*
X120939862Y-145315876D02*
X120139862Y-145315876D01*
X120139862Y-145125400D01*
X120177958Y-145011114D01*
X120254148Y-144934923D01*
X120330338Y-144896828D01*
X120482719Y-144858733D01*
X120597005Y-144858733D01*
X120749386Y-144896828D01*
X120825577Y-144934923D01*
X120901767Y-145011114D01*
X120939862Y-145125400D01*
X120939862Y-145315876D01*
X120139862Y-144592066D02*
X120139862Y-144096828D01*
X120444624Y-144363495D01*
X120444624Y-144249209D01*
X120482719Y-144173019D01*
X120520815Y-144134923D01*
X120597005Y-144096828D01*
X120787481Y-144096828D01*
X120863672Y-144134923D01*
X120901767Y-144173019D01*
X120939862Y-144249209D01*
X120939862Y-144477780D01*
X120901767Y-144553971D01*
X120863672Y-144592066D01*
X234939862Y-107196828D02*
X234139862Y-107196828D01*
X234139862Y-107006352D01*
X234177958Y-106892066D01*
X234254148Y-106815876D01*
X234330338Y-106777780D01*
X234482719Y-106739685D01*
X234597005Y-106739685D01*
X234749386Y-106777780D01*
X234825577Y-106815876D01*
X234901767Y-106892066D01*
X234939862Y-107006352D01*
X234939862Y-107196828D01*
X234939862Y-105977780D02*
X234939862Y-106434923D01*
X234939862Y-106206352D02*
X234139862Y-106206352D01*
X234254148Y-106282542D01*
X234330338Y-106358733D01*
X234368434Y-106434923D01*
X234139862Y-105711114D02*
X234139862Y-105177780D01*
X234939862Y-105520638D01*
X177939862Y-107196828D02*
X177139862Y-107196828D01*
X177139862Y-107006352D01*
X177177958Y-106892066D01*
X177254148Y-106815876D01*
X177330338Y-106777780D01*
X177482719Y-106739685D01*
X177597005Y-106739685D01*
X177749386Y-106777780D01*
X177825577Y-106815876D01*
X177901767Y-106892066D01*
X177939862Y-107006352D01*
X177939862Y-107196828D01*
X177939862Y-105977780D02*
X177939862Y-106434923D01*
X177939862Y-106206352D02*
X177139862Y-106206352D01*
X177254148Y-106282542D01*
X177330338Y-106358733D01*
X177368434Y-106434923D01*
X177139862Y-105711114D02*
X177139862Y-105215876D01*
X177444624Y-105482542D01*
X177444624Y-105368257D01*
X177482719Y-105292066D01*
X177520815Y-105253971D01*
X177597005Y-105215876D01*
X177787481Y-105215876D01*
X177863672Y-105253971D01*
X177901767Y-105292066D01*
X177939862Y-105368257D01*
X177939862Y-105596828D01*
X177901767Y-105673019D01*
X177863672Y-105711114D01*
X301381129Y-165661904D02*
X301381129Y-164861904D01*
X301571605Y-164861904D01*
X301685891Y-164900000D01*
X301762081Y-164976190D01*
X301800177Y-165052380D01*
X301838272Y-165204761D01*
X301838272Y-165319047D01*
X301800177Y-165471428D01*
X301762081Y-165547619D01*
X301685891Y-165623809D01*
X301571605Y-165661904D01*
X301381129Y-165661904D01*
X302143034Y-164938095D02*
X302181129Y-164900000D01*
X302257319Y-164861904D01*
X302447796Y-164861904D01*
X302523986Y-164900000D01*
X302562081Y-164938095D01*
X302600177Y-165014285D01*
X302600177Y-165090476D01*
X302562081Y-165204761D01*
X302104938Y-165661904D01*
X302600177Y-165661904D01*
X302981129Y-165661904D02*
X303133510Y-165661904D01*
X303209700Y-165623809D01*
X303247796Y-165585714D01*
X303323986Y-165471428D01*
X303362081Y-165319047D01*
X303362081Y-165014285D01*
X303323986Y-164938095D01*
X303285891Y-164900000D01*
X303209700Y-164861904D01*
X303057319Y-164861904D01*
X302981129Y-164900000D01*
X302943034Y-164938095D01*
X302904938Y-165014285D01*
X302904938Y-165204761D01*
X302943034Y-165280952D01*
X302981129Y-165319047D01*
X303057319Y-165357142D01*
X303209700Y-165357142D01*
X303285891Y-165319047D01*
X303323986Y-165280952D01*
X303362081Y-165204761D01*
X253939862Y-145696828D02*
X253139862Y-145696828D01*
X253139862Y-145506352D01*
X253177958Y-145392066D01*
X253254148Y-145315876D01*
X253330338Y-145277780D01*
X253482719Y-145239685D01*
X253597005Y-145239685D01*
X253749386Y-145277780D01*
X253825577Y-145315876D01*
X253901767Y-145392066D01*
X253939862Y-145506352D01*
X253939862Y-145696828D01*
X253216053Y-144934923D02*
X253177958Y-144896828D01*
X253139862Y-144820638D01*
X253139862Y-144630161D01*
X253177958Y-144553971D01*
X253216053Y-144515876D01*
X253292243Y-144477780D01*
X253368434Y-144477780D01*
X253482719Y-144515876D01*
X253939862Y-144973019D01*
X253939862Y-144477780D01*
X253216053Y-144173019D02*
X253177958Y-144134923D01*
X253139862Y-144058733D01*
X253139862Y-143868257D01*
X253177958Y-143792066D01*
X253216053Y-143753971D01*
X253292243Y-143715876D01*
X253368434Y-143715876D01*
X253482719Y-143753971D01*
X253939862Y-144211114D01*
X253939862Y-143715876D01*
X139939862Y-126315876D02*
X139139862Y-126315876D01*
X139139862Y-126125400D01*
X139177958Y-126011114D01*
X139254148Y-125934923D01*
X139330338Y-125896828D01*
X139482719Y-125858733D01*
X139597005Y-125858733D01*
X139749386Y-125896828D01*
X139825577Y-125934923D01*
X139901767Y-126011114D01*
X139939862Y-126125400D01*
X139939862Y-126315876D01*
X139139862Y-125173019D02*
X139139862Y-125325400D01*
X139177958Y-125401590D01*
X139216053Y-125439685D01*
X139330338Y-125515876D01*
X139482719Y-125553971D01*
X139787481Y-125553971D01*
X139863672Y-125515876D01*
X139901767Y-125477780D01*
X139939862Y-125401590D01*
X139939862Y-125249209D01*
X139901767Y-125173019D01*
X139863672Y-125134923D01*
X139787481Y-125096828D01*
X139597005Y-125096828D01*
X139520815Y-125134923D01*
X139482719Y-125173019D01*
X139444624Y-125249209D01*
X139444624Y-125401590D01*
X139482719Y-125477780D01*
X139520815Y-125515876D01*
X139597005Y-125553971D01*
X158939862Y-164696828D02*
X158139862Y-164696828D01*
X158139862Y-164506352D01*
X158177958Y-164392066D01*
X158254148Y-164315876D01*
X158330338Y-164277780D01*
X158482719Y-164239685D01*
X158597005Y-164239685D01*
X158749386Y-164277780D01*
X158825577Y-164315876D01*
X158901767Y-164392066D01*
X158939862Y-164506352D01*
X158939862Y-164696828D01*
X158939862Y-163477780D02*
X158939862Y-163934923D01*
X158939862Y-163706352D02*
X158139862Y-163706352D01*
X158254148Y-163782542D01*
X158330338Y-163858733D01*
X158368434Y-163934923D01*
X158216053Y-163173019D02*
X158177958Y-163134923D01*
X158139862Y-163058733D01*
X158139862Y-162868257D01*
X158177958Y-162792066D01*
X158216053Y-162753971D01*
X158292243Y-162715876D01*
X158368434Y-162715876D01*
X158482719Y-162753971D01*
X158939862Y-163211114D01*
X158939862Y-162715876D01*
X120939862Y-164315876D02*
X120139862Y-164315876D01*
X120139862Y-164125400D01*
X120177958Y-164011114D01*
X120254148Y-163934923D01*
X120330338Y-163896828D01*
X120482719Y-163858733D01*
X120597005Y-163858733D01*
X120749386Y-163896828D01*
X120825577Y-163934923D01*
X120901767Y-164011114D01*
X120939862Y-164125400D01*
X120939862Y-164315876D01*
X120406529Y-163173019D02*
X120939862Y-163173019D01*
X120101767Y-163363495D02*
X120673196Y-163553971D01*
X120673196Y-163058733D01*
X272939862Y-164696828D02*
X272139862Y-164696828D01*
X272139862Y-164506352D01*
X272177958Y-164392066D01*
X272254148Y-164315876D01*
X272330338Y-164277780D01*
X272482719Y-164239685D01*
X272597005Y-164239685D01*
X272749386Y-164277780D01*
X272825577Y-164315876D01*
X272901767Y-164392066D01*
X272939862Y-164506352D01*
X272939862Y-164696828D01*
X272216053Y-163934923D02*
X272177958Y-163896828D01*
X272139862Y-163820638D01*
X272139862Y-163630161D01*
X272177958Y-163553971D01*
X272216053Y-163515876D01*
X272292243Y-163477780D01*
X272368434Y-163477780D01*
X272482719Y-163515876D01*
X272939862Y-163973019D01*
X272939862Y-163477780D01*
X272139862Y-162792066D02*
X272139862Y-162944447D01*
X272177958Y-163020638D01*
X272216053Y-163058733D01*
X272330338Y-163134923D01*
X272482719Y-163173019D01*
X272787481Y-163173019D01*
X272863672Y-163134923D01*
X272901767Y-163096828D01*
X272939862Y-163020638D01*
X272939862Y-162868257D01*
X272901767Y-162792066D01*
X272863672Y-162753971D01*
X272787481Y-162715876D01*
X272597005Y-162715876D01*
X272520815Y-162753971D01*
X272482719Y-162792066D01*
X272444624Y-162868257D01*
X272444624Y-163020638D01*
X272482719Y-163096828D01*
X272520815Y-163134923D01*
X272597005Y-163173019D01*
X177939862Y-164696828D02*
X177139862Y-164696828D01*
X177139862Y-164506352D01*
X177177958Y-164392066D01*
X177254148Y-164315876D01*
X177330338Y-164277780D01*
X177482719Y-164239685D01*
X177597005Y-164239685D01*
X177749386Y-164277780D01*
X177825577Y-164315876D01*
X177901767Y-164392066D01*
X177939862Y-164506352D01*
X177939862Y-164696828D01*
X177939862Y-163477780D02*
X177939862Y-163934923D01*
X177939862Y-163706352D02*
X177139862Y-163706352D01*
X177254148Y-163782542D01*
X177330338Y-163858733D01*
X177368434Y-163934923D01*
X177139862Y-162792066D02*
X177139862Y-162944447D01*
X177177958Y-163020638D01*
X177216053Y-163058733D01*
X177330338Y-163134923D01*
X177482719Y-163173019D01*
X177787481Y-163173019D01*
X177863672Y-163134923D01*
X177901767Y-163096828D01*
X177939862Y-163020638D01*
X177939862Y-162868257D01*
X177901767Y-162792066D01*
X177863672Y-162753971D01*
X177787481Y-162715876D01*
X177597005Y-162715876D01*
X177520815Y-162753971D01*
X177482719Y-162792066D01*
X177444624Y-162868257D01*
X177444624Y-163020638D01*
X177482719Y-163096828D01*
X177520815Y-163134923D01*
X177597005Y-163173019D01*
X139939862Y-145315876D02*
X139139862Y-145315876D01*
X139139862Y-145125400D01*
X139177958Y-145011114D01*
X139254148Y-144934923D01*
X139330338Y-144896828D01*
X139482719Y-144858733D01*
X139597005Y-144858733D01*
X139749386Y-144896828D01*
X139825577Y-144934923D01*
X139901767Y-145011114D01*
X139939862Y-145125400D01*
X139939862Y-145315876D01*
X139139862Y-144592066D02*
X139139862Y-144058733D01*
X139939862Y-144401590D01*
X253939862Y-107196828D02*
X253139862Y-107196828D01*
X253139862Y-107006352D01*
X253177958Y-106892066D01*
X253254148Y-106815876D01*
X253330338Y-106777780D01*
X253482719Y-106739685D01*
X253597005Y-106739685D01*
X253749386Y-106777780D01*
X253825577Y-106815876D01*
X253901767Y-106892066D01*
X253939862Y-107006352D01*
X253939862Y-107196828D01*
X253216053Y-106434923D02*
X253177958Y-106396828D01*
X253139862Y-106320638D01*
X253139862Y-106130161D01*
X253177958Y-106053971D01*
X253216053Y-106015876D01*
X253292243Y-105977780D01*
X253368434Y-105977780D01*
X253482719Y-106015876D01*
X253939862Y-106473019D01*
X253939862Y-105977780D01*
X253139862Y-105482542D02*
X253139862Y-105406352D01*
X253177958Y-105330161D01*
X253216053Y-105292066D01*
X253292243Y-105253971D01*
X253444624Y-105215876D01*
X253635100Y-105215876D01*
X253787481Y-105253971D01*
X253863672Y-105292066D01*
X253901767Y-105330161D01*
X253939862Y-105406352D01*
X253939862Y-105482542D01*
X253901767Y-105558733D01*
X253863672Y-105596828D01*
X253787481Y-105634923D01*
X253635100Y-105673019D01*
X253444624Y-105673019D01*
X253292243Y-105634923D01*
X253216053Y-105596828D01*
X253177958Y-105558733D01*
X253139862Y-105482542D01*
X234939862Y-126696828D02*
X234139862Y-126696828D01*
X234139862Y-126506352D01*
X234177958Y-126392066D01*
X234254148Y-126315876D01*
X234330338Y-126277780D01*
X234482719Y-126239685D01*
X234597005Y-126239685D01*
X234749386Y-126277780D01*
X234825577Y-126315876D01*
X234901767Y-126392066D01*
X234939862Y-126506352D01*
X234939862Y-126696828D01*
X234939862Y-125477780D02*
X234939862Y-125934923D01*
X234939862Y-125706352D02*
X234139862Y-125706352D01*
X234254148Y-125782542D01*
X234330338Y-125858733D01*
X234368434Y-125934923D01*
X234482719Y-125020638D02*
X234444624Y-125096828D01*
X234406529Y-125134923D01*
X234330338Y-125173019D01*
X234292243Y-125173019D01*
X234216053Y-125134923D01*
X234177958Y-125096828D01*
X234139862Y-125020638D01*
X234139862Y-124868257D01*
X234177958Y-124792066D01*
X234216053Y-124753971D01*
X234292243Y-124715876D01*
X234330338Y-124715876D01*
X234406529Y-124753971D01*
X234444624Y-124792066D01*
X234482719Y-124868257D01*
X234482719Y-125020638D01*
X234520815Y-125096828D01*
X234558910Y-125134923D01*
X234635100Y-125173019D01*
X234787481Y-125173019D01*
X234863672Y-125134923D01*
X234901767Y-125096828D01*
X234939862Y-125020638D01*
X234939862Y-124868257D01*
X234901767Y-124792066D01*
X234863672Y-124753971D01*
X234787481Y-124715876D01*
X234635100Y-124715876D01*
X234558910Y-124753971D01*
X234520815Y-124792066D01*
X234482719Y-124868257D01*
X120939862Y-126415876D02*
X120139862Y-126415876D01*
X120139862Y-126225400D01*
X120177958Y-126111114D01*
X120254148Y-126034923D01*
X120330338Y-125996828D01*
X120482719Y-125958733D01*
X120597005Y-125958733D01*
X120749386Y-125996828D01*
X120825577Y-126034923D01*
X120901767Y-126111114D01*
X120939862Y-126225400D01*
X120939862Y-126415876D01*
X120216053Y-125653971D02*
X120177958Y-125615876D01*
X120139862Y-125539685D01*
X120139862Y-125349209D01*
X120177958Y-125273019D01*
X120216053Y-125234923D01*
X120292243Y-125196828D01*
X120368434Y-125196828D01*
X120482719Y-125234923D01*
X120939862Y-125692066D01*
X120939862Y-125196828D01*
X158939862Y-106815876D02*
X158139862Y-106815876D01*
X158139862Y-106625400D01*
X158177958Y-106511114D01*
X158254148Y-106434923D01*
X158330338Y-106396828D01*
X158482719Y-106358733D01*
X158597005Y-106358733D01*
X158749386Y-106396828D01*
X158825577Y-106434923D01*
X158901767Y-106511114D01*
X158939862Y-106625400D01*
X158939862Y-106815876D01*
X158939862Y-105977780D02*
X158939862Y-105825400D01*
X158901767Y-105749209D01*
X158863672Y-105711114D01*
X158749386Y-105634923D01*
X158597005Y-105596828D01*
X158292243Y-105596828D01*
X158216053Y-105634923D01*
X158177958Y-105673019D01*
X158139862Y-105749209D01*
X158139862Y-105901590D01*
X158177958Y-105977780D01*
X158216053Y-106015876D01*
X158292243Y-106053971D01*
X158482719Y-106053971D01*
X158558910Y-106015876D01*
X158597005Y-105977780D01*
X158635100Y-105901590D01*
X158635100Y-105749209D01*
X158597005Y-105673019D01*
X158558910Y-105634923D01*
X158482719Y-105596828D01*
X272939862Y-107196828D02*
X272139862Y-107196828D01*
X272139862Y-107006352D01*
X272177958Y-106892066D01*
X272254148Y-106815876D01*
X272330338Y-106777780D01*
X272482719Y-106739685D01*
X272597005Y-106739685D01*
X272749386Y-106777780D01*
X272825577Y-106815876D01*
X272901767Y-106892066D01*
X272939862Y-107006352D01*
X272939862Y-107196828D01*
X272216053Y-106434923D02*
X272177958Y-106396828D01*
X272139862Y-106320638D01*
X272139862Y-106130161D01*
X272177958Y-106053971D01*
X272216053Y-106015876D01*
X272292243Y-105977780D01*
X272368434Y-105977780D01*
X272482719Y-106015876D01*
X272939862Y-106473019D01*
X272939862Y-105977780D01*
X272406529Y-105292066D02*
X272939862Y-105292066D01*
X272101767Y-105482542D02*
X272673196Y-105673019D01*
X272673196Y-105177780D01*
X206439862Y-164696828D02*
X205639862Y-164696828D01*
X205639862Y-164506352D01*
X205677958Y-164392066D01*
X205754148Y-164315876D01*
X205830338Y-164277780D01*
X205982719Y-164239685D01*
X206097005Y-164239685D01*
X206249386Y-164277780D01*
X206325577Y-164315876D01*
X206401767Y-164392066D01*
X206439862Y-164506352D01*
X206439862Y-164696828D01*
X205716053Y-163934923D02*
X205677958Y-163896828D01*
X205639862Y-163820638D01*
X205639862Y-163630161D01*
X205677958Y-163553971D01*
X205716053Y-163515876D01*
X205792243Y-163477780D01*
X205868434Y-163477780D01*
X205982719Y-163515876D01*
X206439862Y-163973019D01*
X206439862Y-163477780D01*
X205982719Y-163020638D02*
X205944624Y-163096828D01*
X205906529Y-163134923D01*
X205830338Y-163173019D01*
X205792243Y-163173019D01*
X205716053Y-163134923D01*
X205677958Y-163096828D01*
X205639862Y-163020638D01*
X205639862Y-162868257D01*
X205677958Y-162792066D01*
X205716053Y-162753971D01*
X205792243Y-162715876D01*
X205830338Y-162715876D01*
X205906529Y-162753971D01*
X205944624Y-162792066D01*
X205982719Y-162868257D01*
X205982719Y-163020638D01*
X206020815Y-163096828D01*
X206058910Y-163134923D01*
X206135100Y-163173019D01*
X206287481Y-163173019D01*
X206363672Y-163134923D01*
X206401767Y-163096828D01*
X206439862Y-163020638D01*
X206439862Y-162868257D01*
X206401767Y-162792066D01*
X206363672Y-162753971D01*
X206287481Y-162715876D01*
X206135100Y-162715876D01*
X206058910Y-162753971D01*
X206020815Y-162792066D01*
X205982719Y-162868257D01*
X177939862Y-126696828D02*
X177139862Y-126696828D01*
X177139862Y-126506352D01*
X177177958Y-126392066D01*
X177254148Y-126315876D01*
X177330338Y-126277780D01*
X177482719Y-126239685D01*
X177597005Y-126239685D01*
X177749386Y-126277780D01*
X177825577Y-126315876D01*
X177901767Y-126392066D01*
X177939862Y-126506352D01*
X177939862Y-126696828D01*
X177939862Y-125477780D02*
X177939862Y-125934923D01*
X177939862Y-125706352D02*
X177139862Y-125706352D01*
X177254148Y-125782542D01*
X177330338Y-125858733D01*
X177368434Y-125934923D01*
X177406529Y-124792066D02*
X177939862Y-124792066D01*
X177101767Y-124982542D02*
X177673196Y-125173019D01*
X177673196Y-124677780D01*
X158939862Y-126696828D02*
X158139862Y-126696828D01*
X158139862Y-126506352D01*
X158177958Y-126392066D01*
X158254148Y-126315876D01*
X158330338Y-126277780D01*
X158482719Y-126239685D01*
X158597005Y-126239685D01*
X158749386Y-126277780D01*
X158825577Y-126315876D01*
X158901767Y-126392066D01*
X158939862Y-126506352D01*
X158939862Y-126696828D01*
X158939862Y-125477780D02*
X158939862Y-125934923D01*
X158939862Y-125706352D02*
X158139862Y-125706352D01*
X158254148Y-125782542D01*
X158330338Y-125858733D01*
X158368434Y-125934923D01*
X158139862Y-124982542D02*
X158139862Y-124906352D01*
X158177958Y-124830161D01*
X158216053Y-124792066D01*
X158292243Y-124753971D01*
X158444624Y-124715876D01*
X158635100Y-124715876D01*
X158787481Y-124753971D01*
X158863672Y-124792066D01*
X158901767Y-124830161D01*
X158939862Y-124906352D01*
X158939862Y-124982542D01*
X158901767Y-125058733D01*
X158863672Y-125096828D01*
X158787481Y-125134923D01*
X158635100Y-125173019D01*
X158444624Y-125173019D01*
X158292243Y-125134923D01*
X158216053Y-125096828D01*
X158177958Y-125058733D01*
X158139862Y-124982542D01*
X253939862Y-164796828D02*
X253139862Y-164796828D01*
X253139862Y-164606352D01*
X253177958Y-164492066D01*
X253254148Y-164415876D01*
X253330338Y-164377780D01*
X253482719Y-164339685D01*
X253597005Y-164339685D01*
X253749386Y-164377780D01*
X253825577Y-164415876D01*
X253901767Y-164492066D01*
X253939862Y-164606352D01*
X253939862Y-164796828D01*
X253216053Y-164034923D02*
X253177958Y-163996828D01*
X253139862Y-163920638D01*
X253139862Y-163730161D01*
X253177958Y-163653971D01*
X253216053Y-163615876D01*
X253292243Y-163577780D01*
X253368434Y-163577780D01*
X253482719Y-163615876D01*
X253939862Y-164073019D01*
X253939862Y-163577780D01*
X253139862Y-163311114D02*
X253139862Y-162815876D01*
X253444624Y-163082542D01*
X253444624Y-162968257D01*
X253482719Y-162892066D01*
X253520815Y-162853971D01*
X253597005Y-162815876D01*
X253787481Y-162815876D01*
X253863672Y-162853971D01*
X253901767Y-162892066D01*
X253939862Y-162968257D01*
X253939862Y-163196828D01*
X253901767Y-163273019D01*
X253863672Y-163311114D01*
X253939862Y-126696828D02*
X253139862Y-126696828D01*
X253139862Y-126506352D01*
X253177958Y-126392066D01*
X253254148Y-126315876D01*
X253330338Y-126277780D01*
X253482719Y-126239685D01*
X253597005Y-126239685D01*
X253749386Y-126277780D01*
X253825577Y-126315876D01*
X253901767Y-126392066D01*
X253939862Y-126506352D01*
X253939862Y-126696828D01*
X253216053Y-125934923D02*
X253177958Y-125896828D01*
X253139862Y-125820638D01*
X253139862Y-125630161D01*
X253177958Y-125553971D01*
X253216053Y-125515876D01*
X253292243Y-125477780D01*
X253368434Y-125477780D01*
X253482719Y-125515876D01*
X253939862Y-125973019D01*
X253939862Y-125477780D01*
X253939862Y-124715876D02*
X253939862Y-125173019D01*
X253939862Y-124944447D02*
X253139862Y-124944447D01*
X253254148Y-125020638D01*
X253330338Y-125096828D01*
X253368434Y-125173019D01*
X139939862Y-107215876D02*
X139139862Y-107215876D01*
X139139862Y-107025400D01*
X139177958Y-106911114D01*
X139254148Y-106834923D01*
X139330338Y-106796828D01*
X139482719Y-106758733D01*
X139597005Y-106758733D01*
X139749386Y-106796828D01*
X139825577Y-106834923D01*
X139901767Y-106911114D01*
X139939862Y-107025400D01*
X139939862Y-107215876D01*
X139139862Y-106034923D02*
X139139862Y-106415876D01*
X139520815Y-106453971D01*
X139482719Y-106415876D01*
X139444624Y-106339685D01*
X139444624Y-106149209D01*
X139482719Y-106073019D01*
X139520815Y-106034923D01*
X139597005Y-105996828D01*
X139787481Y-105996828D01*
X139863672Y-106034923D01*
X139901767Y-106073019D01*
X139939862Y-106149209D01*
X139939862Y-106339685D01*
X139901767Y-106415876D01*
X139863672Y-106453971D01*
D12*
X157462958Y-118715000D02*
X157462958Y-132685000D01*
X157462958Y-132685000D02*
X143492958Y-132685000D01*
X143492958Y-132685000D02*
X143492958Y-118715000D01*
X143492958Y-118715000D02*
X157462958Y-118715000D01*
X119462958Y-132685000D02*
X105492958Y-132685000D01*
X119462958Y-118715000D02*
X119462958Y-132685000D01*
X105492958Y-118715000D02*
X119462958Y-118715000D01*
X105492958Y-132685000D02*
X105492958Y-118715000D01*
X305477958Y-158200000D02*
G75*
G03*
X305477958Y-158200000I-3000000J0D01*
G01*
X301977958Y-158200000D02*
X302977958Y-158200000D01*
X296377958Y-152300000D02*
X296377958Y-164100000D01*
X308577958Y-156900000D02*
X308577958Y-159500000D01*
X300477958Y-152300000D02*
X296377958Y-152300000D01*
X304477958Y-152300000D02*
X308577958Y-152300000D01*
X300477958Y-164100000D02*
X296377958Y-164100000D01*
X295277958Y-154100000D02*
X294977958Y-154400000D01*
X302477958Y-157700000D02*
X302477958Y-158700000D01*
X294977958Y-154400000D02*
X294677958Y-154100000D01*
X294677958Y-154100000D02*
X295277958Y-154100000D01*
X308577958Y-161700000D02*
X308577958Y-164100000D01*
X308577958Y-152300000D02*
X308577958Y-154700000D01*
X308577958Y-164100000D02*
X304477958Y-164100000D01*
X124492958Y-113685000D02*
X124492958Y-99715000D01*
X138462958Y-99715000D02*
X138462958Y-113685000D01*
X124492958Y-99715000D02*
X138462958Y-99715000D01*
X138462958Y-113685000D02*
X124492958Y-113685000D01*
X162492958Y-99715000D02*
X176462958Y-99715000D01*
X176462958Y-99715000D02*
X176462958Y-113685000D01*
X176462958Y-113685000D02*
X162492958Y-113685000D01*
X162492958Y-113685000D02*
X162492958Y-99715000D01*
X162492958Y-156715000D02*
X176462958Y-156715000D01*
X176462958Y-170685000D02*
X162492958Y-170685000D01*
X162492958Y-170685000D02*
X162492958Y-156715000D01*
X176462958Y-156715000D02*
X176462958Y-170685000D01*
X157462958Y-156715000D02*
X157462958Y-170685000D01*
X143492958Y-170685000D02*
X143492958Y-156715000D01*
X157462958Y-170685000D02*
X143492958Y-170685000D01*
X143492958Y-156715000D02*
X157462958Y-156715000D01*
X157462958Y-151685000D02*
X143492958Y-151685000D01*
X157462958Y-137715000D02*
X157462958Y-151685000D01*
X143492958Y-151685000D02*
X143492958Y-137715000D01*
X143492958Y-137715000D02*
X157462958Y-137715000D01*
X157462958Y-113685000D02*
X143492958Y-113685000D01*
X157462958Y-99715000D02*
X157462958Y-113685000D01*
X143492958Y-113685000D02*
X143492958Y-99715000D01*
X143492958Y-99715000D02*
X157462958Y-99715000D01*
X119462958Y-170685000D02*
X105492958Y-170685000D01*
X119462958Y-156715000D02*
X119462958Y-170685000D01*
X105492958Y-170685000D02*
X105492958Y-156715000D01*
X105492958Y-156715000D02*
X119462958Y-156715000D01*
X176462958Y-132685000D02*
X162492958Y-132685000D01*
X176462958Y-118715000D02*
X176462958Y-132685000D01*
X162492958Y-132685000D02*
X162492958Y-118715000D01*
X162492958Y-118715000D02*
X176462958Y-118715000D01*
X162492958Y-151685000D02*
X162492958Y-137715000D01*
X176462958Y-151685000D02*
X162492958Y-151685000D01*
X162492958Y-137715000D02*
X176462958Y-137715000D01*
X176462958Y-137715000D02*
X176462958Y-151685000D01*
X138462958Y-151685000D02*
X124492958Y-151685000D01*
X138462958Y-137715000D02*
X138462958Y-151685000D01*
X124492958Y-137715000D02*
X138462958Y-137715000D01*
X124492958Y-151685000D02*
X124492958Y-137715000D01*
X271462958Y-170685000D02*
X257492958Y-170685000D01*
X271462958Y-156715000D02*
X271462958Y-170685000D01*
X257492958Y-170685000D02*
X257492958Y-156715000D01*
X257492958Y-156715000D02*
X271462958Y-156715000D01*
X233462958Y-99715000D02*
X233462958Y-113685000D01*
X219492958Y-99715000D02*
X233462958Y-99715000D01*
X219492958Y-113685000D02*
X219492958Y-99715000D01*
X233462958Y-113685000D02*
X219492958Y-113685000D01*
X105492958Y-151685000D02*
X105492958Y-137715000D01*
X119462958Y-137715000D02*
X119462958Y-151685000D01*
X119462958Y-151685000D02*
X105492958Y-151685000D01*
X105492958Y-137715000D02*
X119462958Y-137715000D01*
X257492958Y-118715000D02*
X271462958Y-118715000D01*
X271462958Y-132685000D02*
X257492958Y-132685000D01*
X271462958Y-118715000D02*
X271462958Y-132685000D01*
X257492958Y-132685000D02*
X257492958Y-118715000D01*
X238492958Y-170685000D02*
X238492958Y-156715000D01*
X238492958Y-156715000D02*
X252462958Y-156715000D01*
X252462958Y-170685000D02*
X238492958Y-170685000D01*
X252462958Y-156715000D02*
X252462958Y-170685000D01*
X238492958Y-137715000D02*
X252462958Y-137715000D01*
X252462958Y-151685000D02*
X238492958Y-151685000D01*
X252462958Y-137715000D02*
X252462958Y-151685000D01*
X238492958Y-151685000D02*
X238492958Y-137715000D01*
X252462958Y-113685000D02*
X238492958Y-113685000D01*
X238492958Y-113685000D02*
X238492958Y-99715000D01*
X238492958Y-99715000D02*
X252462958Y-99715000D01*
X252462958Y-99715000D02*
X252462958Y-113685000D01*
X305477958Y-106700000D02*
G75*
G03*
X305477958Y-106700000I-3000000J0D01*
G01*
X308577958Y-105400000D02*
X308577958Y-108000000D01*
X294977958Y-102900000D02*
X294677958Y-102600000D01*
X308577958Y-100800000D02*
X308577958Y-103200000D01*
X295277958Y-102600000D02*
X294977958Y-102900000D01*
X304477958Y-100800000D02*
X308577958Y-100800000D01*
X308577958Y-110200000D02*
X308577958Y-112600000D01*
X301977958Y-106700000D02*
X302977958Y-106700000D01*
X302477958Y-106200000D02*
X302477958Y-107200000D01*
X308577958Y-112600000D02*
X304477958Y-112600000D01*
X294677958Y-102600000D02*
X295277958Y-102600000D01*
X296377958Y-100800000D02*
X296377958Y-112600000D01*
X300477958Y-112600000D02*
X296377958Y-112600000D01*
X300477958Y-100800000D02*
X296377958Y-100800000D01*
X271462958Y-113685000D02*
X257492958Y-113685000D01*
X257492958Y-113685000D02*
X257492958Y-99715000D01*
X271462958Y-99715000D02*
X271462958Y-113685000D01*
X257492958Y-99715000D02*
X271462958Y-99715000D01*
X204962958Y-170685000D02*
X190992958Y-170685000D01*
X190992958Y-170685000D02*
X190992958Y-156715000D01*
X190992958Y-156715000D02*
X204962958Y-156715000D01*
X204962958Y-156715000D02*
X204962958Y-170685000D01*
X124492958Y-156715000D02*
X138462958Y-156715000D01*
X138462958Y-156715000D02*
X138462958Y-170685000D01*
X138462958Y-170685000D02*
X124492958Y-170685000D01*
X124492958Y-170685000D02*
X124492958Y-156715000D01*
X124492958Y-118715000D02*
X138462958Y-118715000D01*
X138462958Y-132685000D02*
X124492958Y-132685000D01*
X138462958Y-118715000D02*
X138462958Y-132685000D01*
X124492958Y-132685000D02*
X124492958Y-118715000D01*
X219492958Y-132685000D02*
X219492958Y-118715000D01*
X233462958Y-132685000D02*
X219492958Y-132685000D01*
X219492958Y-118715000D02*
X233462958Y-118715000D01*
X233462958Y-118715000D02*
X233462958Y-132685000D01*
X105492958Y-113685000D02*
X105492958Y-99715000D01*
X119462958Y-113685000D02*
X105492958Y-113685000D01*
X105492958Y-99715000D02*
X119462958Y-99715000D01*
X119462958Y-99715000D02*
X119462958Y-113685000D01*
X252462958Y-132685000D02*
X238492958Y-132685000D01*
X238492958Y-132685000D02*
X238492958Y-118715000D01*
X252462958Y-118715000D02*
X252462958Y-132685000D01*
X238492958Y-118715000D02*
X252462958Y-118715000D01*
X209577958Y-99320000D02*
X207877958Y-99320000D01*
X206577958Y-99320000D02*
X206377958Y-99320000D01*
X211427958Y-98270000D02*
X211427958Y-97480000D01*
X209377958Y-95180000D02*
X209177958Y-94970000D01*
X208077958Y-95180000D02*
X208277958Y-94970000D01*
X209177958Y-94970000D02*
X208277958Y-94970000D01*
X204527958Y-97480000D02*
X204527958Y-98270000D01*
X208077958Y-95180000D02*
X208077958Y-96470000D01*
X209377958Y-96470000D02*
X209377958Y-95180000D01*
X210827958Y-96470000D02*
X205127958Y-96470000D01*
X219492958Y-170685000D02*
X219492958Y-156715000D01*
X233462958Y-170685000D02*
X219492958Y-170685000D01*
X219492958Y-156715000D02*
X233462958Y-156715000D01*
X233462958Y-156715000D02*
X233462958Y-170685000D01*
D11*
X304617958Y-115962000D02*
X299537958Y-115962000D01*
X303855958Y-114438000D02*
X303855958Y-115962000D01*
X304617958Y-114438000D02*
X304617958Y-115962000D01*
X299537958Y-114438000D02*
X304617958Y-114438000D01*
X299537958Y-115962000D02*
X299537958Y-114438000D01*
X304236958Y-114438000D02*
X304236958Y-115962000D01*
X304490958Y-114438000D02*
X304490958Y-115962000D01*
X303982958Y-114438000D02*
X303982958Y-115962000D01*
X304363958Y-115962000D02*
X304363958Y-114438000D01*
X304109958Y-115962000D02*
X304109958Y-114438000D01*
X235215958Y-161795000D02*
X236739958Y-161795000D01*
X235215958Y-161160000D02*
X236739958Y-161160000D01*
X236739958Y-161414000D02*
X235215958Y-161414000D01*
X236739958Y-161160000D02*
X236739958Y-166240000D01*
X236739958Y-166240000D02*
X235215958Y-166240000D01*
X236739958Y-161668000D02*
X235215958Y-161668000D01*
X235215958Y-161287000D02*
X236739958Y-161287000D01*
X235215958Y-161922000D02*
X236739958Y-161922000D01*
X235215958Y-166240000D02*
X235215958Y-161160000D01*
X235215958Y-161541000D02*
X236739958Y-161541000D01*
X141739958Y-161668000D02*
X140215958Y-161668000D01*
X140215958Y-161160000D02*
X141739958Y-161160000D01*
X141739958Y-166240000D02*
X140215958Y-166240000D01*
X140215958Y-161795000D02*
X141739958Y-161795000D01*
X141739958Y-161160000D02*
X141739958Y-166240000D01*
X141739958Y-161414000D02*
X140215958Y-161414000D01*
X140215958Y-161287000D02*
X141739958Y-161287000D01*
X140215958Y-166240000D02*
X140215958Y-161160000D01*
X140215958Y-161922000D02*
X141739958Y-161922000D01*
X140215958Y-161541000D02*
X141739958Y-161541000D01*
X178215958Y-147240000D02*
X178215958Y-142160000D01*
X178215958Y-142160000D02*
X179739958Y-142160000D01*
X178215958Y-142795000D02*
X179739958Y-142795000D01*
X178215958Y-142541000D02*
X179739958Y-142541000D01*
X179739958Y-142668000D02*
X178215958Y-142668000D01*
X179739958Y-142160000D02*
X179739958Y-147240000D01*
X178215958Y-142922000D02*
X179739958Y-142922000D01*
X179739958Y-147240000D02*
X178215958Y-147240000D01*
X179739958Y-142414000D02*
X178215958Y-142414000D01*
X178215958Y-142287000D02*
X179739958Y-142287000D01*
X121215958Y-104822000D02*
X122739958Y-104822000D01*
X121215958Y-104060000D02*
X122739958Y-104060000D01*
X122739958Y-104568000D02*
X121215958Y-104568000D01*
X122739958Y-109140000D02*
X121215958Y-109140000D01*
X122739958Y-104060000D02*
X122739958Y-109140000D01*
X121215958Y-104441000D02*
X122739958Y-104441000D01*
X121215958Y-104187000D02*
X122739958Y-104187000D01*
X121215958Y-109140000D02*
X121215958Y-104060000D01*
X121215958Y-104695000D02*
X122739958Y-104695000D01*
X122739958Y-104314000D02*
X121215958Y-104314000D01*
X159215958Y-142795000D02*
X160739958Y-142795000D01*
X159215958Y-142922000D02*
X160739958Y-142922000D01*
X160739958Y-142414000D02*
X159215958Y-142414000D01*
X159215958Y-142160000D02*
X160739958Y-142160000D01*
X160739958Y-142668000D02*
X159215958Y-142668000D01*
X160739958Y-142160000D02*
X160739958Y-147240000D01*
X160739958Y-147240000D02*
X159215958Y-147240000D01*
X159215958Y-147240000D02*
X159215958Y-142160000D01*
X159215958Y-142541000D02*
X160739958Y-142541000D01*
X159215958Y-142287000D02*
X160739958Y-142287000D01*
X274739958Y-128240000D02*
X273215958Y-128240000D01*
X273215958Y-123287000D02*
X274739958Y-123287000D01*
X274739958Y-123160000D02*
X274739958Y-128240000D01*
X273215958Y-123541000D02*
X274739958Y-123541000D01*
X274739958Y-123414000D02*
X273215958Y-123414000D01*
X273215958Y-128240000D02*
X273215958Y-123160000D01*
X273215958Y-123160000D02*
X274739958Y-123160000D01*
X273215958Y-123795000D02*
X274739958Y-123795000D01*
X273215958Y-123922000D02*
X274739958Y-123922000D01*
X274739958Y-123668000D02*
X273215958Y-123668000D01*
X121215958Y-142160000D02*
X122739958Y-142160000D01*
X122739958Y-142414000D02*
X121215958Y-142414000D01*
X121215958Y-142922000D02*
X122739958Y-142922000D01*
X122739958Y-142668000D02*
X121215958Y-142668000D01*
X122739958Y-147240000D02*
X121215958Y-147240000D01*
X121215958Y-142287000D02*
X122739958Y-142287000D01*
X121215958Y-142795000D02*
X122739958Y-142795000D01*
X121215958Y-147240000D02*
X121215958Y-142160000D01*
X121215958Y-142541000D02*
X122739958Y-142541000D01*
X122739958Y-142160000D02*
X122739958Y-147240000D01*
X235215958Y-104041000D02*
X236739958Y-104041000D01*
X235215958Y-108740000D02*
X235215958Y-103660000D01*
X236739958Y-103660000D02*
X236739958Y-108740000D01*
X235215958Y-104422000D02*
X236739958Y-104422000D01*
X235215958Y-103660000D02*
X236739958Y-103660000D01*
X235215958Y-103787000D02*
X236739958Y-103787000D01*
X235215958Y-104295000D02*
X236739958Y-104295000D01*
X236739958Y-104168000D02*
X235215958Y-104168000D01*
X236739958Y-108740000D02*
X235215958Y-108740000D01*
X236739958Y-103914000D02*
X235215958Y-103914000D01*
X179739958Y-103914000D02*
X178215958Y-103914000D01*
X179739958Y-108740000D02*
X178215958Y-108740000D01*
X178215958Y-103787000D02*
X179739958Y-103787000D01*
X179739958Y-104168000D02*
X178215958Y-104168000D01*
X178215958Y-108740000D02*
X178215958Y-103660000D01*
X179739958Y-103660000D02*
X179739958Y-108740000D01*
X178215958Y-104422000D02*
X179739958Y-104422000D01*
X178215958Y-103660000D02*
X179739958Y-103660000D01*
X178215958Y-104041000D02*
X179739958Y-104041000D01*
X178215958Y-104295000D02*
X179739958Y-104295000D01*
X299837958Y-167462000D02*
X299837958Y-165938000D01*
X304917958Y-167462000D02*
X299837958Y-167462000D01*
X304282958Y-165938000D02*
X304282958Y-167462000D01*
X299837958Y-165938000D02*
X304917958Y-165938000D01*
X304663958Y-167462000D02*
X304663958Y-165938000D01*
X304790958Y-165938000D02*
X304790958Y-167462000D01*
X304536958Y-165938000D02*
X304536958Y-167462000D01*
X304155958Y-165938000D02*
X304155958Y-167462000D01*
X304917958Y-165938000D02*
X304917958Y-167462000D01*
X304409958Y-167462000D02*
X304409958Y-165938000D01*
X254215958Y-142541000D02*
X255739958Y-142541000D01*
X254215958Y-142922000D02*
X255739958Y-142922000D01*
X254215958Y-147240000D02*
X254215958Y-142160000D01*
X255739958Y-142160000D02*
X255739958Y-147240000D01*
X254215958Y-142795000D02*
X255739958Y-142795000D01*
X254215958Y-142160000D02*
X255739958Y-142160000D01*
X255739958Y-142668000D02*
X254215958Y-142668000D01*
X255739958Y-147240000D02*
X254215958Y-147240000D01*
X255739958Y-142414000D02*
X254215958Y-142414000D01*
X254215958Y-142287000D02*
X255739958Y-142287000D01*
X140215958Y-123160000D02*
X141739958Y-123160000D01*
X140215958Y-123541000D02*
X141739958Y-123541000D01*
X141739958Y-128240000D02*
X140215958Y-128240000D01*
X141739958Y-123414000D02*
X140215958Y-123414000D01*
X141739958Y-123160000D02*
X141739958Y-128240000D01*
X141739958Y-123668000D02*
X140215958Y-123668000D01*
X140215958Y-128240000D02*
X140215958Y-123160000D01*
X140215958Y-123922000D02*
X141739958Y-123922000D01*
X140215958Y-123795000D02*
X141739958Y-123795000D01*
X140215958Y-123287000D02*
X141739958Y-123287000D01*
X159215958Y-161922000D02*
X160739958Y-161922000D01*
X159215958Y-161795000D02*
X160739958Y-161795000D01*
X159215958Y-161160000D02*
X160739958Y-161160000D01*
X159215958Y-161287000D02*
X160739958Y-161287000D01*
X160739958Y-166240000D02*
X159215958Y-166240000D01*
X160739958Y-161160000D02*
X160739958Y-166240000D01*
X159215958Y-166240000D02*
X159215958Y-161160000D01*
X160739958Y-161414000D02*
X159215958Y-161414000D01*
X160739958Y-161668000D02*
X159215958Y-161668000D01*
X159215958Y-161541000D02*
X160739958Y-161541000D01*
X122739958Y-166240000D02*
X121215958Y-166240000D01*
X122739958Y-161160000D02*
X122739958Y-166240000D01*
X122739958Y-161414000D02*
X121215958Y-161414000D01*
X121215958Y-161795000D02*
X122739958Y-161795000D01*
X121215958Y-161287000D02*
X122739958Y-161287000D01*
X122739958Y-161668000D02*
X121215958Y-161668000D01*
X121215958Y-161922000D02*
X122739958Y-161922000D01*
X121215958Y-161541000D02*
X122739958Y-161541000D01*
X121215958Y-161160000D02*
X122739958Y-161160000D01*
X121215958Y-166240000D02*
X121215958Y-161160000D01*
X273215958Y-161795000D02*
X274739958Y-161795000D01*
X274739958Y-161668000D02*
X273215958Y-161668000D01*
X274739958Y-166240000D02*
X273215958Y-166240000D01*
X273215958Y-161287000D02*
X274739958Y-161287000D01*
X273215958Y-161160000D02*
X274739958Y-161160000D01*
X274739958Y-161160000D02*
X274739958Y-166240000D01*
X274739958Y-161414000D02*
X273215958Y-161414000D01*
X273215958Y-166240000D02*
X273215958Y-161160000D01*
X273215958Y-161541000D02*
X274739958Y-161541000D01*
X273215958Y-161922000D02*
X274739958Y-161922000D01*
X179739958Y-161668000D02*
X178215958Y-161668000D01*
X178215958Y-161160000D02*
X179739958Y-161160000D01*
X178215958Y-161795000D02*
X179739958Y-161795000D01*
X179739958Y-166240000D02*
X178215958Y-166240000D01*
X178215958Y-161287000D02*
X179739958Y-161287000D01*
X179739958Y-161414000D02*
X178215958Y-161414000D01*
X178215958Y-161541000D02*
X179739958Y-161541000D01*
X178215958Y-166240000D02*
X178215958Y-161160000D01*
X179739958Y-161160000D02*
X179739958Y-166240000D01*
X178215958Y-161922000D02*
X179739958Y-161922000D01*
X140215958Y-142922000D02*
X141739958Y-142922000D01*
X140215958Y-142795000D02*
X141739958Y-142795000D01*
X141739958Y-142414000D02*
X140215958Y-142414000D01*
X141739958Y-147240000D02*
X140215958Y-147240000D01*
X140215958Y-142541000D02*
X141739958Y-142541000D01*
X140215958Y-142287000D02*
X141739958Y-142287000D01*
X141739958Y-142668000D02*
X140215958Y-142668000D01*
X140215958Y-142160000D02*
X141739958Y-142160000D01*
X140215958Y-147240000D02*
X140215958Y-142160000D01*
X141739958Y-142160000D02*
X141739958Y-147240000D01*
X255739958Y-104168000D02*
X254215958Y-104168000D01*
X255739958Y-103660000D02*
X255739958Y-108740000D01*
X254215958Y-104041000D02*
X255739958Y-104041000D01*
X255739958Y-103914000D02*
X254215958Y-103914000D01*
X255739958Y-108740000D02*
X254215958Y-108740000D01*
X254215958Y-108740000D02*
X254215958Y-103660000D01*
X254215958Y-103660000D02*
X255739958Y-103660000D01*
X254215958Y-104295000D02*
X255739958Y-104295000D01*
X254215958Y-104422000D02*
X255739958Y-104422000D01*
X254215958Y-103787000D02*
X255739958Y-103787000D01*
X236739958Y-123160000D02*
X236739958Y-128240000D01*
X235215958Y-123287000D02*
X236739958Y-123287000D01*
X236739958Y-123414000D02*
X235215958Y-123414000D01*
X235215958Y-128240000D02*
X235215958Y-123160000D01*
X235215958Y-123541000D02*
X236739958Y-123541000D01*
X236739958Y-123668000D02*
X235215958Y-123668000D01*
X235215958Y-123795000D02*
X236739958Y-123795000D01*
X235215958Y-123922000D02*
X236739958Y-123922000D01*
X235215958Y-123160000D02*
X236739958Y-123160000D01*
X236739958Y-128240000D02*
X235215958Y-128240000D01*
X121215958Y-123895000D02*
X122739958Y-123895000D01*
X121215958Y-128340000D02*
X121215958Y-123260000D01*
X122739958Y-123260000D02*
X122739958Y-128340000D01*
X121215958Y-124022000D02*
X122739958Y-124022000D01*
X121215958Y-123641000D02*
X122739958Y-123641000D01*
X122739958Y-123768000D02*
X121215958Y-123768000D01*
X121215958Y-123260000D02*
X122739958Y-123260000D01*
X122739958Y-123514000D02*
X121215958Y-123514000D01*
X122739958Y-128340000D02*
X121215958Y-128340000D01*
X121215958Y-123387000D02*
X122739958Y-123387000D01*
X159215958Y-104041000D02*
X160739958Y-104041000D01*
X160739958Y-104168000D02*
X159215958Y-104168000D01*
X159215958Y-103787000D02*
X160739958Y-103787000D01*
X159215958Y-104295000D02*
X160739958Y-104295000D01*
X160739958Y-103660000D02*
X160739958Y-108740000D01*
X160739958Y-103914000D02*
X159215958Y-103914000D01*
X159215958Y-108740000D02*
X159215958Y-103660000D01*
X159215958Y-103660000D02*
X160739958Y-103660000D01*
X160739958Y-108740000D02*
X159215958Y-108740000D01*
X159215958Y-104422000D02*
X160739958Y-104422000D01*
X274739958Y-108740000D02*
X273215958Y-108740000D01*
X273215958Y-108740000D02*
X273215958Y-103660000D01*
X273215958Y-103787000D02*
X274739958Y-103787000D01*
X273215958Y-104295000D02*
X274739958Y-104295000D01*
X273215958Y-103660000D02*
X274739958Y-103660000D01*
X274739958Y-104168000D02*
X273215958Y-104168000D01*
X273215958Y-104041000D02*
X274739958Y-104041000D01*
X274739958Y-103914000D02*
X273215958Y-103914000D01*
X274739958Y-103660000D02*
X274739958Y-108740000D01*
X273215958Y-104422000D02*
X274739958Y-104422000D01*
X208239958Y-161668000D02*
X206715958Y-161668000D01*
X208239958Y-161414000D02*
X206715958Y-161414000D01*
X206715958Y-161287000D02*
X208239958Y-161287000D01*
X208239958Y-166240000D02*
X206715958Y-166240000D01*
X206715958Y-161795000D02*
X208239958Y-161795000D01*
X206715958Y-161922000D02*
X208239958Y-161922000D01*
X206715958Y-166240000D02*
X206715958Y-161160000D01*
X206715958Y-161541000D02*
X208239958Y-161541000D01*
X206715958Y-161160000D02*
X208239958Y-161160000D01*
X208239958Y-161160000D02*
X208239958Y-166240000D01*
X178215958Y-123541000D02*
X179739958Y-123541000D01*
X178215958Y-123795000D02*
X179739958Y-123795000D01*
X179739958Y-123414000D02*
X178215958Y-123414000D01*
X179739958Y-123160000D02*
X179739958Y-128240000D01*
X179739958Y-128240000D02*
X178215958Y-128240000D01*
X178215958Y-123922000D02*
X179739958Y-123922000D01*
X178215958Y-123287000D02*
X179739958Y-123287000D01*
X178215958Y-128240000D02*
X178215958Y-123160000D01*
X179739958Y-123668000D02*
X178215958Y-123668000D01*
X178215958Y-123160000D02*
X179739958Y-123160000D01*
X159215958Y-123541000D02*
X160739958Y-123541000D01*
X160739958Y-123160000D02*
X160739958Y-128240000D01*
X160739958Y-123668000D02*
X159215958Y-123668000D01*
X160739958Y-123414000D02*
X159215958Y-123414000D01*
X159215958Y-123922000D02*
X160739958Y-123922000D01*
X159215958Y-123287000D02*
X160739958Y-123287000D01*
X159215958Y-128240000D02*
X159215958Y-123160000D01*
X159215958Y-123160000D02*
X160739958Y-123160000D01*
X159215958Y-123795000D02*
X160739958Y-123795000D01*
X160739958Y-128240000D02*
X159215958Y-128240000D01*
X254215958Y-166340000D02*
X254215958Y-161260000D01*
X254215958Y-161641000D02*
X255739958Y-161641000D01*
X254215958Y-161895000D02*
X255739958Y-161895000D01*
X254215958Y-161387000D02*
X255739958Y-161387000D01*
X255739958Y-161260000D02*
X255739958Y-166340000D01*
X254215958Y-161260000D02*
X255739958Y-161260000D01*
X255739958Y-166340000D02*
X254215958Y-166340000D01*
X254215958Y-162022000D02*
X255739958Y-162022000D01*
X255739958Y-161514000D02*
X254215958Y-161514000D01*
X255739958Y-161768000D02*
X254215958Y-161768000D01*
X255739958Y-123160000D02*
X255739958Y-128240000D01*
X254215958Y-123287000D02*
X255739958Y-123287000D01*
X254215958Y-123795000D02*
X255739958Y-123795000D01*
X254215958Y-128240000D02*
X254215958Y-123160000D01*
X254215958Y-123541000D02*
X255739958Y-123541000D01*
X254215958Y-123160000D02*
X255739958Y-123160000D01*
X254215958Y-123922000D02*
X255739958Y-123922000D01*
X255739958Y-123668000D02*
X254215958Y-123668000D01*
X255739958Y-123414000D02*
X254215958Y-123414000D01*
X255739958Y-128240000D02*
X254215958Y-128240000D01*
X140215958Y-104187000D02*
X141739958Y-104187000D01*
X141739958Y-104314000D02*
X140215958Y-104314000D01*
X141739958Y-104568000D02*
X140215958Y-104568000D01*
X140215958Y-104822000D02*
X141739958Y-104822000D01*
X140215958Y-104441000D02*
X141739958Y-104441000D01*
X141739958Y-104060000D02*
X141739958Y-109140000D01*
X140215958Y-109140000D02*
X140215958Y-104060000D01*
X141739958Y-109140000D02*
X140215958Y-109140000D01*
X140215958Y-104695000D02*
X141739958Y-104695000D01*
X140215958Y-104060000D02*
X141739958Y-104060000D01*
D13*
X198597958Y-97730000D03*
X198597958Y-100270000D03*
X198597958Y-102810000D03*
X198597958Y-105350000D03*
X198597958Y-107890000D03*
X198597958Y-110430000D03*
X198597958Y-112970000D03*
X198597958Y-115510000D03*
X198597958Y-118050000D03*
X198597958Y-120590000D03*
X198597958Y-123130000D03*
X198597958Y-125670000D03*
X183357958Y-125670000D03*
X183357958Y-123130000D03*
X183357958Y-120590000D03*
X183357958Y-118050000D03*
X183357958Y-115510000D03*
X183357958Y-112970000D03*
X183357958Y-110430000D03*
X183357958Y-107890000D03*
X183357958Y-105350000D03*
X183357958Y-102810000D03*
X183357958Y-100270000D03*
D14*
X183357958Y-97730000D03*
%LPC*%
D15*
X146667958Y-123160000D03*
X153017958Y-120620000D03*
D16*
X150477958Y-125700000D03*
D17*
X155557958Y-125700000D03*
X145397958Y-125700000D03*
D15*
X108667958Y-123160000D03*
X115017958Y-120620000D03*
D17*
X117557958Y-125700000D03*
D16*
X112477958Y-125700000D03*
D17*
X107397958Y-125700000D03*
D18*
X309477958Y-155700000D03*
X309477958Y-160700000D03*
X294977958Y-158200000D03*
X294977958Y-160700000D03*
D19*
X294977958Y-155700000D03*
D20*
X302477958Y-163800000D03*
X302477958Y-152600000D03*
D15*
X127667958Y-104160000D03*
X134017958Y-101620000D03*
D16*
X131477958Y-106700000D03*
D17*
X136557958Y-106700000D03*
X126397958Y-106700000D03*
D15*
X165667958Y-104160000D03*
X172017958Y-101620000D03*
D17*
X164397958Y-106700000D03*
X174557958Y-106700000D03*
D16*
X169477958Y-106700000D03*
D21*
X322047959Y-116202042D03*
D15*
X165667958Y-161160000D03*
X172017958Y-158620000D03*
D17*
X174557958Y-163700000D03*
X164397958Y-163700000D03*
D16*
X169477958Y-163700000D03*
D15*
X146667958Y-161160000D03*
X153017958Y-158620000D03*
D17*
X145397958Y-163700000D03*
X155557958Y-163700000D03*
D16*
X150477958Y-163700000D03*
D15*
X146667958Y-142160000D03*
X153017958Y-139620000D03*
D17*
X155557958Y-144700000D03*
D16*
X150477958Y-144700000D03*
D17*
X145397958Y-144700000D03*
D15*
X146667958Y-104160000D03*
X153017958Y-101620000D03*
D17*
X155557958Y-106700000D03*
X145397958Y-106700000D03*
D16*
X150477958Y-106700000D03*
D15*
X108667958Y-161160000D03*
X115017958Y-158620000D03*
D17*
X117557958Y-163700000D03*
X107397958Y-163700000D03*
D16*
X112477958Y-163700000D03*
D15*
X165667958Y-123160000D03*
X172017958Y-120620000D03*
D17*
X174557958Y-125700000D03*
D16*
X169477958Y-125700000D03*
D17*
X164397958Y-125700000D03*
D15*
X165667958Y-142160000D03*
X172017958Y-139620000D03*
D17*
X164397958Y-144700000D03*
X174557958Y-144700000D03*
D16*
X169477958Y-144700000D03*
D15*
X127667958Y-142160000D03*
X134017958Y-139620000D03*
D16*
X131477958Y-144700000D03*
D17*
X136557958Y-144700000D03*
X126397958Y-144700000D03*
D15*
X260667958Y-161160000D03*
X267017958Y-158620000D03*
D16*
X264477958Y-163700000D03*
D17*
X259397958Y-163700000D03*
X269557958Y-163700000D03*
D15*
X222667958Y-104160000D03*
X229017958Y-101620000D03*
D17*
X231557958Y-106700000D03*
D16*
X226477958Y-106700000D03*
D17*
X221397958Y-106700000D03*
D15*
X108667958Y-142160000D03*
X115017958Y-139620000D03*
D17*
X107397958Y-144700000D03*
X117557958Y-144700000D03*
D16*
X112477958Y-144700000D03*
D21*
X342997959Y-144802042D03*
D22*
X209977958Y-106200000D03*
D21*
X65997959Y-144802042D03*
D17*
X259397958Y-125700000D03*
D16*
X264477958Y-125700000D03*
D17*
X269557958Y-125700000D03*
D15*
X267017958Y-120620000D03*
X260667958Y-123160000D03*
X241667958Y-161160000D03*
X248017958Y-158620000D03*
D16*
X245477958Y-163700000D03*
D17*
X240397958Y-163700000D03*
X250557958Y-163700000D03*
D15*
X241667958Y-142160000D03*
X248017958Y-139620000D03*
D16*
X245477958Y-144700000D03*
D17*
X250557958Y-144700000D03*
X240397958Y-144700000D03*
D21*
X87197959Y-116202042D03*
D13*
X198597958Y-97730000D03*
X198597958Y-100270000D03*
X198597958Y-102810000D03*
X198597958Y-105350000D03*
X198597958Y-107890000D03*
X198597958Y-110430000D03*
X198597958Y-112970000D03*
X198597958Y-115510000D03*
X198597958Y-118050000D03*
X198597958Y-120590000D03*
X198597958Y-123130000D03*
X198597958Y-125670000D03*
X183357958Y-125670000D03*
X183357958Y-123130000D03*
X183357958Y-120590000D03*
X183357958Y-118050000D03*
X183357958Y-115510000D03*
X183357958Y-112970000D03*
X183357958Y-110430000D03*
X183357958Y-107890000D03*
X183357958Y-105350000D03*
X183357958Y-102810000D03*
X183357958Y-100270000D03*
D14*
X183357958Y-97730000D03*
D15*
X241667958Y-104160000D03*
X248017958Y-101620000D03*
D17*
X250557958Y-106700000D03*
X240397958Y-106700000D03*
D16*
X245477958Y-106700000D03*
D18*
X309477958Y-104200000D03*
X309477958Y-109200000D03*
X294977958Y-106700000D03*
X294977958Y-109200000D03*
D19*
X294977958Y-104200000D03*
D20*
X302477958Y-112300000D03*
X302477958Y-101100000D03*
D22*
X205477958Y-106200000D03*
D15*
X260667958Y-104160000D03*
X267017958Y-101620000D03*
D17*
X269557958Y-106700000D03*
D16*
X264477958Y-106700000D03*
D17*
X259397958Y-106700000D03*
D15*
X194167958Y-161160000D03*
X200517958Y-158620000D03*
D16*
X197977958Y-163700000D03*
D17*
X203057958Y-163700000D03*
X192897958Y-163700000D03*
D15*
X127667958Y-161160000D03*
X134017958Y-158620000D03*
D16*
X131477958Y-163700000D03*
D17*
X126397958Y-163700000D03*
X136557958Y-163700000D03*
D15*
X127667958Y-123160000D03*
X134017958Y-120620000D03*
D17*
X136557958Y-125700000D03*
X126397958Y-125700000D03*
D16*
X131477958Y-125700000D03*
D15*
X222667958Y-123160000D03*
X229017958Y-120620000D03*
D17*
X231557958Y-125700000D03*
D16*
X226477958Y-125700000D03*
D17*
X221397958Y-125700000D03*
D15*
X108667958Y-104160000D03*
X115017958Y-101620000D03*
D17*
X117557958Y-106700000D03*
X107397958Y-106700000D03*
D16*
X112477958Y-106700000D03*
D15*
X241667958Y-123160000D03*
X248017958Y-120620000D03*
D17*
X240397958Y-125700000D03*
X250557958Y-125700000D03*
D16*
X245477958Y-125700000D03*
D23*
X205727958Y-99630000D03*
X207227958Y-99630000D03*
X210227958Y-99630000D03*
D24*
X211627958Y-96770000D03*
D25*
X206477958Y-97870000D03*
D24*
X211627958Y-98980000D03*
D25*
X209477958Y-97870000D03*
D24*
X204327958Y-96770000D03*
X204327958Y-98980000D03*
D15*
X222667958Y-161160000D03*
X229017958Y-158620000D03*
D17*
X231557958Y-163700000D03*
D16*
X226477958Y-163700000D03*
D17*
X221397958Y-163700000D03*
D26*
X300677958Y-115200000D03*
D27*
X298177958Y-115200000D03*
D28*
X305977958Y-115200000D03*
D26*
X303477958Y-115200000D03*
D27*
X235977958Y-167600000D03*
D29*
X235977958Y-165100000D03*
D28*
X235977958Y-159800000D03*
D29*
X235977958Y-162300000D03*
X140977958Y-165100000D03*
D27*
X140977958Y-167600000D03*
D29*
X140977958Y-162300000D03*
D28*
X140977958Y-159800000D03*
D29*
X178977958Y-146100000D03*
D27*
X178977958Y-148600000D03*
D28*
X178977958Y-140800000D03*
D29*
X178977958Y-143300000D03*
X121977958Y-108000000D03*
D27*
X121977958Y-110500000D03*
D28*
X121977958Y-102700000D03*
D29*
X121977958Y-105200000D03*
D27*
X159977958Y-148600000D03*
D29*
X159977958Y-146100000D03*
X159977958Y-143300000D03*
D28*
X159977958Y-140800000D03*
D27*
X273977958Y-129600000D03*
D29*
X273977958Y-127100000D03*
X273977958Y-124300000D03*
D28*
X273977958Y-121800000D03*
D29*
X121977958Y-146100000D03*
D27*
X121977958Y-148600000D03*
D28*
X121977958Y-140800000D03*
D29*
X121977958Y-143300000D03*
X235977958Y-107600000D03*
D27*
X235977958Y-110100000D03*
D29*
X235977958Y-104800000D03*
D28*
X235977958Y-102300000D03*
D27*
X178977958Y-110100000D03*
D29*
X178977958Y-107600000D03*
X178977958Y-104800000D03*
D28*
X178977958Y-102300000D03*
D27*
X298477958Y-166700000D03*
D26*
X300977958Y-166700000D03*
X303777958Y-166700000D03*
D28*
X306277958Y-166700000D03*
D27*
X254977958Y-148600000D03*
D29*
X254977958Y-146100000D03*
X254977958Y-143300000D03*
D28*
X254977958Y-140800000D03*
D27*
X140977958Y-129600000D03*
D29*
X140977958Y-127100000D03*
D28*
X140977958Y-121800000D03*
D29*
X140977958Y-124300000D03*
X159977958Y-165100000D03*
D27*
X159977958Y-167600000D03*
D29*
X159977958Y-162300000D03*
D28*
X159977958Y-159800000D03*
D27*
X121977958Y-167600000D03*
D29*
X121977958Y-165100000D03*
X121977958Y-162300000D03*
D28*
X121977958Y-159800000D03*
D29*
X273977958Y-165100000D03*
D27*
X273977958Y-167600000D03*
D29*
X273977958Y-162300000D03*
D28*
X273977958Y-159800000D03*
D29*
X178977958Y-165100000D03*
D27*
X178977958Y-167600000D03*
D28*
X178977958Y-159800000D03*
D29*
X178977958Y-162300000D03*
X140977958Y-146100000D03*
D27*
X140977958Y-148600000D03*
D28*
X140977958Y-140800000D03*
D29*
X140977958Y-143300000D03*
D27*
X254977958Y-110100000D03*
D29*
X254977958Y-107600000D03*
D28*
X254977958Y-102300000D03*
D29*
X254977958Y-104800000D03*
D27*
X235977958Y-129600000D03*
D29*
X235977958Y-127100000D03*
D28*
X235977958Y-121800000D03*
D29*
X235977958Y-124300000D03*
D27*
X121977958Y-129700000D03*
D29*
X121977958Y-127200000D03*
X121977958Y-124400000D03*
D28*
X121977958Y-121900000D03*
D27*
X159977958Y-110100000D03*
D29*
X159977958Y-107600000D03*
D28*
X159977958Y-102300000D03*
D29*
X159977958Y-104800000D03*
D27*
X273977958Y-110100000D03*
D29*
X273977958Y-107600000D03*
X273977958Y-104800000D03*
D28*
X273977958Y-102300000D03*
D27*
X207477958Y-167600000D03*
D29*
X207477958Y-165100000D03*
D28*
X207477958Y-159800000D03*
D29*
X207477958Y-162300000D03*
X178977958Y-127100000D03*
D27*
X178977958Y-129600000D03*
D29*
X178977958Y-124300000D03*
D28*
X178977958Y-121800000D03*
D27*
X159977958Y-129600000D03*
D29*
X159977958Y-127100000D03*
D28*
X159977958Y-121800000D03*
D29*
X159977958Y-124300000D03*
D27*
X254977958Y-167700000D03*
D29*
X254977958Y-165200000D03*
X254977958Y-162400000D03*
D28*
X254977958Y-159900000D03*
D29*
X254977958Y-127100000D03*
D27*
X254977958Y-129600000D03*
D29*
X254977958Y-124300000D03*
D28*
X254977958Y-121800000D03*
D27*
X140977958Y-110500000D03*
D29*
X140977958Y-108000000D03*
X140977958Y-105200000D03*
D28*
X140977958Y-102700000D03*
M02*
