%TF.GenerationSoftware,KiCad,Pcbnew,(6.0.7-1)-1*%
%TF.CreationDate,2022-09-15T21:20:58+02:00*%
%TF.ProjectId,yts-pcb,7974732d-7063-4622-9e6b-696361645f70,rev?*%
%TF.SameCoordinates,Original*%
%TF.FileFunction,Drillmap*%
%TF.FilePolarity,Positive*%
%FSLAX45Y45*%
G04 Gerber Fmt 4.5, Leading zero omitted, Abs format (unit mm)*
G04 Created by KiCad (PCBNEW (6.0.7-1)-1) date 2022-09-15 21:20:58*
%MOMM*%
%LPD*%
G01*
G04 APERTURE LIST*
%ADD10C,0.100000*%
%ADD11C,0.200000*%
%ADD12C,0.090000*%
%ADD13C,0.150000*%
%ADD14C,0.170000*%
%ADD15C,0.400000*%
G04 APERTURE END LIST*
D10*
X34700000Y-8930000D02*
G75*
G03*
X34600000Y-8830000I-100000J0D01*
G01*
X34600000Y-18230000D02*
G75*
G03*
X34699796Y-18130204I0J99796D01*
G01*
X6305000Y-8830003D02*
G75*
G03*
X6200000Y-8934246I-750J-104247D01*
G01*
X34700000Y-8930000D02*
X34699796Y-18130204D01*
X6300000Y-18230000D02*
X34600000Y-18230000D01*
X6200000Y-18130000D02*
G75*
G03*
X6300000Y-18230000I100000J0D01*
G01*
X6305000Y-8830000D02*
X34600000Y-8830000D01*
X6200000Y-8934246D02*
X6200000Y-18130000D01*
D11*
D12*
X20602796Y-9742000D02*
X20692796Y-9832000D01*
X20692796Y-9742000D02*
X20602796Y-9832000D01*
X20902796Y-9742000D02*
X20992796Y-9832000D01*
X20992796Y-9742000D02*
X20902796Y-9832000D01*
D13*
X30322796Y-10110000D02*
G75*
G03*
X30322796Y-10110000I-75000J0D01*
G01*
D11*
X30182796Y-10185000D02*
X30312796Y-10185000D01*
X30182796Y-10035000D02*
X30312796Y-10035000D01*
X30312796Y-10185000D02*
G75*
G03*
X30312796Y-10035000I0J75000D01*
G01*
X30182796Y-10035000D02*
G75*
G03*
X30182796Y-10185000I0J-75000D01*
G01*
D13*
X30322796Y-11230000D02*
G75*
G03*
X30322796Y-11230000I-75000J0D01*
G01*
D11*
X30182796Y-11305000D02*
X30312796Y-11305000D01*
X30182796Y-11155000D02*
X30312796Y-11155000D01*
X30312796Y-11305000D02*
G75*
G03*
X30312796Y-11155000I0J75000D01*
G01*
X30182796Y-11155000D02*
G75*
G03*
X30182796Y-11305000I0J-75000D01*
G01*
D13*
X30322796Y-15260000D02*
G75*
G03*
X30322796Y-15260000I-75000J0D01*
G01*
D11*
X30182796Y-15335000D02*
X30312796Y-15335000D01*
X30182796Y-15185000D02*
X30312796Y-15185000D01*
X30312796Y-15335000D02*
G75*
G03*
X30312796Y-15185000I0J75000D01*
G01*
X30182796Y-15185000D02*
G75*
G03*
X30182796Y-15335000I0J-75000D01*
G01*
D13*
X30322796Y-16380000D02*
G75*
G03*
X30322796Y-16380000I-75000J0D01*
G01*
D11*
X30182796Y-16455000D02*
X30312796Y-16455000D01*
X30182796Y-16305000D02*
X30312796Y-16305000D01*
X30312796Y-16455000D02*
G75*
G03*
X30312796Y-16305000I0J75000D01*
G01*
X30182796Y-16305000D02*
G75*
G03*
X30182796Y-16455000I0J-75000D01*
G01*
D14*
X10739796Y-10585000D02*
X10739796Y-10755000D01*
X10654796Y-10670000D02*
X10824796Y-10670000D01*
X10739796Y-12485000D02*
X10739796Y-12655000D01*
X10654796Y-12570000D02*
X10824796Y-12570000D01*
X10739796Y-14385000D02*
X10739796Y-14555000D01*
X10654796Y-14470000D02*
X10824796Y-14470000D01*
X10739796Y-16285000D02*
X10739796Y-16455000D01*
X10654796Y-16370000D02*
X10824796Y-16370000D01*
X11755796Y-10585000D02*
X11755796Y-10755000D01*
X11670796Y-10670000D02*
X11840796Y-10670000D01*
X11755796Y-12485000D02*
X11755796Y-12655000D01*
X11670796Y-12570000D02*
X11840796Y-12570000D01*
X11755796Y-14385000D02*
X11755796Y-14555000D01*
X11670796Y-14470000D02*
X11840796Y-14470000D01*
X11755796Y-16285000D02*
X11755796Y-16455000D01*
X11670796Y-16370000D02*
X11840796Y-16370000D01*
X12639796Y-10585000D02*
X12639796Y-10755000D01*
X12554796Y-10670000D02*
X12724796Y-10670000D01*
X12639796Y-12485000D02*
X12639796Y-12655000D01*
X12554796Y-12570000D02*
X12724796Y-12570000D01*
X12639796Y-14385000D02*
X12639796Y-14555000D01*
X12554796Y-14470000D02*
X12724796Y-14470000D01*
X12639796Y-16285000D02*
X12639796Y-16455000D01*
X12554796Y-16370000D02*
X12724796Y-16370000D01*
X13655796Y-10585000D02*
X13655796Y-10755000D01*
X13570796Y-10670000D02*
X13740796Y-10670000D01*
X13655796Y-12485000D02*
X13655796Y-12655000D01*
X13570796Y-12570000D02*
X13740796Y-12570000D01*
X13655796Y-14385000D02*
X13655796Y-14555000D01*
X13570796Y-14470000D02*
X13740796Y-14470000D01*
X13655796Y-16285000D02*
X13655796Y-16455000D01*
X13570796Y-16370000D02*
X13740796Y-16370000D01*
X14539796Y-10585000D02*
X14539796Y-10755000D01*
X14454796Y-10670000D02*
X14624796Y-10670000D01*
X14539796Y-12485000D02*
X14539796Y-12655000D01*
X14454796Y-12570000D02*
X14624796Y-12570000D01*
X14539796Y-14385000D02*
X14539796Y-14555000D01*
X14454796Y-14470000D02*
X14624796Y-14470000D01*
X14539796Y-16285000D02*
X14539796Y-16455000D01*
X14454796Y-16370000D02*
X14624796Y-16370000D01*
X15555796Y-10585000D02*
X15555796Y-10755000D01*
X15470796Y-10670000D02*
X15640796Y-10670000D01*
X15555796Y-12485000D02*
X15555796Y-12655000D01*
X15470796Y-12570000D02*
X15640796Y-12570000D01*
X15555796Y-14385000D02*
X15555796Y-14555000D01*
X15470796Y-14470000D02*
X15640796Y-14470000D01*
X15555796Y-16285000D02*
X15555796Y-16455000D01*
X15470796Y-16370000D02*
X15640796Y-16370000D01*
X16439796Y-10585000D02*
X16439796Y-10755000D01*
X16354796Y-10670000D02*
X16524796Y-10670000D01*
X16439796Y-12485000D02*
X16439796Y-12655000D01*
X16354796Y-12570000D02*
X16524796Y-12570000D01*
X16439796Y-14385000D02*
X16439796Y-14555000D01*
X16354796Y-14470000D02*
X16524796Y-14470000D01*
X16439796Y-16285000D02*
X16439796Y-16455000D01*
X16354796Y-16370000D02*
X16524796Y-16370000D01*
X17455796Y-10585000D02*
X17455796Y-10755000D01*
X17370796Y-10670000D02*
X17540796Y-10670000D01*
X17455796Y-12485000D02*
X17455796Y-12655000D01*
X17370796Y-12570000D02*
X17540796Y-12570000D01*
X17455796Y-14385000D02*
X17455796Y-14555000D01*
X17370796Y-14470000D02*
X17540796Y-14470000D01*
X17455796Y-16285000D02*
X17455796Y-16455000D01*
X17370796Y-16370000D02*
X17540796Y-16370000D01*
X19289796Y-16285000D02*
X19289796Y-16455000D01*
X19204796Y-16370000D02*
X19374796Y-16370000D01*
X20305796Y-16285000D02*
X20305796Y-16455000D01*
X20220796Y-16370000D02*
X20390796Y-16370000D01*
X22139796Y-10585000D02*
X22139796Y-10755000D01*
X22054796Y-10670000D02*
X22224796Y-10670000D01*
X22139796Y-12485000D02*
X22139796Y-12655000D01*
X22054796Y-12570000D02*
X22224796Y-12570000D01*
X22139796Y-16285000D02*
X22139796Y-16455000D01*
X22054796Y-16370000D02*
X22224796Y-16370000D01*
X23155796Y-10585000D02*
X23155796Y-10755000D01*
X23070796Y-10670000D02*
X23240796Y-10670000D01*
X23155796Y-12485000D02*
X23155796Y-12655000D01*
X23070796Y-12570000D02*
X23240796Y-12570000D01*
X23155796Y-16285000D02*
X23155796Y-16455000D01*
X23070796Y-16370000D02*
X23240796Y-16370000D01*
X24039796Y-10585000D02*
X24039796Y-10755000D01*
X23954796Y-10670000D02*
X24124796Y-10670000D01*
X24039796Y-12485000D02*
X24039796Y-12655000D01*
X23954796Y-12570000D02*
X24124796Y-12570000D01*
X24039796Y-14385000D02*
X24039796Y-14555000D01*
X23954796Y-14470000D02*
X24124796Y-14470000D01*
X24039796Y-16285000D02*
X24039796Y-16455000D01*
X23954796Y-16370000D02*
X24124796Y-16370000D01*
X25055796Y-10585000D02*
X25055796Y-10755000D01*
X24970796Y-10670000D02*
X25140796Y-10670000D01*
X25055796Y-12485000D02*
X25055796Y-12655000D01*
X24970796Y-12570000D02*
X25140796Y-12570000D01*
X25055796Y-14385000D02*
X25055796Y-14555000D01*
X24970796Y-14470000D02*
X25140796Y-14470000D01*
X25055796Y-16285000D02*
X25055796Y-16455000D01*
X24970796Y-16370000D02*
X25140796Y-16370000D01*
X25939796Y-10585000D02*
X25939796Y-10755000D01*
X25854796Y-10670000D02*
X26024796Y-10670000D01*
X25939796Y-12485000D02*
X25939796Y-12655000D01*
X25854796Y-12570000D02*
X26024796Y-12570000D01*
X25939796Y-16285000D02*
X25939796Y-16455000D01*
X25854796Y-16370000D02*
X26024796Y-16370000D01*
X26955796Y-10585000D02*
X26955796Y-10755000D01*
X26870796Y-10670000D02*
X27040796Y-10670000D01*
X26955796Y-12485000D02*
X26955796Y-12655000D01*
X26870796Y-12570000D02*
X27040796Y-12570000D01*
X26955796Y-16285000D02*
X26955796Y-16455000D01*
X26870796Y-16370000D02*
X27040796Y-16370000D01*
D15*
X11389218Y-10811423D02*
X11389218Y-10528577D01*
X11106373Y-10528577D01*
X11106373Y-10811423D01*
X11389218Y-10811423D01*
X11389218Y-12711423D02*
X11389218Y-12428577D01*
X11106373Y-12428577D01*
X11106373Y-12711423D01*
X11389218Y-12711423D01*
X11389218Y-14611423D02*
X11389218Y-14328577D01*
X11106373Y-14328577D01*
X11106373Y-14611423D01*
X11389218Y-14611423D01*
X11389218Y-16511423D02*
X11389218Y-16228577D01*
X11106373Y-16228577D01*
X11106373Y-16511423D01*
X11389218Y-16511423D01*
X13289218Y-10811423D02*
X13289218Y-10528577D01*
X13006373Y-10528577D01*
X13006373Y-10811423D01*
X13289218Y-10811423D01*
X13289218Y-12711423D02*
X13289218Y-12428577D01*
X13006373Y-12428577D01*
X13006373Y-12711423D01*
X13289218Y-12711423D01*
X13289218Y-14611423D02*
X13289218Y-14328577D01*
X13006373Y-14328577D01*
X13006373Y-14611423D01*
X13289218Y-14611423D01*
X13289218Y-16511423D02*
X13289218Y-16228577D01*
X13006373Y-16228577D01*
X13006373Y-16511423D01*
X13289218Y-16511423D01*
X15189218Y-10811423D02*
X15189218Y-10528577D01*
X14906373Y-10528577D01*
X14906373Y-10811423D01*
X15189218Y-10811423D01*
X15189218Y-12711423D02*
X15189218Y-12428577D01*
X14906373Y-12428577D01*
X14906373Y-12711423D01*
X15189218Y-12711423D01*
X15189218Y-14611423D02*
X15189218Y-14328577D01*
X14906373Y-14328577D01*
X14906373Y-14611423D01*
X15189218Y-14611423D01*
X15189218Y-16511423D02*
X15189218Y-16228577D01*
X14906373Y-16228577D01*
X14906373Y-16511423D01*
X15189218Y-16511423D01*
X17089219Y-10811423D02*
X17089219Y-10528577D01*
X16806373Y-10528577D01*
X16806373Y-10811423D01*
X17089219Y-10811423D01*
X17089219Y-12711423D02*
X17089219Y-12428577D01*
X16806373Y-12428577D01*
X16806373Y-12711423D01*
X17089219Y-12711423D01*
X17089219Y-14611423D02*
X17089219Y-14328577D01*
X16806373Y-14328577D01*
X16806373Y-14611423D01*
X17089219Y-14611423D01*
X17089219Y-16511423D02*
X17089219Y-16228577D01*
X16806373Y-16228577D01*
X16806373Y-16511423D01*
X17089219Y-16511423D01*
X19939219Y-16511423D02*
X19939219Y-16228577D01*
X19656373Y-16228577D01*
X19656373Y-16511423D01*
X19939219Y-16511423D01*
X22789218Y-10811423D02*
X22789218Y-10528577D01*
X22506373Y-10528577D01*
X22506373Y-10811423D01*
X22789218Y-10811423D01*
X22789218Y-12711423D02*
X22789218Y-12428577D01*
X22506373Y-12428577D01*
X22506373Y-12711423D01*
X22789218Y-12711423D01*
X22789218Y-16511423D02*
X22789218Y-16228577D01*
X22506373Y-16228577D01*
X22506373Y-16511423D01*
X22789218Y-16511423D01*
X24689218Y-10811423D02*
X24689218Y-10528577D01*
X24406373Y-10528577D01*
X24406373Y-10811423D01*
X24689218Y-10811423D01*
X24689218Y-12711423D02*
X24689218Y-12428577D01*
X24406373Y-12428577D01*
X24406373Y-12711423D01*
X24689218Y-12711423D01*
X24689218Y-14611423D02*
X24689218Y-14328577D01*
X24406373Y-14328577D01*
X24406373Y-14611423D01*
X24689218Y-14611423D01*
X24689218Y-16511423D02*
X24689218Y-16228577D01*
X24406373Y-16228577D01*
X24406373Y-16511423D01*
X24689218Y-16511423D01*
X26589218Y-10811423D02*
X26589218Y-10528577D01*
X26306373Y-10528577D01*
X26306373Y-10811423D01*
X26589218Y-10811423D01*
X26589218Y-12711423D02*
X26589218Y-12428577D01*
X26306373Y-12428577D01*
X26306373Y-12711423D01*
X26589218Y-12711423D01*
X26589218Y-16511423D02*
X26589218Y-16228577D01*
X26306373Y-16228577D01*
X26306373Y-16511423D01*
X26589218Y-16511423D01*
D11*
X6452619Y-18545476D02*
X6452619Y-18345476D01*
X6500238Y-18345476D01*
X6528809Y-18355000D01*
X6547857Y-18374048D01*
X6557381Y-18393095D01*
X6566905Y-18431190D01*
X6566905Y-18459762D01*
X6557381Y-18497857D01*
X6547857Y-18516905D01*
X6528809Y-18535952D01*
X6500238Y-18545476D01*
X6452619Y-18545476D01*
X6652619Y-18545476D02*
X6652619Y-18412143D01*
X6652619Y-18450238D02*
X6662143Y-18431190D01*
X6671667Y-18421667D01*
X6690714Y-18412143D01*
X6709762Y-18412143D01*
X6776428Y-18545476D02*
X6776428Y-18412143D01*
X6776428Y-18345476D02*
X6766905Y-18355000D01*
X6776428Y-18364524D01*
X6785952Y-18355000D01*
X6776428Y-18345476D01*
X6776428Y-18364524D01*
X6900238Y-18545476D02*
X6881190Y-18535952D01*
X6871667Y-18516905D01*
X6871667Y-18345476D01*
X7005000Y-18545476D02*
X6985952Y-18535952D01*
X6976428Y-18516905D01*
X6976428Y-18345476D01*
X7233571Y-18545476D02*
X7233571Y-18345476D01*
X7300238Y-18488333D01*
X7366905Y-18345476D01*
X7366905Y-18545476D01*
X7547857Y-18545476D02*
X7547857Y-18440714D01*
X7538333Y-18421667D01*
X7519286Y-18412143D01*
X7481190Y-18412143D01*
X7462143Y-18421667D01*
X7547857Y-18535952D02*
X7528809Y-18545476D01*
X7481190Y-18545476D01*
X7462143Y-18535952D01*
X7452619Y-18516905D01*
X7452619Y-18497857D01*
X7462143Y-18478810D01*
X7481190Y-18469286D01*
X7528809Y-18469286D01*
X7547857Y-18459762D01*
X7643095Y-18412143D02*
X7643095Y-18612143D01*
X7643095Y-18421667D02*
X7662143Y-18412143D01*
X7700238Y-18412143D01*
X7719286Y-18421667D01*
X7728809Y-18431190D01*
X7738333Y-18450238D01*
X7738333Y-18507381D01*
X7728809Y-18526429D01*
X7719286Y-18535952D01*
X7700238Y-18545476D01*
X7662143Y-18545476D01*
X7643095Y-18535952D01*
X7824048Y-18526429D02*
X7833571Y-18535952D01*
X7824048Y-18545476D01*
X7814524Y-18535952D01*
X7824048Y-18526429D01*
X7824048Y-18545476D01*
X7824048Y-18421667D02*
X7833571Y-18431190D01*
X7824048Y-18440714D01*
X7814524Y-18431190D01*
X7824048Y-18421667D01*
X7824048Y-18440714D01*
D12*
X6105000Y-18830000D02*
X6195000Y-18920000D01*
X6195000Y-18830000D02*
X6105000Y-18920000D01*
D11*
X6490714Y-18765476D02*
X6509762Y-18765476D01*
X6528809Y-18775000D01*
X6538333Y-18784524D01*
X6547857Y-18803571D01*
X6557381Y-18841667D01*
X6557381Y-18889286D01*
X6547857Y-18927381D01*
X6538333Y-18946429D01*
X6528809Y-18955952D01*
X6509762Y-18965476D01*
X6490714Y-18965476D01*
X6471667Y-18955952D01*
X6462143Y-18946429D01*
X6452619Y-18927381D01*
X6443095Y-18889286D01*
X6443095Y-18841667D01*
X6452619Y-18803571D01*
X6462143Y-18784524D01*
X6471667Y-18775000D01*
X6490714Y-18765476D01*
X6643095Y-18946429D02*
X6652619Y-18955952D01*
X6643095Y-18965476D01*
X6633571Y-18955952D01*
X6643095Y-18946429D01*
X6643095Y-18965476D01*
X6747857Y-18965476D02*
X6785952Y-18965476D01*
X6805000Y-18955952D01*
X6814524Y-18946429D01*
X6833571Y-18917857D01*
X6843095Y-18879762D01*
X6843095Y-18803571D01*
X6833571Y-18784524D01*
X6824048Y-18775000D01*
X6805000Y-18765476D01*
X6766905Y-18765476D01*
X6747857Y-18775000D01*
X6738333Y-18784524D01*
X6728809Y-18803571D01*
X6728809Y-18851190D01*
X6738333Y-18870238D01*
X6747857Y-18879762D01*
X6766905Y-18889286D01*
X6805000Y-18889286D01*
X6824048Y-18879762D01*
X6833571Y-18870238D01*
X6843095Y-18851190D01*
X6966905Y-18765476D02*
X6985952Y-18765476D01*
X7005000Y-18775000D01*
X7014524Y-18784524D01*
X7024048Y-18803571D01*
X7033571Y-18841667D01*
X7033571Y-18889286D01*
X7024048Y-18927381D01*
X7014524Y-18946429D01*
X7005000Y-18955952D01*
X6985952Y-18965476D01*
X6966905Y-18965476D01*
X6947857Y-18955952D01*
X6938333Y-18946429D01*
X6928809Y-18927381D01*
X6919286Y-18889286D01*
X6919286Y-18841667D01*
X6928809Y-18803571D01*
X6938333Y-18784524D01*
X6947857Y-18775000D01*
X6966905Y-18765476D01*
X7157381Y-18765476D02*
X7176428Y-18765476D01*
X7195476Y-18775000D01*
X7205000Y-18784524D01*
X7214524Y-18803571D01*
X7224048Y-18841667D01*
X7224048Y-18889286D01*
X7214524Y-18927381D01*
X7205000Y-18946429D01*
X7195476Y-18955952D01*
X7176428Y-18965476D01*
X7157381Y-18965476D01*
X7138333Y-18955952D01*
X7128809Y-18946429D01*
X7119286Y-18927381D01*
X7109762Y-18889286D01*
X7109762Y-18841667D01*
X7119286Y-18803571D01*
X7128809Y-18784524D01*
X7138333Y-18775000D01*
X7157381Y-18765476D01*
X7309762Y-18965476D02*
X7309762Y-18832143D01*
X7309762Y-18851190D02*
X7319286Y-18841667D01*
X7338333Y-18832143D01*
X7366905Y-18832143D01*
X7385952Y-18841667D01*
X7395476Y-18860714D01*
X7395476Y-18965476D01*
X7395476Y-18860714D02*
X7405000Y-18841667D01*
X7424048Y-18832143D01*
X7452619Y-18832143D01*
X7471667Y-18841667D01*
X7481190Y-18860714D01*
X7481190Y-18965476D01*
X7576428Y-18965476D02*
X7576428Y-18832143D01*
X7576428Y-18851190D02*
X7585952Y-18841667D01*
X7605000Y-18832143D01*
X7633571Y-18832143D01*
X7652619Y-18841667D01*
X7662143Y-18860714D01*
X7662143Y-18965476D01*
X7662143Y-18860714D02*
X7671667Y-18841667D01*
X7690714Y-18832143D01*
X7719286Y-18832143D01*
X7738333Y-18841667D01*
X7747857Y-18860714D01*
X7747857Y-18965476D01*
X8138333Y-18755952D02*
X7966905Y-19013095D01*
X8395476Y-18765476D02*
X8414524Y-18765476D01*
X8433571Y-18775000D01*
X8443095Y-18784524D01*
X8452619Y-18803571D01*
X8462143Y-18841667D01*
X8462143Y-18889286D01*
X8452619Y-18927381D01*
X8443095Y-18946429D01*
X8433571Y-18955952D01*
X8414524Y-18965476D01*
X8395476Y-18965476D01*
X8376428Y-18955952D01*
X8366905Y-18946429D01*
X8357381Y-18927381D01*
X8347857Y-18889286D01*
X8347857Y-18841667D01*
X8357381Y-18803571D01*
X8366905Y-18784524D01*
X8376428Y-18775000D01*
X8395476Y-18765476D01*
X8547857Y-18946429D02*
X8557381Y-18955952D01*
X8547857Y-18965476D01*
X8538333Y-18955952D01*
X8547857Y-18946429D01*
X8547857Y-18965476D01*
X8681190Y-18765476D02*
X8700238Y-18765476D01*
X8719286Y-18775000D01*
X8728810Y-18784524D01*
X8738333Y-18803571D01*
X8747857Y-18841667D01*
X8747857Y-18889286D01*
X8738333Y-18927381D01*
X8728810Y-18946429D01*
X8719286Y-18955952D01*
X8700238Y-18965476D01*
X8681190Y-18965476D01*
X8662143Y-18955952D01*
X8652619Y-18946429D01*
X8643095Y-18927381D01*
X8633571Y-18889286D01*
X8633571Y-18841667D01*
X8643095Y-18803571D01*
X8652619Y-18784524D01*
X8662143Y-18775000D01*
X8681190Y-18765476D01*
X8814524Y-18765476D02*
X8938333Y-18765476D01*
X8871667Y-18841667D01*
X8900238Y-18841667D01*
X8919286Y-18851190D01*
X8928810Y-18860714D01*
X8938333Y-18879762D01*
X8938333Y-18927381D01*
X8928810Y-18946429D01*
X8919286Y-18955952D01*
X8900238Y-18965476D01*
X8843095Y-18965476D01*
X8824048Y-18955952D01*
X8814524Y-18946429D01*
X9119286Y-18765476D02*
X9024048Y-18765476D01*
X9014524Y-18860714D01*
X9024048Y-18851190D01*
X9043095Y-18841667D01*
X9090714Y-18841667D01*
X9109762Y-18851190D01*
X9119286Y-18860714D01*
X9128810Y-18879762D01*
X9128810Y-18927381D01*
X9119286Y-18946429D01*
X9109762Y-18955952D01*
X9090714Y-18965476D01*
X9043095Y-18965476D01*
X9024048Y-18955952D01*
X9014524Y-18946429D01*
X9300238Y-18832143D02*
X9300238Y-18965476D01*
X9252619Y-18755952D02*
X9205000Y-18898810D01*
X9328810Y-18898810D01*
X9395476Y-18765476D02*
X9395476Y-18803571D01*
X9471667Y-18765476D02*
X9471667Y-18803571D01*
X9766905Y-19041667D02*
X9757381Y-19032143D01*
X9738333Y-19003571D01*
X9728810Y-18984524D01*
X9719286Y-18955952D01*
X9709762Y-18908333D01*
X9709762Y-18870238D01*
X9719286Y-18822619D01*
X9728810Y-18794048D01*
X9738333Y-18775000D01*
X9757381Y-18746429D01*
X9766905Y-18736905D01*
X9833571Y-18784524D02*
X9843095Y-18775000D01*
X9862143Y-18765476D01*
X9909762Y-18765476D01*
X9928810Y-18775000D01*
X9938333Y-18784524D01*
X9947857Y-18803571D01*
X9947857Y-18822619D01*
X9938333Y-18851190D01*
X9824048Y-18965476D01*
X9947857Y-18965476D01*
X10185952Y-18965476D02*
X10185952Y-18765476D01*
X10271667Y-18965476D02*
X10271667Y-18860714D01*
X10262143Y-18841667D01*
X10243095Y-18832143D01*
X10214524Y-18832143D01*
X10195476Y-18841667D01*
X10185952Y-18851190D01*
X10395476Y-18965476D02*
X10376429Y-18955952D01*
X10366905Y-18946429D01*
X10357381Y-18927381D01*
X10357381Y-18870238D01*
X10366905Y-18851190D01*
X10376429Y-18841667D01*
X10395476Y-18832143D01*
X10424048Y-18832143D01*
X10443095Y-18841667D01*
X10452619Y-18851190D01*
X10462143Y-18870238D01*
X10462143Y-18927381D01*
X10452619Y-18946429D01*
X10443095Y-18955952D01*
X10424048Y-18965476D01*
X10395476Y-18965476D01*
X10576429Y-18965476D02*
X10557381Y-18955952D01*
X10547857Y-18936905D01*
X10547857Y-18765476D01*
X10728810Y-18955952D02*
X10709762Y-18965476D01*
X10671667Y-18965476D01*
X10652619Y-18955952D01*
X10643095Y-18936905D01*
X10643095Y-18860714D01*
X10652619Y-18841667D01*
X10671667Y-18832143D01*
X10709762Y-18832143D01*
X10728810Y-18841667D01*
X10738333Y-18860714D01*
X10738333Y-18879762D01*
X10643095Y-18898810D01*
X10814524Y-18955952D02*
X10833571Y-18965476D01*
X10871667Y-18965476D01*
X10890714Y-18955952D01*
X10900238Y-18936905D01*
X10900238Y-18927381D01*
X10890714Y-18908333D01*
X10871667Y-18898810D01*
X10843095Y-18898810D01*
X10824048Y-18889286D01*
X10814524Y-18870238D01*
X10814524Y-18860714D01*
X10824048Y-18841667D01*
X10843095Y-18832143D01*
X10871667Y-18832143D01*
X10890714Y-18841667D01*
X10966905Y-19041667D02*
X10976429Y-19032143D01*
X10995476Y-19003571D01*
X11005000Y-18984524D01*
X11014524Y-18955952D01*
X11024048Y-18908333D01*
X11024048Y-18870238D01*
X11014524Y-18822619D01*
X11005000Y-18794048D01*
X10995476Y-18775000D01*
X10976429Y-18746429D01*
X10966905Y-18736905D01*
X11328809Y-19041667D02*
X11319286Y-19032143D01*
X11300238Y-19003571D01*
X11290714Y-18984524D01*
X11281190Y-18955952D01*
X11271667Y-18908333D01*
X11271667Y-18870238D01*
X11281190Y-18822619D01*
X11290714Y-18794048D01*
X11300238Y-18775000D01*
X11319286Y-18746429D01*
X11328809Y-18736905D01*
X11405000Y-18832143D02*
X11405000Y-18965476D01*
X11405000Y-18851190D02*
X11414524Y-18841667D01*
X11433571Y-18832143D01*
X11462143Y-18832143D01*
X11481190Y-18841667D01*
X11490714Y-18860714D01*
X11490714Y-18965476D01*
X11614524Y-18965476D02*
X11595476Y-18955952D01*
X11585952Y-18946429D01*
X11576428Y-18927381D01*
X11576428Y-18870238D01*
X11585952Y-18851190D01*
X11595476Y-18841667D01*
X11614524Y-18832143D01*
X11643095Y-18832143D01*
X11662143Y-18841667D01*
X11671667Y-18851190D01*
X11681190Y-18870238D01*
X11681190Y-18927381D01*
X11671667Y-18946429D01*
X11662143Y-18955952D01*
X11643095Y-18965476D01*
X11614524Y-18965476D01*
X11738333Y-18832143D02*
X11814524Y-18832143D01*
X11766905Y-18765476D02*
X11766905Y-18936905D01*
X11776428Y-18955952D01*
X11795476Y-18965476D01*
X11814524Y-18965476D01*
X12033571Y-18832143D02*
X12033571Y-19032143D01*
X12033571Y-18841667D02*
X12052619Y-18832143D01*
X12090714Y-18832143D01*
X12109762Y-18841667D01*
X12119286Y-18851190D01*
X12128809Y-18870238D01*
X12128809Y-18927381D01*
X12119286Y-18946429D01*
X12109762Y-18955952D01*
X12090714Y-18965476D01*
X12052619Y-18965476D01*
X12033571Y-18955952D01*
X12243095Y-18965476D02*
X12224048Y-18955952D01*
X12214524Y-18936905D01*
X12214524Y-18765476D01*
X12405000Y-18965476D02*
X12405000Y-18860714D01*
X12395476Y-18841667D01*
X12376428Y-18832143D01*
X12338333Y-18832143D01*
X12319286Y-18841667D01*
X12405000Y-18955952D02*
X12385952Y-18965476D01*
X12338333Y-18965476D01*
X12319286Y-18955952D01*
X12309762Y-18936905D01*
X12309762Y-18917857D01*
X12319286Y-18898810D01*
X12338333Y-18889286D01*
X12385952Y-18889286D01*
X12405000Y-18879762D01*
X12471667Y-18832143D02*
X12547857Y-18832143D01*
X12500238Y-18765476D02*
X12500238Y-18936905D01*
X12509762Y-18955952D01*
X12528809Y-18965476D01*
X12547857Y-18965476D01*
X12690714Y-18955952D02*
X12671667Y-18965476D01*
X12633571Y-18965476D01*
X12614524Y-18955952D01*
X12605000Y-18936905D01*
X12605000Y-18860714D01*
X12614524Y-18841667D01*
X12633571Y-18832143D01*
X12671667Y-18832143D01*
X12690714Y-18841667D01*
X12700238Y-18860714D01*
X12700238Y-18879762D01*
X12605000Y-18898810D01*
X12871667Y-18965476D02*
X12871667Y-18765476D01*
X12871667Y-18955952D02*
X12852619Y-18965476D01*
X12814524Y-18965476D01*
X12795476Y-18955952D01*
X12785952Y-18946429D01*
X12776428Y-18927381D01*
X12776428Y-18870238D01*
X12785952Y-18851190D01*
X12795476Y-18841667D01*
X12814524Y-18832143D01*
X12852619Y-18832143D01*
X12871667Y-18841667D01*
X12947857Y-19041667D02*
X12957381Y-19032143D01*
X12976428Y-19003571D01*
X12985952Y-18984524D01*
X12995476Y-18955952D01*
X13005000Y-18908333D01*
X13005000Y-18870238D01*
X12995476Y-18822619D01*
X12985952Y-18794048D01*
X12976428Y-18775000D01*
X12957381Y-18746429D01*
X12947857Y-18736905D01*
D13*
X6195000Y-19139000D02*
G75*
G03*
X6195000Y-19139000I-75000J0D01*
G01*
D11*
X6557381Y-19229476D02*
X6443095Y-19229476D01*
X6500238Y-19229476D02*
X6500238Y-19029476D01*
X6481190Y-19058048D01*
X6462143Y-19077095D01*
X6443095Y-19086619D01*
X6643095Y-19210429D02*
X6652619Y-19219952D01*
X6643095Y-19229476D01*
X6633571Y-19219952D01*
X6643095Y-19210429D01*
X6643095Y-19229476D01*
X6833571Y-19029476D02*
X6738333Y-19029476D01*
X6728809Y-19124714D01*
X6738333Y-19115190D01*
X6757381Y-19105667D01*
X6805000Y-19105667D01*
X6824048Y-19115190D01*
X6833571Y-19124714D01*
X6843095Y-19143762D01*
X6843095Y-19191381D01*
X6833571Y-19210429D01*
X6824048Y-19219952D01*
X6805000Y-19229476D01*
X6757381Y-19229476D01*
X6738333Y-19219952D01*
X6728809Y-19210429D01*
X6966905Y-19029476D02*
X6985952Y-19029476D01*
X7005000Y-19039000D01*
X7014524Y-19048524D01*
X7024048Y-19067571D01*
X7033571Y-19105667D01*
X7033571Y-19153286D01*
X7024048Y-19191381D01*
X7014524Y-19210429D01*
X7005000Y-19219952D01*
X6985952Y-19229476D01*
X6966905Y-19229476D01*
X6947857Y-19219952D01*
X6938333Y-19210429D01*
X6928809Y-19191381D01*
X6919286Y-19153286D01*
X6919286Y-19105667D01*
X6928809Y-19067571D01*
X6938333Y-19048524D01*
X6947857Y-19039000D01*
X6966905Y-19029476D01*
X7157381Y-19029476D02*
X7176428Y-19029476D01*
X7195476Y-19039000D01*
X7205000Y-19048524D01*
X7214524Y-19067571D01*
X7224048Y-19105667D01*
X7224048Y-19153286D01*
X7214524Y-19191381D01*
X7205000Y-19210429D01*
X7195476Y-19219952D01*
X7176428Y-19229476D01*
X7157381Y-19229476D01*
X7138333Y-19219952D01*
X7128809Y-19210429D01*
X7119286Y-19191381D01*
X7109762Y-19153286D01*
X7109762Y-19105667D01*
X7119286Y-19067571D01*
X7128809Y-19048524D01*
X7138333Y-19039000D01*
X7157381Y-19029476D01*
X7309762Y-19229476D02*
X7309762Y-19096143D01*
X7309762Y-19115190D02*
X7319286Y-19105667D01*
X7338333Y-19096143D01*
X7366905Y-19096143D01*
X7385952Y-19105667D01*
X7395476Y-19124714D01*
X7395476Y-19229476D01*
X7395476Y-19124714D02*
X7405000Y-19105667D01*
X7424048Y-19096143D01*
X7452619Y-19096143D01*
X7471667Y-19105667D01*
X7481190Y-19124714D01*
X7481190Y-19229476D01*
X7576428Y-19229476D02*
X7576428Y-19096143D01*
X7576428Y-19115190D02*
X7585952Y-19105667D01*
X7605000Y-19096143D01*
X7633571Y-19096143D01*
X7652619Y-19105667D01*
X7662143Y-19124714D01*
X7662143Y-19229476D01*
X7662143Y-19124714D02*
X7671667Y-19105667D01*
X7690714Y-19096143D01*
X7719286Y-19096143D01*
X7738333Y-19105667D01*
X7747857Y-19124714D01*
X7747857Y-19229476D01*
X8138333Y-19019952D02*
X7966905Y-19277095D01*
X8395476Y-19029476D02*
X8414524Y-19029476D01*
X8433571Y-19039000D01*
X8443095Y-19048524D01*
X8452619Y-19067571D01*
X8462143Y-19105667D01*
X8462143Y-19153286D01*
X8452619Y-19191381D01*
X8443095Y-19210429D01*
X8433571Y-19219952D01*
X8414524Y-19229476D01*
X8395476Y-19229476D01*
X8376428Y-19219952D01*
X8366905Y-19210429D01*
X8357381Y-19191381D01*
X8347857Y-19153286D01*
X8347857Y-19105667D01*
X8357381Y-19067571D01*
X8366905Y-19048524D01*
X8376428Y-19039000D01*
X8395476Y-19029476D01*
X8547857Y-19210429D02*
X8557381Y-19219952D01*
X8547857Y-19229476D01*
X8538333Y-19219952D01*
X8547857Y-19210429D01*
X8547857Y-19229476D01*
X8681190Y-19029476D02*
X8700238Y-19029476D01*
X8719286Y-19039000D01*
X8728810Y-19048524D01*
X8738333Y-19067571D01*
X8747857Y-19105667D01*
X8747857Y-19153286D01*
X8738333Y-19191381D01*
X8728810Y-19210429D01*
X8719286Y-19219952D01*
X8700238Y-19229476D01*
X8681190Y-19229476D01*
X8662143Y-19219952D01*
X8652619Y-19210429D01*
X8643095Y-19191381D01*
X8633571Y-19153286D01*
X8633571Y-19105667D01*
X8643095Y-19067571D01*
X8652619Y-19048524D01*
X8662143Y-19039000D01*
X8681190Y-19029476D01*
X8928810Y-19029476D02*
X8833571Y-19029476D01*
X8824048Y-19124714D01*
X8833571Y-19115190D01*
X8852619Y-19105667D01*
X8900238Y-19105667D01*
X8919286Y-19115190D01*
X8928810Y-19124714D01*
X8938333Y-19143762D01*
X8938333Y-19191381D01*
X8928810Y-19210429D01*
X8919286Y-19219952D01*
X8900238Y-19229476D01*
X8852619Y-19229476D01*
X8833571Y-19219952D01*
X8824048Y-19210429D01*
X9033571Y-19229476D02*
X9071667Y-19229476D01*
X9090714Y-19219952D01*
X9100238Y-19210429D01*
X9119286Y-19181857D01*
X9128810Y-19143762D01*
X9128810Y-19067571D01*
X9119286Y-19048524D01*
X9109762Y-19039000D01*
X9090714Y-19029476D01*
X9052619Y-19029476D01*
X9033571Y-19039000D01*
X9024048Y-19048524D01*
X9014524Y-19067571D01*
X9014524Y-19115190D01*
X9024048Y-19134238D01*
X9033571Y-19143762D01*
X9052619Y-19153286D01*
X9090714Y-19153286D01*
X9109762Y-19143762D01*
X9119286Y-19134238D01*
X9128810Y-19115190D01*
X9319286Y-19229476D02*
X9205000Y-19229476D01*
X9262143Y-19229476D02*
X9262143Y-19029476D01*
X9243095Y-19058048D01*
X9224048Y-19077095D01*
X9205000Y-19086619D01*
X9395476Y-19029476D02*
X9395476Y-19067571D01*
X9471667Y-19029476D02*
X9471667Y-19067571D01*
X9766905Y-19305667D02*
X9757381Y-19296143D01*
X9738333Y-19267571D01*
X9728810Y-19248524D01*
X9719286Y-19219952D01*
X9709762Y-19172333D01*
X9709762Y-19134238D01*
X9719286Y-19086619D01*
X9728810Y-19058048D01*
X9738333Y-19039000D01*
X9757381Y-19010429D01*
X9766905Y-19000905D01*
X9881190Y-19029476D02*
X9900238Y-19029476D01*
X9919286Y-19039000D01*
X9928810Y-19048524D01*
X9938333Y-19067571D01*
X9947857Y-19105667D01*
X9947857Y-19153286D01*
X9938333Y-19191381D01*
X9928810Y-19210429D01*
X9919286Y-19219952D01*
X9900238Y-19229476D01*
X9881190Y-19229476D01*
X9862143Y-19219952D01*
X9852619Y-19210429D01*
X9843095Y-19191381D01*
X9833571Y-19153286D01*
X9833571Y-19105667D01*
X9843095Y-19067571D01*
X9852619Y-19048524D01*
X9862143Y-19039000D01*
X9881190Y-19029476D01*
X10185952Y-19229476D02*
X10185952Y-19029476D01*
X10271667Y-19229476D02*
X10271667Y-19124714D01*
X10262143Y-19105667D01*
X10243095Y-19096143D01*
X10214524Y-19096143D01*
X10195476Y-19105667D01*
X10185952Y-19115190D01*
X10395476Y-19229476D02*
X10376429Y-19219952D01*
X10366905Y-19210429D01*
X10357381Y-19191381D01*
X10357381Y-19134238D01*
X10366905Y-19115190D01*
X10376429Y-19105667D01*
X10395476Y-19096143D01*
X10424048Y-19096143D01*
X10443095Y-19105667D01*
X10452619Y-19115190D01*
X10462143Y-19134238D01*
X10462143Y-19191381D01*
X10452619Y-19210429D01*
X10443095Y-19219952D01*
X10424048Y-19229476D01*
X10395476Y-19229476D01*
X10576429Y-19229476D02*
X10557381Y-19219952D01*
X10547857Y-19200905D01*
X10547857Y-19029476D01*
X10728810Y-19219952D02*
X10709762Y-19229476D01*
X10671667Y-19229476D01*
X10652619Y-19219952D01*
X10643095Y-19200905D01*
X10643095Y-19124714D01*
X10652619Y-19105667D01*
X10671667Y-19096143D01*
X10709762Y-19096143D01*
X10728810Y-19105667D01*
X10738333Y-19124714D01*
X10738333Y-19143762D01*
X10643095Y-19162810D01*
X10814524Y-19219952D02*
X10833571Y-19229476D01*
X10871667Y-19229476D01*
X10890714Y-19219952D01*
X10900238Y-19200905D01*
X10900238Y-19191381D01*
X10890714Y-19172333D01*
X10871667Y-19162810D01*
X10843095Y-19162810D01*
X10824048Y-19153286D01*
X10814524Y-19134238D01*
X10814524Y-19124714D01*
X10824048Y-19105667D01*
X10843095Y-19096143D01*
X10871667Y-19096143D01*
X10890714Y-19105667D01*
X11138333Y-19153286D02*
X11290714Y-19153286D01*
X11214524Y-19229476D02*
X11214524Y-19077095D01*
X11624048Y-19096143D02*
X11624048Y-19229476D01*
X11576428Y-19019952D02*
X11528809Y-19162810D01*
X11652619Y-19162810D01*
X11871667Y-19219952D02*
X11890714Y-19229476D01*
X11928809Y-19229476D01*
X11947857Y-19219952D01*
X11957381Y-19200905D01*
X11957381Y-19191381D01*
X11947857Y-19172333D01*
X11928809Y-19162810D01*
X11900238Y-19162810D01*
X11881190Y-19153286D01*
X11871667Y-19134238D01*
X11871667Y-19124714D01*
X11881190Y-19105667D01*
X11900238Y-19096143D01*
X11928809Y-19096143D01*
X11947857Y-19105667D01*
X12071667Y-19229476D02*
X12052619Y-19219952D01*
X12043095Y-19200905D01*
X12043095Y-19029476D01*
X12176428Y-19229476D02*
X12157381Y-19219952D01*
X12147857Y-19210429D01*
X12138333Y-19191381D01*
X12138333Y-19134238D01*
X12147857Y-19115190D01*
X12157381Y-19105667D01*
X12176428Y-19096143D01*
X12205000Y-19096143D01*
X12224048Y-19105667D01*
X12233571Y-19115190D01*
X12243095Y-19134238D01*
X12243095Y-19191381D01*
X12233571Y-19210429D01*
X12224048Y-19219952D01*
X12205000Y-19229476D01*
X12176428Y-19229476D01*
X12300238Y-19096143D02*
X12376428Y-19096143D01*
X12328809Y-19029476D02*
X12328809Y-19200905D01*
X12338333Y-19219952D01*
X12357381Y-19229476D01*
X12376428Y-19229476D01*
X12433571Y-19219952D02*
X12452619Y-19229476D01*
X12490714Y-19229476D01*
X12509762Y-19219952D01*
X12519286Y-19200905D01*
X12519286Y-19191381D01*
X12509762Y-19172333D01*
X12490714Y-19162810D01*
X12462143Y-19162810D01*
X12443095Y-19153286D01*
X12433571Y-19134238D01*
X12433571Y-19124714D01*
X12443095Y-19105667D01*
X12462143Y-19096143D01*
X12490714Y-19096143D01*
X12509762Y-19105667D01*
X12585952Y-19305667D02*
X12595476Y-19296143D01*
X12614524Y-19267571D01*
X12624048Y-19248524D01*
X12633571Y-19219952D01*
X12643095Y-19172333D01*
X12643095Y-19134238D01*
X12633571Y-19086619D01*
X12624048Y-19058048D01*
X12614524Y-19039000D01*
X12595476Y-19010429D01*
X12585952Y-19000905D01*
X12947857Y-19305667D02*
X12938333Y-19296143D01*
X12919286Y-19267571D01*
X12909762Y-19248524D01*
X12900238Y-19219952D01*
X12890714Y-19172333D01*
X12890714Y-19134238D01*
X12900238Y-19086619D01*
X12909762Y-19058048D01*
X12919286Y-19039000D01*
X12938333Y-19010429D01*
X12947857Y-19000905D01*
X13024048Y-19096143D02*
X13024048Y-19229476D01*
X13024048Y-19115190D02*
X13033571Y-19105667D01*
X13052619Y-19096143D01*
X13081190Y-19096143D01*
X13100238Y-19105667D01*
X13109762Y-19124714D01*
X13109762Y-19229476D01*
X13233571Y-19229476D02*
X13214524Y-19219952D01*
X13205000Y-19210429D01*
X13195476Y-19191381D01*
X13195476Y-19134238D01*
X13205000Y-19115190D01*
X13214524Y-19105667D01*
X13233571Y-19096143D01*
X13262143Y-19096143D01*
X13281190Y-19105667D01*
X13290714Y-19115190D01*
X13300238Y-19134238D01*
X13300238Y-19191381D01*
X13290714Y-19210429D01*
X13281190Y-19219952D01*
X13262143Y-19229476D01*
X13233571Y-19229476D01*
X13357381Y-19096143D02*
X13433571Y-19096143D01*
X13385952Y-19029476D02*
X13385952Y-19200905D01*
X13395476Y-19219952D01*
X13414524Y-19229476D01*
X13433571Y-19229476D01*
X13652619Y-19096143D02*
X13652619Y-19296143D01*
X13652619Y-19105667D02*
X13671667Y-19096143D01*
X13709762Y-19096143D01*
X13728809Y-19105667D01*
X13738333Y-19115190D01*
X13747857Y-19134238D01*
X13747857Y-19191381D01*
X13738333Y-19210429D01*
X13728809Y-19219952D01*
X13709762Y-19229476D01*
X13671667Y-19229476D01*
X13652619Y-19219952D01*
X13862143Y-19229476D02*
X13843095Y-19219952D01*
X13833571Y-19200905D01*
X13833571Y-19029476D01*
X14024048Y-19229476D02*
X14024048Y-19124714D01*
X14014524Y-19105667D01*
X13995476Y-19096143D01*
X13957381Y-19096143D01*
X13938333Y-19105667D01*
X14024048Y-19219952D02*
X14005000Y-19229476D01*
X13957381Y-19229476D01*
X13938333Y-19219952D01*
X13928809Y-19200905D01*
X13928809Y-19181857D01*
X13938333Y-19162810D01*
X13957381Y-19153286D01*
X14005000Y-19153286D01*
X14024048Y-19143762D01*
X14090714Y-19096143D02*
X14166905Y-19096143D01*
X14119286Y-19029476D02*
X14119286Y-19200905D01*
X14128809Y-19219952D01*
X14147857Y-19229476D01*
X14166905Y-19229476D01*
X14309762Y-19219952D02*
X14290714Y-19229476D01*
X14252619Y-19229476D01*
X14233571Y-19219952D01*
X14224048Y-19200905D01*
X14224048Y-19124714D01*
X14233571Y-19105667D01*
X14252619Y-19096143D01*
X14290714Y-19096143D01*
X14309762Y-19105667D01*
X14319286Y-19124714D01*
X14319286Y-19143762D01*
X14224048Y-19162810D01*
X14490714Y-19229476D02*
X14490714Y-19029476D01*
X14490714Y-19219952D02*
X14471667Y-19229476D01*
X14433571Y-19229476D01*
X14414524Y-19219952D01*
X14405000Y-19210429D01*
X14395476Y-19191381D01*
X14395476Y-19134238D01*
X14405000Y-19115190D01*
X14414524Y-19105667D01*
X14433571Y-19096143D01*
X14471667Y-19096143D01*
X14490714Y-19105667D01*
X14566905Y-19305667D02*
X14576428Y-19296143D01*
X14595476Y-19267571D01*
X14605000Y-19248524D01*
X14614524Y-19219952D01*
X14624048Y-19172333D01*
X14624048Y-19134238D01*
X14614524Y-19086619D01*
X14605000Y-19058048D01*
X14595476Y-19039000D01*
X14576428Y-19010429D01*
X14566905Y-19000905D01*
D14*
X6110000Y-19324000D02*
X6110000Y-19494000D01*
X6025000Y-19409000D02*
X6195000Y-19409000D01*
D11*
X6557381Y-19499476D02*
X6443095Y-19499476D01*
X6500238Y-19499476D02*
X6500238Y-19299476D01*
X6481190Y-19328048D01*
X6462143Y-19347095D01*
X6443095Y-19356619D01*
X6643095Y-19480429D02*
X6652619Y-19489952D01*
X6643095Y-19499476D01*
X6633571Y-19489952D01*
X6643095Y-19480429D01*
X6643095Y-19499476D01*
X6719286Y-19299476D02*
X6852619Y-19299476D01*
X6766905Y-19499476D01*
X6966905Y-19299476D02*
X6985952Y-19299476D01*
X7005000Y-19309000D01*
X7014524Y-19318524D01*
X7024048Y-19337571D01*
X7033571Y-19375667D01*
X7033571Y-19423286D01*
X7024048Y-19461381D01*
X7014524Y-19480429D01*
X7005000Y-19489952D01*
X6985952Y-19499476D01*
X6966905Y-19499476D01*
X6947857Y-19489952D01*
X6938333Y-19480429D01*
X6928809Y-19461381D01*
X6919286Y-19423286D01*
X6919286Y-19375667D01*
X6928809Y-19337571D01*
X6938333Y-19318524D01*
X6947857Y-19309000D01*
X6966905Y-19299476D01*
X7157381Y-19299476D02*
X7176428Y-19299476D01*
X7195476Y-19309000D01*
X7205000Y-19318524D01*
X7214524Y-19337571D01*
X7224048Y-19375667D01*
X7224048Y-19423286D01*
X7214524Y-19461381D01*
X7205000Y-19480429D01*
X7195476Y-19489952D01*
X7176428Y-19499476D01*
X7157381Y-19499476D01*
X7138333Y-19489952D01*
X7128809Y-19480429D01*
X7119286Y-19461381D01*
X7109762Y-19423286D01*
X7109762Y-19375667D01*
X7119286Y-19337571D01*
X7128809Y-19318524D01*
X7138333Y-19309000D01*
X7157381Y-19299476D01*
X7309762Y-19499476D02*
X7309762Y-19366143D01*
X7309762Y-19385190D02*
X7319286Y-19375667D01*
X7338333Y-19366143D01*
X7366905Y-19366143D01*
X7385952Y-19375667D01*
X7395476Y-19394714D01*
X7395476Y-19499476D01*
X7395476Y-19394714D02*
X7405000Y-19375667D01*
X7424048Y-19366143D01*
X7452619Y-19366143D01*
X7471667Y-19375667D01*
X7481190Y-19394714D01*
X7481190Y-19499476D01*
X7576428Y-19499476D02*
X7576428Y-19366143D01*
X7576428Y-19385190D02*
X7585952Y-19375667D01*
X7605000Y-19366143D01*
X7633571Y-19366143D01*
X7652619Y-19375667D01*
X7662143Y-19394714D01*
X7662143Y-19499476D01*
X7662143Y-19394714D02*
X7671667Y-19375667D01*
X7690714Y-19366143D01*
X7719286Y-19366143D01*
X7738333Y-19375667D01*
X7747857Y-19394714D01*
X7747857Y-19499476D01*
X8138333Y-19289952D02*
X7966905Y-19547095D01*
X8395476Y-19299476D02*
X8414524Y-19299476D01*
X8433571Y-19309000D01*
X8443095Y-19318524D01*
X8452619Y-19337571D01*
X8462143Y-19375667D01*
X8462143Y-19423286D01*
X8452619Y-19461381D01*
X8443095Y-19480429D01*
X8433571Y-19489952D01*
X8414524Y-19499476D01*
X8395476Y-19499476D01*
X8376428Y-19489952D01*
X8366905Y-19480429D01*
X8357381Y-19461381D01*
X8347857Y-19423286D01*
X8347857Y-19375667D01*
X8357381Y-19337571D01*
X8366905Y-19318524D01*
X8376428Y-19309000D01*
X8395476Y-19299476D01*
X8547857Y-19480429D02*
X8557381Y-19489952D01*
X8547857Y-19499476D01*
X8538333Y-19489952D01*
X8547857Y-19480429D01*
X8547857Y-19499476D01*
X8681190Y-19299476D02*
X8700238Y-19299476D01*
X8719286Y-19309000D01*
X8728810Y-19318524D01*
X8738333Y-19337571D01*
X8747857Y-19375667D01*
X8747857Y-19423286D01*
X8738333Y-19461381D01*
X8728810Y-19480429D01*
X8719286Y-19489952D01*
X8700238Y-19499476D01*
X8681190Y-19499476D01*
X8662143Y-19489952D01*
X8652619Y-19480429D01*
X8643095Y-19461381D01*
X8633571Y-19423286D01*
X8633571Y-19375667D01*
X8643095Y-19337571D01*
X8652619Y-19318524D01*
X8662143Y-19309000D01*
X8681190Y-19299476D01*
X8919286Y-19299476D02*
X8881190Y-19299476D01*
X8862143Y-19309000D01*
X8852619Y-19318524D01*
X8833571Y-19347095D01*
X8824048Y-19385190D01*
X8824048Y-19461381D01*
X8833571Y-19480429D01*
X8843095Y-19489952D01*
X8862143Y-19499476D01*
X8900238Y-19499476D01*
X8919286Y-19489952D01*
X8928810Y-19480429D01*
X8938333Y-19461381D01*
X8938333Y-19413762D01*
X8928810Y-19394714D01*
X8919286Y-19385190D01*
X8900238Y-19375667D01*
X8862143Y-19375667D01*
X8843095Y-19385190D01*
X8833571Y-19394714D01*
X8824048Y-19413762D01*
X9109762Y-19299476D02*
X9071667Y-19299476D01*
X9052619Y-19309000D01*
X9043095Y-19318524D01*
X9024048Y-19347095D01*
X9014524Y-19385190D01*
X9014524Y-19461381D01*
X9024048Y-19480429D01*
X9033571Y-19489952D01*
X9052619Y-19499476D01*
X9090714Y-19499476D01*
X9109762Y-19489952D01*
X9119286Y-19480429D01*
X9128810Y-19461381D01*
X9128810Y-19413762D01*
X9119286Y-19394714D01*
X9109762Y-19385190D01*
X9090714Y-19375667D01*
X9052619Y-19375667D01*
X9033571Y-19385190D01*
X9024048Y-19394714D01*
X9014524Y-19413762D01*
X9224048Y-19499476D02*
X9262143Y-19499476D01*
X9281190Y-19489952D01*
X9290714Y-19480429D01*
X9309762Y-19451857D01*
X9319286Y-19413762D01*
X9319286Y-19337571D01*
X9309762Y-19318524D01*
X9300238Y-19309000D01*
X9281190Y-19299476D01*
X9243095Y-19299476D01*
X9224048Y-19309000D01*
X9214524Y-19318524D01*
X9205000Y-19337571D01*
X9205000Y-19385190D01*
X9214524Y-19404238D01*
X9224048Y-19413762D01*
X9243095Y-19423286D01*
X9281190Y-19423286D01*
X9300238Y-19413762D01*
X9309762Y-19404238D01*
X9319286Y-19385190D01*
X9395476Y-19299476D02*
X9395476Y-19337571D01*
X9471667Y-19299476D02*
X9471667Y-19337571D01*
X9766905Y-19575667D02*
X9757381Y-19566143D01*
X9738333Y-19537571D01*
X9728810Y-19518524D01*
X9719286Y-19489952D01*
X9709762Y-19442333D01*
X9709762Y-19404238D01*
X9719286Y-19356619D01*
X9728810Y-19328048D01*
X9738333Y-19309000D01*
X9757381Y-19280429D01*
X9766905Y-19270905D01*
X9938333Y-19299476D02*
X9843095Y-19299476D01*
X9833571Y-19394714D01*
X9843095Y-19385190D01*
X9862143Y-19375667D01*
X9909762Y-19375667D01*
X9928810Y-19385190D01*
X9938333Y-19394714D01*
X9947857Y-19413762D01*
X9947857Y-19461381D01*
X9938333Y-19480429D01*
X9928810Y-19489952D01*
X9909762Y-19499476D01*
X9862143Y-19499476D01*
X9843095Y-19489952D01*
X9833571Y-19480429D01*
X10119286Y-19366143D02*
X10119286Y-19499476D01*
X10071667Y-19289952D02*
X10024048Y-19432810D01*
X10147857Y-19432810D01*
X10376429Y-19499476D02*
X10376429Y-19299476D01*
X10462143Y-19499476D02*
X10462143Y-19394714D01*
X10452619Y-19375667D01*
X10433571Y-19366143D01*
X10405000Y-19366143D01*
X10385952Y-19375667D01*
X10376429Y-19385190D01*
X10585952Y-19499476D02*
X10566905Y-19489952D01*
X10557381Y-19480429D01*
X10547857Y-19461381D01*
X10547857Y-19404238D01*
X10557381Y-19385190D01*
X10566905Y-19375667D01*
X10585952Y-19366143D01*
X10614524Y-19366143D01*
X10633571Y-19375667D01*
X10643095Y-19385190D01*
X10652619Y-19404238D01*
X10652619Y-19461381D01*
X10643095Y-19480429D01*
X10633571Y-19489952D01*
X10614524Y-19499476D01*
X10585952Y-19499476D01*
X10766905Y-19499476D02*
X10747857Y-19489952D01*
X10738333Y-19470905D01*
X10738333Y-19299476D01*
X10919286Y-19489952D02*
X10900238Y-19499476D01*
X10862143Y-19499476D01*
X10843095Y-19489952D01*
X10833571Y-19470905D01*
X10833571Y-19394714D01*
X10843095Y-19375667D01*
X10862143Y-19366143D01*
X10900238Y-19366143D01*
X10919286Y-19375667D01*
X10928810Y-19394714D01*
X10928810Y-19413762D01*
X10833571Y-19432810D01*
X11005000Y-19489952D02*
X11024048Y-19499476D01*
X11062143Y-19499476D01*
X11081190Y-19489952D01*
X11090714Y-19470905D01*
X11090714Y-19461381D01*
X11081190Y-19442333D01*
X11062143Y-19432810D01*
X11033571Y-19432810D01*
X11014524Y-19423286D01*
X11005000Y-19404238D01*
X11005000Y-19394714D01*
X11014524Y-19375667D01*
X11033571Y-19366143D01*
X11062143Y-19366143D01*
X11081190Y-19375667D01*
X11157381Y-19575667D02*
X11166905Y-19566143D01*
X11185952Y-19537571D01*
X11195476Y-19518524D01*
X11205000Y-19489952D01*
X11214524Y-19442333D01*
X11214524Y-19404238D01*
X11205000Y-19356619D01*
X11195476Y-19328048D01*
X11185952Y-19309000D01*
X11166905Y-19280429D01*
X11157381Y-19270905D01*
X11519286Y-19575667D02*
X11509762Y-19566143D01*
X11490714Y-19537571D01*
X11481190Y-19518524D01*
X11471667Y-19489952D01*
X11462143Y-19442333D01*
X11462143Y-19404238D01*
X11471667Y-19356619D01*
X11481190Y-19328048D01*
X11490714Y-19309000D01*
X11509762Y-19280429D01*
X11519286Y-19270905D01*
X11595476Y-19366143D02*
X11595476Y-19499476D01*
X11595476Y-19385190D02*
X11605000Y-19375667D01*
X11624048Y-19366143D01*
X11652619Y-19366143D01*
X11671667Y-19375667D01*
X11681190Y-19394714D01*
X11681190Y-19499476D01*
X11805000Y-19499476D02*
X11785952Y-19489952D01*
X11776428Y-19480429D01*
X11766905Y-19461381D01*
X11766905Y-19404238D01*
X11776428Y-19385190D01*
X11785952Y-19375667D01*
X11805000Y-19366143D01*
X11833571Y-19366143D01*
X11852619Y-19375667D01*
X11862143Y-19385190D01*
X11871667Y-19404238D01*
X11871667Y-19461381D01*
X11862143Y-19480429D01*
X11852619Y-19489952D01*
X11833571Y-19499476D01*
X11805000Y-19499476D01*
X11928809Y-19366143D02*
X12005000Y-19366143D01*
X11957381Y-19299476D02*
X11957381Y-19470905D01*
X11966905Y-19489952D01*
X11985952Y-19499476D01*
X12005000Y-19499476D01*
X12224048Y-19366143D02*
X12224048Y-19566143D01*
X12224048Y-19375667D02*
X12243095Y-19366143D01*
X12281190Y-19366143D01*
X12300238Y-19375667D01*
X12309762Y-19385190D01*
X12319286Y-19404238D01*
X12319286Y-19461381D01*
X12309762Y-19480429D01*
X12300238Y-19489952D01*
X12281190Y-19499476D01*
X12243095Y-19499476D01*
X12224048Y-19489952D01*
X12433571Y-19499476D02*
X12414524Y-19489952D01*
X12405000Y-19470905D01*
X12405000Y-19299476D01*
X12595476Y-19499476D02*
X12595476Y-19394714D01*
X12585952Y-19375667D01*
X12566905Y-19366143D01*
X12528809Y-19366143D01*
X12509762Y-19375667D01*
X12595476Y-19489952D02*
X12576428Y-19499476D01*
X12528809Y-19499476D01*
X12509762Y-19489952D01*
X12500238Y-19470905D01*
X12500238Y-19451857D01*
X12509762Y-19432810D01*
X12528809Y-19423286D01*
X12576428Y-19423286D01*
X12595476Y-19413762D01*
X12662143Y-19366143D02*
X12738333Y-19366143D01*
X12690714Y-19299476D02*
X12690714Y-19470905D01*
X12700238Y-19489952D01*
X12719286Y-19499476D01*
X12738333Y-19499476D01*
X12881190Y-19489952D02*
X12862143Y-19499476D01*
X12824048Y-19499476D01*
X12805000Y-19489952D01*
X12795476Y-19470905D01*
X12795476Y-19394714D01*
X12805000Y-19375667D01*
X12824048Y-19366143D01*
X12862143Y-19366143D01*
X12881190Y-19375667D01*
X12890714Y-19394714D01*
X12890714Y-19413762D01*
X12795476Y-19432810D01*
X13062143Y-19499476D02*
X13062143Y-19299476D01*
X13062143Y-19489952D02*
X13043095Y-19499476D01*
X13005000Y-19499476D01*
X12985952Y-19489952D01*
X12976428Y-19480429D01*
X12966905Y-19461381D01*
X12966905Y-19404238D01*
X12976428Y-19385190D01*
X12985952Y-19375667D01*
X13005000Y-19366143D01*
X13043095Y-19366143D01*
X13062143Y-19375667D01*
X13138333Y-19575667D02*
X13147857Y-19566143D01*
X13166905Y-19537571D01*
X13176428Y-19518524D01*
X13185952Y-19489952D01*
X13195476Y-19442333D01*
X13195476Y-19404238D01*
X13185952Y-19356619D01*
X13176428Y-19328048D01*
X13166905Y-19309000D01*
X13147857Y-19280429D01*
X13138333Y-19270905D01*
X6165711Y-19769711D02*
X6165711Y-19628289D01*
X6024289Y-19628289D01*
X6024289Y-19769711D01*
X6165711Y-19769711D01*
X6538333Y-19656143D02*
X6538333Y-19789476D01*
X6490714Y-19579952D02*
X6443095Y-19722810D01*
X6566905Y-19722810D01*
X6643095Y-19770429D02*
X6652619Y-19779952D01*
X6643095Y-19789476D01*
X6633571Y-19779952D01*
X6643095Y-19770429D01*
X6643095Y-19789476D01*
X6776428Y-19589476D02*
X6795476Y-19589476D01*
X6814524Y-19599000D01*
X6824048Y-19608524D01*
X6833571Y-19627571D01*
X6843095Y-19665667D01*
X6843095Y-19713286D01*
X6833571Y-19751381D01*
X6824048Y-19770429D01*
X6814524Y-19779952D01*
X6795476Y-19789476D01*
X6776428Y-19789476D01*
X6757381Y-19779952D01*
X6747857Y-19770429D01*
X6738333Y-19751381D01*
X6728809Y-19713286D01*
X6728809Y-19665667D01*
X6738333Y-19627571D01*
X6747857Y-19608524D01*
X6757381Y-19599000D01*
X6776428Y-19589476D01*
X6966905Y-19589476D02*
X6985952Y-19589476D01*
X7005000Y-19599000D01*
X7014524Y-19608524D01*
X7024048Y-19627571D01*
X7033571Y-19665667D01*
X7033571Y-19713286D01*
X7024048Y-19751381D01*
X7014524Y-19770429D01*
X7005000Y-19779952D01*
X6985952Y-19789476D01*
X6966905Y-19789476D01*
X6947857Y-19779952D01*
X6938333Y-19770429D01*
X6928809Y-19751381D01*
X6919286Y-19713286D01*
X6919286Y-19665667D01*
X6928809Y-19627571D01*
X6938333Y-19608524D01*
X6947857Y-19599000D01*
X6966905Y-19589476D01*
X7157381Y-19589476D02*
X7176428Y-19589476D01*
X7195476Y-19599000D01*
X7205000Y-19608524D01*
X7214524Y-19627571D01*
X7224048Y-19665667D01*
X7224048Y-19713286D01*
X7214524Y-19751381D01*
X7205000Y-19770429D01*
X7195476Y-19779952D01*
X7176428Y-19789476D01*
X7157381Y-19789476D01*
X7138333Y-19779952D01*
X7128809Y-19770429D01*
X7119286Y-19751381D01*
X7109762Y-19713286D01*
X7109762Y-19665667D01*
X7119286Y-19627571D01*
X7128809Y-19608524D01*
X7138333Y-19599000D01*
X7157381Y-19589476D01*
X7309762Y-19789476D02*
X7309762Y-19656143D01*
X7309762Y-19675190D02*
X7319286Y-19665667D01*
X7338333Y-19656143D01*
X7366905Y-19656143D01*
X7385952Y-19665667D01*
X7395476Y-19684714D01*
X7395476Y-19789476D01*
X7395476Y-19684714D02*
X7405000Y-19665667D01*
X7424048Y-19656143D01*
X7452619Y-19656143D01*
X7471667Y-19665667D01*
X7481190Y-19684714D01*
X7481190Y-19789476D01*
X7576428Y-19789476D02*
X7576428Y-19656143D01*
X7576428Y-19675190D02*
X7585952Y-19665667D01*
X7605000Y-19656143D01*
X7633571Y-19656143D01*
X7652619Y-19665667D01*
X7662143Y-19684714D01*
X7662143Y-19789476D01*
X7662143Y-19684714D02*
X7671667Y-19665667D01*
X7690714Y-19656143D01*
X7719286Y-19656143D01*
X7738333Y-19665667D01*
X7747857Y-19684714D01*
X7747857Y-19789476D01*
X8138333Y-19579952D02*
X7966905Y-19837095D01*
X8395476Y-19589476D02*
X8414524Y-19589476D01*
X8433571Y-19599000D01*
X8443095Y-19608524D01*
X8452619Y-19627571D01*
X8462143Y-19665667D01*
X8462143Y-19713286D01*
X8452619Y-19751381D01*
X8443095Y-19770429D01*
X8433571Y-19779952D01*
X8414524Y-19789476D01*
X8395476Y-19789476D01*
X8376428Y-19779952D01*
X8366905Y-19770429D01*
X8357381Y-19751381D01*
X8347857Y-19713286D01*
X8347857Y-19665667D01*
X8357381Y-19627571D01*
X8366905Y-19608524D01*
X8376428Y-19599000D01*
X8395476Y-19589476D01*
X8547857Y-19770429D02*
X8557381Y-19779952D01*
X8547857Y-19789476D01*
X8538333Y-19779952D01*
X8547857Y-19770429D01*
X8547857Y-19789476D01*
X8747857Y-19789476D02*
X8633571Y-19789476D01*
X8690714Y-19789476D02*
X8690714Y-19589476D01*
X8671667Y-19618048D01*
X8652619Y-19637095D01*
X8633571Y-19646619D01*
X8928810Y-19589476D02*
X8833571Y-19589476D01*
X8824048Y-19684714D01*
X8833571Y-19675190D01*
X8852619Y-19665667D01*
X8900238Y-19665667D01*
X8919286Y-19675190D01*
X8928810Y-19684714D01*
X8938333Y-19703762D01*
X8938333Y-19751381D01*
X8928810Y-19770429D01*
X8919286Y-19779952D01*
X8900238Y-19789476D01*
X8852619Y-19789476D01*
X8833571Y-19779952D01*
X8824048Y-19770429D01*
X9005000Y-19589476D02*
X9138333Y-19589476D01*
X9052619Y-19789476D01*
X9309762Y-19589476D02*
X9214524Y-19589476D01*
X9205000Y-19684714D01*
X9214524Y-19675190D01*
X9233571Y-19665667D01*
X9281190Y-19665667D01*
X9300238Y-19675190D01*
X9309762Y-19684714D01*
X9319286Y-19703762D01*
X9319286Y-19751381D01*
X9309762Y-19770429D01*
X9300238Y-19779952D01*
X9281190Y-19789476D01*
X9233571Y-19789476D01*
X9214524Y-19779952D01*
X9205000Y-19770429D01*
X9395476Y-19589476D02*
X9395476Y-19627571D01*
X9471667Y-19589476D02*
X9471667Y-19627571D01*
X9766905Y-19865667D02*
X9757381Y-19856143D01*
X9738333Y-19827571D01*
X9728810Y-19808524D01*
X9719286Y-19779952D01*
X9709762Y-19732333D01*
X9709762Y-19694238D01*
X9719286Y-19646619D01*
X9728810Y-19618048D01*
X9738333Y-19599000D01*
X9757381Y-19570429D01*
X9766905Y-19560905D01*
X9833571Y-19608524D02*
X9843095Y-19599000D01*
X9862143Y-19589476D01*
X9909762Y-19589476D01*
X9928810Y-19599000D01*
X9938333Y-19608524D01*
X9947857Y-19627571D01*
X9947857Y-19646619D01*
X9938333Y-19675190D01*
X9824048Y-19789476D01*
X9947857Y-19789476D01*
X10014524Y-19589476D02*
X10147857Y-19589476D01*
X10062143Y-19789476D01*
X10376429Y-19789476D02*
X10376429Y-19589476D01*
X10462143Y-19789476D02*
X10462143Y-19684714D01*
X10452619Y-19665667D01*
X10433571Y-19656143D01*
X10405000Y-19656143D01*
X10385952Y-19665667D01*
X10376429Y-19675190D01*
X10585952Y-19789476D02*
X10566905Y-19779952D01*
X10557381Y-19770429D01*
X10547857Y-19751381D01*
X10547857Y-19694238D01*
X10557381Y-19675190D01*
X10566905Y-19665667D01*
X10585952Y-19656143D01*
X10614524Y-19656143D01*
X10633571Y-19665667D01*
X10643095Y-19675190D01*
X10652619Y-19694238D01*
X10652619Y-19751381D01*
X10643095Y-19770429D01*
X10633571Y-19779952D01*
X10614524Y-19789476D01*
X10585952Y-19789476D01*
X10766905Y-19789476D02*
X10747857Y-19779952D01*
X10738333Y-19760905D01*
X10738333Y-19589476D01*
X10919286Y-19779952D02*
X10900238Y-19789476D01*
X10862143Y-19789476D01*
X10843095Y-19779952D01*
X10833571Y-19760905D01*
X10833571Y-19684714D01*
X10843095Y-19665667D01*
X10862143Y-19656143D01*
X10900238Y-19656143D01*
X10919286Y-19665667D01*
X10928810Y-19684714D01*
X10928810Y-19703762D01*
X10833571Y-19722810D01*
X11005000Y-19779952D02*
X11024048Y-19789476D01*
X11062143Y-19789476D01*
X11081190Y-19779952D01*
X11090714Y-19760905D01*
X11090714Y-19751381D01*
X11081190Y-19732333D01*
X11062143Y-19722810D01*
X11033571Y-19722810D01*
X11014524Y-19713286D01*
X11005000Y-19694238D01*
X11005000Y-19684714D01*
X11014524Y-19665667D01*
X11033571Y-19656143D01*
X11062143Y-19656143D01*
X11081190Y-19665667D01*
X11157381Y-19865667D02*
X11166905Y-19856143D01*
X11185952Y-19827571D01*
X11195476Y-19808524D01*
X11205000Y-19779952D01*
X11214524Y-19732333D01*
X11214524Y-19694238D01*
X11205000Y-19646619D01*
X11195476Y-19618048D01*
X11185952Y-19599000D01*
X11166905Y-19570429D01*
X11157381Y-19560905D01*
X11519286Y-19865667D02*
X11509762Y-19856143D01*
X11490714Y-19827571D01*
X11481190Y-19808524D01*
X11471667Y-19779952D01*
X11462143Y-19732333D01*
X11462143Y-19694238D01*
X11471667Y-19646619D01*
X11481190Y-19618048D01*
X11490714Y-19599000D01*
X11509762Y-19570429D01*
X11519286Y-19560905D01*
X11595476Y-19656143D02*
X11595476Y-19789476D01*
X11595476Y-19675190D02*
X11605000Y-19665667D01*
X11624048Y-19656143D01*
X11652619Y-19656143D01*
X11671667Y-19665667D01*
X11681190Y-19684714D01*
X11681190Y-19789476D01*
X11805000Y-19789476D02*
X11785952Y-19779952D01*
X11776428Y-19770429D01*
X11766905Y-19751381D01*
X11766905Y-19694238D01*
X11776428Y-19675190D01*
X11785952Y-19665667D01*
X11805000Y-19656143D01*
X11833571Y-19656143D01*
X11852619Y-19665667D01*
X11862143Y-19675190D01*
X11871667Y-19694238D01*
X11871667Y-19751381D01*
X11862143Y-19770429D01*
X11852619Y-19779952D01*
X11833571Y-19789476D01*
X11805000Y-19789476D01*
X11928809Y-19656143D02*
X12005000Y-19656143D01*
X11957381Y-19589476D02*
X11957381Y-19760905D01*
X11966905Y-19779952D01*
X11985952Y-19789476D01*
X12005000Y-19789476D01*
X12224048Y-19656143D02*
X12224048Y-19856143D01*
X12224048Y-19665667D02*
X12243095Y-19656143D01*
X12281190Y-19656143D01*
X12300238Y-19665667D01*
X12309762Y-19675190D01*
X12319286Y-19694238D01*
X12319286Y-19751381D01*
X12309762Y-19770429D01*
X12300238Y-19779952D01*
X12281190Y-19789476D01*
X12243095Y-19789476D01*
X12224048Y-19779952D01*
X12433571Y-19789476D02*
X12414524Y-19779952D01*
X12405000Y-19760905D01*
X12405000Y-19589476D01*
X12595476Y-19789476D02*
X12595476Y-19684714D01*
X12585952Y-19665667D01*
X12566905Y-19656143D01*
X12528809Y-19656143D01*
X12509762Y-19665667D01*
X12595476Y-19779952D02*
X12576428Y-19789476D01*
X12528809Y-19789476D01*
X12509762Y-19779952D01*
X12500238Y-19760905D01*
X12500238Y-19741857D01*
X12509762Y-19722810D01*
X12528809Y-19713286D01*
X12576428Y-19713286D01*
X12595476Y-19703762D01*
X12662143Y-19656143D02*
X12738333Y-19656143D01*
X12690714Y-19589476D02*
X12690714Y-19760905D01*
X12700238Y-19779952D01*
X12719286Y-19789476D01*
X12738333Y-19789476D01*
X12881190Y-19779952D02*
X12862143Y-19789476D01*
X12824048Y-19789476D01*
X12805000Y-19779952D01*
X12795476Y-19760905D01*
X12795476Y-19684714D01*
X12805000Y-19665667D01*
X12824048Y-19656143D01*
X12862143Y-19656143D01*
X12881190Y-19665667D01*
X12890714Y-19684714D01*
X12890714Y-19703762D01*
X12795476Y-19722810D01*
X13062143Y-19789476D02*
X13062143Y-19589476D01*
X13062143Y-19779952D02*
X13043095Y-19789476D01*
X13005000Y-19789476D01*
X12985952Y-19779952D01*
X12976428Y-19770429D01*
X12966905Y-19751381D01*
X12966905Y-19694238D01*
X12976428Y-19675190D01*
X12985952Y-19665667D01*
X13005000Y-19656143D01*
X13043095Y-19656143D01*
X13062143Y-19665667D01*
X13138333Y-19865667D02*
X13147857Y-19856143D01*
X13166905Y-19827571D01*
X13176428Y-19808524D01*
X13185952Y-19779952D01*
X13195476Y-19732333D01*
X13195476Y-19694238D01*
X13185952Y-19646619D01*
X13176428Y-19618048D01*
X13166905Y-19599000D01*
X13147857Y-19570429D01*
X13138333Y-19560905D01*
M02*
