%TF.GenerationSoftware,KiCad,Pcbnew,(6.0.7-1)-1*%
%TF.CreationDate,2022-09-15T21:20:58+02:00*%
%TF.ProjectId,yts-pcb,7974732d-7063-4622-9e6b-696361645f70,rev?*%
%TF.SameCoordinates,Original*%
%TF.FileFunction,Drillmap*%
%TF.FilePolarity,Positive*%
%FSLAX45Y45*%
G04 Gerber Fmt 4.5, Leading zero omitted, Abs format (unit mm)*
G04 Created by KiCad (PCBNEW (6.0.7-1)-1) date 2022-09-15 21:20:58*
%MOMM*%
%LPD*%
G01*
G04 APERTURE LIST*
%ADD10C,0.100000*%
%ADD11C,0.200000*%
%ADD12C,0.040000*%
%ADD13C,0.109220*%
%ADD14C,0.150000*%
%ADD15C,0.220000*%
G04 APERTURE END LIST*
D10*
X34700000Y-8930000D02*
G75*
G03*
X34600000Y-8830000I-100000J0D01*
G01*
X34600000Y-18230000D02*
G75*
G03*
X34699796Y-18130204I0J99796D01*
G01*
X6305000Y-8830003D02*
G75*
G03*
X6200000Y-8934246I-750J-104247D01*
G01*
X34700000Y-8930000D02*
X34699796Y-18130204D01*
X6300000Y-18230000D02*
X34600000Y-18230000D01*
X6200000Y-18130000D02*
G75*
G03*
X6300000Y-18230000I100000J0D01*
G01*
X6305000Y-8830000D02*
X34600000Y-8830000D01*
X6200000Y-8934246D02*
X6200000Y-18130000D01*
D11*
D12*
X18327796Y-13900000D02*
X18367796Y-13940000D01*
X18367796Y-13900000D02*
X18327796Y-13940000D01*
X18327796Y-14800000D02*
X18367796Y-14840000D01*
X18367796Y-14800000D02*
X18327796Y-14840000D01*
X19027796Y-10400000D02*
X19067796Y-10440000D01*
X19067796Y-10400000D02*
X19027796Y-10440000D01*
X19377796Y-12200000D02*
X19417796Y-12240000D01*
X19417796Y-12200000D02*
X19377796Y-12240000D01*
X19677796Y-12900000D02*
X19717796Y-12940000D01*
X19717796Y-12900000D02*
X19677796Y-12940000D01*
X20497796Y-10170000D02*
X20537796Y-10210000D01*
X20537796Y-10170000D02*
X20497796Y-10210000D01*
X20947796Y-10170000D02*
X20987796Y-10210000D01*
X20987796Y-10170000D02*
X20947796Y-10210000D01*
X21677796Y-13100000D02*
X21717796Y-13140000D01*
X21717796Y-13100000D02*
X21677796Y-13140000D01*
X21927796Y-11600000D02*
X21967796Y-11640000D01*
X21967796Y-11600000D02*
X21927796Y-11640000D01*
X27127796Y-13677550D02*
X27167796Y-13717550D01*
X27167796Y-13677550D02*
X27127796Y-13717550D01*
X27377796Y-11400000D02*
X27417796Y-11440000D01*
X27417796Y-11400000D02*
X27377796Y-11440000D01*
X27377796Y-11600000D02*
X27417796Y-11640000D01*
X27417796Y-11600000D02*
X27377796Y-11640000D01*
X27927796Y-11400000D02*
X27967796Y-11440000D01*
X27967796Y-11400000D02*
X27927796Y-11440000D01*
D10*
X12247796Y-10270000D02*
G75*
G03*
X12247796Y-10270000I-50000J0D01*
G01*
X12247796Y-11050000D02*
G75*
G03*
X12247796Y-11050000I-50000J0D01*
G01*
X12247796Y-12190000D02*
G75*
G03*
X12247796Y-12190000I-50000J0D01*
G01*
X12247796Y-12970000D02*
G75*
G03*
X12247796Y-12970000I-50000J0D01*
G01*
X12247796Y-14080000D02*
G75*
G03*
X12247796Y-14080000I-50000J0D01*
G01*
X12247796Y-14860000D02*
G75*
G03*
X12247796Y-14860000I-50000J0D01*
G01*
X12247796Y-15980000D02*
G75*
G03*
X12247796Y-15980000I-50000J0D01*
G01*
X12247796Y-16760000D02*
G75*
G03*
X12247796Y-16760000I-50000J0D01*
G01*
X14147796Y-10270000D02*
G75*
G03*
X14147796Y-10270000I-50000J0D01*
G01*
X14147796Y-11050000D02*
G75*
G03*
X14147796Y-11050000I-50000J0D01*
G01*
X14147796Y-12180000D02*
G75*
G03*
X14147796Y-12180000I-50000J0D01*
G01*
X14147796Y-12960000D02*
G75*
G03*
X14147796Y-12960000I-50000J0D01*
G01*
X14147796Y-14080000D02*
G75*
G03*
X14147796Y-14080000I-50000J0D01*
G01*
X14147796Y-14860000D02*
G75*
G03*
X14147796Y-14860000I-50000J0D01*
G01*
X14147796Y-15980000D02*
G75*
G03*
X14147796Y-15980000I-50000J0D01*
G01*
X14147796Y-16760000D02*
G75*
G03*
X14147796Y-16760000I-50000J0D01*
G01*
X16047796Y-10230000D02*
G75*
G03*
X16047796Y-10230000I-50000J0D01*
G01*
X16047796Y-11010000D02*
G75*
G03*
X16047796Y-11010000I-50000J0D01*
G01*
X16047796Y-12180000D02*
G75*
G03*
X16047796Y-12180000I-50000J0D01*
G01*
X16047796Y-12960000D02*
G75*
G03*
X16047796Y-12960000I-50000J0D01*
G01*
X16047796Y-14080000D02*
G75*
G03*
X16047796Y-14080000I-50000J0D01*
G01*
X16047796Y-14860000D02*
G75*
G03*
X16047796Y-14860000I-50000J0D01*
G01*
X16047796Y-15980000D02*
G75*
G03*
X16047796Y-15980000I-50000J0D01*
G01*
X16047796Y-16760000D02*
G75*
G03*
X16047796Y-16760000I-50000J0D01*
G01*
X17947796Y-10230000D02*
G75*
G03*
X17947796Y-10230000I-50000J0D01*
G01*
X17947796Y-11010000D02*
G75*
G03*
X17947796Y-11010000I-50000J0D01*
G01*
X17947796Y-12180000D02*
G75*
G03*
X17947796Y-12180000I-50000J0D01*
G01*
X17947796Y-12960000D02*
G75*
G03*
X17947796Y-12960000I-50000J0D01*
G01*
X17947796Y-14080000D02*
G75*
G03*
X17947796Y-14080000I-50000J0D01*
G01*
X17947796Y-14860000D02*
G75*
G03*
X17947796Y-14860000I-50000J0D01*
G01*
X17947796Y-15980000D02*
G75*
G03*
X17947796Y-15980000I-50000J0D01*
G01*
X17947796Y-16760000D02*
G75*
G03*
X17947796Y-16760000I-50000J0D01*
G01*
X20797796Y-15980000D02*
G75*
G03*
X20797796Y-15980000I-50000J0D01*
G01*
X20797796Y-16760000D02*
G75*
G03*
X20797796Y-16760000I-50000J0D01*
G01*
X23647796Y-10230000D02*
G75*
G03*
X23647796Y-10230000I-50000J0D01*
G01*
X23647796Y-11010000D02*
G75*
G03*
X23647796Y-11010000I-50000J0D01*
G01*
X23647796Y-12180000D02*
G75*
G03*
X23647796Y-12180000I-50000J0D01*
G01*
X23647796Y-12960000D02*
G75*
G03*
X23647796Y-12960000I-50000J0D01*
G01*
X23647796Y-15980000D02*
G75*
G03*
X23647796Y-15980000I-50000J0D01*
G01*
X23647796Y-16760000D02*
G75*
G03*
X23647796Y-16760000I-50000J0D01*
G01*
X25547796Y-10230000D02*
G75*
G03*
X25547796Y-10230000I-50000J0D01*
G01*
X25547796Y-11010000D02*
G75*
G03*
X25547796Y-11010000I-50000J0D01*
G01*
X25547796Y-12180000D02*
G75*
G03*
X25547796Y-12180000I-50000J0D01*
G01*
X25547796Y-12960000D02*
G75*
G03*
X25547796Y-12960000I-50000J0D01*
G01*
X25547796Y-14080000D02*
G75*
G03*
X25547796Y-14080000I-50000J0D01*
G01*
X25547796Y-14860000D02*
G75*
G03*
X25547796Y-14860000I-50000J0D01*
G01*
X25547796Y-15990000D02*
G75*
G03*
X25547796Y-15990000I-50000J0D01*
G01*
X25547796Y-16770000D02*
G75*
G03*
X25547796Y-16770000I-50000J0D01*
G01*
X27447796Y-10230000D02*
G75*
G03*
X27447796Y-10230000I-50000J0D01*
G01*
X27447796Y-11010000D02*
G75*
G03*
X27447796Y-11010000I-50000J0D01*
G01*
X27447796Y-12180000D02*
G75*
G03*
X27447796Y-12180000I-50000J0D01*
G01*
X27447796Y-12960000D02*
G75*
G03*
X27447796Y-12960000I-50000J0D01*
G01*
X27447796Y-15980000D02*
G75*
G03*
X27447796Y-15980000I-50000J0D01*
G01*
X27447796Y-16760000D02*
G75*
G03*
X27447796Y-16760000I-50000J0D01*
G01*
X29547796Y-10420000D02*
G75*
G03*
X29547796Y-10420000I-50000J0D01*
G01*
X29547796Y-10670000D02*
G75*
G03*
X29547796Y-10670000I-50000J0D01*
G01*
X29547796Y-10920000D02*
G75*
G03*
X29547796Y-10920000I-50000J0D01*
G01*
X29547796Y-15570000D02*
G75*
G03*
X29547796Y-15570000I-50000J0D01*
G01*
X29547796Y-15820000D02*
G75*
G03*
X29547796Y-15820000I-50000J0D01*
G01*
X29547796Y-16070000D02*
G75*
G03*
X29547796Y-16070000I-50000J0D01*
G01*
X29867796Y-11520000D02*
G75*
G03*
X29867796Y-11520000I-50000J0D01*
G01*
X29897796Y-16670000D02*
G75*
G03*
X29897796Y-16670000I-50000J0D01*
G01*
X30647796Y-11520000D02*
G75*
G03*
X30647796Y-11520000I-50000J0D01*
G01*
X30677796Y-16670000D02*
G75*
G03*
X30677796Y-16670000I-50000J0D01*
G01*
X30997796Y-10420000D02*
G75*
G03*
X30997796Y-10420000I-50000J0D01*
G01*
X30997796Y-10920000D02*
G75*
G03*
X30997796Y-10920000I-50000J0D01*
G01*
X30997796Y-15570000D02*
G75*
G03*
X30997796Y-15570000I-50000J0D01*
G01*
X30997796Y-16070000D02*
G75*
G03*
X30997796Y-16070000I-50000J0D01*
G01*
D13*
X18335796Y-9718390D02*
X18335796Y-9827610D01*
X18281186Y-9773000D02*
X18390406Y-9773000D01*
X18335796Y-9972390D02*
X18335796Y-10081610D01*
X18281186Y-10027000D02*
X18390406Y-10027000D01*
X18335796Y-10226390D02*
X18335796Y-10335610D01*
X18281186Y-10281000D02*
X18390406Y-10281000D01*
X18335796Y-10480390D02*
X18335796Y-10589610D01*
X18281186Y-10535000D02*
X18390406Y-10535000D01*
X18335796Y-10734390D02*
X18335796Y-10843610D01*
X18281186Y-10789000D02*
X18390406Y-10789000D01*
X18335796Y-10988390D02*
X18335796Y-11097610D01*
X18281186Y-11043000D02*
X18390406Y-11043000D01*
X18335796Y-11242390D02*
X18335796Y-11351610D01*
X18281186Y-11297000D02*
X18390406Y-11297000D01*
X18335796Y-11496390D02*
X18335796Y-11605610D01*
X18281186Y-11551000D02*
X18390406Y-11551000D01*
X18335796Y-11750390D02*
X18335796Y-11859610D01*
X18281186Y-11805000D02*
X18390406Y-11805000D01*
X18335796Y-12004390D02*
X18335796Y-12113610D01*
X18281186Y-12059000D02*
X18390406Y-12059000D01*
X18335796Y-12258390D02*
X18335796Y-12367610D01*
X18281186Y-12313000D02*
X18390406Y-12313000D01*
X18335796Y-12512390D02*
X18335796Y-12621610D01*
X18281186Y-12567000D02*
X18390406Y-12567000D01*
X19859796Y-9718390D02*
X19859796Y-9827610D01*
X19805186Y-9773000D02*
X19914406Y-9773000D01*
X19859796Y-9972390D02*
X19859796Y-10081610D01*
X19805186Y-10027000D02*
X19914406Y-10027000D01*
X19859796Y-10226390D02*
X19859796Y-10335610D01*
X19805186Y-10281000D02*
X19914406Y-10281000D01*
X19859796Y-10480390D02*
X19859796Y-10589610D01*
X19805186Y-10535000D02*
X19914406Y-10535000D01*
X19859796Y-10734390D02*
X19859796Y-10843610D01*
X19805186Y-10789000D02*
X19914406Y-10789000D01*
X19859796Y-10988390D02*
X19859796Y-11097610D01*
X19805186Y-11043000D02*
X19914406Y-11043000D01*
X19859796Y-11242390D02*
X19859796Y-11351610D01*
X19805186Y-11297000D02*
X19914406Y-11297000D01*
X19859796Y-11496390D02*
X19859796Y-11605610D01*
X19805186Y-11551000D02*
X19914406Y-11551000D01*
X19859796Y-11750390D02*
X19859796Y-11859610D01*
X19805186Y-11805000D02*
X19914406Y-11805000D01*
X19859796Y-12004390D02*
X19859796Y-12113610D01*
X19805186Y-12059000D02*
X19914406Y-12059000D01*
X19859796Y-12258390D02*
X19859796Y-12367610D01*
X19805186Y-12313000D02*
X19914406Y-12313000D01*
X19859796Y-12512390D02*
X19859796Y-12621610D01*
X19805186Y-12567000D02*
X19914406Y-12567000D01*
D14*
X10919829Y-10469034D02*
X10919829Y-10362967D01*
X10813762Y-10362967D01*
X10813762Y-10469034D01*
X10919829Y-10469034D01*
X10919829Y-12369033D02*
X10919829Y-12262966D01*
X10813762Y-12262966D01*
X10813762Y-12369033D01*
X10919829Y-12369033D01*
X10919829Y-14269033D02*
X10919829Y-14162966D01*
X10813762Y-14162966D01*
X10813762Y-14269033D01*
X10919829Y-14269033D01*
X10919829Y-16169033D02*
X10919829Y-16062966D01*
X10813762Y-16062966D01*
X10813762Y-16169033D01*
X10919829Y-16169033D01*
X11554829Y-10215034D02*
X11554829Y-10108967D01*
X11448762Y-10108967D01*
X11448762Y-10215034D01*
X11554829Y-10215034D01*
X11554829Y-12115033D02*
X11554829Y-12008966D01*
X11448762Y-12008966D01*
X11448762Y-12115033D01*
X11554829Y-12115033D01*
X11554829Y-14015033D02*
X11554829Y-13908966D01*
X11448762Y-13908966D01*
X11448762Y-14015033D01*
X11554829Y-14015033D01*
X11554829Y-15915033D02*
X11554829Y-15808966D01*
X11448762Y-15808966D01*
X11448762Y-15915033D01*
X11554829Y-15915033D01*
X12819829Y-10469034D02*
X12819829Y-10362967D01*
X12713762Y-10362967D01*
X12713762Y-10469034D01*
X12819829Y-10469034D01*
X12819829Y-12369033D02*
X12819829Y-12262966D01*
X12713762Y-12262966D01*
X12713762Y-12369033D01*
X12819829Y-12369033D01*
X12819829Y-14269033D02*
X12819829Y-14162966D01*
X12713762Y-14162966D01*
X12713762Y-14269033D01*
X12819829Y-14269033D01*
X12819829Y-16169033D02*
X12819829Y-16062966D01*
X12713762Y-16062966D01*
X12713762Y-16169033D01*
X12819829Y-16169033D01*
X13454829Y-10215034D02*
X13454829Y-10108967D01*
X13348762Y-10108967D01*
X13348762Y-10215034D01*
X13454829Y-10215034D01*
X13454829Y-12115033D02*
X13454829Y-12008966D01*
X13348762Y-12008966D01*
X13348762Y-12115033D01*
X13454829Y-12115033D01*
X13454829Y-14015033D02*
X13454829Y-13908966D01*
X13348762Y-13908966D01*
X13348762Y-14015033D01*
X13454829Y-14015033D01*
X13454829Y-15915033D02*
X13454829Y-15808966D01*
X13348762Y-15808966D01*
X13348762Y-15915033D01*
X13454829Y-15915033D01*
X14719829Y-10469034D02*
X14719829Y-10362967D01*
X14613762Y-10362967D01*
X14613762Y-10469034D01*
X14719829Y-10469034D01*
X14719829Y-12369033D02*
X14719829Y-12262966D01*
X14613762Y-12262966D01*
X14613762Y-12369033D01*
X14719829Y-12369033D01*
X14719829Y-14269033D02*
X14719829Y-14162966D01*
X14613762Y-14162966D01*
X14613762Y-14269033D01*
X14719829Y-14269033D01*
X14719829Y-16169033D02*
X14719829Y-16062966D01*
X14613762Y-16062966D01*
X14613762Y-16169033D01*
X14719829Y-16169033D01*
X15354829Y-10215034D02*
X15354829Y-10108967D01*
X15248762Y-10108967D01*
X15248762Y-10215034D01*
X15354829Y-10215034D01*
X15354829Y-12115033D02*
X15354829Y-12008966D01*
X15248762Y-12008966D01*
X15248762Y-12115033D01*
X15354829Y-12115033D01*
X15354829Y-14015033D02*
X15354829Y-13908966D01*
X15248762Y-13908966D01*
X15248762Y-14015033D01*
X15354829Y-14015033D01*
X15354829Y-15915033D02*
X15354829Y-15808966D01*
X15248762Y-15808966D01*
X15248762Y-15915033D01*
X15354829Y-15915033D01*
X16619829Y-10469034D02*
X16619829Y-10362967D01*
X16513762Y-10362967D01*
X16513762Y-10469034D01*
X16619829Y-10469034D01*
X16619829Y-12369033D02*
X16619829Y-12262966D01*
X16513762Y-12262966D01*
X16513762Y-12369033D01*
X16619829Y-12369033D01*
X16619829Y-14269033D02*
X16619829Y-14162966D01*
X16513762Y-14162966D01*
X16513762Y-14269033D01*
X16619829Y-14269033D01*
X16619829Y-16169033D02*
X16619829Y-16062966D01*
X16513762Y-16062966D01*
X16513762Y-16169033D01*
X16619829Y-16169033D01*
X17254829Y-10215034D02*
X17254829Y-10108967D01*
X17148762Y-10108967D01*
X17148762Y-10215034D01*
X17254829Y-10215034D01*
X17254829Y-12115033D02*
X17254829Y-12008966D01*
X17148762Y-12008966D01*
X17148762Y-12115033D01*
X17254829Y-12115033D01*
X17254829Y-14015033D02*
X17254829Y-13908966D01*
X17148762Y-13908966D01*
X17148762Y-14015033D01*
X17254829Y-14015033D01*
X17254829Y-15915033D02*
X17254829Y-15808966D01*
X17148762Y-15808966D01*
X17148762Y-15915033D01*
X17254829Y-15915033D01*
X19469829Y-16169033D02*
X19469829Y-16062966D01*
X19363762Y-16062966D01*
X19363762Y-16169033D01*
X19469829Y-16169033D01*
X20104829Y-15915033D02*
X20104829Y-15808966D01*
X19998762Y-15808966D01*
X19998762Y-15915033D01*
X20104829Y-15915033D01*
X22319829Y-10469034D02*
X22319829Y-10362967D01*
X22213762Y-10362967D01*
X22213762Y-10469034D01*
X22319829Y-10469034D01*
X22319829Y-12369033D02*
X22319829Y-12262966D01*
X22213762Y-12262966D01*
X22213762Y-12369033D01*
X22319829Y-12369033D01*
X22319829Y-16169033D02*
X22319829Y-16062966D01*
X22213762Y-16062966D01*
X22213762Y-16169033D01*
X22319829Y-16169033D01*
X22954829Y-10215034D02*
X22954829Y-10108967D01*
X22848762Y-10108967D01*
X22848762Y-10215034D01*
X22954829Y-10215034D01*
X22954829Y-12115033D02*
X22954829Y-12008966D01*
X22848762Y-12008966D01*
X22848762Y-12115033D01*
X22954829Y-12115033D01*
X22954829Y-15915033D02*
X22954829Y-15808966D01*
X22848762Y-15808966D01*
X22848762Y-15915033D01*
X22954829Y-15915033D01*
X24219829Y-10469034D02*
X24219829Y-10362967D01*
X24113762Y-10362967D01*
X24113762Y-10469034D01*
X24219829Y-10469034D01*
X24219829Y-12369033D02*
X24219829Y-12262966D01*
X24113762Y-12262966D01*
X24113762Y-12369033D01*
X24219829Y-12369033D01*
X24219829Y-14269033D02*
X24219829Y-14162966D01*
X24113762Y-14162966D01*
X24113762Y-14269033D01*
X24219829Y-14269033D01*
X24219829Y-16169033D02*
X24219829Y-16062966D01*
X24113762Y-16062966D01*
X24113762Y-16169033D01*
X24219829Y-16169033D01*
X24854829Y-10215034D02*
X24854829Y-10108967D01*
X24748762Y-10108967D01*
X24748762Y-10215034D01*
X24854829Y-10215034D01*
X24854829Y-12115033D02*
X24854829Y-12008966D01*
X24748762Y-12008966D01*
X24748762Y-12115033D01*
X24854829Y-12115033D01*
X24854829Y-14015033D02*
X24854829Y-13908966D01*
X24748762Y-13908966D01*
X24748762Y-14015033D01*
X24854829Y-14015033D01*
X24854829Y-15915033D02*
X24854829Y-15808966D01*
X24748762Y-15808966D01*
X24748762Y-15915033D01*
X24854829Y-15915033D01*
X26119829Y-10469034D02*
X26119829Y-10362967D01*
X26013762Y-10362967D01*
X26013762Y-10469034D01*
X26119829Y-10469034D01*
X26119829Y-12369033D02*
X26119829Y-12262966D01*
X26013762Y-12262966D01*
X26013762Y-12369033D01*
X26119829Y-12369033D01*
X26119829Y-16169033D02*
X26119829Y-16062966D01*
X26013762Y-16062966D01*
X26013762Y-16169033D01*
X26119829Y-16169033D01*
X26754829Y-10215034D02*
X26754829Y-10108967D01*
X26648762Y-10108967D01*
X26648762Y-10215034D01*
X26754829Y-10215034D01*
X26754829Y-12115033D02*
X26754829Y-12008966D01*
X26648762Y-12008966D01*
X26648762Y-12115033D01*
X26754829Y-12115033D01*
X26754829Y-15915033D02*
X26754829Y-15808966D01*
X26648762Y-15808966D01*
X26648762Y-15915033D01*
X26754829Y-15915033D01*
D15*
X6599796Y-14590204D02*
X6709796Y-14480204D01*
X6599796Y-14370204D01*
X6489796Y-14480204D01*
X6599796Y-14590204D01*
X8719796Y-11730204D02*
X8829796Y-11620204D01*
X8719796Y-11510204D01*
X8609796Y-11620204D01*
X8719796Y-11730204D01*
X32204796Y-11730204D02*
X32314796Y-11620204D01*
X32204796Y-11510204D01*
X32094796Y-11620204D01*
X32204796Y-11730204D01*
X34299796Y-14590204D02*
X34409796Y-14480204D01*
X34299796Y-14370204D01*
X34189796Y-14480204D01*
X34299796Y-14590204D01*
D11*
X6452619Y-18545476D02*
X6452619Y-18345476D01*
X6500238Y-18345476D01*
X6528809Y-18355000D01*
X6547857Y-18374048D01*
X6557381Y-18393095D01*
X6566905Y-18431190D01*
X6566905Y-18459762D01*
X6557381Y-18497857D01*
X6547857Y-18516905D01*
X6528809Y-18535952D01*
X6500238Y-18545476D01*
X6452619Y-18545476D01*
X6652619Y-18545476D02*
X6652619Y-18412143D01*
X6652619Y-18450238D02*
X6662143Y-18431190D01*
X6671667Y-18421667D01*
X6690714Y-18412143D01*
X6709762Y-18412143D01*
X6776428Y-18545476D02*
X6776428Y-18412143D01*
X6776428Y-18345476D02*
X6766905Y-18355000D01*
X6776428Y-18364524D01*
X6785952Y-18355000D01*
X6776428Y-18345476D01*
X6776428Y-18364524D01*
X6900238Y-18545476D02*
X6881190Y-18535952D01*
X6871667Y-18516905D01*
X6871667Y-18345476D01*
X7005000Y-18545476D02*
X6985952Y-18535952D01*
X6976428Y-18516905D01*
X6976428Y-18345476D01*
X7233571Y-18545476D02*
X7233571Y-18345476D01*
X7300238Y-18488333D01*
X7366905Y-18345476D01*
X7366905Y-18545476D01*
X7547857Y-18545476D02*
X7547857Y-18440714D01*
X7538333Y-18421667D01*
X7519286Y-18412143D01*
X7481190Y-18412143D01*
X7462143Y-18421667D01*
X7547857Y-18535952D02*
X7528809Y-18545476D01*
X7481190Y-18545476D01*
X7462143Y-18535952D01*
X7452619Y-18516905D01*
X7452619Y-18497857D01*
X7462143Y-18478810D01*
X7481190Y-18469286D01*
X7528809Y-18469286D01*
X7547857Y-18459762D01*
X7643095Y-18412143D02*
X7643095Y-18612143D01*
X7643095Y-18421667D02*
X7662143Y-18412143D01*
X7700238Y-18412143D01*
X7719286Y-18421667D01*
X7728809Y-18431190D01*
X7738333Y-18450238D01*
X7738333Y-18507381D01*
X7728809Y-18526429D01*
X7719286Y-18535952D01*
X7700238Y-18545476D01*
X7662143Y-18545476D01*
X7643095Y-18535952D01*
X7824048Y-18526429D02*
X7833571Y-18535952D01*
X7824048Y-18545476D01*
X7814524Y-18535952D01*
X7824048Y-18526429D01*
X7824048Y-18545476D01*
X7824048Y-18421667D02*
X7833571Y-18431190D01*
X7824048Y-18440714D01*
X7814524Y-18431190D01*
X7824048Y-18421667D01*
X7824048Y-18440714D01*
D12*
X6155000Y-18855000D02*
X6195000Y-18895000D01*
X6195000Y-18855000D02*
X6155000Y-18895000D01*
D11*
X6490714Y-18765476D02*
X6509762Y-18765476D01*
X6528809Y-18775000D01*
X6538333Y-18784524D01*
X6547857Y-18803571D01*
X6557381Y-18841667D01*
X6557381Y-18889286D01*
X6547857Y-18927381D01*
X6538333Y-18946429D01*
X6528809Y-18955952D01*
X6509762Y-18965476D01*
X6490714Y-18965476D01*
X6471667Y-18955952D01*
X6462143Y-18946429D01*
X6452619Y-18927381D01*
X6443095Y-18889286D01*
X6443095Y-18841667D01*
X6452619Y-18803571D01*
X6462143Y-18784524D01*
X6471667Y-18775000D01*
X6490714Y-18765476D01*
X6643095Y-18946429D02*
X6652619Y-18955952D01*
X6643095Y-18965476D01*
X6633571Y-18955952D01*
X6643095Y-18946429D01*
X6643095Y-18965476D01*
X6824048Y-18832143D02*
X6824048Y-18965476D01*
X6776428Y-18755952D02*
X6728809Y-18898810D01*
X6852619Y-18898810D01*
X6966905Y-18765476D02*
X6985952Y-18765476D01*
X7005000Y-18775000D01*
X7014524Y-18784524D01*
X7024048Y-18803571D01*
X7033571Y-18841667D01*
X7033571Y-18889286D01*
X7024048Y-18927381D01*
X7014524Y-18946429D01*
X7005000Y-18955952D01*
X6985952Y-18965476D01*
X6966905Y-18965476D01*
X6947857Y-18955952D01*
X6938333Y-18946429D01*
X6928809Y-18927381D01*
X6919286Y-18889286D01*
X6919286Y-18841667D01*
X6928809Y-18803571D01*
X6938333Y-18784524D01*
X6947857Y-18775000D01*
X6966905Y-18765476D01*
X7157381Y-18765476D02*
X7176428Y-18765476D01*
X7195476Y-18775000D01*
X7205000Y-18784524D01*
X7214524Y-18803571D01*
X7224048Y-18841667D01*
X7224048Y-18889286D01*
X7214524Y-18927381D01*
X7205000Y-18946429D01*
X7195476Y-18955952D01*
X7176428Y-18965476D01*
X7157381Y-18965476D01*
X7138333Y-18955952D01*
X7128809Y-18946429D01*
X7119286Y-18927381D01*
X7109762Y-18889286D01*
X7109762Y-18841667D01*
X7119286Y-18803571D01*
X7128809Y-18784524D01*
X7138333Y-18775000D01*
X7157381Y-18765476D01*
X7309762Y-18965476D02*
X7309762Y-18832143D01*
X7309762Y-18851190D02*
X7319286Y-18841667D01*
X7338333Y-18832143D01*
X7366905Y-18832143D01*
X7385952Y-18841667D01*
X7395476Y-18860714D01*
X7395476Y-18965476D01*
X7395476Y-18860714D02*
X7405000Y-18841667D01*
X7424048Y-18832143D01*
X7452619Y-18832143D01*
X7471667Y-18841667D01*
X7481190Y-18860714D01*
X7481190Y-18965476D01*
X7576428Y-18965476D02*
X7576428Y-18832143D01*
X7576428Y-18851190D02*
X7585952Y-18841667D01*
X7605000Y-18832143D01*
X7633571Y-18832143D01*
X7652619Y-18841667D01*
X7662143Y-18860714D01*
X7662143Y-18965476D01*
X7662143Y-18860714D02*
X7671667Y-18841667D01*
X7690714Y-18832143D01*
X7719286Y-18832143D01*
X7738333Y-18841667D01*
X7747857Y-18860714D01*
X7747857Y-18965476D01*
X8138333Y-18755952D02*
X7966905Y-19013095D01*
X8395476Y-18765476D02*
X8414524Y-18765476D01*
X8433571Y-18775000D01*
X8443095Y-18784524D01*
X8452619Y-18803571D01*
X8462143Y-18841667D01*
X8462143Y-18889286D01*
X8452619Y-18927381D01*
X8443095Y-18946429D01*
X8433571Y-18955952D01*
X8414524Y-18965476D01*
X8395476Y-18965476D01*
X8376428Y-18955952D01*
X8366905Y-18946429D01*
X8357381Y-18927381D01*
X8347857Y-18889286D01*
X8347857Y-18841667D01*
X8357381Y-18803571D01*
X8366905Y-18784524D01*
X8376428Y-18775000D01*
X8395476Y-18765476D01*
X8547857Y-18946429D02*
X8557381Y-18955952D01*
X8547857Y-18965476D01*
X8538333Y-18955952D01*
X8547857Y-18946429D01*
X8547857Y-18965476D01*
X8681190Y-18765476D02*
X8700238Y-18765476D01*
X8719286Y-18775000D01*
X8728810Y-18784524D01*
X8738333Y-18803571D01*
X8747857Y-18841667D01*
X8747857Y-18889286D01*
X8738333Y-18927381D01*
X8728810Y-18946429D01*
X8719286Y-18955952D01*
X8700238Y-18965476D01*
X8681190Y-18965476D01*
X8662143Y-18955952D01*
X8652619Y-18946429D01*
X8643095Y-18927381D01*
X8633571Y-18889286D01*
X8633571Y-18841667D01*
X8643095Y-18803571D01*
X8652619Y-18784524D01*
X8662143Y-18775000D01*
X8681190Y-18765476D01*
X8938333Y-18965476D02*
X8824048Y-18965476D01*
X8881190Y-18965476D02*
X8881190Y-18765476D01*
X8862143Y-18794048D01*
X8843095Y-18813095D01*
X8824048Y-18822619D01*
X9119286Y-18765476D02*
X9024048Y-18765476D01*
X9014524Y-18860714D01*
X9024048Y-18851190D01*
X9043095Y-18841667D01*
X9090714Y-18841667D01*
X9109762Y-18851190D01*
X9119286Y-18860714D01*
X9128810Y-18879762D01*
X9128810Y-18927381D01*
X9119286Y-18946429D01*
X9109762Y-18955952D01*
X9090714Y-18965476D01*
X9043095Y-18965476D01*
X9024048Y-18955952D01*
X9014524Y-18946429D01*
X9195476Y-18765476D02*
X9328810Y-18765476D01*
X9243095Y-18965476D01*
X9395476Y-18765476D02*
X9395476Y-18803571D01*
X9471667Y-18765476D02*
X9471667Y-18803571D01*
X9766905Y-19041667D02*
X9757381Y-19032143D01*
X9738333Y-19003571D01*
X9728810Y-18984524D01*
X9719286Y-18955952D01*
X9709762Y-18908333D01*
X9709762Y-18870238D01*
X9719286Y-18822619D01*
X9728810Y-18794048D01*
X9738333Y-18775000D01*
X9757381Y-18746429D01*
X9766905Y-18736905D01*
X9947857Y-18965476D02*
X9833571Y-18965476D01*
X9890714Y-18965476D02*
X9890714Y-18765476D01*
X9871667Y-18794048D01*
X9852619Y-18813095D01*
X9833571Y-18822619D01*
X10014524Y-18765476D02*
X10138333Y-18765476D01*
X10071667Y-18841667D01*
X10100238Y-18841667D01*
X10119286Y-18851190D01*
X10128810Y-18860714D01*
X10138333Y-18879762D01*
X10138333Y-18927381D01*
X10128810Y-18946429D01*
X10119286Y-18955952D01*
X10100238Y-18965476D01*
X10043095Y-18965476D01*
X10024048Y-18955952D01*
X10014524Y-18946429D01*
X10376429Y-18965476D02*
X10376429Y-18765476D01*
X10462143Y-18965476D02*
X10462143Y-18860714D01*
X10452619Y-18841667D01*
X10433571Y-18832143D01*
X10405000Y-18832143D01*
X10385952Y-18841667D01*
X10376429Y-18851190D01*
X10585952Y-18965476D02*
X10566905Y-18955952D01*
X10557381Y-18946429D01*
X10547857Y-18927381D01*
X10547857Y-18870238D01*
X10557381Y-18851190D01*
X10566905Y-18841667D01*
X10585952Y-18832143D01*
X10614524Y-18832143D01*
X10633571Y-18841667D01*
X10643095Y-18851190D01*
X10652619Y-18870238D01*
X10652619Y-18927381D01*
X10643095Y-18946429D01*
X10633571Y-18955952D01*
X10614524Y-18965476D01*
X10585952Y-18965476D01*
X10766905Y-18965476D02*
X10747857Y-18955952D01*
X10738333Y-18936905D01*
X10738333Y-18765476D01*
X10919286Y-18955952D02*
X10900238Y-18965476D01*
X10862143Y-18965476D01*
X10843095Y-18955952D01*
X10833571Y-18936905D01*
X10833571Y-18860714D01*
X10843095Y-18841667D01*
X10862143Y-18832143D01*
X10900238Y-18832143D01*
X10919286Y-18841667D01*
X10928810Y-18860714D01*
X10928810Y-18879762D01*
X10833571Y-18898810D01*
X11005000Y-18955952D02*
X11024048Y-18965476D01*
X11062143Y-18965476D01*
X11081190Y-18955952D01*
X11090714Y-18936905D01*
X11090714Y-18927381D01*
X11081190Y-18908333D01*
X11062143Y-18898810D01*
X11033571Y-18898810D01*
X11014524Y-18889286D01*
X11005000Y-18870238D01*
X11005000Y-18860714D01*
X11014524Y-18841667D01*
X11033571Y-18832143D01*
X11062143Y-18832143D01*
X11081190Y-18841667D01*
X11157381Y-19041667D02*
X11166905Y-19032143D01*
X11185952Y-19003571D01*
X11195476Y-18984524D01*
X11205000Y-18955952D01*
X11214524Y-18908333D01*
X11214524Y-18870238D01*
X11205000Y-18822619D01*
X11195476Y-18794048D01*
X11185952Y-18775000D01*
X11166905Y-18746429D01*
X11157381Y-18736905D01*
D10*
X6195000Y-19139000D02*
G75*
G03*
X6195000Y-19139000I-50000J0D01*
G01*
D11*
X6557381Y-19229476D02*
X6443095Y-19229476D01*
X6500238Y-19229476D02*
X6500238Y-19029476D01*
X6481190Y-19058048D01*
X6462143Y-19077095D01*
X6443095Y-19086619D01*
X6643095Y-19210429D02*
X6652619Y-19219952D01*
X6643095Y-19229476D01*
X6633571Y-19219952D01*
X6643095Y-19210429D01*
X6643095Y-19229476D01*
X6776428Y-19029476D02*
X6795476Y-19029476D01*
X6814524Y-19039000D01*
X6824048Y-19048524D01*
X6833571Y-19067571D01*
X6843095Y-19105667D01*
X6843095Y-19153286D01*
X6833571Y-19191381D01*
X6824048Y-19210429D01*
X6814524Y-19219952D01*
X6795476Y-19229476D01*
X6776428Y-19229476D01*
X6757381Y-19219952D01*
X6747857Y-19210429D01*
X6738333Y-19191381D01*
X6728809Y-19153286D01*
X6728809Y-19105667D01*
X6738333Y-19067571D01*
X6747857Y-19048524D01*
X6757381Y-19039000D01*
X6776428Y-19029476D01*
X6966905Y-19029476D02*
X6985952Y-19029476D01*
X7005000Y-19039000D01*
X7014524Y-19048524D01*
X7024048Y-19067571D01*
X7033571Y-19105667D01*
X7033571Y-19153286D01*
X7024048Y-19191381D01*
X7014524Y-19210429D01*
X7005000Y-19219952D01*
X6985952Y-19229476D01*
X6966905Y-19229476D01*
X6947857Y-19219952D01*
X6938333Y-19210429D01*
X6928809Y-19191381D01*
X6919286Y-19153286D01*
X6919286Y-19105667D01*
X6928809Y-19067571D01*
X6938333Y-19048524D01*
X6947857Y-19039000D01*
X6966905Y-19029476D01*
X7157381Y-19029476D02*
X7176428Y-19029476D01*
X7195476Y-19039000D01*
X7205000Y-19048524D01*
X7214524Y-19067571D01*
X7224048Y-19105667D01*
X7224048Y-19153286D01*
X7214524Y-19191381D01*
X7205000Y-19210429D01*
X7195476Y-19219952D01*
X7176428Y-19229476D01*
X7157381Y-19229476D01*
X7138333Y-19219952D01*
X7128809Y-19210429D01*
X7119286Y-19191381D01*
X7109762Y-19153286D01*
X7109762Y-19105667D01*
X7119286Y-19067571D01*
X7128809Y-19048524D01*
X7138333Y-19039000D01*
X7157381Y-19029476D01*
X7309762Y-19229476D02*
X7309762Y-19096143D01*
X7309762Y-19115190D02*
X7319286Y-19105667D01*
X7338333Y-19096143D01*
X7366905Y-19096143D01*
X7385952Y-19105667D01*
X7395476Y-19124714D01*
X7395476Y-19229476D01*
X7395476Y-19124714D02*
X7405000Y-19105667D01*
X7424048Y-19096143D01*
X7452619Y-19096143D01*
X7471667Y-19105667D01*
X7481190Y-19124714D01*
X7481190Y-19229476D01*
X7576428Y-19229476D02*
X7576428Y-19096143D01*
X7576428Y-19115190D02*
X7585952Y-19105667D01*
X7605000Y-19096143D01*
X7633571Y-19096143D01*
X7652619Y-19105667D01*
X7662143Y-19124714D01*
X7662143Y-19229476D01*
X7662143Y-19124714D02*
X7671667Y-19105667D01*
X7690714Y-19096143D01*
X7719286Y-19096143D01*
X7738333Y-19105667D01*
X7747857Y-19124714D01*
X7747857Y-19229476D01*
X8138333Y-19019952D02*
X7966905Y-19277095D01*
X8395476Y-19029476D02*
X8414524Y-19029476D01*
X8433571Y-19039000D01*
X8443095Y-19048524D01*
X8452619Y-19067571D01*
X8462143Y-19105667D01*
X8462143Y-19153286D01*
X8452619Y-19191381D01*
X8443095Y-19210429D01*
X8433571Y-19219952D01*
X8414524Y-19229476D01*
X8395476Y-19229476D01*
X8376428Y-19219952D01*
X8366905Y-19210429D01*
X8357381Y-19191381D01*
X8347857Y-19153286D01*
X8347857Y-19105667D01*
X8357381Y-19067571D01*
X8366905Y-19048524D01*
X8376428Y-19039000D01*
X8395476Y-19029476D01*
X8547857Y-19210429D02*
X8557381Y-19219952D01*
X8547857Y-19229476D01*
X8538333Y-19219952D01*
X8547857Y-19210429D01*
X8547857Y-19229476D01*
X8681190Y-19029476D02*
X8700238Y-19029476D01*
X8719286Y-19039000D01*
X8728810Y-19048524D01*
X8738333Y-19067571D01*
X8747857Y-19105667D01*
X8747857Y-19153286D01*
X8738333Y-19191381D01*
X8728810Y-19210429D01*
X8719286Y-19219952D01*
X8700238Y-19229476D01*
X8681190Y-19229476D01*
X8662143Y-19219952D01*
X8652619Y-19210429D01*
X8643095Y-19191381D01*
X8633571Y-19153286D01*
X8633571Y-19105667D01*
X8643095Y-19067571D01*
X8652619Y-19048524D01*
X8662143Y-19039000D01*
X8681190Y-19029476D01*
X8814524Y-19029476D02*
X8938333Y-19029476D01*
X8871667Y-19105667D01*
X8900238Y-19105667D01*
X8919286Y-19115190D01*
X8928810Y-19124714D01*
X8938333Y-19143762D01*
X8938333Y-19191381D01*
X8928810Y-19210429D01*
X8919286Y-19219952D01*
X8900238Y-19229476D01*
X8843095Y-19229476D01*
X8824048Y-19219952D01*
X8814524Y-19210429D01*
X9033571Y-19229476D02*
X9071667Y-19229476D01*
X9090714Y-19219952D01*
X9100238Y-19210429D01*
X9119286Y-19181857D01*
X9128810Y-19143762D01*
X9128810Y-19067571D01*
X9119286Y-19048524D01*
X9109762Y-19039000D01*
X9090714Y-19029476D01*
X9052619Y-19029476D01*
X9033571Y-19039000D01*
X9024048Y-19048524D01*
X9014524Y-19067571D01*
X9014524Y-19115190D01*
X9024048Y-19134238D01*
X9033571Y-19143762D01*
X9052619Y-19153286D01*
X9090714Y-19153286D01*
X9109762Y-19143762D01*
X9119286Y-19134238D01*
X9128810Y-19115190D01*
X9300238Y-19096143D02*
X9300238Y-19229476D01*
X9252619Y-19019952D02*
X9205000Y-19162810D01*
X9328810Y-19162810D01*
X9395476Y-19029476D02*
X9395476Y-19067571D01*
X9471667Y-19029476D02*
X9471667Y-19067571D01*
X9766905Y-19305667D02*
X9757381Y-19296143D01*
X9738333Y-19267571D01*
X9728810Y-19248524D01*
X9719286Y-19219952D01*
X9709762Y-19172333D01*
X9709762Y-19134238D01*
X9719286Y-19086619D01*
X9728810Y-19058048D01*
X9738333Y-19039000D01*
X9757381Y-19010429D01*
X9766905Y-19000905D01*
X9928810Y-19029476D02*
X9890714Y-19029476D01*
X9871667Y-19039000D01*
X9862143Y-19048524D01*
X9843095Y-19077095D01*
X9833571Y-19115190D01*
X9833571Y-19191381D01*
X9843095Y-19210429D01*
X9852619Y-19219952D01*
X9871667Y-19229476D01*
X9909762Y-19229476D01*
X9928810Y-19219952D01*
X9938333Y-19210429D01*
X9947857Y-19191381D01*
X9947857Y-19143762D01*
X9938333Y-19124714D01*
X9928810Y-19115190D01*
X9909762Y-19105667D01*
X9871667Y-19105667D01*
X9852619Y-19115190D01*
X9843095Y-19124714D01*
X9833571Y-19143762D01*
X10062143Y-19115190D02*
X10043095Y-19105667D01*
X10033571Y-19096143D01*
X10024048Y-19077095D01*
X10024048Y-19067571D01*
X10033571Y-19048524D01*
X10043095Y-19039000D01*
X10062143Y-19029476D01*
X10100238Y-19029476D01*
X10119286Y-19039000D01*
X10128810Y-19048524D01*
X10138333Y-19067571D01*
X10138333Y-19077095D01*
X10128810Y-19096143D01*
X10119286Y-19105667D01*
X10100238Y-19115190D01*
X10062143Y-19115190D01*
X10043095Y-19124714D01*
X10033571Y-19134238D01*
X10024048Y-19153286D01*
X10024048Y-19191381D01*
X10033571Y-19210429D01*
X10043095Y-19219952D01*
X10062143Y-19229476D01*
X10100238Y-19229476D01*
X10119286Y-19219952D01*
X10128810Y-19210429D01*
X10138333Y-19191381D01*
X10138333Y-19153286D01*
X10128810Y-19134238D01*
X10119286Y-19124714D01*
X10100238Y-19115190D01*
X10376429Y-19229476D02*
X10376429Y-19029476D01*
X10462143Y-19229476D02*
X10462143Y-19124714D01*
X10452619Y-19105667D01*
X10433571Y-19096143D01*
X10405000Y-19096143D01*
X10385952Y-19105667D01*
X10376429Y-19115190D01*
X10585952Y-19229476D02*
X10566905Y-19219952D01*
X10557381Y-19210429D01*
X10547857Y-19191381D01*
X10547857Y-19134238D01*
X10557381Y-19115190D01*
X10566905Y-19105667D01*
X10585952Y-19096143D01*
X10614524Y-19096143D01*
X10633571Y-19105667D01*
X10643095Y-19115190D01*
X10652619Y-19134238D01*
X10652619Y-19191381D01*
X10643095Y-19210429D01*
X10633571Y-19219952D01*
X10614524Y-19229476D01*
X10585952Y-19229476D01*
X10766905Y-19229476D02*
X10747857Y-19219952D01*
X10738333Y-19200905D01*
X10738333Y-19029476D01*
X10919286Y-19219952D02*
X10900238Y-19229476D01*
X10862143Y-19229476D01*
X10843095Y-19219952D01*
X10833571Y-19200905D01*
X10833571Y-19124714D01*
X10843095Y-19105667D01*
X10862143Y-19096143D01*
X10900238Y-19096143D01*
X10919286Y-19105667D01*
X10928810Y-19124714D01*
X10928810Y-19143762D01*
X10833571Y-19162810D01*
X11005000Y-19219952D02*
X11024048Y-19229476D01*
X11062143Y-19229476D01*
X11081190Y-19219952D01*
X11090714Y-19200905D01*
X11090714Y-19191381D01*
X11081190Y-19172333D01*
X11062143Y-19162810D01*
X11033571Y-19162810D01*
X11014524Y-19153286D01*
X11005000Y-19134238D01*
X11005000Y-19124714D01*
X11014524Y-19105667D01*
X11033571Y-19096143D01*
X11062143Y-19096143D01*
X11081190Y-19105667D01*
X11157381Y-19305667D02*
X11166905Y-19296143D01*
X11185952Y-19267571D01*
X11195476Y-19248524D01*
X11205000Y-19219952D01*
X11214524Y-19172333D01*
X11214524Y-19134238D01*
X11205000Y-19086619D01*
X11195476Y-19058048D01*
X11185952Y-19039000D01*
X11166905Y-19010429D01*
X11157381Y-19000905D01*
D13*
X6140390Y-19348390D02*
X6140390Y-19457610D01*
X6085780Y-19403000D02*
X6195000Y-19403000D01*
D11*
X6557381Y-19493476D02*
X6443095Y-19493476D01*
X6500238Y-19493476D02*
X6500238Y-19293476D01*
X6481190Y-19322048D01*
X6462143Y-19341095D01*
X6443095Y-19350619D01*
X6643095Y-19474429D02*
X6652619Y-19483952D01*
X6643095Y-19493476D01*
X6633571Y-19483952D01*
X6643095Y-19474429D01*
X6643095Y-19493476D01*
X6776428Y-19293476D02*
X6795476Y-19293476D01*
X6814524Y-19303000D01*
X6824048Y-19312524D01*
X6833571Y-19331571D01*
X6843095Y-19369667D01*
X6843095Y-19417286D01*
X6833571Y-19455381D01*
X6824048Y-19474429D01*
X6814524Y-19483952D01*
X6795476Y-19493476D01*
X6776428Y-19493476D01*
X6757381Y-19483952D01*
X6747857Y-19474429D01*
X6738333Y-19455381D01*
X6728809Y-19417286D01*
X6728809Y-19369667D01*
X6738333Y-19331571D01*
X6747857Y-19312524D01*
X6757381Y-19303000D01*
X6776428Y-19293476D01*
X6938333Y-19493476D02*
X6976428Y-19493476D01*
X6995476Y-19483952D01*
X7005000Y-19474429D01*
X7024048Y-19445857D01*
X7033571Y-19407762D01*
X7033571Y-19331571D01*
X7024048Y-19312524D01*
X7014524Y-19303000D01*
X6995476Y-19293476D01*
X6957381Y-19293476D01*
X6938333Y-19303000D01*
X6928809Y-19312524D01*
X6919286Y-19331571D01*
X6919286Y-19379190D01*
X6928809Y-19398238D01*
X6938333Y-19407762D01*
X6957381Y-19417286D01*
X6995476Y-19417286D01*
X7014524Y-19407762D01*
X7024048Y-19398238D01*
X7033571Y-19379190D01*
X7109762Y-19312524D02*
X7119286Y-19303000D01*
X7138333Y-19293476D01*
X7185952Y-19293476D01*
X7205000Y-19303000D01*
X7214524Y-19312524D01*
X7224048Y-19331571D01*
X7224048Y-19350619D01*
X7214524Y-19379190D01*
X7100238Y-19493476D01*
X7224048Y-19493476D01*
X7309762Y-19493476D02*
X7309762Y-19360143D01*
X7309762Y-19379190D02*
X7319286Y-19369667D01*
X7338333Y-19360143D01*
X7366905Y-19360143D01*
X7385952Y-19369667D01*
X7395476Y-19388714D01*
X7395476Y-19493476D01*
X7395476Y-19388714D02*
X7405000Y-19369667D01*
X7424048Y-19360143D01*
X7452619Y-19360143D01*
X7471667Y-19369667D01*
X7481190Y-19388714D01*
X7481190Y-19493476D01*
X7576428Y-19493476D02*
X7576428Y-19360143D01*
X7576428Y-19379190D02*
X7585952Y-19369667D01*
X7605000Y-19360143D01*
X7633571Y-19360143D01*
X7652619Y-19369667D01*
X7662143Y-19388714D01*
X7662143Y-19493476D01*
X7662143Y-19388714D02*
X7671667Y-19369667D01*
X7690714Y-19360143D01*
X7719286Y-19360143D01*
X7738333Y-19369667D01*
X7747857Y-19388714D01*
X7747857Y-19493476D01*
X8138333Y-19283952D02*
X7966905Y-19541095D01*
X8395476Y-19293476D02*
X8414524Y-19293476D01*
X8433571Y-19303000D01*
X8443095Y-19312524D01*
X8452619Y-19331571D01*
X8462143Y-19369667D01*
X8462143Y-19417286D01*
X8452619Y-19455381D01*
X8443095Y-19474429D01*
X8433571Y-19483952D01*
X8414524Y-19493476D01*
X8395476Y-19493476D01*
X8376428Y-19483952D01*
X8366905Y-19474429D01*
X8357381Y-19455381D01*
X8347857Y-19417286D01*
X8347857Y-19369667D01*
X8357381Y-19331571D01*
X8366905Y-19312524D01*
X8376428Y-19303000D01*
X8395476Y-19293476D01*
X8547857Y-19474429D02*
X8557381Y-19483952D01*
X8547857Y-19493476D01*
X8538333Y-19483952D01*
X8547857Y-19474429D01*
X8547857Y-19493476D01*
X8681190Y-19293476D02*
X8700238Y-19293476D01*
X8719286Y-19303000D01*
X8728810Y-19312524D01*
X8738333Y-19331571D01*
X8747857Y-19369667D01*
X8747857Y-19417286D01*
X8738333Y-19455381D01*
X8728810Y-19474429D01*
X8719286Y-19483952D01*
X8700238Y-19493476D01*
X8681190Y-19493476D01*
X8662143Y-19483952D01*
X8652619Y-19474429D01*
X8643095Y-19455381D01*
X8633571Y-19417286D01*
X8633571Y-19369667D01*
X8643095Y-19331571D01*
X8652619Y-19312524D01*
X8662143Y-19303000D01*
X8681190Y-19293476D01*
X8919286Y-19360143D02*
X8919286Y-19493476D01*
X8871667Y-19283952D02*
X8824048Y-19426810D01*
X8947857Y-19426810D01*
X9005000Y-19293476D02*
X9128810Y-19293476D01*
X9062143Y-19369667D01*
X9090714Y-19369667D01*
X9109762Y-19379190D01*
X9119286Y-19388714D01*
X9128810Y-19407762D01*
X9128810Y-19455381D01*
X9119286Y-19474429D01*
X9109762Y-19483952D01*
X9090714Y-19493476D01*
X9033571Y-19493476D01*
X9014524Y-19483952D01*
X9005000Y-19474429D01*
X9252619Y-19293476D02*
X9271667Y-19293476D01*
X9290714Y-19303000D01*
X9300238Y-19312524D01*
X9309762Y-19331571D01*
X9319286Y-19369667D01*
X9319286Y-19417286D01*
X9309762Y-19455381D01*
X9300238Y-19474429D01*
X9290714Y-19483952D01*
X9271667Y-19493476D01*
X9252619Y-19493476D01*
X9233571Y-19483952D01*
X9224048Y-19474429D01*
X9214524Y-19455381D01*
X9205000Y-19417286D01*
X9205000Y-19369667D01*
X9214524Y-19331571D01*
X9224048Y-19312524D01*
X9233571Y-19303000D01*
X9252619Y-19293476D01*
X9395476Y-19293476D02*
X9395476Y-19331571D01*
X9471667Y-19293476D02*
X9471667Y-19331571D01*
X9766905Y-19569667D02*
X9757381Y-19560143D01*
X9738333Y-19531571D01*
X9728810Y-19512524D01*
X9719286Y-19483952D01*
X9709762Y-19436333D01*
X9709762Y-19398238D01*
X9719286Y-19350619D01*
X9728810Y-19322048D01*
X9738333Y-19303000D01*
X9757381Y-19274429D01*
X9766905Y-19264905D01*
X9833571Y-19312524D02*
X9843095Y-19303000D01*
X9862143Y-19293476D01*
X9909762Y-19293476D01*
X9928810Y-19303000D01*
X9938333Y-19312524D01*
X9947857Y-19331571D01*
X9947857Y-19350619D01*
X9938333Y-19379190D01*
X9824048Y-19493476D01*
X9947857Y-19493476D01*
X10119286Y-19360143D02*
X10119286Y-19493476D01*
X10071667Y-19283952D02*
X10024048Y-19426810D01*
X10147857Y-19426810D01*
X10376429Y-19493476D02*
X10376429Y-19293476D01*
X10462143Y-19493476D02*
X10462143Y-19388714D01*
X10452619Y-19369667D01*
X10433571Y-19360143D01*
X10405000Y-19360143D01*
X10385952Y-19369667D01*
X10376429Y-19379190D01*
X10585952Y-19493476D02*
X10566905Y-19483952D01*
X10557381Y-19474429D01*
X10547857Y-19455381D01*
X10547857Y-19398238D01*
X10557381Y-19379190D01*
X10566905Y-19369667D01*
X10585952Y-19360143D01*
X10614524Y-19360143D01*
X10633571Y-19369667D01*
X10643095Y-19379190D01*
X10652619Y-19398238D01*
X10652619Y-19455381D01*
X10643095Y-19474429D01*
X10633571Y-19483952D01*
X10614524Y-19493476D01*
X10585952Y-19493476D01*
X10766905Y-19493476D02*
X10747857Y-19483952D01*
X10738333Y-19464905D01*
X10738333Y-19293476D01*
X10919286Y-19483952D02*
X10900238Y-19493476D01*
X10862143Y-19493476D01*
X10843095Y-19483952D01*
X10833571Y-19464905D01*
X10833571Y-19388714D01*
X10843095Y-19369667D01*
X10862143Y-19360143D01*
X10900238Y-19360143D01*
X10919286Y-19369667D01*
X10928810Y-19388714D01*
X10928810Y-19407762D01*
X10833571Y-19426810D01*
X11005000Y-19483952D02*
X11024048Y-19493476D01*
X11062143Y-19493476D01*
X11081190Y-19483952D01*
X11090714Y-19464905D01*
X11090714Y-19455381D01*
X11081190Y-19436333D01*
X11062143Y-19426810D01*
X11033571Y-19426810D01*
X11014524Y-19417286D01*
X11005000Y-19398238D01*
X11005000Y-19388714D01*
X11014524Y-19369667D01*
X11033571Y-19360143D01*
X11062143Y-19360143D01*
X11081190Y-19369667D01*
X11157381Y-19569667D02*
X11166905Y-19560143D01*
X11185952Y-19531571D01*
X11195476Y-19512524D01*
X11205000Y-19483952D01*
X11214524Y-19436333D01*
X11214524Y-19398238D01*
X11205000Y-19350619D01*
X11195476Y-19322048D01*
X11185952Y-19303000D01*
X11166905Y-19274429D01*
X11157381Y-19264905D01*
D14*
X6173033Y-19720034D02*
X6173033Y-19613967D01*
X6066966Y-19613967D01*
X6066966Y-19720034D01*
X6173033Y-19720034D01*
D11*
X6557381Y-19757476D02*
X6443095Y-19757476D01*
X6500238Y-19757476D02*
X6500238Y-19557476D01*
X6481190Y-19586048D01*
X6462143Y-19605095D01*
X6443095Y-19614619D01*
X6643095Y-19738429D02*
X6652619Y-19747952D01*
X6643095Y-19757476D01*
X6633571Y-19747952D01*
X6643095Y-19738429D01*
X6643095Y-19757476D01*
X6833571Y-19557476D02*
X6738333Y-19557476D01*
X6728809Y-19652714D01*
X6738333Y-19643190D01*
X6757381Y-19633667D01*
X6805000Y-19633667D01*
X6824048Y-19643190D01*
X6833571Y-19652714D01*
X6843095Y-19671762D01*
X6843095Y-19719381D01*
X6833571Y-19738429D01*
X6824048Y-19747952D01*
X6805000Y-19757476D01*
X6757381Y-19757476D01*
X6738333Y-19747952D01*
X6728809Y-19738429D01*
X6966905Y-19557476D02*
X6985952Y-19557476D01*
X7005000Y-19567000D01*
X7014524Y-19576524D01*
X7024048Y-19595571D01*
X7033571Y-19633667D01*
X7033571Y-19681286D01*
X7024048Y-19719381D01*
X7014524Y-19738429D01*
X7005000Y-19747952D01*
X6985952Y-19757476D01*
X6966905Y-19757476D01*
X6947857Y-19747952D01*
X6938333Y-19738429D01*
X6928809Y-19719381D01*
X6919286Y-19681286D01*
X6919286Y-19633667D01*
X6928809Y-19595571D01*
X6938333Y-19576524D01*
X6947857Y-19567000D01*
X6966905Y-19557476D01*
X7157381Y-19557476D02*
X7176428Y-19557476D01*
X7195476Y-19567000D01*
X7205000Y-19576524D01*
X7214524Y-19595571D01*
X7224048Y-19633667D01*
X7224048Y-19681286D01*
X7214524Y-19719381D01*
X7205000Y-19738429D01*
X7195476Y-19747952D01*
X7176428Y-19757476D01*
X7157381Y-19757476D01*
X7138333Y-19747952D01*
X7128809Y-19738429D01*
X7119286Y-19719381D01*
X7109762Y-19681286D01*
X7109762Y-19633667D01*
X7119286Y-19595571D01*
X7128809Y-19576524D01*
X7138333Y-19567000D01*
X7157381Y-19557476D01*
X7309762Y-19757476D02*
X7309762Y-19624143D01*
X7309762Y-19643190D02*
X7319286Y-19633667D01*
X7338333Y-19624143D01*
X7366905Y-19624143D01*
X7385952Y-19633667D01*
X7395476Y-19652714D01*
X7395476Y-19757476D01*
X7395476Y-19652714D02*
X7405000Y-19633667D01*
X7424048Y-19624143D01*
X7452619Y-19624143D01*
X7471667Y-19633667D01*
X7481190Y-19652714D01*
X7481190Y-19757476D01*
X7576428Y-19757476D02*
X7576428Y-19624143D01*
X7576428Y-19643190D02*
X7585952Y-19633667D01*
X7605000Y-19624143D01*
X7633571Y-19624143D01*
X7652619Y-19633667D01*
X7662143Y-19652714D01*
X7662143Y-19757476D01*
X7662143Y-19652714D02*
X7671667Y-19633667D01*
X7690714Y-19624143D01*
X7719286Y-19624143D01*
X7738333Y-19633667D01*
X7747857Y-19652714D01*
X7747857Y-19757476D01*
X8138333Y-19547952D02*
X7966905Y-19805095D01*
X8395476Y-19557476D02*
X8414524Y-19557476D01*
X8433571Y-19567000D01*
X8443095Y-19576524D01*
X8452619Y-19595571D01*
X8462143Y-19633667D01*
X8462143Y-19681286D01*
X8452619Y-19719381D01*
X8443095Y-19738429D01*
X8433571Y-19747952D01*
X8414524Y-19757476D01*
X8395476Y-19757476D01*
X8376428Y-19747952D01*
X8366905Y-19738429D01*
X8357381Y-19719381D01*
X8347857Y-19681286D01*
X8347857Y-19633667D01*
X8357381Y-19595571D01*
X8366905Y-19576524D01*
X8376428Y-19567000D01*
X8395476Y-19557476D01*
X8547857Y-19738429D02*
X8557381Y-19747952D01*
X8547857Y-19757476D01*
X8538333Y-19747952D01*
X8547857Y-19738429D01*
X8547857Y-19757476D01*
X8681190Y-19557476D02*
X8700238Y-19557476D01*
X8719286Y-19567000D01*
X8728810Y-19576524D01*
X8738333Y-19595571D01*
X8747857Y-19633667D01*
X8747857Y-19681286D01*
X8738333Y-19719381D01*
X8728810Y-19738429D01*
X8719286Y-19747952D01*
X8700238Y-19757476D01*
X8681190Y-19757476D01*
X8662143Y-19747952D01*
X8652619Y-19738429D01*
X8643095Y-19719381D01*
X8633571Y-19681286D01*
X8633571Y-19633667D01*
X8643095Y-19595571D01*
X8652619Y-19576524D01*
X8662143Y-19567000D01*
X8681190Y-19557476D01*
X8928810Y-19557476D02*
X8833571Y-19557476D01*
X8824048Y-19652714D01*
X8833571Y-19643190D01*
X8852619Y-19633667D01*
X8900238Y-19633667D01*
X8919286Y-19643190D01*
X8928810Y-19652714D01*
X8938333Y-19671762D01*
X8938333Y-19719381D01*
X8928810Y-19738429D01*
X8919286Y-19747952D01*
X8900238Y-19757476D01*
X8852619Y-19757476D01*
X8833571Y-19747952D01*
X8824048Y-19738429D01*
X9033571Y-19757476D02*
X9071667Y-19757476D01*
X9090714Y-19747952D01*
X9100238Y-19738429D01*
X9119286Y-19709857D01*
X9128810Y-19671762D01*
X9128810Y-19595571D01*
X9119286Y-19576524D01*
X9109762Y-19567000D01*
X9090714Y-19557476D01*
X9052619Y-19557476D01*
X9033571Y-19567000D01*
X9024048Y-19576524D01*
X9014524Y-19595571D01*
X9014524Y-19643190D01*
X9024048Y-19662238D01*
X9033571Y-19671762D01*
X9052619Y-19681286D01*
X9090714Y-19681286D01*
X9109762Y-19671762D01*
X9119286Y-19662238D01*
X9128810Y-19643190D01*
X9319286Y-19757476D02*
X9205000Y-19757476D01*
X9262143Y-19757476D02*
X9262143Y-19557476D01*
X9243095Y-19586048D01*
X9224048Y-19605095D01*
X9205000Y-19614619D01*
X9395476Y-19557476D02*
X9395476Y-19595571D01*
X9471667Y-19557476D02*
X9471667Y-19595571D01*
X9766905Y-19833667D02*
X9757381Y-19824143D01*
X9738333Y-19795571D01*
X9728810Y-19776524D01*
X9719286Y-19747952D01*
X9709762Y-19700333D01*
X9709762Y-19662238D01*
X9719286Y-19614619D01*
X9728810Y-19586048D01*
X9738333Y-19567000D01*
X9757381Y-19538429D01*
X9766905Y-19528905D01*
X9938333Y-19557476D02*
X9843095Y-19557476D01*
X9833571Y-19652714D01*
X9843095Y-19643190D01*
X9862143Y-19633667D01*
X9909762Y-19633667D01*
X9928810Y-19643190D01*
X9938333Y-19652714D01*
X9947857Y-19671762D01*
X9947857Y-19719381D01*
X9938333Y-19738429D01*
X9928810Y-19747952D01*
X9909762Y-19757476D01*
X9862143Y-19757476D01*
X9843095Y-19747952D01*
X9833571Y-19738429D01*
X10119286Y-19624143D02*
X10119286Y-19757476D01*
X10071667Y-19547952D02*
X10024048Y-19690810D01*
X10147857Y-19690810D01*
X10376429Y-19757476D02*
X10376429Y-19557476D01*
X10462143Y-19757476D02*
X10462143Y-19652714D01*
X10452619Y-19633667D01*
X10433571Y-19624143D01*
X10405000Y-19624143D01*
X10385952Y-19633667D01*
X10376429Y-19643190D01*
X10585952Y-19757476D02*
X10566905Y-19747952D01*
X10557381Y-19738429D01*
X10547857Y-19719381D01*
X10547857Y-19662238D01*
X10557381Y-19643190D01*
X10566905Y-19633667D01*
X10585952Y-19624143D01*
X10614524Y-19624143D01*
X10633571Y-19633667D01*
X10643095Y-19643190D01*
X10652619Y-19662238D01*
X10652619Y-19719381D01*
X10643095Y-19738429D01*
X10633571Y-19747952D01*
X10614524Y-19757476D01*
X10585952Y-19757476D01*
X10766905Y-19757476D02*
X10747857Y-19747952D01*
X10738333Y-19728905D01*
X10738333Y-19557476D01*
X10919286Y-19747952D02*
X10900238Y-19757476D01*
X10862143Y-19757476D01*
X10843095Y-19747952D01*
X10833571Y-19728905D01*
X10833571Y-19652714D01*
X10843095Y-19633667D01*
X10862143Y-19624143D01*
X10900238Y-19624143D01*
X10919286Y-19633667D01*
X10928810Y-19652714D01*
X10928810Y-19671762D01*
X10833571Y-19690810D01*
X11005000Y-19747952D02*
X11024048Y-19757476D01*
X11062143Y-19757476D01*
X11081190Y-19747952D01*
X11090714Y-19728905D01*
X11090714Y-19719381D01*
X11081190Y-19700333D01*
X11062143Y-19690810D01*
X11033571Y-19690810D01*
X11014524Y-19681286D01*
X11005000Y-19662238D01*
X11005000Y-19652714D01*
X11014524Y-19633667D01*
X11033571Y-19624143D01*
X11062143Y-19624143D01*
X11081190Y-19633667D01*
X11157381Y-19833667D02*
X11166905Y-19824143D01*
X11185952Y-19795571D01*
X11195476Y-19776524D01*
X11205000Y-19747952D01*
X11214524Y-19700333D01*
X11214524Y-19662238D01*
X11205000Y-19614619D01*
X11195476Y-19586048D01*
X11185952Y-19567000D01*
X11166905Y-19538429D01*
X11157381Y-19528905D01*
X6095000Y-20037000D02*
X6195000Y-19937000D01*
X6095000Y-19837000D01*
X5995000Y-19937000D01*
X6095000Y-20037000D01*
X6443095Y-19846524D02*
X6452619Y-19837000D01*
X6471667Y-19827476D01*
X6519286Y-19827476D01*
X6538333Y-19837000D01*
X6547857Y-19846524D01*
X6557381Y-19865571D01*
X6557381Y-19884619D01*
X6547857Y-19913190D01*
X6433571Y-20027476D01*
X6557381Y-20027476D01*
X6643095Y-20008429D02*
X6652619Y-20017952D01*
X6643095Y-20027476D01*
X6633571Y-20017952D01*
X6643095Y-20008429D01*
X6643095Y-20027476D01*
X6728809Y-19846524D02*
X6738333Y-19837000D01*
X6757381Y-19827476D01*
X6805000Y-19827476D01*
X6824048Y-19837000D01*
X6833571Y-19846524D01*
X6843095Y-19865571D01*
X6843095Y-19884619D01*
X6833571Y-19913190D01*
X6719286Y-20027476D01*
X6843095Y-20027476D01*
X6966905Y-19827476D02*
X6985952Y-19827476D01*
X7005000Y-19837000D01*
X7014524Y-19846524D01*
X7024048Y-19865571D01*
X7033571Y-19903667D01*
X7033571Y-19951286D01*
X7024048Y-19989381D01*
X7014524Y-20008429D01*
X7005000Y-20017952D01*
X6985952Y-20027476D01*
X6966905Y-20027476D01*
X6947857Y-20017952D01*
X6938333Y-20008429D01*
X6928809Y-19989381D01*
X6919286Y-19951286D01*
X6919286Y-19903667D01*
X6928809Y-19865571D01*
X6938333Y-19846524D01*
X6947857Y-19837000D01*
X6966905Y-19827476D01*
X7157381Y-19827476D02*
X7176428Y-19827476D01*
X7195476Y-19837000D01*
X7205000Y-19846524D01*
X7214524Y-19865571D01*
X7224048Y-19903667D01*
X7224048Y-19951286D01*
X7214524Y-19989381D01*
X7205000Y-20008429D01*
X7195476Y-20017952D01*
X7176428Y-20027476D01*
X7157381Y-20027476D01*
X7138333Y-20017952D01*
X7128809Y-20008429D01*
X7119286Y-19989381D01*
X7109762Y-19951286D01*
X7109762Y-19903667D01*
X7119286Y-19865571D01*
X7128809Y-19846524D01*
X7138333Y-19837000D01*
X7157381Y-19827476D01*
X7309762Y-20027476D02*
X7309762Y-19894143D01*
X7309762Y-19913190D02*
X7319286Y-19903667D01*
X7338333Y-19894143D01*
X7366905Y-19894143D01*
X7385952Y-19903667D01*
X7395476Y-19922714D01*
X7395476Y-20027476D01*
X7395476Y-19922714D02*
X7405000Y-19903667D01*
X7424048Y-19894143D01*
X7452619Y-19894143D01*
X7471667Y-19903667D01*
X7481190Y-19922714D01*
X7481190Y-20027476D01*
X7576428Y-20027476D02*
X7576428Y-19894143D01*
X7576428Y-19913190D02*
X7585952Y-19903667D01*
X7605000Y-19894143D01*
X7633571Y-19894143D01*
X7652619Y-19903667D01*
X7662143Y-19922714D01*
X7662143Y-20027476D01*
X7662143Y-19922714D02*
X7671667Y-19903667D01*
X7690714Y-19894143D01*
X7719286Y-19894143D01*
X7738333Y-19903667D01*
X7747857Y-19922714D01*
X7747857Y-20027476D01*
X8138333Y-19817952D02*
X7966905Y-20075095D01*
X8395476Y-19827476D02*
X8414524Y-19827476D01*
X8433571Y-19837000D01*
X8443095Y-19846524D01*
X8452619Y-19865571D01*
X8462143Y-19903667D01*
X8462143Y-19951286D01*
X8452619Y-19989381D01*
X8443095Y-20008429D01*
X8433571Y-20017952D01*
X8414524Y-20027476D01*
X8395476Y-20027476D01*
X8376428Y-20017952D01*
X8366905Y-20008429D01*
X8357381Y-19989381D01*
X8347857Y-19951286D01*
X8347857Y-19903667D01*
X8357381Y-19865571D01*
X8366905Y-19846524D01*
X8376428Y-19837000D01*
X8395476Y-19827476D01*
X8547857Y-20008429D02*
X8557381Y-20017952D01*
X8547857Y-20027476D01*
X8538333Y-20017952D01*
X8547857Y-20008429D01*
X8547857Y-20027476D01*
X8681190Y-19827476D02*
X8700238Y-19827476D01*
X8719286Y-19837000D01*
X8728810Y-19846524D01*
X8738333Y-19865571D01*
X8747857Y-19903667D01*
X8747857Y-19951286D01*
X8738333Y-19989381D01*
X8728810Y-20008429D01*
X8719286Y-20017952D01*
X8700238Y-20027476D01*
X8681190Y-20027476D01*
X8662143Y-20017952D01*
X8652619Y-20008429D01*
X8643095Y-19989381D01*
X8633571Y-19951286D01*
X8633571Y-19903667D01*
X8643095Y-19865571D01*
X8652619Y-19846524D01*
X8662143Y-19837000D01*
X8681190Y-19827476D01*
X8862143Y-19913190D02*
X8843095Y-19903667D01*
X8833571Y-19894143D01*
X8824048Y-19875095D01*
X8824048Y-19865571D01*
X8833571Y-19846524D01*
X8843095Y-19837000D01*
X8862143Y-19827476D01*
X8900238Y-19827476D01*
X8919286Y-19837000D01*
X8928810Y-19846524D01*
X8938333Y-19865571D01*
X8938333Y-19875095D01*
X8928810Y-19894143D01*
X8919286Y-19903667D01*
X8900238Y-19913190D01*
X8862143Y-19913190D01*
X8843095Y-19922714D01*
X8833571Y-19932238D01*
X8824048Y-19951286D01*
X8824048Y-19989381D01*
X8833571Y-20008429D01*
X8843095Y-20017952D01*
X8862143Y-20027476D01*
X8900238Y-20027476D01*
X8919286Y-20017952D01*
X8928810Y-20008429D01*
X8938333Y-19989381D01*
X8938333Y-19951286D01*
X8928810Y-19932238D01*
X8919286Y-19922714D01*
X8900238Y-19913190D01*
X9109762Y-19827476D02*
X9071667Y-19827476D01*
X9052619Y-19837000D01*
X9043095Y-19846524D01*
X9024048Y-19875095D01*
X9014524Y-19913190D01*
X9014524Y-19989381D01*
X9024048Y-20008429D01*
X9033571Y-20017952D01*
X9052619Y-20027476D01*
X9090714Y-20027476D01*
X9109762Y-20017952D01*
X9119286Y-20008429D01*
X9128810Y-19989381D01*
X9128810Y-19941762D01*
X9119286Y-19922714D01*
X9109762Y-19913190D01*
X9090714Y-19903667D01*
X9052619Y-19903667D01*
X9033571Y-19913190D01*
X9024048Y-19922714D01*
X9014524Y-19941762D01*
X9300238Y-19827476D02*
X9262143Y-19827476D01*
X9243095Y-19837000D01*
X9233571Y-19846524D01*
X9214524Y-19875095D01*
X9205000Y-19913190D01*
X9205000Y-19989381D01*
X9214524Y-20008429D01*
X9224048Y-20017952D01*
X9243095Y-20027476D01*
X9281190Y-20027476D01*
X9300238Y-20017952D01*
X9309762Y-20008429D01*
X9319286Y-19989381D01*
X9319286Y-19941762D01*
X9309762Y-19922714D01*
X9300238Y-19913190D01*
X9281190Y-19903667D01*
X9243095Y-19903667D01*
X9224048Y-19913190D01*
X9214524Y-19922714D01*
X9205000Y-19941762D01*
X9395476Y-19827476D02*
X9395476Y-19865571D01*
X9471667Y-19827476D02*
X9471667Y-19865571D01*
X9766905Y-20103667D02*
X9757381Y-20094143D01*
X9738333Y-20065571D01*
X9728810Y-20046524D01*
X9719286Y-20017952D01*
X9709762Y-19970333D01*
X9709762Y-19932238D01*
X9719286Y-19884619D01*
X9728810Y-19856048D01*
X9738333Y-19837000D01*
X9757381Y-19808429D01*
X9766905Y-19798905D01*
X9928810Y-19894143D02*
X9928810Y-20027476D01*
X9881190Y-19817952D02*
X9833571Y-19960810D01*
X9957381Y-19960810D01*
X10185952Y-20027476D02*
X10185952Y-19827476D01*
X10271667Y-20027476D02*
X10271667Y-19922714D01*
X10262143Y-19903667D01*
X10243095Y-19894143D01*
X10214524Y-19894143D01*
X10195476Y-19903667D01*
X10185952Y-19913190D01*
X10395476Y-20027476D02*
X10376429Y-20017952D01*
X10366905Y-20008429D01*
X10357381Y-19989381D01*
X10357381Y-19932238D01*
X10366905Y-19913190D01*
X10376429Y-19903667D01*
X10395476Y-19894143D01*
X10424048Y-19894143D01*
X10443095Y-19903667D01*
X10452619Y-19913190D01*
X10462143Y-19932238D01*
X10462143Y-19989381D01*
X10452619Y-20008429D01*
X10443095Y-20017952D01*
X10424048Y-20027476D01*
X10395476Y-20027476D01*
X10576429Y-20027476D02*
X10557381Y-20017952D01*
X10547857Y-19998905D01*
X10547857Y-19827476D01*
X10728810Y-20017952D02*
X10709762Y-20027476D01*
X10671667Y-20027476D01*
X10652619Y-20017952D01*
X10643095Y-19998905D01*
X10643095Y-19922714D01*
X10652619Y-19903667D01*
X10671667Y-19894143D01*
X10709762Y-19894143D01*
X10728810Y-19903667D01*
X10738333Y-19922714D01*
X10738333Y-19941762D01*
X10643095Y-19960810D01*
X10814524Y-20017952D02*
X10833571Y-20027476D01*
X10871667Y-20027476D01*
X10890714Y-20017952D01*
X10900238Y-19998905D01*
X10900238Y-19989381D01*
X10890714Y-19970333D01*
X10871667Y-19960810D01*
X10843095Y-19960810D01*
X10824048Y-19951286D01*
X10814524Y-19932238D01*
X10814524Y-19922714D01*
X10824048Y-19903667D01*
X10843095Y-19894143D01*
X10871667Y-19894143D01*
X10890714Y-19903667D01*
X10966905Y-20103667D02*
X10976429Y-20094143D01*
X10995476Y-20065571D01*
X11005000Y-20046524D01*
X11014524Y-20017952D01*
X11024048Y-19970333D01*
X11024048Y-19932238D01*
X11014524Y-19884619D01*
X11005000Y-19856048D01*
X10995476Y-19837000D01*
X10976429Y-19808429D01*
X10966905Y-19798905D01*
M02*
