G04 #@! TF.GenerationSoftware,KiCad,Pcbnew,(6.0.7-1)-1*
G04 #@! TF.CreationDate,2022-10-11T23:46:09+02:00*
G04 #@! TF.ProjectId,yts-switchblade,7974732d-7377-4697-9463-68626c616465,rev?*
G04 #@! TF.SameCoordinates,Original*
G04 #@! TF.FileFunction,Legend,Top*
G04 #@! TF.FilePolarity,Positive*
%FSLAX46Y46*%
G04 Gerber Fmt 4.6, Leading zero omitted, Abs format (unit mm)*
G04 Created by KiCad (PCBNEW (6.0.7-1)-1) date 2022-10-11 23:46:09*
%MOMM*%
%LPD*%
G01*
G04 APERTURE LIST*
%ADD10C,0.060000*%
G04 APERTURE END LIST*
D10*
G36*
X61917271Y-54800617D02*
G01*
X61063371Y-54800617D01*
X61063371Y-54682030D01*
X61917271Y-54682030D01*
X61917271Y-54800617D01*
G37*
X61917271Y-54800617D02*
X61063371Y-54800617D01*
X61063371Y-54682030D01*
X61917271Y-54682030D01*
X61917271Y-54800617D01*
G36*
X67082544Y-48133125D02*
G01*
X66228627Y-48133125D01*
X66228627Y-48014523D01*
X67082544Y-48014523D01*
X67082544Y-48133125D01*
G37*
X67082544Y-48133125D02*
X66228627Y-48133125D01*
X66228627Y-48014523D01*
X67082544Y-48014523D01*
X67082544Y-48133125D01*
G36*
X78273941Y-48133125D02*
G01*
X77420027Y-48133125D01*
X77420027Y-48014523D01*
X78273941Y-48014523D01*
X78273941Y-48133125D01*
G37*
X78273941Y-48133125D02*
X77420027Y-48133125D01*
X77420027Y-48014523D01*
X78273941Y-48014523D01*
X78273941Y-48133125D01*
G36*
X64711295Y-54682030D02*
G01*
X64578024Y-54682030D01*
X65127061Y-53507908D01*
X65259617Y-53507908D01*
X64711295Y-54682030D01*
G37*
X64711295Y-54682030D02*
X64578024Y-54682030D01*
X65127061Y-53507908D01*
X65259617Y-53507908D01*
X64711295Y-54682030D01*
G36*
X73108694Y-53133750D02*
G01*
X72254776Y-53133750D01*
X72254776Y-53015148D01*
X73108694Y-53015148D01*
X73108694Y-53133750D01*
G37*
X73108694Y-53133750D02*
X72254776Y-53133750D01*
X72254776Y-53015148D01*
X73108694Y-53015148D01*
X73108694Y-53133750D01*
G36*
X58685145Y-54682030D02*
G01*
X58551898Y-54682030D01*
X59100935Y-53507908D01*
X59233483Y-53507908D01*
X58685145Y-54682030D01*
G37*
X58685145Y-54682030D02*
X58551898Y-54682030D01*
X59100935Y-53507908D01*
X59233483Y-53507908D01*
X58685145Y-54682030D01*
G36*
X69015641Y-54682030D02*
G01*
X68882452Y-54682030D01*
X69431488Y-53507908D01*
X69564044Y-53507908D01*
X69015641Y-54682030D01*
G37*
X69015641Y-54682030D02*
X68882452Y-54682030D01*
X69431488Y-53507908D01*
X69564044Y-53507908D01*
X69015641Y-54682030D01*
G36*
X58372606Y-51348273D02*
G01*
X58240058Y-51348273D01*
X57691021Y-50174158D01*
X57824268Y-50174158D01*
X58372606Y-51348273D01*
G37*
X58372606Y-51348273D02*
X58240058Y-51348273D01*
X57691021Y-50174158D01*
X57824268Y-50174158D01*
X58372606Y-51348273D01*
G36*
X56963390Y-54682030D02*
G01*
X56830143Y-54682030D01*
X57379180Y-53507908D01*
X57511729Y-53507908D01*
X56963390Y-54682030D01*
G37*
X56963390Y-54682030D02*
X56830143Y-54682030D01*
X57379180Y-53507908D01*
X57511729Y-53507908D01*
X56963390Y-54682030D01*
G36*
X71386891Y-51466875D02*
G01*
X70533053Y-51466875D01*
X70533053Y-51348273D01*
X71386891Y-51348273D01*
X71386891Y-51466875D01*
G37*
X71386891Y-51466875D02*
X70533053Y-51466875D01*
X70533053Y-51348273D01*
X71386891Y-51348273D01*
X71386891Y-51466875D01*
G36*
X75902691Y-54682030D02*
G01*
X75769422Y-54682030D01*
X76318460Y-53507908D01*
X76451017Y-53507908D01*
X75902691Y-54682030D01*
G37*
X75902691Y-54682030D02*
X75769422Y-54682030D01*
X76318460Y-53507908D01*
X76451017Y-53507908D01*
X75902691Y-54682030D01*
G36*
X68804267Y-49800000D02*
G01*
X67950430Y-49800000D01*
X67950430Y-49681398D01*
X68804267Y-49681398D01*
X68804267Y-49800000D01*
G37*
X68804267Y-49800000D02*
X67950430Y-49800000D01*
X67950430Y-49681398D01*
X68804267Y-49681398D01*
X68804267Y-49800000D01*
G36*
X74830416Y-53133750D02*
G01*
X73976499Y-53133750D01*
X73976499Y-53015148D01*
X74830416Y-53015148D01*
X74830416Y-53133750D01*
G37*
X74830416Y-53133750D02*
X73976499Y-53133750D01*
X73976499Y-53015148D01*
X74830416Y-53015148D01*
X74830416Y-53133750D01*
G36*
X72247792Y-53133750D02*
G01*
X71393876Y-53133750D01*
X71393876Y-53015148D01*
X72247792Y-53015148D01*
X72247792Y-53133750D01*
G37*
X72247792Y-53133750D02*
X71393876Y-53133750D01*
X71393876Y-53015148D01*
X72247792Y-53015148D01*
X72247792Y-53133750D01*
G36*
X57612884Y-48133125D02*
G01*
X56758984Y-48133125D01*
X56758984Y-48014523D01*
X57612884Y-48014523D01*
X57612884Y-48133125D01*
G37*
X57612884Y-48133125D02*
X56758984Y-48133125D01*
X56758984Y-48014523D01*
X57612884Y-48014523D01*
X57612884Y-48133125D01*
G36*
X65360821Y-49800000D02*
G01*
X64506905Y-49800000D01*
X64506905Y-49681398D01*
X65360821Y-49681398D01*
X65360821Y-49800000D01*
G37*
X65360821Y-49800000D02*
X64506905Y-49800000D01*
X64506905Y-49681398D01*
X65360821Y-49681398D01*
X65360821Y-49800000D01*
G36*
X73108694Y-51466875D02*
G01*
X72254776Y-51466875D01*
X72254776Y-51348273D01*
X73108694Y-51348273D01*
X73108694Y-51466875D01*
G37*
X73108694Y-51466875D02*
X72254776Y-51466875D01*
X72254776Y-51348273D01*
X73108694Y-51348273D01*
X73108694Y-51466875D01*
G36*
X67943444Y-53133750D02*
G01*
X67089529Y-53133750D01*
X67089529Y-53015148D01*
X67943444Y-53015148D01*
X67943444Y-53133750D01*
G37*
X67943444Y-53133750D02*
X67089529Y-53133750D01*
X67089529Y-53015148D01*
X67943444Y-53015148D01*
X67943444Y-53133750D01*
G36*
X67943444Y-48133125D02*
G01*
X67089529Y-48133125D01*
X67089529Y-48014523D01*
X67943444Y-48014523D01*
X67943444Y-48133125D01*
G37*
X67943444Y-48133125D02*
X67089529Y-48133125D01*
X67089529Y-48014523D01*
X67943444Y-48014523D01*
X67943444Y-48133125D01*
G36*
X70737444Y-49681398D02*
G01*
X70604174Y-49681398D01*
X71153211Y-48507283D01*
X71285767Y-48507283D01*
X70737444Y-49681398D01*
G37*
X70737444Y-49681398D02*
X70604174Y-49681398D01*
X71153211Y-48507283D01*
X71285767Y-48507283D01*
X70737444Y-49681398D01*
G36*
X61267778Y-53015148D02*
G01*
X61134530Y-53015148D01*
X61683567Y-51841033D01*
X61816116Y-51841033D01*
X61267778Y-53015148D01*
G37*
X61267778Y-53015148D02*
X61134530Y-53015148D01*
X61683567Y-51841033D01*
X61816116Y-51841033D01*
X61267778Y-53015148D01*
G36*
X69665167Y-49800000D02*
G01*
X68811251Y-49800000D01*
X68811251Y-49681398D01*
X69665167Y-49681398D01*
X69665167Y-49800000D01*
G37*
X69665167Y-49800000D02*
X68811251Y-49800000D01*
X68811251Y-49681398D01*
X69665167Y-49681398D01*
X69665167Y-49800000D01*
G36*
X74830416Y-51466875D02*
G01*
X73976499Y-51466875D01*
X73976499Y-51348273D01*
X74830416Y-51348273D01*
X74830416Y-51466875D01*
G37*
X74830416Y-51466875D02*
X73976499Y-51466875D01*
X73976499Y-51348273D01*
X74830416Y-51348273D01*
X74830416Y-51466875D01*
G36*
X68804267Y-48133125D02*
G01*
X67950430Y-48133125D01*
X67950430Y-48014523D01*
X68804267Y-48014523D01*
X68804267Y-48133125D01*
G37*
X68804267Y-48133125D02*
X67950430Y-48133125D01*
X67950430Y-48014523D01*
X68804267Y-48014523D01*
X68804267Y-48133125D01*
G36*
X70526069Y-49800000D02*
G01*
X69672153Y-49800000D01*
X69672153Y-49681398D01*
X70526069Y-49681398D01*
X70526069Y-49800000D01*
G37*
X70526069Y-49800000D02*
X69672153Y-49800000D01*
X69672153Y-49681398D01*
X70526069Y-49681398D01*
X70526069Y-49800000D01*
G36*
X62778117Y-48133125D02*
G01*
X61924249Y-48133125D01*
X61924249Y-48014523D01*
X62778117Y-48014523D01*
X62778117Y-48133125D01*
G37*
X62778117Y-48133125D02*
X61924249Y-48133125D01*
X61924249Y-48014523D01*
X62778117Y-48014523D01*
X62778117Y-48133125D01*
G36*
X58473762Y-48133125D02*
G01*
X57619861Y-48133125D01*
X57619861Y-48014523D01*
X58473762Y-48014523D01*
X58473762Y-48133125D01*
G37*
X58473762Y-48133125D02*
X57619861Y-48133125D01*
X57619861Y-48014523D01*
X58473762Y-48014523D01*
X58473762Y-48133125D01*
G36*
X71386891Y-48133125D02*
G01*
X70533053Y-48133125D01*
X70533053Y-48014523D01*
X71386891Y-48014523D01*
X71386891Y-48133125D01*
G37*
X71386891Y-48133125D02*
X70533053Y-48133125D01*
X70533053Y-48014523D01*
X71386891Y-48014523D01*
X71386891Y-48133125D01*
G36*
X62989572Y-53015148D02*
G01*
X62856301Y-53015148D01*
X63405338Y-51841033D01*
X63537894Y-51841033D01*
X62989572Y-53015148D01*
G37*
X62989572Y-53015148D02*
X62856301Y-53015148D01*
X63405338Y-51841033D01*
X63537894Y-51841033D01*
X62989572Y-53015148D01*
G36*
X61056394Y-48133125D02*
G01*
X60202494Y-48133125D01*
X60202494Y-48014523D01*
X61056394Y-48014523D01*
X61056394Y-48133125D01*
G37*
X61056394Y-48133125D02*
X60202494Y-48133125D01*
X60202494Y-48014523D01*
X61056394Y-48014523D01*
X61056394Y-48133125D01*
G36*
X77413041Y-48133125D02*
G01*
X76559204Y-48133125D01*
X76559204Y-48014523D01*
X77413041Y-48014523D01*
X77413041Y-48133125D01*
G37*
X77413041Y-48133125D02*
X76559204Y-48133125D01*
X76559204Y-48014523D01*
X77413041Y-48014523D01*
X77413041Y-48133125D01*
G36*
X64499919Y-48133125D02*
G01*
X63646003Y-48133125D01*
X63646003Y-48014523D01*
X64499919Y-48014523D01*
X64499919Y-48133125D01*
G37*
X64499919Y-48133125D02*
X63646003Y-48133125D01*
X63646003Y-48014523D01*
X64499919Y-48014523D01*
X64499919Y-48133125D01*
G36*
X57824268Y-53015148D02*
G01*
X57691021Y-53015148D01*
X58240058Y-51841033D01*
X58372606Y-51841033D01*
X57824268Y-53015148D01*
G37*
X57824268Y-53015148D02*
X57691021Y-53015148D01*
X58240058Y-51841033D01*
X58372606Y-51841033D01*
X57824268Y-53015148D01*
G36*
X67943444Y-54800617D02*
G01*
X67089529Y-54800617D01*
X67089529Y-54682030D01*
X67943444Y-54682030D01*
X67943444Y-54800617D01*
G37*
X67943444Y-54800617D02*
X67089529Y-54800617D01*
X67089529Y-54682030D01*
X67943444Y-54682030D01*
X67943444Y-54800617D01*
G36*
X62128671Y-54682030D02*
G01*
X61995408Y-54682030D01*
X62544437Y-53507908D01*
X62676993Y-53507908D01*
X62128671Y-54682030D01*
G37*
X62128671Y-54682030D02*
X61995408Y-54682030D01*
X62544437Y-53507908D01*
X62676993Y-53507908D01*
X62128671Y-54682030D01*
G36*
X74180971Y-54682030D02*
G01*
X74047700Y-54682030D01*
X74596737Y-53507908D01*
X74729292Y-53507908D01*
X74180971Y-54682030D01*
G37*
X74180971Y-54682030D02*
X74047700Y-54682030D01*
X74596737Y-53507908D01*
X74729292Y-53507908D01*
X74180971Y-54682030D01*
G36*
X59233483Y-49681398D02*
G01*
X59100935Y-49681398D01*
X58551898Y-48507283D01*
X58685145Y-48507283D01*
X59233483Y-49681398D01*
G37*
X59233483Y-49681398D02*
X59100935Y-49681398D01*
X58551898Y-48507283D01*
X58685145Y-48507283D01*
X59233483Y-49681398D01*
G36*
X66221642Y-49800000D02*
G01*
X65367726Y-49800000D01*
X65367726Y-49681398D01*
X66221642Y-49681398D01*
X66221642Y-49800000D01*
G37*
X66221642Y-49800000D02*
X65367726Y-49800000D01*
X65367726Y-49681398D01*
X66221642Y-49681398D01*
X66221642Y-49800000D01*
G36*
X70424866Y-51348273D02*
G01*
X70292309Y-51348273D01*
X69743273Y-50174158D01*
X69876544Y-50174158D01*
X70424866Y-51348273D01*
G37*
X70424866Y-51348273D02*
X70292309Y-51348273D01*
X69743273Y-50174158D01*
X69876544Y-50174158D01*
X70424866Y-51348273D01*
G36*
X70526069Y-48133125D02*
G01*
X69672153Y-48133125D01*
X69672153Y-48014523D01*
X70526069Y-48014523D01*
X70526069Y-48133125D01*
G37*
X70526069Y-48133125D02*
X69672153Y-48133125D01*
X69672153Y-48014523D01*
X70526069Y-48014523D01*
X70526069Y-48133125D01*
G36*
X63850394Y-51348273D02*
G01*
X63717202Y-51348273D01*
X64266239Y-50174158D01*
X64398716Y-50174158D01*
X63850394Y-51348273D01*
G37*
X63850394Y-51348273D02*
X63717202Y-51348273D01*
X64266239Y-50174158D01*
X64398716Y-50174158D01*
X63850394Y-51348273D01*
G36*
X69665167Y-48133125D02*
G01*
X68811251Y-48133125D01*
X68811251Y-48014523D01*
X69665167Y-48014523D01*
X69665167Y-48133125D01*
G37*
X69665167Y-48133125D02*
X68811251Y-48133125D01*
X68811251Y-48014523D01*
X69665167Y-48014523D01*
X69665167Y-48133125D01*
G36*
X60406900Y-54682030D02*
G01*
X60273654Y-54682030D01*
X60822690Y-53507908D01*
X60955238Y-53507908D01*
X60406900Y-54682030D01*
G37*
X60406900Y-54682030D02*
X60273654Y-54682030D01*
X60822690Y-53507908D01*
X60955238Y-53507908D01*
X60406900Y-54682030D01*
G36*
X75691317Y-51466875D02*
G01*
X74837402Y-51466875D01*
X74837402Y-51348273D01*
X75691317Y-51348273D01*
X75691317Y-51466875D01*
G37*
X75691317Y-51466875D02*
X74837402Y-51466875D01*
X74837402Y-51348273D01*
X75691317Y-51348273D01*
X75691317Y-51466875D01*
G36*
X75902691Y-51348273D02*
G01*
X75769422Y-51348273D01*
X76318460Y-50174158D01*
X76451017Y-50174158D01*
X75902691Y-51348273D01*
G37*
X75902691Y-51348273D02*
X75769422Y-51348273D01*
X76318460Y-50174158D01*
X76451017Y-50174158D01*
X75902691Y-51348273D01*
G36*
X73969594Y-51466875D02*
G01*
X73115678Y-51466875D01*
X73115678Y-51348273D01*
X73969594Y-51348273D01*
X73969594Y-51466875D01*
G37*
X73969594Y-51466875D02*
X73115678Y-51466875D01*
X73115678Y-51348273D01*
X73969594Y-51348273D01*
X73969594Y-51466875D01*
G36*
X67943444Y-51466875D02*
G01*
X67089529Y-51466875D01*
X67089529Y-51348273D01*
X67943444Y-51348273D01*
X67943444Y-51466875D01*
G37*
X67943444Y-51466875D02*
X67089529Y-51466875D01*
X67089529Y-51348273D01*
X67943444Y-51348273D01*
X67943444Y-51466875D01*
G36*
X78485318Y-49681398D02*
G01*
X78352045Y-49681398D01*
X78901084Y-48507283D01*
X79033639Y-48507283D01*
X78485318Y-49681398D01*
G37*
X78485318Y-49681398D02*
X78352045Y-49681398D01*
X78901084Y-48507283D01*
X79033639Y-48507283D01*
X78485318Y-49681398D01*
G36*
X62778117Y-49800000D02*
G01*
X61924249Y-49800000D01*
X61924249Y-49681398D01*
X62778117Y-49681398D01*
X62778117Y-49800000D01*
G37*
X62778117Y-49800000D02*
X61924249Y-49800000D01*
X61924249Y-49681398D01*
X62778117Y-49681398D01*
X62778117Y-49800000D01*
G36*
X67082544Y-54800617D02*
G01*
X66228627Y-54800617D01*
X66228627Y-54682030D01*
X67082544Y-54682030D01*
X67082544Y-54800617D01*
G37*
X67082544Y-54800617D02*
X66228627Y-54800617D01*
X66228627Y-54682030D01*
X67082544Y-54682030D01*
X67082544Y-54800617D01*
G36*
X73969594Y-53133750D02*
G01*
X73115678Y-53133750D01*
X73115678Y-53015148D01*
X73969594Y-53015148D01*
X73969594Y-53133750D01*
G37*
X73969594Y-53133750D02*
X73115678Y-53133750D01*
X73115678Y-53015148D01*
X73969594Y-53015148D01*
X73969594Y-53133750D01*
G36*
X62128671Y-51348273D02*
G01*
X61995408Y-51348273D01*
X62544437Y-50174158D01*
X62676993Y-50174158D01*
X62128671Y-51348273D01*
G37*
X62128671Y-51348273D02*
X61995408Y-51348273D01*
X62544437Y-50174158D01*
X62676993Y-50174158D01*
X62128671Y-51348273D01*
G36*
X66221642Y-54800617D02*
G01*
X65367726Y-54800617D01*
X65367726Y-54682030D01*
X66221642Y-54682030D01*
X66221642Y-54800617D01*
G37*
X66221642Y-54800617D02*
X65367726Y-54800617D01*
X65367726Y-54682030D01*
X66221642Y-54682030D01*
X66221642Y-54800617D01*
G36*
X59546023Y-53015148D02*
G01*
X59412776Y-53015148D01*
X59961812Y-51841033D01*
X60094361Y-51841033D01*
X59546023Y-53015148D01*
G37*
X59546023Y-53015148D02*
X59412776Y-53015148D01*
X59961812Y-51841033D01*
X60094361Y-51841033D01*
X59546023Y-53015148D01*
G36*
X79134841Y-48133125D02*
G01*
X78280927Y-48133125D01*
X78280927Y-48014523D01*
X79134841Y-48014523D01*
X79134841Y-48133125D01*
G37*
X79134841Y-48133125D02*
X78280927Y-48133125D01*
X78280927Y-48014523D01*
X79134841Y-48014523D01*
X79134841Y-48133125D01*
G36*
X66981420Y-51348273D02*
G01*
X66848864Y-51348273D01*
X66299827Y-50174158D01*
X66433018Y-50174158D01*
X66981420Y-51348273D01*
G37*
X66981420Y-51348273D02*
X66848864Y-51348273D01*
X66299827Y-50174158D01*
X66433018Y-50174158D01*
X66981420Y-51348273D01*
G36*
X69876544Y-53015148D02*
G01*
X69743273Y-53015148D01*
X70292309Y-51841033D01*
X70424866Y-51841033D01*
X69876544Y-53015148D01*
G37*
X69876544Y-53015148D02*
X69743273Y-53015148D01*
X70292309Y-51841033D01*
X70424866Y-51841033D01*
X69876544Y-53015148D01*
G36*
X75041793Y-53015148D02*
G01*
X74908600Y-53015148D01*
X75457637Y-51841033D01*
X75590194Y-51841033D01*
X75041793Y-53015148D01*
G37*
X75041793Y-53015148D02*
X74908600Y-53015148D01*
X75457637Y-51841033D01*
X75590194Y-51841033D01*
X75041793Y-53015148D01*
G36*
X76497052Y-48878425D02*
G01*
X75904122Y-49101667D01*
X76497052Y-49322814D01*
X76497052Y-49450480D01*
X75759661Y-49158873D01*
X75759661Y-49043064D01*
X76497052Y-48751456D01*
X76497052Y-48878425D01*
G37*
X76497052Y-48878425D02*
X75904122Y-49101667D01*
X76497052Y-49322814D01*
X76497052Y-49450480D01*
X75759661Y-49158873D01*
X75759661Y-49043064D01*
X76497052Y-48751456D01*
X76497052Y-48878425D01*
G36*
X68804267Y-51466875D02*
G01*
X67950430Y-51466875D01*
X67950430Y-51348273D01*
X68804267Y-51348273D01*
X68804267Y-51466875D01*
G37*
X68804267Y-51466875D02*
X67950430Y-51466875D01*
X67950430Y-51348273D01*
X68804267Y-51348273D01*
X68804267Y-51466875D01*
G36*
X58473762Y-54800617D02*
G01*
X57619861Y-54800617D01*
X57619861Y-54682030D01*
X58473762Y-54682030D01*
X58473762Y-54800617D01*
G37*
X58473762Y-54800617D02*
X57619861Y-54800617D01*
X57619861Y-54682030D01*
X58473762Y-54682030D01*
X58473762Y-54800617D01*
G36*
X61267778Y-49681398D02*
G01*
X61134530Y-49681398D01*
X61683567Y-48507283D01*
X61816116Y-48507283D01*
X61267778Y-49681398D01*
G37*
X61267778Y-49681398D02*
X61134530Y-49681398D01*
X61683567Y-48507283D01*
X61816116Y-48507283D01*
X61267778Y-49681398D01*
G36*
X61917271Y-48133125D02*
G01*
X61063371Y-48133125D01*
X61063371Y-48014523D01*
X61917271Y-48014523D01*
X61917271Y-48133125D01*
G37*
X61917271Y-48133125D02*
X61063371Y-48133125D01*
X61063371Y-48014523D01*
X61917271Y-48014523D01*
X61917271Y-48133125D01*
G36*
X59546023Y-49681398D02*
G01*
X59412776Y-49681398D01*
X59961812Y-48507283D01*
X60094361Y-48507283D01*
X59546023Y-49681398D01*
G37*
X59546023Y-49681398D02*
X59412776Y-49681398D01*
X59961812Y-48507283D01*
X60094361Y-48507283D01*
X59546023Y-49681398D01*
G36*
X68154820Y-53015148D02*
G01*
X68021549Y-53015148D01*
X68570586Y-51841033D01*
X68703143Y-51841033D01*
X68154820Y-53015148D01*
G37*
X68154820Y-53015148D02*
X68021549Y-53015148D01*
X68570586Y-51841033D01*
X68703143Y-51841033D01*
X68154820Y-53015148D01*
G36*
X63639018Y-48133125D02*
G01*
X62785102Y-48133125D01*
X62785102Y-48014523D01*
X63639018Y-48014523D01*
X63639018Y-48133125D01*
G37*
X63639018Y-48133125D02*
X62785102Y-48133125D01*
X62785102Y-48014523D01*
X63639018Y-48014523D01*
X63639018Y-48133125D01*
G36*
X60406900Y-51348273D02*
G01*
X60273654Y-51348273D01*
X60822690Y-50174158D01*
X60955238Y-50174158D01*
X60406900Y-51348273D01*
G37*
X60406900Y-51348273D02*
X60273654Y-51348273D01*
X60822690Y-50174158D01*
X60955238Y-50174158D01*
X60406900Y-51348273D01*
G36*
X72247792Y-51466875D02*
G01*
X71393876Y-51466875D01*
X71393876Y-51348273D01*
X72247792Y-51348273D01*
X72247792Y-51466875D01*
G37*
X72247792Y-51466875D02*
X71393876Y-51466875D01*
X71393876Y-51348273D01*
X72247792Y-51348273D01*
X72247792Y-51466875D01*
G36*
X66433018Y-49681398D02*
G01*
X66299827Y-49681398D01*
X66848864Y-48507283D01*
X66981420Y-48507283D01*
X66433018Y-49681398D01*
G37*
X66433018Y-49681398D02*
X66299827Y-49681398D01*
X66848864Y-48507283D01*
X66981420Y-48507283D01*
X66433018Y-49681398D01*
G36*
X71386891Y-53133750D02*
G01*
X70533053Y-53133750D01*
X70533053Y-53015148D01*
X71386891Y-53015148D01*
X71386891Y-53133750D01*
G37*
X71386891Y-53133750D02*
X70533053Y-53133750D01*
X70533053Y-53015148D01*
X71386891Y-53015148D01*
X71386891Y-53133750D01*
G36*
X67082544Y-53133750D02*
G01*
X66228627Y-53133750D01*
X66228627Y-53015148D01*
X67082544Y-53015148D01*
X67082544Y-53133750D01*
G37*
X67082544Y-53133750D02*
X66228627Y-53133750D01*
X66228627Y-53015148D01*
X67082544Y-53015148D01*
X67082544Y-53133750D01*
G36*
X77624416Y-51348273D02*
G01*
X77491223Y-51348273D01*
X78040262Y-50174158D01*
X78172817Y-50174158D01*
X77624416Y-51348273D01*
G37*
X77624416Y-51348273D02*
X77491223Y-51348273D01*
X78040262Y-50174158D01*
X78172817Y-50174158D01*
X77624416Y-51348273D01*
G36*
X57511729Y-49681398D02*
G01*
X57379180Y-49681398D01*
X56830143Y-48507283D01*
X56963390Y-48507283D01*
X57511729Y-49681398D01*
G37*
X57511729Y-49681398D02*
X57379180Y-49681398D01*
X56830143Y-48507283D01*
X56963390Y-48507283D01*
X57511729Y-49681398D01*
G36*
X66221642Y-48133125D02*
G01*
X65367726Y-48133125D01*
X65367726Y-48014523D01*
X66221642Y-48014523D01*
X66221642Y-48133125D01*
G37*
X66221642Y-48133125D02*
X65367726Y-48133125D01*
X65367726Y-48014523D01*
X66221642Y-48014523D01*
X66221642Y-48133125D01*
G36*
X75691317Y-54800617D02*
G01*
X74837402Y-54800617D01*
X74837402Y-54682030D01*
X75691317Y-54682030D01*
X75691317Y-54800617D01*
G37*
X75691317Y-54800617D02*
X74837402Y-54800617D01*
X74837402Y-54682030D01*
X75691317Y-54682030D01*
X75691317Y-54800617D01*
G36*
X76763594Y-53015148D02*
G01*
X76630325Y-53015148D01*
X77179360Y-51841033D01*
X77311919Y-51841033D01*
X76763594Y-53015148D01*
G37*
X76763594Y-53015148D02*
X76630325Y-53015148D01*
X77179360Y-51841033D01*
X77311919Y-51841033D01*
X76763594Y-53015148D01*
G36*
X65360821Y-48133125D02*
G01*
X64506905Y-48133125D01*
X64506905Y-48014523D01*
X65360821Y-48014523D01*
X65360821Y-48133125D01*
G37*
X65360821Y-48133125D02*
X64506905Y-48133125D01*
X64506905Y-48014523D01*
X65360821Y-48014523D01*
X65360821Y-48133125D01*
G36*
X68804267Y-54800617D02*
G01*
X67950430Y-54800617D01*
X67950430Y-54682030D01*
X68804267Y-54682030D01*
X68804267Y-54800617D01*
G37*
X68804267Y-54800617D02*
X67950430Y-54800617D01*
X67950430Y-54682030D01*
X68804267Y-54682030D01*
X68804267Y-54800617D01*
G36*
X66221642Y-53133750D02*
G01*
X65367726Y-53133750D01*
X65367726Y-53015148D01*
X66221642Y-53015148D01*
X66221642Y-53133750D01*
G37*
X66221642Y-53133750D02*
X65367726Y-53133750D01*
X65367726Y-53015148D01*
X66221642Y-53015148D01*
X66221642Y-53133750D01*
%LPC*%
G36*
X58245781Y-54770647D02*
G01*
X58295024Y-54787951D01*
X58204877Y-54799920D01*
X58027500Y-54803714D01*
X57831539Y-54798792D01*
X57758096Y-54785979D01*
X57809218Y-54770647D01*
X58065608Y-54757360D01*
X58245781Y-54770647D01*
G37*
G36*
X61739702Y-54770784D02*
G01*
X61783546Y-54787324D01*
X61689103Y-54798872D01*
X61480312Y-54802904D01*
X61276614Y-54798133D01*
X61198147Y-54786393D01*
X61261553Y-54770211D01*
X61263452Y-54769974D01*
X61522307Y-54757012D01*
X61739702Y-54770784D01*
G37*
G36*
X67767311Y-54763596D02*
G01*
X67969218Y-54768245D01*
X68145057Y-54775167D01*
X68171710Y-54781366D01*
X68058743Y-54786574D01*
X67815718Y-54790517D01*
X67452199Y-54792926D01*
X67076250Y-54793566D01*
X66622198Y-54792598D01*
X66280898Y-54789876D01*
X66061913Y-54785671D01*
X65974808Y-54780254D01*
X66029145Y-54773895D01*
X66183281Y-54768245D01*
X66675687Y-54759629D01*
X67234444Y-54758079D01*
X67767311Y-54763596D01*
G37*
G36*
X75471577Y-54770784D02*
G01*
X75515421Y-54787324D01*
X75420978Y-54798872D01*
X75212187Y-54802904D01*
X75008489Y-54798133D01*
X74930022Y-54786393D01*
X74993428Y-54770211D01*
X74995327Y-54769974D01*
X75254182Y-54757012D01*
X75471577Y-54770784D01*
G37*
G36*
X57471276Y-53593689D02*
G01*
X57471875Y-53599169D01*
X57437865Y-53696583D01*
X57350241Y-53884299D01*
X57230613Y-54121265D01*
X57100589Y-54366431D01*
X56981778Y-54578747D01*
X56895788Y-54717162D01*
X56867072Y-54748125D01*
X56847415Y-54690695D01*
X56859815Y-54648906D01*
X57016250Y-54276575D01*
X57163522Y-53955541D01*
X57287969Y-53713257D01*
X57375933Y-53577177D01*
X57402875Y-53557500D01*
X57471276Y-53593689D01*
G37*
G36*
X59144339Y-53623051D02*
G01*
X59088704Y-53796458D01*
X58986750Y-54042854D01*
X58963908Y-54093281D01*
X58788696Y-54459014D01*
X58667148Y-54675617D01*
X58599122Y-54743314D01*
X58583125Y-54693536D01*
X58615648Y-54569384D01*
X58699253Y-54363031D01*
X58812992Y-54117053D01*
X58935918Y-53874025D01*
X59047084Y-53676523D01*
X59125541Y-53567123D01*
X59142061Y-53557500D01*
X59144339Y-53623051D01*
G37*
G36*
X60859287Y-53584703D02*
G01*
X60849936Y-53672515D01*
X60784848Y-53857313D01*
X60683749Y-54096413D01*
X60566360Y-54347133D01*
X60452407Y-54566788D01*
X60361612Y-54712697D01*
X60321674Y-54748125D01*
X60309071Y-54684023D01*
X60353658Y-54523326D01*
X60382061Y-54450468D01*
X60531222Y-54112387D01*
X60668457Y-53837517D01*
X60779435Y-53651852D01*
X60849826Y-53581390D01*
X60859287Y-53584703D01*
G37*
G36*
X62608270Y-53559477D02*
G01*
X62621409Y-53583831D01*
X62600741Y-53658199D01*
X62537187Y-53810213D01*
X62421675Y-54067508D01*
X62353437Y-54218129D01*
X62229016Y-54474478D01*
X62122040Y-54662281D01*
X62053633Y-54744890D01*
X62049166Y-54745991D01*
X62005564Y-54696814D01*
X62009479Y-54684277D01*
X62209145Y-54217150D01*
X62372085Y-53866604D01*
X62492973Y-53643336D01*
X62566485Y-53558044D01*
X62570397Y-53557500D01*
X62608270Y-53559477D01*
G37*
G36*
X65172804Y-53622654D02*
G01*
X65116247Y-53795772D01*
X65010852Y-54043338D01*
X64973739Y-54122327D01*
X64811479Y-54454195D01*
X64704056Y-54655222D01*
X64642390Y-54739882D01*
X64617396Y-54722646D01*
X64615625Y-54692957D01*
X64647936Y-54564943D01*
X64730984Y-54355966D01*
X64843942Y-54108766D01*
X64965980Y-53866086D01*
X65076270Y-53670667D01*
X65153985Y-53565251D01*
X65168940Y-53557500D01*
X65172804Y-53622654D01*
G37*
G36*
X69467248Y-53623364D02*
G01*
X69412052Y-53797538D01*
X69311847Y-54044890D01*
X69290452Y-54093281D01*
X69134384Y-54423976D01*
X69012178Y-54646445D01*
X68931977Y-54747752D01*
X68901919Y-54714960D01*
X68901875Y-54710799D01*
X68934147Y-54593478D01*
X69017213Y-54391035D01*
X69130445Y-54145647D01*
X69253215Y-53899491D01*
X69364894Y-53694744D01*
X69444855Y-53573583D01*
X69465930Y-53557500D01*
X69467248Y-53623364D01*
G37*
G36*
X74652971Y-53613541D02*
G01*
X74602577Y-53786168D01*
X74471922Y-54082138D01*
X74341575Y-54346291D01*
X74197079Y-54611914D01*
X74102732Y-54741307D01*
X74062467Y-54729377D01*
X74061250Y-54709136D01*
X74093473Y-54598544D01*
X74176406Y-54400657D01*
X74289438Y-54157534D01*
X74411963Y-53911234D01*
X74523371Y-53703815D01*
X74603054Y-53577337D01*
X74625537Y-53557500D01*
X74652971Y-53613541D01*
G37*
G36*
X76364679Y-53622654D02*
G01*
X76308122Y-53795772D01*
X76202727Y-54043338D01*
X76165614Y-54122327D01*
X76003354Y-54454195D01*
X75895931Y-54655222D01*
X75834265Y-54739882D01*
X75809271Y-54722646D01*
X75807500Y-54692957D01*
X75839811Y-54564943D01*
X75922859Y-54355966D01*
X76035817Y-54108766D01*
X76157855Y-53866086D01*
X76268145Y-53670667D01*
X76345860Y-53565251D01*
X76360815Y-53557500D01*
X76364679Y-53622654D01*
G37*
G36*
X67312682Y-53100631D02*
G01*
X67338116Y-53101633D01*
X67473720Y-53109970D01*
X67462026Y-53117224D01*
X67314484Y-53122961D01*
X67042545Y-53126746D01*
X66657659Y-53128146D01*
X66639687Y-53128146D01*
X66253981Y-53126767D01*
X65984164Y-53123028D01*
X65840797Y-53117361D01*
X65834440Y-53110198D01*
X65975653Y-53101974D01*
X65988741Y-53101468D01*
X66418561Y-53091884D01*
X66892469Y-53091609D01*
X67312682Y-53100631D01*
G37*
G36*
X73338986Y-53094135D02*
G01*
X73808083Y-53101318D01*
X74007131Y-53107350D01*
X74056221Y-53112837D01*
X73964148Y-53117592D01*
X73739704Y-53121424D01*
X73391681Y-53124145D01*
X72928873Y-53125566D01*
X72672187Y-53125731D01*
X72160627Y-53124961D01*
X71761962Y-53122815D01*
X71484548Y-53119480D01*
X71336740Y-53115146D01*
X71326894Y-53110000D01*
X71463365Y-53104230D01*
X71585583Y-53101245D01*
X72126872Y-53093573D01*
X72737539Y-53091204D01*
X73338986Y-53094135D01*
G37*
G36*
X58285582Y-51956236D02*
G01*
X58230716Y-52136982D01*
X58117802Y-52408729D01*
X57955913Y-52747343D01*
X57937563Y-52783593D01*
X57815254Y-52999072D01*
X57736987Y-53082363D01*
X57710000Y-53028049D01*
X57742528Y-52915797D01*
X57826163Y-52717348D01*
X57939974Y-52474959D01*
X58063035Y-52230886D01*
X58174417Y-52027387D01*
X58253191Y-51906717D01*
X58273325Y-51890625D01*
X58285582Y-51956236D01*
G37*
G36*
X60015622Y-51955218D02*
G01*
X59958646Y-52127188D01*
X59850248Y-52373815D01*
X59805130Y-52466093D01*
X59645790Y-52781822D01*
X59543697Y-52974803D01*
X59486389Y-53064910D01*
X59461403Y-53072021D01*
X59456250Y-53022503D01*
X59488735Y-52888571D01*
X59572219Y-52675928D01*
X59685740Y-52427452D01*
X59808338Y-52186020D01*
X59919054Y-51994511D01*
X59996926Y-51895803D01*
X60009553Y-51890625D01*
X60015622Y-51955218D01*
G37*
G36*
X61711975Y-51994273D02*
G01*
X61646373Y-52178001D01*
X61545702Y-52417134D01*
X61429398Y-52669138D01*
X61316895Y-52891475D01*
X61227630Y-53041609D01*
X61187206Y-53081250D01*
X61123314Y-53042787D01*
X61123125Y-53039580D01*
X61156395Y-52942372D01*
X61242209Y-52757977D01*
X61359565Y-52525985D01*
X61487467Y-52285986D01*
X61604916Y-52077569D01*
X61690911Y-51940324D01*
X61723071Y-51908487D01*
X61711975Y-51994273D01*
G37*
G36*
X63461096Y-51946666D02*
G01*
X63410702Y-52119293D01*
X63280047Y-52415263D01*
X63149700Y-52679416D01*
X63005204Y-52945039D01*
X62910857Y-53074432D01*
X62870592Y-53062502D01*
X62869375Y-53042261D01*
X62901598Y-52931669D01*
X62984531Y-52733782D01*
X63097563Y-52490659D01*
X63220088Y-52244359D01*
X63331496Y-52036940D01*
X63411179Y-51910462D01*
X63433662Y-51890625D01*
X63461096Y-51946666D01*
G37*
G36*
X68663151Y-51926814D02*
G01*
X68663750Y-51932294D01*
X68629740Y-52029708D01*
X68542116Y-52217424D01*
X68422488Y-52454390D01*
X68292464Y-52699556D01*
X68173653Y-52911872D01*
X68087663Y-53050287D01*
X68058947Y-53081250D01*
X68039290Y-53023820D01*
X68051690Y-52982031D01*
X68208125Y-52609700D01*
X68355397Y-52288666D01*
X68479844Y-52046382D01*
X68567808Y-51910302D01*
X68594750Y-51890625D01*
X68663151Y-51926814D01*
G37*
G36*
X70336214Y-51956176D02*
G01*
X70280579Y-52129583D01*
X70178625Y-52375979D01*
X70155783Y-52426406D01*
X69980571Y-52792139D01*
X69859023Y-53008742D01*
X69790997Y-53076439D01*
X69775000Y-53026661D01*
X69807523Y-52902509D01*
X69891128Y-52696156D01*
X70004867Y-52450178D01*
X70127793Y-52207150D01*
X70238959Y-52009648D01*
X70317416Y-51900248D01*
X70333936Y-51890625D01*
X70336214Y-51956176D01*
G37*
G36*
X75499925Y-51956515D02*
G01*
X75441931Y-52130753D01*
X75340107Y-52378186D01*
X75318672Y-52426406D01*
X75150750Y-52782065D01*
X75029039Y-52999955D01*
X74956130Y-53076082D01*
X74934375Y-53019252D01*
X74967437Y-52899937D01*
X75052403Y-52697288D01*
X75167936Y-52453721D01*
X75292701Y-52211653D01*
X75405365Y-52013500D01*
X75484591Y-51901679D01*
X75502058Y-51890625D01*
X75499925Y-51956515D01*
G37*
G36*
X77236250Y-51952622D02*
G01*
X77203091Y-52072741D01*
X77117876Y-52275879D01*
X77001996Y-52519629D01*
X76876840Y-52761589D01*
X76763801Y-52959355D01*
X76684269Y-53070523D01*
X76666908Y-53081250D01*
X76668134Y-53015332D01*
X76725256Y-52841028D01*
X76826407Y-52593513D01*
X76847672Y-52545468D01*
X77012271Y-52196553D01*
X77134690Y-51977655D01*
X77210741Y-51895165D01*
X77236250Y-51952622D01*
G37*
G36*
X68249380Y-51427878D02*
G01*
X68405781Y-51435092D01*
X68509953Y-51445832D01*
X68468756Y-51454736D01*
X68295567Y-51460965D01*
X68003764Y-51463680D01*
X67949375Y-51463732D01*
X67640564Y-51461631D01*
X67448317Y-51455886D01*
X67386010Y-51447338D01*
X67467021Y-51436825D01*
X67492968Y-51435092D01*
X67856323Y-51423696D01*
X68249380Y-51427878D01*
G37*
G36*
X73692349Y-51426263D02*
G01*
X74286948Y-51432398D01*
X74403634Y-51434385D01*
X74627204Y-51439823D01*
X74700094Y-51444824D01*
X74630375Y-51449244D01*
X74426117Y-51452938D01*
X74095391Y-51455762D01*
X73646267Y-51457572D01*
X73086815Y-51458224D01*
X73069062Y-51458225D01*
X72508808Y-51457587D01*
X72060626Y-51455796D01*
X71732241Y-51452995D01*
X71531377Y-51449328D01*
X71465761Y-51444938D01*
X71543117Y-51439970D01*
X71771172Y-51434566D01*
X71784259Y-51434330D01*
X72368061Y-51427227D01*
X73028405Y-51424539D01*
X73692349Y-51426263D01*
G37*
G36*
X57811876Y-50236349D02*
G01*
X57864384Y-50322578D01*
X57951572Y-50501018D01*
X58088973Y-50797329D01*
X58093952Y-50808130D01*
X58228997Y-51102886D01*
X58306192Y-51282198D01*
X58334223Y-51374756D01*
X58321771Y-51409251D01*
X58277522Y-51414374D01*
X58277443Y-51414375D01*
X58215830Y-51346945D01*
X58113103Y-51168164D01*
X57989031Y-50913289D01*
X57959032Y-50846432D01*
X57845770Y-50574305D01*
X57770329Y-50361876D01*
X57745719Y-50246796D01*
X57748776Y-50237890D01*
X57778517Y-50216673D01*
X57811876Y-50236349D01*
G37*
G36*
X60859287Y-50250953D02*
G01*
X60849936Y-50338765D01*
X60784848Y-50523563D01*
X60683749Y-50762663D01*
X60566360Y-51013383D01*
X60452407Y-51233038D01*
X60361612Y-51378947D01*
X60321674Y-51414375D01*
X60309071Y-51350273D01*
X60353658Y-51189576D01*
X60382061Y-51116718D01*
X60531222Y-50778637D01*
X60668457Y-50503767D01*
X60779435Y-50318102D01*
X60849826Y-50247640D01*
X60859287Y-50250953D01*
G37*
G36*
X62608270Y-50225727D02*
G01*
X62621409Y-50250081D01*
X62600741Y-50324449D01*
X62537187Y-50476463D01*
X62421675Y-50733758D01*
X62353437Y-50884379D01*
X62229016Y-51140728D01*
X62122040Y-51328531D01*
X62053633Y-51411140D01*
X62049166Y-51412241D01*
X62005564Y-51363064D01*
X62009479Y-51350527D01*
X62209145Y-50883400D01*
X62372085Y-50532854D01*
X62492973Y-50309586D01*
X62566485Y-50224294D01*
X62570397Y-50223750D01*
X62608270Y-50225727D01*
G37*
G36*
X64308050Y-50289640D02*
G01*
X64250056Y-50463878D01*
X64148232Y-50711311D01*
X64126797Y-50759531D01*
X63958875Y-51115190D01*
X63837164Y-51333080D01*
X63764255Y-51409207D01*
X63742500Y-51352377D01*
X63775562Y-51233062D01*
X63860528Y-51030413D01*
X63976061Y-50786846D01*
X64100826Y-50544778D01*
X64213490Y-50346625D01*
X64292716Y-50234804D01*
X64310183Y-50223750D01*
X64308050Y-50289640D01*
G37*
G36*
X66424757Y-50290705D02*
G01*
X66527203Y-50462607D01*
X66645509Y-50696009D01*
X66759405Y-50947467D01*
X66848620Y-51173535D01*
X66892883Y-51330766D01*
X66892470Y-51368303D01*
X66844115Y-51357734D01*
X66754461Y-51233825D01*
X66700853Y-51136562D01*
X66526762Y-50778580D01*
X66405591Y-50492935D01*
X66345368Y-50301033D01*
X66354124Y-50224278D01*
X66358443Y-50223750D01*
X66424757Y-50290705D01*
G37*
G36*
X69850452Y-50298614D02*
G01*
X69954358Y-50453514D01*
X70086965Y-50691024D01*
X70127093Y-50769258D01*
X70278719Y-51073611D01*
X70366545Y-51263605D01*
X70399624Y-51365925D01*
X70387010Y-51407258D01*
X70345959Y-51414375D01*
X70283567Y-51348021D01*
X70175954Y-51172203D01*
X70044015Y-50921784D01*
X70013811Y-50860168D01*
X69892983Y-50592356D01*
X69814170Y-50381609D01*
X69791101Y-50265781D01*
X69794944Y-50256721D01*
X69850452Y-50298614D01*
G37*
G36*
X76364679Y-50288904D02*
G01*
X76308122Y-50462022D01*
X76202727Y-50709588D01*
X76165614Y-50788577D01*
X76003354Y-51120445D01*
X75895931Y-51321472D01*
X75834265Y-51406132D01*
X75809271Y-51388896D01*
X75807500Y-51359207D01*
X75839811Y-51231193D01*
X75922859Y-51022216D01*
X76035817Y-50775016D01*
X76157855Y-50532336D01*
X76268145Y-50336917D01*
X76345860Y-50231501D01*
X76360815Y-50223750D01*
X76364679Y-50288904D01*
G37*
G36*
X78065618Y-50329837D02*
G01*
X78000765Y-50514372D01*
X77900566Y-50753940D01*
X77784458Y-51005888D01*
X77671874Y-51227565D01*
X77582250Y-51376320D01*
X77541931Y-51414375D01*
X77474831Y-51377547D01*
X77474375Y-51372705D01*
X77507725Y-51274617D01*
X77593746Y-51089788D01*
X77711386Y-50857766D01*
X77839596Y-50618095D01*
X77957328Y-50410322D01*
X78043533Y-50273993D01*
X78075693Y-50242984D01*
X78065618Y-50329837D01*
G37*
G36*
X62612827Y-49770159D02*
G01*
X62656671Y-49786699D01*
X62562228Y-49798247D01*
X62353437Y-49802279D01*
X62149739Y-49797508D01*
X62071272Y-49785768D01*
X62134678Y-49769586D01*
X62136577Y-49769349D01*
X62395432Y-49756387D01*
X62612827Y-49770159D01*
G37*
G36*
X65630005Y-49761003D02*
G01*
X65786406Y-49768217D01*
X65890578Y-49778957D01*
X65849381Y-49787861D01*
X65676192Y-49794090D01*
X65384389Y-49796805D01*
X65330000Y-49796857D01*
X65021189Y-49794756D01*
X64828942Y-49789011D01*
X64766635Y-49780463D01*
X64847646Y-49769950D01*
X64873593Y-49768217D01*
X65236948Y-49756821D01*
X65630005Y-49761003D01*
G37*
G36*
X69471460Y-49758201D02*
G01*
X69874218Y-49767820D01*
X70013891Y-49776289D01*
X70005984Y-49783654D01*
X69861665Y-49789458D01*
X69592103Y-49793246D01*
X69219375Y-49794562D01*
X68838457Y-49793179D01*
X68571894Y-49789335D01*
X68430855Y-49783487D01*
X68426507Y-49776089D01*
X68564531Y-49767820D01*
X68992555Y-49757928D01*
X69471460Y-49758201D01*
G37*
G36*
X56963433Y-48623313D02*
G01*
X57060514Y-48794252D01*
X57176127Y-49027126D01*
X57290726Y-49279369D01*
X57384763Y-49508414D01*
X57438692Y-49671698D01*
X57441047Y-49725411D01*
X57378464Y-49699852D01*
X57342772Y-49653562D01*
X57275668Y-49530397D01*
X57173159Y-49325525D01*
X57056636Y-49083943D01*
X56947492Y-48850644D01*
X56867117Y-48670627D01*
X56836875Y-48589435D01*
X56896763Y-48557084D01*
X56904431Y-48556875D01*
X56963433Y-48623313D01*
G37*
G36*
X58658577Y-48631739D02*
G01*
X58762483Y-48786639D01*
X58895090Y-49024149D01*
X58935218Y-49102383D01*
X59086844Y-49406736D01*
X59174670Y-49596730D01*
X59207749Y-49699050D01*
X59195135Y-49740383D01*
X59154084Y-49747500D01*
X59091692Y-49681146D01*
X58984079Y-49505328D01*
X58852140Y-49254909D01*
X58821936Y-49193293D01*
X58701108Y-48925481D01*
X58622295Y-48714734D01*
X58599226Y-48598906D01*
X58603069Y-48589846D01*
X58658577Y-48631739D01*
G37*
G36*
X60015622Y-48621468D02*
G01*
X59958646Y-48793438D01*
X59850248Y-49040065D01*
X59805130Y-49132343D01*
X59645790Y-49448072D01*
X59543697Y-49641053D01*
X59486389Y-49731160D01*
X59461403Y-49738271D01*
X59456250Y-49688753D01*
X59488735Y-49554821D01*
X59572219Y-49342178D01*
X59685740Y-49093702D01*
X59808338Y-48852270D01*
X59919054Y-48660761D01*
X59996926Y-48562053D01*
X60009553Y-48556875D01*
X60015622Y-48621468D01*
G37*
G36*
X61711975Y-48660523D02*
G01*
X61646373Y-48844251D01*
X61545702Y-49083384D01*
X61429398Y-49335388D01*
X61316895Y-49557725D01*
X61227630Y-49707859D01*
X61187206Y-49747500D01*
X61123314Y-49709037D01*
X61123125Y-49705830D01*
X61156395Y-49608622D01*
X61242209Y-49424227D01*
X61359565Y-49192235D01*
X61487467Y-48952236D01*
X61604916Y-48743819D01*
X61690911Y-48606574D01*
X61723071Y-48574737D01*
X61711975Y-48660523D01*
G37*
G36*
X66873743Y-48662962D02*
G01*
X66808890Y-48847497D01*
X66708691Y-49087065D01*
X66592583Y-49339013D01*
X66479999Y-49560690D01*
X66390375Y-49709445D01*
X66350056Y-49747500D01*
X66282956Y-49710672D01*
X66282500Y-49705830D01*
X66315850Y-49607742D01*
X66401871Y-49422913D01*
X66519511Y-49190891D01*
X66647721Y-48951220D01*
X66765453Y-48743447D01*
X66851658Y-48607118D01*
X66883818Y-48576109D01*
X66873743Y-48662962D01*
G37*
G36*
X71204626Y-48623443D02*
G01*
X71152736Y-48784052D01*
X71048364Y-49025463D01*
X70991048Y-49144525D01*
X70820937Y-49471302D01*
X70702148Y-49667690D01*
X70640764Y-49732419D01*
X70642868Y-49664218D01*
X70714543Y-49461818D01*
X70837800Y-49176517D01*
X70971835Y-48903128D01*
X71093565Y-48692038D01*
X71180760Y-48580937D01*
X71193432Y-48573543D01*
X71204626Y-48623443D01*
G37*
G36*
X78973103Y-48608142D02*
G01*
X78969270Y-48620479D01*
X78801258Y-49009849D01*
X78646911Y-49340826D01*
X78518903Y-49588206D01*
X78429907Y-49726782D01*
X78402597Y-49747500D01*
X78356896Y-49696232D01*
X78360729Y-49683895D01*
X78528741Y-49294525D01*
X78683088Y-48963548D01*
X78811096Y-48716168D01*
X78900092Y-48577592D01*
X78927402Y-48556875D01*
X78973103Y-48608142D01*
G37*
G36*
X76504439Y-48830481D02*
G01*
X76464265Y-48883390D01*
X76319184Y-48971858D01*
X76246716Y-49008157D01*
X75951904Y-49148743D01*
X76256733Y-49283484D01*
X76421683Y-49368431D01*
X76443781Y-49412511D01*
X76402812Y-49417638D01*
X76221529Y-49385867D01*
X75998662Y-49309652D01*
X75986093Y-49304234D01*
X75815079Y-49213760D01*
X75730171Y-49138092D01*
X75728125Y-49129393D01*
X75795303Y-49069676D01*
X75960027Y-48988042D01*
X76167074Y-48905752D01*
X76361224Y-48844069D01*
X76487257Y-48824256D01*
X76504439Y-48830481D01*
G37*
G36*
X57894869Y-48093847D02*
G01*
X58050241Y-48101581D01*
X58141818Y-48112704D01*
X58089152Y-48121804D01*
X57906747Y-48127975D01*
X57609108Y-48130308D01*
X57590937Y-48130308D01*
X57292516Y-48127994D01*
X57113313Y-48121919D01*
X57066193Y-48112986D01*
X57164020Y-48102098D01*
X57177116Y-48101256D01*
X57527242Y-48089951D01*
X57894869Y-48093847D01*
G37*
G36*
X66717529Y-48092290D02*
G01*
X67657190Y-48095016D01*
X68496604Y-48099653D01*
X68610048Y-48100508D01*
X68978205Y-48103942D01*
X69193054Y-48107211D01*
X69260033Y-48110272D01*
X69184584Y-48113083D01*
X68972148Y-48115604D01*
X68628163Y-48117791D01*
X68158072Y-48119603D01*
X67567315Y-48120997D01*
X66861331Y-48121933D01*
X66045563Y-48122369D01*
X65766562Y-48122395D01*
X64918677Y-48122123D01*
X64179864Y-48121338D01*
X63555450Y-48120082D01*
X63050763Y-48118398D01*
X62671131Y-48116326D01*
X62421880Y-48113909D01*
X62308340Y-48111188D01*
X62335837Y-48108206D01*
X62509699Y-48105003D01*
X62835255Y-48101623D01*
X62974423Y-48100494D01*
X63806066Y-48095577D01*
X64741065Y-48092570D01*
X65728520Y-48091475D01*
X66717529Y-48092290D01*
G37*
G36*
X78504557Y-48100006D02*
G01*
X78529991Y-48101008D01*
X78665595Y-48109345D01*
X78653901Y-48116599D01*
X78506359Y-48122336D01*
X78234420Y-48126121D01*
X77849534Y-48127521D01*
X77831562Y-48127521D01*
X77445856Y-48126142D01*
X77176039Y-48122403D01*
X77032672Y-48116736D01*
X77026315Y-48109573D01*
X77167528Y-48101349D01*
X77180616Y-48100843D01*
X77610436Y-48091259D01*
X78084344Y-48090984D01*
X78504557Y-48100006D01*
G37*
M02*
