G04 #@! TF.GenerationSoftware,KiCad,Pcbnew,(6.0.7-1)-1*
G04 #@! TF.CreationDate,2022-10-11T23:46:08+02:00*
G04 #@! TF.ProjectId,yts-switchblade,7974732d-7377-4697-9463-68626c616465,rev?*
G04 #@! TF.SameCoordinates,Original*
G04 #@! TF.FileFunction,Copper,L1,Top*
G04 #@! TF.FilePolarity,Positive*
%FSLAX46Y46*%
G04 Gerber Fmt 4.6, Leading zero omitted, Abs format (unit mm)*
G04 Created by KiCad (PCBNEW (6.0.7-1)-1) date 2022-10-11 23:46:08*
%MOMM*%
%LPD*%
G01*
G04 APERTURE LIST*
G04 APERTURE END LIST*
G04 #@! TA.AperFunction,NonConductor*
G36*
X328070018Y-35410000D02*
G01*
X328084851Y-35412310D01*
X328084855Y-35412310D01*
X328093724Y-35413691D01*
X328108981Y-35411696D01*
X328134302Y-35410953D01*
X328303285Y-35423039D01*
X328321064Y-35425596D01*
X328511392Y-35466999D01*
X328528641Y-35472063D01*
X328711150Y-35540136D01*
X328727502Y-35547604D01*
X328898458Y-35640952D01*
X328913582Y-35650672D01*
X329069514Y-35767402D01*
X329083100Y-35779175D01*
X329220825Y-35916900D01*
X329232598Y-35930486D01*
X329349328Y-36086418D01*
X329359048Y-36101542D01*
X329452396Y-36272498D01*
X329459864Y-36288850D01*
X329527937Y-36471359D01*
X329533001Y-36488607D01*
X329574404Y-36678936D01*
X329576962Y-36696721D01*
X329588540Y-36858601D01*
X329587793Y-36876565D01*
X329587692Y-36884845D01*
X329586309Y-36893724D01*
X329587474Y-36902630D01*
X329590436Y-36925283D01*
X329591500Y-36941621D01*
X329591500Y-128450633D01*
X329590000Y-128470018D01*
X329587690Y-128484851D01*
X329587690Y-128484855D01*
X329586309Y-128493724D01*
X329588136Y-128507693D01*
X329588304Y-128508976D01*
X329589047Y-128534305D01*
X329576962Y-128703279D01*
X329574404Y-128721064D01*
X329556598Y-128802919D01*
X329533001Y-128911392D01*
X329527937Y-128928641D01*
X329459864Y-129111150D01*
X329452396Y-129127502D01*
X329359048Y-129298458D01*
X329349328Y-129313582D01*
X329232598Y-129469514D01*
X329220825Y-129483100D01*
X329083100Y-129620825D01*
X329069514Y-129632598D01*
X328913582Y-129749328D01*
X328898458Y-129759048D01*
X328727502Y-129852396D01*
X328711150Y-129859864D01*
X328528641Y-129927937D01*
X328511393Y-129933001D01*
X328321064Y-129974404D01*
X328303285Y-129976961D01*
X328141395Y-129988540D01*
X328123435Y-129987793D01*
X328115155Y-129987692D01*
X328106276Y-129986309D01*
X328074714Y-129990436D01*
X328058379Y-129991500D01*
X46149367Y-129991500D01*
X46129982Y-129990000D01*
X46115149Y-129987690D01*
X46115145Y-129987690D01*
X46106276Y-129986309D01*
X46091019Y-129988304D01*
X46065698Y-129989047D01*
X45896715Y-129976961D01*
X45878936Y-129974404D01*
X45688607Y-129933001D01*
X45671359Y-129927937D01*
X45488850Y-129859864D01*
X45472498Y-129852396D01*
X45301542Y-129759048D01*
X45286418Y-129749328D01*
X45130486Y-129632598D01*
X45116900Y-129620825D01*
X44979175Y-129483100D01*
X44967402Y-129469514D01*
X44850672Y-129313582D01*
X44840952Y-129298458D01*
X44747604Y-129127502D01*
X44740136Y-129111150D01*
X44672063Y-128928641D01*
X44666999Y-128911392D01*
X44643402Y-128802919D01*
X44625596Y-128721064D01*
X44623038Y-128703278D01*
X44611719Y-128545012D01*
X44612805Y-128522245D01*
X44612334Y-128522203D01*
X44612770Y-128517345D01*
X44613576Y-128512552D01*
X44613729Y-128500000D01*
X44609773Y-128472376D01*
X44608500Y-128454514D01*
X44608500Y-118569721D01*
X88091024Y-118569721D01*
X88093491Y-118578352D01*
X88099150Y-118598153D01*
X88102728Y-118614915D01*
X88106920Y-118644187D01*
X88110634Y-118652355D01*
X88110634Y-118652356D01*
X88117548Y-118667562D01*
X88123996Y-118685086D01*
X88131051Y-118709771D01*
X88135843Y-118717365D01*
X88135844Y-118717368D01*
X88146830Y-118734780D01*
X88154969Y-118749863D01*
X88167208Y-118776782D01*
X88173069Y-118783584D01*
X88183970Y-118796235D01*
X88195073Y-118811239D01*
X88208776Y-118832958D01*
X88215501Y-118838897D01*
X88215504Y-118838901D01*
X88230938Y-118852532D01*
X88242982Y-118864724D01*
X88256427Y-118880327D01*
X88256430Y-118880329D01*
X88262287Y-118887127D01*
X88269816Y-118892007D01*
X88269817Y-118892008D01*
X88283835Y-118901094D01*
X88298709Y-118912385D01*
X88311217Y-118923431D01*
X88317951Y-118929378D01*
X88344711Y-118941942D01*
X88359691Y-118950263D01*
X88376983Y-118961471D01*
X88376988Y-118961473D01*
X88384515Y-118966352D01*
X88393108Y-118968922D01*
X88393113Y-118968924D01*
X88409120Y-118973711D01*
X88426564Y-118980372D01*
X88441676Y-118987467D01*
X88441678Y-118987468D01*
X88449800Y-118991281D01*
X88458667Y-118992662D01*
X88458668Y-118992662D01*
X88461353Y-118993080D01*
X88479017Y-118995830D01*
X88495732Y-118999613D01*
X88515466Y-119005515D01*
X88515472Y-119005516D01*
X88524066Y-119008086D01*
X88533037Y-119008141D01*
X88533038Y-119008141D01*
X88543097Y-119008202D01*
X88558506Y-119008296D01*
X88559289Y-119008329D01*
X88560386Y-119008500D01*
X88591377Y-119008500D01*
X88592147Y-119008502D01*
X88665785Y-119008952D01*
X88665786Y-119008952D01*
X88669721Y-119008976D01*
X88671065Y-119008592D01*
X88672410Y-119008500D01*
X102591377Y-119008500D01*
X102592148Y-119008502D01*
X102669721Y-119008976D01*
X102698152Y-119000850D01*
X102714915Y-118997272D01*
X102715753Y-118997152D01*
X102744187Y-118993080D01*
X102767564Y-118982451D01*
X102785087Y-118976004D01*
X102809771Y-118968949D01*
X102817365Y-118964157D01*
X102817368Y-118964156D01*
X102834780Y-118953170D01*
X102849865Y-118945030D01*
X102876782Y-118932792D01*
X102896235Y-118916030D01*
X102911239Y-118904927D01*
X102932958Y-118891224D01*
X102938897Y-118884499D01*
X102938901Y-118884496D01*
X102952532Y-118869062D01*
X102964724Y-118857018D01*
X102980327Y-118843573D01*
X102980329Y-118843570D01*
X102987127Y-118837713D01*
X103001094Y-118816165D01*
X103012385Y-118801291D01*
X103023431Y-118788783D01*
X103023432Y-118788782D01*
X103029378Y-118782049D01*
X103041943Y-118755287D01*
X103050263Y-118740309D01*
X103061471Y-118723017D01*
X103061473Y-118723012D01*
X103066352Y-118715485D01*
X103068922Y-118706892D01*
X103068924Y-118706887D01*
X103073711Y-118690880D01*
X103080372Y-118673436D01*
X103087467Y-118658324D01*
X103087468Y-118658322D01*
X103091281Y-118650200D01*
X103095830Y-118620983D01*
X103099613Y-118604268D01*
X103105515Y-118584534D01*
X103105516Y-118584528D01*
X103108086Y-118575934D01*
X103108124Y-118569721D01*
X107091024Y-118569721D01*
X107093491Y-118578352D01*
X107099150Y-118598153D01*
X107102728Y-118614915D01*
X107106920Y-118644187D01*
X107110634Y-118652355D01*
X107110634Y-118652356D01*
X107117548Y-118667562D01*
X107123996Y-118685086D01*
X107131051Y-118709771D01*
X107135843Y-118717365D01*
X107135844Y-118717368D01*
X107146830Y-118734780D01*
X107154969Y-118749863D01*
X107167208Y-118776782D01*
X107173069Y-118783584D01*
X107183970Y-118796235D01*
X107195073Y-118811239D01*
X107208776Y-118832958D01*
X107215501Y-118838897D01*
X107215504Y-118838901D01*
X107230938Y-118852532D01*
X107242982Y-118864724D01*
X107256427Y-118880327D01*
X107256430Y-118880329D01*
X107262287Y-118887127D01*
X107269816Y-118892007D01*
X107269817Y-118892008D01*
X107283835Y-118901094D01*
X107298709Y-118912385D01*
X107311217Y-118923431D01*
X107317951Y-118929378D01*
X107344711Y-118941942D01*
X107359691Y-118950263D01*
X107376983Y-118961471D01*
X107376988Y-118961473D01*
X107384515Y-118966352D01*
X107393108Y-118968922D01*
X107393113Y-118968924D01*
X107409120Y-118973711D01*
X107426564Y-118980372D01*
X107441676Y-118987467D01*
X107441678Y-118987468D01*
X107449800Y-118991281D01*
X107458667Y-118992662D01*
X107458668Y-118992662D01*
X107461353Y-118993080D01*
X107479017Y-118995830D01*
X107495732Y-118999613D01*
X107515466Y-119005515D01*
X107515472Y-119005516D01*
X107524066Y-119008086D01*
X107533037Y-119008141D01*
X107533038Y-119008141D01*
X107543097Y-119008202D01*
X107558506Y-119008296D01*
X107559289Y-119008329D01*
X107560386Y-119008500D01*
X107591377Y-119008500D01*
X107592147Y-119008502D01*
X107665785Y-119008952D01*
X107665786Y-119008952D01*
X107669721Y-119008976D01*
X107671065Y-119008592D01*
X107672410Y-119008500D01*
X121591377Y-119008500D01*
X121592148Y-119008502D01*
X121669721Y-119008976D01*
X121698152Y-119000850D01*
X121714915Y-118997272D01*
X121715753Y-118997152D01*
X121744187Y-118993080D01*
X121767564Y-118982451D01*
X121785087Y-118976004D01*
X121809771Y-118968949D01*
X121817365Y-118964157D01*
X121817368Y-118964156D01*
X121834780Y-118953170D01*
X121849865Y-118945030D01*
X121876782Y-118932792D01*
X121896235Y-118916030D01*
X121911239Y-118904927D01*
X121932958Y-118891224D01*
X121938897Y-118884499D01*
X121938901Y-118884496D01*
X121952532Y-118869062D01*
X121964724Y-118857018D01*
X121980327Y-118843573D01*
X121980329Y-118843570D01*
X121987127Y-118837713D01*
X122001094Y-118816165D01*
X122012385Y-118801291D01*
X122023431Y-118788783D01*
X122023432Y-118788782D01*
X122029378Y-118782049D01*
X122041943Y-118755287D01*
X122050263Y-118740309D01*
X122061471Y-118723017D01*
X122061473Y-118723012D01*
X122066352Y-118715485D01*
X122068922Y-118706892D01*
X122068924Y-118706887D01*
X122073711Y-118690880D01*
X122080372Y-118673436D01*
X122087467Y-118658324D01*
X122087468Y-118658322D01*
X122091281Y-118650200D01*
X122095830Y-118620983D01*
X122099613Y-118604268D01*
X122105515Y-118584534D01*
X122105516Y-118584528D01*
X122108086Y-118575934D01*
X122108124Y-118569721D01*
X126091024Y-118569721D01*
X126093491Y-118578352D01*
X126099150Y-118598153D01*
X126102728Y-118614915D01*
X126106920Y-118644187D01*
X126110634Y-118652355D01*
X126110634Y-118652356D01*
X126117548Y-118667562D01*
X126123996Y-118685086D01*
X126131051Y-118709771D01*
X126135843Y-118717365D01*
X126135844Y-118717368D01*
X126146830Y-118734780D01*
X126154969Y-118749863D01*
X126167208Y-118776782D01*
X126173069Y-118783584D01*
X126183970Y-118796235D01*
X126195073Y-118811239D01*
X126208776Y-118832958D01*
X126215501Y-118838897D01*
X126215504Y-118838901D01*
X126230938Y-118852532D01*
X126242982Y-118864724D01*
X126256427Y-118880327D01*
X126256430Y-118880329D01*
X126262287Y-118887127D01*
X126269816Y-118892007D01*
X126269817Y-118892008D01*
X126283835Y-118901094D01*
X126298709Y-118912385D01*
X126311217Y-118923431D01*
X126317951Y-118929378D01*
X126344711Y-118941942D01*
X126359691Y-118950263D01*
X126376983Y-118961471D01*
X126376988Y-118961473D01*
X126384515Y-118966352D01*
X126393108Y-118968922D01*
X126393113Y-118968924D01*
X126409120Y-118973711D01*
X126426564Y-118980372D01*
X126441676Y-118987467D01*
X126441678Y-118987468D01*
X126449800Y-118991281D01*
X126458667Y-118992662D01*
X126458668Y-118992662D01*
X126461353Y-118993080D01*
X126479017Y-118995830D01*
X126495732Y-118999613D01*
X126515466Y-119005515D01*
X126515472Y-119005516D01*
X126524066Y-119008086D01*
X126533037Y-119008141D01*
X126533038Y-119008141D01*
X126543097Y-119008202D01*
X126558506Y-119008296D01*
X126559289Y-119008329D01*
X126560386Y-119008500D01*
X126591377Y-119008500D01*
X126592147Y-119008502D01*
X126665785Y-119008952D01*
X126665786Y-119008952D01*
X126669721Y-119008976D01*
X126671065Y-119008592D01*
X126672410Y-119008500D01*
X140591377Y-119008500D01*
X140592148Y-119008502D01*
X140669721Y-119008976D01*
X140698152Y-119000850D01*
X140714915Y-118997272D01*
X140715753Y-118997152D01*
X140744187Y-118993080D01*
X140767564Y-118982451D01*
X140785087Y-118976004D01*
X140809771Y-118968949D01*
X140817365Y-118964157D01*
X140817368Y-118964156D01*
X140834780Y-118953170D01*
X140849865Y-118945030D01*
X140876782Y-118932792D01*
X140896235Y-118916030D01*
X140911239Y-118904927D01*
X140932958Y-118891224D01*
X140938897Y-118884499D01*
X140938901Y-118884496D01*
X140952532Y-118869062D01*
X140964724Y-118857018D01*
X140980327Y-118843573D01*
X140980329Y-118843570D01*
X140987127Y-118837713D01*
X141001094Y-118816165D01*
X141012385Y-118801291D01*
X141023431Y-118788783D01*
X141023432Y-118788782D01*
X141029378Y-118782049D01*
X141041943Y-118755287D01*
X141050263Y-118740309D01*
X141061471Y-118723017D01*
X141061473Y-118723012D01*
X141066352Y-118715485D01*
X141068922Y-118706892D01*
X141068924Y-118706887D01*
X141073711Y-118690880D01*
X141080372Y-118673436D01*
X141087467Y-118658324D01*
X141087468Y-118658322D01*
X141091281Y-118650200D01*
X141095830Y-118620983D01*
X141099613Y-118604268D01*
X141105515Y-118584534D01*
X141105516Y-118584528D01*
X141108086Y-118575934D01*
X141108124Y-118569721D01*
X145091024Y-118569721D01*
X145093491Y-118578352D01*
X145099150Y-118598153D01*
X145102728Y-118614915D01*
X145106920Y-118644187D01*
X145110634Y-118652355D01*
X145110634Y-118652356D01*
X145117548Y-118667562D01*
X145123996Y-118685086D01*
X145131051Y-118709771D01*
X145135843Y-118717365D01*
X145135844Y-118717368D01*
X145146830Y-118734780D01*
X145154969Y-118749863D01*
X145167208Y-118776782D01*
X145173069Y-118783584D01*
X145183970Y-118796235D01*
X145195073Y-118811239D01*
X145208776Y-118832958D01*
X145215501Y-118838897D01*
X145215504Y-118838901D01*
X145230938Y-118852532D01*
X145242982Y-118864724D01*
X145256427Y-118880327D01*
X145256430Y-118880329D01*
X145262287Y-118887127D01*
X145269816Y-118892007D01*
X145269817Y-118892008D01*
X145283835Y-118901094D01*
X145298709Y-118912385D01*
X145311217Y-118923431D01*
X145317951Y-118929378D01*
X145344711Y-118941942D01*
X145359691Y-118950263D01*
X145376983Y-118961471D01*
X145376988Y-118961473D01*
X145384515Y-118966352D01*
X145393108Y-118968922D01*
X145393113Y-118968924D01*
X145409120Y-118973711D01*
X145426564Y-118980372D01*
X145441676Y-118987467D01*
X145441678Y-118987468D01*
X145449800Y-118991281D01*
X145458667Y-118992662D01*
X145458668Y-118992662D01*
X145461353Y-118993080D01*
X145479017Y-118995830D01*
X145495732Y-118999613D01*
X145515466Y-119005515D01*
X145515472Y-119005516D01*
X145524066Y-119008086D01*
X145533037Y-119008141D01*
X145533038Y-119008141D01*
X145543097Y-119008202D01*
X145558506Y-119008296D01*
X145559289Y-119008329D01*
X145560386Y-119008500D01*
X145591377Y-119008500D01*
X145592147Y-119008502D01*
X145665785Y-119008952D01*
X145665786Y-119008952D01*
X145669721Y-119008976D01*
X145671065Y-119008592D01*
X145672410Y-119008500D01*
X159591377Y-119008500D01*
X159592148Y-119008502D01*
X159669721Y-119008976D01*
X159698152Y-119000850D01*
X159714915Y-118997272D01*
X159715753Y-118997152D01*
X159744187Y-118993080D01*
X159767564Y-118982451D01*
X159785087Y-118976004D01*
X159809771Y-118968949D01*
X159817365Y-118964157D01*
X159817368Y-118964156D01*
X159834780Y-118953170D01*
X159849865Y-118945030D01*
X159876782Y-118932792D01*
X159896235Y-118916030D01*
X159911239Y-118904927D01*
X159932958Y-118891224D01*
X159938897Y-118884499D01*
X159938901Y-118884496D01*
X159952532Y-118869062D01*
X159964724Y-118857018D01*
X159980327Y-118843573D01*
X159980329Y-118843570D01*
X159987127Y-118837713D01*
X160001094Y-118816165D01*
X160012385Y-118801291D01*
X160023431Y-118788783D01*
X160023432Y-118788782D01*
X160029378Y-118782049D01*
X160041943Y-118755287D01*
X160050263Y-118740309D01*
X160061471Y-118723017D01*
X160061473Y-118723012D01*
X160066352Y-118715485D01*
X160068922Y-118706892D01*
X160068924Y-118706887D01*
X160073711Y-118690880D01*
X160080372Y-118673436D01*
X160087467Y-118658324D01*
X160087468Y-118658322D01*
X160091281Y-118650200D01*
X160095830Y-118620983D01*
X160099613Y-118604268D01*
X160105515Y-118584534D01*
X160105516Y-118584528D01*
X160108086Y-118575934D01*
X160108124Y-118569721D01*
X173591024Y-118569721D01*
X173593491Y-118578352D01*
X173599150Y-118598153D01*
X173602728Y-118614915D01*
X173606920Y-118644187D01*
X173610634Y-118652355D01*
X173610634Y-118652356D01*
X173617548Y-118667562D01*
X173623996Y-118685086D01*
X173631051Y-118709771D01*
X173635843Y-118717365D01*
X173635844Y-118717368D01*
X173646830Y-118734780D01*
X173654969Y-118749863D01*
X173667208Y-118776782D01*
X173673069Y-118783584D01*
X173683970Y-118796235D01*
X173695073Y-118811239D01*
X173708776Y-118832958D01*
X173715501Y-118838897D01*
X173715504Y-118838901D01*
X173730938Y-118852532D01*
X173742982Y-118864724D01*
X173756427Y-118880327D01*
X173756430Y-118880329D01*
X173762287Y-118887127D01*
X173769816Y-118892007D01*
X173769817Y-118892008D01*
X173783835Y-118901094D01*
X173798709Y-118912385D01*
X173811217Y-118923431D01*
X173817951Y-118929378D01*
X173844711Y-118941942D01*
X173859691Y-118950263D01*
X173876983Y-118961471D01*
X173876988Y-118961473D01*
X173884515Y-118966352D01*
X173893108Y-118968922D01*
X173893113Y-118968924D01*
X173909120Y-118973711D01*
X173926564Y-118980372D01*
X173941676Y-118987467D01*
X173941678Y-118987468D01*
X173949800Y-118991281D01*
X173958667Y-118992662D01*
X173958668Y-118992662D01*
X173961353Y-118993080D01*
X173979017Y-118995830D01*
X173995732Y-118999613D01*
X174015466Y-119005515D01*
X174015472Y-119005516D01*
X174024066Y-119008086D01*
X174033037Y-119008141D01*
X174033038Y-119008141D01*
X174043097Y-119008202D01*
X174058506Y-119008296D01*
X174059289Y-119008329D01*
X174060386Y-119008500D01*
X174091377Y-119008500D01*
X174092147Y-119008502D01*
X174165785Y-119008952D01*
X174165786Y-119008952D01*
X174169721Y-119008976D01*
X174171065Y-119008592D01*
X174172410Y-119008500D01*
X188091377Y-119008500D01*
X188092148Y-119008502D01*
X188169721Y-119008976D01*
X188198152Y-119000850D01*
X188214915Y-118997272D01*
X188215753Y-118997152D01*
X188244187Y-118993080D01*
X188267564Y-118982451D01*
X188285087Y-118976004D01*
X188309771Y-118968949D01*
X188317365Y-118964157D01*
X188317368Y-118964156D01*
X188334780Y-118953170D01*
X188349865Y-118945030D01*
X188376782Y-118932792D01*
X188396235Y-118916030D01*
X188411239Y-118904927D01*
X188432958Y-118891224D01*
X188438897Y-118884499D01*
X188438901Y-118884496D01*
X188452532Y-118869062D01*
X188464724Y-118857018D01*
X188480327Y-118843573D01*
X188480329Y-118843570D01*
X188487127Y-118837713D01*
X188501094Y-118816165D01*
X188512385Y-118801291D01*
X188523431Y-118788783D01*
X188523432Y-118788782D01*
X188529378Y-118782049D01*
X188541943Y-118755287D01*
X188550263Y-118740309D01*
X188561471Y-118723017D01*
X188561473Y-118723012D01*
X188566352Y-118715485D01*
X188568922Y-118706892D01*
X188568924Y-118706887D01*
X188573711Y-118690880D01*
X188580372Y-118673436D01*
X188587467Y-118658324D01*
X188587468Y-118658322D01*
X188591281Y-118650200D01*
X188595830Y-118620983D01*
X188599613Y-118604268D01*
X188605515Y-118584534D01*
X188605516Y-118584528D01*
X188608086Y-118575934D01*
X188608124Y-118569721D01*
X202091024Y-118569721D01*
X202093491Y-118578352D01*
X202099150Y-118598153D01*
X202102728Y-118614915D01*
X202106920Y-118644187D01*
X202110634Y-118652355D01*
X202110634Y-118652356D01*
X202117548Y-118667562D01*
X202123996Y-118685086D01*
X202131051Y-118709771D01*
X202135843Y-118717365D01*
X202135844Y-118717368D01*
X202146830Y-118734780D01*
X202154969Y-118749863D01*
X202167208Y-118776782D01*
X202173069Y-118783584D01*
X202183970Y-118796235D01*
X202195073Y-118811239D01*
X202208776Y-118832958D01*
X202215501Y-118838897D01*
X202215504Y-118838901D01*
X202230938Y-118852532D01*
X202242982Y-118864724D01*
X202256427Y-118880327D01*
X202256430Y-118880329D01*
X202262287Y-118887127D01*
X202269816Y-118892007D01*
X202269817Y-118892008D01*
X202283835Y-118901094D01*
X202298709Y-118912385D01*
X202311217Y-118923431D01*
X202317951Y-118929378D01*
X202344711Y-118941942D01*
X202359691Y-118950263D01*
X202376983Y-118961471D01*
X202376988Y-118961473D01*
X202384515Y-118966352D01*
X202393108Y-118968922D01*
X202393113Y-118968924D01*
X202409120Y-118973711D01*
X202426564Y-118980372D01*
X202441676Y-118987467D01*
X202441678Y-118987468D01*
X202449800Y-118991281D01*
X202458667Y-118992662D01*
X202458668Y-118992662D01*
X202461353Y-118993080D01*
X202479017Y-118995830D01*
X202495732Y-118999613D01*
X202515466Y-119005515D01*
X202515472Y-119005516D01*
X202524066Y-119008086D01*
X202533037Y-119008141D01*
X202533038Y-119008141D01*
X202543097Y-119008202D01*
X202558506Y-119008296D01*
X202559289Y-119008329D01*
X202560386Y-119008500D01*
X202591377Y-119008500D01*
X202592147Y-119008502D01*
X202665785Y-119008952D01*
X202665786Y-119008952D01*
X202669721Y-119008976D01*
X202671065Y-119008592D01*
X202672410Y-119008500D01*
X216591377Y-119008500D01*
X216592148Y-119008502D01*
X216669721Y-119008976D01*
X216698152Y-119000850D01*
X216714915Y-118997272D01*
X216715753Y-118997152D01*
X216744187Y-118993080D01*
X216767564Y-118982451D01*
X216785087Y-118976004D01*
X216809771Y-118968949D01*
X216817365Y-118964157D01*
X216817368Y-118964156D01*
X216834780Y-118953170D01*
X216849865Y-118945030D01*
X216876782Y-118932792D01*
X216896235Y-118916030D01*
X216911239Y-118904927D01*
X216932958Y-118891224D01*
X216938897Y-118884499D01*
X216938901Y-118884496D01*
X216952532Y-118869062D01*
X216964724Y-118857018D01*
X216980327Y-118843573D01*
X216980329Y-118843570D01*
X216987127Y-118837713D01*
X217001094Y-118816165D01*
X217012385Y-118801291D01*
X217023431Y-118788783D01*
X217023432Y-118788782D01*
X217029378Y-118782049D01*
X217041943Y-118755287D01*
X217050263Y-118740309D01*
X217061471Y-118723017D01*
X217061473Y-118723012D01*
X217066352Y-118715485D01*
X217068922Y-118706892D01*
X217068924Y-118706887D01*
X217073711Y-118690880D01*
X217080372Y-118673436D01*
X217087467Y-118658324D01*
X217087468Y-118658322D01*
X217091281Y-118650200D01*
X217095830Y-118620983D01*
X217099613Y-118604268D01*
X217105515Y-118584534D01*
X217105516Y-118584528D01*
X217108086Y-118575934D01*
X217108124Y-118569721D01*
X221091024Y-118569721D01*
X221093491Y-118578352D01*
X221099150Y-118598153D01*
X221102728Y-118614915D01*
X221106920Y-118644187D01*
X221110634Y-118652355D01*
X221110634Y-118652356D01*
X221117548Y-118667562D01*
X221123996Y-118685086D01*
X221131051Y-118709771D01*
X221135843Y-118717365D01*
X221135844Y-118717368D01*
X221146830Y-118734780D01*
X221154969Y-118749863D01*
X221167208Y-118776782D01*
X221173069Y-118783584D01*
X221183970Y-118796235D01*
X221195073Y-118811239D01*
X221208776Y-118832958D01*
X221215501Y-118838897D01*
X221215504Y-118838901D01*
X221230938Y-118852532D01*
X221242982Y-118864724D01*
X221256427Y-118880327D01*
X221256430Y-118880329D01*
X221262287Y-118887127D01*
X221269816Y-118892007D01*
X221269817Y-118892008D01*
X221283835Y-118901094D01*
X221298709Y-118912385D01*
X221311217Y-118923431D01*
X221317951Y-118929378D01*
X221344711Y-118941942D01*
X221359691Y-118950263D01*
X221376983Y-118961471D01*
X221376988Y-118961473D01*
X221384515Y-118966352D01*
X221393108Y-118968922D01*
X221393113Y-118968924D01*
X221409120Y-118973711D01*
X221426564Y-118980372D01*
X221441676Y-118987467D01*
X221441678Y-118987468D01*
X221449800Y-118991281D01*
X221458667Y-118992662D01*
X221458668Y-118992662D01*
X221461353Y-118993080D01*
X221479017Y-118995830D01*
X221495732Y-118999613D01*
X221515466Y-119005515D01*
X221515472Y-119005516D01*
X221524066Y-119008086D01*
X221533037Y-119008141D01*
X221533038Y-119008141D01*
X221543097Y-119008202D01*
X221558506Y-119008296D01*
X221559289Y-119008329D01*
X221560386Y-119008500D01*
X221591377Y-119008500D01*
X221592147Y-119008502D01*
X221665785Y-119008952D01*
X221665786Y-119008952D01*
X221669721Y-119008976D01*
X221671065Y-119008592D01*
X221672410Y-119008500D01*
X235591377Y-119008500D01*
X235592148Y-119008502D01*
X235669721Y-119008976D01*
X235698152Y-119000850D01*
X235714915Y-118997272D01*
X235715753Y-118997152D01*
X235744187Y-118993080D01*
X235767564Y-118982451D01*
X235785087Y-118976004D01*
X235809771Y-118968949D01*
X235817365Y-118964157D01*
X235817368Y-118964156D01*
X235834780Y-118953170D01*
X235849865Y-118945030D01*
X235876782Y-118932792D01*
X235896235Y-118916030D01*
X235911239Y-118904927D01*
X235932958Y-118891224D01*
X235938897Y-118884499D01*
X235938901Y-118884496D01*
X235952532Y-118869062D01*
X235964724Y-118857018D01*
X235980327Y-118843573D01*
X235980329Y-118843570D01*
X235987127Y-118837713D01*
X236001094Y-118816165D01*
X236012385Y-118801291D01*
X236023431Y-118788783D01*
X236023432Y-118788782D01*
X236029378Y-118782049D01*
X236041943Y-118755287D01*
X236050263Y-118740309D01*
X236061471Y-118723017D01*
X236061473Y-118723012D01*
X236066352Y-118715485D01*
X236068922Y-118706892D01*
X236068924Y-118706887D01*
X236073711Y-118690880D01*
X236080372Y-118673436D01*
X236087467Y-118658324D01*
X236087468Y-118658322D01*
X236091281Y-118650200D01*
X236095830Y-118620983D01*
X236099613Y-118604268D01*
X236105515Y-118584534D01*
X236105516Y-118584528D01*
X236108086Y-118575934D01*
X236108124Y-118569721D01*
X240091024Y-118569721D01*
X240093491Y-118578352D01*
X240099150Y-118598153D01*
X240102728Y-118614915D01*
X240106920Y-118644187D01*
X240110634Y-118652355D01*
X240110634Y-118652356D01*
X240117548Y-118667562D01*
X240123996Y-118685086D01*
X240131051Y-118709771D01*
X240135843Y-118717365D01*
X240135844Y-118717368D01*
X240146830Y-118734780D01*
X240154969Y-118749863D01*
X240167208Y-118776782D01*
X240173069Y-118783584D01*
X240183970Y-118796235D01*
X240195073Y-118811239D01*
X240208776Y-118832958D01*
X240215501Y-118838897D01*
X240215504Y-118838901D01*
X240230938Y-118852532D01*
X240242982Y-118864724D01*
X240256427Y-118880327D01*
X240256430Y-118880329D01*
X240262287Y-118887127D01*
X240269816Y-118892007D01*
X240269817Y-118892008D01*
X240283835Y-118901094D01*
X240298709Y-118912385D01*
X240311217Y-118923431D01*
X240317951Y-118929378D01*
X240344711Y-118941942D01*
X240359691Y-118950263D01*
X240376983Y-118961471D01*
X240376988Y-118961473D01*
X240384515Y-118966352D01*
X240393108Y-118968922D01*
X240393113Y-118968924D01*
X240409120Y-118973711D01*
X240426564Y-118980372D01*
X240441676Y-118987467D01*
X240441678Y-118987468D01*
X240449800Y-118991281D01*
X240458667Y-118992662D01*
X240458668Y-118992662D01*
X240461353Y-118993080D01*
X240479017Y-118995830D01*
X240495732Y-118999613D01*
X240515466Y-119005515D01*
X240515472Y-119005516D01*
X240524066Y-119008086D01*
X240533037Y-119008141D01*
X240533038Y-119008141D01*
X240543097Y-119008202D01*
X240558506Y-119008296D01*
X240559289Y-119008329D01*
X240560386Y-119008500D01*
X240591377Y-119008500D01*
X240592147Y-119008502D01*
X240665785Y-119008952D01*
X240665786Y-119008952D01*
X240669721Y-119008976D01*
X240671065Y-119008592D01*
X240672410Y-119008500D01*
X254591377Y-119008500D01*
X254592148Y-119008502D01*
X254669721Y-119008976D01*
X254698152Y-119000850D01*
X254714915Y-118997272D01*
X254715753Y-118997152D01*
X254744187Y-118993080D01*
X254767564Y-118982451D01*
X254785087Y-118976004D01*
X254809771Y-118968949D01*
X254817365Y-118964157D01*
X254817368Y-118964156D01*
X254834780Y-118953170D01*
X254849865Y-118945030D01*
X254876782Y-118932792D01*
X254896235Y-118916030D01*
X254911239Y-118904927D01*
X254932958Y-118891224D01*
X254938897Y-118884499D01*
X254938901Y-118884496D01*
X254952532Y-118869062D01*
X254964724Y-118857018D01*
X254980327Y-118843573D01*
X254980329Y-118843570D01*
X254987127Y-118837713D01*
X255001094Y-118816165D01*
X255012385Y-118801291D01*
X255023431Y-118788783D01*
X255023432Y-118788782D01*
X255029378Y-118782049D01*
X255041943Y-118755287D01*
X255050263Y-118740309D01*
X255061471Y-118723017D01*
X255061473Y-118723012D01*
X255066352Y-118715485D01*
X255068922Y-118706892D01*
X255068924Y-118706887D01*
X255073711Y-118690880D01*
X255080372Y-118673436D01*
X255087467Y-118658324D01*
X255087468Y-118658322D01*
X255091281Y-118650200D01*
X255095830Y-118620983D01*
X255099613Y-118604268D01*
X255105515Y-118584534D01*
X255105516Y-118584528D01*
X255108086Y-118575934D01*
X255108296Y-118541494D01*
X255108329Y-118540711D01*
X255108500Y-118539614D01*
X255108500Y-118508623D01*
X255108502Y-118507853D01*
X255108952Y-118434215D01*
X255108952Y-118434214D01*
X255108976Y-118430279D01*
X255108592Y-118428935D01*
X255108500Y-118427590D01*
X255108500Y-112569721D01*
X287991024Y-112569721D01*
X287993491Y-112578352D01*
X287999150Y-112598153D01*
X288002728Y-112614915D01*
X288006920Y-112644187D01*
X288010634Y-112652355D01*
X288010634Y-112652356D01*
X288017548Y-112667562D01*
X288023996Y-112685086D01*
X288031051Y-112709771D01*
X288035843Y-112717365D01*
X288035844Y-112717368D01*
X288046830Y-112734780D01*
X288054969Y-112749863D01*
X288067208Y-112776782D01*
X288073069Y-112783584D01*
X288083970Y-112796235D01*
X288095073Y-112811239D01*
X288108776Y-112832958D01*
X288115501Y-112838897D01*
X288115504Y-112838901D01*
X288130938Y-112852532D01*
X288142982Y-112864724D01*
X288156427Y-112880327D01*
X288156430Y-112880329D01*
X288162287Y-112887127D01*
X288169816Y-112892007D01*
X288169817Y-112892008D01*
X288183835Y-112901094D01*
X288198709Y-112912385D01*
X288211217Y-112923431D01*
X288217951Y-112929378D01*
X288244711Y-112941942D01*
X288259691Y-112950263D01*
X288276983Y-112961471D01*
X288276988Y-112961473D01*
X288284515Y-112966352D01*
X288293108Y-112968922D01*
X288293113Y-112968924D01*
X288309120Y-112973711D01*
X288326564Y-112980372D01*
X288341676Y-112987467D01*
X288341678Y-112987468D01*
X288349800Y-112991281D01*
X288358667Y-112992662D01*
X288358668Y-112992662D01*
X288361353Y-112993080D01*
X288379017Y-112995830D01*
X288395732Y-112999613D01*
X288415466Y-113005515D01*
X288415472Y-113005516D01*
X288424066Y-113008086D01*
X288433037Y-113008141D01*
X288433038Y-113008141D01*
X288443097Y-113008202D01*
X288458506Y-113008296D01*
X288459289Y-113008329D01*
X288460386Y-113008500D01*
X288491377Y-113008500D01*
X288492147Y-113008502D01*
X288565785Y-113008952D01*
X288565786Y-113008952D01*
X288569721Y-113008976D01*
X288571065Y-113008592D01*
X288572410Y-113008500D01*
X301491377Y-113008500D01*
X301492148Y-113008502D01*
X301569721Y-113008976D01*
X301598152Y-113000850D01*
X301614915Y-112997272D01*
X301615753Y-112997152D01*
X301644187Y-112993080D01*
X301667564Y-112982451D01*
X301685087Y-112976004D01*
X301709771Y-112968949D01*
X301717365Y-112964157D01*
X301717368Y-112964156D01*
X301734780Y-112953170D01*
X301749865Y-112945030D01*
X301776782Y-112932792D01*
X301796235Y-112916030D01*
X301811239Y-112904927D01*
X301832958Y-112891224D01*
X301838897Y-112884499D01*
X301838901Y-112884496D01*
X301852532Y-112869062D01*
X301864724Y-112857018D01*
X301880327Y-112843573D01*
X301880329Y-112843570D01*
X301887127Y-112837713D01*
X301901094Y-112816165D01*
X301912385Y-112801291D01*
X301923431Y-112788783D01*
X301923432Y-112788782D01*
X301929378Y-112782049D01*
X301941943Y-112755287D01*
X301950263Y-112740309D01*
X301961471Y-112723017D01*
X301961473Y-112723012D01*
X301966352Y-112715485D01*
X301968922Y-112706892D01*
X301968924Y-112706887D01*
X301973711Y-112690880D01*
X301980372Y-112673436D01*
X301987467Y-112658324D01*
X301987468Y-112658322D01*
X301991281Y-112650200D01*
X301995830Y-112620983D01*
X301999613Y-112604268D01*
X302005515Y-112584534D01*
X302005516Y-112584528D01*
X302008086Y-112575934D01*
X302008296Y-112541494D01*
X302008329Y-112540711D01*
X302008500Y-112539614D01*
X302008500Y-112508623D01*
X302008502Y-112507853D01*
X302008952Y-112434215D01*
X302008952Y-112434214D01*
X302008976Y-112430279D01*
X302008592Y-112428935D01*
X302008500Y-112427590D01*
X302008500Y-99508623D01*
X302008502Y-99507853D01*
X302008800Y-99459102D01*
X302008976Y-99430279D01*
X302000850Y-99401847D01*
X301997272Y-99385085D01*
X301994352Y-99364698D01*
X301993080Y-99355813D01*
X301982451Y-99332436D01*
X301976004Y-99314913D01*
X301971416Y-99298862D01*
X301968949Y-99290229D01*
X301964156Y-99282632D01*
X301953170Y-99265220D01*
X301945030Y-99250135D01*
X301942564Y-99244711D01*
X301932792Y-99223218D01*
X301916030Y-99203765D01*
X301904927Y-99188761D01*
X301891224Y-99167042D01*
X301884499Y-99161103D01*
X301884496Y-99161099D01*
X301869062Y-99147468D01*
X301857018Y-99135276D01*
X301843573Y-99119673D01*
X301843570Y-99119671D01*
X301837713Y-99112873D01*
X301824009Y-99103990D01*
X301816165Y-99098906D01*
X301801291Y-99087615D01*
X301788783Y-99076569D01*
X301788782Y-99076568D01*
X301782049Y-99070622D01*
X301755287Y-99058057D01*
X301740309Y-99049737D01*
X301723017Y-99038529D01*
X301723012Y-99038527D01*
X301715485Y-99033648D01*
X301706892Y-99031078D01*
X301706887Y-99031076D01*
X301690880Y-99026289D01*
X301673436Y-99019628D01*
X301658324Y-99012533D01*
X301658322Y-99012532D01*
X301650200Y-99008719D01*
X301641333Y-99007338D01*
X301641332Y-99007338D01*
X301630478Y-99005648D01*
X301620983Y-99004170D01*
X301604268Y-99000387D01*
X301584534Y-98994485D01*
X301584528Y-98994484D01*
X301575934Y-98991914D01*
X301566963Y-98991859D01*
X301566962Y-98991859D01*
X301556903Y-98991798D01*
X301541494Y-98991704D01*
X301540711Y-98991671D01*
X301539614Y-98991500D01*
X301508623Y-98991500D01*
X301507853Y-98991498D01*
X301434215Y-98991048D01*
X301434214Y-98991048D01*
X301430279Y-98991024D01*
X301428935Y-98991408D01*
X301427590Y-98991500D01*
X288508623Y-98991500D01*
X288507853Y-98991498D01*
X288507037Y-98991493D01*
X288430279Y-98991024D01*
X288407918Y-98997415D01*
X288401847Y-98999150D01*
X288385085Y-99002728D01*
X288355813Y-99006920D01*
X288347645Y-99010634D01*
X288347644Y-99010634D01*
X288332438Y-99017548D01*
X288314914Y-99023996D01*
X288290229Y-99031051D01*
X288282635Y-99035843D01*
X288282632Y-99035844D01*
X288265220Y-99046830D01*
X288250137Y-99054969D01*
X288223218Y-99067208D01*
X288216416Y-99073069D01*
X288203765Y-99083970D01*
X288188761Y-99095073D01*
X288167042Y-99108776D01*
X288161103Y-99115501D01*
X288161099Y-99115504D01*
X288147468Y-99130938D01*
X288135276Y-99142982D01*
X288119673Y-99156427D01*
X288119671Y-99156430D01*
X288112873Y-99162287D01*
X288107993Y-99169816D01*
X288107992Y-99169817D01*
X288098906Y-99183835D01*
X288087615Y-99198709D01*
X288076569Y-99211217D01*
X288070622Y-99217951D01*
X288064312Y-99231391D01*
X288058058Y-99244711D01*
X288049737Y-99259691D01*
X288038529Y-99276983D01*
X288038527Y-99276988D01*
X288033648Y-99284515D01*
X288031078Y-99293108D01*
X288031076Y-99293113D01*
X288026289Y-99309120D01*
X288019628Y-99326564D01*
X288012533Y-99341676D01*
X288008719Y-99349800D01*
X288007338Y-99358667D01*
X288007338Y-99358668D01*
X288004170Y-99379015D01*
X288000387Y-99395732D01*
X287994485Y-99415466D01*
X287994484Y-99415472D01*
X287991914Y-99424066D01*
X287991859Y-99433037D01*
X287991859Y-99433038D01*
X287991704Y-99458497D01*
X287991671Y-99459289D01*
X287991500Y-99460386D01*
X287991500Y-99491377D01*
X287991498Y-99492147D01*
X287991024Y-99569721D01*
X287991408Y-99571065D01*
X287991500Y-99572410D01*
X287991500Y-112491377D01*
X287991498Y-112492147D01*
X287991024Y-112569721D01*
X255108500Y-112569721D01*
X255108500Y-104508623D01*
X255108502Y-104507853D01*
X255108800Y-104459102D01*
X255108976Y-104430279D01*
X255100850Y-104401847D01*
X255097272Y-104385085D01*
X255094352Y-104364698D01*
X255093080Y-104355813D01*
X255082451Y-104332436D01*
X255076004Y-104314913D01*
X255071416Y-104298862D01*
X255068949Y-104290229D01*
X255064156Y-104282632D01*
X255053170Y-104265220D01*
X255045030Y-104250135D01*
X255042564Y-104244711D01*
X255032792Y-104223218D01*
X255016030Y-104203765D01*
X255004927Y-104188761D01*
X254991224Y-104167042D01*
X254984499Y-104161103D01*
X254984496Y-104161099D01*
X254969062Y-104147468D01*
X254957018Y-104135276D01*
X254943573Y-104119673D01*
X254943570Y-104119671D01*
X254937713Y-104112873D01*
X254924009Y-104103990D01*
X254916165Y-104098906D01*
X254901291Y-104087615D01*
X254888783Y-104076569D01*
X254888782Y-104076568D01*
X254882049Y-104070622D01*
X254855287Y-104058057D01*
X254840309Y-104049737D01*
X254823017Y-104038529D01*
X254823012Y-104038527D01*
X254815485Y-104033648D01*
X254806892Y-104031078D01*
X254806887Y-104031076D01*
X254790880Y-104026289D01*
X254773436Y-104019628D01*
X254758324Y-104012533D01*
X254758322Y-104012532D01*
X254750200Y-104008719D01*
X254741333Y-104007338D01*
X254741332Y-104007338D01*
X254730478Y-104005648D01*
X254720983Y-104004170D01*
X254704268Y-104000387D01*
X254684534Y-103994485D01*
X254684528Y-103994484D01*
X254675934Y-103991914D01*
X254666963Y-103991859D01*
X254666962Y-103991859D01*
X254656903Y-103991798D01*
X254641494Y-103991704D01*
X254640711Y-103991671D01*
X254639614Y-103991500D01*
X254608623Y-103991500D01*
X254607853Y-103991498D01*
X254534215Y-103991048D01*
X254534214Y-103991048D01*
X254530279Y-103991024D01*
X254528935Y-103991408D01*
X254527590Y-103991500D01*
X240608623Y-103991500D01*
X240607853Y-103991498D01*
X240607037Y-103991493D01*
X240530279Y-103991024D01*
X240507918Y-103997415D01*
X240501847Y-103999150D01*
X240485085Y-104002728D01*
X240455813Y-104006920D01*
X240447645Y-104010634D01*
X240447644Y-104010634D01*
X240432438Y-104017548D01*
X240414914Y-104023996D01*
X240390229Y-104031051D01*
X240382635Y-104035843D01*
X240382632Y-104035844D01*
X240365220Y-104046830D01*
X240350137Y-104054969D01*
X240323218Y-104067208D01*
X240316416Y-104073069D01*
X240303765Y-104083970D01*
X240288761Y-104095073D01*
X240267042Y-104108776D01*
X240261103Y-104115501D01*
X240261099Y-104115504D01*
X240247468Y-104130938D01*
X240235276Y-104142982D01*
X240219673Y-104156427D01*
X240219671Y-104156430D01*
X240212873Y-104162287D01*
X240207993Y-104169816D01*
X240207992Y-104169817D01*
X240198906Y-104183835D01*
X240187615Y-104198709D01*
X240176569Y-104211217D01*
X240170622Y-104217951D01*
X240164312Y-104231391D01*
X240158058Y-104244711D01*
X240149737Y-104259691D01*
X240138529Y-104276983D01*
X240138527Y-104276988D01*
X240133648Y-104284515D01*
X240131078Y-104293108D01*
X240131076Y-104293113D01*
X240126289Y-104309120D01*
X240119628Y-104326564D01*
X240112533Y-104341676D01*
X240108719Y-104349800D01*
X240107338Y-104358667D01*
X240107338Y-104358668D01*
X240104170Y-104379015D01*
X240100387Y-104395732D01*
X240094485Y-104415466D01*
X240094484Y-104415472D01*
X240091914Y-104424066D01*
X240091859Y-104433037D01*
X240091859Y-104433038D01*
X240091704Y-104458497D01*
X240091671Y-104459289D01*
X240091500Y-104460386D01*
X240091500Y-104491377D01*
X240091498Y-104492147D01*
X240091024Y-104569721D01*
X240091408Y-104571065D01*
X240091500Y-104572410D01*
X240091500Y-118491377D01*
X240091498Y-118492147D01*
X240091024Y-118569721D01*
X236108124Y-118569721D01*
X236108296Y-118541494D01*
X236108329Y-118540711D01*
X236108500Y-118539614D01*
X236108500Y-118508623D01*
X236108502Y-118507853D01*
X236108952Y-118434215D01*
X236108952Y-118434214D01*
X236108976Y-118430279D01*
X236108592Y-118428935D01*
X236108500Y-118427590D01*
X236108500Y-104508623D01*
X236108502Y-104507853D01*
X236108800Y-104459102D01*
X236108976Y-104430279D01*
X236100850Y-104401847D01*
X236097272Y-104385085D01*
X236094352Y-104364698D01*
X236093080Y-104355813D01*
X236082451Y-104332436D01*
X236076004Y-104314913D01*
X236071416Y-104298862D01*
X236068949Y-104290229D01*
X236064156Y-104282632D01*
X236053170Y-104265220D01*
X236045030Y-104250135D01*
X236042564Y-104244711D01*
X236032792Y-104223218D01*
X236016030Y-104203765D01*
X236004927Y-104188761D01*
X235991224Y-104167042D01*
X235984499Y-104161103D01*
X235984496Y-104161099D01*
X235969062Y-104147468D01*
X235957018Y-104135276D01*
X235943573Y-104119673D01*
X235943570Y-104119671D01*
X235937713Y-104112873D01*
X235924009Y-104103990D01*
X235916165Y-104098906D01*
X235901291Y-104087615D01*
X235888783Y-104076569D01*
X235888782Y-104076568D01*
X235882049Y-104070622D01*
X235855287Y-104058057D01*
X235840309Y-104049737D01*
X235823017Y-104038529D01*
X235823012Y-104038527D01*
X235815485Y-104033648D01*
X235806892Y-104031078D01*
X235806887Y-104031076D01*
X235790880Y-104026289D01*
X235773436Y-104019628D01*
X235758324Y-104012533D01*
X235758322Y-104012532D01*
X235750200Y-104008719D01*
X235741333Y-104007338D01*
X235741332Y-104007338D01*
X235730478Y-104005648D01*
X235720983Y-104004170D01*
X235704268Y-104000387D01*
X235684534Y-103994485D01*
X235684528Y-103994484D01*
X235675934Y-103991914D01*
X235666963Y-103991859D01*
X235666962Y-103991859D01*
X235656903Y-103991798D01*
X235641494Y-103991704D01*
X235640711Y-103991671D01*
X235639614Y-103991500D01*
X235608623Y-103991500D01*
X235607853Y-103991498D01*
X235534215Y-103991048D01*
X235534214Y-103991048D01*
X235530279Y-103991024D01*
X235528935Y-103991408D01*
X235527590Y-103991500D01*
X221608623Y-103991500D01*
X221607853Y-103991498D01*
X221607037Y-103991493D01*
X221530279Y-103991024D01*
X221507918Y-103997415D01*
X221501847Y-103999150D01*
X221485085Y-104002728D01*
X221455813Y-104006920D01*
X221447645Y-104010634D01*
X221447644Y-104010634D01*
X221432438Y-104017548D01*
X221414914Y-104023996D01*
X221390229Y-104031051D01*
X221382635Y-104035843D01*
X221382632Y-104035844D01*
X221365220Y-104046830D01*
X221350137Y-104054969D01*
X221323218Y-104067208D01*
X221316416Y-104073069D01*
X221303765Y-104083970D01*
X221288761Y-104095073D01*
X221267042Y-104108776D01*
X221261103Y-104115501D01*
X221261099Y-104115504D01*
X221247468Y-104130938D01*
X221235276Y-104142982D01*
X221219673Y-104156427D01*
X221219671Y-104156430D01*
X221212873Y-104162287D01*
X221207993Y-104169816D01*
X221207992Y-104169817D01*
X221198906Y-104183835D01*
X221187615Y-104198709D01*
X221176569Y-104211217D01*
X221170622Y-104217951D01*
X221164312Y-104231391D01*
X221158058Y-104244711D01*
X221149737Y-104259691D01*
X221138529Y-104276983D01*
X221138527Y-104276988D01*
X221133648Y-104284515D01*
X221131078Y-104293108D01*
X221131076Y-104293113D01*
X221126289Y-104309120D01*
X221119628Y-104326564D01*
X221112533Y-104341676D01*
X221108719Y-104349800D01*
X221107338Y-104358667D01*
X221107338Y-104358668D01*
X221104170Y-104379015D01*
X221100387Y-104395732D01*
X221094485Y-104415466D01*
X221094484Y-104415472D01*
X221091914Y-104424066D01*
X221091859Y-104433037D01*
X221091859Y-104433038D01*
X221091704Y-104458497D01*
X221091671Y-104459289D01*
X221091500Y-104460386D01*
X221091500Y-104491377D01*
X221091498Y-104492147D01*
X221091024Y-104569721D01*
X221091408Y-104571065D01*
X221091500Y-104572410D01*
X221091500Y-118491377D01*
X221091498Y-118492147D01*
X221091024Y-118569721D01*
X217108124Y-118569721D01*
X217108296Y-118541494D01*
X217108329Y-118540711D01*
X217108500Y-118539614D01*
X217108500Y-118508623D01*
X217108502Y-118507853D01*
X217108952Y-118434215D01*
X217108952Y-118434214D01*
X217108976Y-118430279D01*
X217108592Y-118428935D01*
X217108500Y-118427590D01*
X217108500Y-104508623D01*
X217108502Y-104507853D01*
X217108800Y-104459102D01*
X217108976Y-104430279D01*
X217100850Y-104401847D01*
X217097272Y-104385085D01*
X217094352Y-104364698D01*
X217093080Y-104355813D01*
X217082451Y-104332436D01*
X217076004Y-104314913D01*
X217071416Y-104298862D01*
X217068949Y-104290229D01*
X217064156Y-104282632D01*
X217053170Y-104265220D01*
X217045030Y-104250135D01*
X217042564Y-104244711D01*
X217032792Y-104223218D01*
X217016030Y-104203765D01*
X217004927Y-104188761D01*
X216991224Y-104167042D01*
X216984499Y-104161103D01*
X216984496Y-104161099D01*
X216969062Y-104147468D01*
X216957018Y-104135276D01*
X216943573Y-104119673D01*
X216943570Y-104119671D01*
X216937713Y-104112873D01*
X216924009Y-104103990D01*
X216916165Y-104098906D01*
X216901291Y-104087615D01*
X216888783Y-104076569D01*
X216888782Y-104076568D01*
X216882049Y-104070622D01*
X216855287Y-104058057D01*
X216840309Y-104049737D01*
X216823017Y-104038529D01*
X216823012Y-104038527D01*
X216815485Y-104033648D01*
X216806892Y-104031078D01*
X216806887Y-104031076D01*
X216790880Y-104026289D01*
X216773436Y-104019628D01*
X216758324Y-104012533D01*
X216758322Y-104012532D01*
X216750200Y-104008719D01*
X216741333Y-104007338D01*
X216741332Y-104007338D01*
X216730478Y-104005648D01*
X216720983Y-104004170D01*
X216704268Y-104000387D01*
X216684534Y-103994485D01*
X216684528Y-103994484D01*
X216675934Y-103991914D01*
X216666963Y-103991859D01*
X216666962Y-103991859D01*
X216656903Y-103991798D01*
X216641494Y-103991704D01*
X216640711Y-103991671D01*
X216639614Y-103991500D01*
X216608623Y-103991500D01*
X216607853Y-103991498D01*
X216534215Y-103991048D01*
X216534214Y-103991048D01*
X216530279Y-103991024D01*
X216528935Y-103991408D01*
X216527590Y-103991500D01*
X202608623Y-103991500D01*
X202607853Y-103991498D01*
X202607037Y-103991493D01*
X202530279Y-103991024D01*
X202507918Y-103997415D01*
X202501847Y-103999150D01*
X202485085Y-104002728D01*
X202455813Y-104006920D01*
X202447645Y-104010634D01*
X202447644Y-104010634D01*
X202432438Y-104017548D01*
X202414914Y-104023996D01*
X202390229Y-104031051D01*
X202382635Y-104035843D01*
X202382632Y-104035844D01*
X202365220Y-104046830D01*
X202350137Y-104054969D01*
X202323218Y-104067208D01*
X202316416Y-104073069D01*
X202303765Y-104083970D01*
X202288761Y-104095073D01*
X202267042Y-104108776D01*
X202261103Y-104115501D01*
X202261099Y-104115504D01*
X202247468Y-104130938D01*
X202235276Y-104142982D01*
X202219673Y-104156427D01*
X202219671Y-104156430D01*
X202212873Y-104162287D01*
X202207993Y-104169816D01*
X202207992Y-104169817D01*
X202198906Y-104183835D01*
X202187615Y-104198709D01*
X202176569Y-104211217D01*
X202170622Y-104217951D01*
X202164312Y-104231391D01*
X202158058Y-104244711D01*
X202149737Y-104259691D01*
X202138529Y-104276983D01*
X202138527Y-104276988D01*
X202133648Y-104284515D01*
X202131078Y-104293108D01*
X202131076Y-104293113D01*
X202126289Y-104309120D01*
X202119628Y-104326564D01*
X202112533Y-104341676D01*
X202108719Y-104349800D01*
X202107338Y-104358667D01*
X202107338Y-104358668D01*
X202104170Y-104379015D01*
X202100387Y-104395732D01*
X202094485Y-104415466D01*
X202094484Y-104415472D01*
X202091914Y-104424066D01*
X202091859Y-104433037D01*
X202091859Y-104433038D01*
X202091704Y-104458497D01*
X202091671Y-104459289D01*
X202091500Y-104460386D01*
X202091500Y-104491377D01*
X202091498Y-104492147D01*
X202091024Y-104569721D01*
X202091408Y-104571065D01*
X202091500Y-104572410D01*
X202091500Y-118491377D01*
X202091498Y-118492147D01*
X202091024Y-118569721D01*
X188608124Y-118569721D01*
X188608296Y-118541494D01*
X188608329Y-118540711D01*
X188608500Y-118539614D01*
X188608500Y-118508623D01*
X188608502Y-118507853D01*
X188608952Y-118434215D01*
X188608952Y-118434214D01*
X188608976Y-118430279D01*
X188608592Y-118428935D01*
X188608500Y-118427590D01*
X188608500Y-104508623D01*
X188608502Y-104507853D01*
X188608800Y-104459102D01*
X188608976Y-104430279D01*
X188600850Y-104401847D01*
X188597272Y-104385085D01*
X188594352Y-104364698D01*
X188593080Y-104355813D01*
X188582451Y-104332436D01*
X188576004Y-104314913D01*
X188571416Y-104298862D01*
X188568949Y-104290229D01*
X188564156Y-104282632D01*
X188553170Y-104265220D01*
X188545030Y-104250135D01*
X188542564Y-104244711D01*
X188532792Y-104223218D01*
X188516030Y-104203765D01*
X188504927Y-104188761D01*
X188491224Y-104167042D01*
X188484499Y-104161103D01*
X188484496Y-104161099D01*
X188469062Y-104147468D01*
X188457018Y-104135276D01*
X188443573Y-104119673D01*
X188443570Y-104119671D01*
X188437713Y-104112873D01*
X188424009Y-104103990D01*
X188416165Y-104098906D01*
X188401291Y-104087615D01*
X188388783Y-104076569D01*
X188388782Y-104076568D01*
X188382049Y-104070622D01*
X188355287Y-104058057D01*
X188340309Y-104049737D01*
X188323017Y-104038529D01*
X188323012Y-104038527D01*
X188315485Y-104033648D01*
X188306892Y-104031078D01*
X188306887Y-104031076D01*
X188290880Y-104026289D01*
X188273436Y-104019628D01*
X188258324Y-104012533D01*
X188258322Y-104012532D01*
X188250200Y-104008719D01*
X188241333Y-104007338D01*
X188241332Y-104007338D01*
X188230478Y-104005648D01*
X188220983Y-104004170D01*
X188204268Y-104000387D01*
X188184534Y-103994485D01*
X188184528Y-103994484D01*
X188175934Y-103991914D01*
X188166963Y-103991859D01*
X188166962Y-103991859D01*
X188156903Y-103991798D01*
X188141494Y-103991704D01*
X188140711Y-103991671D01*
X188139614Y-103991500D01*
X188108623Y-103991500D01*
X188107853Y-103991498D01*
X188034215Y-103991048D01*
X188034214Y-103991048D01*
X188030279Y-103991024D01*
X188028935Y-103991408D01*
X188027590Y-103991500D01*
X174108623Y-103991500D01*
X174107853Y-103991498D01*
X174107037Y-103991493D01*
X174030279Y-103991024D01*
X174007918Y-103997415D01*
X174001847Y-103999150D01*
X173985085Y-104002728D01*
X173955813Y-104006920D01*
X173947645Y-104010634D01*
X173947644Y-104010634D01*
X173932438Y-104017548D01*
X173914914Y-104023996D01*
X173890229Y-104031051D01*
X173882635Y-104035843D01*
X173882632Y-104035844D01*
X173865220Y-104046830D01*
X173850137Y-104054969D01*
X173823218Y-104067208D01*
X173816416Y-104073069D01*
X173803765Y-104083970D01*
X173788761Y-104095073D01*
X173767042Y-104108776D01*
X173761103Y-104115501D01*
X173761099Y-104115504D01*
X173747468Y-104130938D01*
X173735276Y-104142982D01*
X173719673Y-104156427D01*
X173719671Y-104156430D01*
X173712873Y-104162287D01*
X173707993Y-104169816D01*
X173707992Y-104169817D01*
X173698906Y-104183835D01*
X173687615Y-104198709D01*
X173676569Y-104211217D01*
X173670622Y-104217951D01*
X173664312Y-104231391D01*
X173658058Y-104244711D01*
X173649737Y-104259691D01*
X173638529Y-104276983D01*
X173638527Y-104276988D01*
X173633648Y-104284515D01*
X173631078Y-104293108D01*
X173631076Y-104293113D01*
X173626289Y-104309120D01*
X173619628Y-104326564D01*
X173612533Y-104341676D01*
X173608719Y-104349800D01*
X173607338Y-104358667D01*
X173607338Y-104358668D01*
X173604170Y-104379015D01*
X173600387Y-104395732D01*
X173594485Y-104415466D01*
X173594484Y-104415472D01*
X173591914Y-104424066D01*
X173591859Y-104433037D01*
X173591859Y-104433038D01*
X173591704Y-104458497D01*
X173591671Y-104459289D01*
X173591500Y-104460386D01*
X173591500Y-104491377D01*
X173591498Y-104492147D01*
X173591024Y-104569721D01*
X173591408Y-104571065D01*
X173591500Y-104572410D01*
X173591500Y-118491377D01*
X173591498Y-118492147D01*
X173591024Y-118569721D01*
X160108124Y-118569721D01*
X160108296Y-118541494D01*
X160108329Y-118540711D01*
X160108500Y-118539614D01*
X160108500Y-118508623D01*
X160108502Y-118507853D01*
X160108952Y-118434215D01*
X160108952Y-118434214D01*
X160108976Y-118430279D01*
X160108592Y-118428935D01*
X160108500Y-118427590D01*
X160108500Y-104508623D01*
X160108502Y-104507853D01*
X160108800Y-104459102D01*
X160108976Y-104430279D01*
X160100850Y-104401847D01*
X160097272Y-104385085D01*
X160094352Y-104364698D01*
X160093080Y-104355813D01*
X160082451Y-104332436D01*
X160076004Y-104314913D01*
X160071416Y-104298862D01*
X160068949Y-104290229D01*
X160064156Y-104282632D01*
X160053170Y-104265220D01*
X160045030Y-104250135D01*
X160042564Y-104244711D01*
X160032792Y-104223218D01*
X160016030Y-104203765D01*
X160004927Y-104188761D01*
X159991224Y-104167042D01*
X159984499Y-104161103D01*
X159984496Y-104161099D01*
X159969062Y-104147468D01*
X159957018Y-104135276D01*
X159943573Y-104119673D01*
X159943570Y-104119671D01*
X159937713Y-104112873D01*
X159924009Y-104103990D01*
X159916165Y-104098906D01*
X159901291Y-104087615D01*
X159888783Y-104076569D01*
X159888782Y-104076568D01*
X159882049Y-104070622D01*
X159855287Y-104058057D01*
X159840309Y-104049737D01*
X159823017Y-104038529D01*
X159823012Y-104038527D01*
X159815485Y-104033648D01*
X159806892Y-104031078D01*
X159806887Y-104031076D01*
X159790880Y-104026289D01*
X159773436Y-104019628D01*
X159758324Y-104012533D01*
X159758322Y-104012532D01*
X159750200Y-104008719D01*
X159741333Y-104007338D01*
X159741332Y-104007338D01*
X159730478Y-104005648D01*
X159720983Y-104004170D01*
X159704268Y-104000387D01*
X159684534Y-103994485D01*
X159684528Y-103994484D01*
X159675934Y-103991914D01*
X159666963Y-103991859D01*
X159666962Y-103991859D01*
X159656903Y-103991798D01*
X159641494Y-103991704D01*
X159640711Y-103991671D01*
X159639614Y-103991500D01*
X159608623Y-103991500D01*
X159607853Y-103991498D01*
X159534215Y-103991048D01*
X159534214Y-103991048D01*
X159530279Y-103991024D01*
X159528935Y-103991408D01*
X159527590Y-103991500D01*
X145608623Y-103991500D01*
X145607853Y-103991498D01*
X145607037Y-103991493D01*
X145530279Y-103991024D01*
X145507918Y-103997415D01*
X145501847Y-103999150D01*
X145485085Y-104002728D01*
X145455813Y-104006920D01*
X145447645Y-104010634D01*
X145447644Y-104010634D01*
X145432438Y-104017548D01*
X145414914Y-104023996D01*
X145390229Y-104031051D01*
X145382635Y-104035843D01*
X145382632Y-104035844D01*
X145365220Y-104046830D01*
X145350137Y-104054969D01*
X145323218Y-104067208D01*
X145316416Y-104073069D01*
X145303765Y-104083970D01*
X145288761Y-104095073D01*
X145267042Y-104108776D01*
X145261103Y-104115501D01*
X145261099Y-104115504D01*
X145247468Y-104130938D01*
X145235276Y-104142982D01*
X145219673Y-104156427D01*
X145219671Y-104156430D01*
X145212873Y-104162287D01*
X145207993Y-104169816D01*
X145207992Y-104169817D01*
X145198906Y-104183835D01*
X145187615Y-104198709D01*
X145176569Y-104211217D01*
X145170622Y-104217951D01*
X145164312Y-104231391D01*
X145158058Y-104244711D01*
X145149737Y-104259691D01*
X145138529Y-104276983D01*
X145138527Y-104276988D01*
X145133648Y-104284515D01*
X145131078Y-104293108D01*
X145131076Y-104293113D01*
X145126289Y-104309120D01*
X145119628Y-104326564D01*
X145112533Y-104341676D01*
X145108719Y-104349800D01*
X145107338Y-104358667D01*
X145107338Y-104358668D01*
X145104170Y-104379015D01*
X145100387Y-104395732D01*
X145094485Y-104415466D01*
X145094484Y-104415472D01*
X145091914Y-104424066D01*
X145091859Y-104433037D01*
X145091859Y-104433038D01*
X145091704Y-104458497D01*
X145091671Y-104459289D01*
X145091500Y-104460386D01*
X145091500Y-104491377D01*
X145091498Y-104492147D01*
X145091024Y-104569721D01*
X145091408Y-104571065D01*
X145091500Y-104572410D01*
X145091500Y-118491377D01*
X145091498Y-118492147D01*
X145091024Y-118569721D01*
X141108124Y-118569721D01*
X141108296Y-118541494D01*
X141108329Y-118540711D01*
X141108500Y-118539614D01*
X141108500Y-118508623D01*
X141108502Y-118507853D01*
X141108952Y-118434215D01*
X141108952Y-118434214D01*
X141108976Y-118430279D01*
X141108592Y-118428935D01*
X141108500Y-118427590D01*
X141108500Y-104508623D01*
X141108502Y-104507853D01*
X141108800Y-104459102D01*
X141108976Y-104430279D01*
X141100850Y-104401847D01*
X141097272Y-104385085D01*
X141094352Y-104364698D01*
X141093080Y-104355813D01*
X141082451Y-104332436D01*
X141076004Y-104314913D01*
X141071416Y-104298862D01*
X141068949Y-104290229D01*
X141064156Y-104282632D01*
X141053170Y-104265220D01*
X141045030Y-104250135D01*
X141042564Y-104244711D01*
X141032792Y-104223218D01*
X141016030Y-104203765D01*
X141004927Y-104188761D01*
X140991224Y-104167042D01*
X140984499Y-104161103D01*
X140984496Y-104161099D01*
X140969062Y-104147468D01*
X140957018Y-104135276D01*
X140943573Y-104119673D01*
X140943570Y-104119671D01*
X140937713Y-104112873D01*
X140924009Y-104103990D01*
X140916165Y-104098906D01*
X140901291Y-104087615D01*
X140888783Y-104076569D01*
X140888782Y-104076568D01*
X140882049Y-104070622D01*
X140855287Y-104058057D01*
X140840309Y-104049737D01*
X140823017Y-104038529D01*
X140823012Y-104038527D01*
X140815485Y-104033648D01*
X140806892Y-104031078D01*
X140806887Y-104031076D01*
X140790880Y-104026289D01*
X140773436Y-104019628D01*
X140758324Y-104012533D01*
X140758322Y-104012532D01*
X140750200Y-104008719D01*
X140741333Y-104007338D01*
X140741332Y-104007338D01*
X140730478Y-104005648D01*
X140720983Y-104004170D01*
X140704268Y-104000387D01*
X140684534Y-103994485D01*
X140684528Y-103994484D01*
X140675934Y-103991914D01*
X140666963Y-103991859D01*
X140666962Y-103991859D01*
X140656903Y-103991798D01*
X140641494Y-103991704D01*
X140640711Y-103991671D01*
X140639614Y-103991500D01*
X140608623Y-103991500D01*
X140607853Y-103991498D01*
X140534215Y-103991048D01*
X140534214Y-103991048D01*
X140530279Y-103991024D01*
X140528935Y-103991408D01*
X140527590Y-103991500D01*
X126608623Y-103991500D01*
X126607853Y-103991498D01*
X126607037Y-103991493D01*
X126530279Y-103991024D01*
X126507918Y-103997415D01*
X126501847Y-103999150D01*
X126485085Y-104002728D01*
X126455813Y-104006920D01*
X126447645Y-104010634D01*
X126447644Y-104010634D01*
X126432438Y-104017548D01*
X126414914Y-104023996D01*
X126390229Y-104031051D01*
X126382635Y-104035843D01*
X126382632Y-104035844D01*
X126365220Y-104046830D01*
X126350137Y-104054969D01*
X126323218Y-104067208D01*
X126316416Y-104073069D01*
X126303765Y-104083970D01*
X126288761Y-104095073D01*
X126267042Y-104108776D01*
X126261103Y-104115501D01*
X126261099Y-104115504D01*
X126247468Y-104130938D01*
X126235276Y-104142982D01*
X126219673Y-104156427D01*
X126219671Y-104156430D01*
X126212873Y-104162287D01*
X126207993Y-104169816D01*
X126207992Y-104169817D01*
X126198906Y-104183835D01*
X126187615Y-104198709D01*
X126176569Y-104211217D01*
X126170622Y-104217951D01*
X126164312Y-104231391D01*
X126158058Y-104244711D01*
X126149737Y-104259691D01*
X126138529Y-104276983D01*
X126138527Y-104276988D01*
X126133648Y-104284515D01*
X126131078Y-104293108D01*
X126131076Y-104293113D01*
X126126289Y-104309120D01*
X126119628Y-104326564D01*
X126112533Y-104341676D01*
X126108719Y-104349800D01*
X126107338Y-104358667D01*
X126107338Y-104358668D01*
X126104170Y-104379015D01*
X126100387Y-104395732D01*
X126094485Y-104415466D01*
X126094484Y-104415472D01*
X126091914Y-104424066D01*
X126091859Y-104433037D01*
X126091859Y-104433038D01*
X126091704Y-104458497D01*
X126091671Y-104459289D01*
X126091500Y-104460386D01*
X126091500Y-104491377D01*
X126091498Y-104492147D01*
X126091024Y-104569721D01*
X126091408Y-104571065D01*
X126091500Y-104572410D01*
X126091500Y-118491377D01*
X126091498Y-118492147D01*
X126091024Y-118569721D01*
X122108124Y-118569721D01*
X122108296Y-118541494D01*
X122108329Y-118540711D01*
X122108500Y-118539614D01*
X122108500Y-118508623D01*
X122108502Y-118507853D01*
X122108952Y-118434215D01*
X122108952Y-118434214D01*
X122108976Y-118430279D01*
X122108592Y-118428935D01*
X122108500Y-118427590D01*
X122108500Y-104508623D01*
X122108502Y-104507853D01*
X122108800Y-104459102D01*
X122108976Y-104430279D01*
X122100850Y-104401847D01*
X122097272Y-104385085D01*
X122094352Y-104364698D01*
X122093080Y-104355813D01*
X122082451Y-104332436D01*
X122076004Y-104314913D01*
X122071416Y-104298862D01*
X122068949Y-104290229D01*
X122064156Y-104282632D01*
X122053170Y-104265220D01*
X122045030Y-104250135D01*
X122042564Y-104244711D01*
X122032792Y-104223218D01*
X122016030Y-104203765D01*
X122004927Y-104188761D01*
X121991224Y-104167042D01*
X121984499Y-104161103D01*
X121984496Y-104161099D01*
X121969062Y-104147468D01*
X121957018Y-104135276D01*
X121943573Y-104119673D01*
X121943570Y-104119671D01*
X121937713Y-104112873D01*
X121924009Y-104103990D01*
X121916165Y-104098906D01*
X121901291Y-104087615D01*
X121888783Y-104076569D01*
X121888782Y-104076568D01*
X121882049Y-104070622D01*
X121855287Y-104058057D01*
X121840309Y-104049737D01*
X121823017Y-104038529D01*
X121823012Y-104038527D01*
X121815485Y-104033648D01*
X121806892Y-104031078D01*
X121806887Y-104031076D01*
X121790880Y-104026289D01*
X121773436Y-104019628D01*
X121758324Y-104012533D01*
X121758322Y-104012532D01*
X121750200Y-104008719D01*
X121741333Y-104007338D01*
X121741332Y-104007338D01*
X121730478Y-104005648D01*
X121720983Y-104004170D01*
X121704268Y-104000387D01*
X121684534Y-103994485D01*
X121684528Y-103994484D01*
X121675934Y-103991914D01*
X121666963Y-103991859D01*
X121666962Y-103991859D01*
X121656903Y-103991798D01*
X121641494Y-103991704D01*
X121640711Y-103991671D01*
X121639614Y-103991500D01*
X121608623Y-103991500D01*
X121607853Y-103991498D01*
X121534215Y-103991048D01*
X121534214Y-103991048D01*
X121530279Y-103991024D01*
X121528935Y-103991408D01*
X121527590Y-103991500D01*
X107608623Y-103991500D01*
X107607853Y-103991498D01*
X107607037Y-103991493D01*
X107530279Y-103991024D01*
X107507918Y-103997415D01*
X107501847Y-103999150D01*
X107485085Y-104002728D01*
X107455813Y-104006920D01*
X107447645Y-104010634D01*
X107447644Y-104010634D01*
X107432438Y-104017548D01*
X107414914Y-104023996D01*
X107390229Y-104031051D01*
X107382635Y-104035843D01*
X107382632Y-104035844D01*
X107365220Y-104046830D01*
X107350137Y-104054969D01*
X107323218Y-104067208D01*
X107316416Y-104073069D01*
X107303765Y-104083970D01*
X107288761Y-104095073D01*
X107267042Y-104108776D01*
X107261103Y-104115501D01*
X107261099Y-104115504D01*
X107247468Y-104130938D01*
X107235276Y-104142982D01*
X107219673Y-104156427D01*
X107219671Y-104156430D01*
X107212873Y-104162287D01*
X107207993Y-104169816D01*
X107207992Y-104169817D01*
X107198906Y-104183835D01*
X107187615Y-104198709D01*
X107176569Y-104211217D01*
X107170622Y-104217951D01*
X107164312Y-104231391D01*
X107158058Y-104244711D01*
X107149737Y-104259691D01*
X107138529Y-104276983D01*
X107138527Y-104276988D01*
X107133648Y-104284515D01*
X107131078Y-104293108D01*
X107131076Y-104293113D01*
X107126289Y-104309120D01*
X107119628Y-104326564D01*
X107112533Y-104341676D01*
X107108719Y-104349800D01*
X107107338Y-104358667D01*
X107107338Y-104358668D01*
X107104170Y-104379015D01*
X107100387Y-104395732D01*
X107094485Y-104415466D01*
X107094484Y-104415472D01*
X107091914Y-104424066D01*
X107091859Y-104433037D01*
X107091859Y-104433038D01*
X107091704Y-104458497D01*
X107091671Y-104459289D01*
X107091500Y-104460386D01*
X107091500Y-104491377D01*
X107091498Y-104492147D01*
X107091024Y-104569721D01*
X107091408Y-104571065D01*
X107091500Y-104572410D01*
X107091500Y-118491377D01*
X107091498Y-118492147D01*
X107091024Y-118569721D01*
X103108124Y-118569721D01*
X103108296Y-118541494D01*
X103108329Y-118540711D01*
X103108500Y-118539614D01*
X103108500Y-118508623D01*
X103108502Y-118507853D01*
X103108952Y-118434215D01*
X103108952Y-118434214D01*
X103108976Y-118430279D01*
X103108592Y-118428935D01*
X103108500Y-118427590D01*
X103108500Y-104508623D01*
X103108502Y-104507853D01*
X103108800Y-104459102D01*
X103108976Y-104430279D01*
X103100850Y-104401847D01*
X103097272Y-104385085D01*
X103094352Y-104364698D01*
X103093080Y-104355813D01*
X103082451Y-104332436D01*
X103076004Y-104314913D01*
X103071416Y-104298862D01*
X103068949Y-104290229D01*
X103064156Y-104282632D01*
X103053170Y-104265220D01*
X103045030Y-104250135D01*
X103042564Y-104244711D01*
X103032792Y-104223218D01*
X103016030Y-104203765D01*
X103004927Y-104188761D01*
X102991224Y-104167042D01*
X102984499Y-104161103D01*
X102984496Y-104161099D01*
X102969062Y-104147468D01*
X102957018Y-104135276D01*
X102943573Y-104119673D01*
X102943570Y-104119671D01*
X102937713Y-104112873D01*
X102924009Y-104103990D01*
X102916165Y-104098906D01*
X102901291Y-104087615D01*
X102888783Y-104076569D01*
X102888782Y-104076568D01*
X102882049Y-104070622D01*
X102855287Y-104058057D01*
X102840309Y-104049737D01*
X102823017Y-104038529D01*
X102823012Y-104038527D01*
X102815485Y-104033648D01*
X102806892Y-104031078D01*
X102806887Y-104031076D01*
X102790880Y-104026289D01*
X102773436Y-104019628D01*
X102758324Y-104012533D01*
X102758322Y-104012532D01*
X102750200Y-104008719D01*
X102741333Y-104007338D01*
X102741332Y-104007338D01*
X102730478Y-104005648D01*
X102720983Y-104004170D01*
X102704268Y-104000387D01*
X102684534Y-103994485D01*
X102684528Y-103994484D01*
X102675934Y-103991914D01*
X102666963Y-103991859D01*
X102666962Y-103991859D01*
X102656903Y-103991798D01*
X102641494Y-103991704D01*
X102640711Y-103991671D01*
X102639614Y-103991500D01*
X102608623Y-103991500D01*
X102607853Y-103991498D01*
X102534215Y-103991048D01*
X102534214Y-103991048D01*
X102530279Y-103991024D01*
X102528935Y-103991408D01*
X102527590Y-103991500D01*
X88608623Y-103991500D01*
X88607853Y-103991498D01*
X88607037Y-103991493D01*
X88530279Y-103991024D01*
X88507918Y-103997415D01*
X88501847Y-103999150D01*
X88485085Y-104002728D01*
X88455813Y-104006920D01*
X88447645Y-104010634D01*
X88447644Y-104010634D01*
X88432438Y-104017548D01*
X88414914Y-104023996D01*
X88390229Y-104031051D01*
X88382635Y-104035843D01*
X88382632Y-104035844D01*
X88365220Y-104046830D01*
X88350137Y-104054969D01*
X88323218Y-104067208D01*
X88316416Y-104073069D01*
X88303765Y-104083970D01*
X88288761Y-104095073D01*
X88267042Y-104108776D01*
X88261103Y-104115501D01*
X88261099Y-104115504D01*
X88247468Y-104130938D01*
X88235276Y-104142982D01*
X88219673Y-104156427D01*
X88219671Y-104156430D01*
X88212873Y-104162287D01*
X88207993Y-104169816D01*
X88207992Y-104169817D01*
X88198906Y-104183835D01*
X88187615Y-104198709D01*
X88176569Y-104211217D01*
X88170622Y-104217951D01*
X88164312Y-104231391D01*
X88158058Y-104244711D01*
X88149737Y-104259691D01*
X88138529Y-104276983D01*
X88138527Y-104276988D01*
X88133648Y-104284515D01*
X88131078Y-104293108D01*
X88131076Y-104293113D01*
X88126289Y-104309120D01*
X88119628Y-104326564D01*
X88112533Y-104341676D01*
X88108719Y-104349800D01*
X88107338Y-104358667D01*
X88107338Y-104358668D01*
X88104170Y-104379015D01*
X88100387Y-104395732D01*
X88094485Y-104415466D01*
X88094484Y-104415472D01*
X88091914Y-104424066D01*
X88091859Y-104433037D01*
X88091859Y-104433038D01*
X88091704Y-104458497D01*
X88091671Y-104459289D01*
X88091500Y-104460386D01*
X88091500Y-104491377D01*
X88091498Y-104492147D01*
X88091024Y-104569721D01*
X88091408Y-104571065D01*
X88091500Y-104572410D01*
X88091500Y-118491377D01*
X88091498Y-118492147D01*
X88091024Y-118569721D01*
X44608500Y-118569721D01*
X44608500Y-99569721D01*
X88091024Y-99569721D01*
X88093491Y-99578352D01*
X88099150Y-99598153D01*
X88102728Y-99614915D01*
X88106920Y-99644187D01*
X88110634Y-99652355D01*
X88110634Y-99652356D01*
X88117548Y-99667562D01*
X88123996Y-99685086D01*
X88131051Y-99709771D01*
X88135843Y-99717365D01*
X88135844Y-99717368D01*
X88146830Y-99734780D01*
X88154969Y-99749863D01*
X88167208Y-99776782D01*
X88173069Y-99783584D01*
X88183970Y-99796235D01*
X88195073Y-99811239D01*
X88208776Y-99832958D01*
X88215501Y-99838897D01*
X88215504Y-99838901D01*
X88230938Y-99852532D01*
X88242982Y-99864724D01*
X88256427Y-99880327D01*
X88256430Y-99880329D01*
X88262287Y-99887127D01*
X88269816Y-99892007D01*
X88269817Y-99892008D01*
X88283835Y-99901094D01*
X88298709Y-99912385D01*
X88311217Y-99923431D01*
X88317951Y-99929378D01*
X88344711Y-99941942D01*
X88359691Y-99950263D01*
X88376983Y-99961471D01*
X88376988Y-99961473D01*
X88384515Y-99966352D01*
X88393108Y-99968922D01*
X88393113Y-99968924D01*
X88409120Y-99973711D01*
X88426564Y-99980372D01*
X88441676Y-99987467D01*
X88441678Y-99987468D01*
X88449800Y-99991281D01*
X88458667Y-99992662D01*
X88458668Y-99992662D01*
X88461353Y-99993080D01*
X88479017Y-99995830D01*
X88495732Y-99999613D01*
X88515466Y-100005515D01*
X88515472Y-100005516D01*
X88524066Y-100008086D01*
X88533037Y-100008141D01*
X88533038Y-100008141D01*
X88543097Y-100008202D01*
X88558506Y-100008296D01*
X88559289Y-100008329D01*
X88560386Y-100008500D01*
X88591377Y-100008500D01*
X88592147Y-100008502D01*
X88665785Y-100008952D01*
X88665786Y-100008952D01*
X88669721Y-100008976D01*
X88671065Y-100008592D01*
X88672410Y-100008500D01*
X102591377Y-100008500D01*
X102592148Y-100008502D01*
X102669721Y-100008976D01*
X102698152Y-100000850D01*
X102714915Y-99997272D01*
X102715753Y-99997152D01*
X102744187Y-99993080D01*
X102767564Y-99982451D01*
X102785087Y-99976004D01*
X102809771Y-99968949D01*
X102817365Y-99964157D01*
X102817368Y-99964156D01*
X102834780Y-99953170D01*
X102849865Y-99945030D01*
X102876782Y-99932792D01*
X102896235Y-99916030D01*
X102911239Y-99904927D01*
X102932958Y-99891224D01*
X102938897Y-99884499D01*
X102938901Y-99884496D01*
X102952532Y-99869062D01*
X102964724Y-99857018D01*
X102980327Y-99843573D01*
X102980329Y-99843570D01*
X102987127Y-99837713D01*
X103001094Y-99816165D01*
X103012385Y-99801291D01*
X103023431Y-99788783D01*
X103023432Y-99788782D01*
X103029378Y-99782049D01*
X103041943Y-99755287D01*
X103050263Y-99740309D01*
X103061471Y-99723017D01*
X103061473Y-99723012D01*
X103066352Y-99715485D01*
X103068922Y-99706892D01*
X103068924Y-99706887D01*
X103073711Y-99690880D01*
X103080372Y-99673436D01*
X103087467Y-99658324D01*
X103087468Y-99658322D01*
X103091281Y-99650200D01*
X103095830Y-99620983D01*
X103099613Y-99604268D01*
X103105515Y-99584534D01*
X103105516Y-99584528D01*
X103108086Y-99575934D01*
X103108124Y-99569721D01*
X107091024Y-99569721D01*
X107093491Y-99578352D01*
X107099150Y-99598153D01*
X107102728Y-99614915D01*
X107106920Y-99644187D01*
X107110634Y-99652355D01*
X107110634Y-99652356D01*
X107117548Y-99667562D01*
X107123996Y-99685086D01*
X107131051Y-99709771D01*
X107135843Y-99717365D01*
X107135844Y-99717368D01*
X107146830Y-99734780D01*
X107154969Y-99749863D01*
X107167208Y-99776782D01*
X107173069Y-99783584D01*
X107183970Y-99796235D01*
X107195073Y-99811239D01*
X107208776Y-99832958D01*
X107215501Y-99838897D01*
X107215504Y-99838901D01*
X107230938Y-99852532D01*
X107242982Y-99864724D01*
X107256427Y-99880327D01*
X107256430Y-99880329D01*
X107262287Y-99887127D01*
X107269816Y-99892007D01*
X107269817Y-99892008D01*
X107283835Y-99901094D01*
X107298709Y-99912385D01*
X107311217Y-99923431D01*
X107317951Y-99929378D01*
X107344711Y-99941942D01*
X107359691Y-99950263D01*
X107376983Y-99961471D01*
X107376988Y-99961473D01*
X107384515Y-99966352D01*
X107393108Y-99968922D01*
X107393113Y-99968924D01*
X107409120Y-99973711D01*
X107426564Y-99980372D01*
X107441676Y-99987467D01*
X107441678Y-99987468D01*
X107449800Y-99991281D01*
X107458667Y-99992662D01*
X107458668Y-99992662D01*
X107461353Y-99993080D01*
X107479017Y-99995830D01*
X107495732Y-99999613D01*
X107515466Y-100005515D01*
X107515472Y-100005516D01*
X107524066Y-100008086D01*
X107533037Y-100008141D01*
X107533038Y-100008141D01*
X107543097Y-100008202D01*
X107558506Y-100008296D01*
X107559289Y-100008329D01*
X107560386Y-100008500D01*
X107591377Y-100008500D01*
X107592147Y-100008502D01*
X107665785Y-100008952D01*
X107665786Y-100008952D01*
X107669721Y-100008976D01*
X107671065Y-100008592D01*
X107672410Y-100008500D01*
X121591377Y-100008500D01*
X121592148Y-100008502D01*
X121669721Y-100008976D01*
X121698152Y-100000850D01*
X121714915Y-99997272D01*
X121715753Y-99997152D01*
X121744187Y-99993080D01*
X121767564Y-99982451D01*
X121785087Y-99976004D01*
X121809771Y-99968949D01*
X121817365Y-99964157D01*
X121817368Y-99964156D01*
X121834780Y-99953170D01*
X121849865Y-99945030D01*
X121876782Y-99932792D01*
X121896235Y-99916030D01*
X121911239Y-99904927D01*
X121932958Y-99891224D01*
X121938897Y-99884499D01*
X121938901Y-99884496D01*
X121952532Y-99869062D01*
X121964724Y-99857018D01*
X121980327Y-99843573D01*
X121980329Y-99843570D01*
X121987127Y-99837713D01*
X122001094Y-99816165D01*
X122012385Y-99801291D01*
X122023431Y-99788783D01*
X122023432Y-99788782D01*
X122029378Y-99782049D01*
X122041943Y-99755287D01*
X122050263Y-99740309D01*
X122061471Y-99723017D01*
X122061473Y-99723012D01*
X122066352Y-99715485D01*
X122068922Y-99706892D01*
X122068924Y-99706887D01*
X122073711Y-99690880D01*
X122080372Y-99673436D01*
X122087467Y-99658324D01*
X122087468Y-99658322D01*
X122091281Y-99650200D01*
X122095830Y-99620983D01*
X122099613Y-99604268D01*
X122105515Y-99584534D01*
X122105516Y-99584528D01*
X122108086Y-99575934D01*
X122108124Y-99569721D01*
X126091024Y-99569721D01*
X126093491Y-99578352D01*
X126099150Y-99598153D01*
X126102728Y-99614915D01*
X126106920Y-99644187D01*
X126110634Y-99652355D01*
X126110634Y-99652356D01*
X126117548Y-99667562D01*
X126123996Y-99685086D01*
X126131051Y-99709771D01*
X126135843Y-99717365D01*
X126135844Y-99717368D01*
X126146830Y-99734780D01*
X126154969Y-99749863D01*
X126167208Y-99776782D01*
X126173069Y-99783584D01*
X126183970Y-99796235D01*
X126195073Y-99811239D01*
X126208776Y-99832958D01*
X126215501Y-99838897D01*
X126215504Y-99838901D01*
X126230938Y-99852532D01*
X126242982Y-99864724D01*
X126256427Y-99880327D01*
X126256430Y-99880329D01*
X126262287Y-99887127D01*
X126269816Y-99892007D01*
X126269817Y-99892008D01*
X126283835Y-99901094D01*
X126298709Y-99912385D01*
X126311217Y-99923431D01*
X126317951Y-99929378D01*
X126344711Y-99941942D01*
X126359691Y-99950263D01*
X126376983Y-99961471D01*
X126376988Y-99961473D01*
X126384515Y-99966352D01*
X126393108Y-99968922D01*
X126393113Y-99968924D01*
X126409120Y-99973711D01*
X126426564Y-99980372D01*
X126441676Y-99987467D01*
X126441678Y-99987468D01*
X126449800Y-99991281D01*
X126458667Y-99992662D01*
X126458668Y-99992662D01*
X126461353Y-99993080D01*
X126479017Y-99995830D01*
X126495732Y-99999613D01*
X126515466Y-100005515D01*
X126515472Y-100005516D01*
X126524066Y-100008086D01*
X126533037Y-100008141D01*
X126533038Y-100008141D01*
X126543097Y-100008202D01*
X126558506Y-100008296D01*
X126559289Y-100008329D01*
X126560386Y-100008500D01*
X126591377Y-100008500D01*
X126592147Y-100008502D01*
X126665785Y-100008952D01*
X126665786Y-100008952D01*
X126669721Y-100008976D01*
X126671065Y-100008592D01*
X126672410Y-100008500D01*
X140591377Y-100008500D01*
X140592148Y-100008502D01*
X140669721Y-100008976D01*
X140698152Y-100000850D01*
X140714915Y-99997272D01*
X140715753Y-99997152D01*
X140744187Y-99993080D01*
X140767564Y-99982451D01*
X140785087Y-99976004D01*
X140809771Y-99968949D01*
X140817365Y-99964157D01*
X140817368Y-99964156D01*
X140834780Y-99953170D01*
X140849865Y-99945030D01*
X140876782Y-99932792D01*
X140896235Y-99916030D01*
X140911239Y-99904927D01*
X140932958Y-99891224D01*
X140938897Y-99884499D01*
X140938901Y-99884496D01*
X140952532Y-99869062D01*
X140964724Y-99857018D01*
X140980327Y-99843573D01*
X140980329Y-99843570D01*
X140987127Y-99837713D01*
X141001094Y-99816165D01*
X141012385Y-99801291D01*
X141023431Y-99788783D01*
X141023432Y-99788782D01*
X141029378Y-99782049D01*
X141041943Y-99755287D01*
X141050263Y-99740309D01*
X141061471Y-99723017D01*
X141061473Y-99723012D01*
X141066352Y-99715485D01*
X141068922Y-99706892D01*
X141068924Y-99706887D01*
X141073711Y-99690880D01*
X141080372Y-99673436D01*
X141087467Y-99658324D01*
X141087468Y-99658322D01*
X141091281Y-99650200D01*
X141095830Y-99620983D01*
X141099613Y-99604268D01*
X141105515Y-99584534D01*
X141105516Y-99584528D01*
X141108086Y-99575934D01*
X141108124Y-99569721D01*
X145091024Y-99569721D01*
X145093491Y-99578352D01*
X145099150Y-99598153D01*
X145102728Y-99614915D01*
X145106920Y-99644187D01*
X145110634Y-99652355D01*
X145110634Y-99652356D01*
X145117548Y-99667562D01*
X145123996Y-99685086D01*
X145131051Y-99709771D01*
X145135843Y-99717365D01*
X145135844Y-99717368D01*
X145146830Y-99734780D01*
X145154969Y-99749863D01*
X145167208Y-99776782D01*
X145173069Y-99783584D01*
X145183970Y-99796235D01*
X145195073Y-99811239D01*
X145208776Y-99832958D01*
X145215501Y-99838897D01*
X145215504Y-99838901D01*
X145230938Y-99852532D01*
X145242982Y-99864724D01*
X145256427Y-99880327D01*
X145256430Y-99880329D01*
X145262287Y-99887127D01*
X145269816Y-99892007D01*
X145269817Y-99892008D01*
X145283835Y-99901094D01*
X145298709Y-99912385D01*
X145311217Y-99923431D01*
X145317951Y-99929378D01*
X145344711Y-99941942D01*
X145359691Y-99950263D01*
X145376983Y-99961471D01*
X145376988Y-99961473D01*
X145384515Y-99966352D01*
X145393108Y-99968922D01*
X145393113Y-99968924D01*
X145409120Y-99973711D01*
X145426564Y-99980372D01*
X145441676Y-99987467D01*
X145441678Y-99987468D01*
X145449800Y-99991281D01*
X145458667Y-99992662D01*
X145458668Y-99992662D01*
X145461353Y-99993080D01*
X145479017Y-99995830D01*
X145495732Y-99999613D01*
X145515466Y-100005515D01*
X145515472Y-100005516D01*
X145524066Y-100008086D01*
X145533037Y-100008141D01*
X145533038Y-100008141D01*
X145543097Y-100008202D01*
X145558506Y-100008296D01*
X145559289Y-100008329D01*
X145560386Y-100008500D01*
X145591377Y-100008500D01*
X145592147Y-100008502D01*
X145665785Y-100008952D01*
X145665786Y-100008952D01*
X145669721Y-100008976D01*
X145671065Y-100008592D01*
X145672410Y-100008500D01*
X159591377Y-100008500D01*
X159592148Y-100008502D01*
X159669721Y-100008976D01*
X159698152Y-100000850D01*
X159714915Y-99997272D01*
X159715753Y-99997152D01*
X159744187Y-99993080D01*
X159767564Y-99982451D01*
X159785087Y-99976004D01*
X159809771Y-99968949D01*
X159817365Y-99964157D01*
X159817368Y-99964156D01*
X159834780Y-99953170D01*
X159849865Y-99945030D01*
X159876782Y-99932792D01*
X159896235Y-99916030D01*
X159911239Y-99904927D01*
X159932958Y-99891224D01*
X159938897Y-99884499D01*
X159938901Y-99884496D01*
X159952532Y-99869062D01*
X159964724Y-99857018D01*
X159980327Y-99843573D01*
X159980329Y-99843570D01*
X159987127Y-99837713D01*
X160001094Y-99816165D01*
X160012385Y-99801291D01*
X160023431Y-99788783D01*
X160023432Y-99788782D01*
X160029378Y-99782049D01*
X160041943Y-99755287D01*
X160050263Y-99740309D01*
X160061471Y-99723017D01*
X160061473Y-99723012D01*
X160066352Y-99715485D01*
X160068922Y-99706892D01*
X160068924Y-99706887D01*
X160073711Y-99690880D01*
X160080372Y-99673436D01*
X160087467Y-99658324D01*
X160087468Y-99658322D01*
X160091281Y-99650200D01*
X160095830Y-99620983D01*
X160099613Y-99604268D01*
X160105515Y-99584534D01*
X160105516Y-99584528D01*
X160108086Y-99575934D01*
X160108124Y-99569721D01*
X221091024Y-99569721D01*
X221093491Y-99578352D01*
X221099150Y-99598153D01*
X221102728Y-99614915D01*
X221106920Y-99644187D01*
X221110634Y-99652355D01*
X221110634Y-99652356D01*
X221117548Y-99667562D01*
X221123996Y-99685086D01*
X221131051Y-99709771D01*
X221135843Y-99717365D01*
X221135844Y-99717368D01*
X221146830Y-99734780D01*
X221154969Y-99749863D01*
X221167208Y-99776782D01*
X221173069Y-99783584D01*
X221183970Y-99796235D01*
X221195073Y-99811239D01*
X221208776Y-99832958D01*
X221215501Y-99838897D01*
X221215504Y-99838901D01*
X221230938Y-99852532D01*
X221242982Y-99864724D01*
X221256427Y-99880327D01*
X221256430Y-99880329D01*
X221262287Y-99887127D01*
X221269816Y-99892007D01*
X221269817Y-99892008D01*
X221283835Y-99901094D01*
X221298709Y-99912385D01*
X221311217Y-99923431D01*
X221317951Y-99929378D01*
X221344711Y-99941942D01*
X221359691Y-99950263D01*
X221376983Y-99961471D01*
X221376988Y-99961473D01*
X221384515Y-99966352D01*
X221393108Y-99968922D01*
X221393113Y-99968924D01*
X221409120Y-99973711D01*
X221426564Y-99980372D01*
X221441676Y-99987467D01*
X221441678Y-99987468D01*
X221449800Y-99991281D01*
X221458667Y-99992662D01*
X221458668Y-99992662D01*
X221461353Y-99993080D01*
X221479017Y-99995830D01*
X221495732Y-99999613D01*
X221515466Y-100005515D01*
X221515472Y-100005516D01*
X221524066Y-100008086D01*
X221533037Y-100008141D01*
X221533038Y-100008141D01*
X221543097Y-100008202D01*
X221558506Y-100008296D01*
X221559289Y-100008329D01*
X221560386Y-100008500D01*
X221591377Y-100008500D01*
X221592147Y-100008502D01*
X221665785Y-100008952D01*
X221665786Y-100008952D01*
X221669721Y-100008976D01*
X221671065Y-100008592D01*
X221672410Y-100008500D01*
X235591377Y-100008500D01*
X235592148Y-100008502D01*
X235669721Y-100008976D01*
X235698152Y-100000850D01*
X235714915Y-99997272D01*
X235715753Y-99997152D01*
X235744187Y-99993080D01*
X235767564Y-99982451D01*
X235785087Y-99976004D01*
X235809771Y-99968949D01*
X235817365Y-99964157D01*
X235817368Y-99964156D01*
X235834780Y-99953170D01*
X235849865Y-99945030D01*
X235876782Y-99932792D01*
X235896235Y-99916030D01*
X235911239Y-99904927D01*
X235932958Y-99891224D01*
X235938897Y-99884499D01*
X235938901Y-99884496D01*
X235952532Y-99869062D01*
X235964724Y-99857018D01*
X235980327Y-99843573D01*
X235980329Y-99843570D01*
X235987127Y-99837713D01*
X236001094Y-99816165D01*
X236012385Y-99801291D01*
X236023431Y-99788783D01*
X236023432Y-99788782D01*
X236029378Y-99782049D01*
X236041943Y-99755287D01*
X236050263Y-99740309D01*
X236061471Y-99723017D01*
X236061473Y-99723012D01*
X236066352Y-99715485D01*
X236068922Y-99706892D01*
X236068924Y-99706887D01*
X236073711Y-99690880D01*
X236080372Y-99673436D01*
X236087467Y-99658324D01*
X236087468Y-99658322D01*
X236091281Y-99650200D01*
X236095830Y-99620983D01*
X236099613Y-99604268D01*
X236105515Y-99584534D01*
X236105516Y-99584528D01*
X236108086Y-99575934D01*
X236108296Y-99541494D01*
X236108329Y-99540711D01*
X236108500Y-99539614D01*
X236108500Y-99508623D01*
X236108502Y-99507853D01*
X236108952Y-99434215D01*
X236108952Y-99434214D01*
X236108976Y-99430279D01*
X236108592Y-99428935D01*
X236108500Y-99427590D01*
X236108500Y-85508623D01*
X236108502Y-85507853D01*
X236108800Y-85459102D01*
X236108976Y-85430279D01*
X236100850Y-85401847D01*
X236097272Y-85385085D01*
X236094352Y-85364698D01*
X236093080Y-85355813D01*
X236082451Y-85332436D01*
X236076004Y-85314913D01*
X236071416Y-85298862D01*
X236068949Y-85290229D01*
X236064156Y-85282632D01*
X236053170Y-85265220D01*
X236045030Y-85250135D01*
X236042564Y-85244711D01*
X236032792Y-85223218D01*
X236016030Y-85203765D01*
X236004927Y-85188761D01*
X235991224Y-85167042D01*
X235984499Y-85161103D01*
X235984496Y-85161099D01*
X235969062Y-85147468D01*
X235957018Y-85135276D01*
X235943573Y-85119673D01*
X235943570Y-85119671D01*
X235937713Y-85112873D01*
X235924009Y-85103990D01*
X235916165Y-85098906D01*
X235901291Y-85087615D01*
X235888783Y-85076569D01*
X235888782Y-85076568D01*
X235882049Y-85070622D01*
X235855287Y-85058057D01*
X235840309Y-85049737D01*
X235823017Y-85038529D01*
X235823012Y-85038527D01*
X235815485Y-85033648D01*
X235806892Y-85031078D01*
X235806887Y-85031076D01*
X235790880Y-85026289D01*
X235773436Y-85019628D01*
X235758324Y-85012533D01*
X235758322Y-85012532D01*
X235750200Y-85008719D01*
X235741333Y-85007338D01*
X235741332Y-85007338D01*
X235730478Y-85005648D01*
X235720983Y-85004170D01*
X235704268Y-85000387D01*
X235684534Y-84994485D01*
X235684528Y-84994484D01*
X235675934Y-84991914D01*
X235666963Y-84991859D01*
X235666962Y-84991859D01*
X235656903Y-84991798D01*
X235641494Y-84991704D01*
X235640711Y-84991671D01*
X235639614Y-84991500D01*
X235608623Y-84991500D01*
X235607853Y-84991498D01*
X235534215Y-84991048D01*
X235534214Y-84991048D01*
X235530279Y-84991024D01*
X235528935Y-84991408D01*
X235527590Y-84991500D01*
X221608623Y-84991500D01*
X221607853Y-84991498D01*
X221607037Y-84991493D01*
X221530279Y-84991024D01*
X221507918Y-84997415D01*
X221501847Y-84999150D01*
X221485085Y-85002728D01*
X221455813Y-85006920D01*
X221447645Y-85010634D01*
X221447644Y-85010634D01*
X221432438Y-85017548D01*
X221414914Y-85023996D01*
X221390229Y-85031051D01*
X221382635Y-85035843D01*
X221382632Y-85035844D01*
X221365220Y-85046830D01*
X221350137Y-85054969D01*
X221323218Y-85067208D01*
X221316416Y-85073069D01*
X221303765Y-85083970D01*
X221288761Y-85095073D01*
X221267042Y-85108776D01*
X221261103Y-85115501D01*
X221261099Y-85115504D01*
X221247468Y-85130938D01*
X221235276Y-85142982D01*
X221219673Y-85156427D01*
X221219671Y-85156430D01*
X221212873Y-85162287D01*
X221207993Y-85169816D01*
X221207992Y-85169817D01*
X221198906Y-85183835D01*
X221187615Y-85198709D01*
X221176569Y-85211217D01*
X221170622Y-85217951D01*
X221164312Y-85231391D01*
X221158058Y-85244711D01*
X221149737Y-85259691D01*
X221138529Y-85276983D01*
X221138527Y-85276988D01*
X221133648Y-85284515D01*
X221131078Y-85293108D01*
X221131076Y-85293113D01*
X221126289Y-85309120D01*
X221119628Y-85326564D01*
X221112533Y-85341676D01*
X221108719Y-85349800D01*
X221107338Y-85358667D01*
X221107338Y-85358668D01*
X221104170Y-85379015D01*
X221100387Y-85395732D01*
X221094485Y-85415466D01*
X221094484Y-85415472D01*
X221091914Y-85424066D01*
X221091859Y-85433037D01*
X221091859Y-85433038D01*
X221091704Y-85458497D01*
X221091671Y-85459289D01*
X221091500Y-85460386D01*
X221091500Y-85491377D01*
X221091498Y-85492147D01*
X221091024Y-85569721D01*
X221091408Y-85571065D01*
X221091500Y-85572410D01*
X221091500Y-99491377D01*
X221091498Y-99492147D01*
X221091024Y-99569721D01*
X160108124Y-99569721D01*
X160108296Y-99541494D01*
X160108329Y-99540711D01*
X160108500Y-99539614D01*
X160108500Y-99508623D01*
X160108502Y-99507853D01*
X160108952Y-99434215D01*
X160108952Y-99434214D01*
X160108976Y-99430279D01*
X160108592Y-99428935D01*
X160108500Y-99427590D01*
X160108500Y-85508623D01*
X160108502Y-85507853D01*
X160108800Y-85459102D01*
X160108976Y-85430279D01*
X160100850Y-85401847D01*
X160097272Y-85385085D01*
X160094352Y-85364698D01*
X160093080Y-85355813D01*
X160082451Y-85332436D01*
X160076004Y-85314913D01*
X160071416Y-85298862D01*
X160068949Y-85290229D01*
X160064156Y-85282632D01*
X160053170Y-85265220D01*
X160045030Y-85250135D01*
X160042564Y-85244711D01*
X160032792Y-85223218D01*
X160016030Y-85203765D01*
X160004927Y-85188761D01*
X159991224Y-85167042D01*
X159984499Y-85161103D01*
X159984496Y-85161099D01*
X159969062Y-85147468D01*
X159957018Y-85135276D01*
X159943573Y-85119673D01*
X159943570Y-85119671D01*
X159937713Y-85112873D01*
X159924009Y-85103990D01*
X159916165Y-85098906D01*
X159901291Y-85087615D01*
X159888783Y-85076569D01*
X159888782Y-85076568D01*
X159882049Y-85070622D01*
X159855287Y-85058057D01*
X159840309Y-85049737D01*
X159823017Y-85038529D01*
X159823012Y-85038527D01*
X159815485Y-85033648D01*
X159806892Y-85031078D01*
X159806887Y-85031076D01*
X159790880Y-85026289D01*
X159773436Y-85019628D01*
X159758324Y-85012533D01*
X159758322Y-85012532D01*
X159750200Y-85008719D01*
X159741333Y-85007338D01*
X159741332Y-85007338D01*
X159730478Y-85005648D01*
X159720983Y-85004170D01*
X159704268Y-85000387D01*
X159684534Y-84994485D01*
X159684528Y-84994484D01*
X159675934Y-84991914D01*
X159666963Y-84991859D01*
X159666962Y-84991859D01*
X159656903Y-84991798D01*
X159641494Y-84991704D01*
X159640711Y-84991671D01*
X159639614Y-84991500D01*
X159608623Y-84991500D01*
X159607853Y-84991498D01*
X159534215Y-84991048D01*
X159534214Y-84991048D01*
X159530279Y-84991024D01*
X159528935Y-84991408D01*
X159527590Y-84991500D01*
X145608623Y-84991500D01*
X145607853Y-84991498D01*
X145607037Y-84991493D01*
X145530279Y-84991024D01*
X145507918Y-84997415D01*
X145501847Y-84999150D01*
X145485085Y-85002728D01*
X145455813Y-85006920D01*
X145447645Y-85010634D01*
X145447644Y-85010634D01*
X145432438Y-85017548D01*
X145414914Y-85023996D01*
X145390229Y-85031051D01*
X145382635Y-85035843D01*
X145382632Y-85035844D01*
X145365220Y-85046830D01*
X145350137Y-85054969D01*
X145323218Y-85067208D01*
X145316416Y-85073069D01*
X145303765Y-85083970D01*
X145288761Y-85095073D01*
X145267042Y-85108776D01*
X145261103Y-85115501D01*
X145261099Y-85115504D01*
X145247468Y-85130938D01*
X145235276Y-85142982D01*
X145219673Y-85156427D01*
X145219671Y-85156430D01*
X145212873Y-85162287D01*
X145207993Y-85169816D01*
X145207992Y-85169817D01*
X145198906Y-85183835D01*
X145187615Y-85198709D01*
X145176569Y-85211217D01*
X145170622Y-85217951D01*
X145164312Y-85231391D01*
X145158058Y-85244711D01*
X145149737Y-85259691D01*
X145138529Y-85276983D01*
X145138527Y-85276988D01*
X145133648Y-85284515D01*
X145131078Y-85293108D01*
X145131076Y-85293113D01*
X145126289Y-85309120D01*
X145119628Y-85326564D01*
X145112533Y-85341676D01*
X145108719Y-85349800D01*
X145107338Y-85358667D01*
X145107338Y-85358668D01*
X145104170Y-85379015D01*
X145100387Y-85395732D01*
X145094485Y-85415466D01*
X145094484Y-85415472D01*
X145091914Y-85424066D01*
X145091859Y-85433037D01*
X145091859Y-85433038D01*
X145091704Y-85458497D01*
X145091671Y-85459289D01*
X145091500Y-85460386D01*
X145091500Y-85491377D01*
X145091498Y-85492147D01*
X145091024Y-85569721D01*
X145091408Y-85571065D01*
X145091500Y-85572410D01*
X145091500Y-99491377D01*
X145091498Y-99492147D01*
X145091024Y-99569721D01*
X141108124Y-99569721D01*
X141108296Y-99541494D01*
X141108329Y-99540711D01*
X141108500Y-99539614D01*
X141108500Y-99508623D01*
X141108502Y-99507853D01*
X141108952Y-99434215D01*
X141108952Y-99434214D01*
X141108976Y-99430279D01*
X141108592Y-99428935D01*
X141108500Y-99427590D01*
X141108500Y-85508623D01*
X141108502Y-85507853D01*
X141108800Y-85459102D01*
X141108976Y-85430279D01*
X141100850Y-85401847D01*
X141097272Y-85385085D01*
X141094352Y-85364698D01*
X141093080Y-85355813D01*
X141082451Y-85332436D01*
X141076004Y-85314913D01*
X141071416Y-85298862D01*
X141068949Y-85290229D01*
X141064156Y-85282632D01*
X141053170Y-85265220D01*
X141045030Y-85250135D01*
X141042564Y-85244711D01*
X141032792Y-85223218D01*
X141016030Y-85203765D01*
X141004927Y-85188761D01*
X140991224Y-85167042D01*
X140984499Y-85161103D01*
X140984496Y-85161099D01*
X140969062Y-85147468D01*
X140957018Y-85135276D01*
X140943573Y-85119673D01*
X140943570Y-85119671D01*
X140937713Y-85112873D01*
X140924009Y-85103990D01*
X140916165Y-85098906D01*
X140901291Y-85087615D01*
X140888783Y-85076569D01*
X140888782Y-85076568D01*
X140882049Y-85070622D01*
X140855287Y-85058057D01*
X140840309Y-85049737D01*
X140823017Y-85038529D01*
X140823012Y-85038527D01*
X140815485Y-85033648D01*
X140806892Y-85031078D01*
X140806887Y-85031076D01*
X140790880Y-85026289D01*
X140773436Y-85019628D01*
X140758324Y-85012533D01*
X140758322Y-85012532D01*
X140750200Y-85008719D01*
X140741333Y-85007338D01*
X140741332Y-85007338D01*
X140730478Y-85005648D01*
X140720983Y-85004170D01*
X140704268Y-85000387D01*
X140684534Y-84994485D01*
X140684528Y-84994484D01*
X140675934Y-84991914D01*
X140666963Y-84991859D01*
X140666962Y-84991859D01*
X140656903Y-84991798D01*
X140641494Y-84991704D01*
X140640711Y-84991671D01*
X140639614Y-84991500D01*
X140608623Y-84991500D01*
X140607853Y-84991498D01*
X140534215Y-84991048D01*
X140534214Y-84991048D01*
X140530279Y-84991024D01*
X140528935Y-84991408D01*
X140527590Y-84991500D01*
X126608623Y-84991500D01*
X126607853Y-84991498D01*
X126607037Y-84991493D01*
X126530279Y-84991024D01*
X126507918Y-84997415D01*
X126501847Y-84999150D01*
X126485085Y-85002728D01*
X126455813Y-85006920D01*
X126447645Y-85010634D01*
X126447644Y-85010634D01*
X126432438Y-85017548D01*
X126414914Y-85023996D01*
X126390229Y-85031051D01*
X126382635Y-85035843D01*
X126382632Y-85035844D01*
X126365220Y-85046830D01*
X126350137Y-85054969D01*
X126323218Y-85067208D01*
X126316416Y-85073069D01*
X126303765Y-85083970D01*
X126288761Y-85095073D01*
X126267042Y-85108776D01*
X126261103Y-85115501D01*
X126261099Y-85115504D01*
X126247468Y-85130938D01*
X126235276Y-85142982D01*
X126219673Y-85156427D01*
X126219671Y-85156430D01*
X126212873Y-85162287D01*
X126207993Y-85169816D01*
X126207992Y-85169817D01*
X126198906Y-85183835D01*
X126187615Y-85198709D01*
X126176569Y-85211217D01*
X126170622Y-85217951D01*
X126164312Y-85231391D01*
X126158058Y-85244711D01*
X126149737Y-85259691D01*
X126138529Y-85276983D01*
X126138527Y-85276988D01*
X126133648Y-85284515D01*
X126131078Y-85293108D01*
X126131076Y-85293113D01*
X126126289Y-85309120D01*
X126119628Y-85326564D01*
X126112533Y-85341676D01*
X126108719Y-85349800D01*
X126107338Y-85358667D01*
X126107338Y-85358668D01*
X126104170Y-85379015D01*
X126100387Y-85395732D01*
X126094485Y-85415466D01*
X126094484Y-85415472D01*
X126091914Y-85424066D01*
X126091859Y-85433037D01*
X126091859Y-85433038D01*
X126091704Y-85458497D01*
X126091671Y-85459289D01*
X126091500Y-85460386D01*
X126091500Y-85491377D01*
X126091498Y-85492147D01*
X126091024Y-85569721D01*
X126091408Y-85571065D01*
X126091500Y-85572410D01*
X126091500Y-99491377D01*
X126091498Y-99492147D01*
X126091024Y-99569721D01*
X122108124Y-99569721D01*
X122108296Y-99541494D01*
X122108329Y-99540711D01*
X122108500Y-99539614D01*
X122108500Y-99508623D01*
X122108502Y-99507853D01*
X122108952Y-99434215D01*
X122108952Y-99434214D01*
X122108976Y-99430279D01*
X122108592Y-99428935D01*
X122108500Y-99427590D01*
X122108500Y-85508623D01*
X122108502Y-85507853D01*
X122108800Y-85459102D01*
X122108976Y-85430279D01*
X122100850Y-85401847D01*
X122097272Y-85385085D01*
X122094352Y-85364698D01*
X122093080Y-85355813D01*
X122082451Y-85332436D01*
X122076004Y-85314913D01*
X122071416Y-85298862D01*
X122068949Y-85290229D01*
X122064156Y-85282632D01*
X122053170Y-85265220D01*
X122045030Y-85250135D01*
X122042564Y-85244711D01*
X122032792Y-85223218D01*
X122016030Y-85203765D01*
X122004927Y-85188761D01*
X121991224Y-85167042D01*
X121984499Y-85161103D01*
X121984496Y-85161099D01*
X121969062Y-85147468D01*
X121957018Y-85135276D01*
X121943573Y-85119673D01*
X121943570Y-85119671D01*
X121937713Y-85112873D01*
X121924009Y-85103990D01*
X121916165Y-85098906D01*
X121901291Y-85087615D01*
X121888783Y-85076569D01*
X121888782Y-85076568D01*
X121882049Y-85070622D01*
X121855287Y-85058057D01*
X121840309Y-85049737D01*
X121823017Y-85038529D01*
X121823012Y-85038527D01*
X121815485Y-85033648D01*
X121806892Y-85031078D01*
X121806887Y-85031076D01*
X121790880Y-85026289D01*
X121773436Y-85019628D01*
X121758324Y-85012533D01*
X121758322Y-85012532D01*
X121750200Y-85008719D01*
X121741333Y-85007338D01*
X121741332Y-85007338D01*
X121730478Y-85005648D01*
X121720983Y-85004170D01*
X121704268Y-85000387D01*
X121684534Y-84994485D01*
X121684528Y-84994484D01*
X121675934Y-84991914D01*
X121666963Y-84991859D01*
X121666962Y-84991859D01*
X121656903Y-84991798D01*
X121641494Y-84991704D01*
X121640711Y-84991671D01*
X121639614Y-84991500D01*
X121608623Y-84991500D01*
X121607853Y-84991498D01*
X121534215Y-84991048D01*
X121534214Y-84991048D01*
X121530279Y-84991024D01*
X121528935Y-84991408D01*
X121527590Y-84991500D01*
X107608623Y-84991500D01*
X107607853Y-84991498D01*
X107607037Y-84991493D01*
X107530279Y-84991024D01*
X107507918Y-84997415D01*
X107501847Y-84999150D01*
X107485085Y-85002728D01*
X107455813Y-85006920D01*
X107447645Y-85010634D01*
X107447644Y-85010634D01*
X107432438Y-85017548D01*
X107414914Y-85023996D01*
X107390229Y-85031051D01*
X107382635Y-85035843D01*
X107382632Y-85035844D01*
X107365220Y-85046830D01*
X107350137Y-85054969D01*
X107323218Y-85067208D01*
X107316416Y-85073069D01*
X107303765Y-85083970D01*
X107288761Y-85095073D01*
X107267042Y-85108776D01*
X107261103Y-85115501D01*
X107261099Y-85115504D01*
X107247468Y-85130938D01*
X107235276Y-85142982D01*
X107219673Y-85156427D01*
X107219671Y-85156430D01*
X107212873Y-85162287D01*
X107207993Y-85169816D01*
X107207992Y-85169817D01*
X107198906Y-85183835D01*
X107187615Y-85198709D01*
X107176569Y-85211217D01*
X107170622Y-85217951D01*
X107164312Y-85231391D01*
X107158058Y-85244711D01*
X107149737Y-85259691D01*
X107138529Y-85276983D01*
X107138527Y-85276988D01*
X107133648Y-85284515D01*
X107131078Y-85293108D01*
X107131076Y-85293113D01*
X107126289Y-85309120D01*
X107119628Y-85326564D01*
X107112533Y-85341676D01*
X107108719Y-85349800D01*
X107107338Y-85358667D01*
X107107338Y-85358668D01*
X107104170Y-85379015D01*
X107100387Y-85395732D01*
X107094485Y-85415466D01*
X107094484Y-85415472D01*
X107091914Y-85424066D01*
X107091859Y-85433037D01*
X107091859Y-85433038D01*
X107091704Y-85458497D01*
X107091671Y-85459289D01*
X107091500Y-85460386D01*
X107091500Y-85491377D01*
X107091498Y-85492147D01*
X107091024Y-85569721D01*
X107091408Y-85571065D01*
X107091500Y-85572410D01*
X107091500Y-99491377D01*
X107091498Y-99492147D01*
X107091024Y-99569721D01*
X103108124Y-99569721D01*
X103108296Y-99541494D01*
X103108329Y-99540711D01*
X103108500Y-99539614D01*
X103108500Y-99508623D01*
X103108502Y-99507853D01*
X103108952Y-99434215D01*
X103108952Y-99434214D01*
X103108976Y-99430279D01*
X103108592Y-99428935D01*
X103108500Y-99427590D01*
X103108500Y-85508623D01*
X103108502Y-85507853D01*
X103108800Y-85459102D01*
X103108976Y-85430279D01*
X103100850Y-85401847D01*
X103097272Y-85385085D01*
X103094352Y-85364698D01*
X103093080Y-85355813D01*
X103082451Y-85332436D01*
X103076004Y-85314913D01*
X103071416Y-85298862D01*
X103068949Y-85290229D01*
X103064156Y-85282632D01*
X103053170Y-85265220D01*
X103045030Y-85250135D01*
X103042564Y-85244711D01*
X103032792Y-85223218D01*
X103016030Y-85203765D01*
X103004927Y-85188761D01*
X102991224Y-85167042D01*
X102984499Y-85161103D01*
X102984496Y-85161099D01*
X102969062Y-85147468D01*
X102957018Y-85135276D01*
X102943573Y-85119673D01*
X102943570Y-85119671D01*
X102937713Y-85112873D01*
X102924009Y-85103990D01*
X102916165Y-85098906D01*
X102901291Y-85087615D01*
X102888783Y-85076569D01*
X102888782Y-85076568D01*
X102882049Y-85070622D01*
X102855287Y-85058057D01*
X102840309Y-85049737D01*
X102823017Y-85038529D01*
X102823012Y-85038527D01*
X102815485Y-85033648D01*
X102806892Y-85031078D01*
X102806887Y-85031076D01*
X102790880Y-85026289D01*
X102773436Y-85019628D01*
X102758324Y-85012533D01*
X102758322Y-85012532D01*
X102750200Y-85008719D01*
X102741333Y-85007338D01*
X102741332Y-85007338D01*
X102730478Y-85005648D01*
X102720983Y-85004170D01*
X102704268Y-85000387D01*
X102684534Y-84994485D01*
X102684528Y-84994484D01*
X102675934Y-84991914D01*
X102666963Y-84991859D01*
X102666962Y-84991859D01*
X102656903Y-84991798D01*
X102641494Y-84991704D01*
X102640711Y-84991671D01*
X102639614Y-84991500D01*
X102608623Y-84991500D01*
X102607853Y-84991498D01*
X102534215Y-84991048D01*
X102534214Y-84991048D01*
X102530279Y-84991024D01*
X102528935Y-84991408D01*
X102527590Y-84991500D01*
X88608623Y-84991500D01*
X88607853Y-84991498D01*
X88607037Y-84991493D01*
X88530279Y-84991024D01*
X88507918Y-84997415D01*
X88501847Y-84999150D01*
X88485085Y-85002728D01*
X88455813Y-85006920D01*
X88447645Y-85010634D01*
X88447644Y-85010634D01*
X88432438Y-85017548D01*
X88414914Y-85023996D01*
X88390229Y-85031051D01*
X88382635Y-85035843D01*
X88382632Y-85035844D01*
X88365220Y-85046830D01*
X88350137Y-85054969D01*
X88323218Y-85067208D01*
X88316416Y-85073069D01*
X88303765Y-85083970D01*
X88288761Y-85095073D01*
X88267042Y-85108776D01*
X88261103Y-85115501D01*
X88261099Y-85115504D01*
X88247468Y-85130938D01*
X88235276Y-85142982D01*
X88219673Y-85156427D01*
X88219671Y-85156430D01*
X88212873Y-85162287D01*
X88207993Y-85169816D01*
X88207992Y-85169817D01*
X88198906Y-85183835D01*
X88187615Y-85198709D01*
X88176569Y-85211217D01*
X88170622Y-85217951D01*
X88164312Y-85231391D01*
X88158058Y-85244711D01*
X88149737Y-85259691D01*
X88138529Y-85276983D01*
X88138527Y-85276988D01*
X88133648Y-85284515D01*
X88131078Y-85293108D01*
X88131076Y-85293113D01*
X88126289Y-85309120D01*
X88119628Y-85326564D01*
X88112533Y-85341676D01*
X88108719Y-85349800D01*
X88107338Y-85358667D01*
X88107338Y-85358668D01*
X88104170Y-85379015D01*
X88100387Y-85395732D01*
X88094485Y-85415466D01*
X88094484Y-85415472D01*
X88091914Y-85424066D01*
X88091859Y-85433037D01*
X88091859Y-85433038D01*
X88091704Y-85458497D01*
X88091671Y-85459289D01*
X88091500Y-85460386D01*
X88091500Y-85491377D01*
X88091498Y-85492147D01*
X88091024Y-85569721D01*
X88091408Y-85571065D01*
X88091500Y-85572410D01*
X88091500Y-99491377D01*
X88091498Y-99492147D01*
X88091024Y-99569721D01*
X44608500Y-99569721D01*
X44608500Y-80569721D01*
X88091024Y-80569721D01*
X88093491Y-80578352D01*
X88099150Y-80598153D01*
X88102728Y-80614915D01*
X88106920Y-80644187D01*
X88110634Y-80652355D01*
X88110634Y-80652356D01*
X88117548Y-80667562D01*
X88123996Y-80685086D01*
X88131051Y-80709771D01*
X88135843Y-80717365D01*
X88135844Y-80717368D01*
X88146830Y-80734780D01*
X88154969Y-80749863D01*
X88167208Y-80776782D01*
X88173069Y-80783584D01*
X88183970Y-80796235D01*
X88195073Y-80811239D01*
X88208776Y-80832958D01*
X88215501Y-80838897D01*
X88215504Y-80838901D01*
X88230938Y-80852532D01*
X88242982Y-80864724D01*
X88256427Y-80880327D01*
X88256430Y-80880329D01*
X88262287Y-80887127D01*
X88269816Y-80892007D01*
X88269817Y-80892008D01*
X88283835Y-80901094D01*
X88298709Y-80912385D01*
X88311217Y-80923431D01*
X88317951Y-80929378D01*
X88344711Y-80941942D01*
X88359691Y-80950263D01*
X88376983Y-80961471D01*
X88376988Y-80961473D01*
X88384515Y-80966352D01*
X88393108Y-80968922D01*
X88393113Y-80968924D01*
X88409120Y-80973711D01*
X88426564Y-80980372D01*
X88441676Y-80987467D01*
X88441678Y-80987468D01*
X88449800Y-80991281D01*
X88458667Y-80992662D01*
X88458668Y-80992662D01*
X88461353Y-80993080D01*
X88479017Y-80995830D01*
X88495732Y-80999613D01*
X88515466Y-81005515D01*
X88515472Y-81005516D01*
X88524066Y-81008086D01*
X88533037Y-81008141D01*
X88533038Y-81008141D01*
X88543097Y-81008202D01*
X88558506Y-81008296D01*
X88559289Y-81008329D01*
X88560386Y-81008500D01*
X88591377Y-81008500D01*
X88592147Y-81008502D01*
X88665785Y-81008952D01*
X88665786Y-81008952D01*
X88669721Y-81008976D01*
X88671065Y-81008592D01*
X88672410Y-81008500D01*
X102591377Y-81008500D01*
X102592148Y-81008502D01*
X102669721Y-81008976D01*
X102698152Y-81000850D01*
X102714915Y-80997272D01*
X102715753Y-80997152D01*
X102744187Y-80993080D01*
X102767564Y-80982451D01*
X102785087Y-80976004D01*
X102809771Y-80968949D01*
X102817365Y-80964157D01*
X102817368Y-80964156D01*
X102834780Y-80953170D01*
X102849865Y-80945030D01*
X102876782Y-80932792D01*
X102896235Y-80916030D01*
X102911239Y-80904927D01*
X102932958Y-80891224D01*
X102938897Y-80884499D01*
X102938901Y-80884496D01*
X102952532Y-80869062D01*
X102964724Y-80857018D01*
X102980327Y-80843573D01*
X102980329Y-80843570D01*
X102987127Y-80837713D01*
X103001094Y-80816165D01*
X103012385Y-80801291D01*
X103023431Y-80788783D01*
X103023432Y-80788782D01*
X103029378Y-80782049D01*
X103041943Y-80755287D01*
X103050263Y-80740309D01*
X103061471Y-80723017D01*
X103061473Y-80723012D01*
X103066352Y-80715485D01*
X103068922Y-80706892D01*
X103068924Y-80706887D01*
X103073711Y-80690880D01*
X103080372Y-80673436D01*
X103087467Y-80658324D01*
X103087468Y-80658322D01*
X103091281Y-80650200D01*
X103095830Y-80620983D01*
X103099613Y-80604268D01*
X103105515Y-80584534D01*
X103105516Y-80584528D01*
X103108086Y-80575934D01*
X103108124Y-80569721D01*
X107091024Y-80569721D01*
X107093491Y-80578352D01*
X107099150Y-80598153D01*
X107102728Y-80614915D01*
X107106920Y-80644187D01*
X107110634Y-80652355D01*
X107110634Y-80652356D01*
X107117548Y-80667562D01*
X107123996Y-80685086D01*
X107131051Y-80709771D01*
X107135843Y-80717365D01*
X107135844Y-80717368D01*
X107146830Y-80734780D01*
X107154969Y-80749863D01*
X107167208Y-80776782D01*
X107173069Y-80783584D01*
X107183970Y-80796235D01*
X107195073Y-80811239D01*
X107208776Y-80832958D01*
X107215501Y-80838897D01*
X107215504Y-80838901D01*
X107230938Y-80852532D01*
X107242982Y-80864724D01*
X107256427Y-80880327D01*
X107256430Y-80880329D01*
X107262287Y-80887127D01*
X107269816Y-80892007D01*
X107269817Y-80892008D01*
X107283835Y-80901094D01*
X107298709Y-80912385D01*
X107311217Y-80923431D01*
X107317951Y-80929378D01*
X107344711Y-80941942D01*
X107359691Y-80950263D01*
X107376983Y-80961471D01*
X107376988Y-80961473D01*
X107384515Y-80966352D01*
X107393108Y-80968922D01*
X107393113Y-80968924D01*
X107409120Y-80973711D01*
X107426564Y-80980372D01*
X107441676Y-80987467D01*
X107441678Y-80987468D01*
X107449800Y-80991281D01*
X107458667Y-80992662D01*
X107458668Y-80992662D01*
X107461353Y-80993080D01*
X107479017Y-80995830D01*
X107495732Y-80999613D01*
X107515466Y-81005515D01*
X107515472Y-81005516D01*
X107524066Y-81008086D01*
X107533037Y-81008141D01*
X107533038Y-81008141D01*
X107543097Y-81008202D01*
X107558506Y-81008296D01*
X107559289Y-81008329D01*
X107560386Y-81008500D01*
X107591377Y-81008500D01*
X107592147Y-81008502D01*
X107665785Y-81008952D01*
X107665786Y-81008952D01*
X107669721Y-81008976D01*
X107671065Y-81008592D01*
X107672410Y-81008500D01*
X121591377Y-81008500D01*
X121592148Y-81008502D01*
X121669721Y-81008976D01*
X121698152Y-81000850D01*
X121714915Y-80997272D01*
X121715753Y-80997152D01*
X121744187Y-80993080D01*
X121767564Y-80982451D01*
X121785087Y-80976004D01*
X121809771Y-80968949D01*
X121817365Y-80964157D01*
X121817368Y-80964156D01*
X121834780Y-80953170D01*
X121849865Y-80945030D01*
X121876782Y-80932792D01*
X121896235Y-80916030D01*
X121911239Y-80904927D01*
X121932958Y-80891224D01*
X121938897Y-80884499D01*
X121938901Y-80884496D01*
X121952532Y-80869062D01*
X121964724Y-80857018D01*
X121980327Y-80843573D01*
X121980329Y-80843570D01*
X121987127Y-80837713D01*
X122001094Y-80816165D01*
X122012385Y-80801291D01*
X122023431Y-80788783D01*
X122023432Y-80788782D01*
X122029378Y-80782049D01*
X122041943Y-80755287D01*
X122050263Y-80740309D01*
X122061471Y-80723017D01*
X122061473Y-80723012D01*
X122066352Y-80715485D01*
X122068922Y-80706892D01*
X122068924Y-80706887D01*
X122073711Y-80690880D01*
X122080372Y-80673436D01*
X122087467Y-80658324D01*
X122087468Y-80658322D01*
X122091281Y-80650200D01*
X122095830Y-80620983D01*
X122099613Y-80604268D01*
X122105515Y-80584534D01*
X122105516Y-80584528D01*
X122108086Y-80575934D01*
X122108124Y-80569721D01*
X126091024Y-80569721D01*
X126093491Y-80578352D01*
X126099150Y-80598153D01*
X126102728Y-80614915D01*
X126106920Y-80644187D01*
X126110634Y-80652355D01*
X126110634Y-80652356D01*
X126117548Y-80667562D01*
X126123996Y-80685086D01*
X126131051Y-80709771D01*
X126135843Y-80717365D01*
X126135844Y-80717368D01*
X126146830Y-80734780D01*
X126154969Y-80749863D01*
X126167208Y-80776782D01*
X126173069Y-80783584D01*
X126183970Y-80796235D01*
X126195073Y-80811239D01*
X126208776Y-80832958D01*
X126215501Y-80838897D01*
X126215504Y-80838901D01*
X126230938Y-80852532D01*
X126242982Y-80864724D01*
X126256427Y-80880327D01*
X126256430Y-80880329D01*
X126262287Y-80887127D01*
X126269816Y-80892007D01*
X126269817Y-80892008D01*
X126283835Y-80901094D01*
X126298709Y-80912385D01*
X126311217Y-80923431D01*
X126317951Y-80929378D01*
X126344711Y-80941942D01*
X126359691Y-80950263D01*
X126376983Y-80961471D01*
X126376988Y-80961473D01*
X126384515Y-80966352D01*
X126393108Y-80968922D01*
X126393113Y-80968924D01*
X126409120Y-80973711D01*
X126426564Y-80980372D01*
X126441676Y-80987467D01*
X126441678Y-80987468D01*
X126449800Y-80991281D01*
X126458667Y-80992662D01*
X126458668Y-80992662D01*
X126461353Y-80993080D01*
X126479017Y-80995830D01*
X126495732Y-80999613D01*
X126515466Y-81005515D01*
X126515472Y-81005516D01*
X126524066Y-81008086D01*
X126533037Y-81008141D01*
X126533038Y-81008141D01*
X126543097Y-81008202D01*
X126558506Y-81008296D01*
X126559289Y-81008329D01*
X126560386Y-81008500D01*
X126591377Y-81008500D01*
X126592147Y-81008502D01*
X126665785Y-81008952D01*
X126665786Y-81008952D01*
X126669721Y-81008976D01*
X126671065Y-81008592D01*
X126672410Y-81008500D01*
X140591377Y-81008500D01*
X140592148Y-81008502D01*
X140669721Y-81008976D01*
X140698152Y-81000850D01*
X140714915Y-80997272D01*
X140715753Y-80997152D01*
X140744187Y-80993080D01*
X140767564Y-80982451D01*
X140785087Y-80976004D01*
X140809771Y-80968949D01*
X140817365Y-80964157D01*
X140817368Y-80964156D01*
X140834780Y-80953170D01*
X140849865Y-80945030D01*
X140876782Y-80932792D01*
X140896235Y-80916030D01*
X140911239Y-80904927D01*
X140932958Y-80891224D01*
X140938897Y-80884499D01*
X140938901Y-80884496D01*
X140952532Y-80869062D01*
X140964724Y-80857018D01*
X140980327Y-80843573D01*
X140980329Y-80843570D01*
X140987127Y-80837713D01*
X141001094Y-80816165D01*
X141012385Y-80801291D01*
X141023431Y-80788783D01*
X141023432Y-80788782D01*
X141029378Y-80782049D01*
X141041943Y-80755287D01*
X141050263Y-80740309D01*
X141061471Y-80723017D01*
X141061473Y-80723012D01*
X141066352Y-80715485D01*
X141068922Y-80706892D01*
X141068924Y-80706887D01*
X141073711Y-80690880D01*
X141080372Y-80673436D01*
X141087467Y-80658324D01*
X141087468Y-80658322D01*
X141091281Y-80650200D01*
X141095830Y-80620983D01*
X141099613Y-80604268D01*
X141105515Y-80584534D01*
X141105516Y-80584528D01*
X141108086Y-80575934D01*
X141108124Y-80569721D01*
X145091024Y-80569721D01*
X145093491Y-80578352D01*
X145099150Y-80598153D01*
X145102728Y-80614915D01*
X145106920Y-80644187D01*
X145110634Y-80652355D01*
X145110634Y-80652356D01*
X145117548Y-80667562D01*
X145123996Y-80685086D01*
X145131051Y-80709771D01*
X145135843Y-80717365D01*
X145135844Y-80717368D01*
X145146830Y-80734780D01*
X145154969Y-80749863D01*
X145167208Y-80776782D01*
X145173069Y-80783584D01*
X145183970Y-80796235D01*
X145195073Y-80811239D01*
X145208776Y-80832958D01*
X145215501Y-80838897D01*
X145215504Y-80838901D01*
X145230938Y-80852532D01*
X145242982Y-80864724D01*
X145256427Y-80880327D01*
X145256430Y-80880329D01*
X145262287Y-80887127D01*
X145269816Y-80892007D01*
X145269817Y-80892008D01*
X145283835Y-80901094D01*
X145298709Y-80912385D01*
X145311217Y-80923431D01*
X145317951Y-80929378D01*
X145344711Y-80941942D01*
X145359691Y-80950263D01*
X145376983Y-80961471D01*
X145376988Y-80961473D01*
X145384515Y-80966352D01*
X145393108Y-80968922D01*
X145393113Y-80968924D01*
X145409120Y-80973711D01*
X145426564Y-80980372D01*
X145441676Y-80987467D01*
X145441678Y-80987468D01*
X145449800Y-80991281D01*
X145458667Y-80992662D01*
X145458668Y-80992662D01*
X145461353Y-80993080D01*
X145479017Y-80995830D01*
X145495732Y-80999613D01*
X145515466Y-81005515D01*
X145515472Y-81005516D01*
X145524066Y-81008086D01*
X145533037Y-81008141D01*
X145533038Y-81008141D01*
X145543097Y-81008202D01*
X145558506Y-81008296D01*
X145559289Y-81008329D01*
X145560386Y-81008500D01*
X145591377Y-81008500D01*
X145592147Y-81008502D01*
X145665785Y-81008952D01*
X145665786Y-81008952D01*
X145669721Y-81008976D01*
X145671065Y-81008592D01*
X145672410Y-81008500D01*
X159591377Y-81008500D01*
X159592148Y-81008502D01*
X159669721Y-81008976D01*
X159698152Y-81000850D01*
X159714915Y-80997272D01*
X159715753Y-80997152D01*
X159744187Y-80993080D01*
X159767564Y-80982451D01*
X159785087Y-80976004D01*
X159809771Y-80968949D01*
X159817365Y-80964157D01*
X159817368Y-80964156D01*
X159834780Y-80953170D01*
X159849865Y-80945030D01*
X159876782Y-80932792D01*
X159896235Y-80916030D01*
X159911239Y-80904927D01*
X159932958Y-80891224D01*
X159938897Y-80884499D01*
X159938901Y-80884496D01*
X159952532Y-80869062D01*
X159964724Y-80857018D01*
X159980327Y-80843573D01*
X159980329Y-80843570D01*
X159987127Y-80837713D01*
X160001094Y-80816165D01*
X160012385Y-80801291D01*
X160023431Y-80788783D01*
X160023432Y-80788782D01*
X160029378Y-80782049D01*
X160041943Y-80755287D01*
X160050263Y-80740309D01*
X160061471Y-80723017D01*
X160061473Y-80723012D01*
X160066352Y-80715485D01*
X160068922Y-80706892D01*
X160068924Y-80706887D01*
X160073711Y-80690880D01*
X160080372Y-80673436D01*
X160087467Y-80658324D01*
X160087468Y-80658322D01*
X160091281Y-80650200D01*
X160095830Y-80620983D01*
X160099613Y-80604268D01*
X160105515Y-80584534D01*
X160105516Y-80584528D01*
X160108086Y-80575934D01*
X160108124Y-80569721D01*
X202091024Y-80569721D01*
X202093491Y-80578352D01*
X202099150Y-80598153D01*
X202102728Y-80614915D01*
X202106920Y-80644187D01*
X202110634Y-80652355D01*
X202110634Y-80652356D01*
X202117548Y-80667562D01*
X202123996Y-80685086D01*
X202131051Y-80709771D01*
X202135843Y-80717365D01*
X202135844Y-80717368D01*
X202146830Y-80734780D01*
X202154969Y-80749863D01*
X202167208Y-80776782D01*
X202173069Y-80783584D01*
X202183970Y-80796235D01*
X202195073Y-80811239D01*
X202208776Y-80832958D01*
X202215501Y-80838897D01*
X202215504Y-80838901D01*
X202230938Y-80852532D01*
X202242982Y-80864724D01*
X202256427Y-80880327D01*
X202256430Y-80880329D01*
X202262287Y-80887127D01*
X202269816Y-80892007D01*
X202269817Y-80892008D01*
X202283835Y-80901094D01*
X202298709Y-80912385D01*
X202311217Y-80923431D01*
X202317951Y-80929378D01*
X202344711Y-80941942D01*
X202359691Y-80950263D01*
X202376983Y-80961471D01*
X202376988Y-80961473D01*
X202384515Y-80966352D01*
X202393108Y-80968922D01*
X202393113Y-80968924D01*
X202409120Y-80973711D01*
X202426564Y-80980372D01*
X202441676Y-80987467D01*
X202441678Y-80987468D01*
X202449800Y-80991281D01*
X202458667Y-80992662D01*
X202458668Y-80992662D01*
X202461353Y-80993080D01*
X202479017Y-80995830D01*
X202495732Y-80999613D01*
X202515466Y-81005515D01*
X202515472Y-81005516D01*
X202524066Y-81008086D01*
X202533037Y-81008141D01*
X202533038Y-81008141D01*
X202543097Y-81008202D01*
X202558506Y-81008296D01*
X202559289Y-81008329D01*
X202560386Y-81008500D01*
X202591377Y-81008500D01*
X202592147Y-81008502D01*
X202665785Y-81008952D01*
X202665786Y-81008952D01*
X202669721Y-81008976D01*
X202671065Y-81008592D01*
X202672410Y-81008500D01*
X216591377Y-81008500D01*
X216592148Y-81008502D01*
X216669721Y-81008976D01*
X216698152Y-81000850D01*
X216714915Y-80997272D01*
X216715753Y-80997152D01*
X216744187Y-80993080D01*
X216767564Y-80982451D01*
X216785087Y-80976004D01*
X216809771Y-80968949D01*
X216817365Y-80964157D01*
X216817368Y-80964156D01*
X216834780Y-80953170D01*
X216849865Y-80945030D01*
X216876782Y-80932792D01*
X216896235Y-80916030D01*
X216911239Y-80904927D01*
X216932958Y-80891224D01*
X216938897Y-80884499D01*
X216938901Y-80884496D01*
X216952532Y-80869062D01*
X216964724Y-80857018D01*
X216980327Y-80843573D01*
X216980329Y-80843570D01*
X216987127Y-80837713D01*
X217001094Y-80816165D01*
X217012385Y-80801291D01*
X217023431Y-80788783D01*
X217023432Y-80788782D01*
X217029378Y-80782049D01*
X217041943Y-80755287D01*
X217050263Y-80740309D01*
X217061471Y-80723017D01*
X217061473Y-80723012D01*
X217066352Y-80715485D01*
X217068922Y-80706892D01*
X217068924Y-80706887D01*
X217073711Y-80690880D01*
X217080372Y-80673436D01*
X217087467Y-80658324D01*
X217087468Y-80658322D01*
X217091281Y-80650200D01*
X217095830Y-80620983D01*
X217099613Y-80604268D01*
X217105515Y-80584534D01*
X217105516Y-80584528D01*
X217108086Y-80575934D01*
X217108124Y-80569721D01*
X221091024Y-80569721D01*
X221093491Y-80578352D01*
X221099150Y-80598153D01*
X221102728Y-80614915D01*
X221106920Y-80644187D01*
X221110634Y-80652355D01*
X221110634Y-80652356D01*
X221117548Y-80667562D01*
X221123996Y-80685086D01*
X221131051Y-80709771D01*
X221135843Y-80717365D01*
X221135844Y-80717368D01*
X221146830Y-80734780D01*
X221154969Y-80749863D01*
X221167208Y-80776782D01*
X221173069Y-80783584D01*
X221183970Y-80796235D01*
X221195073Y-80811239D01*
X221208776Y-80832958D01*
X221215501Y-80838897D01*
X221215504Y-80838901D01*
X221230938Y-80852532D01*
X221242982Y-80864724D01*
X221256427Y-80880327D01*
X221256430Y-80880329D01*
X221262287Y-80887127D01*
X221269816Y-80892007D01*
X221269817Y-80892008D01*
X221283835Y-80901094D01*
X221298709Y-80912385D01*
X221311217Y-80923431D01*
X221317951Y-80929378D01*
X221344711Y-80941942D01*
X221359691Y-80950263D01*
X221376983Y-80961471D01*
X221376988Y-80961473D01*
X221384515Y-80966352D01*
X221393108Y-80968922D01*
X221393113Y-80968924D01*
X221409120Y-80973711D01*
X221426564Y-80980372D01*
X221441676Y-80987467D01*
X221441678Y-80987468D01*
X221449800Y-80991281D01*
X221458667Y-80992662D01*
X221458668Y-80992662D01*
X221461353Y-80993080D01*
X221479017Y-80995830D01*
X221495732Y-80999613D01*
X221515466Y-81005515D01*
X221515472Y-81005516D01*
X221524066Y-81008086D01*
X221533037Y-81008141D01*
X221533038Y-81008141D01*
X221543097Y-81008202D01*
X221558506Y-81008296D01*
X221559289Y-81008329D01*
X221560386Y-81008500D01*
X221591377Y-81008500D01*
X221592147Y-81008502D01*
X221665785Y-81008952D01*
X221665786Y-81008952D01*
X221669721Y-81008976D01*
X221671065Y-81008592D01*
X221672410Y-81008500D01*
X235591377Y-81008500D01*
X235592148Y-81008502D01*
X235669721Y-81008976D01*
X235698152Y-81000850D01*
X235714915Y-80997272D01*
X235715753Y-80997152D01*
X235744187Y-80993080D01*
X235767564Y-80982451D01*
X235785087Y-80976004D01*
X235809771Y-80968949D01*
X235817365Y-80964157D01*
X235817368Y-80964156D01*
X235834780Y-80953170D01*
X235849865Y-80945030D01*
X235876782Y-80932792D01*
X235896235Y-80916030D01*
X235911239Y-80904927D01*
X235932958Y-80891224D01*
X235938897Y-80884499D01*
X235938901Y-80884496D01*
X235952532Y-80869062D01*
X235964724Y-80857018D01*
X235980327Y-80843573D01*
X235980329Y-80843570D01*
X235987127Y-80837713D01*
X236001094Y-80816165D01*
X236012385Y-80801291D01*
X236023431Y-80788783D01*
X236023432Y-80788782D01*
X236029378Y-80782049D01*
X236041943Y-80755287D01*
X236050263Y-80740309D01*
X236061471Y-80723017D01*
X236061473Y-80723012D01*
X236066352Y-80715485D01*
X236068922Y-80706892D01*
X236068924Y-80706887D01*
X236073711Y-80690880D01*
X236080372Y-80673436D01*
X236087467Y-80658324D01*
X236087468Y-80658322D01*
X236091281Y-80650200D01*
X236095830Y-80620983D01*
X236099613Y-80604268D01*
X236105515Y-80584534D01*
X236105516Y-80584528D01*
X236108086Y-80575934D01*
X236108124Y-80569721D01*
X240091024Y-80569721D01*
X240093491Y-80578352D01*
X240099150Y-80598153D01*
X240102728Y-80614915D01*
X240106920Y-80644187D01*
X240110634Y-80652355D01*
X240110634Y-80652356D01*
X240117548Y-80667562D01*
X240123996Y-80685086D01*
X240131051Y-80709771D01*
X240135843Y-80717365D01*
X240135844Y-80717368D01*
X240146830Y-80734780D01*
X240154969Y-80749863D01*
X240167208Y-80776782D01*
X240173069Y-80783584D01*
X240183970Y-80796235D01*
X240195073Y-80811239D01*
X240208776Y-80832958D01*
X240215501Y-80838897D01*
X240215504Y-80838901D01*
X240230938Y-80852532D01*
X240242982Y-80864724D01*
X240256427Y-80880327D01*
X240256430Y-80880329D01*
X240262287Y-80887127D01*
X240269816Y-80892007D01*
X240269817Y-80892008D01*
X240283835Y-80901094D01*
X240298709Y-80912385D01*
X240311217Y-80923431D01*
X240317951Y-80929378D01*
X240344711Y-80941942D01*
X240359691Y-80950263D01*
X240376983Y-80961471D01*
X240376988Y-80961473D01*
X240384515Y-80966352D01*
X240393108Y-80968922D01*
X240393113Y-80968924D01*
X240409120Y-80973711D01*
X240426564Y-80980372D01*
X240441676Y-80987467D01*
X240441678Y-80987468D01*
X240449800Y-80991281D01*
X240458667Y-80992662D01*
X240458668Y-80992662D01*
X240461353Y-80993080D01*
X240479017Y-80995830D01*
X240495732Y-80999613D01*
X240515466Y-81005515D01*
X240515472Y-81005516D01*
X240524066Y-81008086D01*
X240533037Y-81008141D01*
X240533038Y-81008141D01*
X240543097Y-81008202D01*
X240558506Y-81008296D01*
X240559289Y-81008329D01*
X240560386Y-81008500D01*
X240591377Y-81008500D01*
X240592147Y-81008502D01*
X240665785Y-81008952D01*
X240665786Y-81008952D01*
X240669721Y-81008976D01*
X240671065Y-81008592D01*
X240672410Y-81008500D01*
X254591377Y-81008500D01*
X254592148Y-81008502D01*
X254669721Y-81008976D01*
X254698152Y-81000850D01*
X254714915Y-80997272D01*
X254715753Y-80997152D01*
X254744187Y-80993080D01*
X254767564Y-80982451D01*
X254785087Y-80976004D01*
X254809771Y-80968949D01*
X254817365Y-80964157D01*
X254817368Y-80964156D01*
X254834780Y-80953170D01*
X254849865Y-80945030D01*
X254876782Y-80932792D01*
X254896235Y-80916030D01*
X254911239Y-80904927D01*
X254932958Y-80891224D01*
X254938897Y-80884499D01*
X254938901Y-80884496D01*
X254952532Y-80869062D01*
X254964724Y-80857018D01*
X254980327Y-80843573D01*
X254980329Y-80843570D01*
X254987127Y-80837713D01*
X255001094Y-80816165D01*
X255012385Y-80801291D01*
X255023431Y-80788783D01*
X255023432Y-80788782D01*
X255029378Y-80782049D01*
X255041943Y-80755287D01*
X255050263Y-80740309D01*
X255061471Y-80723017D01*
X255061473Y-80723012D01*
X255066352Y-80715485D01*
X255068922Y-80706892D01*
X255068924Y-80706887D01*
X255073711Y-80690880D01*
X255080372Y-80673436D01*
X255087467Y-80658324D01*
X255087468Y-80658322D01*
X255091281Y-80650200D01*
X255095830Y-80620983D01*
X255099613Y-80604268D01*
X255105515Y-80584534D01*
X255105516Y-80584528D01*
X255108086Y-80575934D01*
X255108296Y-80541494D01*
X255108329Y-80540711D01*
X255108500Y-80539614D01*
X255108500Y-80508623D01*
X255108502Y-80507853D01*
X255108952Y-80434215D01*
X255108952Y-80434214D01*
X255108976Y-80430279D01*
X255108592Y-80428935D01*
X255108500Y-80427590D01*
X255108500Y-66508623D01*
X255108502Y-66507853D01*
X255108800Y-66459102D01*
X255108976Y-66430279D01*
X255100850Y-66401847D01*
X255097272Y-66385085D01*
X255094352Y-66364698D01*
X255093080Y-66355813D01*
X255082451Y-66332436D01*
X255076004Y-66314913D01*
X255071416Y-66298862D01*
X255068949Y-66290229D01*
X255064156Y-66282632D01*
X255053170Y-66265220D01*
X255045030Y-66250135D01*
X255042564Y-66244711D01*
X255032792Y-66223218D01*
X255016030Y-66203765D01*
X255004927Y-66188761D01*
X254991224Y-66167042D01*
X254984499Y-66161103D01*
X254984496Y-66161099D01*
X254969062Y-66147468D01*
X254957018Y-66135276D01*
X254943573Y-66119673D01*
X254943570Y-66119671D01*
X254937713Y-66112873D01*
X254924009Y-66103990D01*
X254916165Y-66098906D01*
X254901291Y-66087615D01*
X254888783Y-66076569D01*
X254888782Y-66076568D01*
X254882049Y-66070622D01*
X254855287Y-66058057D01*
X254840309Y-66049737D01*
X254823017Y-66038529D01*
X254823012Y-66038527D01*
X254815485Y-66033648D01*
X254806892Y-66031078D01*
X254806887Y-66031076D01*
X254790880Y-66026289D01*
X254773436Y-66019628D01*
X254758324Y-66012533D01*
X254758322Y-66012532D01*
X254750200Y-66008719D01*
X254741333Y-66007338D01*
X254741332Y-66007338D01*
X254730478Y-66005648D01*
X254720983Y-66004170D01*
X254704268Y-66000387D01*
X254684534Y-65994485D01*
X254684528Y-65994484D01*
X254675934Y-65991914D01*
X254666963Y-65991859D01*
X254666962Y-65991859D01*
X254656903Y-65991798D01*
X254641494Y-65991704D01*
X254640711Y-65991671D01*
X254639614Y-65991500D01*
X254608623Y-65991500D01*
X254607853Y-65991498D01*
X254534215Y-65991048D01*
X254534214Y-65991048D01*
X254530279Y-65991024D01*
X254528935Y-65991408D01*
X254527590Y-65991500D01*
X240608623Y-65991500D01*
X240607853Y-65991498D01*
X240607037Y-65991493D01*
X240530279Y-65991024D01*
X240507918Y-65997415D01*
X240501847Y-65999150D01*
X240485085Y-66002728D01*
X240455813Y-66006920D01*
X240447645Y-66010634D01*
X240447644Y-66010634D01*
X240432438Y-66017548D01*
X240414914Y-66023996D01*
X240390229Y-66031051D01*
X240382635Y-66035843D01*
X240382632Y-66035844D01*
X240365220Y-66046830D01*
X240350137Y-66054969D01*
X240323218Y-66067208D01*
X240316416Y-66073069D01*
X240303765Y-66083970D01*
X240288761Y-66095073D01*
X240267042Y-66108776D01*
X240261103Y-66115501D01*
X240261099Y-66115504D01*
X240247468Y-66130938D01*
X240235276Y-66142982D01*
X240219673Y-66156427D01*
X240219671Y-66156430D01*
X240212873Y-66162287D01*
X240207993Y-66169816D01*
X240207992Y-66169817D01*
X240198906Y-66183835D01*
X240187615Y-66198709D01*
X240176569Y-66211217D01*
X240170622Y-66217951D01*
X240164312Y-66231391D01*
X240158058Y-66244711D01*
X240149737Y-66259691D01*
X240138529Y-66276983D01*
X240138527Y-66276988D01*
X240133648Y-66284515D01*
X240131078Y-66293108D01*
X240131076Y-66293113D01*
X240126289Y-66309120D01*
X240119628Y-66326564D01*
X240112533Y-66341676D01*
X240108719Y-66349800D01*
X240107338Y-66358667D01*
X240107338Y-66358668D01*
X240104170Y-66379015D01*
X240100387Y-66395732D01*
X240094485Y-66415466D01*
X240094484Y-66415472D01*
X240091914Y-66424066D01*
X240091859Y-66433037D01*
X240091859Y-66433038D01*
X240091704Y-66458497D01*
X240091671Y-66459289D01*
X240091500Y-66460386D01*
X240091500Y-66491377D01*
X240091498Y-66492147D01*
X240091024Y-66569721D01*
X240091408Y-66571065D01*
X240091500Y-66572410D01*
X240091500Y-80491377D01*
X240091498Y-80492147D01*
X240091024Y-80569721D01*
X236108124Y-80569721D01*
X236108296Y-80541494D01*
X236108329Y-80540711D01*
X236108500Y-80539614D01*
X236108500Y-80508623D01*
X236108502Y-80507853D01*
X236108952Y-80434215D01*
X236108952Y-80434214D01*
X236108976Y-80430279D01*
X236108592Y-80428935D01*
X236108500Y-80427590D01*
X236108500Y-66508623D01*
X236108502Y-66507853D01*
X236108800Y-66459102D01*
X236108976Y-66430279D01*
X236100850Y-66401847D01*
X236097272Y-66385085D01*
X236094352Y-66364698D01*
X236093080Y-66355813D01*
X236082451Y-66332436D01*
X236076004Y-66314913D01*
X236071416Y-66298862D01*
X236068949Y-66290229D01*
X236064156Y-66282632D01*
X236053170Y-66265220D01*
X236045030Y-66250135D01*
X236042564Y-66244711D01*
X236032792Y-66223218D01*
X236016030Y-66203765D01*
X236004927Y-66188761D01*
X235991224Y-66167042D01*
X235984499Y-66161103D01*
X235984496Y-66161099D01*
X235969062Y-66147468D01*
X235957018Y-66135276D01*
X235943573Y-66119673D01*
X235943570Y-66119671D01*
X235937713Y-66112873D01*
X235924009Y-66103990D01*
X235916165Y-66098906D01*
X235901291Y-66087615D01*
X235888783Y-66076569D01*
X235888782Y-66076568D01*
X235882049Y-66070622D01*
X235855287Y-66058057D01*
X235840309Y-66049737D01*
X235823017Y-66038529D01*
X235823012Y-66038527D01*
X235815485Y-66033648D01*
X235806892Y-66031078D01*
X235806887Y-66031076D01*
X235790880Y-66026289D01*
X235773436Y-66019628D01*
X235758324Y-66012533D01*
X235758322Y-66012532D01*
X235750200Y-66008719D01*
X235741333Y-66007338D01*
X235741332Y-66007338D01*
X235730478Y-66005648D01*
X235720983Y-66004170D01*
X235704268Y-66000387D01*
X235684534Y-65994485D01*
X235684528Y-65994484D01*
X235675934Y-65991914D01*
X235666963Y-65991859D01*
X235666962Y-65991859D01*
X235656903Y-65991798D01*
X235641494Y-65991704D01*
X235640711Y-65991671D01*
X235639614Y-65991500D01*
X235608623Y-65991500D01*
X235607853Y-65991498D01*
X235534215Y-65991048D01*
X235534214Y-65991048D01*
X235530279Y-65991024D01*
X235528935Y-65991408D01*
X235527590Y-65991500D01*
X221608623Y-65991500D01*
X221607853Y-65991498D01*
X221607037Y-65991493D01*
X221530279Y-65991024D01*
X221507918Y-65997415D01*
X221501847Y-65999150D01*
X221485085Y-66002728D01*
X221455813Y-66006920D01*
X221447645Y-66010634D01*
X221447644Y-66010634D01*
X221432438Y-66017548D01*
X221414914Y-66023996D01*
X221390229Y-66031051D01*
X221382635Y-66035843D01*
X221382632Y-66035844D01*
X221365220Y-66046830D01*
X221350137Y-66054969D01*
X221323218Y-66067208D01*
X221316416Y-66073069D01*
X221303765Y-66083970D01*
X221288761Y-66095073D01*
X221267042Y-66108776D01*
X221261103Y-66115501D01*
X221261099Y-66115504D01*
X221247468Y-66130938D01*
X221235276Y-66142982D01*
X221219673Y-66156427D01*
X221219671Y-66156430D01*
X221212873Y-66162287D01*
X221207993Y-66169816D01*
X221207992Y-66169817D01*
X221198906Y-66183835D01*
X221187615Y-66198709D01*
X221176569Y-66211217D01*
X221170622Y-66217951D01*
X221164312Y-66231391D01*
X221158058Y-66244711D01*
X221149737Y-66259691D01*
X221138529Y-66276983D01*
X221138527Y-66276988D01*
X221133648Y-66284515D01*
X221131078Y-66293108D01*
X221131076Y-66293113D01*
X221126289Y-66309120D01*
X221119628Y-66326564D01*
X221112533Y-66341676D01*
X221108719Y-66349800D01*
X221107338Y-66358667D01*
X221107338Y-66358668D01*
X221104170Y-66379015D01*
X221100387Y-66395732D01*
X221094485Y-66415466D01*
X221094484Y-66415472D01*
X221091914Y-66424066D01*
X221091859Y-66433037D01*
X221091859Y-66433038D01*
X221091704Y-66458497D01*
X221091671Y-66459289D01*
X221091500Y-66460386D01*
X221091500Y-66491377D01*
X221091498Y-66492147D01*
X221091024Y-66569721D01*
X221091408Y-66571065D01*
X221091500Y-66572410D01*
X221091500Y-80491377D01*
X221091498Y-80492147D01*
X221091024Y-80569721D01*
X217108124Y-80569721D01*
X217108296Y-80541494D01*
X217108329Y-80540711D01*
X217108500Y-80539614D01*
X217108500Y-80508623D01*
X217108502Y-80507853D01*
X217108952Y-80434215D01*
X217108952Y-80434214D01*
X217108976Y-80430279D01*
X217108592Y-80428935D01*
X217108500Y-80427590D01*
X217108500Y-66508623D01*
X217108502Y-66507853D01*
X217108800Y-66459102D01*
X217108976Y-66430279D01*
X217100850Y-66401847D01*
X217097272Y-66385085D01*
X217094352Y-66364698D01*
X217093080Y-66355813D01*
X217082451Y-66332436D01*
X217076004Y-66314913D01*
X217071416Y-66298862D01*
X217068949Y-66290229D01*
X217064156Y-66282632D01*
X217053170Y-66265220D01*
X217045030Y-66250135D01*
X217042564Y-66244711D01*
X217032792Y-66223218D01*
X217016030Y-66203765D01*
X217004927Y-66188761D01*
X216991224Y-66167042D01*
X216984499Y-66161103D01*
X216984496Y-66161099D01*
X216969062Y-66147468D01*
X216957018Y-66135276D01*
X216943573Y-66119673D01*
X216943570Y-66119671D01*
X216937713Y-66112873D01*
X216924009Y-66103990D01*
X216916165Y-66098906D01*
X216901291Y-66087615D01*
X216888783Y-66076569D01*
X216888782Y-66076568D01*
X216882049Y-66070622D01*
X216855287Y-66058057D01*
X216840309Y-66049737D01*
X216823017Y-66038529D01*
X216823012Y-66038527D01*
X216815485Y-66033648D01*
X216806892Y-66031078D01*
X216806887Y-66031076D01*
X216790880Y-66026289D01*
X216773436Y-66019628D01*
X216758324Y-66012533D01*
X216758322Y-66012532D01*
X216750200Y-66008719D01*
X216741333Y-66007338D01*
X216741332Y-66007338D01*
X216730478Y-66005648D01*
X216720983Y-66004170D01*
X216704268Y-66000387D01*
X216684534Y-65994485D01*
X216684528Y-65994484D01*
X216675934Y-65991914D01*
X216666963Y-65991859D01*
X216666962Y-65991859D01*
X216656903Y-65991798D01*
X216641494Y-65991704D01*
X216640711Y-65991671D01*
X216639614Y-65991500D01*
X216608623Y-65991500D01*
X216607853Y-65991498D01*
X216534215Y-65991048D01*
X216534214Y-65991048D01*
X216530279Y-65991024D01*
X216528935Y-65991408D01*
X216527590Y-65991500D01*
X202608623Y-65991500D01*
X202607853Y-65991498D01*
X202607037Y-65991493D01*
X202530279Y-65991024D01*
X202507918Y-65997415D01*
X202501847Y-65999150D01*
X202485085Y-66002728D01*
X202455813Y-66006920D01*
X202447645Y-66010634D01*
X202447644Y-66010634D01*
X202432438Y-66017548D01*
X202414914Y-66023996D01*
X202390229Y-66031051D01*
X202382635Y-66035843D01*
X202382632Y-66035844D01*
X202365220Y-66046830D01*
X202350137Y-66054969D01*
X202323218Y-66067208D01*
X202316416Y-66073069D01*
X202303765Y-66083970D01*
X202288761Y-66095073D01*
X202267042Y-66108776D01*
X202261103Y-66115501D01*
X202261099Y-66115504D01*
X202247468Y-66130938D01*
X202235276Y-66142982D01*
X202219673Y-66156427D01*
X202219671Y-66156430D01*
X202212873Y-66162287D01*
X202207993Y-66169816D01*
X202207992Y-66169817D01*
X202198906Y-66183835D01*
X202187615Y-66198709D01*
X202176569Y-66211217D01*
X202170622Y-66217951D01*
X202164312Y-66231391D01*
X202158058Y-66244711D01*
X202149737Y-66259691D01*
X202138529Y-66276983D01*
X202138527Y-66276988D01*
X202133648Y-66284515D01*
X202131078Y-66293108D01*
X202131076Y-66293113D01*
X202126289Y-66309120D01*
X202119628Y-66326564D01*
X202112533Y-66341676D01*
X202108719Y-66349800D01*
X202107338Y-66358667D01*
X202107338Y-66358668D01*
X202104170Y-66379015D01*
X202100387Y-66395732D01*
X202094485Y-66415466D01*
X202094484Y-66415472D01*
X202091914Y-66424066D01*
X202091859Y-66433037D01*
X202091859Y-66433038D01*
X202091704Y-66458497D01*
X202091671Y-66459289D01*
X202091500Y-66460386D01*
X202091500Y-66491377D01*
X202091498Y-66492147D01*
X202091024Y-66569721D01*
X202091408Y-66571065D01*
X202091500Y-66572410D01*
X202091500Y-80491377D01*
X202091498Y-80492147D01*
X202091024Y-80569721D01*
X160108124Y-80569721D01*
X160108296Y-80541494D01*
X160108329Y-80540711D01*
X160108500Y-80539614D01*
X160108500Y-80508623D01*
X160108502Y-80507853D01*
X160108952Y-80434215D01*
X160108952Y-80434214D01*
X160108976Y-80430279D01*
X160108592Y-80428935D01*
X160108500Y-80427590D01*
X160108500Y-66508623D01*
X160108502Y-66507853D01*
X160108800Y-66459102D01*
X160108976Y-66430279D01*
X160100850Y-66401847D01*
X160097272Y-66385085D01*
X160094352Y-66364698D01*
X160093080Y-66355813D01*
X160082451Y-66332436D01*
X160076004Y-66314913D01*
X160071416Y-66298862D01*
X160068949Y-66290229D01*
X160064156Y-66282632D01*
X160053170Y-66265220D01*
X160045030Y-66250135D01*
X160042564Y-66244711D01*
X160032792Y-66223218D01*
X160016030Y-66203765D01*
X160004927Y-66188761D01*
X159991224Y-66167042D01*
X159984499Y-66161103D01*
X159984496Y-66161099D01*
X159969062Y-66147468D01*
X159957018Y-66135276D01*
X159943573Y-66119673D01*
X159943570Y-66119671D01*
X159937713Y-66112873D01*
X159924009Y-66103990D01*
X159916165Y-66098906D01*
X159901291Y-66087615D01*
X159888783Y-66076569D01*
X159888782Y-66076568D01*
X159882049Y-66070622D01*
X159855287Y-66058057D01*
X159840309Y-66049737D01*
X159823017Y-66038529D01*
X159823012Y-66038527D01*
X159815485Y-66033648D01*
X159806892Y-66031078D01*
X159806887Y-66031076D01*
X159790880Y-66026289D01*
X159773436Y-66019628D01*
X159758324Y-66012533D01*
X159758322Y-66012532D01*
X159750200Y-66008719D01*
X159741333Y-66007338D01*
X159741332Y-66007338D01*
X159730478Y-66005648D01*
X159720983Y-66004170D01*
X159704268Y-66000387D01*
X159684534Y-65994485D01*
X159684528Y-65994484D01*
X159675934Y-65991914D01*
X159666963Y-65991859D01*
X159666962Y-65991859D01*
X159656903Y-65991798D01*
X159641494Y-65991704D01*
X159640711Y-65991671D01*
X159639614Y-65991500D01*
X159608623Y-65991500D01*
X159607853Y-65991498D01*
X159534215Y-65991048D01*
X159534214Y-65991048D01*
X159530279Y-65991024D01*
X159528935Y-65991408D01*
X159527590Y-65991500D01*
X145608623Y-65991500D01*
X145607853Y-65991498D01*
X145607037Y-65991493D01*
X145530279Y-65991024D01*
X145507918Y-65997415D01*
X145501847Y-65999150D01*
X145485085Y-66002728D01*
X145455813Y-66006920D01*
X145447645Y-66010634D01*
X145447644Y-66010634D01*
X145432438Y-66017548D01*
X145414914Y-66023996D01*
X145390229Y-66031051D01*
X145382635Y-66035843D01*
X145382632Y-66035844D01*
X145365220Y-66046830D01*
X145350137Y-66054969D01*
X145323218Y-66067208D01*
X145316416Y-66073069D01*
X145303765Y-66083970D01*
X145288761Y-66095073D01*
X145267042Y-66108776D01*
X145261103Y-66115501D01*
X145261099Y-66115504D01*
X145247468Y-66130938D01*
X145235276Y-66142982D01*
X145219673Y-66156427D01*
X145219671Y-66156430D01*
X145212873Y-66162287D01*
X145207993Y-66169816D01*
X145207992Y-66169817D01*
X145198906Y-66183835D01*
X145187615Y-66198709D01*
X145176569Y-66211217D01*
X145170622Y-66217951D01*
X145164312Y-66231391D01*
X145158058Y-66244711D01*
X145149737Y-66259691D01*
X145138529Y-66276983D01*
X145138527Y-66276988D01*
X145133648Y-66284515D01*
X145131078Y-66293108D01*
X145131076Y-66293113D01*
X145126289Y-66309120D01*
X145119628Y-66326564D01*
X145112533Y-66341676D01*
X145108719Y-66349800D01*
X145107338Y-66358667D01*
X145107338Y-66358668D01*
X145104170Y-66379015D01*
X145100387Y-66395732D01*
X145094485Y-66415466D01*
X145094484Y-66415472D01*
X145091914Y-66424066D01*
X145091859Y-66433037D01*
X145091859Y-66433038D01*
X145091704Y-66458497D01*
X145091671Y-66459289D01*
X145091500Y-66460386D01*
X145091500Y-66491377D01*
X145091498Y-66492147D01*
X145091024Y-66569721D01*
X145091408Y-66571065D01*
X145091500Y-66572410D01*
X145091500Y-80491377D01*
X145091498Y-80492147D01*
X145091024Y-80569721D01*
X141108124Y-80569721D01*
X141108296Y-80541494D01*
X141108329Y-80540711D01*
X141108500Y-80539614D01*
X141108500Y-80508623D01*
X141108502Y-80507853D01*
X141108952Y-80434215D01*
X141108952Y-80434214D01*
X141108976Y-80430279D01*
X141108592Y-80428935D01*
X141108500Y-80427590D01*
X141108500Y-66508623D01*
X141108502Y-66507853D01*
X141108800Y-66459102D01*
X141108976Y-66430279D01*
X141100850Y-66401847D01*
X141097272Y-66385085D01*
X141094352Y-66364698D01*
X141093080Y-66355813D01*
X141082451Y-66332436D01*
X141076004Y-66314913D01*
X141071416Y-66298862D01*
X141068949Y-66290229D01*
X141064156Y-66282632D01*
X141053170Y-66265220D01*
X141045030Y-66250135D01*
X141042564Y-66244711D01*
X141032792Y-66223218D01*
X141016030Y-66203765D01*
X141004927Y-66188761D01*
X140991224Y-66167042D01*
X140984499Y-66161103D01*
X140984496Y-66161099D01*
X140969062Y-66147468D01*
X140957018Y-66135276D01*
X140943573Y-66119673D01*
X140943570Y-66119671D01*
X140937713Y-66112873D01*
X140924009Y-66103990D01*
X140916165Y-66098906D01*
X140901291Y-66087615D01*
X140888783Y-66076569D01*
X140888782Y-66076568D01*
X140882049Y-66070622D01*
X140855287Y-66058057D01*
X140840309Y-66049737D01*
X140823017Y-66038529D01*
X140823012Y-66038527D01*
X140815485Y-66033648D01*
X140806892Y-66031078D01*
X140806887Y-66031076D01*
X140790880Y-66026289D01*
X140773436Y-66019628D01*
X140758324Y-66012533D01*
X140758322Y-66012532D01*
X140750200Y-66008719D01*
X140741333Y-66007338D01*
X140741332Y-66007338D01*
X140730478Y-66005648D01*
X140720983Y-66004170D01*
X140704268Y-66000387D01*
X140684534Y-65994485D01*
X140684528Y-65994484D01*
X140675934Y-65991914D01*
X140666963Y-65991859D01*
X140666962Y-65991859D01*
X140656903Y-65991798D01*
X140641494Y-65991704D01*
X140640711Y-65991671D01*
X140639614Y-65991500D01*
X140608623Y-65991500D01*
X140607853Y-65991498D01*
X140534215Y-65991048D01*
X140534214Y-65991048D01*
X140530279Y-65991024D01*
X140528935Y-65991408D01*
X140527590Y-65991500D01*
X126608623Y-65991500D01*
X126607853Y-65991498D01*
X126607037Y-65991493D01*
X126530279Y-65991024D01*
X126507918Y-65997415D01*
X126501847Y-65999150D01*
X126485085Y-66002728D01*
X126455813Y-66006920D01*
X126447645Y-66010634D01*
X126447644Y-66010634D01*
X126432438Y-66017548D01*
X126414914Y-66023996D01*
X126390229Y-66031051D01*
X126382635Y-66035843D01*
X126382632Y-66035844D01*
X126365220Y-66046830D01*
X126350137Y-66054969D01*
X126323218Y-66067208D01*
X126316416Y-66073069D01*
X126303765Y-66083970D01*
X126288761Y-66095073D01*
X126267042Y-66108776D01*
X126261103Y-66115501D01*
X126261099Y-66115504D01*
X126247468Y-66130938D01*
X126235276Y-66142982D01*
X126219673Y-66156427D01*
X126219671Y-66156430D01*
X126212873Y-66162287D01*
X126207993Y-66169816D01*
X126207992Y-66169817D01*
X126198906Y-66183835D01*
X126187615Y-66198709D01*
X126176569Y-66211217D01*
X126170622Y-66217951D01*
X126164312Y-66231391D01*
X126158058Y-66244711D01*
X126149737Y-66259691D01*
X126138529Y-66276983D01*
X126138527Y-66276988D01*
X126133648Y-66284515D01*
X126131078Y-66293108D01*
X126131076Y-66293113D01*
X126126289Y-66309120D01*
X126119628Y-66326564D01*
X126112533Y-66341676D01*
X126108719Y-66349800D01*
X126107338Y-66358667D01*
X126107338Y-66358668D01*
X126104170Y-66379015D01*
X126100387Y-66395732D01*
X126094485Y-66415466D01*
X126094484Y-66415472D01*
X126091914Y-66424066D01*
X126091859Y-66433037D01*
X126091859Y-66433038D01*
X126091704Y-66458497D01*
X126091671Y-66459289D01*
X126091500Y-66460386D01*
X126091500Y-66491377D01*
X126091498Y-66492147D01*
X126091024Y-66569721D01*
X126091408Y-66571065D01*
X126091500Y-66572410D01*
X126091500Y-80491377D01*
X126091498Y-80492147D01*
X126091024Y-80569721D01*
X122108124Y-80569721D01*
X122108296Y-80541494D01*
X122108329Y-80540711D01*
X122108500Y-80539614D01*
X122108500Y-80508623D01*
X122108502Y-80507853D01*
X122108952Y-80434215D01*
X122108952Y-80434214D01*
X122108976Y-80430279D01*
X122108592Y-80428935D01*
X122108500Y-80427590D01*
X122108500Y-66508623D01*
X122108502Y-66507853D01*
X122108800Y-66459102D01*
X122108976Y-66430279D01*
X122100850Y-66401847D01*
X122097272Y-66385085D01*
X122094352Y-66364698D01*
X122093080Y-66355813D01*
X122082451Y-66332436D01*
X122076004Y-66314913D01*
X122071416Y-66298862D01*
X122068949Y-66290229D01*
X122064156Y-66282632D01*
X122053170Y-66265220D01*
X122045030Y-66250135D01*
X122042564Y-66244711D01*
X122032792Y-66223218D01*
X122016030Y-66203765D01*
X122004927Y-66188761D01*
X121991224Y-66167042D01*
X121984499Y-66161103D01*
X121984496Y-66161099D01*
X121969062Y-66147468D01*
X121957018Y-66135276D01*
X121943573Y-66119673D01*
X121943570Y-66119671D01*
X121937713Y-66112873D01*
X121924009Y-66103990D01*
X121916165Y-66098906D01*
X121901291Y-66087615D01*
X121888783Y-66076569D01*
X121888782Y-66076568D01*
X121882049Y-66070622D01*
X121855287Y-66058057D01*
X121840309Y-66049737D01*
X121823017Y-66038529D01*
X121823012Y-66038527D01*
X121815485Y-66033648D01*
X121806892Y-66031078D01*
X121806887Y-66031076D01*
X121790880Y-66026289D01*
X121773436Y-66019628D01*
X121758324Y-66012533D01*
X121758322Y-66012532D01*
X121750200Y-66008719D01*
X121741333Y-66007338D01*
X121741332Y-66007338D01*
X121730478Y-66005648D01*
X121720983Y-66004170D01*
X121704268Y-66000387D01*
X121684534Y-65994485D01*
X121684528Y-65994484D01*
X121675934Y-65991914D01*
X121666963Y-65991859D01*
X121666962Y-65991859D01*
X121656903Y-65991798D01*
X121641494Y-65991704D01*
X121640711Y-65991671D01*
X121639614Y-65991500D01*
X121608623Y-65991500D01*
X121607853Y-65991498D01*
X121534215Y-65991048D01*
X121534214Y-65991048D01*
X121530279Y-65991024D01*
X121528935Y-65991408D01*
X121527590Y-65991500D01*
X107608623Y-65991500D01*
X107607853Y-65991498D01*
X107607037Y-65991493D01*
X107530279Y-65991024D01*
X107507918Y-65997415D01*
X107501847Y-65999150D01*
X107485085Y-66002728D01*
X107455813Y-66006920D01*
X107447645Y-66010634D01*
X107447644Y-66010634D01*
X107432438Y-66017548D01*
X107414914Y-66023996D01*
X107390229Y-66031051D01*
X107382635Y-66035843D01*
X107382632Y-66035844D01*
X107365220Y-66046830D01*
X107350137Y-66054969D01*
X107323218Y-66067208D01*
X107316416Y-66073069D01*
X107303765Y-66083970D01*
X107288761Y-66095073D01*
X107267042Y-66108776D01*
X107261103Y-66115501D01*
X107261099Y-66115504D01*
X107247468Y-66130938D01*
X107235276Y-66142982D01*
X107219673Y-66156427D01*
X107219671Y-66156430D01*
X107212873Y-66162287D01*
X107207993Y-66169816D01*
X107207992Y-66169817D01*
X107198906Y-66183835D01*
X107187615Y-66198709D01*
X107176569Y-66211217D01*
X107170622Y-66217951D01*
X107164312Y-66231391D01*
X107158058Y-66244711D01*
X107149737Y-66259691D01*
X107138529Y-66276983D01*
X107138527Y-66276988D01*
X107133648Y-66284515D01*
X107131078Y-66293108D01*
X107131076Y-66293113D01*
X107126289Y-66309120D01*
X107119628Y-66326564D01*
X107112533Y-66341676D01*
X107108719Y-66349800D01*
X107107338Y-66358667D01*
X107107338Y-66358668D01*
X107104170Y-66379015D01*
X107100387Y-66395732D01*
X107094485Y-66415466D01*
X107094484Y-66415472D01*
X107091914Y-66424066D01*
X107091859Y-66433037D01*
X107091859Y-66433038D01*
X107091704Y-66458497D01*
X107091671Y-66459289D01*
X107091500Y-66460386D01*
X107091500Y-66491377D01*
X107091498Y-66492147D01*
X107091024Y-66569721D01*
X107091408Y-66571065D01*
X107091500Y-66572410D01*
X107091500Y-80491377D01*
X107091498Y-80492147D01*
X107091024Y-80569721D01*
X103108124Y-80569721D01*
X103108296Y-80541494D01*
X103108329Y-80540711D01*
X103108500Y-80539614D01*
X103108500Y-80508623D01*
X103108502Y-80507853D01*
X103108952Y-80434215D01*
X103108952Y-80434214D01*
X103108976Y-80430279D01*
X103108592Y-80428935D01*
X103108500Y-80427590D01*
X103108500Y-66508623D01*
X103108502Y-66507853D01*
X103108800Y-66459102D01*
X103108976Y-66430279D01*
X103100850Y-66401847D01*
X103097272Y-66385085D01*
X103094352Y-66364698D01*
X103093080Y-66355813D01*
X103082451Y-66332436D01*
X103076004Y-66314913D01*
X103071416Y-66298862D01*
X103068949Y-66290229D01*
X103064156Y-66282632D01*
X103053170Y-66265220D01*
X103045030Y-66250135D01*
X103042564Y-66244711D01*
X103032792Y-66223218D01*
X103016030Y-66203765D01*
X103004927Y-66188761D01*
X102991224Y-66167042D01*
X102984499Y-66161103D01*
X102984496Y-66161099D01*
X102969062Y-66147468D01*
X102957018Y-66135276D01*
X102943573Y-66119673D01*
X102943570Y-66119671D01*
X102937713Y-66112873D01*
X102924009Y-66103990D01*
X102916165Y-66098906D01*
X102901291Y-66087615D01*
X102888783Y-66076569D01*
X102888782Y-66076568D01*
X102882049Y-66070622D01*
X102855287Y-66058057D01*
X102840309Y-66049737D01*
X102823017Y-66038529D01*
X102823012Y-66038527D01*
X102815485Y-66033648D01*
X102806892Y-66031078D01*
X102806887Y-66031076D01*
X102790880Y-66026289D01*
X102773436Y-66019628D01*
X102758324Y-66012533D01*
X102758322Y-66012532D01*
X102750200Y-66008719D01*
X102741333Y-66007338D01*
X102741332Y-66007338D01*
X102730478Y-66005648D01*
X102720983Y-66004170D01*
X102704268Y-66000387D01*
X102684534Y-65994485D01*
X102684528Y-65994484D01*
X102675934Y-65991914D01*
X102666963Y-65991859D01*
X102666962Y-65991859D01*
X102656903Y-65991798D01*
X102641494Y-65991704D01*
X102640711Y-65991671D01*
X102639614Y-65991500D01*
X102608623Y-65991500D01*
X102607853Y-65991498D01*
X102534215Y-65991048D01*
X102534214Y-65991048D01*
X102530279Y-65991024D01*
X102528935Y-65991408D01*
X102527590Y-65991500D01*
X88608623Y-65991500D01*
X88607853Y-65991498D01*
X88607037Y-65991493D01*
X88530279Y-65991024D01*
X88507918Y-65997415D01*
X88501847Y-65999150D01*
X88485085Y-66002728D01*
X88455813Y-66006920D01*
X88447645Y-66010634D01*
X88447644Y-66010634D01*
X88432438Y-66017548D01*
X88414914Y-66023996D01*
X88390229Y-66031051D01*
X88382635Y-66035843D01*
X88382632Y-66035844D01*
X88365220Y-66046830D01*
X88350137Y-66054969D01*
X88323218Y-66067208D01*
X88316416Y-66073069D01*
X88303765Y-66083970D01*
X88288761Y-66095073D01*
X88267042Y-66108776D01*
X88261103Y-66115501D01*
X88261099Y-66115504D01*
X88247468Y-66130938D01*
X88235276Y-66142982D01*
X88219673Y-66156427D01*
X88219671Y-66156430D01*
X88212873Y-66162287D01*
X88207993Y-66169816D01*
X88207992Y-66169817D01*
X88198906Y-66183835D01*
X88187615Y-66198709D01*
X88176569Y-66211217D01*
X88170622Y-66217951D01*
X88164312Y-66231391D01*
X88158058Y-66244711D01*
X88149737Y-66259691D01*
X88138529Y-66276983D01*
X88138527Y-66276988D01*
X88133648Y-66284515D01*
X88131078Y-66293108D01*
X88131076Y-66293113D01*
X88126289Y-66309120D01*
X88119628Y-66326564D01*
X88112533Y-66341676D01*
X88108719Y-66349800D01*
X88107338Y-66358667D01*
X88107338Y-66358668D01*
X88104170Y-66379015D01*
X88100387Y-66395732D01*
X88094485Y-66415466D01*
X88094484Y-66415472D01*
X88091914Y-66424066D01*
X88091859Y-66433037D01*
X88091859Y-66433038D01*
X88091704Y-66458497D01*
X88091671Y-66459289D01*
X88091500Y-66460386D01*
X88091500Y-66491377D01*
X88091498Y-66492147D01*
X88091024Y-66569721D01*
X88091408Y-66571065D01*
X88091500Y-66572410D01*
X88091500Y-80491377D01*
X88091498Y-80492147D01*
X88091024Y-80569721D01*
X44608500Y-80569721D01*
X44608500Y-61569721D01*
X88091024Y-61569721D01*
X88093491Y-61578352D01*
X88099150Y-61598153D01*
X88102728Y-61614915D01*
X88106920Y-61644187D01*
X88110634Y-61652355D01*
X88110634Y-61652356D01*
X88117548Y-61667562D01*
X88123996Y-61685086D01*
X88131051Y-61709771D01*
X88135843Y-61717365D01*
X88135844Y-61717368D01*
X88146830Y-61734780D01*
X88154969Y-61749863D01*
X88167208Y-61776782D01*
X88173069Y-61783584D01*
X88183970Y-61796235D01*
X88195073Y-61811239D01*
X88208776Y-61832958D01*
X88215501Y-61838897D01*
X88215504Y-61838901D01*
X88230938Y-61852532D01*
X88242982Y-61864724D01*
X88256427Y-61880327D01*
X88256430Y-61880329D01*
X88262287Y-61887127D01*
X88269816Y-61892007D01*
X88269817Y-61892008D01*
X88283835Y-61901094D01*
X88298709Y-61912385D01*
X88311217Y-61923431D01*
X88317951Y-61929378D01*
X88344711Y-61941942D01*
X88359691Y-61950263D01*
X88376983Y-61961471D01*
X88376988Y-61961473D01*
X88384515Y-61966352D01*
X88393108Y-61968922D01*
X88393113Y-61968924D01*
X88409120Y-61973711D01*
X88426564Y-61980372D01*
X88441676Y-61987467D01*
X88441678Y-61987468D01*
X88449800Y-61991281D01*
X88458667Y-61992662D01*
X88458668Y-61992662D01*
X88461353Y-61993080D01*
X88479017Y-61995830D01*
X88495732Y-61999613D01*
X88515466Y-62005515D01*
X88515472Y-62005516D01*
X88524066Y-62008086D01*
X88533037Y-62008141D01*
X88533038Y-62008141D01*
X88543097Y-62008202D01*
X88558506Y-62008296D01*
X88559289Y-62008329D01*
X88560386Y-62008500D01*
X88591377Y-62008500D01*
X88592147Y-62008502D01*
X88665785Y-62008952D01*
X88665786Y-62008952D01*
X88669721Y-62008976D01*
X88671065Y-62008592D01*
X88672410Y-62008500D01*
X102591377Y-62008500D01*
X102592148Y-62008502D01*
X102669721Y-62008976D01*
X102698152Y-62000850D01*
X102714915Y-61997272D01*
X102715753Y-61997152D01*
X102744187Y-61993080D01*
X102767564Y-61982451D01*
X102785087Y-61976004D01*
X102809771Y-61968949D01*
X102817365Y-61964157D01*
X102817368Y-61964156D01*
X102834780Y-61953170D01*
X102849865Y-61945030D01*
X102876782Y-61932792D01*
X102896235Y-61916030D01*
X102911239Y-61904927D01*
X102932958Y-61891224D01*
X102938897Y-61884499D01*
X102938901Y-61884496D01*
X102952532Y-61869062D01*
X102964724Y-61857018D01*
X102980327Y-61843573D01*
X102980329Y-61843570D01*
X102987127Y-61837713D01*
X103001094Y-61816165D01*
X103012385Y-61801291D01*
X103023431Y-61788783D01*
X103023432Y-61788782D01*
X103029378Y-61782049D01*
X103041943Y-61755287D01*
X103050263Y-61740309D01*
X103061471Y-61723017D01*
X103061473Y-61723012D01*
X103066352Y-61715485D01*
X103068922Y-61706892D01*
X103068924Y-61706887D01*
X103073711Y-61690880D01*
X103080372Y-61673436D01*
X103087467Y-61658324D01*
X103087468Y-61658322D01*
X103091281Y-61650200D01*
X103095830Y-61620983D01*
X103099613Y-61604268D01*
X103105515Y-61584534D01*
X103105516Y-61584528D01*
X103108086Y-61575934D01*
X103108124Y-61569721D01*
X107091024Y-61569721D01*
X107093491Y-61578352D01*
X107099150Y-61598153D01*
X107102728Y-61614915D01*
X107106920Y-61644187D01*
X107110634Y-61652355D01*
X107110634Y-61652356D01*
X107117548Y-61667562D01*
X107123996Y-61685086D01*
X107131051Y-61709771D01*
X107135843Y-61717365D01*
X107135844Y-61717368D01*
X107146830Y-61734780D01*
X107154969Y-61749863D01*
X107167208Y-61776782D01*
X107173069Y-61783584D01*
X107183970Y-61796235D01*
X107195073Y-61811239D01*
X107208776Y-61832958D01*
X107215501Y-61838897D01*
X107215504Y-61838901D01*
X107230938Y-61852532D01*
X107242982Y-61864724D01*
X107256427Y-61880327D01*
X107256430Y-61880329D01*
X107262287Y-61887127D01*
X107269816Y-61892007D01*
X107269817Y-61892008D01*
X107283835Y-61901094D01*
X107298709Y-61912385D01*
X107311217Y-61923431D01*
X107317951Y-61929378D01*
X107344711Y-61941942D01*
X107359691Y-61950263D01*
X107376983Y-61961471D01*
X107376988Y-61961473D01*
X107384515Y-61966352D01*
X107393108Y-61968922D01*
X107393113Y-61968924D01*
X107409120Y-61973711D01*
X107426564Y-61980372D01*
X107441676Y-61987467D01*
X107441678Y-61987468D01*
X107449800Y-61991281D01*
X107458667Y-61992662D01*
X107458668Y-61992662D01*
X107461353Y-61993080D01*
X107479017Y-61995830D01*
X107495732Y-61999613D01*
X107515466Y-62005515D01*
X107515472Y-62005516D01*
X107524066Y-62008086D01*
X107533037Y-62008141D01*
X107533038Y-62008141D01*
X107543097Y-62008202D01*
X107558506Y-62008296D01*
X107559289Y-62008329D01*
X107560386Y-62008500D01*
X107591377Y-62008500D01*
X107592147Y-62008502D01*
X107665785Y-62008952D01*
X107665786Y-62008952D01*
X107669721Y-62008976D01*
X107671065Y-62008592D01*
X107672410Y-62008500D01*
X121591377Y-62008500D01*
X121592148Y-62008502D01*
X121669721Y-62008976D01*
X121698152Y-62000850D01*
X121714915Y-61997272D01*
X121715753Y-61997152D01*
X121744187Y-61993080D01*
X121767564Y-61982451D01*
X121785087Y-61976004D01*
X121809771Y-61968949D01*
X121817365Y-61964157D01*
X121817368Y-61964156D01*
X121834780Y-61953170D01*
X121849865Y-61945030D01*
X121876782Y-61932792D01*
X121896235Y-61916030D01*
X121911239Y-61904927D01*
X121932958Y-61891224D01*
X121938897Y-61884499D01*
X121938901Y-61884496D01*
X121952532Y-61869062D01*
X121964724Y-61857018D01*
X121980327Y-61843573D01*
X121980329Y-61843570D01*
X121987127Y-61837713D01*
X122001094Y-61816165D01*
X122012385Y-61801291D01*
X122023431Y-61788783D01*
X122023432Y-61788782D01*
X122029378Y-61782049D01*
X122041943Y-61755287D01*
X122050263Y-61740309D01*
X122061471Y-61723017D01*
X122061473Y-61723012D01*
X122066352Y-61715485D01*
X122068922Y-61706892D01*
X122068924Y-61706887D01*
X122073711Y-61690880D01*
X122080372Y-61673436D01*
X122087467Y-61658324D01*
X122087468Y-61658322D01*
X122091281Y-61650200D01*
X122095830Y-61620983D01*
X122099613Y-61604268D01*
X122105515Y-61584534D01*
X122105516Y-61584528D01*
X122108086Y-61575934D01*
X122108124Y-61569721D01*
X126091024Y-61569721D01*
X126093491Y-61578352D01*
X126099150Y-61598153D01*
X126102728Y-61614915D01*
X126106920Y-61644187D01*
X126110634Y-61652355D01*
X126110634Y-61652356D01*
X126117548Y-61667562D01*
X126123996Y-61685086D01*
X126131051Y-61709771D01*
X126135843Y-61717365D01*
X126135844Y-61717368D01*
X126146830Y-61734780D01*
X126154969Y-61749863D01*
X126167208Y-61776782D01*
X126173069Y-61783584D01*
X126183970Y-61796235D01*
X126195073Y-61811239D01*
X126208776Y-61832958D01*
X126215501Y-61838897D01*
X126215504Y-61838901D01*
X126230938Y-61852532D01*
X126242982Y-61864724D01*
X126256427Y-61880327D01*
X126256430Y-61880329D01*
X126262287Y-61887127D01*
X126269816Y-61892007D01*
X126269817Y-61892008D01*
X126283835Y-61901094D01*
X126298709Y-61912385D01*
X126311217Y-61923431D01*
X126317951Y-61929378D01*
X126344711Y-61941942D01*
X126359691Y-61950263D01*
X126376983Y-61961471D01*
X126376988Y-61961473D01*
X126384515Y-61966352D01*
X126393108Y-61968922D01*
X126393113Y-61968924D01*
X126409120Y-61973711D01*
X126426564Y-61980372D01*
X126441676Y-61987467D01*
X126441678Y-61987468D01*
X126449800Y-61991281D01*
X126458667Y-61992662D01*
X126458668Y-61992662D01*
X126461353Y-61993080D01*
X126479017Y-61995830D01*
X126495732Y-61999613D01*
X126515466Y-62005515D01*
X126515472Y-62005516D01*
X126524066Y-62008086D01*
X126533037Y-62008141D01*
X126533038Y-62008141D01*
X126543097Y-62008202D01*
X126558506Y-62008296D01*
X126559289Y-62008329D01*
X126560386Y-62008500D01*
X126591377Y-62008500D01*
X126592147Y-62008502D01*
X126665785Y-62008952D01*
X126665786Y-62008952D01*
X126669721Y-62008976D01*
X126671065Y-62008592D01*
X126672410Y-62008500D01*
X140591377Y-62008500D01*
X140592148Y-62008502D01*
X140669721Y-62008976D01*
X140698152Y-62000850D01*
X140714915Y-61997272D01*
X140715753Y-61997152D01*
X140744187Y-61993080D01*
X140767564Y-61982451D01*
X140785087Y-61976004D01*
X140809771Y-61968949D01*
X140817365Y-61964157D01*
X140817368Y-61964156D01*
X140834780Y-61953170D01*
X140849865Y-61945030D01*
X140876782Y-61932792D01*
X140896235Y-61916030D01*
X140911239Y-61904927D01*
X140932958Y-61891224D01*
X140938897Y-61884499D01*
X140938901Y-61884496D01*
X140952532Y-61869062D01*
X140964724Y-61857018D01*
X140980327Y-61843573D01*
X140980329Y-61843570D01*
X140987127Y-61837713D01*
X141001094Y-61816165D01*
X141012385Y-61801291D01*
X141023431Y-61788783D01*
X141023432Y-61788782D01*
X141029378Y-61782049D01*
X141041943Y-61755287D01*
X141050263Y-61740309D01*
X141061471Y-61723017D01*
X141061473Y-61723012D01*
X141066352Y-61715485D01*
X141068922Y-61706892D01*
X141068924Y-61706887D01*
X141073711Y-61690880D01*
X141080372Y-61673436D01*
X141087467Y-61658324D01*
X141087468Y-61658322D01*
X141091281Y-61650200D01*
X141095830Y-61620983D01*
X141099613Y-61604268D01*
X141105515Y-61584534D01*
X141105516Y-61584528D01*
X141108086Y-61575934D01*
X141108124Y-61569721D01*
X145091024Y-61569721D01*
X145093491Y-61578352D01*
X145099150Y-61598153D01*
X145102728Y-61614915D01*
X145106920Y-61644187D01*
X145110634Y-61652355D01*
X145110634Y-61652356D01*
X145117548Y-61667562D01*
X145123996Y-61685086D01*
X145131051Y-61709771D01*
X145135843Y-61717365D01*
X145135844Y-61717368D01*
X145146830Y-61734780D01*
X145154969Y-61749863D01*
X145167208Y-61776782D01*
X145173069Y-61783584D01*
X145183970Y-61796235D01*
X145195073Y-61811239D01*
X145208776Y-61832958D01*
X145215501Y-61838897D01*
X145215504Y-61838901D01*
X145230938Y-61852532D01*
X145242982Y-61864724D01*
X145256427Y-61880327D01*
X145256430Y-61880329D01*
X145262287Y-61887127D01*
X145269816Y-61892007D01*
X145269817Y-61892008D01*
X145283835Y-61901094D01*
X145298709Y-61912385D01*
X145311217Y-61923431D01*
X145317951Y-61929378D01*
X145344711Y-61941942D01*
X145359691Y-61950263D01*
X145376983Y-61961471D01*
X145376988Y-61961473D01*
X145384515Y-61966352D01*
X145393108Y-61968922D01*
X145393113Y-61968924D01*
X145409120Y-61973711D01*
X145426564Y-61980372D01*
X145441676Y-61987467D01*
X145441678Y-61987468D01*
X145449800Y-61991281D01*
X145458667Y-61992662D01*
X145458668Y-61992662D01*
X145461353Y-61993080D01*
X145479017Y-61995830D01*
X145495732Y-61999613D01*
X145515466Y-62005515D01*
X145515472Y-62005516D01*
X145524066Y-62008086D01*
X145533037Y-62008141D01*
X145533038Y-62008141D01*
X145543097Y-62008202D01*
X145558506Y-62008296D01*
X145559289Y-62008329D01*
X145560386Y-62008500D01*
X145591377Y-62008500D01*
X145592147Y-62008502D01*
X145665785Y-62008952D01*
X145665786Y-62008952D01*
X145669721Y-62008976D01*
X145671065Y-62008592D01*
X145672410Y-62008500D01*
X159591377Y-62008500D01*
X159592148Y-62008502D01*
X159669721Y-62008976D01*
X159698152Y-62000850D01*
X159714915Y-61997272D01*
X159715753Y-61997152D01*
X159744187Y-61993080D01*
X159767564Y-61982451D01*
X159785087Y-61976004D01*
X159809771Y-61968949D01*
X159817365Y-61964157D01*
X159817368Y-61964156D01*
X159834780Y-61953170D01*
X159849865Y-61945030D01*
X159876782Y-61932792D01*
X159896235Y-61916030D01*
X159911239Y-61904927D01*
X159932958Y-61891224D01*
X159938897Y-61884499D01*
X159938901Y-61884496D01*
X159952532Y-61869062D01*
X159964724Y-61857018D01*
X159980327Y-61843573D01*
X159980329Y-61843570D01*
X159987127Y-61837713D01*
X160001094Y-61816165D01*
X160012385Y-61801291D01*
X160023431Y-61788783D01*
X160023432Y-61788782D01*
X160029378Y-61782049D01*
X160041943Y-61755287D01*
X160050263Y-61740309D01*
X160061471Y-61723017D01*
X160061473Y-61723012D01*
X160066352Y-61715485D01*
X160068922Y-61706892D01*
X160068924Y-61706887D01*
X160073711Y-61690880D01*
X160080372Y-61673436D01*
X160087467Y-61658324D01*
X160087468Y-61658322D01*
X160091281Y-61650200D01*
X160095830Y-61620983D01*
X160099613Y-61604268D01*
X160105515Y-61584534D01*
X160105516Y-61584528D01*
X160108086Y-61575934D01*
X160108124Y-61569721D01*
X202091024Y-61569721D01*
X202093491Y-61578352D01*
X202099150Y-61598153D01*
X202102728Y-61614915D01*
X202106920Y-61644187D01*
X202110634Y-61652355D01*
X202110634Y-61652356D01*
X202117548Y-61667562D01*
X202123996Y-61685086D01*
X202131051Y-61709771D01*
X202135843Y-61717365D01*
X202135844Y-61717368D01*
X202146830Y-61734780D01*
X202154969Y-61749863D01*
X202167208Y-61776782D01*
X202173069Y-61783584D01*
X202183970Y-61796235D01*
X202195073Y-61811239D01*
X202208776Y-61832958D01*
X202215501Y-61838897D01*
X202215504Y-61838901D01*
X202230938Y-61852532D01*
X202242982Y-61864724D01*
X202256427Y-61880327D01*
X202256430Y-61880329D01*
X202262287Y-61887127D01*
X202269816Y-61892007D01*
X202269817Y-61892008D01*
X202283835Y-61901094D01*
X202298709Y-61912385D01*
X202311217Y-61923431D01*
X202317951Y-61929378D01*
X202344711Y-61941942D01*
X202359691Y-61950263D01*
X202376983Y-61961471D01*
X202376988Y-61961473D01*
X202384515Y-61966352D01*
X202393108Y-61968922D01*
X202393113Y-61968924D01*
X202409120Y-61973711D01*
X202426564Y-61980372D01*
X202441676Y-61987467D01*
X202441678Y-61987468D01*
X202449800Y-61991281D01*
X202458667Y-61992662D01*
X202458668Y-61992662D01*
X202461353Y-61993080D01*
X202479017Y-61995830D01*
X202495732Y-61999613D01*
X202515466Y-62005515D01*
X202515472Y-62005516D01*
X202524066Y-62008086D01*
X202533037Y-62008141D01*
X202533038Y-62008141D01*
X202543097Y-62008202D01*
X202558506Y-62008296D01*
X202559289Y-62008329D01*
X202560386Y-62008500D01*
X202591377Y-62008500D01*
X202592147Y-62008502D01*
X202665785Y-62008952D01*
X202665786Y-62008952D01*
X202669721Y-62008976D01*
X202671065Y-62008592D01*
X202672410Y-62008500D01*
X216591377Y-62008500D01*
X216592148Y-62008502D01*
X216669721Y-62008976D01*
X216698152Y-62000850D01*
X216714915Y-61997272D01*
X216715753Y-61997152D01*
X216744187Y-61993080D01*
X216767564Y-61982451D01*
X216785087Y-61976004D01*
X216809771Y-61968949D01*
X216817365Y-61964157D01*
X216817368Y-61964156D01*
X216834780Y-61953170D01*
X216849865Y-61945030D01*
X216876782Y-61932792D01*
X216896235Y-61916030D01*
X216911239Y-61904927D01*
X216932958Y-61891224D01*
X216938897Y-61884499D01*
X216938901Y-61884496D01*
X216952532Y-61869062D01*
X216964724Y-61857018D01*
X216980327Y-61843573D01*
X216980329Y-61843570D01*
X216987127Y-61837713D01*
X217001094Y-61816165D01*
X217012385Y-61801291D01*
X217023431Y-61788783D01*
X217023432Y-61788782D01*
X217029378Y-61782049D01*
X217041943Y-61755287D01*
X217050263Y-61740309D01*
X217061471Y-61723017D01*
X217061473Y-61723012D01*
X217066352Y-61715485D01*
X217068922Y-61706892D01*
X217068924Y-61706887D01*
X217073711Y-61690880D01*
X217080372Y-61673436D01*
X217087467Y-61658324D01*
X217087468Y-61658322D01*
X217091281Y-61650200D01*
X217095830Y-61620983D01*
X217099613Y-61604268D01*
X217105515Y-61584534D01*
X217105516Y-61584528D01*
X217108086Y-61575934D01*
X217108124Y-61569721D01*
X221091024Y-61569721D01*
X221093491Y-61578352D01*
X221099150Y-61598153D01*
X221102728Y-61614915D01*
X221106920Y-61644187D01*
X221110634Y-61652355D01*
X221110634Y-61652356D01*
X221117548Y-61667562D01*
X221123996Y-61685086D01*
X221131051Y-61709771D01*
X221135843Y-61717365D01*
X221135844Y-61717368D01*
X221146830Y-61734780D01*
X221154969Y-61749863D01*
X221167208Y-61776782D01*
X221173069Y-61783584D01*
X221183970Y-61796235D01*
X221195073Y-61811239D01*
X221208776Y-61832958D01*
X221215501Y-61838897D01*
X221215504Y-61838901D01*
X221230938Y-61852532D01*
X221242982Y-61864724D01*
X221256427Y-61880327D01*
X221256430Y-61880329D01*
X221262287Y-61887127D01*
X221269816Y-61892007D01*
X221269817Y-61892008D01*
X221283835Y-61901094D01*
X221298709Y-61912385D01*
X221311217Y-61923431D01*
X221317951Y-61929378D01*
X221344711Y-61941942D01*
X221359691Y-61950263D01*
X221376983Y-61961471D01*
X221376988Y-61961473D01*
X221384515Y-61966352D01*
X221393108Y-61968922D01*
X221393113Y-61968924D01*
X221409120Y-61973711D01*
X221426564Y-61980372D01*
X221441676Y-61987467D01*
X221441678Y-61987468D01*
X221449800Y-61991281D01*
X221458667Y-61992662D01*
X221458668Y-61992662D01*
X221461353Y-61993080D01*
X221479017Y-61995830D01*
X221495732Y-61999613D01*
X221515466Y-62005515D01*
X221515472Y-62005516D01*
X221524066Y-62008086D01*
X221533037Y-62008141D01*
X221533038Y-62008141D01*
X221543097Y-62008202D01*
X221558506Y-62008296D01*
X221559289Y-62008329D01*
X221560386Y-62008500D01*
X221591377Y-62008500D01*
X221592147Y-62008502D01*
X221665785Y-62008952D01*
X221665786Y-62008952D01*
X221669721Y-62008976D01*
X221671065Y-62008592D01*
X221672410Y-62008500D01*
X235591377Y-62008500D01*
X235592148Y-62008502D01*
X235669721Y-62008976D01*
X235698152Y-62000850D01*
X235714915Y-61997272D01*
X235715753Y-61997152D01*
X235744187Y-61993080D01*
X235767564Y-61982451D01*
X235785087Y-61976004D01*
X235809771Y-61968949D01*
X235817365Y-61964157D01*
X235817368Y-61964156D01*
X235834780Y-61953170D01*
X235849865Y-61945030D01*
X235876782Y-61932792D01*
X235896235Y-61916030D01*
X235911239Y-61904927D01*
X235932958Y-61891224D01*
X235938897Y-61884499D01*
X235938901Y-61884496D01*
X235952532Y-61869062D01*
X235964724Y-61857018D01*
X235980327Y-61843573D01*
X235980329Y-61843570D01*
X235987127Y-61837713D01*
X236001094Y-61816165D01*
X236012385Y-61801291D01*
X236023431Y-61788783D01*
X236023432Y-61788782D01*
X236029378Y-61782049D01*
X236041943Y-61755287D01*
X236050263Y-61740309D01*
X236061471Y-61723017D01*
X236061473Y-61723012D01*
X236066352Y-61715485D01*
X236068922Y-61706892D01*
X236068924Y-61706887D01*
X236073711Y-61690880D01*
X236080372Y-61673436D01*
X236087467Y-61658324D01*
X236087468Y-61658322D01*
X236091281Y-61650200D01*
X236095830Y-61620983D01*
X236099613Y-61604268D01*
X236105515Y-61584534D01*
X236105516Y-61584528D01*
X236108086Y-61575934D01*
X236108124Y-61569721D01*
X240091024Y-61569721D01*
X240093491Y-61578352D01*
X240099150Y-61598153D01*
X240102728Y-61614915D01*
X240106920Y-61644187D01*
X240110634Y-61652355D01*
X240110634Y-61652356D01*
X240117548Y-61667562D01*
X240123996Y-61685086D01*
X240131051Y-61709771D01*
X240135843Y-61717365D01*
X240135844Y-61717368D01*
X240146830Y-61734780D01*
X240154969Y-61749863D01*
X240167208Y-61776782D01*
X240173069Y-61783584D01*
X240183970Y-61796235D01*
X240195073Y-61811239D01*
X240208776Y-61832958D01*
X240215501Y-61838897D01*
X240215504Y-61838901D01*
X240230938Y-61852532D01*
X240242982Y-61864724D01*
X240256427Y-61880327D01*
X240256430Y-61880329D01*
X240262287Y-61887127D01*
X240269816Y-61892007D01*
X240269817Y-61892008D01*
X240283835Y-61901094D01*
X240298709Y-61912385D01*
X240311217Y-61923431D01*
X240317951Y-61929378D01*
X240344711Y-61941942D01*
X240359691Y-61950263D01*
X240376983Y-61961471D01*
X240376988Y-61961473D01*
X240384515Y-61966352D01*
X240393108Y-61968922D01*
X240393113Y-61968924D01*
X240409120Y-61973711D01*
X240426564Y-61980372D01*
X240441676Y-61987467D01*
X240441678Y-61987468D01*
X240449800Y-61991281D01*
X240458667Y-61992662D01*
X240458668Y-61992662D01*
X240461353Y-61993080D01*
X240479017Y-61995830D01*
X240495732Y-61999613D01*
X240515466Y-62005515D01*
X240515472Y-62005516D01*
X240524066Y-62008086D01*
X240533037Y-62008141D01*
X240533038Y-62008141D01*
X240543097Y-62008202D01*
X240558506Y-62008296D01*
X240559289Y-62008329D01*
X240560386Y-62008500D01*
X240591377Y-62008500D01*
X240592147Y-62008502D01*
X240665785Y-62008952D01*
X240665786Y-62008952D01*
X240669721Y-62008976D01*
X240671065Y-62008592D01*
X240672410Y-62008500D01*
X254591377Y-62008500D01*
X254592148Y-62008502D01*
X254669721Y-62008976D01*
X254698152Y-62000850D01*
X254714915Y-61997272D01*
X254715753Y-61997152D01*
X254744187Y-61993080D01*
X254767564Y-61982451D01*
X254785087Y-61976004D01*
X254809771Y-61968949D01*
X254817365Y-61964157D01*
X254817368Y-61964156D01*
X254834780Y-61953170D01*
X254849865Y-61945030D01*
X254876782Y-61932792D01*
X254896235Y-61916030D01*
X254911239Y-61904927D01*
X254932958Y-61891224D01*
X254938897Y-61884499D01*
X254938901Y-61884496D01*
X254952532Y-61869062D01*
X254964724Y-61857018D01*
X254980327Y-61843573D01*
X254980329Y-61843570D01*
X254987127Y-61837713D01*
X255001094Y-61816165D01*
X255012385Y-61801291D01*
X255023431Y-61788783D01*
X255023432Y-61788782D01*
X255029378Y-61782049D01*
X255041943Y-61755287D01*
X255050263Y-61740309D01*
X255061471Y-61723017D01*
X255061473Y-61723012D01*
X255066352Y-61715485D01*
X255068922Y-61706892D01*
X255068924Y-61706887D01*
X255073711Y-61690880D01*
X255080372Y-61673436D01*
X255087467Y-61658324D01*
X255087468Y-61658322D01*
X255091281Y-61650200D01*
X255095830Y-61620983D01*
X255099613Y-61604268D01*
X255105515Y-61584534D01*
X255105516Y-61584528D01*
X255108086Y-61575934D01*
X255108296Y-61541494D01*
X255108329Y-61540711D01*
X255108500Y-61539614D01*
X255108500Y-61508500D01*
X255108502Y-61507853D01*
X255108952Y-61434215D01*
X255108952Y-61434214D01*
X255108976Y-61430279D01*
X255108592Y-61428935D01*
X255108500Y-61427590D01*
X255108500Y-61069721D01*
X287991024Y-61069721D01*
X287993491Y-61078352D01*
X287999150Y-61098153D01*
X288002728Y-61114915D01*
X288006920Y-61144187D01*
X288010634Y-61152355D01*
X288010634Y-61152356D01*
X288017548Y-61167562D01*
X288023996Y-61185086D01*
X288031051Y-61209771D01*
X288035843Y-61217365D01*
X288035844Y-61217368D01*
X288046830Y-61234780D01*
X288054969Y-61249863D01*
X288067208Y-61276782D01*
X288073069Y-61283584D01*
X288083970Y-61296235D01*
X288095073Y-61311239D01*
X288108776Y-61332958D01*
X288115501Y-61338897D01*
X288115504Y-61338901D01*
X288130938Y-61352532D01*
X288142982Y-61364724D01*
X288156427Y-61380327D01*
X288156430Y-61380329D01*
X288162287Y-61387127D01*
X288169816Y-61392007D01*
X288169817Y-61392008D01*
X288183835Y-61401094D01*
X288198709Y-61412385D01*
X288211217Y-61423431D01*
X288217951Y-61429378D01*
X288244711Y-61441942D01*
X288259691Y-61450263D01*
X288276983Y-61461471D01*
X288276988Y-61461473D01*
X288284515Y-61466352D01*
X288293108Y-61468922D01*
X288293113Y-61468924D01*
X288309120Y-61473711D01*
X288326564Y-61480372D01*
X288341676Y-61487467D01*
X288341678Y-61487468D01*
X288349800Y-61491281D01*
X288358667Y-61492662D01*
X288358668Y-61492662D01*
X288361353Y-61493080D01*
X288379017Y-61495830D01*
X288395732Y-61499613D01*
X288415466Y-61505515D01*
X288415472Y-61505516D01*
X288424066Y-61508086D01*
X288433037Y-61508141D01*
X288433038Y-61508141D01*
X288443097Y-61508202D01*
X288458506Y-61508296D01*
X288459289Y-61508329D01*
X288460386Y-61508500D01*
X288491377Y-61508500D01*
X288492147Y-61508502D01*
X288565785Y-61508952D01*
X288565786Y-61508952D01*
X288569721Y-61508976D01*
X288571065Y-61508592D01*
X288572410Y-61508500D01*
X301491377Y-61508500D01*
X301492148Y-61508502D01*
X301569721Y-61508976D01*
X301598152Y-61500850D01*
X301614915Y-61497272D01*
X301615753Y-61497152D01*
X301644187Y-61493080D01*
X301667564Y-61482451D01*
X301685087Y-61476004D01*
X301709771Y-61468949D01*
X301717365Y-61464157D01*
X301717368Y-61464156D01*
X301734780Y-61453170D01*
X301749865Y-61445030D01*
X301776782Y-61432792D01*
X301796235Y-61416030D01*
X301811239Y-61404927D01*
X301832958Y-61391224D01*
X301838897Y-61384499D01*
X301838901Y-61384496D01*
X301852532Y-61369062D01*
X301864724Y-61357018D01*
X301880327Y-61343573D01*
X301880329Y-61343570D01*
X301887127Y-61337713D01*
X301901094Y-61316165D01*
X301912385Y-61301291D01*
X301923431Y-61288783D01*
X301923432Y-61288782D01*
X301929378Y-61282049D01*
X301941943Y-61255287D01*
X301950263Y-61240309D01*
X301961471Y-61223017D01*
X301961473Y-61223012D01*
X301966352Y-61215485D01*
X301968922Y-61206892D01*
X301968924Y-61206887D01*
X301973711Y-61190880D01*
X301980372Y-61173436D01*
X301987467Y-61158324D01*
X301987468Y-61158322D01*
X301991281Y-61150200D01*
X301995830Y-61120983D01*
X301999613Y-61104268D01*
X302005515Y-61084534D01*
X302005516Y-61084528D01*
X302008086Y-61075934D01*
X302008296Y-61041494D01*
X302008329Y-61040711D01*
X302008500Y-61039614D01*
X302008500Y-61008623D01*
X302008502Y-61007853D01*
X302008952Y-60934215D01*
X302008952Y-60934214D01*
X302008976Y-60930279D01*
X302008592Y-60928935D01*
X302008500Y-60927590D01*
X302008500Y-48008623D01*
X302008502Y-48007853D01*
X302008800Y-47959102D01*
X302008976Y-47930279D01*
X302000850Y-47901847D01*
X301997272Y-47885085D01*
X301994352Y-47864698D01*
X301993080Y-47855813D01*
X301982451Y-47832436D01*
X301976004Y-47814913D01*
X301971416Y-47798862D01*
X301968949Y-47790229D01*
X301964156Y-47782632D01*
X301953170Y-47765220D01*
X301945030Y-47750135D01*
X301942564Y-47744711D01*
X301932792Y-47723218D01*
X301916030Y-47703765D01*
X301904927Y-47688761D01*
X301891224Y-47667042D01*
X301884499Y-47661103D01*
X301884496Y-47661099D01*
X301869062Y-47647468D01*
X301857018Y-47635276D01*
X301843573Y-47619673D01*
X301843570Y-47619671D01*
X301837713Y-47612873D01*
X301824009Y-47603990D01*
X301816165Y-47598906D01*
X301801291Y-47587615D01*
X301788783Y-47576569D01*
X301788782Y-47576568D01*
X301782049Y-47570622D01*
X301755287Y-47558057D01*
X301740309Y-47549737D01*
X301723017Y-47538529D01*
X301723012Y-47538527D01*
X301715485Y-47533648D01*
X301706892Y-47531078D01*
X301706887Y-47531076D01*
X301690880Y-47526289D01*
X301673436Y-47519628D01*
X301658324Y-47512533D01*
X301658322Y-47512532D01*
X301650200Y-47508719D01*
X301641333Y-47507338D01*
X301641332Y-47507338D01*
X301630478Y-47505648D01*
X301620983Y-47504170D01*
X301604268Y-47500387D01*
X301584534Y-47494485D01*
X301584528Y-47494484D01*
X301575934Y-47491914D01*
X301566963Y-47491859D01*
X301566962Y-47491859D01*
X301556903Y-47491798D01*
X301541494Y-47491704D01*
X301540711Y-47491671D01*
X301539614Y-47491500D01*
X301508623Y-47491500D01*
X301507853Y-47491498D01*
X301434215Y-47491048D01*
X301434214Y-47491048D01*
X301430279Y-47491024D01*
X301428935Y-47491408D01*
X301427590Y-47491500D01*
X288508623Y-47491500D01*
X288507853Y-47491498D01*
X288507037Y-47491493D01*
X288430279Y-47491024D01*
X288407918Y-47497415D01*
X288401847Y-47499150D01*
X288385085Y-47502728D01*
X288355813Y-47506920D01*
X288347645Y-47510634D01*
X288347644Y-47510634D01*
X288332438Y-47517548D01*
X288314914Y-47523996D01*
X288290229Y-47531051D01*
X288282635Y-47535843D01*
X288282632Y-47535844D01*
X288265220Y-47546830D01*
X288250137Y-47554969D01*
X288223218Y-47567208D01*
X288216416Y-47573069D01*
X288203765Y-47583970D01*
X288188761Y-47595073D01*
X288167042Y-47608776D01*
X288161103Y-47615501D01*
X288161099Y-47615504D01*
X288147468Y-47630938D01*
X288135276Y-47642982D01*
X288119673Y-47656427D01*
X288119671Y-47656430D01*
X288112873Y-47662287D01*
X288107993Y-47669816D01*
X288107992Y-47669817D01*
X288098906Y-47683835D01*
X288087615Y-47698709D01*
X288076569Y-47711217D01*
X288070622Y-47717951D01*
X288064312Y-47731391D01*
X288058058Y-47744711D01*
X288049737Y-47759691D01*
X288038529Y-47776983D01*
X288038527Y-47776988D01*
X288033648Y-47784515D01*
X288031078Y-47793108D01*
X288031076Y-47793113D01*
X288026289Y-47809120D01*
X288019628Y-47826564D01*
X288012533Y-47841676D01*
X288008719Y-47849800D01*
X288007338Y-47858667D01*
X288007338Y-47858668D01*
X288004170Y-47879015D01*
X288000387Y-47895732D01*
X287994485Y-47915466D01*
X287994484Y-47915472D01*
X287991914Y-47924066D01*
X287991859Y-47933037D01*
X287991859Y-47933038D01*
X287991704Y-47958497D01*
X287991671Y-47959289D01*
X287991500Y-47960386D01*
X287991500Y-47991377D01*
X287991498Y-47992147D01*
X287991024Y-48069721D01*
X287991408Y-48071065D01*
X287991500Y-48072410D01*
X287991500Y-60991377D01*
X287991498Y-60992147D01*
X287991024Y-61069721D01*
X255108500Y-61069721D01*
X255108500Y-47508623D01*
X255108502Y-47507853D01*
X255108515Y-47505648D01*
X255108976Y-47430279D01*
X255100850Y-47401847D01*
X255097272Y-47385085D01*
X255094352Y-47364698D01*
X255093080Y-47355813D01*
X255082451Y-47332436D01*
X255076004Y-47314913D01*
X255071416Y-47298862D01*
X255068949Y-47290229D01*
X255064156Y-47282632D01*
X255053170Y-47265220D01*
X255045030Y-47250135D01*
X255042564Y-47244711D01*
X255032792Y-47223218D01*
X255016030Y-47203765D01*
X255004927Y-47188761D01*
X254991224Y-47167042D01*
X254984499Y-47161103D01*
X254984496Y-47161099D01*
X254969062Y-47147468D01*
X254957018Y-47135276D01*
X254943573Y-47119673D01*
X254943570Y-47119671D01*
X254937713Y-47112873D01*
X254924009Y-47103990D01*
X254916165Y-47098906D01*
X254901291Y-47087615D01*
X254888783Y-47076569D01*
X254888782Y-47076568D01*
X254882049Y-47070622D01*
X254855287Y-47058057D01*
X254840309Y-47049737D01*
X254823017Y-47038529D01*
X254823012Y-47038527D01*
X254815485Y-47033648D01*
X254806892Y-47031078D01*
X254806887Y-47031076D01*
X254790880Y-47026289D01*
X254773436Y-47019628D01*
X254758324Y-47012533D01*
X254758322Y-47012532D01*
X254750200Y-47008719D01*
X254741333Y-47007338D01*
X254741332Y-47007338D01*
X254730478Y-47005648D01*
X254720983Y-47004170D01*
X254704268Y-47000387D01*
X254684534Y-46994485D01*
X254684528Y-46994484D01*
X254675934Y-46991914D01*
X254666963Y-46991859D01*
X254666962Y-46991859D01*
X254656903Y-46991798D01*
X254641494Y-46991704D01*
X254640711Y-46991671D01*
X254639614Y-46991500D01*
X254608623Y-46991500D01*
X254607853Y-46991498D01*
X254534215Y-46991048D01*
X254534214Y-46991048D01*
X254530279Y-46991024D01*
X254528935Y-46991408D01*
X254527590Y-46991500D01*
X240608623Y-46991500D01*
X240607853Y-46991498D01*
X240607037Y-46991493D01*
X240530279Y-46991024D01*
X240507918Y-46997415D01*
X240501847Y-46999150D01*
X240485085Y-47002728D01*
X240455813Y-47006920D01*
X240447645Y-47010634D01*
X240447644Y-47010634D01*
X240432438Y-47017548D01*
X240414914Y-47023996D01*
X240390229Y-47031051D01*
X240382635Y-47035843D01*
X240382632Y-47035844D01*
X240365220Y-47046830D01*
X240350137Y-47054969D01*
X240323218Y-47067208D01*
X240316416Y-47073069D01*
X240303765Y-47083970D01*
X240288761Y-47095073D01*
X240267042Y-47108776D01*
X240261103Y-47115501D01*
X240261099Y-47115504D01*
X240247468Y-47130938D01*
X240235276Y-47142982D01*
X240219673Y-47156427D01*
X240219671Y-47156430D01*
X240212873Y-47162287D01*
X240207993Y-47169816D01*
X240207992Y-47169817D01*
X240198906Y-47183835D01*
X240187615Y-47198709D01*
X240176569Y-47211217D01*
X240170622Y-47217951D01*
X240164312Y-47231391D01*
X240158058Y-47244711D01*
X240149737Y-47259691D01*
X240138529Y-47276983D01*
X240138527Y-47276988D01*
X240133648Y-47284515D01*
X240131078Y-47293108D01*
X240131076Y-47293113D01*
X240126289Y-47309120D01*
X240119628Y-47326564D01*
X240112533Y-47341676D01*
X240108719Y-47349800D01*
X240107338Y-47358667D01*
X240107338Y-47358668D01*
X240104170Y-47379015D01*
X240100387Y-47395732D01*
X240094485Y-47415466D01*
X240094484Y-47415472D01*
X240091914Y-47424066D01*
X240091859Y-47433037D01*
X240091859Y-47433038D01*
X240091704Y-47458497D01*
X240091671Y-47459289D01*
X240091500Y-47460386D01*
X240091500Y-47491377D01*
X240091498Y-47492147D01*
X240091416Y-47505648D01*
X240091024Y-47569721D01*
X240091408Y-47571065D01*
X240091500Y-47572410D01*
X240091500Y-61491377D01*
X240091498Y-61492147D01*
X240091024Y-61569721D01*
X236108124Y-61569721D01*
X236108296Y-61541494D01*
X236108329Y-61540711D01*
X236108500Y-61539614D01*
X236108500Y-61508500D01*
X236108502Y-61507853D01*
X236108952Y-61434215D01*
X236108952Y-61434214D01*
X236108976Y-61430279D01*
X236108592Y-61428935D01*
X236108500Y-61427590D01*
X236108500Y-47508623D01*
X236108502Y-47507853D01*
X236108515Y-47505648D01*
X236108976Y-47430279D01*
X236100850Y-47401847D01*
X236097272Y-47385085D01*
X236094352Y-47364698D01*
X236093080Y-47355813D01*
X236082451Y-47332436D01*
X236076004Y-47314913D01*
X236071416Y-47298862D01*
X236068949Y-47290229D01*
X236064156Y-47282632D01*
X236053170Y-47265220D01*
X236045030Y-47250135D01*
X236042564Y-47244711D01*
X236032792Y-47223218D01*
X236016030Y-47203765D01*
X236004927Y-47188761D01*
X235991224Y-47167042D01*
X235984499Y-47161103D01*
X235984496Y-47161099D01*
X235969062Y-47147468D01*
X235957018Y-47135276D01*
X235943573Y-47119673D01*
X235943570Y-47119671D01*
X235937713Y-47112873D01*
X235924009Y-47103990D01*
X235916165Y-47098906D01*
X235901291Y-47087615D01*
X235888783Y-47076569D01*
X235888782Y-47076568D01*
X235882049Y-47070622D01*
X235855287Y-47058057D01*
X235840309Y-47049737D01*
X235823017Y-47038529D01*
X235823012Y-47038527D01*
X235815485Y-47033648D01*
X235806892Y-47031078D01*
X235806887Y-47031076D01*
X235790880Y-47026289D01*
X235773436Y-47019628D01*
X235758324Y-47012533D01*
X235758322Y-47012532D01*
X235750200Y-47008719D01*
X235741333Y-47007338D01*
X235741332Y-47007338D01*
X235730478Y-47005648D01*
X235720983Y-47004170D01*
X235704268Y-47000387D01*
X235684534Y-46994485D01*
X235684528Y-46994484D01*
X235675934Y-46991914D01*
X235666963Y-46991859D01*
X235666962Y-46991859D01*
X235656903Y-46991798D01*
X235641494Y-46991704D01*
X235640711Y-46991671D01*
X235639614Y-46991500D01*
X235608623Y-46991500D01*
X235607853Y-46991498D01*
X235534215Y-46991048D01*
X235534214Y-46991048D01*
X235530279Y-46991024D01*
X235528935Y-46991408D01*
X235527590Y-46991500D01*
X221608623Y-46991500D01*
X221607853Y-46991498D01*
X221607037Y-46991493D01*
X221530279Y-46991024D01*
X221507918Y-46997415D01*
X221501847Y-46999150D01*
X221485085Y-47002728D01*
X221455813Y-47006920D01*
X221447645Y-47010634D01*
X221447644Y-47010634D01*
X221432438Y-47017548D01*
X221414914Y-47023996D01*
X221390229Y-47031051D01*
X221382635Y-47035843D01*
X221382632Y-47035844D01*
X221365220Y-47046830D01*
X221350137Y-47054969D01*
X221323218Y-47067208D01*
X221316416Y-47073069D01*
X221303765Y-47083970D01*
X221288761Y-47095073D01*
X221267042Y-47108776D01*
X221261103Y-47115501D01*
X221261099Y-47115504D01*
X221247468Y-47130938D01*
X221235276Y-47142982D01*
X221219673Y-47156427D01*
X221219671Y-47156430D01*
X221212873Y-47162287D01*
X221207993Y-47169816D01*
X221207992Y-47169817D01*
X221198906Y-47183835D01*
X221187615Y-47198709D01*
X221176569Y-47211217D01*
X221170622Y-47217951D01*
X221164312Y-47231391D01*
X221158058Y-47244711D01*
X221149737Y-47259691D01*
X221138529Y-47276983D01*
X221138527Y-47276988D01*
X221133648Y-47284515D01*
X221131078Y-47293108D01*
X221131076Y-47293113D01*
X221126289Y-47309120D01*
X221119628Y-47326564D01*
X221112533Y-47341676D01*
X221108719Y-47349800D01*
X221107338Y-47358667D01*
X221107338Y-47358668D01*
X221104170Y-47379015D01*
X221100387Y-47395732D01*
X221094485Y-47415466D01*
X221094484Y-47415472D01*
X221091914Y-47424066D01*
X221091859Y-47433037D01*
X221091859Y-47433038D01*
X221091704Y-47458497D01*
X221091671Y-47459289D01*
X221091500Y-47460386D01*
X221091500Y-47491377D01*
X221091498Y-47492147D01*
X221091416Y-47505648D01*
X221091024Y-47569721D01*
X221091408Y-47571065D01*
X221091500Y-47572410D01*
X221091500Y-61491377D01*
X221091498Y-61492147D01*
X221091024Y-61569721D01*
X217108124Y-61569721D01*
X217108296Y-61541494D01*
X217108329Y-61540711D01*
X217108500Y-61539614D01*
X217108500Y-61508500D01*
X217108502Y-61507853D01*
X217108952Y-61434215D01*
X217108952Y-61434214D01*
X217108976Y-61430279D01*
X217108592Y-61428935D01*
X217108500Y-61427590D01*
X217108500Y-47508623D01*
X217108502Y-47507853D01*
X217108515Y-47505648D01*
X217108976Y-47430279D01*
X217100850Y-47401847D01*
X217097272Y-47385085D01*
X217094352Y-47364698D01*
X217093080Y-47355813D01*
X217082451Y-47332436D01*
X217076004Y-47314913D01*
X217071416Y-47298862D01*
X217068949Y-47290229D01*
X217064156Y-47282632D01*
X217053170Y-47265220D01*
X217045030Y-47250135D01*
X217042564Y-47244711D01*
X217032792Y-47223218D01*
X217016030Y-47203765D01*
X217004927Y-47188761D01*
X216991224Y-47167042D01*
X216984499Y-47161103D01*
X216984496Y-47161099D01*
X216969062Y-47147468D01*
X216957018Y-47135276D01*
X216943573Y-47119673D01*
X216943570Y-47119671D01*
X216937713Y-47112873D01*
X216924009Y-47103990D01*
X216916165Y-47098906D01*
X216901291Y-47087615D01*
X216888783Y-47076569D01*
X216888782Y-47076568D01*
X216882049Y-47070622D01*
X216855287Y-47058057D01*
X216840309Y-47049737D01*
X216823017Y-47038529D01*
X216823012Y-47038527D01*
X216815485Y-47033648D01*
X216806892Y-47031078D01*
X216806887Y-47031076D01*
X216790880Y-47026289D01*
X216773436Y-47019628D01*
X216758324Y-47012533D01*
X216758322Y-47012532D01*
X216750200Y-47008719D01*
X216741333Y-47007338D01*
X216741332Y-47007338D01*
X216730478Y-47005648D01*
X216720983Y-47004170D01*
X216704268Y-47000387D01*
X216684534Y-46994485D01*
X216684528Y-46994484D01*
X216675934Y-46991914D01*
X216666963Y-46991859D01*
X216666962Y-46991859D01*
X216656903Y-46991798D01*
X216641494Y-46991704D01*
X216640711Y-46991671D01*
X216639614Y-46991500D01*
X216608623Y-46991500D01*
X216607853Y-46991498D01*
X216534215Y-46991048D01*
X216534214Y-46991048D01*
X216530279Y-46991024D01*
X216528935Y-46991408D01*
X216527590Y-46991500D01*
X202608623Y-46991500D01*
X202607853Y-46991498D01*
X202607037Y-46991493D01*
X202530279Y-46991024D01*
X202507918Y-46997415D01*
X202501847Y-46999150D01*
X202485085Y-47002728D01*
X202455813Y-47006920D01*
X202447645Y-47010634D01*
X202447644Y-47010634D01*
X202432438Y-47017548D01*
X202414914Y-47023996D01*
X202390229Y-47031051D01*
X202382635Y-47035843D01*
X202382632Y-47035844D01*
X202365220Y-47046830D01*
X202350137Y-47054969D01*
X202323218Y-47067208D01*
X202316416Y-47073069D01*
X202303765Y-47083970D01*
X202288761Y-47095073D01*
X202267042Y-47108776D01*
X202261103Y-47115501D01*
X202261099Y-47115504D01*
X202247468Y-47130938D01*
X202235276Y-47142982D01*
X202219673Y-47156427D01*
X202219671Y-47156430D01*
X202212873Y-47162287D01*
X202207993Y-47169816D01*
X202207992Y-47169817D01*
X202198906Y-47183835D01*
X202187615Y-47198709D01*
X202176569Y-47211217D01*
X202170622Y-47217951D01*
X202164312Y-47231391D01*
X202158058Y-47244711D01*
X202149737Y-47259691D01*
X202138529Y-47276983D01*
X202138527Y-47276988D01*
X202133648Y-47284515D01*
X202131078Y-47293108D01*
X202131076Y-47293113D01*
X202126289Y-47309120D01*
X202119628Y-47326564D01*
X202112533Y-47341676D01*
X202108719Y-47349800D01*
X202107338Y-47358667D01*
X202107338Y-47358668D01*
X202104170Y-47379015D01*
X202100387Y-47395732D01*
X202094485Y-47415466D01*
X202094484Y-47415472D01*
X202091914Y-47424066D01*
X202091859Y-47433037D01*
X202091859Y-47433038D01*
X202091704Y-47458497D01*
X202091671Y-47459289D01*
X202091500Y-47460386D01*
X202091500Y-47491377D01*
X202091498Y-47492147D01*
X202091416Y-47505648D01*
X202091024Y-47569721D01*
X202091408Y-47571065D01*
X202091500Y-47572410D01*
X202091500Y-61491377D01*
X202091498Y-61492147D01*
X202091024Y-61569721D01*
X160108124Y-61569721D01*
X160108296Y-61541494D01*
X160108329Y-61540711D01*
X160108500Y-61539614D01*
X160108500Y-61508500D01*
X160108502Y-61507853D01*
X160108952Y-61434215D01*
X160108952Y-61434214D01*
X160108976Y-61430279D01*
X160108592Y-61428935D01*
X160108500Y-61427590D01*
X160108500Y-47508623D01*
X160108502Y-47507853D01*
X160108515Y-47505648D01*
X160108976Y-47430279D01*
X160100850Y-47401847D01*
X160097272Y-47385085D01*
X160094352Y-47364698D01*
X160093080Y-47355813D01*
X160082451Y-47332436D01*
X160076004Y-47314913D01*
X160071416Y-47298862D01*
X160068949Y-47290229D01*
X160064156Y-47282632D01*
X160053170Y-47265220D01*
X160045030Y-47250135D01*
X160042564Y-47244711D01*
X160032792Y-47223218D01*
X160016030Y-47203765D01*
X160004927Y-47188761D01*
X159991224Y-47167042D01*
X159984499Y-47161103D01*
X159984496Y-47161099D01*
X159969062Y-47147468D01*
X159957018Y-47135276D01*
X159943573Y-47119673D01*
X159943570Y-47119671D01*
X159937713Y-47112873D01*
X159924009Y-47103990D01*
X159916165Y-47098906D01*
X159901291Y-47087615D01*
X159888783Y-47076569D01*
X159888782Y-47076568D01*
X159882049Y-47070622D01*
X159855287Y-47058057D01*
X159840309Y-47049737D01*
X159823017Y-47038529D01*
X159823012Y-47038527D01*
X159815485Y-47033648D01*
X159806892Y-47031078D01*
X159806887Y-47031076D01*
X159790880Y-47026289D01*
X159773436Y-47019628D01*
X159758324Y-47012533D01*
X159758322Y-47012532D01*
X159750200Y-47008719D01*
X159741333Y-47007338D01*
X159741332Y-47007338D01*
X159730478Y-47005648D01*
X159720983Y-47004170D01*
X159704268Y-47000387D01*
X159684534Y-46994485D01*
X159684528Y-46994484D01*
X159675934Y-46991914D01*
X159666963Y-46991859D01*
X159666962Y-46991859D01*
X159656903Y-46991798D01*
X159641494Y-46991704D01*
X159640711Y-46991671D01*
X159639614Y-46991500D01*
X159608623Y-46991500D01*
X159607853Y-46991498D01*
X159534215Y-46991048D01*
X159534214Y-46991048D01*
X159530279Y-46991024D01*
X159528935Y-46991408D01*
X159527590Y-46991500D01*
X145608623Y-46991500D01*
X145607853Y-46991498D01*
X145607037Y-46991493D01*
X145530279Y-46991024D01*
X145507918Y-46997415D01*
X145501847Y-46999150D01*
X145485085Y-47002728D01*
X145455813Y-47006920D01*
X145447645Y-47010634D01*
X145447644Y-47010634D01*
X145432438Y-47017548D01*
X145414914Y-47023996D01*
X145390229Y-47031051D01*
X145382635Y-47035843D01*
X145382632Y-47035844D01*
X145365220Y-47046830D01*
X145350137Y-47054969D01*
X145323218Y-47067208D01*
X145316416Y-47073069D01*
X145303765Y-47083970D01*
X145288761Y-47095073D01*
X145267042Y-47108776D01*
X145261103Y-47115501D01*
X145261099Y-47115504D01*
X145247468Y-47130938D01*
X145235276Y-47142982D01*
X145219673Y-47156427D01*
X145219671Y-47156430D01*
X145212873Y-47162287D01*
X145207993Y-47169816D01*
X145207992Y-47169817D01*
X145198906Y-47183835D01*
X145187615Y-47198709D01*
X145176569Y-47211217D01*
X145170622Y-47217951D01*
X145164312Y-47231391D01*
X145158058Y-47244711D01*
X145149737Y-47259691D01*
X145138529Y-47276983D01*
X145138527Y-47276988D01*
X145133648Y-47284515D01*
X145131078Y-47293108D01*
X145131076Y-47293113D01*
X145126289Y-47309120D01*
X145119628Y-47326564D01*
X145112533Y-47341676D01*
X145108719Y-47349800D01*
X145107338Y-47358667D01*
X145107338Y-47358668D01*
X145104170Y-47379015D01*
X145100387Y-47395732D01*
X145094485Y-47415466D01*
X145094484Y-47415472D01*
X145091914Y-47424066D01*
X145091859Y-47433037D01*
X145091859Y-47433038D01*
X145091704Y-47458497D01*
X145091671Y-47459289D01*
X145091500Y-47460386D01*
X145091500Y-47491377D01*
X145091498Y-47492147D01*
X145091416Y-47505648D01*
X145091024Y-47569721D01*
X145091408Y-47571065D01*
X145091500Y-47572410D01*
X145091500Y-61491377D01*
X145091498Y-61492147D01*
X145091024Y-61569721D01*
X141108124Y-61569721D01*
X141108296Y-61541494D01*
X141108329Y-61540711D01*
X141108500Y-61539614D01*
X141108500Y-61508500D01*
X141108502Y-61507853D01*
X141108952Y-61434215D01*
X141108952Y-61434214D01*
X141108976Y-61430279D01*
X141108592Y-61428935D01*
X141108500Y-61427590D01*
X141108500Y-47508623D01*
X141108502Y-47507853D01*
X141108515Y-47505648D01*
X141108976Y-47430279D01*
X141100850Y-47401847D01*
X141097272Y-47385085D01*
X141094352Y-47364698D01*
X141093080Y-47355813D01*
X141082451Y-47332436D01*
X141076004Y-47314913D01*
X141071416Y-47298862D01*
X141068949Y-47290229D01*
X141064156Y-47282632D01*
X141053170Y-47265220D01*
X141045030Y-47250135D01*
X141042564Y-47244711D01*
X141032792Y-47223218D01*
X141016030Y-47203765D01*
X141004927Y-47188761D01*
X140991224Y-47167042D01*
X140984499Y-47161103D01*
X140984496Y-47161099D01*
X140969062Y-47147468D01*
X140957018Y-47135276D01*
X140943573Y-47119673D01*
X140943570Y-47119671D01*
X140937713Y-47112873D01*
X140924009Y-47103990D01*
X140916165Y-47098906D01*
X140901291Y-47087615D01*
X140888783Y-47076569D01*
X140888782Y-47076568D01*
X140882049Y-47070622D01*
X140855287Y-47058057D01*
X140840309Y-47049737D01*
X140823017Y-47038529D01*
X140823012Y-47038527D01*
X140815485Y-47033648D01*
X140806892Y-47031078D01*
X140806887Y-47031076D01*
X140790880Y-47026289D01*
X140773436Y-47019628D01*
X140758324Y-47012533D01*
X140758322Y-47012532D01*
X140750200Y-47008719D01*
X140741333Y-47007338D01*
X140741332Y-47007338D01*
X140730478Y-47005648D01*
X140720983Y-47004170D01*
X140704268Y-47000387D01*
X140684534Y-46994485D01*
X140684528Y-46994484D01*
X140675934Y-46991914D01*
X140666963Y-46991859D01*
X140666962Y-46991859D01*
X140656903Y-46991798D01*
X140641494Y-46991704D01*
X140640711Y-46991671D01*
X140639614Y-46991500D01*
X140608623Y-46991500D01*
X140607853Y-46991498D01*
X140534215Y-46991048D01*
X140534214Y-46991048D01*
X140530279Y-46991024D01*
X140528935Y-46991408D01*
X140527590Y-46991500D01*
X126608623Y-46991500D01*
X126607853Y-46991498D01*
X126607037Y-46991493D01*
X126530279Y-46991024D01*
X126507918Y-46997415D01*
X126501847Y-46999150D01*
X126485085Y-47002728D01*
X126455813Y-47006920D01*
X126447645Y-47010634D01*
X126447644Y-47010634D01*
X126432438Y-47017548D01*
X126414914Y-47023996D01*
X126390229Y-47031051D01*
X126382635Y-47035843D01*
X126382632Y-47035844D01*
X126365220Y-47046830D01*
X126350137Y-47054969D01*
X126323218Y-47067208D01*
X126316416Y-47073069D01*
X126303765Y-47083970D01*
X126288761Y-47095073D01*
X126267042Y-47108776D01*
X126261103Y-47115501D01*
X126261099Y-47115504D01*
X126247468Y-47130938D01*
X126235276Y-47142982D01*
X126219673Y-47156427D01*
X126219671Y-47156430D01*
X126212873Y-47162287D01*
X126207993Y-47169816D01*
X126207992Y-47169817D01*
X126198906Y-47183835D01*
X126187615Y-47198709D01*
X126176569Y-47211217D01*
X126170622Y-47217951D01*
X126164312Y-47231391D01*
X126158058Y-47244711D01*
X126149737Y-47259691D01*
X126138529Y-47276983D01*
X126138527Y-47276988D01*
X126133648Y-47284515D01*
X126131078Y-47293108D01*
X126131076Y-47293113D01*
X126126289Y-47309120D01*
X126119628Y-47326564D01*
X126112533Y-47341676D01*
X126108719Y-47349800D01*
X126107338Y-47358667D01*
X126107338Y-47358668D01*
X126104170Y-47379015D01*
X126100387Y-47395732D01*
X126094485Y-47415466D01*
X126094484Y-47415472D01*
X126091914Y-47424066D01*
X126091859Y-47433037D01*
X126091859Y-47433038D01*
X126091704Y-47458497D01*
X126091671Y-47459289D01*
X126091500Y-47460386D01*
X126091500Y-47491377D01*
X126091498Y-47492147D01*
X126091416Y-47505648D01*
X126091024Y-47569721D01*
X126091408Y-47571065D01*
X126091500Y-47572410D01*
X126091500Y-61491377D01*
X126091498Y-61492147D01*
X126091024Y-61569721D01*
X122108124Y-61569721D01*
X122108296Y-61541494D01*
X122108329Y-61540711D01*
X122108500Y-61539614D01*
X122108500Y-61508500D01*
X122108502Y-61507853D01*
X122108952Y-61434215D01*
X122108952Y-61434214D01*
X122108976Y-61430279D01*
X122108592Y-61428935D01*
X122108500Y-61427590D01*
X122108500Y-47508623D01*
X122108502Y-47507853D01*
X122108515Y-47505648D01*
X122108976Y-47430279D01*
X122100850Y-47401847D01*
X122097272Y-47385085D01*
X122094352Y-47364698D01*
X122093080Y-47355813D01*
X122082451Y-47332436D01*
X122076004Y-47314913D01*
X122071416Y-47298862D01*
X122068949Y-47290229D01*
X122064156Y-47282632D01*
X122053170Y-47265220D01*
X122045030Y-47250135D01*
X122042564Y-47244711D01*
X122032792Y-47223218D01*
X122016030Y-47203765D01*
X122004927Y-47188761D01*
X121991224Y-47167042D01*
X121984499Y-47161103D01*
X121984496Y-47161099D01*
X121969062Y-47147468D01*
X121957018Y-47135276D01*
X121943573Y-47119673D01*
X121943570Y-47119671D01*
X121937713Y-47112873D01*
X121924009Y-47103990D01*
X121916165Y-47098906D01*
X121901291Y-47087615D01*
X121888783Y-47076569D01*
X121888782Y-47076568D01*
X121882049Y-47070622D01*
X121855287Y-47058057D01*
X121840309Y-47049737D01*
X121823017Y-47038529D01*
X121823012Y-47038527D01*
X121815485Y-47033648D01*
X121806892Y-47031078D01*
X121806887Y-47031076D01*
X121790880Y-47026289D01*
X121773436Y-47019628D01*
X121758324Y-47012533D01*
X121758322Y-47012532D01*
X121750200Y-47008719D01*
X121741333Y-47007338D01*
X121741332Y-47007338D01*
X121730478Y-47005648D01*
X121720983Y-47004170D01*
X121704268Y-47000387D01*
X121684534Y-46994485D01*
X121684528Y-46994484D01*
X121675934Y-46991914D01*
X121666963Y-46991859D01*
X121666962Y-46991859D01*
X121656903Y-46991798D01*
X121641494Y-46991704D01*
X121640711Y-46991671D01*
X121639614Y-46991500D01*
X121608623Y-46991500D01*
X121607853Y-46991498D01*
X121534215Y-46991048D01*
X121534214Y-46991048D01*
X121530279Y-46991024D01*
X121528935Y-46991408D01*
X121527590Y-46991500D01*
X107608623Y-46991500D01*
X107607853Y-46991498D01*
X107607037Y-46991493D01*
X107530279Y-46991024D01*
X107507918Y-46997415D01*
X107501847Y-46999150D01*
X107485085Y-47002728D01*
X107455813Y-47006920D01*
X107447645Y-47010634D01*
X107447644Y-47010634D01*
X107432438Y-47017548D01*
X107414914Y-47023996D01*
X107390229Y-47031051D01*
X107382635Y-47035843D01*
X107382632Y-47035844D01*
X107365220Y-47046830D01*
X107350137Y-47054969D01*
X107323218Y-47067208D01*
X107316416Y-47073069D01*
X107303765Y-47083970D01*
X107288761Y-47095073D01*
X107267042Y-47108776D01*
X107261103Y-47115501D01*
X107261099Y-47115504D01*
X107247468Y-47130938D01*
X107235276Y-47142982D01*
X107219673Y-47156427D01*
X107219671Y-47156430D01*
X107212873Y-47162287D01*
X107207993Y-47169816D01*
X107207992Y-47169817D01*
X107198906Y-47183835D01*
X107187615Y-47198709D01*
X107176569Y-47211217D01*
X107170622Y-47217951D01*
X107164312Y-47231391D01*
X107158058Y-47244711D01*
X107149737Y-47259691D01*
X107138529Y-47276983D01*
X107138527Y-47276988D01*
X107133648Y-47284515D01*
X107131078Y-47293108D01*
X107131076Y-47293113D01*
X107126289Y-47309120D01*
X107119628Y-47326564D01*
X107112533Y-47341676D01*
X107108719Y-47349800D01*
X107107338Y-47358667D01*
X107107338Y-47358668D01*
X107104170Y-47379015D01*
X107100387Y-47395732D01*
X107094485Y-47415466D01*
X107094484Y-47415472D01*
X107091914Y-47424066D01*
X107091859Y-47433037D01*
X107091859Y-47433038D01*
X107091704Y-47458497D01*
X107091671Y-47459289D01*
X107091500Y-47460386D01*
X107091500Y-47491377D01*
X107091498Y-47492147D01*
X107091416Y-47505648D01*
X107091024Y-47569721D01*
X107091408Y-47571065D01*
X107091500Y-47572410D01*
X107091500Y-61491377D01*
X107091498Y-61492147D01*
X107091024Y-61569721D01*
X103108124Y-61569721D01*
X103108296Y-61541494D01*
X103108329Y-61540711D01*
X103108500Y-61539614D01*
X103108500Y-61508500D01*
X103108502Y-61507853D01*
X103108952Y-61434215D01*
X103108952Y-61434214D01*
X103108976Y-61430279D01*
X103108592Y-61428935D01*
X103108500Y-61427590D01*
X103108500Y-47508623D01*
X103108502Y-47507853D01*
X103108515Y-47505648D01*
X103108976Y-47430279D01*
X103100850Y-47401847D01*
X103097272Y-47385085D01*
X103094352Y-47364698D01*
X103093080Y-47355813D01*
X103082451Y-47332436D01*
X103076004Y-47314913D01*
X103071416Y-47298862D01*
X103068949Y-47290229D01*
X103064156Y-47282632D01*
X103053170Y-47265220D01*
X103045030Y-47250135D01*
X103042564Y-47244711D01*
X103032792Y-47223218D01*
X103016030Y-47203765D01*
X103004927Y-47188761D01*
X102991224Y-47167042D01*
X102984499Y-47161103D01*
X102984496Y-47161099D01*
X102969062Y-47147468D01*
X102957018Y-47135276D01*
X102943573Y-47119673D01*
X102943570Y-47119671D01*
X102937713Y-47112873D01*
X102924009Y-47103990D01*
X102916165Y-47098906D01*
X102901291Y-47087615D01*
X102888783Y-47076569D01*
X102888782Y-47076568D01*
X102882049Y-47070622D01*
X102855287Y-47058057D01*
X102840309Y-47049737D01*
X102823017Y-47038529D01*
X102823012Y-47038527D01*
X102815485Y-47033648D01*
X102806892Y-47031078D01*
X102806887Y-47031076D01*
X102790880Y-47026289D01*
X102773436Y-47019628D01*
X102758324Y-47012533D01*
X102758322Y-47012532D01*
X102750200Y-47008719D01*
X102741333Y-47007338D01*
X102741332Y-47007338D01*
X102730478Y-47005648D01*
X102720983Y-47004170D01*
X102704268Y-47000387D01*
X102684534Y-46994485D01*
X102684528Y-46994484D01*
X102675934Y-46991914D01*
X102666963Y-46991859D01*
X102666962Y-46991859D01*
X102656903Y-46991798D01*
X102641494Y-46991704D01*
X102640711Y-46991671D01*
X102639614Y-46991500D01*
X102608623Y-46991500D01*
X102607853Y-46991498D01*
X102534215Y-46991048D01*
X102534214Y-46991048D01*
X102530279Y-46991024D01*
X102528935Y-46991408D01*
X102527590Y-46991500D01*
X88608623Y-46991500D01*
X88607853Y-46991498D01*
X88607037Y-46991493D01*
X88530279Y-46991024D01*
X88507918Y-46997415D01*
X88501847Y-46999150D01*
X88485085Y-47002728D01*
X88455813Y-47006920D01*
X88447645Y-47010634D01*
X88447644Y-47010634D01*
X88432438Y-47017548D01*
X88414914Y-47023996D01*
X88390229Y-47031051D01*
X88382635Y-47035843D01*
X88382632Y-47035844D01*
X88365220Y-47046830D01*
X88350137Y-47054969D01*
X88323218Y-47067208D01*
X88316416Y-47073069D01*
X88303765Y-47083970D01*
X88288761Y-47095073D01*
X88267042Y-47108776D01*
X88261103Y-47115501D01*
X88261099Y-47115504D01*
X88247468Y-47130938D01*
X88235276Y-47142982D01*
X88219673Y-47156427D01*
X88219671Y-47156430D01*
X88212873Y-47162287D01*
X88207993Y-47169816D01*
X88207992Y-47169817D01*
X88198906Y-47183835D01*
X88187615Y-47198709D01*
X88176569Y-47211217D01*
X88170622Y-47217951D01*
X88164312Y-47231391D01*
X88158058Y-47244711D01*
X88149737Y-47259691D01*
X88138529Y-47276983D01*
X88138527Y-47276988D01*
X88133648Y-47284515D01*
X88131078Y-47293108D01*
X88131076Y-47293113D01*
X88126289Y-47309120D01*
X88119628Y-47326564D01*
X88112533Y-47341676D01*
X88108719Y-47349800D01*
X88107338Y-47358667D01*
X88107338Y-47358668D01*
X88104170Y-47379015D01*
X88100387Y-47395732D01*
X88094485Y-47415466D01*
X88094484Y-47415472D01*
X88091914Y-47424066D01*
X88091859Y-47433037D01*
X88091859Y-47433038D01*
X88091704Y-47458497D01*
X88091671Y-47459289D01*
X88091500Y-47460386D01*
X88091500Y-47491377D01*
X88091498Y-47492147D01*
X88091416Y-47505648D01*
X88091024Y-47569721D01*
X88091408Y-47571065D01*
X88091500Y-47572410D01*
X88091500Y-61491377D01*
X88091498Y-61492147D01*
X88091024Y-61569721D01*
X44608500Y-61569721D01*
X44608500Y-36953250D01*
X44610246Y-36932345D01*
X44612770Y-36917344D01*
X44612770Y-36917341D01*
X44613576Y-36912552D01*
X44613729Y-36900000D01*
X44613040Y-36895186D01*
X44613039Y-36895176D01*
X44612157Y-36889017D01*
X44611206Y-36862172D01*
X44623038Y-36696723D01*
X44625596Y-36678934D01*
X44666999Y-36488607D01*
X44672063Y-36471359D01*
X44740136Y-36288850D01*
X44747604Y-36272498D01*
X44840952Y-36101542D01*
X44850672Y-36086418D01*
X44967402Y-35930486D01*
X44979175Y-35916900D01*
X45116900Y-35779175D01*
X45130486Y-35767402D01*
X45286418Y-35650672D01*
X45301542Y-35640952D01*
X45472498Y-35547604D01*
X45488850Y-35540136D01*
X45671359Y-35472063D01*
X45688608Y-35466999D01*
X45878936Y-35425596D01*
X45896715Y-35423039D01*
X46058605Y-35411460D01*
X46076565Y-35412207D01*
X46084845Y-35412308D01*
X46093724Y-35413691D01*
X46125286Y-35409564D01*
X46141621Y-35408500D01*
X328050633Y-35408500D01*
X328070018Y-35410000D01*
G37*
G04 #@! TD.AperFunction*
M02*
