%TF.GenerationSoftware,KiCad,Pcbnew,(6.0.7-1)-1*%
%TF.CreationDate,2022-10-11T23:10:56+02:00*%
%TF.ProjectId,yts-switchblade,7974732d-7377-4697-9463-68626c616465,rev?*%
%TF.SameCoordinates,Original*%
%TF.FileFunction,Drillmap*%
%TF.FilePolarity,Positive*%
%FSLAX45Y45*%
G04 Gerber Fmt 4.5, Leading zero omitted, Abs format (unit mm)*
G04 Created by KiCad (PCBNEW (6.0.7-1)-1) date 2022-10-11 23:10:56*
%MOMM*%
%LPD*%
G01*
G04 APERTURE LIST*
%ADD10C,0.150000*%
%ADD11C,0.100000*%
%ADD12C,0.200000*%
G04 APERTURE END LIST*
D10*
X22160000Y-6650000D02*
X23560000Y-6650000D01*
X23560000Y-6650000D02*
X23560000Y-8050000D01*
X23560000Y-8050000D02*
X22160000Y-8050000D01*
X22160000Y-8050000D02*
X22160000Y-6650000D01*
D11*
X33010000Y-12850000D02*
X33010000Y-3690000D01*
D10*
X28850000Y-4800000D02*
X30150000Y-4800000D01*
X30150000Y-4800000D02*
X30150000Y-6100000D01*
X30150000Y-6100000D02*
X28850000Y-6100000D01*
X28850000Y-6100000D02*
X28850000Y-4800000D01*
D11*
X4410000Y-3690000D02*
X4410000Y-12850000D01*
X32810000Y-3490000D02*
X4610000Y-3490000D01*
D10*
X22160000Y-4750000D02*
X23560000Y-4750000D01*
X23560000Y-4750000D02*
X23560000Y-6150000D01*
X23560000Y-6150000D02*
X22160000Y-6150000D01*
X22160000Y-6150000D02*
X22160000Y-4750000D01*
X20260000Y-6650000D02*
X21660000Y-6650000D01*
X21660000Y-6650000D02*
X21660000Y-8050000D01*
X21660000Y-8050000D02*
X20260000Y-8050000D01*
X20260000Y-8050000D02*
X20260000Y-6650000D01*
X14560000Y-6650000D02*
X15960000Y-6650000D01*
X15960000Y-6650000D02*
X15960000Y-8050000D01*
X15960000Y-8050000D02*
X14560000Y-8050000D01*
X14560000Y-8050000D02*
X14560000Y-6650000D01*
X8860000Y-10450000D02*
X10260000Y-10450000D01*
X10260000Y-10450000D02*
X10260000Y-11850000D01*
X10260000Y-11850000D02*
X8860000Y-11850000D01*
X8860000Y-11850000D02*
X8860000Y-10450000D01*
X10760000Y-6650000D02*
X12160000Y-6650000D01*
X12160000Y-6650000D02*
X12160000Y-8050000D01*
X12160000Y-8050000D02*
X10760000Y-8050000D01*
X10760000Y-8050000D02*
X10760000Y-6650000D01*
D11*
X4610000Y-13050000D02*
X32810000Y-13050000D01*
D10*
X8860000Y-6650000D02*
X10260000Y-6650000D01*
X10260000Y-6650000D02*
X10260000Y-8050000D01*
X10260000Y-8050000D02*
X8860000Y-8050000D01*
X8860000Y-8050000D02*
X8860000Y-6650000D01*
X24060000Y-10450000D02*
X25460000Y-10450000D01*
X25460000Y-10450000D02*
X25460000Y-11850000D01*
X25460000Y-11850000D02*
X24060000Y-11850000D01*
X24060000Y-11850000D02*
X24060000Y-10450000D01*
X14560000Y-8550000D02*
X15960000Y-8550000D01*
X15960000Y-8550000D02*
X15960000Y-9950000D01*
X15960000Y-9950000D02*
X14560000Y-9950000D01*
X14560000Y-9950000D02*
X14560000Y-8550000D01*
D11*
X4610000Y-3490000D02*
G75*
G03*
X4410000Y-3690000I0J-200000D01*
G01*
X33010000Y-3690000D02*
G75*
G03*
X32810000Y-3490000I-200000J0D01*
G01*
D10*
X14560000Y-10450000D02*
X15960000Y-10450000D01*
X15960000Y-10450000D02*
X15960000Y-11850000D01*
X15960000Y-11850000D02*
X14560000Y-11850000D01*
X14560000Y-11850000D02*
X14560000Y-10450000D01*
X12660000Y-4750000D02*
X14060000Y-4750000D01*
X14060000Y-4750000D02*
X14060000Y-6150000D01*
X14060000Y-6150000D02*
X12660000Y-6150000D01*
X12660000Y-6150000D02*
X12660000Y-4750000D01*
X8860000Y-8550000D02*
X10260000Y-8550000D01*
X10260000Y-8550000D02*
X10260000Y-9950000D01*
X10260000Y-9950000D02*
X8860000Y-9950000D01*
X8860000Y-9950000D02*
X8860000Y-8550000D01*
X12660000Y-10450000D02*
X14060000Y-10450000D01*
X14060000Y-10450000D02*
X14060000Y-11850000D01*
X14060000Y-11850000D02*
X12660000Y-11850000D01*
X12660000Y-11850000D02*
X12660000Y-10450000D01*
X22160000Y-10450000D02*
X23560000Y-10450000D01*
X23560000Y-10450000D02*
X23560000Y-11850000D01*
X23560000Y-11850000D02*
X22160000Y-11850000D01*
X22160000Y-11850000D02*
X22160000Y-10450000D01*
X24060000Y-6650000D02*
X25460000Y-6650000D01*
X25460000Y-6650000D02*
X25460000Y-8050000D01*
X25460000Y-8050000D02*
X24060000Y-8050000D01*
X24060000Y-8050000D02*
X24060000Y-6650000D01*
X17410000Y-10450000D02*
X18810000Y-10450000D01*
X18810000Y-10450000D02*
X18810000Y-11850000D01*
X18810000Y-11850000D02*
X17410000Y-11850000D01*
X17410000Y-11850000D02*
X17410000Y-10450000D01*
X14560000Y-4750000D02*
X15960000Y-4750000D01*
X15960000Y-4750000D02*
X15960000Y-6150000D01*
X15960000Y-6150000D02*
X14560000Y-6150000D01*
X14560000Y-6150000D02*
X14560000Y-4750000D01*
D11*
X4410000Y-12850000D02*
G75*
G03*
X4610000Y-13050000I200000J0D01*
G01*
D10*
X10760000Y-10450000D02*
X12160000Y-10450000D01*
X12160000Y-10450000D02*
X12160000Y-11850000D01*
X12160000Y-11850000D02*
X10760000Y-11850000D01*
X10760000Y-11850000D02*
X10760000Y-10450000D01*
X10760000Y-4750000D02*
X12160000Y-4750000D01*
X12160000Y-4750000D02*
X12160000Y-6150000D01*
X12160000Y-6150000D02*
X10760000Y-6150000D01*
X10760000Y-6150000D02*
X10760000Y-4750000D01*
X20260000Y-10450000D02*
X21660000Y-10450000D01*
X21660000Y-10450000D02*
X21660000Y-11850000D01*
X21660000Y-11850000D02*
X20260000Y-11850000D01*
X20260000Y-11850000D02*
X20260000Y-10450000D01*
X24060000Y-4750000D02*
X25460000Y-4750000D01*
X25460000Y-4750000D02*
X25460000Y-6150000D01*
X25460000Y-6150000D02*
X24060000Y-6150000D01*
X24060000Y-6150000D02*
X24060000Y-4750000D01*
X8860000Y-4750000D02*
X10260000Y-4750000D01*
X10260000Y-4750000D02*
X10260000Y-6150000D01*
X10260000Y-6150000D02*
X8860000Y-6150000D01*
X8860000Y-6150000D02*
X8860000Y-4750000D01*
D11*
X32810000Y-13050000D02*
G75*
G03*
X33010000Y-12850000I0J200000D01*
G01*
D10*
X22160000Y-8550000D02*
X23560000Y-8550000D01*
X23560000Y-8550000D02*
X23560000Y-9950000D01*
X23560000Y-9950000D02*
X22160000Y-9950000D01*
X22160000Y-9950000D02*
X22160000Y-8550000D01*
X20260000Y-4750000D02*
X21660000Y-4750000D01*
X21660000Y-4750000D02*
X21660000Y-6150000D01*
X21660000Y-6150000D02*
X20260000Y-6150000D01*
X20260000Y-6150000D02*
X20260000Y-4750000D01*
X12660000Y-8550000D02*
X14060000Y-8550000D01*
X14060000Y-8550000D02*
X14060000Y-9950000D01*
X14060000Y-9950000D02*
X12660000Y-9950000D01*
X12660000Y-9950000D02*
X12660000Y-8550000D01*
X28850000Y-9950000D02*
X30150000Y-9950000D01*
X30150000Y-9950000D02*
X30150000Y-11250000D01*
X30150000Y-11250000D02*
X28850000Y-11250000D01*
X28850000Y-11250000D02*
X28850000Y-9950000D01*
X12660000Y-6650000D02*
X14060000Y-6650000D01*
X14060000Y-6650000D02*
X14060000Y-8050000D01*
X14060000Y-8050000D02*
X12660000Y-8050000D01*
X12660000Y-8050000D02*
X12660000Y-6650000D01*
X10760000Y-8550000D02*
X12160000Y-8550000D01*
X12160000Y-8550000D02*
X12160000Y-9950000D01*
X12160000Y-9950000D02*
X10760000Y-9950000D01*
X10760000Y-9950000D02*
X10760000Y-8550000D01*
D12*
X4662619Y-13365476D02*
X4662619Y-13165476D01*
X4710238Y-13165476D01*
X4738810Y-13175000D01*
X4757857Y-13194048D01*
X4767381Y-13213095D01*
X4776905Y-13251190D01*
X4776905Y-13279762D01*
X4767381Y-13317857D01*
X4757857Y-13336905D01*
X4738810Y-13355952D01*
X4710238Y-13365476D01*
X4662619Y-13365476D01*
X4862619Y-13365476D02*
X4862619Y-13232143D01*
X4862619Y-13270238D02*
X4872143Y-13251190D01*
X4881667Y-13241667D01*
X4900714Y-13232143D01*
X4919762Y-13232143D01*
X4986429Y-13365476D02*
X4986429Y-13232143D01*
X4986429Y-13165476D02*
X4976905Y-13175000D01*
X4986429Y-13184524D01*
X4995952Y-13175000D01*
X4986429Y-13165476D01*
X4986429Y-13184524D01*
X5110238Y-13365476D02*
X5091190Y-13355952D01*
X5081667Y-13336905D01*
X5081667Y-13165476D01*
X5215000Y-13365476D02*
X5195952Y-13355952D01*
X5186429Y-13336905D01*
X5186429Y-13165476D01*
X5443571Y-13365476D02*
X5443571Y-13165476D01*
X5510238Y-13308333D01*
X5576905Y-13165476D01*
X5576905Y-13365476D01*
X5757857Y-13365476D02*
X5757857Y-13260714D01*
X5748333Y-13241667D01*
X5729286Y-13232143D01*
X5691190Y-13232143D01*
X5672143Y-13241667D01*
X5757857Y-13355952D02*
X5738809Y-13365476D01*
X5691190Y-13365476D01*
X5672143Y-13355952D01*
X5662619Y-13336905D01*
X5662619Y-13317857D01*
X5672143Y-13298809D01*
X5691190Y-13289286D01*
X5738809Y-13289286D01*
X5757857Y-13279762D01*
X5853095Y-13232143D02*
X5853095Y-13432143D01*
X5853095Y-13241667D02*
X5872143Y-13232143D01*
X5910238Y-13232143D01*
X5929286Y-13241667D01*
X5938809Y-13251190D01*
X5948333Y-13270238D01*
X5948333Y-13327381D01*
X5938809Y-13346428D01*
X5929286Y-13355952D01*
X5910238Y-13365476D01*
X5872143Y-13365476D01*
X5853095Y-13355952D01*
X6034048Y-13346428D02*
X6043571Y-13355952D01*
X6034048Y-13365476D01*
X6024524Y-13355952D01*
X6034048Y-13346428D01*
X6034048Y-13365476D01*
X6034048Y-13241667D02*
X6043571Y-13251190D01*
X6034048Y-13260714D01*
X6024524Y-13251190D01*
X6034048Y-13241667D01*
X6034048Y-13260714D01*
M02*
