G04 #@! TF.GenerationSoftware,KiCad,Pcbnew,(6.0.7-1)-1*
G04 #@! TF.CreationDate,2022-10-11T23:10:53+02:00*
G04 #@! TF.ProjectId,yts-switchblade,7974732d-7377-4697-9463-68626c616465,rev?*
G04 #@! TF.SameCoordinates,Original*
G04 #@! TF.FileFunction,Legend,Top*
G04 #@! TF.FilePolarity,Positive*
%FSLAX46Y46*%
G04 Gerber Fmt 4.6, Leading zero omitted, Abs format (unit mm)*
G04 Created by KiCad (PCBNEW (6.0.7-1)-1) date 2022-10-11 23:10:53*
%MOMM*%
%LPD*%
G01*
G04 APERTURE LIST*
%ADD10C,0.060000*%
G04 APERTURE END LIST*
D10*
G36*
X57605979Y-48133125D02*
G01*
X56752079Y-48133125D01*
X56752079Y-48014523D01*
X57605979Y-48014523D01*
X57605979Y-48133125D01*
G37*
X57605979Y-48133125D02*
X56752079Y-48133125D01*
X56752079Y-48014523D01*
X57605979Y-48014523D01*
X57605979Y-48133125D01*
G36*
X58466857Y-48133125D02*
G01*
X57612956Y-48133125D01*
X57612956Y-48014523D01*
X58466857Y-48014523D01*
X58466857Y-48133125D01*
G37*
X58466857Y-48133125D02*
X57612956Y-48133125D01*
X57612956Y-48014523D01*
X58466857Y-48014523D01*
X58466857Y-48133125D01*
G36*
X61049489Y-48133125D02*
G01*
X60195589Y-48133125D01*
X60195589Y-48014523D01*
X61049489Y-48014523D01*
X61049489Y-48133125D01*
G37*
X61049489Y-48133125D02*
X60195589Y-48133125D01*
X60195589Y-48014523D01*
X61049489Y-48014523D01*
X61049489Y-48133125D01*
G36*
X61910366Y-48133125D02*
G01*
X61056466Y-48133125D01*
X61056466Y-48014523D01*
X61910366Y-48014523D01*
X61910366Y-48133125D01*
G37*
X61910366Y-48133125D02*
X61056466Y-48133125D01*
X61056466Y-48014523D01*
X61910366Y-48014523D01*
X61910366Y-48133125D01*
G36*
X62771212Y-48133125D02*
G01*
X61917344Y-48133125D01*
X61917344Y-48014523D01*
X62771212Y-48014523D01*
X62771212Y-48133125D01*
G37*
X62771212Y-48133125D02*
X61917344Y-48133125D01*
X61917344Y-48014523D01*
X62771212Y-48014523D01*
X62771212Y-48133125D01*
G36*
X63632113Y-48133125D02*
G01*
X62778197Y-48133125D01*
X62778197Y-48014523D01*
X63632113Y-48014523D01*
X63632113Y-48133125D01*
G37*
X63632113Y-48133125D02*
X62778197Y-48133125D01*
X62778197Y-48014523D01*
X63632113Y-48014523D01*
X63632113Y-48133125D01*
G36*
X64493014Y-48133125D02*
G01*
X63639098Y-48133125D01*
X63639098Y-48014523D01*
X64493014Y-48014523D01*
X64493014Y-48133125D01*
G37*
X64493014Y-48133125D02*
X63639098Y-48133125D01*
X63639098Y-48014523D01*
X64493014Y-48014523D01*
X64493014Y-48133125D01*
G36*
X65353916Y-48133125D02*
G01*
X64500000Y-48133125D01*
X64500000Y-48014523D01*
X65353916Y-48014523D01*
X65353916Y-48133125D01*
G37*
X65353916Y-48133125D02*
X64500000Y-48133125D01*
X64500000Y-48014523D01*
X65353916Y-48014523D01*
X65353916Y-48133125D01*
G36*
X66214737Y-48133125D02*
G01*
X65360821Y-48133125D01*
X65360821Y-48014523D01*
X66214737Y-48014523D01*
X66214737Y-48133125D01*
G37*
X66214737Y-48133125D02*
X65360821Y-48133125D01*
X65360821Y-48014523D01*
X66214737Y-48014523D01*
X66214737Y-48133125D01*
G36*
X67075639Y-48133125D02*
G01*
X66221722Y-48133125D01*
X66221722Y-48014523D01*
X67075639Y-48014523D01*
X67075639Y-48133125D01*
G37*
X67075639Y-48133125D02*
X66221722Y-48133125D01*
X66221722Y-48014523D01*
X67075639Y-48014523D01*
X67075639Y-48133125D01*
G36*
X67936539Y-48133125D02*
G01*
X67082624Y-48133125D01*
X67082624Y-48014523D01*
X67936539Y-48014523D01*
X67936539Y-48133125D01*
G37*
X67936539Y-48133125D02*
X67082624Y-48133125D01*
X67082624Y-48014523D01*
X67936539Y-48014523D01*
X67936539Y-48133125D01*
G36*
X68797362Y-48133125D02*
G01*
X67943525Y-48133125D01*
X67943525Y-48014523D01*
X68797362Y-48014523D01*
X68797362Y-48133125D01*
G37*
X68797362Y-48133125D02*
X67943525Y-48133125D01*
X67943525Y-48014523D01*
X68797362Y-48014523D01*
X68797362Y-48133125D01*
G36*
X69658262Y-48133125D02*
G01*
X68804346Y-48133125D01*
X68804346Y-48014523D01*
X69658262Y-48014523D01*
X69658262Y-48133125D01*
G37*
X69658262Y-48133125D02*
X68804346Y-48133125D01*
X68804346Y-48014523D01*
X69658262Y-48014523D01*
X69658262Y-48133125D01*
G36*
X70519164Y-48133125D02*
G01*
X69665248Y-48133125D01*
X69665248Y-48014523D01*
X70519164Y-48014523D01*
X70519164Y-48133125D01*
G37*
X70519164Y-48133125D02*
X69665248Y-48133125D01*
X69665248Y-48014523D01*
X70519164Y-48014523D01*
X70519164Y-48133125D01*
G36*
X71379986Y-48133125D02*
G01*
X70526148Y-48133125D01*
X70526148Y-48014523D01*
X71379986Y-48014523D01*
X71379986Y-48133125D01*
G37*
X71379986Y-48133125D02*
X70526148Y-48133125D01*
X70526148Y-48014523D01*
X71379986Y-48014523D01*
X71379986Y-48133125D01*
G36*
X77406136Y-48133125D02*
G01*
X76552299Y-48133125D01*
X76552299Y-48014523D01*
X77406136Y-48014523D01*
X77406136Y-48133125D01*
G37*
X77406136Y-48133125D02*
X76552299Y-48133125D01*
X76552299Y-48014523D01*
X77406136Y-48014523D01*
X77406136Y-48133125D01*
G36*
X78267036Y-48133125D02*
G01*
X77413122Y-48133125D01*
X77413122Y-48014523D01*
X78267036Y-48014523D01*
X78267036Y-48133125D01*
G37*
X78267036Y-48133125D02*
X77413122Y-48133125D01*
X77413122Y-48014523D01*
X78267036Y-48014523D01*
X78267036Y-48133125D01*
G36*
X79127936Y-48133125D02*
G01*
X78274022Y-48133125D01*
X78274022Y-48014523D01*
X79127936Y-48014523D01*
X79127936Y-48133125D01*
G37*
X79127936Y-48133125D02*
X78274022Y-48133125D01*
X78274022Y-48014523D01*
X79127936Y-48014523D01*
X79127936Y-48133125D01*
G36*
X76490147Y-48878425D02*
G01*
X75897217Y-49101667D01*
X76490147Y-49322814D01*
X76490147Y-49450480D01*
X75752756Y-49158873D01*
X75752756Y-49043064D01*
X76490147Y-48751456D01*
X76490147Y-48878425D01*
G37*
X76490147Y-48878425D02*
X75897217Y-49101667D01*
X76490147Y-49322814D01*
X76490147Y-49450480D01*
X75752756Y-49158873D01*
X75752756Y-49043064D01*
X76490147Y-48751456D01*
X76490147Y-48878425D01*
G36*
X57504824Y-49681398D02*
G01*
X57372275Y-49681398D01*
X56823238Y-48507283D01*
X56956485Y-48507283D01*
X57504824Y-49681398D01*
G37*
X57504824Y-49681398D02*
X57372275Y-49681398D01*
X56823238Y-48507283D01*
X56956485Y-48507283D01*
X57504824Y-49681398D01*
G36*
X59226578Y-49681398D02*
G01*
X59094030Y-49681398D01*
X58544993Y-48507283D01*
X58678240Y-48507283D01*
X59226578Y-49681398D01*
G37*
X59226578Y-49681398D02*
X59094030Y-49681398D01*
X58544993Y-48507283D01*
X58678240Y-48507283D01*
X59226578Y-49681398D01*
G36*
X59539118Y-49681398D02*
G01*
X59405871Y-49681398D01*
X59954907Y-48507283D01*
X60087456Y-48507283D01*
X59539118Y-49681398D01*
G37*
X59539118Y-49681398D02*
X59405871Y-49681398D01*
X59954907Y-48507283D01*
X60087456Y-48507283D01*
X59539118Y-49681398D01*
G36*
X61260873Y-49681398D02*
G01*
X61127625Y-49681398D01*
X61676662Y-48507283D01*
X61809211Y-48507283D01*
X61260873Y-49681398D01*
G37*
X61260873Y-49681398D02*
X61127625Y-49681398D01*
X61676662Y-48507283D01*
X61809211Y-48507283D01*
X61260873Y-49681398D01*
G36*
X78478413Y-49681398D02*
G01*
X78345140Y-49681398D01*
X78894179Y-48507283D01*
X79026734Y-48507283D01*
X78478413Y-49681398D01*
G37*
X78478413Y-49681398D02*
X78345140Y-49681398D01*
X78894179Y-48507283D01*
X79026734Y-48507283D01*
X78478413Y-49681398D01*
G36*
X70730539Y-49681398D02*
G01*
X70597269Y-49681398D01*
X71146306Y-48507283D01*
X71278862Y-48507283D01*
X70730539Y-49681398D01*
G37*
X70730539Y-49681398D02*
X70597269Y-49681398D01*
X71146306Y-48507283D01*
X71278862Y-48507283D01*
X70730539Y-49681398D01*
G36*
X66426113Y-49681398D02*
G01*
X66292922Y-49681398D01*
X66841959Y-48507283D01*
X66974515Y-48507283D01*
X66426113Y-49681398D01*
G37*
X66426113Y-49681398D02*
X66292922Y-49681398D01*
X66841959Y-48507283D01*
X66974515Y-48507283D01*
X66426113Y-49681398D01*
G36*
X68797362Y-49800000D02*
G01*
X67943525Y-49800000D01*
X67943525Y-49681398D01*
X68797362Y-49681398D01*
X68797362Y-49800000D01*
G37*
X68797362Y-49800000D02*
X67943525Y-49800000D01*
X67943525Y-49681398D01*
X68797362Y-49681398D01*
X68797362Y-49800000D01*
G36*
X69658262Y-49800000D02*
G01*
X68804346Y-49800000D01*
X68804346Y-49681398D01*
X69658262Y-49681398D01*
X69658262Y-49800000D01*
G37*
X69658262Y-49800000D02*
X68804346Y-49800000D01*
X68804346Y-49681398D01*
X69658262Y-49681398D01*
X69658262Y-49800000D01*
G36*
X70519164Y-49800000D02*
G01*
X69665248Y-49800000D01*
X69665248Y-49681398D01*
X70519164Y-49681398D01*
X70519164Y-49800000D01*
G37*
X70519164Y-49800000D02*
X69665248Y-49800000D01*
X69665248Y-49681398D01*
X70519164Y-49681398D01*
X70519164Y-49800000D01*
G36*
X66214737Y-49800000D02*
G01*
X65360821Y-49800000D01*
X65360821Y-49681398D01*
X66214737Y-49681398D01*
X66214737Y-49800000D01*
G37*
X66214737Y-49800000D02*
X65360821Y-49800000D01*
X65360821Y-49681398D01*
X66214737Y-49681398D01*
X66214737Y-49800000D01*
G36*
X65353916Y-49800000D02*
G01*
X64500000Y-49800000D01*
X64500000Y-49681398D01*
X65353916Y-49681398D01*
X65353916Y-49800000D01*
G37*
X65353916Y-49800000D02*
X64500000Y-49800000D01*
X64500000Y-49681398D01*
X65353916Y-49681398D01*
X65353916Y-49800000D01*
G36*
X62771212Y-49800000D02*
G01*
X61917344Y-49800000D01*
X61917344Y-49681398D01*
X62771212Y-49681398D01*
X62771212Y-49800000D01*
G37*
X62771212Y-49800000D02*
X61917344Y-49800000D01*
X61917344Y-49681398D01*
X62771212Y-49681398D01*
X62771212Y-49800000D01*
G36*
X58365701Y-51348273D02*
G01*
X58233153Y-51348273D01*
X57684116Y-50174158D01*
X57817363Y-50174158D01*
X58365701Y-51348273D01*
G37*
X58365701Y-51348273D02*
X58233153Y-51348273D01*
X57684116Y-50174158D01*
X57817363Y-50174158D01*
X58365701Y-51348273D01*
G36*
X60399995Y-51348273D02*
G01*
X60266749Y-51348273D01*
X60815785Y-50174158D01*
X60948333Y-50174158D01*
X60399995Y-51348273D01*
G37*
X60399995Y-51348273D02*
X60266749Y-51348273D01*
X60815785Y-50174158D01*
X60948333Y-50174158D01*
X60399995Y-51348273D01*
G36*
X62121766Y-51348273D02*
G01*
X61988503Y-51348273D01*
X62537532Y-50174158D01*
X62670088Y-50174158D01*
X62121766Y-51348273D01*
G37*
X62121766Y-51348273D02*
X61988503Y-51348273D01*
X62537532Y-50174158D01*
X62670088Y-50174158D01*
X62121766Y-51348273D01*
G36*
X63843489Y-51348273D02*
G01*
X63710297Y-51348273D01*
X64259334Y-50174158D01*
X64391811Y-50174158D01*
X63843489Y-51348273D01*
G37*
X63843489Y-51348273D02*
X63710297Y-51348273D01*
X64259334Y-50174158D01*
X64391811Y-50174158D01*
X63843489Y-51348273D01*
G36*
X66974515Y-51348273D02*
G01*
X66841959Y-51348273D01*
X66292922Y-50174158D01*
X66426113Y-50174158D01*
X66974515Y-51348273D01*
G37*
X66974515Y-51348273D02*
X66841959Y-51348273D01*
X66292922Y-50174158D01*
X66426113Y-50174158D01*
X66974515Y-51348273D01*
G36*
X77617511Y-51348273D02*
G01*
X77484318Y-51348273D01*
X78033357Y-50174158D01*
X78165912Y-50174158D01*
X77617511Y-51348273D01*
G37*
X77617511Y-51348273D02*
X77484318Y-51348273D01*
X78033357Y-50174158D01*
X78165912Y-50174158D01*
X77617511Y-51348273D01*
G36*
X75895786Y-51348273D02*
G01*
X75762517Y-51348273D01*
X76311555Y-50174158D01*
X76444112Y-50174158D01*
X75895786Y-51348273D01*
G37*
X75895786Y-51348273D02*
X75762517Y-51348273D01*
X76311555Y-50174158D01*
X76444112Y-50174158D01*
X75895786Y-51348273D01*
G36*
X70417961Y-51348273D02*
G01*
X70285404Y-51348273D01*
X69736368Y-50174158D01*
X69869639Y-50174158D01*
X70417961Y-51348273D01*
G37*
X70417961Y-51348273D02*
X70285404Y-51348273D01*
X69736368Y-50174158D01*
X69869639Y-50174158D01*
X70417961Y-51348273D01*
G36*
X71379986Y-51466875D02*
G01*
X70526148Y-51466875D01*
X70526148Y-51348273D01*
X71379986Y-51348273D01*
X71379986Y-51466875D01*
G37*
X71379986Y-51466875D02*
X70526148Y-51466875D01*
X70526148Y-51348273D01*
X71379986Y-51348273D01*
X71379986Y-51466875D01*
G36*
X72240887Y-51466875D02*
G01*
X71386971Y-51466875D01*
X71386971Y-51348273D01*
X72240887Y-51348273D01*
X72240887Y-51466875D01*
G37*
X72240887Y-51466875D02*
X71386971Y-51466875D01*
X71386971Y-51348273D01*
X72240887Y-51348273D01*
X72240887Y-51466875D01*
G36*
X73101789Y-51466875D02*
G01*
X72247871Y-51466875D01*
X72247871Y-51348273D01*
X73101789Y-51348273D01*
X73101789Y-51466875D01*
G37*
X73101789Y-51466875D02*
X72247871Y-51466875D01*
X72247871Y-51348273D01*
X73101789Y-51348273D01*
X73101789Y-51466875D01*
G36*
X73962689Y-51466875D02*
G01*
X73108773Y-51466875D01*
X73108773Y-51348273D01*
X73962689Y-51348273D01*
X73962689Y-51466875D01*
G37*
X73962689Y-51466875D02*
X73108773Y-51466875D01*
X73108773Y-51348273D01*
X73962689Y-51348273D01*
X73962689Y-51466875D01*
G36*
X74823511Y-51466875D02*
G01*
X73969594Y-51466875D01*
X73969594Y-51348273D01*
X74823511Y-51348273D01*
X74823511Y-51466875D01*
G37*
X74823511Y-51466875D02*
X73969594Y-51466875D01*
X73969594Y-51348273D01*
X74823511Y-51348273D01*
X74823511Y-51466875D01*
G36*
X75684412Y-51466875D02*
G01*
X74830497Y-51466875D01*
X74830497Y-51348273D01*
X75684412Y-51348273D01*
X75684412Y-51466875D01*
G37*
X75684412Y-51466875D02*
X74830497Y-51466875D01*
X74830497Y-51348273D01*
X75684412Y-51348273D01*
X75684412Y-51466875D01*
G36*
X68797362Y-51466875D02*
G01*
X67943525Y-51466875D01*
X67943525Y-51348273D01*
X68797362Y-51348273D01*
X68797362Y-51466875D01*
G37*
X68797362Y-51466875D02*
X67943525Y-51466875D01*
X67943525Y-51348273D01*
X68797362Y-51348273D01*
X68797362Y-51466875D01*
G36*
X67936539Y-51466875D02*
G01*
X67082624Y-51466875D01*
X67082624Y-51348273D01*
X67936539Y-51348273D01*
X67936539Y-51466875D01*
G37*
X67936539Y-51466875D02*
X67082624Y-51466875D01*
X67082624Y-51348273D01*
X67936539Y-51348273D01*
X67936539Y-51466875D01*
G36*
X57817363Y-53015148D02*
G01*
X57684116Y-53015148D01*
X58233153Y-51841033D01*
X58365701Y-51841033D01*
X57817363Y-53015148D01*
G37*
X57817363Y-53015148D02*
X57684116Y-53015148D01*
X58233153Y-51841033D01*
X58365701Y-51841033D01*
X57817363Y-53015148D01*
G36*
X59539118Y-53015148D02*
G01*
X59405871Y-53015148D01*
X59954907Y-51841033D01*
X60087456Y-51841033D01*
X59539118Y-53015148D01*
G37*
X59539118Y-53015148D02*
X59405871Y-53015148D01*
X59954907Y-51841033D01*
X60087456Y-51841033D01*
X59539118Y-53015148D01*
G36*
X61260873Y-53015148D02*
G01*
X61127625Y-53015148D01*
X61676662Y-51841033D01*
X61809211Y-51841033D01*
X61260873Y-53015148D01*
G37*
X61260873Y-53015148D02*
X61127625Y-53015148D01*
X61676662Y-51841033D01*
X61809211Y-51841033D01*
X61260873Y-53015148D01*
G36*
X62982667Y-53015148D02*
G01*
X62849396Y-53015148D01*
X63398433Y-51841033D01*
X63530989Y-51841033D01*
X62982667Y-53015148D01*
G37*
X62982667Y-53015148D02*
X62849396Y-53015148D01*
X63398433Y-51841033D01*
X63530989Y-51841033D01*
X62982667Y-53015148D01*
G36*
X68147915Y-53015148D02*
G01*
X68014644Y-53015148D01*
X68563681Y-51841033D01*
X68696238Y-51841033D01*
X68147915Y-53015148D01*
G37*
X68147915Y-53015148D02*
X68014644Y-53015148D01*
X68563681Y-51841033D01*
X68696238Y-51841033D01*
X68147915Y-53015148D01*
G36*
X69869639Y-53015148D02*
G01*
X69736368Y-53015148D01*
X70285404Y-51841033D01*
X70417961Y-51841033D01*
X69869639Y-53015148D01*
G37*
X69869639Y-53015148D02*
X69736368Y-53015148D01*
X70285404Y-51841033D01*
X70417961Y-51841033D01*
X69869639Y-53015148D01*
G36*
X76756689Y-53015148D02*
G01*
X76623420Y-53015148D01*
X77172455Y-51841033D01*
X77305014Y-51841033D01*
X76756689Y-53015148D01*
G37*
X76756689Y-53015148D02*
X76623420Y-53015148D01*
X77172455Y-51841033D01*
X77305014Y-51841033D01*
X76756689Y-53015148D01*
G36*
X75034888Y-53015148D02*
G01*
X74901695Y-53015148D01*
X75450732Y-51841033D01*
X75583289Y-51841033D01*
X75034888Y-53015148D01*
G37*
X75034888Y-53015148D02*
X74901695Y-53015148D01*
X75450732Y-51841033D01*
X75583289Y-51841033D01*
X75034888Y-53015148D01*
G36*
X66214737Y-53133750D02*
G01*
X65360821Y-53133750D01*
X65360821Y-53015148D01*
X66214737Y-53015148D01*
X66214737Y-53133750D01*
G37*
X66214737Y-53133750D02*
X65360821Y-53133750D01*
X65360821Y-53015148D01*
X66214737Y-53015148D01*
X66214737Y-53133750D01*
G36*
X67075639Y-53133750D02*
G01*
X66221722Y-53133750D01*
X66221722Y-53015148D01*
X67075639Y-53015148D01*
X67075639Y-53133750D01*
G37*
X67075639Y-53133750D02*
X66221722Y-53133750D01*
X66221722Y-53015148D01*
X67075639Y-53015148D01*
X67075639Y-53133750D01*
G36*
X67936539Y-53133750D02*
G01*
X67082624Y-53133750D01*
X67082624Y-53015148D01*
X67936539Y-53015148D01*
X67936539Y-53133750D01*
G37*
X67936539Y-53133750D02*
X67082624Y-53133750D01*
X67082624Y-53015148D01*
X67936539Y-53015148D01*
X67936539Y-53133750D01*
G36*
X71379986Y-53133750D02*
G01*
X70526148Y-53133750D01*
X70526148Y-53015148D01*
X71379986Y-53015148D01*
X71379986Y-53133750D01*
G37*
X71379986Y-53133750D02*
X70526148Y-53133750D01*
X70526148Y-53015148D01*
X71379986Y-53015148D01*
X71379986Y-53133750D01*
G36*
X72240887Y-53133750D02*
G01*
X71386971Y-53133750D01*
X71386971Y-53015148D01*
X72240887Y-53015148D01*
X72240887Y-53133750D01*
G37*
X72240887Y-53133750D02*
X71386971Y-53133750D01*
X71386971Y-53015148D01*
X72240887Y-53015148D01*
X72240887Y-53133750D01*
G36*
X73962689Y-53133750D02*
G01*
X73108773Y-53133750D01*
X73108773Y-53015148D01*
X73962689Y-53015148D01*
X73962689Y-53133750D01*
G37*
X73962689Y-53133750D02*
X73108773Y-53133750D01*
X73108773Y-53015148D01*
X73962689Y-53015148D01*
X73962689Y-53133750D01*
G36*
X74823511Y-53133750D02*
G01*
X73969594Y-53133750D01*
X73969594Y-53015148D01*
X74823511Y-53015148D01*
X74823511Y-53133750D01*
G37*
X74823511Y-53133750D02*
X73969594Y-53133750D01*
X73969594Y-53015148D01*
X74823511Y-53015148D01*
X74823511Y-53133750D01*
G36*
X73101789Y-53133750D02*
G01*
X72247871Y-53133750D01*
X72247871Y-53015148D01*
X73101789Y-53015148D01*
X73101789Y-53133750D01*
G37*
X73101789Y-53133750D02*
X72247871Y-53133750D01*
X72247871Y-53015148D01*
X73101789Y-53015148D01*
X73101789Y-53133750D01*
G36*
X56956485Y-54682030D02*
G01*
X56823238Y-54682030D01*
X57372275Y-53507908D01*
X57504824Y-53507908D01*
X56956485Y-54682030D01*
G37*
X56956485Y-54682030D02*
X56823238Y-54682030D01*
X57372275Y-53507908D01*
X57504824Y-53507908D01*
X56956485Y-54682030D01*
G36*
X58678240Y-54682030D02*
G01*
X58544993Y-54682030D01*
X59094030Y-53507908D01*
X59226578Y-53507908D01*
X58678240Y-54682030D01*
G37*
X58678240Y-54682030D02*
X58544993Y-54682030D01*
X59094030Y-53507908D01*
X59226578Y-53507908D01*
X58678240Y-54682030D01*
G36*
X60399995Y-54682030D02*
G01*
X60266749Y-54682030D01*
X60815785Y-53507908D01*
X60948333Y-53507908D01*
X60399995Y-54682030D01*
G37*
X60399995Y-54682030D02*
X60266749Y-54682030D01*
X60815785Y-53507908D01*
X60948333Y-53507908D01*
X60399995Y-54682030D01*
G36*
X62121766Y-54682030D02*
G01*
X61988503Y-54682030D01*
X62537532Y-53507908D01*
X62670088Y-53507908D01*
X62121766Y-54682030D01*
G37*
X62121766Y-54682030D02*
X61988503Y-54682030D01*
X62537532Y-53507908D01*
X62670088Y-53507908D01*
X62121766Y-54682030D01*
G36*
X64704390Y-54682030D02*
G01*
X64571119Y-54682030D01*
X65120156Y-53507908D01*
X65252712Y-53507908D01*
X64704390Y-54682030D01*
G37*
X64704390Y-54682030D02*
X64571119Y-54682030D01*
X65120156Y-53507908D01*
X65252712Y-53507908D01*
X64704390Y-54682030D01*
G36*
X69008736Y-54682030D02*
G01*
X68875547Y-54682030D01*
X69424583Y-53507908D01*
X69557139Y-53507908D01*
X69008736Y-54682030D01*
G37*
X69008736Y-54682030D02*
X68875547Y-54682030D01*
X69424583Y-53507908D01*
X69557139Y-53507908D01*
X69008736Y-54682030D01*
G36*
X74174066Y-54682030D02*
G01*
X74040795Y-54682030D01*
X74589832Y-53507908D01*
X74722387Y-53507908D01*
X74174066Y-54682030D01*
G37*
X74174066Y-54682030D02*
X74040795Y-54682030D01*
X74589832Y-53507908D01*
X74722387Y-53507908D01*
X74174066Y-54682030D01*
G36*
X75895786Y-54682030D02*
G01*
X75762517Y-54682030D01*
X76311555Y-53507908D01*
X76444112Y-53507908D01*
X75895786Y-54682030D01*
G37*
X75895786Y-54682030D02*
X75762517Y-54682030D01*
X76311555Y-53507908D01*
X76444112Y-53507908D01*
X75895786Y-54682030D01*
G36*
X58466857Y-54800617D02*
G01*
X57612956Y-54800617D01*
X57612956Y-54682030D01*
X58466857Y-54682030D01*
X58466857Y-54800617D01*
G37*
X58466857Y-54800617D02*
X57612956Y-54800617D01*
X57612956Y-54682030D01*
X58466857Y-54682030D01*
X58466857Y-54800617D01*
G36*
X61910366Y-54800617D02*
G01*
X61056466Y-54800617D01*
X61056466Y-54682030D01*
X61910366Y-54682030D01*
X61910366Y-54800617D01*
G37*
X61910366Y-54800617D02*
X61056466Y-54800617D01*
X61056466Y-54682030D01*
X61910366Y-54682030D01*
X61910366Y-54800617D01*
G36*
X66214737Y-54800617D02*
G01*
X65360821Y-54800617D01*
X65360821Y-54682030D01*
X66214737Y-54682030D01*
X66214737Y-54800617D01*
G37*
X66214737Y-54800617D02*
X65360821Y-54800617D01*
X65360821Y-54682030D01*
X66214737Y-54682030D01*
X66214737Y-54800617D01*
G36*
X67075639Y-54800617D02*
G01*
X66221722Y-54800617D01*
X66221722Y-54682030D01*
X67075639Y-54682030D01*
X67075639Y-54800617D01*
G37*
X67075639Y-54800617D02*
X66221722Y-54800617D01*
X66221722Y-54682030D01*
X67075639Y-54682030D01*
X67075639Y-54800617D01*
G36*
X67936539Y-54800617D02*
G01*
X67082624Y-54800617D01*
X67082624Y-54682030D01*
X67936539Y-54682030D01*
X67936539Y-54800617D01*
G37*
X67936539Y-54800617D02*
X67082624Y-54800617D01*
X67082624Y-54682030D01*
X67936539Y-54682030D01*
X67936539Y-54800617D01*
G36*
X68797362Y-54800617D02*
G01*
X67943525Y-54800617D01*
X67943525Y-54682030D01*
X68797362Y-54682030D01*
X68797362Y-54800617D01*
G37*
X68797362Y-54800617D02*
X67943525Y-54800617D01*
X67943525Y-54682030D01*
X68797362Y-54682030D01*
X68797362Y-54800617D01*
G36*
X75684412Y-54800617D02*
G01*
X74830497Y-54800617D01*
X74830497Y-54682030D01*
X75684412Y-54682030D01*
X75684412Y-54800617D01*
G37*
X75684412Y-54800617D02*
X74830497Y-54800617D01*
X74830497Y-54682030D01*
X75684412Y-54682030D01*
X75684412Y-54800617D01*
%LPC*%
M02*
