G04 #@! TF.GenerationSoftware,KiCad,Pcbnew,(6.0.7-1)-1*
G04 #@! TF.CreationDate,2022-10-11T23:46:09+02:00*
G04 #@! TF.ProjectId,yts-switchblade,7974732d-7377-4697-9463-68626c616465,rev?*
G04 #@! TF.SameCoordinates,Original*
G04 #@! TF.FileFunction,Soldermask,Bot*
G04 #@! TF.FilePolarity,Negative*
%FSLAX46Y46*%
G04 Gerber Fmt 4.6, Leading zero omitted, Abs format (unit mm)*
G04 Created by KiCad (PCBNEW (6.0.7-1)-1) date 2022-10-11 23:46:09*
%MOMM*%
%LPD*%
G01*
G04 APERTURE LIST*
G04 APERTURE END LIST*
G36*
X306121704Y-123544530D02*
G01*
X306244123Y-123763428D01*
X306408722Y-124112343D01*
X306429987Y-124160388D01*
X306531138Y-124407903D01*
X306588260Y-124582207D01*
X306589486Y-124648125D01*
X306572125Y-124637398D01*
X306492593Y-124526230D01*
X306379554Y-124328464D01*
X306254398Y-124086504D01*
X306138518Y-123842754D01*
X306053303Y-123639616D01*
X306020144Y-123519497D01*
X306045653Y-123462040D01*
X306121704Y-123544530D01*
G37*
G36*
X308653340Y-125144212D02*
G01*
X308733023Y-125270690D01*
X308844431Y-125478109D01*
X308966956Y-125724409D01*
X309079988Y-125967532D01*
X309162921Y-126165419D01*
X309195144Y-126276011D01*
X309193927Y-126296252D01*
X309153662Y-126308182D01*
X309059315Y-126178789D01*
X308914819Y-125913166D01*
X308784472Y-125649013D01*
X308653817Y-125353043D01*
X308603423Y-125180416D01*
X308630857Y-125124375D01*
X308653340Y-125144212D01*
G37*
G36*
X321565483Y-120173449D02*
G01*
X321651478Y-120310694D01*
X321768927Y-120519111D01*
X321896829Y-120759110D01*
X322014185Y-120991102D01*
X322099999Y-121175497D01*
X322133269Y-121272705D01*
X322133080Y-121275912D01*
X322069188Y-121314375D01*
X322028764Y-121274734D01*
X321939499Y-121124600D01*
X321826996Y-120902263D01*
X321710692Y-120650259D01*
X321610021Y-120411126D01*
X321544419Y-120227398D01*
X321533323Y-120141612D01*
X321565483Y-120173449D01*
G37*
G36*
X325507618Y-121804765D02*
G01*
X325510675Y-121813671D01*
X325486065Y-121928751D01*
X325410624Y-122141180D01*
X325297362Y-122413307D01*
X325267363Y-122480164D01*
X325143291Y-122735039D01*
X325040564Y-122913820D01*
X324978951Y-122981250D01*
X324978872Y-122981249D01*
X324934623Y-122976126D01*
X324922171Y-122941631D01*
X324950202Y-122849073D01*
X325027397Y-122669761D01*
X325162442Y-122375005D01*
X325167421Y-122364204D01*
X325304822Y-122067893D01*
X325392010Y-121889453D01*
X325444518Y-121803224D01*
X325477877Y-121783548D01*
X325507618Y-121804765D01*
G37*
G36*
X316404736Y-120173993D02*
G01*
X316490941Y-120310322D01*
X316608673Y-120518095D01*
X316736883Y-120757766D01*
X316854523Y-120989788D01*
X316940544Y-121174617D01*
X316973894Y-121272705D01*
X316973438Y-121277547D01*
X316906338Y-121314375D01*
X316866019Y-121276320D01*
X316776395Y-121127565D01*
X316663811Y-120905888D01*
X316547703Y-120653940D01*
X316447504Y-120414372D01*
X316382651Y-120229837D01*
X316372576Y-120142984D01*
X316404736Y-120173993D01*
G37*
G36*
X324657168Y-120165781D02*
G01*
X324634099Y-120281609D01*
X324555286Y-120492356D01*
X324434458Y-120760168D01*
X324404254Y-120821784D01*
X324272315Y-121072203D01*
X324164702Y-121248021D01*
X324102310Y-121314375D01*
X324061259Y-121307258D01*
X324048645Y-121265925D01*
X324081724Y-121163605D01*
X324169550Y-120973611D01*
X324321176Y-120669258D01*
X324361304Y-120591024D01*
X324493911Y-120353514D01*
X324597817Y-120198614D01*
X324653325Y-120156721D01*
X324657168Y-120165781D01*
G37*
G36*
X322476959Y-121884977D02*
G01*
X322587937Y-122070642D01*
X322725172Y-122345512D01*
X322874333Y-122683593D01*
X322902736Y-122756451D01*
X322947323Y-122917148D01*
X322934720Y-122981250D01*
X322894782Y-122945822D01*
X322803987Y-122799913D01*
X322690034Y-122580258D01*
X322572645Y-122329538D01*
X322471546Y-122090438D01*
X322406458Y-121905640D01*
X322397107Y-121817828D01*
X322406568Y-121814515D01*
X322476959Y-121884977D01*
G37*
G36*
X306910534Y-121798376D02*
G01*
X306988249Y-121903792D01*
X307098539Y-122099211D01*
X307220577Y-122341891D01*
X307333535Y-122589091D01*
X307416583Y-122798068D01*
X307448894Y-122926082D01*
X307447123Y-122955771D01*
X307422129Y-122973007D01*
X307360463Y-122888347D01*
X307253040Y-122687320D01*
X307090780Y-122355452D01*
X307053667Y-122276463D01*
X306948272Y-122028897D01*
X306891715Y-121855779D01*
X306895579Y-121790625D01*
X306910534Y-121798376D01*
G37*
G36*
X311129522Y-124660448D02*
G01*
X311670811Y-124668120D01*
X311793029Y-124671105D01*
X311929500Y-124676875D01*
X311919654Y-124682021D01*
X311771846Y-124686355D01*
X311494432Y-124689690D01*
X311095767Y-124691836D01*
X310584207Y-124692606D01*
X310327521Y-124692441D01*
X309864713Y-124691020D01*
X309516690Y-124688299D01*
X309292246Y-124684467D01*
X309200173Y-124679712D01*
X309249263Y-124674225D01*
X309448311Y-124668193D01*
X309917408Y-124661010D01*
X310518855Y-124658079D01*
X311129522Y-124660448D01*
G37*
G36*
X306895170Y-120410944D02*
G01*
X307089320Y-120472627D01*
X307296367Y-120554917D01*
X307461091Y-120636551D01*
X307528269Y-120696268D01*
X307526223Y-120704967D01*
X307441315Y-120780635D01*
X307270301Y-120871109D01*
X307257732Y-120876527D01*
X307034865Y-120952742D01*
X306853582Y-120984513D01*
X306812613Y-120979386D01*
X306834711Y-120935306D01*
X306999661Y-120850359D01*
X307304490Y-120715618D01*
X307009678Y-120575032D01*
X306937210Y-120538733D01*
X306792129Y-120450265D01*
X306751955Y-120397356D01*
X306769137Y-120391131D01*
X306895170Y-120410944D01*
G37*
G36*
X319845215Y-123477337D02*
G01*
X319924898Y-123603815D01*
X320036306Y-123811234D01*
X320158831Y-124057534D01*
X320271863Y-124300657D01*
X320354796Y-124498544D01*
X320387019Y-124609136D01*
X320385802Y-124629377D01*
X320345537Y-124641307D01*
X320251190Y-124511914D01*
X320106694Y-124246291D01*
X319976347Y-123982138D01*
X319845692Y-123686168D01*
X319795298Y-123513541D01*
X319822732Y-123457500D01*
X319845215Y-123477337D01*
G37*
G36*
X308261067Y-126336849D02*
G01*
X308262966Y-126337086D01*
X308326372Y-126353268D01*
X308247905Y-126365008D01*
X308044207Y-126369779D01*
X307835416Y-126365747D01*
X307740973Y-126354199D01*
X307784817Y-126337659D01*
X308002212Y-126323887D01*
X308261067Y-126336849D01*
G37*
G36*
X305645958Y-119658134D02*
G01*
X306075778Y-119667718D01*
X306088866Y-119668224D01*
X306230079Y-119676448D01*
X306223722Y-119683611D01*
X306080355Y-119689278D01*
X305810538Y-119693017D01*
X305424832Y-119694396D01*
X305406860Y-119694396D01*
X305021974Y-119692996D01*
X304750035Y-119689211D01*
X304602493Y-119683474D01*
X304590799Y-119676220D01*
X304726403Y-119667883D01*
X304751837Y-119666881D01*
X305172050Y-119657859D01*
X305645958Y-119658134D01*
G37*
G36*
X305212861Y-121840868D02*
G01*
X305299066Y-121977197D01*
X305416798Y-122184970D01*
X305545008Y-122424641D01*
X305662648Y-122656663D01*
X305748669Y-122841492D01*
X305782019Y-122939580D01*
X305781563Y-122944422D01*
X305714463Y-122981250D01*
X305674144Y-122943195D01*
X305584520Y-122794440D01*
X305471936Y-122572763D01*
X305355828Y-122320815D01*
X305255629Y-122081247D01*
X305190776Y-121896712D01*
X305180701Y-121809859D01*
X305212861Y-121840868D01*
G37*
G36*
X318102409Y-125132126D02*
G01*
X318180124Y-125237542D01*
X318290414Y-125432961D01*
X318412452Y-125675641D01*
X318525410Y-125922841D01*
X318608458Y-126131818D01*
X318640769Y-126259832D01*
X318638998Y-126289521D01*
X318614004Y-126306757D01*
X318552338Y-126222097D01*
X318444915Y-126021070D01*
X318282655Y-125689202D01*
X318245542Y-125610213D01*
X318140147Y-125362647D01*
X318083590Y-125189529D01*
X318087454Y-125124375D01*
X318102409Y-125132126D01*
G37*
G36*
X313465293Y-121832656D02*
G01*
X313442224Y-121948484D01*
X313363411Y-122159231D01*
X313242583Y-122427043D01*
X313212379Y-122488659D01*
X313080440Y-122739078D01*
X312972827Y-122914896D01*
X312910435Y-122981250D01*
X312869384Y-122974133D01*
X312856770Y-122932800D01*
X312889849Y-122830480D01*
X312977675Y-122640486D01*
X313129301Y-122336133D01*
X313169429Y-122257899D01*
X313302036Y-122020389D01*
X313405942Y-121865489D01*
X313461450Y-121823596D01*
X313465293Y-121832656D01*
G37*
G36*
X307771803Y-123468554D02*
G01*
X307851029Y-123580375D01*
X307963693Y-123778528D01*
X308088458Y-124020596D01*
X308203991Y-124264163D01*
X308288957Y-124466812D01*
X308322019Y-124586127D01*
X308300264Y-124642957D01*
X308227355Y-124566830D01*
X308105644Y-124348940D01*
X307937722Y-123993281D01*
X307916287Y-123945061D01*
X307814463Y-123697628D01*
X307756469Y-123523390D01*
X307754336Y-123457500D01*
X307771803Y-123468554D01*
G37*
G36*
X321119817Y-121336224D02*
G01*
X321121716Y-121336461D01*
X321185122Y-121352643D01*
X321106655Y-121364383D01*
X320902957Y-121369154D01*
X320694166Y-121365122D01*
X320599723Y-121353574D01*
X320643567Y-121337034D01*
X320860962Y-121323262D01*
X321119817Y-121336224D01*
G37*
G36*
X318382801Y-121335092D02*
G01*
X318408748Y-121336825D01*
X318489759Y-121347338D01*
X318427452Y-121355886D01*
X318235205Y-121361631D01*
X317926394Y-121363732D01*
X317872005Y-121363680D01*
X317580202Y-121360965D01*
X317407013Y-121354736D01*
X317365816Y-121345832D01*
X317469988Y-121335092D01*
X317626389Y-121327878D01*
X318019446Y-121323696D01*
X318382801Y-121335092D01*
G37*
G36*
X312075634Y-120147812D02*
G01*
X312162829Y-120258913D01*
X312284559Y-120470003D01*
X312418594Y-120743392D01*
X312541851Y-121028693D01*
X312613526Y-121231093D01*
X312615630Y-121299294D01*
X312554246Y-121234565D01*
X312435457Y-121038177D01*
X312265346Y-120711400D01*
X312208030Y-120592338D01*
X312103658Y-120350927D01*
X312051768Y-120190318D01*
X312062962Y-120140418D01*
X312075634Y-120147812D01*
G37*
G36*
X315763426Y-123001967D02*
G01*
X315789373Y-123003700D01*
X315870384Y-123014213D01*
X315808077Y-123022761D01*
X315615830Y-123028506D01*
X315307019Y-123030607D01*
X315252630Y-123030555D01*
X314960827Y-123027840D01*
X314787638Y-123021611D01*
X314746441Y-123012707D01*
X314850613Y-123001967D01*
X315007014Y-122994753D01*
X315400071Y-122990571D01*
X315763426Y-123001967D01*
G37*
G36*
X323259468Y-120128928D02*
G01*
X323337340Y-120227636D01*
X323448056Y-120419145D01*
X323570654Y-120660577D01*
X323684175Y-120909053D01*
X323767659Y-121121696D01*
X323800144Y-121255628D01*
X323794991Y-121305146D01*
X323770005Y-121298035D01*
X323712697Y-121207928D01*
X323610604Y-121014947D01*
X323451264Y-120699218D01*
X323406146Y-120606940D01*
X323297748Y-120360313D01*
X323240772Y-120188343D01*
X323246841Y-120123750D01*
X323259468Y-120128928D01*
G37*
G36*
X326079278Y-119668131D02*
G01*
X326092374Y-119668973D01*
X326190201Y-119679861D01*
X326143081Y-119688794D01*
X325963878Y-119694869D01*
X325665457Y-119697183D01*
X325647286Y-119697183D01*
X325349647Y-119694850D01*
X325167242Y-119688679D01*
X325114576Y-119679579D01*
X325206153Y-119668456D01*
X325361525Y-119660722D01*
X325729152Y-119656826D01*
X326079278Y-119668131D01*
G37*
G36*
X318515329Y-119659445D02*
G01*
X319450328Y-119662452D01*
X320281971Y-119667369D01*
X320421139Y-119668498D01*
X320746695Y-119671878D01*
X320920557Y-119675081D01*
X320948054Y-119678063D01*
X320834514Y-119680784D01*
X320585263Y-119683201D01*
X320205631Y-119685273D01*
X319700944Y-119686957D01*
X319076530Y-119688213D01*
X318337717Y-119688998D01*
X317489832Y-119689270D01*
X317210831Y-119689244D01*
X316395063Y-119688808D01*
X315689079Y-119687872D01*
X315098322Y-119686478D01*
X314628231Y-119684666D01*
X314284246Y-119682479D01*
X314071810Y-119679958D01*
X313996361Y-119677147D01*
X314063340Y-119674086D01*
X314278189Y-119670817D01*
X314646346Y-119667383D01*
X314759790Y-119666528D01*
X315599204Y-119661891D01*
X316538865Y-119659165D01*
X317527874Y-119658350D01*
X318515329Y-119659445D01*
G37*
G36*
X321565483Y-123507199D02*
G01*
X321651478Y-123644444D01*
X321768927Y-123852861D01*
X321896829Y-124092860D01*
X322014185Y-124324852D01*
X322099999Y-124509247D01*
X322133269Y-124606455D01*
X322133080Y-124609662D01*
X322069188Y-124648125D01*
X322028764Y-124608484D01*
X321939499Y-124458350D01*
X321826996Y-124236013D01*
X321710692Y-123984009D01*
X321610021Y-123744876D01*
X321544419Y-123561148D01*
X321533323Y-123475362D01*
X321565483Y-123507199D01*
G37*
G36*
X316837833Y-124658759D02*
G01*
X317267653Y-124668343D01*
X317280741Y-124668849D01*
X317421954Y-124677073D01*
X317415597Y-124684236D01*
X317272230Y-124689903D01*
X317002413Y-124693642D01*
X316616707Y-124695021D01*
X316598735Y-124695021D01*
X316213849Y-124693621D01*
X315941910Y-124689836D01*
X315794368Y-124684099D01*
X315782674Y-124676845D01*
X315918278Y-124668508D01*
X315943712Y-124667506D01*
X316363925Y-124658484D01*
X316837833Y-124658759D01*
G37*
G36*
X310888333Y-122994102D02*
G01*
X311472135Y-123001205D01*
X311485222Y-123001441D01*
X311713277Y-123006845D01*
X311790633Y-123011813D01*
X311725017Y-123016203D01*
X311524153Y-123019870D01*
X311195768Y-123022671D01*
X310747586Y-123024462D01*
X310187332Y-123025100D01*
X310169579Y-123025099D01*
X309610127Y-123024447D01*
X309161003Y-123022637D01*
X308830277Y-123019813D01*
X308626019Y-123016119D01*
X308556300Y-123011699D01*
X308629190Y-123006698D01*
X308852760Y-123001260D01*
X308969446Y-122999273D01*
X309564045Y-122993138D01*
X310227989Y-122991414D01*
X310888333Y-122994102D01*
G37*
G36*
X313811539Y-125140458D02*
G01*
X313891500Y-125261619D01*
X314003179Y-125466366D01*
X314125949Y-125712522D01*
X314239181Y-125957910D01*
X314322247Y-126160353D01*
X314354519Y-126277674D01*
X314354475Y-126281835D01*
X314324417Y-126314627D01*
X314244216Y-126213320D01*
X314122010Y-125990851D01*
X313965942Y-125660156D01*
X313944547Y-125611765D01*
X313844342Y-125364413D01*
X313789146Y-125190239D01*
X313790464Y-125124375D01*
X313811539Y-125140458D01*
G37*
G36*
X326359631Y-120123959D02*
G01*
X326419519Y-120156310D01*
X326389277Y-120237502D01*
X326308902Y-120417519D01*
X326199758Y-120650818D01*
X326083235Y-120892400D01*
X325980726Y-121097272D01*
X325913622Y-121220437D01*
X325877930Y-121266727D01*
X325815347Y-121292286D01*
X325817702Y-121238573D01*
X325871631Y-121075289D01*
X325965668Y-120846244D01*
X326080267Y-120594001D01*
X326195880Y-120361127D01*
X326292961Y-120190188D01*
X326351963Y-120123750D01*
X326359631Y-120123959D01*
G37*
G36*
X321992942Y-126336849D02*
G01*
X321994841Y-126337086D01*
X322058247Y-126353268D01*
X321979780Y-126365008D01*
X321776082Y-126369779D01*
X321567291Y-126365747D01*
X321472848Y-126354199D01*
X321516692Y-126337659D01*
X321734087Y-126323887D01*
X321992942Y-126336849D01*
G37*
G36*
X324130853Y-125133998D02*
G01*
X324209310Y-125243398D01*
X324320476Y-125440900D01*
X324443402Y-125683928D01*
X324557141Y-125929906D01*
X324640746Y-126136259D01*
X324673269Y-126260411D01*
X324657272Y-126310189D01*
X324589246Y-126242492D01*
X324467698Y-126025889D01*
X324292486Y-125660156D01*
X324269644Y-125609729D01*
X324167690Y-125363333D01*
X324112055Y-125189926D01*
X324114333Y-125124375D01*
X324130853Y-125133998D01*
G37*
G36*
X314688586Y-123477177D02*
G01*
X314776550Y-123613257D01*
X314900997Y-123855541D01*
X315048269Y-124176575D01*
X315204704Y-124548906D01*
X315217104Y-124590695D01*
X315197447Y-124648125D01*
X315168731Y-124617162D01*
X315082741Y-124478747D01*
X314963930Y-124266431D01*
X314833906Y-124021265D01*
X314714278Y-123784299D01*
X314626654Y-123596583D01*
X314592644Y-123499169D01*
X314593243Y-123493689D01*
X314661644Y-123457500D01*
X314688586Y-123477177D01*
G37*
G36*
X322476959Y-125218727D02*
G01*
X322587937Y-125404392D01*
X322725172Y-125679262D01*
X322874333Y-126017343D01*
X322902736Y-126090201D01*
X322947323Y-126250898D01*
X322934720Y-126315000D01*
X322894782Y-126279572D01*
X322803987Y-126133663D01*
X322690034Y-125914008D01*
X322572645Y-125663288D01*
X322471546Y-125424188D01*
X322406458Y-125239390D01*
X322397107Y-125151578D01*
X322406568Y-125148265D01*
X322476959Y-125218727D01*
G37*
G36*
X316580707Y-126326504D02*
G01*
X317073113Y-126335120D01*
X317227249Y-126340770D01*
X317281586Y-126347129D01*
X317194481Y-126352546D01*
X316975496Y-126356751D01*
X316634196Y-126359473D01*
X316180144Y-126360441D01*
X315804195Y-126359801D01*
X315440676Y-126357392D01*
X315197651Y-126353449D01*
X315084684Y-126348241D01*
X315111337Y-126342042D01*
X315287176Y-126335120D01*
X315489083Y-126330471D01*
X316021950Y-126324954D01*
X316580707Y-126326504D01*
G37*
G36*
X325003203Y-123473592D02*
G01*
X325081977Y-123594262D01*
X325193359Y-123797761D01*
X325316420Y-124041834D01*
X325430231Y-124284223D01*
X325513866Y-124482672D01*
X325546394Y-124594924D01*
X325519407Y-124649238D01*
X325441140Y-124565947D01*
X325318831Y-124350468D01*
X325300481Y-124314218D01*
X325138592Y-123975604D01*
X325025678Y-123703857D01*
X324970812Y-123523111D01*
X324983069Y-123457500D01*
X325003203Y-123473592D01*
G37*
G36*
X316902270Y-121791153D02*
G01*
X316911026Y-121867908D01*
X316850803Y-122059810D01*
X316729632Y-122345455D01*
X316555541Y-122703437D01*
X316501933Y-122800700D01*
X316412279Y-122924609D01*
X316363924Y-122935178D01*
X316363511Y-122897641D01*
X316407774Y-122740410D01*
X316496989Y-122514342D01*
X316610885Y-122262884D01*
X316729191Y-122029482D01*
X316831637Y-121857580D01*
X316897951Y-121790625D01*
X316902270Y-121791153D01*
G37*
G36*
X323259468Y-123462678D02*
G01*
X323337340Y-123561386D01*
X323448056Y-123752895D01*
X323570654Y-123994327D01*
X323684175Y-124242803D01*
X323767659Y-124455446D01*
X323800144Y-124589378D01*
X323794991Y-124638896D01*
X323770005Y-124631785D01*
X323712697Y-124541678D01*
X323610604Y-124348697D01*
X323451264Y-124032968D01*
X323406146Y-123940690D01*
X323297748Y-123694063D01*
X323240772Y-123522093D01*
X323246841Y-123457500D01*
X323259468Y-123462678D01*
G37*
G36*
X325880461Y-125144052D02*
G01*
X325968425Y-125280132D01*
X326092872Y-125522416D01*
X326240144Y-125843450D01*
X326396579Y-126215781D01*
X326408979Y-126257570D01*
X326389322Y-126315000D01*
X326360606Y-126284037D01*
X326274616Y-126145622D01*
X326155805Y-125933306D01*
X326025781Y-125688140D01*
X325906153Y-125451174D01*
X325818529Y-125263458D01*
X325784519Y-125166044D01*
X325785118Y-125160564D01*
X325853519Y-125124375D01*
X325880461Y-125144052D01*
G37*
G36*
X304356302Y-120144467D02*
G01*
X304445298Y-120283043D01*
X304573306Y-120530423D01*
X304727653Y-120861400D01*
X304895665Y-121250770D01*
X304899498Y-121263107D01*
X304853797Y-121314375D01*
X304826487Y-121293657D01*
X304737491Y-121155081D01*
X304609483Y-120907701D01*
X304455136Y-120576724D01*
X304287124Y-120187354D01*
X304283291Y-120175017D01*
X304328992Y-120123750D01*
X304356302Y-120144467D01*
G37*
G36*
X306910534Y-125132126D02*
G01*
X306988249Y-125237542D01*
X307098539Y-125432961D01*
X307220577Y-125675641D01*
X307333535Y-125922841D01*
X307416583Y-126131818D01*
X307448894Y-126259832D01*
X307447123Y-126289521D01*
X307422129Y-126306757D01*
X307360463Y-126222097D01*
X307253040Y-126021070D01*
X307090780Y-125689202D01*
X307053667Y-125610213D01*
X306948272Y-125362647D01*
X306891715Y-125189529D01*
X306895579Y-125124375D01*
X306910534Y-125132126D01*
G37*
G36*
X318963678Y-121801679D02*
G01*
X319042904Y-121913500D01*
X319155568Y-122111653D01*
X319280333Y-122353721D01*
X319395866Y-122597288D01*
X319480832Y-122799937D01*
X319513894Y-122919252D01*
X319492139Y-122976082D01*
X319419230Y-122899955D01*
X319297519Y-122682065D01*
X319129597Y-122326406D01*
X319108162Y-122278186D01*
X319006338Y-122030753D01*
X318948344Y-121856515D01*
X318946211Y-121790625D01*
X318963678Y-121801679D01*
G37*
G36*
X320689909Y-125124919D02*
G01*
X320763421Y-125210211D01*
X320884309Y-125433479D01*
X321047249Y-125784025D01*
X321246915Y-126251152D01*
X321250830Y-126263689D01*
X321207228Y-126312866D01*
X321202761Y-126311765D01*
X321134354Y-126229156D01*
X321027378Y-126041353D01*
X320902957Y-125785004D01*
X320834719Y-125634383D01*
X320719207Y-125377088D01*
X320655653Y-125225074D01*
X320634985Y-125150706D01*
X320648124Y-125126352D01*
X320685997Y-125124375D01*
X320689909Y-125124919D01*
G37*
G36*
X314691863Y-121334695D02*
G01*
X314829887Y-121342964D01*
X314825539Y-121350362D01*
X314684500Y-121356210D01*
X314417937Y-121360054D01*
X314037019Y-121361437D01*
X313664291Y-121360121D01*
X313394729Y-121356333D01*
X313250410Y-121350529D01*
X313242503Y-121343164D01*
X313382176Y-121334695D01*
X313784934Y-121325076D01*
X314263839Y-121324803D01*
X314691863Y-121334695D01*
G37*
G36*
X325447176Y-126337522D02*
G01*
X325498298Y-126352854D01*
X325424855Y-126365667D01*
X325228894Y-126370589D01*
X325051517Y-126366795D01*
X324961370Y-126354826D01*
X325010613Y-126337522D01*
X325190786Y-126324235D01*
X325447176Y-126337522D01*
G37*
G36*
X320689909Y-121791169D02*
G01*
X320763421Y-121876461D01*
X320884309Y-122099729D01*
X321047249Y-122450275D01*
X321246915Y-122917402D01*
X321250830Y-122929939D01*
X321207228Y-122979116D01*
X321202761Y-122978015D01*
X321134354Y-122895406D01*
X321027378Y-122707603D01*
X320902957Y-122451254D01*
X320834719Y-122300633D01*
X320719207Y-122043338D01*
X320655653Y-121891324D01*
X320634985Y-121816956D01*
X320648124Y-121792602D01*
X320685997Y-121790625D01*
X320689909Y-121791169D01*
G37*
G36*
X312938978Y-123467123D02*
G01*
X313017435Y-123576523D01*
X313128601Y-123774025D01*
X313251527Y-124017053D01*
X313365266Y-124263031D01*
X313448871Y-124469384D01*
X313481394Y-124593536D01*
X313465397Y-124643314D01*
X313397371Y-124575617D01*
X313275823Y-124359014D01*
X313100611Y-123993281D01*
X313077769Y-123942854D01*
X312975815Y-123696458D01*
X312920180Y-123523051D01*
X312922458Y-123457500D01*
X312938978Y-123467123D01*
G37*
M02*
