%TF.GenerationSoftware,KiCad,Pcbnew,(6.0.7-1)-1*%
%TF.CreationDate,2022-09-14T08:45:19+02:00*%
%TF.ProjectId,yts-switchblade,7974732d-7377-4697-9463-68626c616465,rev?*%
%TF.SameCoordinates,Original*%
%TF.FileFunction,Profile,NP*%
%FSLAX46Y46*%
G04 Gerber Fmt 4.6, Leading zero omitted, Abs format (unit mm)*
G04 Created by KiCad (PCBNEW (6.0.7-1)-1) date 2022-09-14 08:45:19*
%MOMM*%
%LPD*%
G01*
G04 APERTURE LIST*
%TA.AperFunction,Profile*%
%ADD10C,0.150000*%
%TD*%
G04 APERTURE END LIST*
D10*
X179500000Y-73000000D02*
X192500000Y-73000000D01*
X192500000Y-73000000D02*
X192500000Y-86000000D01*
X192500000Y-86000000D02*
X179500000Y-86000000D01*
X179500000Y-86000000D02*
X179500000Y-73000000D01*
X236400000Y-54000000D02*
X249400000Y-54000000D01*
X249400000Y-54000000D02*
X249400000Y-67000000D01*
X249400000Y-67000000D02*
X236400000Y-67000000D01*
X236400000Y-67000000D02*
X236400000Y-54000000D01*
X179500000Y-54000000D02*
X192500000Y-54000000D01*
X192500000Y-54000000D02*
X192500000Y-67000000D01*
X192500000Y-67000000D02*
X179500000Y-67000000D01*
X179500000Y-67000000D02*
X179500000Y-54000000D01*
X160500000Y-73000000D02*
X173500000Y-73000000D01*
X173500000Y-73000000D02*
X173500000Y-86000000D01*
X173500000Y-86000000D02*
X160500000Y-86000000D01*
X160500000Y-86000000D02*
X160500000Y-73000000D01*
X103500000Y-73000000D02*
X116500000Y-73000000D01*
X116500000Y-73000000D02*
X116500000Y-86000000D01*
X116500000Y-86000000D02*
X103500000Y-86000000D01*
X103500000Y-86000000D02*
X103500000Y-73000000D01*
X46500000Y-111000000D02*
X59500000Y-111000000D01*
X59500000Y-111000000D02*
X59500000Y-124000000D01*
X59500000Y-124000000D02*
X46500000Y-124000000D01*
X46500000Y-124000000D02*
X46500000Y-111000000D01*
X65500000Y-73000000D02*
X78500000Y-73000000D01*
X78500000Y-73000000D02*
X78500000Y-86000000D01*
X78500000Y-86000000D02*
X65500000Y-86000000D01*
X65500000Y-86000000D02*
X65500000Y-73000000D01*
X46500000Y-73000000D02*
X59500000Y-73000000D01*
X59500000Y-73000000D02*
X59500000Y-86000000D01*
X59500000Y-86000000D02*
X46500000Y-86000000D01*
X46500000Y-86000000D02*
X46500000Y-73000000D01*
X198500000Y-111000000D02*
X211500000Y-111000000D01*
X211500000Y-111000000D02*
X211500000Y-124000000D01*
X211500000Y-124000000D02*
X198500000Y-124000000D01*
X198500000Y-124000000D02*
X198500000Y-111000000D01*
X103500000Y-92000000D02*
X116500000Y-92000000D01*
X116500000Y-92000000D02*
X116500000Y-105000000D01*
X116500000Y-105000000D02*
X103500000Y-105000000D01*
X103500000Y-105000000D02*
X103500000Y-92000000D01*
X23500000Y-31000000D02*
X271500000Y-31000000D01*
X271500000Y-31000000D02*
X271500000Y-147000000D01*
X271500000Y-147000000D02*
X23500000Y-147000000D01*
X23500000Y-147000000D02*
X23500000Y-31000000D01*
X103500000Y-111000000D02*
X116500000Y-111000000D01*
X116500000Y-111000000D02*
X116500000Y-124000000D01*
X116500000Y-124000000D02*
X103500000Y-124000000D01*
X103500000Y-124000000D02*
X103500000Y-111000000D01*
X84500000Y-54000000D02*
X97500000Y-54000000D01*
X97500000Y-54000000D02*
X97500000Y-67000000D01*
X97500000Y-67000000D02*
X84500000Y-67000000D01*
X84500000Y-67000000D02*
X84500000Y-54000000D01*
X46500000Y-92000000D02*
X59500000Y-92000000D01*
X59500000Y-92000000D02*
X59500000Y-105000000D01*
X59500000Y-105000000D02*
X46500000Y-105000000D01*
X46500000Y-105000000D02*
X46500000Y-92000000D01*
X84500000Y-111000000D02*
X97500000Y-111000000D01*
X97500000Y-111000000D02*
X97500000Y-124000000D01*
X97500000Y-124000000D02*
X84500000Y-124000000D01*
X84500000Y-124000000D02*
X84500000Y-111000000D01*
X179500000Y-111000000D02*
X192500000Y-111000000D01*
X192500000Y-111000000D02*
X192500000Y-124000000D01*
X192500000Y-124000000D02*
X179500000Y-124000000D01*
X179500000Y-124000000D02*
X179500000Y-111000000D01*
X198500000Y-73000000D02*
X211500000Y-73000000D01*
X211500000Y-73000000D02*
X211500000Y-86000000D01*
X211500000Y-86000000D02*
X198500000Y-86000000D01*
X198500000Y-86000000D02*
X198500000Y-73000000D01*
X132000000Y-111000000D02*
X145000000Y-111000000D01*
X145000000Y-111000000D02*
X145000000Y-124000000D01*
X145000000Y-124000000D02*
X132000000Y-124000000D01*
X132000000Y-124000000D02*
X132000000Y-111000000D01*
X103500000Y-54000000D02*
X116500000Y-54000000D01*
X116500000Y-54000000D02*
X116500000Y-67000000D01*
X116500000Y-67000000D02*
X103500000Y-67000000D01*
X103500000Y-67000000D02*
X103500000Y-54000000D01*
X65500000Y-111000000D02*
X78500000Y-111000000D01*
X78500000Y-111000000D02*
X78500000Y-124000000D01*
X78500000Y-124000000D02*
X65500000Y-124000000D01*
X65500000Y-124000000D02*
X65500000Y-111000000D01*
X65500000Y-54000000D02*
X78500000Y-54000000D01*
X78500000Y-54000000D02*
X78500000Y-67000000D01*
X78500000Y-67000000D02*
X65500000Y-67000000D01*
X65500000Y-67000000D02*
X65500000Y-54000000D01*
X160500000Y-111000000D02*
X173500000Y-111000000D01*
X173500000Y-111000000D02*
X173500000Y-124000000D01*
X173500000Y-124000000D02*
X160500000Y-124000000D01*
X160500000Y-124000000D02*
X160500000Y-111000000D01*
X198500000Y-54000000D02*
X211500000Y-54000000D01*
X211500000Y-54000000D02*
X211500000Y-67000000D01*
X211500000Y-67000000D02*
X198500000Y-67000000D01*
X198500000Y-67000000D02*
X198500000Y-54000000D01*
X46500000Y-54000000D02*
X59500000Y-54000000D01*
X59500000Y-54000000D02*
X59500000Y-67000000D01*
X59500000Y-67000000D02*
X46500000Y-67000000D01*
X46500000Y-67000000D02*
X46500000Y-54000000D01*
X179500000Y-92000000D02*
X192500000Y-92000000D01*
X192500000Y-92000000D02*
X192500000Y-105000000D01*
X192500000Y-105000000D02*
X179500000Y-105000000D01*
X179500000Y-105000000D02*
X179500000Y-92000000D01*
X160500000Y-54000000D02*
X173500000Y-54000000D01*
X173500000Y-54000000D02*
X173500000Y-67000000D01*
X173500000Y-67000000D02*
X160500000Y-67000000D01*
X160500000Y-67000000D02*
X160500000Y-54000000D01*
X84500000Y-92000000D02*
X97500000Y-92000000D01*
X97500000Y-92000000D02*
X97500000Y-105000000D01*
X97500000Y-105000000D02*
X84500000Y-105000000D01*
X84500000Y-105000000D02*
X84500000Y-92000000D01*
X236400000Y-105500000D02*
X249400000Y-105500000D01*
X249400000Y-105500000D02*
X249400000Y-118500000D01*
X249400000Y-118500000D02*
X236400000Y-118500000D01*
X236400000Y-118500000D02*
X236400000Y-105500000D01*
X84500000Y-73000000D02*
X97500000Y-73000000D01*
X97500000Y-73000000D02*
X97500000Y-86000000D01*
X97500000Y-86000000D02*
X84500000Y-86000000D01*
X84500000Y-86000000D02*
X84500000Y-73000000D01*
X65500000Y-92000000D02*
X78500000Y-92000000D01*
X78500000Y-92000000D02*
X78500000Y-105000000D01*
X78500000Y-105000000D02*
X65500000Y-105000000D01*
X65500000Y-105000000D02*
X65500000Y-92000000D01*
M02*
