%TF.GenerationSoftware,KiCad,Pcbnew,(6.0.7-1)-1*%
%TF.CreationDate,2022-09-14T08:45:18+02:00*%
%TF.ProjectId,yts-switchblade,7974732d-7377-4697-9463-68626c616465,rev?*%
%TF.SameCoordinates,Original*%
%TF.FileFunction,Copper,L2,Bot*%
%TF.FilePolarity,Positive*%
%FSLAX46Y46*%
G04 Gerber Fmt 4.6, Leading zero omitted, Abs format (unit mm)*
G04 Created by KiCad (PCBNEW (6.0.7-1)-1) date 2022-09-14 08:45:18*
%MOMM*%
%LPD*%
G01*
G04 APERTURE LIST*
%TA.AperFunction,ViaPad*%
%ADD10C,0.800000*%
%TD*%
G04 APERTURE END LIST*
D10*
%TO.N,*%
X211900000Y-124400000D03*
X46100000Y-124400000D03*
X46100000Y-53600000D03*
X211900000Y-124400000D03*
X211900000Y-53600000D03*
X211900000Y-124400000D03*
%TD*%
%TA.AperFunction,NonConductor*%
G36*
X270933621Y-31528502D02*
G01*
X270980114Y-31582158D01*
X270991500Y-31634500D01*
X270991500Y-146365500D01*
X270971498Y-146433621D01*
X270917842Y-146480114D01*
X270865500Y-146491500D01*
X24134500Y-146491500D01*
X24066379Y-146471498D01*
X24019886Y-146417842D01*
X24008500Y-146365500D01*
X24008500Y-144000000D01*
X24886526Y-144000000D01*
X24906391Y-144252403D01*
X24965495Y-144498591D01*
X25062384Y-144732502D01*
X25194672Y-144948376D01*
X25359102Y-145140898D01*
X25551624Y-145305328D01*
X25767498Y-145437616D01*
X25772068Y-145439509D01*
X25772072Y-145439511D01*
X25996836Y-145532611D01*
X26001409Y-145534505D01*
X26086032Y-145554821D01*
X26242784Y-145592454D01*
X26242790Y-145592455D01*
X26247597Y-145593609D01*
X26347416Y-145601465D01*
X26434345Y-145608307D01*
X26434352Y-145608307D01*
X26436801Y-145608500D01*
X26563199Y-145608500D01*
X26565648Y-145608307D01*
X26565655Y-145608307D01*
X26652584Y-145601465D01*
X26752403Y-145593609D01*
X26757210Y-145592455D01*
X26757216Y-145592454D01*
X26913968Y-145554821D01*
X26998591Y-145534505D01*
X27003164Y-145532611D01*
X27227928Y-145439511D01*
X27227932Y-145439509D01*
X27232502Y-145437616D01*
X27448376Y-145305328D01*
X27640898Y-145140898D01*
X27805328Y-144948376D01*
X27937616Y-144732502D01*
X28034505Y-144498591D01*
X28093609Y-144252403D01*
X28113474Y-144000000D01*
X266886526Y-144000000D01*
X266906391Y-144252403D01*
X266965495Y-144498591D01*
X267062384Y-144732502D01*
X267194672Y-144948376D01*
X267359102Y-145140898D01*
X267551624Y-145305328D01*
X267767498Y-145437616D01*
X267772068Y-145439509D01*
X267772072Y-145439511D01*
X267996836Y-145532611D01*
X268001409Y-145534505D01*
X268086032Y-145554821D01*
X268242784Y-145592454D01*
X268242790Y-145592455D01*
X268247597Y-145593609D01*
X268347416Y-145601465D01*
X268434345Y-145608307D01*
X268434352Y-145608307D01*
X268436801Y-145608500D01*
X268563199Y-145608500D01*
X268565648Y-145608307D01*
X268565655Y-145608307D01*
X268652584Y-145601465D01*
X268752403Y-145593609D01*
X268757210Y-145592455D01*
X268757216Y-145592454D01*
X268913968Y-145554821D01*
X268998591Y-145534505D01*
X269003164Y-145532611D01*
X269227928Y-145439511D01*
X269227932Y-145439509D01*
X269232502Y-145437616D01*
X269448376Y-145305328D01*
X269640898Y-145140898D01*
X269805328Y-144948376D01*
X269937616Y-144732502D01*
X270034505Y-144498591D01*
X270093609Y-144252403D01*
X270113474Y-144000000D01*
X270093609Y-143747597D01*
X270034505Y-143501409D01*
X269937616Y-143267498D01*
X269805328Y-143051624D01*
X269640898Y-142859102D01*
X269448376Y-142694672D01*
X269232502Y-142562384D01*
X269227932Y-142560491D01*
X269227928Y-142560489D01*
X269003164Y-142467389D01*
X269003162Y-142467388D01*
X268998591Y-142465495D01*
X268913968Y-142445179D01*
X268757216Y-142407546D01*
X268757210Y-142407545D01*
X268752403Y-142406391D01*
X268652584Y-142398535D01*
X268565655Y-142391693D01*
X268565648Y-142391693D01*
X268563199Y-142391500D01*
X268436801Y-142391500D01*
X268434352Y-142391693D01*
X268434345Y-142391693D01*
X268347416Y-142398535D01*
X268247597Y-142406391D01*
X268242790Y-142407545D01*
X268242784Y-142407546D01*
X268086032Y-142445179D01*
X268001409Y-142465495D01*
X267996838Y-142467388D01*
X267996836Y-142467389D01*
X267772072Y-142560489D01*
X267772068Y-142560491D01*
X267767498Y-142562384D01*
X267551624Y-142694672D01*
X267359102Y-142859102D01*
X267194672Y-143051624D01*
X267062384Y-143267498D01*
X266965495Y-143501409D01*
X266906391Y-143747597D01*
X266886526Y-144000000D01*
X28113474Y-144000000D01*
X28093609Y-143747597D01*
X28034505Y-143501409D01*
X27937616Y-143267498D01*
X27805328Y-143051624D01*
X27640898Y-142859102D01*
X27448376Y-142694672D01*
X27232502Y-142562384D01*
X27227932Y-142560491D01*
X27227928Y-142560489D01*
X27003164Y-142467389D01*
X27003162Y-142467388D01*
X26998591Y-142465495D01*
X26913968Y-142445179D01*
X26757216Y-142407546D01*
X26757210Y-142407545D01*
X26752403Y-142406391D01*
X26652584Y-142398535D01*
X26565655Y-142391693D01*
X26565648Y-142391693D01*
X26563199Y-142391500D01*
X26436801Y-142391500D01*
X26434352Y-142391693D01*
X26434345Y-142391693D01*
X26347416Y-142398535D01*
X26247597Y-142406391D01*
X26242790Y-142407545D01*
X26242784Y-142407546D01*
X26086032Y-142445179D01*
X26001409Y-142465495D01*
X25996838Y-142467388D01*
X25996836Y-142467389D01*
X25772072Y-142560489D01*
X25772068Y-142560491D01*
X25767498Y-142562384D01*
X25551624Y-142694672D01*
X25359102Y-142859102D01*
X25194672Y-143051624D01*
X25062384Y-143267498D01*
X24965495Y-143501409D01*
X24906391Y-143747597D01*
X24886526Y-144000000D01*
X24008500Y-144000000D01*
X24008500Y-124400000D01*
X45186496Y-124400000D01*
X45187186Y-124406565D01*
X45196848Y-124498490D01*
X45206458Y-124589928D01*
X45265473Y-124771556D01*
X45360960Y-124936944D01*
X45488747Y-125078866D01*
X45643248Y-125191118D01*
X45649276Y-125193802D01*
X45649278Y-125193803D01*
X45811681Y-125266109D01*
X45817712Y-125268794D01*
X45911113Y-125288647D01*
X45998056Y-125307128D01*
X45998061Y-125307128D01*
X46004513Y-125308500D01*
X46195487Y-125308500D01*
X46201939Y-125307128D01*
X46201944Y-125307128D01*
X46288887Y-125288647D01*
X46382288Y-125268794D01*
X46388319Y-125266109D01*
X46550722Y-125193803D01*
X46550724Y-125193802D01*
X46556752Y-125191118D01*
X46711253Y-125078866D01*
X46839040Y-124936944D01*
X46934527Y-124771556D01*
X46991711Y-124595563D01*
X47031785Y-124536958D01*
X47097182Y-124509321D01*
X47111544Y-124508500D01*
X59491377Y-124508500D01*
X59492148Y-124508502D01*
X59569721Y-124508976D01*
X59598152Y-124500850D01*
X59614915Y-124497272D01*
X59615753Y-124497152D01*
X59644187Y-124493080D01*
X59667564Y-124482451D01*
X59685087Y-124476004D01*
X59709771Y-124468949D01*
X59717365Y-124464157D01*
X59717368Y-124464156D01*
X59734780Y-124453170D01*
X59749865Y-124445030D01*
X59776782Y-124432792D01*
X59796235Y-124416030D01*
X59811239Y-124404927D01*
X59832958Y-124391224D01*
X59838897Y-124384499D01*
X59838901Y-124384496D01*
X59852532Y-124369062D01*
X59864724Y-124357018D01*
X59880327Y-124343573D01*
X59880329Y-124343570D01*
X59887127Y-124337713D01*
X59901094Y-124316165D01*
X59912385Y-124301291D01*
X59923431Y-124288783D01*
X59923432Y-124288782D01*
X59929378Y-124282049D01*
X59941943Y-124255287D01*
X59950263Y-124240309D01*
X59961471Y-124223017D01*
X59961473Y-124223012D01*
X59966352Y-124215485D01*
X59968922Y-124206892D01*
X59968924Y-124206887D01*
X59973711Y-124190880D01*
X59980372Y-124173436D01*
X59987467Y-124158324D01*
X59987468Y-124158322D01*
X59991281Y-124150200D01*
X59995830Y-124120983D01*
X59999613Y-124104268D01*
X60005515Y-124084534D01*
X60005516Y-124084528D01*
X60008086Y-124075934D01*
X60008124Y-124069721D01*
X64991024Y-124069721D01*
X64993491Y-124078352D01*
X64999150Y-124098153D01*
X65002728Y-124114915D01*
X65006920Y-124144187D01*
X65010634Y-124152355D01*
X65010634Y-124152356D01*
X65017548Y-124167562D01*
X65023996Y-124185086D01*
X65031051Y-124209771D01*
X65035843Y-124217365D01*
X65035844Y-124217368D01*
X65046830Y-124234780D01*
X65054969Y-124249863D01*
X65067208Y-124276782D01*
X65073069Y-124283584D01*
X65083970Y-124296235D01*
X65095073Y-124311239D01*
X65108776Y-124332958D01*
X65115501Y-124338897D01*
X65115504Y-124338901D01*
X65130938Y-124352532D01*
X65142982Y-124364724D01*
X65156427Y-124380327D01*
X65156430Y-124380329D01*
X65162287Y-124387127D01*
X65169816Y-124392007D01*
X65169817Y-124392008D01*
X65183835Y-124401094D01*
X65198709Y-124412385D01*
X65211217Y-124423431D01*
X65217951Y-124429378D01*
X65244711Y-124441942D01*
X65259691Y-124450263D01*
X65276983Y-124461471D01*
X65276988Y-124461473D01*
X65284515Y-124466352D01*
X65293108Y-124468922D01*
X65293113Y-124468924D01*
X65309120Y-124473711D01*
X65326564Y-124480372D01*
X65341676Y-124487467D01*
X65341678Y-124487468D01*
X65349800Y-124491281D01*
X65358667Y-124492662D01*
X65358668Y-124492662D01*
X65361353Y-124493080D01*
X65379017Y-124495830D01*
X65395732Y-124499613D01*
X65415466Y-124505515D01*
X65415472Y-124505516D01*
X65424066Y-124508086D01*
X65433037Y-124508141D01*
X65433038Y-124508141D01*
X65443097Y-124508202D01*
X65458506Y-124508296D01*
X65459289Y-124508329D01*
X65460386Y-124508500D01*
X65491377Y-124508500D01*
X65492147Y-124508502D01*
X65565785Y-124508952D01*
X65565786Y-124508952D01*
X65569721Y-124508976D01*
X65571065Y-124508592D01*
X65572410Y-124508500D01*
X78491377Y-124508500D01*
X78492148Y-124508502D01*
X78569721Y-124508976D01*
X78598152Y-124500850D01*
X78614915Y-124497272D01*
X78615753Y-124497152D01*
X78644187Y-124493080D01*
X78667564Y-124482451D01*
X78685087Y-124476004D01*
X78709771Y-124468949D01*
X78717365Y-124464157D01*
X78717368Y-124464156D01*
X78734780Y-124453170D01*
X78749865Y-124445030D01*
X78776782Y-124432792D01*
X78796235Y-124416030D01*
X78811239Y-124404927D01*
X78832958Y-124391224D01*
X78838897Y-124384499D01*
X78838901Y-124384496D01*
X78852532Y-124369062D01*
X78864724Y-124357018D01*
X78880327Y-124343573D01*
X78880329Y-124343570D01*
X78887127Y-124337713D01*
X78901094Y-124316165D01*
X78912385Y-124301291D01*
X78923431Y-124288783D01*
X78923432Y-124288782D01*
X78929378Y-124282049D01*
X78941943Y-124255287D01*
X78950263Y-124240309D01*
X78961471Y-124223017D01*
X78961473Y-124223012D01*
X78966352Y-124215485D01*
X78968922Y-124206892D01*
X78968924Y-124206887D01*
X78973711Y-124190880D01*
X78980372Y-124173436D01*
X78987467Y-124158324D01*
X78987468Y-124158322D01*
X78991281Y-124150200D01*
X78995830Y-124120983D01*
X78999613Y-124104268D01*
X79005515Y-124084534D01*
X79005516Y-124084528D01*
X79008086Y-124075934D01*
X79008124Y-124069721D01*
X83991024Y-124069721D01*
X83993491Y-124078352D01*
X83999150Y-124098153D01*
X84002728Y-124114915D01*
X84006920Y-124144187D01*
X84010634Y-124152355D01*
X84010634Y-124152356D01*
X84017548Y-124167562D01*
X84023996Y-124185086D01*
X84031051Y-124209771D01*
X84035843Y-124217365D01*
X84035844Y-124217368D01*
X84046830Y-124234780D01*
X84054969Y-124249863D01*
X84067208Y-124276782D01*
X84073069Y-124283584D01*
X84083970Y-124296235D01*
X84095073Y-124311239D01*
X84108776Y-124332958D01*
X84115501Y-124338897D01*
X84115504Y-124338901D01*
X84130938Y-124352532D01*
X84142982Y-124364724D01*
X84156427Y-124380327D01*
X84156430Y-124380329D01*
X84162287Y-124387127D01*
X84169816Y-124392007D01*
X84169817Y-124392008D01*
X84183835Y-124401094D01*
X84198709Y-124412385D01*
X84211217Y-124423431D01*
X84217951Y-124429378D01*
X84244711Y-124441942D01*
X84259691Y-124450263D01*
X84276983Y-124461471D01*
X84276988Y-124461473D01*
X84284515Y-124466352D01*
X84293108Y-124468922D01*
X84293113Y-124468924D01*
X84309120Y-124473711D01*
X84326564Y-124480372D01*
X84341676Y-124487467D01*
X84341678Y-124487468D01*
X84349800Y-124491281D01*
X84358667Y-124492662D01*
X84358668Y-124492662D01*
X84361353Y-124493080D01*
X84379017Y-124495830D01*
X84395732Y-124499613D01*
X84415466Y-124505515D01*
X84415472Y-124505516D01*
X84424066Y-124508086D01*
X84433037Y-124508141D01*
X84433038Y-124508141D01*
X84443097Y-124508202D01*
X84458506Y-124508296D01*
X84459289Y-124508329D01*
X84460386Y-124508500D01*
X84491377Y-124508500D01*
X84492147Y-124508502D01*
X84565785Y-124508952D01*
X84565786Y-124508952D01*
X84569721Y-124508976D01*
X84571065Y-124508592D01*
X84572410Y-124508500D01*
X97491377Y-124508500D01*
X97492148Y-124508502D01*
X97569721Y-124508976D01*
X97598152Y-124500850D01*
X97614915Y-124497272D01*
X97615753Y-124497152D01*
X97644187Y-124493080D01*
X97667564Y-124482451D01*
X97685087Y-124476004D01*
X97709771Y-124468949D01*
X97717365Y-124464157D01*
X97717368Y-124464156D01*
X97734780Y-124453170D01*
X97749865Y-124445030D01*
X97776782Y-124432792D01*
X97796235Y-124416030D01*
X97811239Y-124404927D01*
X97832958Y-124391224D01*
X97838897Y-124384499D01*
X97838901Y-124384496D01*
X97852532Y-124369062D01*
X97864724Y-124357018D01*
X97880327Y-124343573D01*
X97880329Y-124343570D01*
X97887127Y-124337713D01*
X97901094Y-124316165D01*
X97912385Y-124301291D01*
X97923431Y-124288783D01*
X97923432Y-124288782D01*
X97929378Y-124282049D01*
X97941943Y-124255287D01*
X97950263Y-124240309D01*
X97961471Y-124223017D01*
X97961473Y-124223012D01*
X97966352Y-124215485D01*
X97968922Y-124206892D01*
X97968924Y-124206887D01*
X97973711Y-124190880D01*
X97980372Y-124173436D01*
X97987467Y-124158324D01*
X97987468Y-124158322D01*
X97991281Y-124150200D01*
X97995830Y-124120983D01*
X97999613Y-124104268D01*
X98005515Y-124084534D01*
X98005516Y-124084528D01*
X98008086Y-124075934D01*
X98008124Y-124069721D01*
X102991024Y-124069721D01*
X102993491Y-124078352D01*
X102999150Y-124098153D01*
X103002728Y-124114915D01*
X103006920Y-124144187D01*
X103010634Y-124152355D01*
X103010634Y-124152356D01*
X103017548Y-124167562D01*
X103023996Y-124185086D01*
X103031051Y-124209771D01*
X103035843Y-124217365D01*
X103035844Y-124217368D01*
X103046830Y-124234780D01*
X103054969Y-124249863D01*
X103067208Y-124276782D01*
X103073069Y-124283584D01*
X103083970Y-124296235D01*
X103095073Y-124311239D01*
X103108776Y-124332958D01*
X103115501Y-124338897D01*
X103115504Y-124338901D01*
X103130938Y-124352532D01*
X103142982Y-124364724D01*
X103156427Y-124380327D01*
X103156430Y-124380329D01*
X103162287Y-124387127D01*
X103169816Y-124392007D01*
X103169817Y-124392008D01*
X103183835Y-124401094D01*
X103198709Y-124412385D01*
X103211217Y-124423431D01*
X103217951Y-124429378D01*
X103244711Y-124441942D01*
X103259691Y-124450263D01*
X103276983Y-124461471D01*
X103276988Y-124461473D01*
X103284515Y-124466352D01*
X103293108Y-124468922D01*
X103293113Y-124468924D01*
X103309120Y-124473711D01*
X103326564Y-124480372D01*
X103341676Y-124487467D01*
X103341678Y-124487468D01*
X103349800Y-124491281D01*
X103358667Y-124492662D01*
X103358668Y-124492662D01*
X103361353Y-124493080D01*
X103379017Y-124495830D01*
X103395732Y-124499613D01*
X103415466Y-124505515D01*
X103415472Y-124505516D01*
X103424066Y-124508086D01*
X103433037Y-124508141D01*
X103433038Y-124508141D01*
X103443097Y-124508202D01*
X103458506Y-124508296D01*
X103459289Y-124508329D01*
X103460386Y-124508500D01*
X103491377Y-124508500D01*
X103492147Y-124508502D01*
X103565785Y-124508952D01*
X103565786Y-124508952D01*
X103569721Y-124508976D01*
X103571065Y-124508592D01*
X103572410Y-124508500D01*
X116491377Y-124508500D01*
X116492148Y-124508502D01*
X116569721Y-124508976D01*
X116598152Y-124500850D01*
X116614915Y-124497272D01*
X116615753Y-124497152D01*
X116644187Y-124493080D01*
X116667564Y-124482451D01*
X116685087Y-124476004D01*
X116709771Y-124468949D01*
X116717365Y-124464157D01*
X116717368Y-124464156D01*
X116734780Y-124453170D01*
X116749865Y-124445030D01*
X116776782Y-124432792D01*
X116796235Y-124416030D01*
X116811239Y-124404927D01*
X116832958Y-124391224D01*
X116838897Y-124384499D01*
X116838901Y-124384496D01*
X116852532Y-124369062D01*
X116864724Y-124357018D01*
X116880327Y-124343573D01*
X116880329Y-124343570D01*
X116887127Y-124337713D01*
X116901094Y-124316165D01*
X116912385Y-124301291D01*
X116923431Y-124288783D01*
X116923432Y-124288782D01*
X116929378Y-124282049D01*
X116941943Y-124255287D01*
X116950263Y-124240309D01*
X116961471Y-124223017D01*
X116961473Y-124223012D01*
X116966352Y-124215485D01*
X116968922Y-124206892D01*
X116968924Y-124206887D01*
X116973711Y-124190880D01*
X116980372Y-124173436D01*
X116987467Y-124158324D01*
X116987468Y-124158322D01*
X116991281Y-124150200D01*
X116995830Y-124120983D01*
X116999613Y-124104268D01*
X117005515Y-124084534D01*
X117005516Y-124084528D01*
X117008086Y-124075934D01*
X117008124Y-124069721D01*
X131491024Y-124069721D01*
X131493491Y-124078352D01*
X131499150Y-124098153D01*
X131502728Y-124114915D01*
X131506920Y-124144187D01*
X131510634Y-124152355D01*
X131510634Y-124152356D01*
X131517548Y-124167562D01*
X131523996Y-124185086D01*
X131531051Y-124209771D01*
X131535843Y-124217365D01*
X131535844Y-124217368D01*
X131546830Y-124234780D01*
X131554969Y-124249863D01*
X131567208Y-124276782D01*
X131573069Y-124283584D01*
X131583970Y-124296235D01*
X131595073Y-124311239D01*
X131608776Y-124332958D01*
X131615501Y-124338897D01*
X131615504Y-124338901D01*
X131630938Y-124352532D01*
X131642982Y-124364724D01*
X131656427Y-124380327D01*
X131656430Y-124380329D01*
X131662287Y-124387127D01*
X131669816Y-124392007D01*
X131669817Y-124392008D01*
X131683835Y-124401094D01*
X131698709Y-124412385D01*
X131711217Y-124423431D01*
X131717951Y-124429378D01*
X131744711Y-124441942D01*
X131759691Y-124450263D01*
X131776983Y-124461471D01*
X131776988Y-124461473D01*
X131784515Y-124466352D01*
X131793108Y-124468922D01*
X131793113Y-124468924D01*
X131809120Y-124473711D01*
X131826564Y-124480372D01*
X131841676Y-124487467D01*
X131841678Y-124487468D01*
X131849800Y-124491281D01*
X131858667Y-124492662D01*
X131858668Y-124492662D01*
X131861353Y-124493080D01*
X131879017Y-124495830D01*
X131895732Y-124499613D01*
X131915466Y-124505515D01*
X131915472Y-124505516D01*
X131924066Y-124508086D01*
X131933037Y-124508141D01*
X131933038Y-124508141D01*
X131943097Y-124508202D01*
X131958506Y-124508296D01*
X131959289Y-124508329D01*
X131960386Y-124508500D01*
X131991377Y-124508500D01*
X131992147Y-124508502D01*
X132065785Y-124508952D01*
X132065786Y-124508952D01*
X132069721Y-124508976D01*
X132071065Y-124508592D01*
X132072410Y-124508500D01*
X144991377Y-124508500D01*
X144992148Y-124508502D01*
X145069721Y-124508976D01*
X145098152Y-124500850D01*
X145114915Y-124497272D01*
X145115753Y-124497152D01*
X145144187Y-124493080D01*
X145167564Y-124482451D01*
X145185087Y-124476004D01*
X145209771Y-124468949D01*
X145217365Y-124464157D01*
X145217368Y-124464156D01*
X145234780Y-124453170D01*
X145249865Y-124445030D01*
X145276782Y-124432792D01*
X145296235Y-124416030D01*
X145311239Y-124404927D01*
X145332958Y-124391224D01*
X145338897Y-124384499D01*
X145338901Y-124384496D01*
X145352532Y-124369062D01*
X145364724Y-124357018D01*
X145380327Y-124343573D01*
X145380329Y-124343570D01*
X145387127Y-124337713D01*
X145401094Y-124316165D01*
X145412385Y-124301291D01*
X145423431Y-124288783D01*
X145423432Y-124288782D01*
X145429378Y-124282049D01*
X145441943Y-124255287D01*
X145450263Y-124240309D01*
X145461471Y-124223017D01*
X145461473Y-124223012D01*
X145466352Y-124215485D01*
X145468922Y-124206892D01*
X145468924Y-124206887D01*
X145473711Y-124190880D01*
X145480372Y-124173436D01*
X145487467Y-124158324D01*
X145487468Y-124158322D01*
X145491281Y-124150200D01*
X145495830Y-124120983D01*
X145499613Y-124104268D01*
X145505515Y-124084534D01*
X145505516Y-124084528D01*
X145508086Y-124075934D01*
X145508124Y-124069721D01*
X159991024Y-124069721D01*
X159993491Y-124078352D01*
X159999150Y-124098153D01*
X160002728Y-124114915D01*
X160006920Y-124144187D01*
X160010634Y-124152355D01*
X160010634Y-124152356D01*
X160017548Y-124167562D01*
X160023996Y-124185086D01*
X160031051Y-124209771D01*
X160035843Y-124217365D01*
X160035844Y-124217368D01*
X160046830Y-124234780D01*
X160054969Y-124249863D01*
X160067208Y-124276782D01*
X160073069Y-124283584D01*
X160083970Y-124296235D01*
X160095073Y-124311239D01*
X160108776Y-124332958D01*
X160115501Y-124338897D01*
X160115504Y-124338901D01*
X160130938Y-124352532D01*
X160142982Y-124364724D01*
X160156427Y-124380327D01*
X160156430Y-124380329D01*
X160162287Y-124387127D01*
X160169816Y-124392007D01*
X160169817Y-124392008D01*
X160183835Y-124401094D01*
X160198709Y-124412385D01*
X160211217Y-124423431D01*
X160217951Y-124429378D01*
X160244711Y-124441942D01*
X160259691Y-124450263D01*
X160276983Y-124461471D01*
X160276988Y-124461473D01*
X160284515Y-124466352D01*
X160293108Y-124468922D01*
X160293113Y-124468924D01*
X160309120Y-124473711D01*
X160326564Y-124480372D01*
X160341676Y-124487467D01*
X160341678Y-124487468D01*
X160349800Y-124491281D01*
X160358667Y-124492662D01*
X160358668Y-124492662D01*
X160361353Y-124493080D01*
X160379017Y-124495830D01*
X160395732Y-124499613D01*
X160415466Y-124505515D01*
X160415472Y-124505516D01*
X160424066Y-124508086D01*
X160433037Y-124508141D01*
X160433038Y-124508141D01*
X160443097Y-124508202D01*
X160458506Y-124508296D01*
X160459289Y-124508329D01*
X160460386Y-124508500D01*
X160491377Y-124508500D01*
X160492147Y-124508502D01*
X160565785Y-124508952D01*
X160565786Y-124508952D01*
X160569721Y-124508976D01*
X160571065Y-124508592D01*
X160572410Y-124508500D01*
X173491377Y-124508500D01*
X173492148Y-124508502D01*
X173569721Y-124508976D01*
X173598152Y-124500850D01*
X173614915Y-124497272D01*
X173615753Y-124497152D01*
X173644187Y-124493080D01*
X173667564Y-124482451D01*
X173685087Y-124476004D01*
X173709771Y-124468949D01*
X173717365Y-124464157D01*
X173717368Y-124464156D01*
X173734780Y-124453170D01*
X173749865Y-124445030D01*
X173776782Y-124432792D01*
X173796235Y-124416030D01*
X173811239Y-124404927D01*
X173832958Y-124391224D01*
X173838897Y-124384499D01*
X173838901Y-124384496D01*
X173852532Y-124369062D01*
X173864724Y-124357018D01*
X173880327Y-124343573D01*
X173880329Y-124343570D01*
X173887127Y-124337713D01*
X173901094Y-124316165D01*
X173912385Y-124301291D01*
X173923431Y-124288783D01*
X173923432Y-124288782D01*
X173929378Y-124282049D01*
X173941943Y-124255287D01*
X173950263Y-124240309D01*
X173961471Y-124223017D01*
X173961473Y-124223012D01*
X173966352Y-124215485D01*
X173968922Y-124206892D01*
X173968924Y-124206887D01*
X173973711Y-124190880D01*
X173980372Y-124173436D01*
X173987467Y-124158324D01*
X173987468Y-124158322D01*
X173991281Y-124150200D01*
X173995830Y-124120983D01*
X173999613Y-124104268D01*
X174005515Y-124084534D01*
X174005516Y-124084528D01*
X174008086Y-124075934D01*
X174008124Y-124069721D01*
X178991024Y-124069721D01*
X178993491Y-124078352D01*
X178999150Y-124098153D01*
X179002728Y-124114915D01*
X179006920Y-124144187D01*
X179010634Y-124152355D01*
X179010634Y-124152356D01*
X179017548Y-124167562D01*
X179023996Y-124185086D01*
X179031051Y-124209771D01*
X179035843Y-124217365D01*
X179035844Y-124217368D01*
X179046830Y-124234780D01*
X179054969Y-124249863D01*
X179067208Y-124276782D01*
X179073069Y-124283584D01*
X179083970Y-124296235D01*
X179095073Y-124311239D01*
X179108776Y-124332958D01*
X179115501Y-124338897D01*
X179115504Y-124338901D01*
X179130938Y-124352532D01*
X179142982Y-124364724D01*
X179156427Y-124380327D01*
X179156430Y-124380329D01*
X179162287Y-124387127D01*
X179169816Y-124392007D01*
X179169817Y-124392008D01*
X179183835Y-124401094D01*
X179198709Y-124412385D01*
X179211217Y-124423431D01*
X179217951Y-124429378D01*
X179244711Y-124441942D01*
X179259691Y-124450263D01*
X179276983Y-124461471D01*
X179276988Y-124461473D01*
X179284515Y-124466352D01*
X179293108Y-124468922D01*
X179293113Y-124468924D01*
X179309120Y-124473711D01*
X179326564Y-124480372D01*
X179341676Y-124487467D01*
X179341678Y-124487468D01*
X179349800Y-124491281D01*
X179358667Y-124492662D01*
X179358668Y-124492662D01*
X179361353Y-124493080D01*
X179379017Y-124495830D01*
X179395732Y-124499613D01*
X179415466Y-124505515D01*
X179415472Y-124505516D01*
X179424066Y-124508086D01*
X179433037Y-124508141D01*
X179433038Y-124508141D01*
X179443097Y-124508202D01*
X179458506Y-124508296D01*
X179459289Y-124508329D01*
X179460386Y-124508500D01*
X179491377Y-124508500D01*
X179492147Y-124508502D01*
X179565785Y-124508952D01*
X179565786Y-124508952D01*
X179569721Y-124508976D01*
X179571065Y-124508592D01*
X179572410Y-124508500D01*
X192491377Y-124508500D01*
X192492148Y-124508502D01*
X192569721Y-124508976D01*
X192598152Y-124500850D01*
X192614915Y-124497272D01*
X192615753Y-124497152D01*
X192644187Y-124493080D01*
X192667564Y-124482451D01*
X192685087Y-124476004D01*
X192709771Y-124468949D01*
X192717365Y-124464157D01*
X192717368Y-124464156D01*
X192734780Y-124453170D01*
X192749865Y-124445030D01*
X192776782Y-124432792D01*
X192796235Y-124416030D01*
X192811239Y-124404927D01*
X192832958Y-124391224D01*
X192838897Y-124384499D01*
X192838901Y-124384496D01*
X192852532Y-124369062D01*
X192864724Y-124357018D01*
X192880327Y-124343573D01*
X192880329Y-124343570D01*
X192887127Y-124337713D01*
X192901094Y-124316165D01*
X192912385Y-124301291D01*
X192923431Y-124288783D01*
X192923432Y-124288782D01*
X192929378Y-124282049D01*
X192941943Y-124255287D01*
X192950263Y-124240309D01*
X192961471Y-124223017D01*
X192961473Y-124223012D01*
X192966352Y-124215485D01*
X192968922Y-124206892D01*
X192968924Y-124206887D01*
X192973711Y-124190880D01*
X192980372Y-124173436D01*
X192987467Y-124158324D01*
X192987468Y-124158322D01*
X192991281Y-124150200D01*
X192995830Y-124120983D01*
X192999613Y-124104268D01*
X193005515Y-124084534D01*
X193005516Y-124084528D01*
X193008086Y-124075934D01*
X193008124Y-124069721D01*
X197991024Y-124069721D01*
X197993491Y-124078352D01*
X197999150Y-124098153D01*
X198002728Y-124114915D01*
X198006920Y-124144187D01*
X198010634Y-124152355D01*
X198010634Y-124152356D01*
X198017548Y-124167562D01*
X198023996Y-124185086D01*
X198031051Y-124209771D01*
X198035843Y-124217365D01*
X198035844Y-124217368D01*
X198046830Y-124234780D01*
X198054969Y-124249863D01*
X198067208Y-124276782D01*
X198073069Y-124283584D01*
X198083970Y-124296235D01*
X198095073Y-124311239D01*
X198108776Y-124332958D01*
X198115501Y-124338897D01*
X198115504Y-124338901D01*
X198130938Y-124352532D01*
X198142982Y-124364724D01*
X198156427Y-124380327D01*
X198156430Y-124380329D01*
X198162287Y-124387127D01*
X198169816Y-124392007D01*
X198169817Y-124392008D01*
X198183835Y-124401094D01*
X198198709Y-124412385D01*
X198211217Y-124423431D01*
X198217951Y-124429378D01*
X198244711Y-124441942D01*
X198259691Y-124450263D01*
X198276983Y-124461471D01*
X198276988Y-124461473D01*
X198284515Y-124466352D01*
X198293108Y-124468922D01*
X198293113Y-124468924D01*
X198309120Y-124473711D01*
X198326564Y-124480372D01*
X198341676Y-124487467D01*
X198341678Y-124487468D01*
X198349800Y-124491281D01*
X198358667Y-124492662D01*
X198358668Y-124492662D01*
X198361353Y-124493080D01*
X198379017Y-124495830D01*
X198395732Y-124499613D01*
X198415466Y-124505515D01*
X198415472Y-124505516D01*
X198424066Y-124508086D01*
X198433037Y-124508141D01*
X198433038Y-124508141D01*
X198443097Y-124508202D01*
X198458506Y-124508296D01*
X198459289Y-124508329D01*
X198460386Y-124508500D01*
X198491377Y-124508500D01*
X198492147Y-124508502D01*
X198565785Y-124508952D01*
X198565786Y-124508952D01*
X198569721Y-124508976D01*
X198571065Y-124508592D01*
X198572410Y-124508500D01*
X210888456Y-124508500D01*
X210956577Y-124528502D01*
X211003070Y-124582158D01*
X211008289Y-124595562D01*
X211065473Y-124771556D01*
X211160960Y-124936944D01*
X211288747Y-125078866D01*
X211443248Y-125191118D01*
X211449276Y-125193802D01*
X211449278Y-125193803D01*
X211611681Y-125266109D01*
X211617712Y-125268794D01*
X211711113Y-125288647D01*
X211798056Y-125307128D01*
X211798061Y-125307128D01*
X211804513Y-125308500D01*
X211995487Y-125308500D01*
X212001939Y-125307128D01*
X212001944Y-125307128D01*
X212088887Y-125288647D01*
X212182288Y-125268794D01*
X212188319Y-125266109D01*
X212350722Y-125193803D01*
X212350724Y-125193802D01*
X212356752Y-125191118D01*
X212511253Y-125078866D01*
X212639040Y-124936944D01*
X212734527Y-124771556D01*
X212793542Y-124589928D01*
X212803153Y-124498490D01*
X212812814Y-124406565D01*
X212813504Y-124400000D01*
X212809113Y-124358218D01*
X212794232Y-124216635D01*
X212794232Y-124216633D01*
X212793542Y-124210072D01*
X212734527Y-124028444D01*
X212639040Y-123863056D01*
X212511253Y-123721134D01*
X212356752Y-123608882D01*
X212350724Y-123606198D01*
X212350722Y-123606197D01*
X212188319Y-123533891D01*
X212188318Y-123533891D01*
X212182288Y-123531206D01*
X212108303Y-123515480D01*
X212045830Y-123481752D01*
X212011508Y-123419602D01*
X212008500Y-123392233D01*
X212008500Y-118569721D01*
X235891024Y-118569721D01*
X235893491Y-118578352D01*
X235899150Y-118598153D01*
X235902728Y-118614915D01*
X235906920Y-118644187D01*
X235910634Y-118652355D01*
X235910634Y-118652356D01*
X235917548Y-118667562D01*
X235923996Y-118685086D01*
X235931051Y-118709771D01*
X235935843Y-118717365D01*
X235935844Y-118717368D01*
X235946830Y-118734780D01*
X235954969Y-118749863D01*
X235967208Y-118776782D01*
X235973069Y-118783584D01*
X235983970Y-118796235D01*
X235995073Y-118811239D01*
X236008776Y-118832958D01*
X236015501Y-118838897D01*
X236015504Y-118838901D01*
X236030938Y-118852532D01*
X236042982Y-118864724D01*
X236056427Y-118880327D01*
X236056430Y-118880329D01*
X236062287Y-118887127D01*
X236069816Y-118892007D01*
X236069817Y-118892008D01*
X236083835Y-118901094D01*
X236098709Y-118912385D01*
X236111217Y-118923431D01*
X236117951Y-118929378D01*
X236144711Y-118941942D01*
X236159691Y-118950263D01*
X236176983Y-118961471D01*
X236176988Y-118961473D01*
X236184515Y-118966352D01*
X236193108Y-118968922D01*
X236193113Y-118968924D01*
X236209120Y-118973711D01*
X236226564Y-118980372D01*
X236241676Y-118987467D01*
X236241678Y-118987468D01*
X236249800Y-118991281D01*
X236258667Y-118992662D01*
X236258668Y-118992662D01*
X236261353Y-118993080D01*
X236279017Y-118995830D01*
X236295732Y-118999613D01*
X236315466Y-119005515D01*
X236315472Y-119005516D01*
X236324066Y-119008086D01*
X236333037Y-119008141D01*
X236333038Y-119008141D01*
X236343097Y-119008202D01*
X236358506Y-119008296D01*
X236359289Y-119008329D01*
X236360386Y-119008500D01*
X236391377Y-119008500D01*
X236392147Y-119008502D01*
X236465785Y-119008952D01*
X236465786Y-119008952D01*
X236469721Y-119008976D01*
X236471065Y-119008592D01*
X236472410Y-119008500D01*
X249391377Y-119008500D01*
X249392148Y-119008502D01*
X249469721Y-119008976D01*
X249498152Y-119000850D01*
X249514915Y-118997272D01*
X249515753Y-118997152D01*
X249544187Y-118993080D01*
X249567564Y-118982451D01*
X249585087Y-118976004D01*
X249609771Y-118968949D01*
X249617365Y-118964157D01*
X249617368Y-118964156D01*
X249634780Y-118953170D01*
X249649865Y-118945030D01*
X249676782Y-118932792D01*
X249696235Y-118916030D01*
X249711239Y-118904927D01*
X249732958Y-118891224D01*
X249738897Y-118884499D01*
X249738901Y-118884496D01*
X249752532Y-118869062D01*
X249764724Y-118857018D01*
X249780327Y-118843573D01*
X249780329Y-118843570D01*
X249787127Y-118837713D01*
X249801094Y-118816165D01*
X249812385Y-118801291D01*
X249823431Y-118788783D01*
X249823432Y-118788782D01*
X249829378Y-118782049D01*
X249841943Y-118755287D01*
X249850263Y-118740309D01*
X249861471Y-118723017D01*
X249861473Y-118723012D01*
X249866352Y-118715485D01*
X249868922Y-118706892D01*
X249868924Y-118706887D01*
X249873711Y-118690880D01*
X249880372Y-118673436D01*
X249887467Y-118658324D01*
X249887468Y-118658322D01*
X249891281Y-118650200D01*
X249895830Y-118620983D01*
X249899613Y-118604268D01*
X249905515Y-118584534D01*
X249905516Y-118584528D01*
X249908086Y-118575934D01*
X249908296Y-118541494D01*
X249908329Y-118540711D01*
X249908500Y-118539614D01*
X249908500Y-118508623D01*
X249908502Y-118507853D01*
X249908952Y-118434215D01*
X249908952Y-118434214D01*
X249908976Y-118430279D01*
X249908592Y-118428935D01*
X249908500Y-118427590D01*
X249908500Y-105508623D01*
X249908502Y-105507853D01*
X249908740Y-105468924D01*
X249908976Y-105430279D01*
X249900850Y-105401847D01*
X249897272Y-105385085D01*
X249894352Y-105364698D01*
X249893080Y-105355813D01*
X249882451Y-105332436D01*
X249876004Y-105314913D01*
X249874348Y-105309120D01*
X249868949Y-105290229D01*
X249863788Y-105282049D01*
X249853170Y-105265220D01*
X249845030Y-105250135D01*
X249842564Y-105244711D01*
X249832792Y-105223218D01*
X249816030Y-105203765D01*
X249804927Y-105188761D01*
X249791224Y-105167042D01*
X249784499Y-105161103D01*
X249784496Y-105161099D01*
X249769062Y-105147468D01*
X249757018Y-105135276D01*
X249743573Y-105119673D01*
X249743570Y-105119671D01*
X249737713Y-105112873D01*
X249724438Y-105104268D01*
X249716165Y-105098906D01*
X249701291Y-105087615D01*
X249688783Y-105076569D01*
X249688782Y-105076568D01*
X249682049Y-105070622D01*
X249655287Y-105058057D01*
X249640309Y-105049737D01*
X249623017Y-105038529D01*
X249623012Y-105038527D01*
X249615485Y-105033648D01*
X249606892Y-105031078D01*
X249606887Y-105031076D01*
X249590880Y-105026289D01*
X249573436Y-105019628D01*
X249558324Y-105012533D01*
X249558322Y-105012532D01*
X249550200Y-105008719D01*
X249541333Y-105007338D01*
X249541332Y-105007338D01*
X249530478Y-105005648D01*
X249520983Y-105004170D01*
X249504268Y-105000387D01*
X249484534Y-104994485D01*
X249484528Y-104994484D01*
X249475934Y-104991914D01*
X249466963Y-104991859D01*
X249466962Y-104991859D01*
X249456903Y-104991798D01*
X249441494Y-104991704D01*
X249440711Y-104991671D01*
X249439614Y-104991500D01*
X249408623Y-104991500D01*
X249407853Y-104991498D01*
X249334215Y-104991048D01*
X249334214Y-104991048D01*
X249330279Y-104991024D01*
X249328935Y-104991408D01*
X249327590Y-104991500D01*
X236408623Y-104991500D01*
X236407853Y-104991498D01*
X236407037Y-104991493D01*
X236330279Y-104991024D01*
X236307918Y-104997415D01*
X236301847Y-104999150D01*
X236285085Y-105002728D01*
X236255813Y-105006920D01*
X236247645Y-105010634D01*
X236247644Y-105010634D01*
X236232438Y-105017548D01*
X236214914Y-105023996D01*
X236190229Y-105031051D01*
X236182635Y-105035843D01*
X236182632Y-105035844D01*
X236165220Y-105046830D01*
X236150137Y-105054969D01*
X236123218Y-105067208D01*
X236116416Y-105073069D01*
X236103765Y-105083970D01*
X236088761Y-105095073D01*
X236067042Y-105108776D01*
X236061103Y-105115501D01*
X236061099Y-105115504D01*
X236047468Y-105130938D01*
X236035276Y-105142982D01*
X236019673Y-105156427D01*
X236019671Y-105156430D01*
X236012873Y-105162287D01*
X236007993Y-105169816D01*
X236007992Y-105169817D01*
X235998906Y-105183835D01*
X235987615Y-105198709D01*
X235980393Y-105206887D01*
X235970622Y-105217951D01*
X235964312Y-105231391D01*
X235958058Y-105244711D01*
X235949737Y-105259691D01*
X235938529Y-105276983D01*
X235938527Y-105276988D01*
X235933648Y-105284515D01*
X235931078Y-105293108D01*
X235931076Y-105293113D01*
X235926289Y-105309120D01*
X235919628Y-105326564D01*
X235916626Y-105332958D01*
X235908719Y-105349800D01*
X235907338Y-105358667D01*
X235907338Y-105358668D01*
X235904170Y-105379015D01*
X235900387Y-105395732D01*
X235894485Y-105415466D01*
X235894484Y-105415472D01*
X235891914Y-105424066D01*
X235891859Y-105433037D01*
X235891859Y-105433038D01*
X235891704Y-105458497D01*
X235891671Y-105459289D01*
X235891500Y-105460386D01*
X235891500Y-105491377D01*
X235891498Y-105492147D01*
X235891396Y-105508921D01*
X235891024Y-105569721D01*
X235891408Y-105571065D01*
X235891500Y-105572410D01*
X235891500Y-118491377D01*
X235891498Y-118492147D01*
X235891024Y-118569721D01*
X212008500Y-118569721D01*
X212008500Y-111008623D01*
X212008502Y-111007853D01*
X212008800Y-110959102D01*
X212008976Y-110930279D01*
X212000850Y-110901847D01*
X211997272Y-110885085D01*
X211994352Y-110864698D01*
X211993080Y-110855813D01*
X211982451Y-110832436D01*
X211976004Y-110814913D01*
X211971416Y-110798862D01*
X211968949Y-110790229D01*
X211964156Y-110782632D01*
X211953170Y-110765220D01*
X211945030Y-110750135D01*
X211942564Y-110744711D01*
X211932792Y-110723218D01*
X211916030Y-110703765D01*
X211904927Y-110688761D01*
X211891224Y-110667042D01*
X211884499Y-110661103D01*
X211884496Y-110661099D01*
X211869062Y-110647468D01*
X211857018Y-110635276D01*
X211843573Y-110619673D01*
X211843570Y-110619671D01*
X211837713Y-110612873D01*
X211824009Y-110603990D01*
X211816165Y-110598906D01*
X211801291Y-110587615D01*
X211788783Y-110576569D01*
X211788782Y-110576568D01*
X211782049Y-110570622D01*
X211755287Y-110558057D01*
X211740309Y-110549737D01*
X211723017Y-110538529D01*
X211723012Y-110538527D01*
X211715485Y-110533648D01*
X211706892Y-110531078D01*
X211706887Y-110531076D01*
X211690880Y-110526289D01*
X211673436Y-110519628D01*
X211658324Y-110512533D01*
X211658322Y-110512532D01*
X211650200Y-110508719D01*
X211641333Y-110507338D01*
X211641332Y-110507338D01*
X211630478Y-110505648D01*
X211620983Y-110504170D01*
X211604268Y-110500387D01*
X211584534Y-110494485D01*
X211584528Y-110494484D01*
X211575934Y-110491914D01*
X211566963Y-110491859D01*
X211566962Y-110491859D01*
X211556903Y-110491798D01*
X211541494Y-110491704D01*
X211540711Y-110491671D01*
X211539614Y-110491500D01*
X211508623Y-110491500D01*
X211507853Y-110491498D01*
X211434215Y-110491048D01*
X211434214Y-110491048D01*
X211430279Y-110491024D01*
X211428935Y-110491408D01*
X211427590Y-110491500D01*
X198508623Y-110491500D01*
X198507853Y-110491498D01*
X198507037Y-110491493D01*
X198430279Y-110491024D01*
X198407918Y-110497415D01*
X198401847Y-110499150D01*
X198385085Y-110502728D01*
X198355813Y-110506920D01*
X198347645Y-110510634D01*
X198347644Y-110510634D01*
X198332438Y-110517548D01*
X198314914Y-110523996D01*
X198290229Y-110531051D01*
X198282635Y-110535843D01*
X198282632Y-110535844D01*
X198265220Y-110546830D01*
X198250137Y-110554969D01*
X198223218Y-110567208D01*
X198216416Y-110573069D01*
X198203765Y-110583970D01*
X198188761Y-110595073D01*
X198167042Y-110608776D01*
X198161103Y-110615501D01*
X198161099Y-110615504D01*
X198147468Y-110630938D01*
X198135276Y-110642982D01*
X198119673Y-110656427D01*
X198119671Y-110656430D01*
X198112873Y-110662287D01*
X198107993Y-110669816D01*
X198107992Y-110669817D01*
X198098906Y-110683835D01*
X198087615Y-110698709D01*
X198076569Y-110711217D01*
X198070622Y-110717951D01*
X198064312Y-110731391D01*
X198058058Y-110744711D01*
X198049737Y-110759691D01*
X198038529Y-110776983D01*
X198038527Y-110776988D01*
X198033648Y-110784515D01*
X198031078Y-110793108D01*
X198031076Y-110793113D01*
X198026289Y-110809120D01*
X198019628Y-110826564D01*
X198012533Y-110841676D01*
X198008719Y-110849800D01*
X198007338Y-110858667D01*
X198007338Y-110858668D01*
X198004170Y-110879015D01*
X198000387Y-110895732D01*
X197994485Y-110915466D01*
X197994484Y-110915472D01*
X197991914Y-110924066D01*
X197991859Y-110933037D01*
X197991859Y-110933038D01*
X197991704Y-110958497D01*
X197991671Y-110959289D01*
X197991500Y-110960386D01*
X197991500Y-110991377D01*
X197991498Y-110992147D01*
X197991024Y-111069721D01*
X197991408Y-111071065D01*
X197991500Y-111072410D01*
X197991500Y-123991377D01*
X197991498Y-123992147D01*
X197991024Y-124069721D01*
X193008124Y-124069721D01*
X193008296Y-124041494D01*
X193008329Y-124040711D01*
X193008500Y-124039614D01*
X193008500Y-124008623D01*
X193008502Y-124007853D01*
X193008952Y-123934215D01*
X193008952Y-123934214D01*
X193008976Y-123930279D01*
X193008592Y-123928935D01*
X193008500Y-123927590D01*
X193008500Y-111008623D01*
X193008502Y-111007853D01*
X193008800Y-110959102D01*
X193008976Y-110930279D01*
X193000850Y-110901847D01*
X192997272Y-110885085D01*
X192994352Y-110864698D01*
X192993080Y-110855813D01*
X192982451Y-110832436D01*
X192976004Y-110814913D01*
X192971416Y-110798862D01*
X192968949Y-110790229D01*
X192964156Y-110782632D01*
X192953170Y-110765220D01*
X192945030Y-110750135D01*
X192942564Y-110744711D01*
X192932792Y-110723218D01*
X192916030Y-110703765D01*
X192904927Y-110688761D01*
X192891224Y-110667042D01*
X192884499Y-110661103D01*
X192884496Y-110661099D01*
X192869062Y-110647468D01*
X192857018Y-110635276D01*
X192843573Y-110619673D01*
X192843570Y-110619671D01*
X192837713Y-110612873D01*
X192824009Y-110603990D01*
X192816165Y-110598906D01*
X192801291Y-110587615D01*
X192788783Y-110576569D01*
X192788782Y-110576568D01*
X192782049Y-110570622D01*
X192755287Y-110558057D01*
X192740309Y-110549737D01*
X192723017Y-110538529D01*
X192723012Y-110538527D01*
X192715485Y-110533648D01*
X192706892Y-110531078D01*
X192706887Y-110531076D01*
X192690880Y-110526289D01*
X192673436Y-110519628D01*
X192658324Y-110512533D01*
X192658322Y-110512532D01*
X192650200Y-110508719D01*
X192641333Y-110507338D01*
X192641332Y-110507338D01*
X192630478Y-110505648D01*
X192620983Y-110504170D01*
X192604268Y-110500387D01*
X192584534Y-110494485D01*
X192584528Y-110494484D01*
X192575934Y-110491914D01*
X192566963Y-110491859D01*
X192566962Y-110491859D01*
X192556903Y-110491798D01*
X192541494Y-110491704D01*
X192540711Y-110491671D01*
X192539614Y-110491500D01*
X192508623Y-110491500D01*
X192507853Y-110491498D01*
X192434215Y-110491048D01*
X192434214Y-110491048D01*
X192430279Y-110491024D01*
X192428935Y-110491408D01*
X192427590Y-110491500D01*
X179508623Y-110491500D01*
X179507853Y-110491498D01*
X179507037Y-110491493D01*
X179430279Y-110491024D01*
X179407918Y-110497415D01*
X179401847Y-110499150D01*
X179385085Y-110502728D01*
X179355813Y-110506920D01*
X179347645Y-110510634D01*
X179347644Y-110510634D01*
X179332438Y-110517548D01*
X179314914Y-110523996D01*
X179290229Y-110531051D01*
X179282635Y-110535843D01*
X179282632Y-110535844D01*
X179265220Y-110546830D01*
X179250137Y-110554969D01*
X179223218Y-110567208D01*
X179216416Y-110573069D01*
X179203765Y-110583970D01*
X179188761Y-110595073D01*
X179167042Y-110608776D01*
X179161103Y-110615501D01*
X179161099Y-110615504D01*
X179147468Y-110630938D01*
X179135276Y-110642982D01*
X179119673Y-110656427D01*
X179119671Y-110656430D01*
X179112873Y-110662287D01*
X179107993Y-110669816D01*
X179107992Y-110669817D01*
X179098906Y-110683835D01*
X179087615Y-110698709D01*
X179076569Y-110711217D01*
X179070622Y-110717951D01*
X179064312Y-110731391D01*
X179058058Y-110744711D01*
X179049737Y-110759691D01*
X179038529Y-110776983D01*
X179038527Y-110776988D01*
X179033648Y-110784515D01*
X179031078Y-110793108D01*
X179031076Y-110793113D01*
X179026289Y-110809120D01*
X179019628Y-110826564D01*
X179012533Y-110841676D01*
X179008719Y-110849800D01*
X179007338Y-110858667D01*
X179007338Y-110858668D01*
X179004170Y-110879015D01*
X179000387Y-110895732D01*
X178994485Y-110915466D01*
X178994484Y-110915472D01*
X178991914Y-110924066D01*
X178991859Y-110933037D01*
X178991859Y-110933038D01*
X178991704Y-110958497D01*
X178991671Y-110959289D01*
X178991500Y-110960386D01*
X178991500Y-110991377D01*
X178991498Y-110992147D01*
X178991024Y-111069721D01*
X178991408Y-111071065D01*
X178991500Y-111072410D01*
X178991500Y-123991377D01*
X178991498Y-123992147D01*
X178991024Y-124069721D01*
X174008124Y-124069721D01*
X174008296Y-124041494D01*
X174008329Y-124040711D01*
X174008500Y-124039614D01*
X174008500Y-124008623D01*
X174008502Y-124007853D01*
X174008952Y-123934215D01*
X174008952Y-123934214D01*
X174008976Y-123930279D01*
X174008592Y-123928935D01*
X174008500Y-123927590D01*
X174008500Y-111008623D01*
X174008502Y-111007853D01*
X174008800Y-110959102D01*
X174008976Y-110930279D01*
X174000850Y-110901847D01*
X173997272Y-110885085D01*
X173994352Y-110864698D01*
X173993080Y-110855813D01*
X173982451Y-110832436D01*
X173976004Y-110814913D01*
X173971416Y-110798862D01*
X173968949Y-110790229D01*
X173964156Y-110782632D01*
X173953170Y-110765220D01*
X173945030Y-110750135D01*
X173942564Y-110744711D01*
X173932792Y-110723218D01*
X173916030Y-110703765D01*
X173904927Y-110688761D01*
X173891224Y-110667042D01*
X173884499Y-110661103D01*
X173884496Y-110661099D01*
X173869062Y-110647468D01*
X173857018Y-110635276D01*
X173843573Y-110619673D01*
X173843570Y-110619671D01*
X173837713Y-110612873D01*
X173824009Y-110603990D01*
X173816165Y-110598906D01*
X173801291Y-110587615D01*
X173788783Y-110576569D01*
X173788782Y-110576568D01*
X173782049Y-110570622D01*
X173755287Y-110558057D01*
X173740309Y-110549737D01*
X173723017Y-110538529D01*
X173723012Y-110538527D01*
X173715485Y-110533648D01*
X173706892Y-110531078D01*
X173706887Y-110531076D01*
X173690880Y-110526289D01*
X173673436Y-110519628D01*
X173658324Y-110512533D01*
X173658322Y-110512532D01*
X173650200Y-110508719D01*
X173641333Y-110507338D01*
X173641332Y-110507338D01*
X173630478Y-110505648D01*
X173620983Y-110504170D01*
X173604268Y-110500387D01*
X173584534Y-110494485D01*
X173584528Y-110494484D01*
X173575934Y-110491914D01*
X173566963Y-110491859D01*
X173566962Y-110491859D01*
X173556903Y-110491798D01*
X173541494Y-110491704D01*
X173540711Y-110491671D01*
X173539614Y-110491500D01*
X173508623Y-110491500D01*
X173507853Y-110491498D01*
X173434215Y-110491048D01*
X173434214Y-110491048D01*
X173430279Y-110491024D01*
X173428935Y-110491408D01*
X173427590Y-110491500D01*
X160508623Y-110491500D01*
X160507853Y-110491498D01*
X160507037Y-110491493D01*
X160430279Y-110491024D01*
X160407918Y-110497415D01*
X160401847Y-110499150D01*
X160385085Y-110502728D01*
X160355813Y-110506920D01*
X160347645Y-110510634D01*
X160347644Y-110510634D01*
X160332438Y-110517548D01*
X160314914Y-110523996D01*
X160290229Y-110531051D01*
X160282635Y-110535843D01*
X160282632Y-110535844D01*
X160265220Y-110546830D01*
X160250137Y-110554969D01*
X160223218Y-110567208D01*
X160216416Y-110573069D01*
X160203765Y-110583970D01*
X160188761Y-110595073D01*
X160167042Y-110608776D01*
X160161103Y-110615501D01*
X160161099Y-110615504D01*
X160147468Y-110630938D01*
X160135276Y-110642982D01*
X160119673Y-110656427D01*
X160119671Y-110656430D01*
X160112873Y-110662287D01*
X160107993Y-110669816D01*
X160107992Y-110669817D01*
X160098906Y-110683835D01*
X160087615Y-110698709D01*
X160076569Y-110711217D01*
X160070622Y-110717951D01*
X160064312Y-110731391D01*
X160058058Y-110744711D01*
X160049737Y-110759691D01*
X160038529Y-110776983D01*
X160038527Y-110776988D01*
X160033648Y-110784515D01*
X160031078Y-110793108D01*
X160031076Y-110793113D01*
X160026289Y-110809120D01*
X160019628Y-110826564D01*
X160012533Y-110841676D01*
X160008719Y-110849800D01*
X160007338Y-110858667D01*
X160007338Y-110858668D01*
X160004170Y-110879015D01*
X160000387Y-110895732D01*
X159994485Y-110915466D01*
X159994484Y-110915472D01*
X159991914Y-110924066D01*
X159991859Y-110933037D01*
X159991859Y-110933038D01*
X159991704Y-110958497D01*
X159991671Y-110959289D01*
X159991500Y-110960386D01*
X159991500Y-110991377D01*
X159991498Y-110992147D01*
X159991024Y-111069721D01*
X159991408Y-111071065D01*
X159991500Y-111072410D01*
X159991500Y-123991377D01*
X159991498Y-123992147D01*
X159991024Y-124069721D01*
X145508124Y-124069721D01*
X145508296Y-124041494D01*
X145508329Y-124040711D01*
X145508500Y-124039614D01*
X145508500Y-124008623D01*
X145508502Y-124007853D01*
X145508952Y-123934215D01*
X145508952Y-123934214D01*
X145508976Y-123930279D01*
X145508592Y-123928935D01*
X145508500Y-123927590D01*
X145508500Y-111008623D01*
X145508502Y-111007853D01*
X145508800Y-110959102D01*
X145508976Y-110930279D01*
X145500850Y-110901847D01*
X145497272Y-110885085D01*
X145494352Y-110864698D01*
X145493080Y-110855813D01*
X145482451Y-110832436D01*
X145476004Y-110814913D01*
X145471416Y-110798862D01*
X145468949Y-110790229D01*
X145464156Y-110782632D01*
X145453170Y-110765220D01*
X145445030Y-110750135D01*
X145442564Y-110744711D01*
X145432792Y-110723218D01*
X145416030Y-110703765D01*
X145404927Y-110688761D01*
X145391224Y-110667042D01*
X145384499Y-110661103D01*
X145384496Y-110661099D01*
X145369062Y-110647468D01*
X145357018Y-110635276D01*
X145343573Y-110619673D01*
X145343570Y-110619671D01*
X145337713Y-110612873D01*
X145324009Y-110603990D01*
X145316165Y-110598906D01*
X145301291Y-110587615D01*
X145288783Y-110576569D01*
X145288782Y-110576568D01*
X145282049Y-110570622D01*
X145255287Y-110558057D01*
X145240309Y-110549737D01*
X145223017Y-110538529D01*
X145223012Y-110538527D01*
X145215485Y-110533648D01*
X145206892Y-110531078D01*
X145206887Y-110531076D01*
X145190880Y-110526289D01*
X145173436Y-110519628D01*
X145158324Y-110512533D01*
X145158322Y-110512532D01*
X145150200Y-110508719D01*
X145141333Y-110507338D01*
X145141332Y-110507338D01*
X145130478Y-110505648D01*
X145120983Y-110504170D01*
X145104268Y-110500387D01*
X145084534Y-110494485D01*
X145084528Y-110494484D01*
X145075934Y-110491914D01*
X145066963Y-110491859D01*
X145066962Y-110491859D01*
X145056903Y-110491798D01*
X145041494Y-110491704D01*
X145040711Y-110491671D01*
X145039614Y-110491500D01*
X145008623Y-110491500D01*
X145007853Y-110491498D01*
X144934215Y-110491048D01*
X144934214Y-110491048D01*
X144930279Y-110491024D01*
X144928935Y-110491408D01*
X144927590Y-110491500D01*
X132008623Y-110491500D01*
X132007853Y-110491498D01*
X132007037Y-110491493D01*
X131930279Y-110491024D01*
X131907918Y-110497415D01*
X131901847Y-110499150D01*
X131885085Y-110502728D01*
X131855813Y-110506920D01*
X131847645Y-110510634D01*
X131847644Y-110510634D01*
X131832438Y-110517548D01*
X131814914Y-110523996D01*
X131790229Y-110531051D01*
X131782635Y-110535843D01*
X131782632Y-110535844D01*
X131765220Y-110546830D01*
X131750137Y-110554969D01*
X131723218Y-110567208D01*
X131716416Y-110573069D01*
X131703765Y-110583970D01*
X131688761Y-110595073D01*
X131667042Y-110608776D01*
X131661103Y-110615501D01*
X131661099Y-110615504D01*
X131647468Y-110630938D01*
X131635276Y-110642982D01*
X131619673Y-110656427D01*
X131619671Y-110656430D01*
X131612873Y-110662287D01*
X131607993Y-110669816D01*
X131607992Y-110669817D01*
X131598906Y-110683835D01*
X131587615Y-110698709D01*
X131576569Y-110711217D01*
X131570622Y-110717951D01*
X131564312Y-110731391D01*
X131558058Y-110744711D01*
X131549737Y-110759691D01*
X131538529Y-110776983D01*
X131538527Y-110776988D01*
X131533648Y-110784515D01*
X131531078Y-110793108D01*
X131531076Y-110793113D01*
X131526289Y-110809120D01*
X131519628Y-110826564D01*
X131512533Y-110841676D01*
X131508719Y-110849800D01*
X131507338Y-110858667D01*
X131507338Y-110858668D01*
X131504170Y-110879015D01*
X131500387Y-110895732D01*
X131494485Y-110915466D01*
X131494484Y-110915472D01*
X131491914Y-110924066D01*
X131491859Y-110933037D01*
X131491859Y-110933038D01*
X131491704Y-110958497D01*
X131491671Y-110959289D01*
X131491500Y-110960386D01*
X131491500Y-110991377D01*
X131491498Y-110992147D01*
X131491024Y-111069721D01*
X131491408Y-111071065D01*
X131491500Y-111072410D01*
X131491500Y-123991377D01*
X131491498Y-123992147D01*
X131491024Y-124069721D01*
X117008124Y-124069721D01*
X117008296Y-124041494D01*
X117008329Y-124040711D01*
X117008500Y-124039614D01*
X117008500Y-124008623D01*
X117008502Y-124007853D01*
X117008952Y-123934215D01*
X117008952Y-123934214D01*
X117008976Y-123930279D01*
X117008592Y-123928935D01*
X117008500Y-123927590D01*
X117008500Y-111008623D01*
X117008502Y-111007853D01*
X117008800Y-110959102D01*
X117008976Y-110930279D01*
X117000850Y-110901847D01*
X116997272Y-110885085D01*
X116994352Y-110864698D01*
X116993080Y-110855813D01*
X116982451Y-110832436D01*
X116976004Y-110814913D01*
X116971416Y-110798862D01*
X116968949Y-110790229D01*
X116964156Y-110782632D01*
X116953170Y-110765220D01*
X116945030Y-110750135D01*
X116942564Y-110744711D01*
X116932792Y-110723218D01*
X116916030Y-110703765D01*
X116904927Y-110688761D01*
X116891224Y-110667042D01*
X116884499Y-110661103D01*
X116884496Y-110661099D01*
X116869062Y-110647468D01*
X116857018Y-110635276D01*
X116843573Y-110619673D01*
X116843570Y-110619671D01*
X116837713Y-110612873D01*
X116824009Y-110603990D01*
X116816165Y-110598906D01*
X116801291Y-110587615D01*
X116788783Y-110576569D01*
X116788782Y-110576568D01*
X116782049Y-110570622D01*
X116755287Y-110558057D01*
X116740309Y-110549737D01*
X116723017Y-110538529D01*
X116723012Y-110538527D01*
X116715485Y-110533648D01*
X116706892Y-110531078D01*
X116706887Y-110531076D01*
X116690880Y-110526289D01*
X116673436Y-110519628D01*
X116658324Y-110512533D01*
X116658322Y-110512532D01*
X116650200Y-110508719D01*
X116641333Y-110507338D01*
X116641332Y-110507338D01*
X116630478Y-110505648D01*
X116620983Y-110504170D01*
X116604268Y-110500387D01*
X116584534Y-110494485D01*
X116584528Y-110494484D01*
X116575934Y-110491914D01*
X116566963Y-110491859D01*
X116566962Y-110491859D01*
X116556903Y-110491798D01*
X116541494Y-110491704D01*
X116540711Y-110491671D01*
X116539614Y-110491500D01*
X116508623Y-110491500D01*
X116507853Y-110491498D01*
X116434215Y-110491048D01*
X116434214Y-110491048D01*
X116430279Y-110491024D01*
X116428935Y-110491408D01*
X116427590Y-110491500D01*
X103508623Y-110491500D01*
X103507853Y-110491498D01*
X103507037Y-110491493D01*
X103430279Y-110491024D01*
X103407918Y-110497415D01*
X103401847Y-110499150D01*
X103385085Y-110502728D01*
X103355813Y-110506920D01*
X103347645Y-110510634D01*
X103347644Y-110510634D01*
X103332438Y-110517548D01*
X103314914Y-110523996D01*
X103290229Y-110531051D01*
X103282635Y-110535843D01*
X103282632Y-110535844D01*
X103265220Y-110546830D01*
X103250137Y-110554969D01*
X103223218Y-110567208D01*
X103216416Y-110573069D01*
X103203765Y-110583970D01*
X103188761Y-110595073D01*
X103167042Y-110608776D01*
X103161103Y-110615501D01*
X103161099Y-110615504D01*
X103147468Y-110630938D01*
X103135276Y-110642982D01*
X103119673Y-110656427D01*
X103119671Y-110656430D01*
X103112873Y-110662287D01*
X103107993Y-110669816D01*
X103107992Y-110669817D01*
X103098906Y-110683835D01*
X103087615Y-110698709D01*
X103076569Y-110711217D01*
X103070622Y-110717951D01*
X103064312Y-110731391D01*
X103058058Y-110744711D01*
X103049737Y-110759691D01*
X103038529Y-110776983D01*
X103038527Y-110776988D01*
X103033648Y-110784515D01*
X103031078Y-110793108D01*
X103031076Y-110793113D01*
X103026289Y-110809120D01*
X103019628Y-110826564D01*
X103012533Y-110841676D01*
X103008719Y-110849800D01*
X103007338Y-110858667D01*
X103007338Y-110858668D01*
X103004170Y-110879015D01*
X103000387Y-110895732D01*
X102994485Y-110915466D01*
X102994484Y-110915472D01*
X102991914Y-110924066D01*
X102991859Y-110933037D01*
X102991859Y-110933038D01*
X102991704Y-110958497D01*
X102991671Y-110959289D01*
X102991500Y-110960386D01*
X102991500Y-110991377D01*
X102991498Y-110992147D01*
X102991024Y-111069721D01*
X102991408Y-111071065D01*
X102991500Y-111072410D01*
X102991500Y-123991377D01*
X102991498Y-123992147D01*
X102991024Y-124069721D01*
X98008124Y-124069721D01*
X98008296Y-124041494D01*
X98008329Y-124040711D01*
X98008500Y-124039614D01*
X98008500Y-124008623D01*
X98008502Y-124007853D01*
X98008952Y-123934215D01*
X98008952Y-123934214D01*
X98008976Y-123930279D01*
X98008592Y-123928935D01*
X98008500Y-123927590D01*
X98008500Y-111008623D01*
X98008502Y-111007853D01*
X98008800Y-110959102D01*
X98008976Y-110930279D01*
X98000850Y-110901847D01*
X97997272Y-110885085D01*
X97994352Y-110864698D01*
X97993080Y-110855813D01*
X97982451Y-110832436D01*
X97976004Y-110814913D01*
X97971416Y-110798862D01*
X97968949Y-110790229D01*
X97964156Y-110782632D01*
X97953170Y-110765220D01*
X97945030Y-110750135D01*
X97942564Y-110744711D01*
X97932792Y-110723218D01*
X97916030Y-110703765D01*
X97904927Y-110688761D01*
X97891224Y-110667042D01*
X97884499Y-110661103D01*
X97884496Y-110661099D01*
X97869062Y-110647468D01*
X97857018Y-110635276D01*
X97843573Y-110619673D01*
X97843570Y-110619671D01*
X97837713Y-110612873D01*
X97824009Y-110603990D01*
X97816165Y-110598906D01*
X97801291Y-110587615D01*
X97788783Y-110576569D01*
X97788782Y-110576568D01*
X97782049Y-110570622D01*
X97755287Y-110558057D01*
X97740309Y-110549737D01*
X97723017Y-110538529D01*
X97723012Y-110538527D01*
X97715485Y-110533648D01*
X97706892Y-110531078D01*
X97706887Y-110531076D01*
X97690880Y-110526289D01*
X97673436Y-110519628D01*
X97658324Y-110512533D01*
X97658322Y-110512532D01*
X97650200Y-110508719D01*
X97641333Y-110507338D01*
X97641332Y-110507338D01*
X97630478Y-110505648D01*
X97620983Y-110504170D01*
X97604268Y-110500387D01*
X97584534Y-110494485D01*
X97584528Y-110494484D01*
X97575934Y-110491914D01*
X97566963Y-110491859D01*
X97566962Y-110491859D01*
X97556903Y-110491798D01*
X97541494Y-110491704D01*
X97540711Y-110491671D01*
X97539614Y-110491500D01*
X97508623Y-110491500D01*
X97507853Y-110491498D01*
X97434215Y-110491048D01*
X97434214Y-110491048D01*
X97430279Y-110491024D01*
X97428935Y-110491408D01*
X97427590Y-110491500D01*
X84508623Y-110491500D01*
X84507853Y-110491498D01*
X84507037Y-110491493D01*
X84430279Y-110491024D01*
X84407918Y-110497415D01*
X84401847Y-110499150D01*
X84385085Y-110502728D01*
X84355813Y-110506920D01*
X84347645Y-110510634D01*
X84347644Y-110510634D01*
X84332438Y-110517548D01*
X84314914Y-110523996D01*
X84290229Y-110531051D01*
X84282635Y-110535843D01*
X84282632Y-110535844D01*
X84265220Y-110546830D01*
X84250137Y-110554969D01*
X84223218Y-110567208D01*
X84216416Y-110573069D01*
X84203765Y-110583970D01*
X84188761Y-110595073D01*
X84167042Y-110608776D01*
X84161103Y-110615501D01*
X84161099Y-110615504D01*
X84147468Y-110630938D01*
X84135276Y-110642982D01*
X84119673Y-110656427D01*
X84119671Y-110656430D01*
X84112873Y-110662287D01*
X84107993Y-110669816D01*
X84107992Y-110669817D01*
X84098906Y-110683835D01*
X84087615Y-110698709D01*
X84076569Y-110711217D01*
X84070622Y-110717951D01*
X84064312Y-110731391D01*
X84058058Y-110744711D01*
X84049737Y-110759691D01*
X84038529Y-110776983D01*
X84038527Y-110776988D01*
X84033648Y-110784515D01*
X84031078Y-110793108D01*
X84031076Y-110793113D01*
X84026289Y-110809120D01*
X84019628Y-110826564D01*
X84012533Y-110841676D01*
X84008719Y-110849800D01*
X84007338Y-110858667D01*
X84007338Y-110858668D01*
X84004170Y-110879015D01*
X84000387Y-110895732D01*
X83994485Y-110915466D01*
X83994484Y-110915472D01*
X83991914Y-110924066D01*
X83991859Y-110933037D01*
X83991859Y-110933038D01*
X83991704Y-110958497D01*
X83991671Y-110959289D01*
X83991500Y-110960386D01*
X83991500Y-110991377D01*
X83991498Y-110992147D01*
X83991024Y-111069721D01*
X83991408Y-111071065D01*
X83991500Y-111072410D01*
X83991500Y-123991377D01*
X83991498Y-123992147D01*
X83991024Y-124069721D01*
X79008124Y-124069721D01*
X79008296Y-124041494D01*
X79008329Y-124040711D01*
X79008500Y-124039614D01*
X79008500Y-124008623D01*
X79008502Y-124007853D01*
X79008952Y-123934215D01*
X79008952Y-123934214D01*
X79008976Y-123930279D01*
X79008592Y-123928935D01*
X79008500Y-123927590D01*
X79008500Y-111008623D01*
X79008502Y-111007853D01*
X79008800Y-110959102D01*
X79008976Y-110930279D01*
X79000850Y-110901847D01*
X78997272Y-110885085D01*
X78994352Y-110864698D01*
X78993080Y-110855813D01*
X78982451Y-110832436D01*
X78976004Y-110814913D01*
X78971416Y-110798862D01*
X78968949Y-110790229D01*
X78964156Y-110782632D01*
X78953170Y-110765220D01*
X78945030Y-110750135D01*
X78942564Y-110744711D01*
X78932792Y-110723218D01*
X78916030Y-110703765D01*
X78904927Y-110688761D01*
X78891224Y-110667042D01*
X78884499Y-110661103D01*
X78884496Y-110661099D01*
X78869062Y-110647468D01*
X78857018Y-110635276D01*
X78843573Y-110619673D01*
X78843570Y-110619671D01*
X78837713Y-110612873D01*
X78824009Y-110603990D01*
X78816165Y-110598906D01*
X78801291Y-110587615D01*
X78788783Y-110576569D01*
X78788782Y-110576568D01*
X78782049Y-110570622D01*
X78755287Y-110558057D01*
X78740309Y-110549737D01*
X78723017Y-110538529D01*
X78723012Y-110538527D01*
X78715485Y-110533648D01*
X78706892Y-110531078D01*
X78706887Y-110531076D01*
X78690880Y-110526289D01*
X78673436Y-110519628D01*
X78658324Y-110512533D01*
X78658322Y-110512532D01*
X78650200Y-110508719D01*
X78641333Y-110507338D01*
X78641332Y-110507338D01*
X78630478Y-110505648D01*
X78620983Y-110504170D01*
X78604268Y-110500387D01*
X78584534Y-110494485D01*
X78584528Y-110494484D01*
X78575934Y-110491914D01*
X78566963Y-110491859D01*
X78566962Y-110491859D01*
X78556903Y-110491798D01*
X78541494Y-110491704D01*
X78540711Y-110491671D01*
X78539614Y-110491500D01*
X78508623Y-110491500D01*
X78507853Y-110491498D01*
X78434215Y-110491048D01*
X78434214Y-110491048D01*
X78430279Y-110491024D01*
X78428935Y-110491408D01*
X78427590Y-110491500D01*
X65508623Y-110491500D01*
X65507853Y-110491498D01*
X65507037Y-110491493D01*
X65430279Y-110491024D01*
X65407918Y-110497415D01*
X65401847Y-110499150D01*
X65385085Y-110502728D01*
X65355813Y-110506920D01*
X65347645Y-110510634D01*
X65347644Y-110510634D01*
X65332438Y-110517548D01*
X65314914Y-110523996D01*
X65290229Y-110531051D01*
X65282635Y-110535843D01*
X65282632Y-110535844D01*
X65265220Y-110546830D01*
X65250137Y-110554969D01*
X65223218Y-110567208D01*
X65216416Y-110573069D01*
X65203765Y-110583970D01*
X65188761Y-110595073D01*
X65167042Y-110608776D01*
X65161103Y-110615501D01*
X65161099Y-110615504D01*
X65147468Y-110630938D01*
X65135276Y-110642982D01*
X65119673Y-110656427D01*
X65119671Y-110656430D01*
X65112873Y-110662287D01*
X65107993Y-110669816D01*
X65107992Y-110669817D01*
X65098906Y-110683835D01*
X65087615Y-110698709D01*
X65076569Y-110711217D01*
X65070622Y-110717951D01*
X65064312Y-110731391D01*
X65058058Y-110744711D01*
X65049737Y-110759691D01*
X65038529Y-110776983D01*
X65038527Y-110776988D01*
X65033648Y-110784515D01*
X65031078Y-110793108D01*
X65031076Y-110793113D01*
X65026289Y-110809120D01*
X65019628Y-110826564D01*
X65012533Y-110841676D01*
X65008719Y-110849800D01*
X65007338Y-110858667D01*
X65007338Y-110858668D01*
X65004170Y-110879015D01*
X65000387Y-110895732D01*
X64994485Y-110915466D01*
X64994484Y-110915472D01*
X64991914Y-110924066D01*
X64991859Y-110933037D01*
X64991859Y-110933038D01*
X64991704Y-110958497D01*
X64991671Y-110959289D01*
X64991500Y-110960386D01*
X64991500Y-110991377D01*
X64991498Y-110992147D01*
X64991024Y-111069721D01*
X64991408Y-111071065D01*
X64991500Y-111072410D01*
X64991500Y-123991377D01*
X64991498Y-123992147D01*
X64991024Y-124069721D01*
X60008124Y-124069721D01*
X60008296Y-124041494D01*
X60008329Y-124040711D01*
X60008500Y-124039614D01*
X60008500Y-124008623D01*
X60008502Y-124007853D01*
X60008952Y-123934215D01*
X60008952Y-123934214D01*
X60008976Y-123930279D01*
X60008592Y-123928935D01*
X60008500Y-123927590D01*
X60008500Y-111008623D01*
X60008502Y-111007853D01*
X60008800Y-110959102D01*
X60008976Y-110930279D01*
X60000850Y-110901847D01*
X59997272Y-110885085D01*
X59994352Y-110864698D01*
X59993080Y-110855813D01*
X59982451Y-110832436D01*
X59976004Y-110814913D01*
X59971416Y-110798862D01*
X59968949Y-110790229D01*
X59964156Y-110782632D01*
X59953170Y-110765220D01*
X59945030Y-110750135D01*
X59942564Y-110744711D01*
X59932792Y-110723218D01*
X59916030Y-110703765D01*
X59904927Y-110688761D01*
X59891224Y-110667042D01*
X59884499Y-110661103D01*
X59884496Y-110661099D01*
X59869062Y-110647468D01*
X59857018Y-110635276D01*
X59843573Y-110619673D01*
X59843570Y-110619671D01*
X59837713Y-110612873D01*
X59824009Y-110603990D01*
X59816165Y-110598906D01*
X59801291Y-110587615D01*
X59788783Y-110576569D01*
X59788782Y-110576568D01*
X59782049Y-110570622D01*
X59755287Y-110558057D01*
X59740309Y-110549737D01*
X59723017Y-110538529D01*
X59723012Y-110538527D01*
X59715485Y-110533648D01*
X59706892Y-110531078D01*
X59706887Y-110531076D01*
X59690880Y-110526289D01*
X59673436Y-110519628D01*
X59658324Y-110512533D01*
X59658322Y-110512532D01*
X59650200Y-110508719D01*
X59641333Y-110507338D01*
X59641332Y-110507338D01*
X59630478Y-110505648D01*
X59620983Y-110504170D01*
X59604268Y-110500387D01*
X59584534Y-110494485D01*
X59584528Y-110494484D01*
X59575934Y-110491914D01*
X59566963Y-110491859D01*
X59566962Y-110491859D01*
X59556903Y-110491798D01*
X59541494Y-110491704D01*
X59540711Y-110491671D01*
X59539614Y-110491500D01*
X59508623Y-110491500D01*
X59507853Y-110491498D01*
X59434215Y-110491048D01*
X59434214Y-110491048D01*
X59430279Y-110491024D01*
X59428935Y-110491408D01*
X59427590Y-110491500D01*
X46508623Y-110491500D01*
X46507853Y-110491498D01*
X46507037Y-110491493D01*
X46430279Y-110491024D01*
X46407918Y-110497415D01*
X46401847Y-110499150D01*
X46385085Y-110502728D01*
X46355813Y-110506920D01*
X46347645Y-110510634D01*
X46347644Y-110510634D01*
X46332438Y-110517548D01*
X46314914Y-110523996D01*
X46290229Y-110531051D01*
X46282635Y-110535843D01*
X46282632Y-110535844D01*
X46265220Y-110546830D01*
X46250137Y-110554969D01*
X46223218Y-110567208D01*
X46216416Y-110573069D01*
X46203765Y-110583970D01*
X46188761Y-110595073D01*
X46167042Y-110608776D01*
X46161103Y-110615501D01*
X46161099Y-110615504D01*
X46147468Y-110630938D01*
X46135276Y-110642982D01*
X46119673Y-110656427D01*
X46119671Y-110656430D01*
X46112873Y-110662287D01*
X46107993Y-110669816D01*
X46107992Y-110669817D01*
X46098906Y-110683835D01*
X46087615Y-110698709D01*
X46076569Y-110711217D01*
X46070622Y-110717951D01*
X46064312Y-110731391D01*
X46058058Y-110744711D01*
X46049737Y-110759691D01*
X46038529Y-110776983D01*
X46038527Y-110776988D01*
X46033648Y-110784515D01*
X46031078Y-110793108D01*
X46031076Y-110793113D01*
X46026289Y-110809120D01*
X46019628Y-110826564D01*
X46012533Y-110841676D01*
X46008719Y-110849800D01*
X46007338Y-110858667D01*
X46007338Y-110858668D01*
X46004170Y-110879015D01*
X46000387Y-110895732D01*
X45994485Y-110915466D01*
X45994484Y-110915472D01*
X45991914Y-110924066D01*
X45991859Y-110933037D01*
X45991859Y-110933038D01*
X45991704Y-110958497D01*
X45991671Y-110959289D01*
X45991500Y-110960386D01*
X45991500Y-110991377D01*
X45991498Y-110992147D01*
X45991024Y-111069721D01*
X45991408Y-111071065D01*
X45991500Y-111072410D01*
X45991500Y-123392233D01*
X45971498Y-123460354D01*
X45917842Y-123506847D01*
X45891698Y-123515480D01*
X45817712Y-123531206D01*
X45811682Y-123533891D01*
X45811681Y-123533891D01*
X45649278Y-123606197D01*
X45649276Y-123606198D01*
X45643248Y-123608882D01*
X45488747Y-123721134D01*
X45360960Y-123863056D01*
X45265473Y-124028444D01*
X45206458Y-124210072D01*
X45205768Y-124216633D01*
X45205768Y-124216635D01*
X45190887Y-124358218D01*
X45186496Y-124400000D01*
X24008500Y-124400000D01*
X24008500Y-105069721D01*
X45991024Y-105069721D01*
X45995258Y-105084534D01*
X45999150Y-105098153D01*
X46002728Y-105114915D01*
X46006920Y-105144187D01*
X46017312Y-105167042D01*
X46017548Y-105167562D01*
X46023996Y-105185086D01*
X46031051Y-105209771D01*
X46035843Y-105217365D01*
X46035844Y-105217368D01*
X46046830Y-105234780D01*
X46054969Y-105249863D01*
X46067208Y-105276782D01*
X46073069Y-105283584D01*
X46083970Y-105296235D01*
X46095073Y-105311239D01*
X46108776Y-105332958D01*
X46115501Y-105338897D01*
X46115504Y-105338901D01*
X46130938Y-105352532D01*
X46142982Y-105364724D01*
X46156427Y-105380327D01*
X46156430Y-105380329D01*
X46162287Y-105387127D01*
X46169816Y-105392007D01*
X46169817Y-105392008D01*
X46183835Y-105401094D01*
X46198709Y-105412385D01*
X46209198Y-105421648D01*
X46217951Y-105429378D01*
X46238986Y-105439254D01*
X46244711Y-105441942D01*
X46259691Y-105450263D01*
X46276983Y-105461471D01*
X46276988Y-105461473D01*
X46284515Y-105466352D01*
X46293108Y-105468922D01*
X46293113Y-105468924D01*
X46309120Y-105473711D01*
X46326564Y-105480372D01*
X46341676Y-105487467D01*
X46341678Y-105487468D01*
X46349800Y-105491281D01*
X46358667Y-105492662D01*
X46358668Y-105492662D01*
X46361353Y-105493080D01*
X46379017Y-105495830D01*
X46395732Y-105499613D01*
X46415466Y-105505515D01*
X46415472Y-105505516D01*
X46424066Y-105508086D01*
X46433037Y-105508141D01*
X46433038Y-105508141D01*
X46443097Y-105508202D01*
X46458506Y-105508296D01*
X46459289Y-105508329D01*
X46460386Y-105508500D01*
X46491377Y-105508500D01*
X46492147Y-105508502D01*
X46565785Y-105508952D01*
X46565786Y-105508952D01*
X46569721Y-105508976D01*
X46571065Y-105508592D01*
X46572410Y-105508500D01*
X59491377Y-105508500D01*
X59492148Y-105508502D01*
X59569721Y-105508976D01*
X59598152Y-105500850D01*
X59614915Y-105497272D01*
X59615753Y-105497152D01*
X59644187Y-105493080D01*
X59667564Y-105482451D01*
X59685087Y-105476004D01*
X59709771Y-105468949D01*
X59717365Y-105464157D01*
X59717368Y-105464156D01*
X59734780Y-105453170D01*
X59749865Y-105445030D01*
X59776782Y-105432792D01*
X59796235Y-105416030D01*
X59811239Y-105404927D01*
X59832958Y-105391224D01*
X59838897Y-105384499D01*
X59838901Y-105384496D01*
X59852532Y-105369062D01*
X59864724Y-105357018D01*
X59880327Y-105343573D01*
X59880329Y-105343570D01*
X59887127Y-105337713D01*
X59899848Y-105318088D01*
X59901094Y-105316165D01*
X59912385Y-105301291D01*
X59923431Y-105288783D01*
X59923432Y-105288782D01*
X59929378Y-105282049D01*
X59941943Y-105255287D01*
X59950263Y-105240309D01*
X59961471Y-105223017D01*
X59961473Y-105223012D01*
X59966352Y-105215485D01*
X59968922Y-105206892D01*
X59968924Y-105206887D01*
X59973711Y-105190880D01*
X59980372Y-105173436D01*
X59987467Y-105158324D01*
X59987468Y-105158322D01*
X59991281Y-105150200D01*
X59995830Y-105120983D01*
X59999613Y-105104268D01*
X60005515Y-105084534D01*
X60005516Y-105084528D01*
X60008086Y-105075934D01*
X60008124Y-105069721D01*
X64991024Y-105069721D01*
X64995258Y-105084534D01*
X64999150Y-105098153D01*
X65002728Y-105114915D01*
X65006920Y-105144187D01*
X65017312Y-105167042D01*
X65017548Y-105167562D01*
X65023996Y-105185086D01*
X65031051Y-105209771D01*
X65035843Y-105217365D01*
X65035844Y-105217368D01*
X65046830Y-105234780D01*
X65054969Y-105249863D01*
X65067208Y-105276782D01*
X65073069Y-105283584D01*
X65083970Y-105296235D01*
X65095073Y-105311239D01*
X65108776Y-105332958D01*
X65115501Y-105338897D01*
X65115504Y-105338901D01*
X65130938Y-105352532D01*
X65142982Y-105364724D01*
X65156427Y-105380327D01*
X65156430Y-105380329D01*
X65162287Y-105387127D01*
X65169816Y-105392007D01*
X65169817Y-105392008D01*
X65183835Y-105401094D01*
X65198709Y-105412385D01*
X65209198Y-105421648D01*
X65217951Y-105429378D01*
X65238986Y-105439254D01*
X65244711Y-105441942D01*
X65259691Y-105450263D01*
X65276983Y-105461471D01*
X65276988Y-105461473D01*
X65284515Y-105466352D01*
X65293108Y-105468922D01*
X65293113Y-105468924D01*
X65309120Y-105473711D01*
X65326564Y-105480372D01*
X65341676Y-105487467D01*
X65341678Y-105487468D01*
X65349800Y-105491281D01*
X65358667Y-105492662D01*
X65358668Y-105492662D01*
X65361353Y-105493080D01*
X65379017Y-105495830D01*
X65395732Y-105499613D01*
X65415466Y-105505515D01*
X65415472Y-105505516D01*
X65424066Y-105508086D01*
X65433037Y-105508141D01*
X65433038Y-105508141D01*
X65443097Y-105508202D01*
X65458506Y-105508296D01*
X65459289Y-105508329D01*
X65460386Y-105508500D01*
X65491377Y-105508500D01*
X65492147Y-105508502D01*
X65565785Y-105508952D01*
X65565786Y-105508952D01*
X65569721Y-105508976D01*
X65571065Y-105508592D01*
X65572410Y-105508500D01*
X78491377Y-105508500D01*
X78492148Y-105508502D01*
X78569721Y-105508976D01*
X78598152Y-105500850D01*
X78614915Y-105497272D01*
X78615753Y-105497152D01*
X78644187Y-105493080D01*
X78667564Y-105482451D01*
X78685087Y-105476004D01*
X78709771Y-105468949D01*
X78717365Y-105464157D01*
X78717368Y-105464156D01*
X78734780Y-105453170D01*
X78749865Y-105445030D01*
X78776782Y-105432792D01*
X78796235Y-105416030D01*
X78811239Y-105404927D01*
X78832958Y-105391224D01*
X78838897Y-105384499D01*
X78838901Y-105384496D01*
X78852532Y-105369062D01*
X78864724Y-105357018D01*
X78880327Y-105343573D01*
X78880329Y-105343570D01*
X78887127Y-105337713D01*
X78899848Y-105318088D01*
X78901094Y-105316165D01*
X78912385Y-105301291D01*
X78923431Y-105288783D01*
X78923432Y-105288782D01*
X78929378Y-105282049D01*
X78941943Y-105255287D01*
X78950263Y-105240309D01*
X78961471Y-105223017D01*
X78961473Y-105223012D01*
X78966352Y-105215485D01*
X78968922Y-105206892D01*
X78968924Y-105206887D01*
X78973711Y-105190880D01*
X78980372Y-105173436D01*
X78987467Y-105158324D01*
X78987468Y-105158322D01*
X78991281Y-105150200D01*
X78995830Y-105120983D01*
X78999613Y-105104268D01*
X79005515Y-105084534D01*
X79005516Y-105084528D01*
X79008086Y-105075934D01*
X79008124Y-105069721D01*
X83991024Y-105069721D01*
X83995258Y-105084534D01*
X83999150Y-105098153D01*
X84002728Y-105114915D01*
X84006920Y-105144187D01*
X84017312Y-105167042D01*
X84017548Y-105167562D01*
X84023996Y-105185086D01*
X84031051Y-105209771D01*
X84035843Y-105217365D01*
X84035844Y-105217368D01*
X84046830Y-105234780D01*
X84054969Y-105249863D01*
X84067208Y-105276782D01*
X84073069Y-105283584D01*
X84083970Y-105296235D01*
X84095073Y-105311239D01*
X84108776Y-105332958D01*
X84115501Y-105338897D01*
X84115504Y-105338901D01*
X84130938Y-105352532D01*
X84142982Y-105364724D01*
X84156427Y-105380327D01*
X84156430Y-105380329D01*
X84162287Y-105387127D01*
X84169816Y-105392007D01*
X84169817Y-105392008D01*
X84183835Y-105401094D01*
X84198709Y-105412385D01*
X84209198Y-105421648D01*
X84217951Y-105429378D01*
X84238986Y-105439254D01*
X84244711Y-105441942D01*
X84259691Y-105450263D01*
X84276983Y-105461471D01*
X84276988Y-105461473D01*
X84284515Y-105466352D01*
X84293108Y-105468922D01*
X84293113Y-105468924D01*
X84309120Y-105473711D01*
X84326564Y-105480372D01*
X84341676Y-105487467D01*
X84341678Y-105487468D01*
X84349800Y-105491281D01*
X84358667Y-105492662D01*
X84358668Y-105492662D01*
X84361353Y-105493080D01*
X84379017Y-105495830D01*
X84395732Y-105499613D01*
X84415466Y-105505515D01*
X84415472Y-105505516D01*
X84424066Y-105508086D01*
X84433037Y-105508141D01*
X84433038Y-105508141D01*
X84443097Y-105508202D01*
X84458506Y-105508296D01*
X84459289Y-105508329D01*
X84460386Y-105508500D01*
X84491377Y-105508500D01*
X84492147Y-105508502D01*
X84565785Y-105508952D01*
X84565786Y-105508952D01*
X84569721Y-105508976D01*
X84571065Y-105508592D01*
X84572410Y-105508500D01*
X97491377Y-105508500D01*
X97492148Y-105508502D01*
X97569721Y-105508976D01*
X97598152Y-105500850D01*
X97614915Y-105497272D01*
X97615753Y-105497152D01*
X97644187Y-105493080D01*
X97667564Y-105482451D01*
X97685087Y-105476004D01*
X97709771Y-105468949D01*
X97717365Y-105464157D01*
X97717368Y-105464156D01*
X97734780Y-105453170D01*
X97749865Y-105445030D01*
X97776782Y-105432792D01*
X97796235Y-105416030D01*
X97811239Y-105404927D01*
X97832958Y-105391224D01*
X97838897Y-105384499D01*
X97838901Y-105384496D01*
X97852532Y-105369062D01*
X97864724Y-105357018D01*
X97880327Y-105343573D01*
X97880329Y-105343570D01*
X97887127Y-105337713D01*
X97899848Y-105318088D01*
X97901094Y-105316165D01*
X97912385Y-105301291D01*
X97923431Y-105288783D01*
X97923432Y-105288782D01*
X97929378Y-105282049D01*
X97941943Y-105255287D01*
X97950263Y-105240309D01*
X97961471Y-105223017D01*
X97961473Y-105223012D01*
X97966352Y-105215485D01*
X97968922Y-105206892D01*
X97968924Y-105206887D01*
X97973711Y-105190880D01*
X97980372Y-105173436D01*
X97987467Y-105158324D01*
X97987468Y-105158322D01*
X97991281Y-105150200D01*
X97995830Y-105120983D01*
X97999613Y-105104268D01*
X98005515Y-105084534D01*
X98005516Y-105084528D01*
X98008086Y-105075934D01*
X98008124Y-105069721D01*
X102991024Y-105069721D01*
X102995258Y-105084534D01*
X102999150Y-105098153D01*
X103002728Y-105114915D01*
X103006920Y-105144187D01*
X103017312Y-105167042D01*
X103017548Y-105167562D01*
X103023996Y-105185086D01*
X103031051Y-105209771D01*
X103035843Y-105217365D01*
X103035844Y-105217368D01*
X103046830Y-105234780D01*
X103054969Y-105249863D01*
X103067208Y-105276782D01*
X103073069Y-105283584D01*
X103083970Y-105296235D01*
X103095073Y-105311239D01*
X103108776Y-105332958D01*
X103115501Y-105338897D01*
X103115504Y-105338901D01*
X103130938Y-105352532D01*
X103142982Y-105364724D01*
X103156427Y-105380327D01*
X103156430Y-105380329D01*
X103162287Y-105387127D01*
X103169816Y-105392007D01*
X103169817Y-105392008D01*
X103183835Y-105401094D01*
X103198709Y-105412385D01*
X103209198Y-105421648D01*
X103217951Y-105429378D01*
X103238986Y-105439254D01*
X103244711Y-105441942D01*
X103259691Y-105450263D01*
X103276983Y-105461471D01*
X103276988Y-105461473D01*
X103284515Y-105466352D01*
X103293108Y-105468922D01*
X103293113Y-105468924D01*
X103309120Y-105473711D01*
X103326564Y-105480372D01*
X103341676Y-105487467D01*
X103341678Y-105487468D01*
X103349800Y-105491281D01*
X103358667Y-105492662D01*
X103358668Y-105492662D01*
X103361353Y-105493080D01*
X103379017Y-105495830D01*
X103395732Y-105499613D01*
X103415466Y-105505515D01*
X103415472Y-105505516D01*
X103424066Y-105508086D01*
X103433037Y-105508141D01*
X103433038Y-105508141D01*
X103443097Y-105508202D01*
X103458506Y-105508296D01*
X103459289Y-105508329D01*
X103460386Y-105508500D01*
X103491377Y-105508500D01*
X103492147Y-105508502D01*
X103565785Y-105508952D01*
X103565786Y-105508952D01*
X103569721Y-105508976D01*
X103571065Y-105508592D01*
X103572410Y-105508500D01*
X116491377Y-105508500D01*
X116492148Y-105508502D01*
X116569721Y-105508976D01*
X116598152Y-105500850D01*
X116614915Y-105497272D01*
X116615753Y-105497152D01*
X116644187Y-105493080D01*
X116667564Y-105482451D01*
X116685087Y-105476004D01*
X116709771Y-105468949D01*
X116717365Y-105464157D01*
X116717368Y-105464156D01*
X116734780Y-105453170D01*
X116749865Y-105445030D01*
X116776782Y-105432792D01*
X116796235Y-105416030D01*
X116811239Y-105404927D01*
X116832958Y-105391224D01*
X116838897Y-105384499D01*
X116838901Y-105384496D01*
X116852532Y-105369062D01*
X116864724Y-105357018D01*
X116880327Y-105343573D01*
X116880329Y-105343570D01*
X116887127Y-105337713D01*
X116899848Y-105318088D01*
X116901094Y-105316165D01*
X116912385Y-105301291D01*
X116923431Y-105288783D01*
X116923432Y-105288782D01*
X116929378Y-105282049D01*
X116941943Y-105255287D01*
X116950263Y-105240309D01*
X116961471Y-105223017D01*
X116961473Y-105223012D01*
X116966352Y-105215485D01*
X116968922Y-105206892D01*
X116968924Y-105206887D01*
X116973711Y-105190880D01*
X116980372Y-105173436D01*
X116987467Y-105158324D01*
X116987468Y-105158322D01*
X116991281Y-105150200D01*
X116995830Y-105120983D01*
X116999613Y-105104268D01*
X117005515Y-105084534D01*
X117005516Y-105084528D01*
X117008086Y-105075934D01*
X117008124Y-105069721D01*
X178991024Y-105069721D01*
X178995258Y-105084534D01*
X178999150Y-105098153D01*
X179002728Y-105114915D01*
X179006920Y-105144187D01*
X179017312Y-105167042D01*
X179017548Y-105167562D01*
X179023996Y-105185086D01*
X179031051Y-105209771D01*
X179035843Y-105217365D01*
X179035844Y-105217368D01*
X179046830Y-105234780D01*
X179054969Y-105249863D01*
X179067208Y-105276782D01*
X179073069Y-105283584D01*
X179083970Y-105296235D01*
X179095073Y-105311239D01*
X179108776Y-105332958D01*
X179115501Y-105338897D01*
X179115504Y-105338901D01*
X179130938Y-105352532D01*
X179142982Y-105364724D01*
X179156427Y-105380327D01*
X179156430Y-105380329D01*
X179162287Y-105387127D01*
X179169816Y-105392007D01*
X179169817Y-105392008D01*
X179183835Y-105401094D01*
X179198709Y-105412385D01*
X179209198Y-105421648D01*
X179217951Y-105429378D01*
X179238986Y-105439254D01*
X179244711Y-105441942D01*
X179259691Y-105450263D01*
X179276983Y-105461471D01*
X179276988Y-105461473D01*
X179284515Y-105466352D01*
X179293108Y-105468922D01*
X179293113Y-105468924D01*
X179309120Y-105473711D01*
X179326564Y-105480372D01*
X179341676Y-105487467D01*
X179341678Y-105487468D01*
X179349800Y-105491281D01*
X179358667Y-105492662D01*
X179358668Y-105492662D01*
X179361353Y-105493080D01*
X179379017Y-105495830D01*
X179395732Y-105499613D01*
X179415466Y-105505515D01*
X179415472Y-105505516D01*
X179424066Y-105508086D01*
X179433037Y-105508141D01*
X179433038Y-105508141D01*
X179443097Y-105508202D01*
X179458506Y-105508296D01*
X179459289Y-105508329D01*
X179460386Y-105508500D01*
X179491377Y-105508500D01*
X179492147Y-105508502D01*
X179565785Y-105508952D01*
X179565786Y-105508952D01*
X179569721Y-105508976D01*
X179571065Y-105508592D01*
X179572410Y-105508500D01*
X192491377Y-105508500D01*
X192492148Y-105508502D01*
X192569721Y-105508976D01*
X192598152Y-105500850D01*
X192614915Y-105497272D01*
X192615753Y-105497152D01*
X192644187Y-105493080D01*
X192667564Y-105482451D01*
X192685087Y-105476004D01*
X192709771Y-105468949D01*
X192717365Y-105464157D01*
X192717368Y-105464156D01*
X192734780Y-105453170D01*
X192749865Y-105445030D01*
X192776782Y-105432792D01*
X192796235Y-105416030D01*
X192811239Y-105404927D01*
X192832958Y-105391224D01*
X192838897Y-105384499D01*
X192838901Y-105384496D01*
X192852532Y-105369062D01*
X192864724Y-105357018D01*
X192880327Y-105343573D01*
X192880329Y-105343570D01*
X192887127Y-105337713D01*
X192899848Y-105318088D01*
X192901094Y-105316165D01*
X192912385Y-105301291D01*
X192923431Y-105288783D01*
X192923432Y-105288782D01*
X192929378Y-105282049D01*
X192941943Y-105255287D01*
X192950263Y-105240309D01*
X192961471Y-105223017D01*
X192961473Y-105223012D01*
X192966352Y-105215485D01*
X192968922Y-105206892D01*
X192968924Y-105206887D01*
X192973711Y-105190880D01*
X192980372Y-105173436D01*
X192987467Y-105158324D01*
X192987468Y-105158322D01*
X192991281Y-105150200D01*
X192995830Y-105120983D01*
X192999613Y-105104268D01*
X193005515Y-105084534D01*
X193005516Y-105084528D01*
X193008086Y-105075934D01*
X193008296Y-105041494D01*
X193008329Y-105040711D01*
X193008500Y-105039614D01*
X193008500Y-105008623D01*
X193008502Y-105007853D01*
X193008952Y-104934215D01*
X193008952Y-104934214D01*
X193008976Y-104930279D01*
X193008592Y-104928935D01*
X193008500Y-104927590D01*
X193008500Y-92008623D01*
X193008502Y-92007853D01*
X193008800Y-91959102D01*
X193008976Y-91930279D01*
X193000850Y-91901847D01*
X192997272Y-91885085D01*
X192994352Y-91864698D01*
X192993080Y-91855813D01*
X192982451Y-91832436D01*
X192976004Y-91814913D01*
X192971416Y-91798862D01*
X192968949Y-91790229D01*
X192964156Y-91782632D01*
X192953170Y-91765220D01*
X192945030Y-91750135D01*
X192942564Y-91744711D01*
X192932792Y-91723218D01*
X192916030Y-91703765D01*
X192904927Y-91688761D01*
X192891224Y-91667042D01*
X192884499Y-91661103D01*
X192884496Y-91661099D01*
X192869062Y-91647468D01*
X192857018Y-91635276D01*
X192843573Y-91619673D01*
X192843570Y-91619671D01*
X192837713Y-91612873D01*
X192824009Y-91603990D01*
X192816165Y-91598906D01*
X192801291Y-91587615D01*
X192788783Y-91576569D01*
X192788782Y-91576568D01*
X192782049Y-91570622D01*
X192755287Y-91558057D01*
X192740309Y-91549737D01*
X192723017Y-91538529D01*
X192723012Y-91538527D01*
X192715485Y-91533648D01*
X192706892Y-91531078D01*
X192706887Y-91531076D01*
X192690880Y-91526289D01*
X192673436Y-91519628D01*
X192658324Y-91512533D01*
X192658322Y-91512532D01*
X192650200Y-91508719D01*
X192641333Y-91507338D01*
X192641332Y-91507338D01*
X192630478Y-91505648D01*
X192620983Y-91504170D01*
X192604268Y-91500387D01*
X192584534Y-91494485D01*
X192584528Y-91494484D01*
X192575934Y-91491914D01*
X192566963Y-91491859D01*
X192566962Y-91491859D01*
X192556903Y-91491798D01*
X192541494Y-91491704D01*
X192540711Y-91491671D01*
X192539614Y-91491500D01*
X192508623Y-91491500D01*
X192507853Y-91491498D01*
X192434215Y-91491048D01*
X192434214Y-91491048D01*
X192430279Y-91491024D01*
X192428935Y-91491408D01*
X192427590Y-91491500D01*
X179508623Y-91491500D01*
X179507853Y-91491498D01*
X179507037Y-91491493D01*
X179430279Y-91491024D01*
X179407918Y-91497415D01*
X179401847Y-91499150D01*
X179385085Y-91502728D01*
X179355813Y-91506920D01*
X179347645Y-91510634D01*
X179347644Y-91510634D01*
X179332438Y-91517548D01*
X179314914Y-91523996D01*
X179290229Y-91531051D01*
X179282635Y-91535843D01*
X179282632Y-91535844D01*
X179265220Y-91546830D01*
X179250137Y-91554969D01*
X179223218Y-91567208D01*
X179216416Y-91573069D01*
X179203765Y-91583970D01*
X179188761Y-91595073D01*
X179167042Y-91608776D01*
X179161103Y-91615501D01*
X179161099Y-91615504D01*
X179147468Y-91630938D01*
X179135276Y-91642982D01*
X179119673Y-91656427D01*
X179119671Y-91656430D01*
X179112873Y-91662287D01*
X179107993Y-91669816D01*
X179107992Y-91669817D01*
X179098906Y-91683835D01*
X179087615Y-91698709D01*
X179076569Y-91711217D01*
X179070622Y-91717951D01*
X179064312Y-91731391D01*
X179058058Y-91744711D01*
X179049737Y-91759691D01*
X179038529Y-91776983D01*
X179038527Y-91776988D01*
X179033648Y-91784515D01*
X179031078Y-91793108D01*
X179031076Y-91793113D01*
X179026289Y-91809120D01*
X179019628Y-91826564D01*
X179012533Y-91841676D01*
X179008719Y-91849800D01*
X179007338Y-91858667D01*
X179007338Y-91858668D01*
X179004170Y-91879015D01*
X179000387Y-91895732D01*
X178994485Y-91915466D01*
X178994484Y-91915472D01*
X178991914Y-91924066D01*
X178991859Y-91933037D01*
X178991859Y-91933038D01*
X178991704Y-91958497D01*
X178991671Y-91959289D01*
X178991500Y-91960386D01*
X178991500Y-91991377D01*
X178991498Y-91992147D01*
X178991024Y-92069721D01*
X178991408Y-92071065D01*
X178991500Y-92072410D01*
X178991500Y-104991377D01*
X178991499Y-104991914D01*
X178991024Y-105069721D01*
X117008124Y-105069721D01*
X117008296Y-105041494D01*
X117008329Y-105040711D01*
X117008500Y-105039614D01*
X117008500Y-105008623D01*
X117008502Y-105007853D01*
X117008952Y-104934215D01*
X117008952Y-104934214D01*
X117008976Y-104930279D01*
X117008592Y-104928935D01*
X117008500Y-104927590D01*
X117008500Y-92008623D01*
X117008502Y-92007853D01*
X117008800Y-91959102D01*
X117008976Y-91930279D01*
X117000850Y-91901847D01*
X116997272Y-91885085D01*
X116994352Y-91864698D01*
X116993080Y-91855813D01*
X116982451Y-91832436D01*
X116976004Y-91814913D01*
X116971416Y-91798862D01*
X116968949Y-91790229D01*
X116964156Y-91782632D01*
X116953170Y-91765220D01*
X116945030Y-91750135D01*
X116942564Y-91744711D01*
X116932792Y-91723218D01*
X116916030Y-91703765D01*
X116904927Y-91688761D01*
X116891224Y-91667042D01*
X116884499Y-91661103D01*
X116884496Y-91661099D01*
X116869062Y-91647468D01*
X116857018Y-91635276D01*
X116843573Y-91619673D01*
X116843570Y-91619671D01*
X116837713Y-91612873D01*
X116824009Y-91603990D01*
X116816165Y-91598906D01*
X116801291Y-91587615D01*
X116788783Y-91576569D01*
X116788782Y-91576568D01*
X116782049Y-91570622D01*
X116755287Y-91558057D01*
X116740309Y-91549737D01*
X116723017Y-91538529D01*
X116723012Y-91538527D01*
X116715485Y-91533648D01*
X116706892Y-91531078D01*
X116706887Y-91531076D01*
X116690880Y-91526289D01*
X116673436Y-91519628D01*
X116658324Y-91512533D01*
X116658322Y-91512532D01*
X116650200Y-91508719D01*
X116641333Y-91507338D01*
X116641332Y-91507338D01*
X116630478Y-91505648D01*
X116620983Y-91504170D01*
X116604268Y-91500387D01*
X116584534Y-91494485D01*
X116584528Y-91494484D01*
X116575934Y-91491914D01*
X116566963Y-91491859D01*
X116566962Y-91491859D01*
X116556903Y-91491798D01*
X116541494Y-91491704D01*
X116540711Y-91491671D01*
X116539614Y-91491500D01*
X116508623Y-91491500D01*
X116507853Y-91491498D01*
X116434215Y-91491048D01*
X116434214Y-91491048D01*
X116430279Y-91491024D01*
X116428935Y-91491408D01*
X116427590Y-91491500D01*
X103508623Y-91491500D01*
X103507853Y-91491498D01*
X103507037Y-91491493D01*
X103430279Y-91491024D01*
X103407918Y-91497415D01*
X103401847Y-91499150D01*
X103385085Y-91502728D01*
X103355813Y-91506920D01*
X103347645Y-91510634D01*
X103347644Y-91510634D01*
X103332438Y-91517548D01*
X103314914Y-91523996D01*
X103290229Y-91531051D01*
X103282635Y-91535843D01*
X103282632Y-91535844D01*
X103265220Y-91546830D01*
X103250137Y-91554969D01*
X103223218Y-91567208D01*
X103216416Y-91573069D01*
X103203765Y-91583970D01*
X103188761Y-91595073D01*
X103167042Y-91608776D01*
X103161103Y-91615501D01*
X103161099Y-91615504D01*
X103147468Y-91630938D01*
X103135276Y-91642982D01*
X103119673Y-91656427D01*
X103119671Y-91656430D01*
X103112873Y-91662287D01*
X103107993Y-91669816D01*
X103107992Y-91669817D01*
X103098906Y-91683835D01*
X103087615Y-91698709D01*
X103076569Y-91711217D01*
X103070622Y-91717951D01*
X103064312Y-91731391D01*
X103058058Y-91744711D01*
X103049737Y-91759691D01*
X103038529Y-91776983D01*
X103038527Y-91776988D01*
X103033648Y-91784515D01*
X103031078Y-91793108D01*
X103031076Y-91793113D01*
X103026289Y-91809120D01*
X103019628Y-91826564D01*
X103012533Y-91841676D01*
X103008719Y-91849800D01*
X103007338Y-91858667D01*
X103007338Y-91858668D01*
X103004170Y-91879015D01*
X103000387Y-91895732D01*
X102994485Y-91915466D01*
X102994484Y-91915472D01*
X102991914Y-91924066D01*
X102991859Y-91933037D01*
X102991859Y-91933038D01*
X102991704Y-91958497D01*
X102991671Y-91959289D01*
X102991500Y-91960386D01*
X102991500Y-91991377D01*
X102991498Y-91992147D01*
X102991024Y-92069721D01*
X102991408Y-92071065D01*
X102991500Y-92072410D01*
X102991500Y-104991377D01*
X102991499Y-104991914D01*
X102991024Y-105069721D01*
X98008124Y-105069721D01*
X98008296Y-105041494D01*
X98008329Y-105040711D01*
X98008500Y-105039614D01*
X98008500Y-105008623D01*
X98008502Y-105007853D01*
X98008952Y-104934215D01*
X98008952Y-104934214D01*
X98008976Y-104930279D01*
X98008592Y-104928935D01*
X98008500Y-104927590D01*
X98008500Y-92008623D01*
X98008502Y-92007853D01*
X98008800Y-91959102D01*
X98008976Y-91930279D01*
X98000850Y-91901847D01*
X97997272Y-91885085D01*
X97994352Y-91864698D01*
X97993080Y-91855813D01*
X97982451Y-91832436D01*
X97976004Y-91814913D01*
X97971416Y-91798862D01*
X97968949Y-91790229D01*
X97964156Y-91782632D01*
X97953170Y-91765220D01*
X97945030Y-91750135D01*
X97942564Y-91744711D01*
X97932792Y-91723218D01*
X97916030Y-91703765D01*
X97904927Y-91688761D01*
X97891224Y-91667042D01*
X97884499Y-91661103D01*
X97884496Y-91661099D01*
X97869062Y-91647468D01*
X97857018Y-91635276D01*
X97843573Y-91619673D01*
X97843570Y-91619671D01*
X97837713Y-91612873D01*
X97824009Y-91603990D01*
X97816165Y-91598906D01*
X97801291Y-91587615D01*
X97788783Y-91576569D01*
X97788782Y-91576568D01*
X97782049Y-91570622D01*
X97755287Y-91558057D01*
X97740309Y-91549737D01*
X97723017Y-91538529D01*
X97723012Y-91538527D01*
X97715485Y-91533648D01*
X97706892Y-91531078D01*
X97706887Y-91531076D01*
X97690880Y-91526289D01*
X97673436Y-91519628D01*
X97658324Y-91512533D01*
X97658322Y-91512532D01*
X97650200Y-91508719D01*
X97641333Y-91507338D01*
X97641332Y-91507338D01*
X97630478Y-91505648D01*
X97620983Y-91504170D01*
X97604268Y-91500387D01*
X97584534Y-91494485D01*
X97584528Y-91494484D01*
X97575934Y-91491914D01*
X97566963Y-91491859D01*
X97566962Y-91491859D01*
X97556903Y-91491798D01*
X97541494Y-91491704D01*
X97540711Y-91491671D01*
X97539614Y-91491500D01*
X97508623Y-91491500D01*
X97507853Y-91491498D01*
X97434215Y-91491048D01*
X97434214Y-91491048D01*
X97430279Y-91491024D01*
X97428935Y-91491408D01*
X97427590Y-91491500D01*
X84508623Y-91491500D01*
X84507853Y-91491498D01*
X84507037Y-91491493D01*
X84430279Y-91491024D01*
X84407918Y-91497415D01*
X84401847Y-91499150D01*
X84385085Y-91502728D01*
X84355813Y-91506920D01*
X84347645Y-91510634D01*
X84347644Y-91510634D01*
X84332438Y-91517548D01*
X84314914Y-91523996D01*
X84290229Y-91531051D01*
X84282635Y-91535843D01*
X84282632Y-91535844D01*
X84265220Y-91546830D01*
X84250137Y-91554969D01*
X84223218Y-91567208D01*
X84216416Y-91573069D01*
X84203765Y-91583970D01*
X84188761Y-91595073D01*
X84167042Y-91608776D01*
X84161103Y-91615501D01*
X84161099Y-91615504D01*
X84147468Y-91630938D01*
X84135276Y-91642982D01*
X84119673Y-91656427D01*
X84119671Y-91656430D01*
X84112873Y-91662287D01*
X84107993Y-91669816D01*
X84107992Y-91669817D01*
X84098906Y-91683835D01*
X84087615Y-91698709D01*
X84076569Y-91711217D01*
X84070622Y-91717951D01*
X84064312Y-91731391D01*
X84058058Y-91744711D01*
X84049737Y-91759691D01*
X84038529Y-91776983D01*
X84038527Y-91776988D01*
X84033648Y-91784515D01*
X84031078Y-91793108D01*
X84031076Y-91793113D01*
X84026289Y-91809120D01*
X84019628Y-91826564D01*
X84012533Y-91841676D01*
X84008719Y-91849800D01*
X84007338Y-91858667D01*
X84007338Y-91858668D01*
X84004170Y-91879015D01*
X84000387Y-91895732D01*
X83994485Y-91915466D01*
X83994484Y-91915472D01*
X83991914Y-91924066D01*
X83991859Y-91933037D01*
X83991859Y-91933038D01*
X83991704Y-91958497D01*
X83991671Y-91959289D01*
X83991500Y-91960386D01*
X83991500Y-91991377D01*
X83991498Y-91992147D01*
X83991024Y-92069721D01*
X83991408Y-92071065D01*
X83991500Y-92072410D01*
X83991500Y-104991377D01*
X83991499Y-104991914D01*
X83991024Y-105069721D01*
X79008124Y-105069721D01*
X79008296Y-105041494D01*
X79008329Y-105040711D01*
X79008500Y-105039614D01*
X79008500Y-105008623D01*
X79008502Y-105007853D01*
X79008952Y-104934215D01*
X79008952Y-104934214D01*
X79008976Y-104930279D01*
X79008592Y-104928935D01*
X79008500Y-104927590D01*
X79008500Y-92008623D01*
X79008502Y-92007853D01*
X79008800Y-91959102D01*
X79008976Y-91930279D01*
X79000850Y-91901847D01*
X78997272Y-91885085D01*
X78994352Y-91864698D01*
X78993080Y-91855813D01*
X78982451Y-91832436D01*
X78976004Y-91814913D01*
X78971416Y-91798862D01*
X78968949Y-91790229D01*
X78964156Y-91782632D01*
X78953170Y-91765220D01*
X78945030Y-91750135D01*
X78942564Y-91744711D01*
X78932792Y-91723218D01*
X78916030Y-91703765D01*
X78904927Y-91688761D01*
X78891224Y-91667042D01*
X78884499Y-91661103D01*
X78884496Y-91661099D01*
X78869062Y-91647468D01*
X78857018Y-91635276D01*
X78843573Y-91619673D01*
X78843570Y-91619671D01*
X78837713Y-91612873D01*
X78824009Y-91603990D01*
X78816165Y-91598906D01*
X78801291Y-91587615D01*
X78788783Y-91576569D01*
X78788782Y-91576568D01*
X78782049Y-91570622D01*
X78755287Y-91558057D01*
X78740309Y-91549737D01*
X78723017Y-91538529D01*
X78723012Y-91538527D01*
X78715485Y-91533648D01*
X78706892Y-91531078D01*
X78706887Y-91531076D01*
X78690880Y-91526289D01*
X78673436Y-91519628D01*
X78658324Y-91512533D01*
X78658322Y-91512532D01*
X78650200Y-91508719D01*
X78641333Y-91507338D01*
X78641332Y-91507338D01*
X78630478Y-91505648D01*
X78620983Y-91504170D01*
X78604268Y-91500387D01*
X78584534Y-91494485D01*
X78584528Y-91494484D01*
X78575934Y-91491914D01*
X78566963Y-91491859D01*
X78566962Y-91491859D01*
X78556903Y-91491798D01*
X78541494Y-91491704D01*
X78540711Y-91491671D01*
X78539614Y-91491500D01*
X78508623Y-91491500D01*
X78507853Y-91491498D01*
X78434215Y-91491048D01*
X78434214Y-91491048D01*
X78430279Y-91491024D01*
X78428935Y-91491408D01*
X78427590Y-91491500D01*
X65508623Y-91491500D01*
X65507853Y-91491498D01*
X65507037Y-91491493D01*
X65430279Y-91491024D01*
X65407918Y-91497415D01*
X65401847Y-91499150D01*
X65385085Y-91502728D01*
X65355813Y-91506920D01*
X65347645Y-91510634D01*
X65347644Y-91510634D01*
X65332438Y-91517548D01*
X65314914Y-91523996D01*
X65290229Y-91531051D01*
X65282635Y-91535843D01*
X65282632Y-91535844D01*
X65265220Y-91546830D01*
X65250137Y-91554969D01*
X65223218Y-91567208D01*
X65216416Y-91573069D01*
X65203765Y-91583970D01*
X65188761Y-91595073D01*
X65167042Y-91608776D01*
X65161103Y-91615501D01*
X65161099Y-91615504D01*
X65147468Y-91630938D01*
X65135276Y-91642982D01*
X65119673Y-91656427D01*
X65119671Y-91656430D01*
X65112873Y-91662287D01*
X65107993Y-91669816D01*
X65107992Y-91669817D01*
X65098906Y-91683835D01*
X65087615Y-91698709D01*
X65076569Y-91711217D01*
X65070622Y-91717951D01*
X65064312Y-91731391D01*
X65058058Y-91744711D01*
X65049737Y-91759691D01*
X65038529Y-91776983D01*
X65038527Y-91776988D01*
X65033648Y-91784515D01*
X65031078Y-91793108D01*
X65031076Y-91793113D01*
X65026289Y-91809120D01*
X65019628Y-91826564D01*
X65012533Y-91841676D01*
X65008719Y-91849800D01*
X65007338Y-91858667D01*
X65007338Y-91858668D01*
X65004170Y-91879015D01*
X65000387Y-91895732D01*
X64994485Y-91915466D01*
X64994484Y-91915472D01*
X64991914Y-91924066D01*
X64991859Y-91933037D01*
X64991859Y-91933038D01*
X64991704Y-91958497D01*
X64991671Y-91959289D01*
X64991500Y-91960386D01*
X64991500Y-91991377D01*
X64991498Y-91992147D01*
X64991024Y-92069721D01*
X64991408Y-92071065D01*
X64991500Y-92072410D01*
X64991500Y-104991377D01*
X64991499Y-104991914D01*
X64991024Y-105069721D01*
X60008124Y-105069721D01*
X60008296Y-105041494D01*
X60008329Y-105040711D01*
X60008500Y-105039614D01*
X60008500Y-105008623D01*
X60008502Y-105007853D01*
X60008952Y-104934215D01*
X60008952Y-104934214D01*
X60008976Y-104930279D01*
X60008592Y-104928935D01*
X60008500Y-104927590D01*
X60008500Y-92008623D01*
X60008502Y-92007853D01*
X60008800Y-91959102D01*
X60008976Y-91930279D01*
X60000850Y-91901847D01*
X59997272Y-91885085D01*
X59994352Y-91864698D01*
X59993080Y-91855813D01*
X59982451Y-91832436D01*
X59976004Y-91814913D01*
X59971416Y-91798862D01*
X59968949Y-91790229D01*
X59964156Y-91782632D01*
X59953170Y-91765220D01*
X59945030Y-91750135D01*
X59942564Y-91744711D01*
X59932792Y-91723218D01*
X59916030Y-91703765D01*
X59904927Y-91688761D01*
X59891224Y-91667042D01*
X59884499Y-91661103D01*
X59884496Y-91661099D01*
X59869062Y-91647468D01*
X59857018Y-91635276D01*
X59843573Y-91619673D01*
X59843570Y-91619671D01*
X59837713Y-91612873D01*
X59824009Y-91603990D01*
X59816165Y-91598906D01*
X59801291Y-91587615D01*
X59788783Y-91576569D01*
X59788782Y-91576568D01*
X59782049Y-91570622D01*
X59755287Y-91558057D01*
X59740309Y-91549737D01*
X59723017Y-91538529D01*
X59723012Y-91538527D01*
X59715485Y-91533648D01*
X59706892Y-91531078D01*
X59706887Y-91531076D01*
X59690880Y-91526289D01*
X59673436Y-91519628D01*
X59658324Y-91512533D01*
X59658322Y-91512532D01*
X59650200Y-91508719D01*
X59641333Y-91507338D01*
X59641332Y-91507338D01*
X59630478Y-91505648D01*
X59620983Y-91504170D01*
X59604268Y-91500387D01*
X59584534Y-91494485D01*
X59584528Y-91494484D01*
X59575934Y-91491914D01*
X59566963Y-91491859D01*
X59566962Y-91491859D01*
X59556903Y-91491798D01*
X59541494Y-91491704D01*
X59540711Y-91491671D01*
X59539614Y-91491500D01*
X59508623Y-91491500D01*
X59507853Y-91491498D01*
X59434215Y-91491048D01*
X59434214Y-91491048D01*
X59430279Y-91491024D01*
X59428935Y-91491408D01*
X59427590Y-91491500D01*
X46508623Y-91491500D01*
X46507853Y-91491498D01*
X46507037Y-91491493D01*
X46430279Y-91491024D01*
X46407918Y-91497415D01*
X46401847Y-91499150D01*
X46385085Y-91502728D01*
X46355813Y-91506920D01*
X46347645Y-91510634D01*
X46347644Y-91510634D01*
X46332438Y-91517548D01*
X46314914Y-91523996D01*
X46290229Y-91531051D01*
X46282635Y-91535843D01*
X46282632Y-91535844D01*
X46265220Y-91546830D01*
X46250137Y-91554969D01*
X46223218Y-91567208D01*
X46216416Y-91573069D01*
X46203765Y-91583970D01*
X46188761Y-91595073D01*
X46167042Y-91608776D01*
X46161103Y-91615501D01*
X46161099Y-91615504D01*
X46147468Y-91630938D01*
X46135276Y-91642982D01*
X46119673Y-91656427D01*
X46119671Y-91656430D01*
X46112873Y-91662287D01*
X46107993Y-91669816D01*
X46107992Y-91669817D01*
X46098906Y-91683835D01*
X46087615Y-91698709D01*
X46076569Y-91711217D01*
X46070622Y-91717951D01*
X46064312Y-91731391D01*
X46058058Y-91744711D01*
X46049737Y-91759691D01*
X46038529Y-91776983D01*
X46038527Y-91776988D01*
X46033648Y-91784515D01*
X46031078Y-91793108D01*
X46031076Y-91793113D01*
X46026289Y-91809120D01*
X46019628Y-91826564D01*
X46012533Y-91841676D01*
X46008719Y-91849800D01*
X46007338Y-91858667D01*
X46007338Y-91858668D01*
X46004170Y-91879015D01*
X46000387Y-91895732D01*
X45994485Y-91915466D01*
X45994484Y-91915472D01*
X45991914Y-91924066D01*
X45991859Y-91933037D01*
X45991859Y-91933038D01*
X45991704Y-91958497D01*
X45991671Y-91959289D01*
X45991500Y-91960386D01*
X45991500Y-91991377D01*
X45991498Y-91992147D01*
X45991024Y-92069721D01*
X45991408Y-92071065D01*
X45991500Y-92072410D01*
X45991500Y-104991377D01*
X45991499Y-104991914D01*
X45991024Y-105069721D01*
X24008500Y-105069721D01*
X24008500Y-86069721D01*
X45991024Y-86069721D01*
X45993491Y-86078352D01*
X45999150Y-86098153D01*
X46002728Y-86114915D01*
X46006920Y-86144187D01*
X46010634Y-86152355D01*
X46010634Y-86152356D01*
X46017548Y-86167562D01*
X46023996Y-86185086D01*
X46031051Y-86209771D01*
X46035843Y-86217365D01*
X46035844Y-86217368D01*
X46046830Y-86234780D01*
X46054969Y-86249863D01*
X46067208Y-86276782D01*
X46073069Y-86283584D01*
X46083970Y-86296235D01*
X46095073Y-86311239D01*
X46108776Y-86332958D01*
X46115501Y-86338897D01*
X46115504Y-86338901D01*
X46130938Y-86352532D01*
X46142982Y-86364724D01*
X46156427Y-86380327D01*
X46156430Y-86380329D01*
X46162287Y-86387127D01*
X46169816Y-86392007D01*
X46169817Y-86392008D01*
X46183835Y-86401094D01*
X46198709Y-86412385D01*
X46211217Y-86423431D01*
X46217951Y-86429378D01*
X46244711Y-86441942D01*
X46259691Y-86450263D01*
X46276983Y-86461471D01*
X46276988Y-86461473D01*
X46284515Y-86466352D01*
X46293108Y-86468922D01*
X46293113Y-86468924D01*
X46309120Y-86473711D01*
X46326564Y-86480372D01*
X46341676Y-86487467D01*
X46341678Y-86487468D01*
X46349800Y-86491281D01*
X46358667Y-86492662D01*
X46358668Y-86492662D01*
X46361353Y-86493080D01*
X46379017Y-86495830D01*
X46395732Y-86499613D01*
X46415466Y-86505515D01*
X46415472Y-86505516D01*
X46424066Y-86508086D01*
X46433037Y-86508141D01*
X46433038Y-86508141D01*
X46443097Y-86508202D01*
X46458506Y-86508296D01*
X46459289Y-86508329D01*
X46460386Y-86508500D01*
X46491377Y-86508500D01*
X46492147Y-86508502D01*
X46565785Y-86508952D01*
X46565786Y-86508952D01*
X46569721Y-86508976D01*
X46571065Y-86508592D01*
X46572410Y-86508500D01*
X59491377Y-86508500D01*
X59492148Y-86508502D01*
X59569721Y-86508976D01*
X59598152Y-86500850D01*
X59614915Y-86497272D01*
X59615753Y-86497152D01*
X59644187Y-86493080D01*
X59667564Y-86482451D01*
X59685087Y-86476004D01*
X59709771Y-86468949D01*
X59717365Y-86464157D01*
X59717368Y-86464156D01*
X59734780Y-86453170D01*
X59749865Y-86445030D01*
X59776782Y-86432792D01*
X59796235Y-86416030D01*
X59811239Y-86404927D01*
X59832958Y-86391224D01*
X59838897Y-86384499D01*
X59838901Y-86384496D01*
X59852532Y-86369062D01*
X59864724Y-86357018D01*
X59880327Y-86343573D01*
X59880329Y-86343570D01*
X59887127Y-86337713D01*
X59901094Y-86316165D01*
X59912385Y-86301291D01*
X59923431Y-86288783D01*
X59923432Y-86288782D01*
X59929378Y-86282049D01*
X59941943Y-86255287D01*
X59950263Y-86240309D01*
X59961471Y-86223017D01*
X59961473Y-86223012D01*
X59966352Y-86215485D01*
X59968922Y-86206892D01*
X59968924Y-86206887D01*
X59973711Y-86190880D01*
X59980372Y-86173436D01*
X59987467Y-86158324D01*
X59987468Y-86158322D01*
X59991281Y-86150200D01*
X59995830Y-86120983D01*
X59999613Y-86104268D01*
X60005515Y-86084534D01*
X60005516Y-86084528D01*
X60008086Y-86075934D01*
X60008124Y-86069721D01*
X64991024Y-86069721D01*
X64993491Y-86078352D01*
X64999150Y-86098153D01*
X65002728Y-86114915D01*
X65006920Y-86144187D01*
X65010634Y-86152355D01*
X65010634Y-86152356D01*
X65017548Y-86167562D01*
X65023996Y-86185086D01*
X65031051Y-86209771D01*
X65035843Y-86217365D01*
X65035844Y-86217368D01*
X65046830Y-86234780D01*
X65054969Y-86249863D01*
X65067208Y-86276782D01*
X65073069Y-86283584D01*
X65083970Y-86296235D01*
X65095073Y-86311239D01*
X65108776Y-86332958D01*
X65115501Y-86338897D01*
X65115504Y-86338901D01*
X65130938Y-86352532D01*
X65142982Y-86364724D01*
X65156427Y-86380327D01*
X65156430Y-86380329D01*
X65162287Y-86387127D01*
X65169816Y-86392007D01*
X65169817Y-86392008D01*
X65183835Y-86401094D01*
X65198709Y-86412385D01*
X65211217Y-86423431D01*
X65217951Y-86429378D01*
X65244711Y-86441942D01*
X65259691Y-86450263D01*
X65276983Y-86461471D01*
X65276988Y-86461473D01*
X65284515Y-86466352D01*
X65293108Y-86468922D01*
X65293113Y-86468924D01*
X65309120Y-86473711D01*
X65326564Y-86480372D01*
X65341676Y-86487467D01*
X65341678Y-86487468D01*
X65349800Y-86491281D01*
X65358667Y-86492662D01*
X65358668Y-86492662D01*
X65361353Y-86493080D01*
X65379017Y-86495830D01*
X65395732Y-86499613D01*
X65415466Y-86505515D01*
X65415472Y-86505516D01*
X65424066Y-86508086D01*
X65433037Y-86508141D01*
X65433038Y-86508141D01*
X65443097Y-86508202D01*
X65458506Y-86508296D01*
X65459289Y-86508329D01*
X65460386Y-86508500D01*
X65491377Y-86508500D01*
X65492147Y-86508502D01*
X65565785Y-86508952D01*
X65565786Y-86508952D01*
X65569721Y-86508976D01*
X65571065Y-86508592D01*
X65572410Y-86508500D01*
X78491377Y-86508500D01*
X78492148Y-86508502D01*
X78569721Y-86508976D01*
X78598152Y-86500850D01*
X78614915Y-86497272D01*
X78615753Y-86497152D01*
X78644187Y-86493080D01*
X78667564Y-86482451D01*
X78685087Y-86476004D01*
X78709771Y-86468949D01*
X78717365Y-86464157D01*
X78717368Y-86464156D01*
X78734780Y-86453170D01*
X78749865Y-86445030D01*
X78776782Y-86432792D01*
X78796235Y-86416030D01*
X78811239Y-86404927D01*
X78832958Y-86391224D01*
X78838897Y-86384499D01*
X78838901Y-86384496D01*
X78852532Y-86369062D01*
X78864724Y-86357018D01*
X78880327Y-86343573D01*
X78880329Y-86343570D01*
X78887127Y-86337713D01*
X78901094Y-86316165D01*
X78912385Y-86301291D01*
X78923431Y-86288783D01*
X78923432Y-86288782D01*
X78929378Y-86282049D01*
X78941943Y-86255287D01*
X78950263Y-86240309D01*
X78961471Y-86223017D01*
X78961473Y-86223012D01*
X78966352Y-86215485D01*
X78968922Y-86206892D01*
X78968924Y-86206887D01*
X78973711Y-86190880D01*
X78980372Y-86173436D01*
X78987467Y-86158324D01*
X78987468Y-86158322D01*
X78991281Y-86150200D01*
X78995830Y-86120983D01*
X78999613Y-86104268D01*
X79005515Y-86084534D01*
X79005516Y-86084528D01*
X79008086Y-86075934D01*
X79008124Y-86069721D01*
X83991024Y-86069721D01*
X83993491Y-86078352D01*
X83999150Y-86098153D01*
X84002728Y-86114915D01*
X84006920Y-86144187D01*
X84010634Y-86152355D01*
X84010634Y-86152356D01*
X84017548Y-86167562D01*
X84023996Y-86185086D01*
X84031051Y-86209771D01*
X84035843Y-86217365D01*
X84035844Y-86217368D01*
X84046830Y-86234780D01*
X84054969Y-86249863D01*
X84067208Y-86276782D01*
X84073069Y-86283584D01*
X84083970Y-86296235D01*
X84095073Y-86311239D01*
X84108776Y-86332958D01*
X84115501Y-86338897D01*
X84115504Y-86338901D01*
X84130938Y-86352532D01*
X84142982Y-86364724D01*
X84156427Y-86380327D01*
X84156430Y-86380329D01*
X84162287Y-86387127D01*
X84169816Y-86392007D01*
X84169817Y-86392008D01*
X84183835Y-86401094D01*
X84198709Y-86412385D01*
X84211217Y-86423431D01*
X84217951Y-86429378D01*
X84244711Y-86441942D01*
X84259691Y-86450263D01*
X84276983Y-86461471D01*
X84276988Y-86461473D01*
X84284515Y-86466352D01*
X84293108Y-86468922D01*
X84293113Y-86468924D01*
X84309120Y-86473711D01*
X84326564Y-86480372D01*
X84341676Y-86487467D01*
X84341678Y-86487468D01*
X84349800Y-86491281D01*
X84358667Y-86492662D01*
X84358668Y-86492662D01*
X84361353Y-86493080D01*
X84379017Y-86495830D01*
X84395732Y-86499613D01*
X84415466Y-86505515D01*
X84415472Y-86505516D01*
X84424066Y-86508086D01*
X84433037Y-86508141D01*
X84433038Y-86508141D01*
X84443097Y-86508202D01*
X84458506Y-86508296D01*
X84459289Y-86508329D01*
X84460386Y-86508500D01*
X84491377Y-86508500D01*
X84492147Y-86508502D01*
X84565785Y-86508952D01*
X84565786Y-86508952D01*
X84569721Y-86508976D01*
X84571065Y-86508592D01*
X84572410Y-86508500D01*
X97491377Y-86508500D01*
X97492148Y-86508502D01*
X97569721Y-86508976D01*
X97598152Y-86500850D01*
X97614915Y-86497272D01*
X97615753Y-86497152D01*
X97644187Y-86493080D01*
X97667564Y-86482451D01*
X97685087Y-86476004D01*
X97709771Y-86468949D01*
X97717365Y-86464157D01*
X97717368Y-86464156D01*
X97734780Y-86453170D01*
X97749865Y-86445030D01*
X97776782Y-86432792D01*
X97796235Y-86416030D01*
X97811239Y-86404927D01*
X97832958Y-86391224D01*
X97838897Y-86384499D01*
X97838901Y-86384496D01*
X97852532Y-86369062D01*
X97864724Y-86357018D01*
X97880327Y-86343573D01*
X97880329Y-86343570D01*
X97887127Y-86337713D01*
X97901094Y-86316165D01*
X97912385Y-86301291D01*
X97923431Y-86288783D01*
X97923432Y-86288782D01*
X97929378Y-86282049D01*
X97941943Y-86255287D01*
X97950263Y-86240309D01*
X97961471Y-86223017D01*
X97961473Y-86223012D01*
X97966352Y-86215485D01*
X97968922Y-86206892D01*
X97968924Y-86206887D01*
X97973711Y-86190880D01*
X97980372Y-86173436D01*
X97987467Y-86158324D01*
X97987468Y-86158322D01*
X97991281Y-86150200D01*
X97995830Y-86120983D01*
X97999613Y-86104268D01*
X98005515Y-86084534D01*
X98005516Y-86084528D01*
X98008086Y-86075934D01*
X98008124Y-86069721D01*
X102991024Y-86069721D01*
X102993491Y-86078352D01*
X102999150Y-86098153D01*
X103002728Y-86114915D01*
X103006920Y-86144187D01*
X103010634Y-86152355D01*
X103010634Y-86152356D01*
X103017548Y-86167562D01*
X103023996Y-86185086D01*
X103031051Y-86209771D01*
X103035843Y-86217365D01*
X103035844Y-86217368D01*
X103046830Y-86234780D01*
X103054969Y-86249863D01*
X103067208Y-86276782D01*
X103073069Y-86283584D01*
X103083970Y-86296235D01*
X103095073Y-86311239D01*
X103108776Y-86332958D01*
X103115501Y-86338897D01*
X103115504Y-86338901D01*
X103130938Y-86352532D01*
X103142982Y-86364724D01*
X103156427Y-86380327D01*
X103156430Y-86380329D01*
X103162287Y-86387127D01*
X103169816Y-86392007D01*
X103169817Y-86392008D01*
X103183835Y-86401094D01*
X103198709Y-86412385D01*
X103211217Y-86423431D01*
X103217951Y-86429378D01*
X103244711Y-86441942D01*
X103259691Y-86450263D01*
X103276983Y-86461471D01*
X103276988Y-86461473D01*
X103284515Y-86466352D01*
X103293108Y-86468922D01*
X103293113Y-86468924D01*
X103309120Y-86473711D01*
X103326564Y-86480372D01*
X103341676Y-86487467D01*
X103341678Y-86487468D01*
X103349800Y-86491281D01*
X103358667Y-86492662D01*
X103358668Y-86492662D01*
X103361353Y-86493080D01*
X103379017Y-86495830D01*
X103395732Y-86499613D01*
X103415466Y-86505515D01*
X103415472Y-86505516D01*
X103424066Y-86508086D01*
X103433037Y-86508141D01*
X103433038Y-86508141D01*
X103443097Y-86508202D01*
X103458506Y-86508296D01*
X103459289Y-86508329D01*
X103460386Y-86508500D01*
X103491377Y-86508500D01*
X103492147Y-86508502D01*
X103565785Y-86508952D01*
X103565786Y-86508952D01*
X103569721Y-86508976D01*
X103571065Y-86508592D01*
X103572410Y-86508500D01*
X116491377Y-86508500D01*
X116492148Y-86508502D01*
X116569721Y-86508976D01*
X116598152Y-86500850D01*
X116614915Y-86497272D01*
X116615753Y-86497152D01*
X116644187Y-86493080D01*
X116667564Y-86482451D01*
X116685087Y-86476004D01*
X116709771Y-86468949D01*
X116717365Y-86464157D01*
X116717368Y-86464156D01*
X116734780Y-86453170D01*
X116749865Y-86445030D01*
X116776782Y-86432792D01*
X116796235Y-86416030D01*
X116811239Y-86404927D01*
X116832958Y-86391224D01*
X116838897Y-86384499D01*
X116838901Y-86384496D01*
X116852532Y-86369062D01*
X116864724Y-86357018D01*
X116880327Y-86343573D01*
X116880329Y-86343570D01*
X116887127Y-86337713D01*
X116901094Y-86316165D01*
X116912385Y-86301291D01*
X116923431Y-86288783D01*
X116923432Y-86288782D01*
X116929378Y-86282049D01*
X116941943Y-86255287D01*
X116950263Y-86240309D01*
X116961471Y-86223017D01*
X116961473Y-86223012D01*
X116966352Y-86215485D01*
X116968922Y-86206892D01*
X116968924Y-86206887D01*
X116973711Y-86190880D01*
X116980372Y-86173436D01*
X116987467Y-86158324D01*
X116987468Y-86158322D01*
X116991281Y-86150200D01*
X116995830Y-86120983D01*
X116999613Y-86104268D01*
X117005515Y-86084534D01*
X117005516Y-86084528D01*
X117008086Y-86075934D01*
X117008124Y-86069721D01*
X159991024Y-86069721D01*
X159993491Y-86078352D01*
X159999150Y-86098153D01*
X160002728Y-86114915D01*
X160006920Y-86144187D01*
X160010634Y-86152355D01*
X160010634Y-86152356D01*
X160017548Y-86167562D01*
X160023996Y-86185086D01*
X160031051Y-86209771D01*
X160035843Y-86217365D01*
X160035844Y-86217368D01*
X160046830Y-86234780D01*
X160054969Y-86249863D01*
X160067208Y-86276782D01*
X160073069Y-86283584D01*
X160083970Y-86296235D01*
X160095073Y-86311239D01*
X160108776Y-86332958D01*
X160115501Y-86338897D01*
X160115504Y-86338901D01*
X160130938Y-86352532D01*
X160142982Y-86364724D01*
X160156427Y-86380327D01*
X160156430Y-86380329D01*
X160162287Y-86387127D01*
X160169816Y-86392007D01*
X160169817Y-86392008D01*
X160183835Y-86401094D01*
X160198709Y-86412385D01*
X160211217Y-86423431D01*
X160217951Y-86429378D01*
X160244711Y-86441942D01*
X160259691Y-86450263D01*
X160276983Y-86461471D01*
X160276988Y-86461473D01*
X160284515Y-86466352D01*
X160293108Y-86468922D01*
X160293113Y-86468924D01*
X160309120Y-86473711D01*
X160326564Y-86480372D01*
X160341676Y-86487467D01*
X160341678Y-86487468D01*
X160349800Y-86491281D01*
X160358667Y-86492662D01*
X160358668Y-86492662D01*
X160361353Y-86493080D01*
X160379017Y-86495830D01*
X160395732Y-86499613D01*
X160415466Y-86505515D01*
X160415472Y-86505516D01*
X160424066Y-86508086D01*
X160433037Y-86508141D01*
X160433038Y-86508141D01*
X160443097Y-86508202D01*
X160458506Y-86508296D01*
X160459289Y-86508329D01*
X160460386Y-86508500D01*
X160491377Y-86508500D01*
X160492147Y-86508502D01*
X160565785Y-86508952D01*
X160565786Y-86508952D01*
X160569721Y-86508976D01*
X160571065Y-86508592D01*
X160572410Y-86508500D01*
X173491377Y-86508500D01*
X173492148Y-86508502D01*
X173569721Y-86508976D01*
X173598152Y-86500850D01*
X173614915Y-86497272D01*
X173615753Y-86497152D01*
X173644187Y-86493080D01*
X173667564Y-86482451D01*
X173685087Y-86476004D01*
X173709771Y-86468949D01*
X173717365Y-86464157D01*
X173717368Y-86464156D01*
X173734780Y-86453170D01*
X173749865Y-86445030D01*
X173776782Y-86432792D01*
X173796235Y-86416030D01*
X173811239Y-86404927D01*
X173832958Y-86391224D01*
X173838897Y-86384499D01*
X173838901Y-86384496D01*
X173852532Y-86369062D01*
X173864724Y-86357018D01*
X173880327Y-86343573D01*
X173880329Y-86343570D01*
X173887127Y-86337713D01*
X173901094Y-86316165D01*
X173912385Y-86301291D01*
X173923431Y-86288783D01*
X173923432Y-86288782D01*
X173929378Y-86282049D01*
X173941943Y-86255287D01*
X173950263Y-86240309D01*
X173961471Y-86223017D01*
X173961473Y-86223012D01*
X173966352Y-86215485D01*
X173968922Y-86206892D01*
X173968924Y-86206887D01*
X173973711Y-86190880D01*
X173980372Y-86173436D01*
X173987467Y-86158324D01*
X173987468Y-86158322D01*
X173991281Y-86150200D01*
X173995830Y-86120983D01*
X173999613Y-86104268D01*
X174005515Y-86084534D01*
X174005516Y-86084528D01*
X174008086Y-86075934D01*
X174008124Y-86069721D01*
X178991024Y-86069721D01*
X178993491Y-86078352D01*
X178999150Y-86098153D01*
X179002728Y-86114915D01*
X179006920Y-86144187D01*
X179010634Y-86152355D01*
X179010634Y-86152356D01*
X179017548Y-86167562D01*
X179023996Y-86185086D01*
X179031051Y-86209771D01*
X179035843Y-86217365D01*
X179035844Y-86217368D01*
X179046830Y-86234780D01*
X179054969Y-86249863D01*
X179067208Y-86276782D01*
X179073069Y-86283584D01*
X179083970Y-86296235D01*
X179095073Y-86311239D01*
X179108776Y-86332958D01*
X179115501Y-86338897D01*
X179115504Y-86338901D01*
X179130938Y-86352532D01*
X179142982Y-86364724D01*
X179156427Y-86380327D01*
X179156430Y-86380329D01*
X179162287Y-86387127D01*
X179169816Y-86392007D01*
X179169817Y-86392008D01*
X179183835Y-86401094D01*
X179198709Y-86412385D01*
X179211217Y-86423431D01*
X179217951Y-86429378D01*
X179244711Y-86441942D01*
X179259691Y-86450263D01*
X179276983Y-86461471D01*
X179276988Y-86461473D01*
X179284515Y-86466352D01*
X179293108Y-86468922D01*
X179293113Y-86468924D01*
X179309120Y-86473711D01*
X179326564Y-86480372D01*
X179341676Y-86487467D01*
X179341678Y-86487468D01*
X179349800Y-86491281D01*
X179358667Y-86492662D01*
X179358668Y-86492662D01*
X179361353Y-86493080D01*
X179379017Y-86495830D01*
X179395732Y-86499613D01*
X179415466Y-86505515D01*
X179415472Y-86505516D01*
X179424066Y-86508086D01*
X179433037Y-86508141D01*
X179433038Y-86508141D01*
X179443097Y-86508202D01*
X179458506Y-86508296D01*
X179459289Y-86508329D01*
X179460386Y-86508500D01*
X179491377Y-86508500D01*
X179492147Y-86508502D01*
X179565785Y-86508952D01*
X179565786Y-86508952D01*
X179569721Y-86508976D01*
X179571065Y-86508592D01*
X179572410Y-86508500D01*
X192491377Y-86508500D01*
X192492148Y-86508502D01*
X192569721Y-86508976D01*
X192598152Y-86500850D01*
X192614915Y-86497272D01*
X192615753Y-86497152D01*
X192644187Y-86493080D01*
X192667564Y-86482451D01*
X192685087Y-86476004D01*
X192709771Y-86468949D01*
X192717365Y-86464157D01*
X192717368Y-86464156D01*
X192734780Y-86453170D01*
X192749865Y-86445030D01*
X192776782Y-86432792D01*
X192796235Y-86416030D01*
X192811239Y-86404927D01*
X192832958Y-86391224D01*
X192838897Y-86384499D01*
X192838901Y-86384496D01*
X192852532Y-86369062D01*
X192864724Y-86357018D01*
X192880327Y-86343573D01*
X192880329Y-86343570D01*
X192887127Y-86337713D01*
X192901094Y-86316165D01*
X192912385Y-86301291D01*
X192923431Y-86288783D01*
X192923432Y-86288782D01*
X192929378Y-86282049D01*
X192941943Y-86255287D01*
X192950263Y-86240309D01*
X192961471Y-86223017D01*
X192961473Y-86223012D01*
X192966352Y-86215485D01*
X192968922Y-86206892D01*
X192968924Y-86206887D01*
X192973711Y-86190880D01*
X192980372Y-86173436D01*
X192987467Y-86158324D01*
X192987468Y-86158322D01*
X192991281Y-86150200D01*
X192995830Y-86120983D01*
X192999613Y-86104268D01*
X193005515Y-86084534D01*
X193005516Y-86084528D01*
X193008086Y-86075934D01*
X193008124Y-86069721D01*
X197991024Y-86069721D01*
X197993491Y-86078352D01*
X197999150Y-86098153D01*
X198002728Y-86114915D01*
X198006920Y-86144187D01*
X198010634Y-86152355D01*
X198010634Y-86152356D01*
X198017548Y-86167562D01*
X198023996Y-86185086D01*
X198031051Y-86209771D01*
X198035843Y-86217365D01*
X198035844Y-86217368D01*
X198046830Y-86234780D01*
X198054969Y-86249863D01*
X198067208Y-86276782D01*
X198073069Y-86283584D01*
X198083970Y-86296235D01*
X198095073Y-86311239D01*
X198108776Y-86332958D01*
X198115501Y-86338897D01*
X198115504Y-86338901D01*
X198130938Y-86352532D01*
X198142982Y-86364724D01*
X198156427Y-86380327D01*
X198156430Y-86380329D01*
X198162287Y-86387127D01*
X198169816Y-86392007D01*
X198169817Y-86392008D01*
X198183835Y-86401094D01*
X198198709Y-86412385D01*
X198211217Y-86423431D01*
X198217951Y-86429378D01*
X198244711Y-86441942D01*
X198259691Y-86450263D01*
X198276983Y-86461471D01*
X198276988Y-86461473D01*
X198284515Y-86466352D01*
X198293108Y-86468922D01*
X198293113Y-86468924D01*
X198309120Y-86473711D01*
X198326564Y-86480372D01*
X198341676Y-86487467D01*
X198341678Y-86487468D01*
X198349800Y-86491281D01*
X198358667Y-86492662D01*
X198358668Y-86492662D01*
X198361353Y-86493080D01*
X198379017Y-86495830D01*
X198395732Y-86499613D01*
X198415466Y-86505515D01*
X198415472Y-86505516D01*
X198424066Y-86508086D01*
X198433037Y-86508141D01*
X198433038Y-86508141D01*
X198443097Y-86508202D01*
X198458506Y-86508296D01*
X198459289Y-86508329D01*
X198460386Y-86508500D01*
X198491377Y-86508500D01*
X198492147Y-86508502D01*
X198565785Y-86508952D01*
X198565786Y-86508952D01*
X198569721Y-86508976D01*
X198571065Y-86508592D01*
X198572410Y-86508500D01*
X211491377Y-86508500D01*
X211492148Y-86508502D01*
X211569721Y-86508976D01*
X211598152Y-86500850D01*
X211614915Y-86497272D01*
X211615753Y-86497152D01*
X211644187Y-86493080D01*
X211667564Y-86482451D01*
X211685087Y-86476004D01*
X211709771Y-86468949D01*
X211717365Y-86464157D01*
X211717368Y-86464156D01*
X211734780Y-86453170D01*
X211749865Y-86445030D01*
X211776782Y-86432792D01*
X211796235Y-86416030D01*
X211811239Y-86404927D01*
X211832958Y-86391224D01*
X211838897Y-86384499D01*
X211838901Y-86384496D01*
X211852532Y-86369062D01*
X211864724Y-86357018D01*
X211880327Y-86343573D01*
X211880329Y-86343570D01*
X211887127Y-86337713D01*
X211901094Y-86316165D01*
X211912385Y-86301291D01*
X211923431Y-86288783D01*
X211923432Y-86288782D01*
X211929378Y-86282049D01*
X211941943Y-86255287D01*
X211950263Y-86240309D01*
X211961471Y-86223017D01*
X211961473Y-86223012D01*
X211966352Y-86215485D01*
X211968922Y-86206892D01*
X211968924Y-86206887D01*
X211973711Y-86190880D01*
X211980372Y-86173436D01*
X211987467Y-86158324D01*
X211987468Y-86158322D01*
X211991281Y-86150200D01*
X211995830Y-86120983D01*
X211999613Y-86104268D01*
X212005515Y-86084534D01*
X212005516Y-86084528D01*
X212008086Y-86075934D01*
X212008296Y-86041494D01*
X212008329Y-86040711D01*
X212008500Y-86039614D01*
X212008500Y-86008623D01*
X212008502Y-86007853D01*
X212008952Y-85934215D01*
X212008952Y-85934214D01*
X212008976Y-85930279D01*
X212008592Y-85928935D01*
X212008500Y-85927590D01*
X212008500Y-73008623D01*
X212008502Y-73007853D01*
X212008800Y-72959102D01*
X212008976Y-72930279D01*
X212000850Y-72901847D01*
X211997272Y-72885085D01*
X211994352Y-72864698D01*
X211993080Y-72855813D01*
X211982451Y-72832436D01*
X211976004Y-72814913D01*
X211971416Y-72798862D01*
X211968949Y-72790229D01*
X211964156Y-72782632D01*
X211953170Y-72765220D01*
X211945030Y-72750135D01*
X211942564Y-72744711D01*
X211932792Y-72723218D01*
X211916030Y-72703765D01*
X211904927Y-72688761D01*
X211891224Y-72667042D01*
X211884499Y-72661103D01*
X211884496Y-72661099D01*
X211869062Y-72647468D01*
X211857018Y-72635276D01*
X211843573Y-72619673D01*
X211843570Y-72619671D01*
X211837713Y-72612873D01*
X211824009Y-72603990D01*
X211816165Y-72598906D01*
X211801291Y-72587615D01*
X211788783Y-72576569D01*
X211788782Y-72576568D01*
X211782049Y-72570622D01*
X211755287Y-72558057D01*
X211740309Y-72549737D01*
X211723017Y-72538529D01*
X211723012Y-72538527D01*
X211715485Y-72533648D01*
X211706892Y-72531078D01*
X211706887Y-72531076D01*
X211690880Y-72526289D01*
X211673436Y-72519628D01*
X211658324Y-72512533D01*
X211658322Y-72512532D01*
X211650200Y-72508719D01*
X211641333Y-72507338D01*
X211641332Y-72507338D01*
X211630478Y-72505648D01*
X211620983Y-72504170D01*
X211604268Y-72500387D01*
X211584534Y-72494485D01*
X211584528Y-72494484D01*
X211575934Y-72491914D01*
X211566963Y-72491859D01*
X211566962Y-72491859D01*
X211556903Y-72491798D01*
X211541494Y-72491704D01*
X211540711Y-72491671D01*
X211539614Y-72491500D01*
X211508623Y-72491500D01*
X211507853Y-72491498D01*
X211434215Y-72491048D01*
X211434214Y-72491048D01*
X211430279Y-72491024D01*
X211428935Y-72491408D01*
X211427590Y-72491500D01*
X198508623Y-72491500D01*
X198507853Y-72491498D01*
X198507037Y-72491493D01*
X198430279Y-72491024D01*
X198407918Y-72497415D01*
X198401847Y-72499150D01*
X198385085Y-72502728D01*
X198355813Y-72506920D01*
X198347645Y-72510634D01*
X198347644Y-72510634D01*
X198332438Y-72517548D01*
X198314914Y-72523996D01*
X198290229Y-72531051D01*
X198282635Y-72535843D01*
X198282632Y-72535844D01*
X198265220Y-72546830D01*
X198250137Y-72554969D01*
X198223218Y-72567208D01*
X198216416Y-72573069D01*
X198203765Y-72583970D01*
X198188761Y-72595073D01*
X198167042Y-72608776D01*
X198161103Y-72615501D01*
X198161099Y-72615504D01*
X198147468Y-72630938D01*
X198135276Y-72642982D01*
X198119673Y-72656427D01*
X198119671Y-72656430D01*
X198112873Y-72662287D01*
X198107993Y-72669816D01*
X198107992Y-72669817D01*
X198098906Y-72683835D01*
X198087615Y-72698709D01*
X198076569Y-72711217D01*
X198070622Y-72717951D01*
X198064312Y-72731391D01*
X198058058Y-72744711D01*
X198049737Y-72759691D01*
X198038529Y-72776983D01*
X198038527Y-72776988D01*
X198033648Y-72784515D01*
X198031078Y-72793108D01*
X198031076Y-72793113D01*
X198026289Y-72809120D01*
X198019628Y-72826564D01*
X198012533Y-72841676D01*
X198008719Y-72849800D01*
X198007338Y-72858667D01*
X198007338Y-72858668D01*
X198004170Y-72879015D01*
X198000387Y-72895732D01*
X197994485Y-72915466D01*
X197994484Y-72915472D01*
X197991914Y-72924066D01*
X197991859Y-72933037D01*
X197991859Y-72933038D01*
X197991704Y-72958497D01*
X197991671Y-72959289D01*
X197991500Y-72960386D01*
X197991500Y-72991377D01*
X197991498Y-72992147D01*
X197991024Y-73069721D01*
X197991408Y-73071065D01*
X197991500Y-73072410D01*
X197991500Y-85991377D01*
X197991498Y-85992147D01*
X197991024Y-86069721D01*
X193008124Y-86069721D01*
X193008296Y-86041494D01*
X193008329Y-86040711D01*
X193008500Y-86039614D01*
X193008500Y-86008623D01*
X193008502Y-86007853D01*
X193008952Y-85934215D01*
X193008952Y-85934214D01*
X193008976Y-85930279D01*
X193008592Y-85928935D01*
X193008500Y-85927590D01*
X193008500Y-73008623D01*
X193008502Y-73007853D01*
X193008800Y-72959102D01*
X193008976Y-72930279D01*
X193000850Y-72901847D01*
X192997272Y-72885085D01*
X192994352Y-72864698D01*
X192993080Y-72855813D01*
X192982451Y-72832436D01*
X192976004Y-72814913D01*
X192971416Y-72798862D01*
X192968949Y-72790229D01*
X192964156Y-72782632D01*
X192953170Y-72765220D01*
X192945030Y-72750135D01*
X192942564Y-72744711D01*
X192932792Y-72723218D01*
X192916030Y-72703765D01*
X192904927Y-72688761D01*
X192891224Y-72667042D01*
X192884499Y-72661103D01*
X192884496Y-72661099D01*
X192869062Y-72647468D01*
X192857018Y-72635276D01*
X192843573Y-72619673D01*
X192843570Y-72619671D01*
X192837713Y-72612873D01*
X192824009Y-72603990D01*
X192816165Y-72598906D01*
X192801291Y-72587615D01*
X192788783Y-72576569D01*
X192788782Y-72576568D01*
X192782049Y-72570622D01*
X192755287Y-72558057D01*
X192740309Y-72549737D01*
X192723017Y-72538529D01*
X192723012Y-72538527D01*
X192715485Y-72533648D01*
X192706892Y-72531078D01*
X192706887Y-72531076D01*
X192690880Y-72526289D01*
X192673436Y-72519628D01*
X192658324Y-72512533D01*
X192658322Y-72512532D01*
X192650200Y-72508719D01*
X192641333Y-72507338D01*
X192641332Y-72507338D01*
X192630478Y-72505648D01*
X192620983Y-72504170D01*
X192604268Y-72500387D01*
X192584534Y-72494485D01*
X192584528Y-72494484D01*
X192575934Y-72491914D01*
X192566963Y-72491859D01*
X192566962Y-72491859D01*
X192556903Y-72491798D01*
X192541494Y-72491704D01*
X192540711Y-72491671D01*
X192539614Y-72491500D01*
X192508623Y-72491500D01*
X192507853Y-72491498D01*
X192434215Y-72491048D01*
X192434214Y-72491048D01*
X192430279Y-72491024D01*
X192428935Y-72491408D01*
X192427590Y-72491500D01*
X179508623Y-72491500D01*
X179507853Y-72491498D01*
X179507037Y-72491493D01*
X179430279Y-72491024D01*
X179407918Y-72497415D01*
X179401847Y-72499150D01*
X179385085Y-72502728D01*
X179355813Y-72506920D01*
X179347645Y-72510634D01*
X179347644Y-72510634D01*
X179332438Y-72517548D01*
X179314914Y-72523996D01*
X179290229Y-72531051D01*
X179282635Y-72535843D01*
X179282632Y-72535844D01*
X179265220Y-72546830D01*
X179250137Y-72554969D01*
X179223218Y-72567208D01*
X179216416Y-72573069D01*
X179203765Y-72583970D01*
X179188761Y-72595073D01*
X179167042Y-72608776D01*
X179161103Y-72615501D01*
X179161099Y-72615504D01*
X179147468Y-72630938D01*
X179135276Y-72642982D01*
X179119673Y-72656427D01*
X179119671Y-72656430D01*
X179112873Y-72662287D01*
X179107993Y-72669816D01*
X179107992Y-72669817D01*
X179098906Y-72683835D01*
X179087615Y-72698709D01*
X179076569Y-72711217D01*
X179070622Y-72717951D01*
X179064312Y-72731391D01*
X179058058Y-72744711D01*
X179049737Y-72759691D01*
X179038529Y-72776983D01*
X179038527Y-72776988D01*
X179033648Y-72784515D01*
X179031078Y-72793108D01*
X179031076Y-72793113D01*
X179026289Y-72809120D01*
X179019628Y-72826564D01*
X179012533Y-72841676D01*
X179008719Y-72849800D01*
X179007338Y-72858667D01*
X179007338Y-72858668D01*
X179004170Y-72879015D01*
X179000387Y-72895732D01*
X178994485Y-72915466D01*
X178994484Y-72915472D01*
X178991914Y-72924066D01*
X178991859Y-72933037D01*
X178991859Y-72933038D01*
X178991704Y-72958497D01*
X178991671Y-72959289D01*
X178991500Y-72960386D01*
X178991500Y-72991377D01*
X178991498Y-72992147D01*
X178991024Y-73069721D01*
X178991408Y-73071065D01*
X178991500Y-73072410D01*
X178991500Y-85991377D01*
X178991498Y-85992147D01*
X178991024Y-86069721D01*
X174008124Y-86069721D01*
X174008296Y-86041494D01*
X174008329Y-86040711D01*
X174008500Y-86039614D01*
X174008500Y-86008623D01*
X174008502Y-86007853D01*
X174008952Y-85934215D01*
X174008952Y-85934214D01*
X174008976Y-85930279D01*
X174008592Y-85928935D01*
X174008500Y-85927590D01*
X174008500Y-73008623D01*
X174008502Y-73007853D01*
X174008800Y-72959102D01*
X174008976Y-72930279D01*
X174000850Y-72901847D01*
X173997272Y-72885085D01*
X173994352Y-72864698D01*
X173993080Y-72855813D01*
X173982451Y-72832436D01*
X173976004Y-72814913D01*
X173971416Y-72798862D01*
X173968949Y-72790229D01*
X173964156Y-72782632D01*
X173953170Y-72765220D01*
X173945030Y-72750135D01*
X173942564Y-72744711D01*
X173932792Y-72723218D01*
X173916030Y-72703765D01*
X173904927Y-72688761D01*
X173891224Y-72667042D01*
X173884499Y-72661103D01*
X173884496Y-72661099D01*
X173869062Y-72647468D01*
X173857018Y-72635276D01*
X173843573Y-72619673D01*
X173843570Y-72619671D01*
X173837713Y-72612873D01*
X173824009Y-72603990D01*
X173816165Y-72598906D01*
X173801291Y-72587615D01*
X173788783Y-72576569D01*
X173788782Y-72576568D01*
X173782049Y-72570622D01*
X173755287Y-72558057D01*
X173740309Y-72549737D01*
X173723017Y-72538529D01*
X173723012Y-72538527D01*
X173715485Y-72533648D01*
X173706892Y-72531078D01*
X173706887Y-72531076D01*
X173690880Y-72526289D01*
X173673436Y-72519628D01*
X173658324Y-72512533D01*
X173658322Y-72512532D01*
X173650200Y-72508719D01*
X173641333Y-72507338D01*
X173641332Y-72507338D01*
X173630478Y-72505648D01*
X173620983Y-72504170D01*
X173604268Y-72500387D01*
X173584534Y-72494485D01*
X173584528Y-72494484D01*
X173575934Y-72491914D01*
X173566963Y-72491859D01*
X173566962Y-72491859D01*
X173556903Y-72491798D01*
X173541494Y-72491704D01*
X173540711Y-72491671D01*
X173539614Y-72491500D01*
X173508623Y-72491500D01*
X173507853Y-72491498D01*
X173434215Y-72491048D01*
X173434214Y-72491048D01*
X173430279Y-72491024D01*
X173428935Y-72491408D01*
X173427590Y-72491500D01*
X160508623Y-72491500D01*
X160507853Y-72491498D01*
X160507037Y-72491493D01*
X160430279Y-72491024D01*
X160407918Y-72497415D01*
X160401847Y-72499150D01*
X160385085Y-72502728D01*
X160355813Y-72506920D01*
X160347645Y-72510634D01*
X160347644Y-72510634D01*
X160332438Y-72517548D01*
X160314914Y-72523996D01*
X160290229Y-72531051D01*
X160282635Y-72535843D01*
X160282632Y-72535844D01*
X160265220Y-72546830D01*
X160250137Y-72554969D01*
X160223218Y-72567208D01*
X160216416Y-72573069D01*
X160203765Y-72583970D01*
X160188761Y-72595073D01*
X160167042Y-72608776D01*
X160161103Y-72615501D01*
X160161099Y-72615504D01*
X160147468Y-72630938D01*
X160135276Y-72642982D01*
X160119673Y-72656427D01*
X160119671Y-72656430D01*
X160112873Y-72662287D01*
X160107993Y-72669816D01*
X160107992Y-72669817D01*
X160098906Y-72683835D01*
X160087615Y-72698709D01*
X160076569Y-72711217D01*
X160070622Y-72717951D01*
X160064312Y-72731391D01*
X160058058Y-72744711D01*
X160049737Y-72759691D01*
X160038529Y-72776983D01*
X160038527Y-72776988D01*
X160033648Y-72784515D01*
X160031078Y-72793108D01*
X160031076Y-72793113D01*
X160026289Y-72809120D01*
X160019628Y-72826564D01*
X160012533Y-72841676D01*
X160008719Y-72849800D01*
X160007338Y-72858667D01*
X160007338Y-72858668D01*
X160004170Y-72879015D01*
X160000387Y-72895732D01*
X159994485Y-72915466D01*
X159994484Y-72915472D01*
X159991914Y-72924066D01*
X159991859Y-72933037D01*
X159991859Y-72933038D01*
X159991704Y-72958497D01*
X159991671Y-72959289D01*
X159991500Y-72960386D01*
X159991500Y-72991377D01*
X159991498Y-72992147D01*
X159991024Y-73069721D01*
X159991408Y-73071065D01*
X159991500Y-73072410D01*
X159991500Y-85991377D01*
X159991498Y-85992147D01*
X159991024Y-86069721D01*
X117008124Y-86069721D01*
X117008296Y-86041494D01*
X117008329Y-86040711D01*
X117008500Y-86039614D01*
X117008500Y-86008623D01*
X117008502Y-86007853D01*
X117008952Y-85934215D01*
X117008952Y-85934214D01*
X117008976Y-85930279D01*
X117008592Y-85928935D01*
X117008500Y-85927590D01*
X117008500Y-73008623D01*
X117008502Y-73007853D01*
X117008800Y-72959102D01*
X117008976Y-72930279D01*
X117000850Y-72901847D01*
X116997272Y-72885085D01*
X116994352Y-72864698D01*
X116993080Y-72855813D01*
X116982451Y-72832436D01*
X116976004Y-72814913D01*
X116971416Y-72798862D01*
X116968949Y-72790229D01*
X116964156Y-72782632D01*
X116953170Y-72765220D01*
X116945030Y-72750135D01*
X116942564Y-72744711D01*
X116932792Y-72723218D01*
X116916030Y-72703765D01*
X116904927Y-72688761D01*
X116891224Y-72667042D01*
X116884499Y-72661103D01*
X116884496Y-72661099D01*
X116869062Y-72647468D01*
X116857018Y-72635276D01*
X116843573Y-72619673D01*
X116843570Y-72619671D01*
X116837713Y-72612873D01*
X116824009Y-72603990D01*
X116816165Y-72598906D01*
X116801291Y-72587615D01*
X116788783Y-72576569D01*
X116788782Y-72576568D01*
X116782049Y-72570622D01*
X116755287Y-72558057D01*
X116740309Y-72549737D01*
X116723017Y-72538529D01*
X116723012Y-72538527D01*
X116715485Y-72533648D01*
X116706892Y-72531078D01*
X116706887Y-72531076D01*
X116690880Y-72526289D01*
X116673436Y-72519628D01*
X116658324Y-72512533D01*
X116658322Y-72512532D01*
X116650200Y-72508719D01*
X116641333Y-72507338D01*
X116641332Y-72507338D01*
X116630478Y-72505648D01*
X116620983Y-72504170D01*
X116604268Y-72500387D01*
X116584534Y-72494485D01*
X116584528Y-72494484D01*
X116575934Y-72491914D01*
X116566963Y-72491859D01*
X116566962Y-72491859D01*
X116556903Y-72491798D01*
X116541494Y-72491704D01*
X116540711Y-72491671D01*
X116539614Y-72491500D01*
X116508623Y-72491500D01*
X116507853Y-72491498D01*
X116434215Y-72491048D01*
X116434214Y-72491048D01*
X116430279Y-72491024D01*
X116428935Y-72491408D01*
X116427590Y-72491500D01*
X103508623Y-72491500D01*
X103507853Y-72491498D01*
X103507037Y-72491493D01*
X103430279Y-72491024D01*
X103407918Y-72497415D01*
X103401847Y-72499150D01*
X103385085Y-72502728D01*
X103355813Y-72506920D01*
X103347645Y-72510634D01*
X103347644Y-72510634D01*
X103332438Y-72517548D01*
X103314914Y-72523996D01*
X103290229Y-72531051D01*
X103282635Y-72535843D01*
X103282632Y-72535844D01*
X103265220Y-72546830D01*
X103250137Y-72554969D01*
X103223218Y-72567208D01*
X103216416Y-72573069D01*
X103203765Y-72583970D01*
X103188761Y-72595073D01*
X103167042Y-72608776D01*
X103161103Y-72615501D01*
X103161099Y-72615504D01*
X103147468Y-72630938D01*
X103135276Y-72642982D01*
X103119673Y-72656427D01*
X103119671Y-72656430D01*
X103112873Y-72662287D01*
X103107993Y-72669816D01*
X103107992Y-72669817D01*
X103098906Y-72683835D01*
X103087615Y-72698709D01*
X103076569Y-72711217D01*
X103070622Y-72717951D01*
X103064312Y-72731391D01*
X103058058Y-72744711D01*
X103049737Y-72759691D01*
X103038529Y-72776983D01*
X103038527Y-72776988D01*
X103033648Y-72784515D01*
X103031078Y-72793108D01*
X103031076Y-72793113D01*
X103026289Y-72809120D01*
X103019628Y-72826564D01*
X103012533Y-72841676D01*
X103008719Y-72849800D01*
X103007338Y-72858667D01*
X103007338Y-72858668D01*
X103004170Y-72879015D01*
X103000387Y-72895732D01*
X102994485Y-72915466D01*
X102994484Y-72915472D01*
X102991914Y-72924066D01*
X102991859Y-72933037D01*
X102991859Y-72933038D01*
X102991704Y-72958497D01*
X102991671Y-72959289D01*
X102991500Y-72960386D01*
X102991500Y-72991377D01*
X102991498Y-72992147D01*
X102991024Y-73069721D01*
X102991408Y-73071065D01*
X102991500Y-73072410D01*
X102991500Y-85991377D01*
X102991498Y-85992147D01*
X102991024Y-86069721D01*
X98008124Y-86069721D01*
X98008296Y-86041494D01*
X98008329Y-86040711D01*
X98008500Y-86039614D01*
X98008500Y-86008623D01*
X98008502Y-86007853D01*
X98008952Y-85934215D01*
X98008952Y-85934214D01*
X98008976Y-85930279D01*
X98008592Y-85928935D01*
X98008500Y-85927590D01*
X98008500Y-73008623D01*
X98008502Y-73007853D01*
X98008800Y-72959102D01*
X98008976Y-72930279D01*
X98000850Y-72901847D01*
X97997272Y-72885085D01*
X97994352Y-72864698D01*
X97993080Y-72855813D01*
X97982451Y-72832436D01*
X97976004Y-72814913D01*
X97971416Y-72798862D01*
X97968949Y-72790229D01*
X97964156Y-72782632D01*
X97953170Y-72765220D01*
X97945030Y-72750135D01*
X97942564Y-72744711D01*
X97932792Y-72723218D01*
X97916030Y-72703765D01*
X97904927Y-72688761D01*
X97891224Y-72667042D01*
X97884499Y-72661103D01*
X97884496Y-72661099D01*
X97869062Y-72647468D01*
X97857018Y-72635276D01*
X97843573Y-72619673D01*
X97843570Y-72619671D01*
X97837713Y-72612873D01*
X97824009Y-72603990D01*
X97816165Y-72598906D01*
X97801291Y-72587615D01*
X97788783Y-72576569D01*
X97788782Y-72576568D01*
X97782049Y-72570622D01*
X97755287Y-72558057D01*
X97740309Y-72549737D01*
X97723017Y-72538529D01*
X97723012Y-72538527D01*
X97715485Y-72533648D01*
X97706892Y-72531078D01*
X97706887Y-72531076D01*
X97690880Y-72526289D01*
X97673436Y-72519628D01*
X97658324Y-72512533D01*
X97658322Y-72512532D01*
X97650200Y-72508719D01*
X97641333Y-72507338D01*
X97641332Y-72507338D01*
X97630478Y-72505648D01*
X97620983Y-72504170D01*
X97604268Y-72500387D01*
X97584534Y-72494485D01*
X97584528Y-72494484D01*
X97575934Y-72491914D01*
X97566963Y-72491859D01*
X97566962Y-72491859D01*
X97556903Y-72491798D01*
X97541494Y-72491704D01*
X97540711Y-72491671D01*
X97539614Y-72491500D01*
X97508623Y-72491500D01*
X97507853Y-72491498D01*
X97434215Y-72491048D01*
X97434214Y-72491048D01*
X97430279Y-72491024D01*
X97428935Y-72491408D01*
X97427590Y-72491500D01*
X84508623Y-72491500D01*
X84507853Y-72491498D01*
X84507037Y-72491493D01*
X84430279Y-72491024D01*
X84407918Y-72497415D01*
X84401847Y-72499150D01*
X84385085Y-72502728D01*
X84355813Y-72506920D01*
X84347645Y-72510634D01*
X84347644Y-72510634D01*
X84332438Y-72517548D01*
X84314914Y-72523996D01*
X84290229Y-72531051D01*
X84282635Y-72535843D01*
X84282632Y-72535844D01*
X84265220Y-72546830D01*
X84250137Y-72554969D01*
X84223218Y-72567208D01*
X84216416Y-72573069D01*
X84203765Y-72583970D01*
X84188761Y-72595073D01*
X84167042Y-72608776D01*
X84161103Y-72615501D01*
X84161099Y-72615504D01*
X84147468Y-72630938D01*
X84135276Y-72642982D01*
X84119673Y-72656427D01*
X84119671Y-72656430D01*
X84112873Y-72662287D01*
X84107993Y-72669816D01*
X84107992Y-72669817D01*
X84098906Y-72683835D01*
X84087615Y-72698709D01*
X84076569Y-72711217D01*
X84070622Y-72717951D01*
X84064312Y-72731391D01*
X84058058Y-72744711D01*
X84049737Y-72759691D01*
X84038529Y-72776983D01*
X84038527Y-72776988D01*
X84033648Y-72784515D01*
X84031078Y-72793108D01*
X84031076Y-72793113D01*
X84026289Y-72809120D01*
X84019628Y-72826564D01*
X84012533Y-72841676D01*
X84008719Y-72849800D01*
X84007338Y-72858667D01*
X84007338Y-72858668D01*
X84004170Y-72879015D01*
X84000387Y-72895732D01*
X83994485Y-72915466D01*
X83994484Y-72915472D01*
X83991914Y-72924066D01*
X83991859Y-72933037D01*
X83991859Y-72933038D01*
X83991704Y-72958497D01*
X83991671Y-72959289D01*
X83991500Y-72960386D01*
X83991500Y-72991377D01*
X83991498Y-72992147D01*
X83991024Y-73069721D01*
X83991408Y-73071065D01*
X83991500Y-73072410D01*
X83991500Y-85991377D01*
X83991498Y-85992147D01*
X83991024Y-86069721D01*
X79008124Y-86069721D01*
X79008296Y-86041494D01*
X79008329Y-86040711D01*
X79008500Y-86039614D01*
X79008500Y-86008623D01*
X79008502Y-86007853D01*
X79008952Y-85934215D01*
X79008952Y-85934214D01*
X79008976Y-85930279D01*
X79008592Y-85928935D01*
X79008500Y-85927590D01*
X79008500Y-73008623D01*
X79008502Y-73007853D01*
X79008800Y-72959102D01*
X79008976Y-72930279D01*
X79000850Y-72901847D01*
X78997272Y-72885085D01*
X78994352Y-72864698D01*
X78993080Y-72855813D01*
X78982451Y-72832436D01*
X78976004Y-72814913D01*
X78971416Y-72798862D01*
X78968949Y-72790229D01*
X78964156Y-72782632D01*
X78953170Y-72765220D01*
X78945030Y-72750135D01*
X78942564Y-72744711D01*
X78932792Y-72723218D01*
X78916030Y-72703765D01*
X78904927Y-72688761D01*
X78891224Y-72667042D01*
X78884499Y-72661103D01*
X78884496Y-72661099D01*
X78869062Y-72647468D01*
X78857018Y-72635276D01*
X78843573Y-72619673D01*
X78843570Y-72619671D01*
X78837713Y-72612873D01*
X78824009Y-72603990D01*
X78816165Y-72598906D01*
X78801291Y-72587615D01*
X78788783Y-72576569D01*
X78788782Y-72576568D01*
X78782049Y-72570622D01*
X78755287Y-72558057D01*
X78740309Y-72549737D01*
X78723017Y-72538529D01*
X78723012Y-72538527D01*
X78715485Y-72533648D01*
X78706892Y-72531078D01*
X78706887Y-72531076D01*
X78690880Y-72526289D01*
X78673436Y-72519628D01*
X78658324Y-72512533D01*
X78658322Y-72512532D01*
X78650200Y-72508719D01*
X78641333Y-72507338D01*
X78641332Y-72507338D01*
X78630478Y-72505648D01*
X78620983Y-72504170D01*
X78604268Y-72500387D01*
X78584534Y-72494485D01*
X78584528Y-72494484D01*
X78575934Y-72491914D01*
X78566963Y-72491859D01*
X78566962Y-72491859D01*
X78556903Y-72491798D01*
X78541494Y-72491704D01*
X78540711Y-72491671D01*
X78539614Y-72491500D01*
X78508623Y-72491500D01*
X78507853Y-72491498D01*
X78434215Y-72491048D01*
X78434214Y-72491048D01*
X78430279Y-72491024D01*
X78428935Y-72491408D01*
X78427590Y-72491500D01*
X65508623Y-72491500D01*
X65507853Y-72491498D01*
X65507037Y-72491493D01*
X65430279Y-72491024D01*
X65407918Y-72497415D01*
X65401847Y-72499150D01*
X65385085Y-72502728D01*
X65355813Y-72506920D01*
X65347645Y-72510634D01*
X65347644Y-72510634D01*
X65332438Y-72517548D01*
X65314914Y-72523996D01*
X65290229Y-72531051D01*
X65282635Y-72535843D01*
X65282632Y-72535844D01*
X65265220Y-72546830D01*
X65250137Y-72554969D01*
X65223218Y-72567208D01*
X65216416Y-72573069D01*
X65203765Y-72583970D01*
X65188761Y-72595073D01*
X65167042Y-72608776D01*
X65161103Y-72615501D01*
X65161099Y-72615504D01*
X65147468Y-72630938D01*
X65135276Y-72642982D01*
X65119673Y-72656427D01*
X65119671Y-72656430D01*
X65112873Y-72662287D01*
X65107993Y-72669816D01*
X65107992Y-72669817D01*
X65098906Y-72683835D01*
X65087615Y-72698709D01*
X65076569Y-72711217D01*
X65070622Y-72717951D01*
X65064312Y-72731391D01*
X65058058Y-72744711D01*
X65049737Y-72759691D01*
X65038529Y-72776983D01*
X65038527Y-72776988D01*
X65033648Y-72784515D01*
X65031078Y-72793108D01*
X65031076Y-72793113D01*
X65026289Y-72809120D01*
X65019628Y-72826564D01*
X65012533Y-72841676D01*
X65008719Y-72849800D01*
X65007338Y-72858667D01*
X65007338Y-72858668D01*
X65004170Y-72879015D01*
X65000387Y-72895732D01*
X64994485Y-72915466D01*
X64994484Y-72915472D01*
X64991914Y-72924066D01*
X64991859Y-72933037D01*
X64991859Y-72933038D01*
X64991704Y-72958497D01*
X64991671Y-72959289D01*
X64991500Y-72960386D01*
X64991500Y-72991377D01*
X64991498Y-72992147D01*
X64991024Y-73069721D01*
X64991408Y-73071065D01*
X64991500Y-73072410D01*
X64991500Y-85991377D01*
X64991498Y-85992147D01*
X64991024Y-86069721D01*
X60008124Y-86069721D01*
X60008296Y-86041494D01*
X60008329Y-86040711D01*
X60008500Y-86039614D01*
X60008500Y-86008623D01*
X60008502Y-86007853D01*
X60008952Y-85934215D01*
X60008952Y-85934214D01*
X60008976Y-85930279D01*
X60008592Y-85928935D01*
X60008500Y-85927590D01*
X60008500Y-73008623D01*
X60008502Y-73007853D01*
X60008800Y-72959102D01*
X60008976Y-72930279D01*
X60000850Y-72901847D01*
X59997272Y-72885085D01*
X59994352Y-72864698D01*
X59993080Y-72855813D01*
X59982451Y-72832436D01*
X59976004Y-72814913D01*
X59971416Y-72798862D01*
X59968949Y-72790229D01*
X59964156Y-72782632D01*
X59953170Y-72765220D01*
X59945030Y-72750135D01*
X59942564Y-72744711D01*
X59932792Y-72723218D01*
X59916030Y-72703765D01*
X59904927Y-72688761D01*
X59891224Y-72667042D01*
X59884499Y-72661103D01*
X59884496Y-72661099D01*
X59869062Y-72647468D01*
X59857018Y-72635276D01*
X59843573Y-72619673D01*
X59843570Y-72619671D01*
X59837713Y-72612873D01*
X59824009Y-72603990D01*
X59816165Y-72598906D01*
X59801291Y-72587615D01*
X59788783Y-72576569D01*
X59788782Y-72576568D01*
X59782049Y-72570622D01*
X59755287Y-72558057D01*
X59740309Y-72549737D01*
X59723017Y-72538529D01*
X59723012Y-72538527D01*
X59715485Y-72533648D01*
X59706892Y-72531078D01*
X59706887Y-72531076D01*
X59690880Y-72526289D01*
X59673436Y-72519628D01*
X59658324Y-72512533D01*
X59658322Y-72512532D01*
X59650200Y-72508719D01*
X59641333Y-72507338D01*
X59641332Y-72507338D01*
X59630478Y-72505648D01*
X59620983Y-72504170D01*
X59604268Y-72500387D01*
X59584534Y-72494485D01*
X59584528Y-72494484D01*
X59575934Y-72491914D01*
X59566963Y-72491859D01*
X59566962Y-72491859D01*
X59556903Y-72491798D01*
X59541494Y-72491704D01*
X59540711Y-72491671D01*
X59539614Y-72491500D01*
X59508623Y-72491500D01*
X59507853Y-72491498D01*
X59434215Y-72491048D01*
X59434214Y-72491048D01*
X59430279Y-72491024D01*
X59428935Y-72491408D01*
X59427590Y-72491500D01*
X46508623Y-72491500D01*
X46507853Y-72491498D01*
X46507037Y-72491493D01*
X46430279Y-72491024D01*
X46407918Y-72497415D01*
X46401847Y-72499150D01*
X46385085Y-72502728D01*
X46355813Y-72506920D01*
X46347645Y-72510634D01*
X46347644Y-72510634D01*
X46332438Y-72517548D01*
X46314914Y-72523996D01*
X46290229Y-72531051D01*
X46282635Y-72535843D01*
X46282632Y-72535844D01*
X46265220Y-72546830D01*
X46250137Y-72554969D01*
X46223218Y-72567208D01*
X46216416Y-72573069D01*
X46203765Y-72583970D01*
X46188761Y-72595073D01*
X46167042Y-72608776D01*
X46161103Y-72615501D01*
X46161099Y-72615504D01*
X46147468Y-72630938D01*
X46135276Y-72642982D01*
X46119673Y-72656427D01*
X46119671Y-72656430D01*
X46112873Y-72662287D01*
X46107993Y-72669816D01*
X46107992Y-72669817D01*
X46098906Y-72683835D01*
X46087615Y-72698709D01*
X46076569Y-72711217D01*
X46070622Y-72717951D01*
X46064312Y-72731391D01*
X46058058Y-72744711D01*
X46049737Y-72759691D01*
X46038529Y-72776983D01*
X46038527Y-72776988D01*
X46033648Y-72784515D01*
X46031078Y-72793108D01*
X46031076Y-72793113D01*
X46026289Y-72809120D01*
X46019628Y-72826564D01*
X46012533Y-72841676D01*
X46008719Y-72849800D01*
X46007338Y-72858667D01*
X46007338Y-72858668D01*
X46004170Y-72879015D01*
X46000387Y-72895732D01*
X45994485Y-72915466D01*
X45994484Y-72915472D01*
X45991914Y-72924066D01*
X45991859Y-72933037D01*
X45991859Y-72933038D01*
X45991704Y-72958497D01*
X45991671Y-72959289D01*
X45991500Y-72960386D01*
X45991500Y-72991377D01*
X45991498Y-72992147D01*
X45991024Y-73069721D01*
X45991408Y-73071065D01*
X45991500Y-73072410D01*
X45991500Y-85991377D01*
X45991498Y-85992147D01*
X45991024Y-86069721D01*
X24008500Y-86069721D01*
X24008500Y-53600000D01*
X45186496Y-53600000D01*
X45187186Y-53606565D01*
X45202276Y-53750135D01*
X45206458Y-53789928D01*
X45265473Y-53971556D01*
X45360960Y-54136944D01*
X45488747Y-54278866D01*
X45643248Y-54391118D01*
X45649276Y-54393802D01*
X45649278Y-54393803D01*
X45811681Y-54466109D01*
X45817712Y-54468794D01*
X45891697Y-54484520D01*
X45954170Y-54518248D01*
X45988492Y-54580398D01*
X45991500Y-54607767D01*
X45991500Y-66991377D01*
X45991498Y-66992147D01*
X45991024Y-67069721D01*
X45993491Y-67078352D01*
X45999150Y-67098153D01*
X46002728Y-67114915D01*
X46006920Y-67144187D01*
X46010634Y-67152355D01*
X46010634Y-67152356D01*
X46017548Y-67167562D01*
X46023996Y-67185086D01*
X46031051Y-67209771D01*
X46035843Y-67217365D01*
X46035844Y-67217368D01*
X46046830Y-67234780D01*
X46054969Y-67249863D01*
X46067208Y-67276782D01*
X46073069Y-67283584D01*
X46083970Y-67296235D01*
X46095073Y-67311239D01*
X46108776Y-67332958D01*
X46115501Y-67338897D01*
X46115504Y-67338901D01*
X46130938Y-67352532D01*
X46142982Y-67364724D01*
X46156427Y-67380327D01*
X46156430Y-67380329D01*
X46162287Y-67387127D01*
X46169816Y-67392007D01*
X46169817Y-67392008D01*
X46183835Y-67401094D01*
X46198709Y-67412385D01*
X46211217Y-67423431D01*
X46217951Y-67429378D01*
X46244711Y-67441942D01*
X46259691Y-67450263D01*
X46276983Y-67461471D01*
X46276988Y-67461473D01*
X46284515Y-67466352D01*
X46293108Y-67468922D01*
X46293113Y-67468924D01*
X46309120Y-67473711D01*
X46326564Y-67480372D01*
X46341676Y-67487467D01*
X46341678Y-67487468D01*
X46349800Y-67491281D01*
X46358667Y-67492662D01*
X46358668Y-67492662D01*
X46361353Y-67493080D01*
X46379017Y-67495830D01*
X46395732Y-67499613D01*
X46415466Y-67505515D01*
X46415472Y-67505516D01*
X46424066Y-67508086D01*
X46433037Y-67508141D01*
X46433038Y-67508141D01*
X46443097Y-67508202D01*
X46458506Y-67508296D01*
X46459289Y-67508329D01*
X46460386Y-67508500D01*
X46491377Y-67508500D01*
X46492147Y-67508502D01*
X46565785Y-67508952D01*
X46565786Y-67508952D01*
X46569721Y-67508976D01*
X46571065Y-67508592D01*
X46572410Y-67508500D01*
X59491377Y-67508500D01*
X59492148Y-67508502D01*
X59569721Y-67508976D01*
X59598152Y-67500850D01*
X59614915Y-67497272D01*
X59615753Y-67497152D01*
X59644187Y-67493080D01*
X59667564Y-67482451D01*
X59685087Y-67476004D01*
X59709771Y-67468949D01*
X59717365Y-67464157D01*
X59717368Y-67464156D01*
X59734780Y-67453170D01*
X59749865Y-67445030D01*
X59776782Y-67432792D01*
X59796235Y-67416030D01*
X59811239Y-67404927D01*
X59832958Y-67391224D01*
X59838897Y-67384499D01*
X59838901Y-67384496D01*
X59852532Y-67369062D01*
X59864724Y-67357018D01*
X59880327Y-67343573D01*
X59880329Y-67343570D01*
X59887127Y-67337713D01*
X59901094Y-67316165D01*
X59912385Y-67301291D01*
X59923431Y-67288783D01*
X59923432Y-67288782D01*
X59929378Y-67282049D01*
X59941943Y-67255287D01*
X59950263Y-67240309D01*
X59961471Y-67223017D01*
X59961473Y-67223012D01*
X59966352Y-67215485D01*
X59968922Y-67206892D01*
X59968924Y-67206887D01*
X59973711Y-67190880D01*
X59980372Y-67173436D01*
X59987467Y-67158324D01*
X59987468Y-67158322D01*
X59991281Y-67150200D01*
X59995830Y-67120983D01*
X59999613Y-67104268D01*
X60005515Y-67084534D01*
X60005516Y-67084528D01*
X60008086Y-67075934D01*
X60008124Y-67069721D01*
X64991024Y-67069721D01*
X64993491Y-67078352D01*
X64999150Y-67098153D01*
X65002728Y-67114915D01*
X65006920Y-67144187D01*
X65010634Y-67152355D01*
X65010634Y-67152356D01*
X65017548Y-67167562D01*
X65023996Y-67185086D01*
X65031051Y-67209771D01*
X65035843Y-67217365D01*
X65035844Y-67217368D01*
X65046830Y-67234780D01*
X65054969Y-67249863D01*
X65067208Y-67276782D01*
X65073069Y-67283584D01*
X65083970Y-67296235D01*
X65095073Y-67311239D01*
X65108776Y-67332958D01*
X65115501Y-67338897D01*
X65115504Y-67338901D01*
X65130938Y-67352532D01*
X65142982Y-67364724D01*
X65156427Y-67380327D01*
X65156430Y-67380329D01*
X65162287Y-67387127D01*
X65169816Y-67392007D01*
X65169817Y-67392008D01*
X65183835Y-67401094D01*
X65198709Y-67412385D01*
X65211217Y-67423431D01*
X65217951Y-67429378D01*
X65244711Y-67441942D01*
X65259691Y-67450263D01*
X65276983Y-67461471D01*
X65276988Y-67461473D01*
X65284515Y-67466352D01*
X65293108Y-67468922D01*
X65293113Y-67468924D01*
X65309120Y-67473711D01*
X65326564Y-67480372D01*
X65341676Y-67487467D01*
X65341678Y-67487468D01*
X65349800Y-67491281D01*
X65358667Y-67492662D01*
X65358668Y-67492662D01*
X65361353Y-67493080D01*
X65379017Y-67495830D01*
X65395732Y-67499613D01*
X65415466Y-67505515D01*
X65415472Y-67505516D01*
X65424066Y-67508086D01*
X65433037Y-67508141D01*
X65433038Y-67508141D01*
X65443097Y-67508202D01*
X65458506Y-67508296D01*
X65459289Y-67508329D01*
X65460386Y-67508500D01*
X65491377Y-67508500D01*
X65492147Y-67508502D01*
X65565785Y-67508952D01*
X65565786Y-67508952D01*
X65569721Y-67508976D01*
X65571065Y-67508592D01*
X65572410Y-67508500D01*
X78491377Y-67508500D01*
X78492148Y-67508502D01*
X78569721Y-67508976D01*
X78598152Y-67500850D01*
X78614915Y-67497272D01*
X78615753Y-67497152D01*
X78644187Y-67493080D01*
X78667564Y-67482451D01*
X78685087Y-67476004D01*
X78709771Y-67468949D01*
X78717365Y-67464157D01*
X78717368Y-67464156D01*
X78734780Y-67453170D01*
X78749865Y-67445030D01*
X78776782Y-67432792D01*
X78796235Y-67416030D01*
X78811239Y-67404927D01*
X78832958Y-67391224D01*
X78838897Y-67384499D01*
X78838901Y-67384496D01*
X78852532Y-67369062D01*
X78864724Y-67357018D01*
X78880327Y-67343573D01*
X78880329Y-67343570D01*
X78887127Y-67337713D01*
X78901094Y-67316165D01*
X78912385Y-67301291D01*
X78923431Y-67288783D01*
X78923432Y-67288782D01*
X78929378Y-67282049D01*
X78941943Y-67255287D01*
X78950263Y-67240309D01*
X78961471Y-67223017D01*
X78961473Y-67223012D01*
X78966352Y-67215485D01*
X78968922Y-67206892D01*
X78968924Y-67206887D01*
X78973711Y-67190880D01*
X78980372Y-67173436D01*
X78987467Y-67158324D01*
X78987468Y-67158322D01*
X78991281Y-67150200D01*
X78995830Y-67120983D01*
X78999613Y-67104268D01*
X79005515Y-67084534D01*
X79005516Y-67084528D01*
X79008086Y-67075934D01*
X79008124Y-67069721D01*
X83991024Y-67069721D01*
X83993491Y-67078352D01*
X83999150Y-67098153D01*
X84002728Y-67114915D01*
X84006920Y-67144187D01*
X84010634Y-67152355D01*
X84010634Y-67152356D01*
X84017548Y-67167562D01*
X84023996Y-67185086D01*
X84031051Y-67209771D01*
X84035843Y-67217365D01*
X84035844Y-67217368D01*
X84046830Y-67234780D01*
X84054969Y-67249863D01*
X84067208Y-67276782D01*
X84073069Y-67283584D01*
X84083970Y-67296235D01*
X84095073Y-67311239D01*
X84108776Y-67332958D01*
X84115501Y-67338897D01*
X84115504Y-67338901D01*
X84130938Y-67352532D01*
X84142982Y-67364724D01*
X84156427Y-67380327D01*
X84156430Y-67380329D01*
X84162287Y-67387127D01*
X84169816Y-67392007D01*
X84169817Y-67392008D01*
X84183835Y-67401094D01*
X84198709Y-67412385D01*
X84211217Y-67423431D01*
X84217951Y-67429378D01*
X84244711Y-67441942D01*
X84259691Y-67450263D01*
X84276983Y-67461471D01*
X84276988Y-67461473D01*
X84284515Y-67466352D01*
X84293108Y-67468922D01*
X84293113Y-67468924D01*
X84309120Y-67473711D01*
X84326564Y-67480372D01*
X84341676Y-67487467D01*
X84341678Y-67487468D01*
X84349800Y-67491281D01*
X84358667Y-67492662D01*
X84358668Y-67492662D01*
X84361353Y-67493080D01*
X84379017Y-67495830D01*
X84395732Y-67499613D01*
X84415466Y-67505515D01*
X84415472Y-67505516D01*
X84424066Y-67508086D01*
X84433037Y-67508141D01*
X84433038Y-67508141D01*
X84443097Y-67508202D01*
X84458506Y-67508296D01*
X84459289Y-67508329D01*
X84460386Y-67508500D01*
X84491377Y-67508500D01*
X84492147Y-67508502D01*
X84565785Y-67508952D01*
X84565786Y-67508952D01*
X84569721Y-67508976D01*
X84571065Y-67508592D01*
X84572410Y-67508500D01*
X97491377Y-67508500D01*
X97492148Y-67508502D01*
X97569721Y-67508976D01*
X97598152Y-67500850D01*
X97614915Y-67497272D01*
X97615753Y-67497152D01*
X97644187Y-67493080D01*
X97667564Y-67482451D01*
X97685087Y-67476004D01*
X97709771Y-67468949D01*
X97717365Y-67464157D01*
X97717368Y-67464156D01*
X97734780Y-67453170D01*
X97749865Y-67445030D01*
X97776782Y-67432792D01*
X97796235Y-67416030D01*
X97811239Y-67404927D01*
X97832958Y-67391224D01*
X97838897Y-67384499D01*
X97838901Y-67384496D01*
X97852532Y-67369062D01*
X97864724Y-67357018D01*
X97880327Y-67343573D01*
X97880329Y-67343570D01*
X97887127Y-67337713D01*
X97901094Y-67316165D01*
X97912385Y-67301291D01*
X97923431Y-67288783D01*
X97923432Y-67288782D01*
X97929378Y-67282049D01*
X97941943Y-67255287D01*
X97950263Y-67240309D01*
X97961471Y-67223017D01*
X97961473Y-67223012D01*
X97966352Y-67215485D01*
X97968922Y-67206892D01*
X97968924Y-67206887D01*
X97973711Y-67190880D01*
X97980372Y-67173436D01*
X97987467Y-67158324D01*
X97987468Y-67158322D01*
X97991281Y-67150200D01*
X97995830Y-67120983D01*
X97999613Y-67104268D01*
X98005515Y-67084534D01*
X98005516Y-67084528D01*
X98008086Y-67075934D01*
X98008124Y-67069721D01*
X102991024Y-67069721D01*
X102993491Y-67078352D01*
X102999150Y-67098153D01*
X103002728Y-67114915D01*
X103006920Y-67144187D01*
X103010634Y-67152355D01*
X103010634Y-67152356D01*
X103017548Y-67167562D01*
X103023996Y-67185086D01*
X103031051Y-67209771D01*
X103035843Y-67217365D01*
X103035844Y-67217368D01*
X103046830Y-67234780D01*
X103054969Y-67249863D01*
X103067208Y-67276782D01*
X103073069Y-67283584D01*
X103083970Y-67296235D01*
X103095073Y-67311239D01*
X103108776Y-67332958D01*
X103115501Y-67338897D01*
X103115504Y-67338901D01*
X103130938Y-67352532D01*
X103142982Y-67364724D01*
X103156427Y-67380327D01*
X103156430Y-67380329D01*
X103162287Y-67387127D01*
X103169816Y-67392007D01*
X103169817Y-67392008D01*
X103183835Y-67401094D01*
X103198709Y-67412385D01*
X103211217Y-67423431D01*
X103217951Y-67429378D01*
X103244711Y-67441942D01*
X103259691Y-67450263D01*
X103276983Y-67461471D01*
X103276988Y-67461473D01*
X103284515Y-67466352D01*
X103293108Y-67468922D01*
X103293113Y-67468924D01*
X103309120Y-67473711D01*
X103326564Y-67480372D01*
X103341676Y-67487467D01*
X103341678Y-67487468D01*
X103349800Y-67491281D01*
X103358667Y-67492662D01*
X103358668Y-67492662D01*
X103361353Y-67493080D01*
X103379017Y-67495830D01*
X103395732Y-67499613D01*
X103415466Y-67505515D01*
X103415472Y-67505516D01*
X103424066Y-67508086D01*
X103433037Y-67508141D01*
X103433038Y-67508141D01*
X103443097Y-67508202D01*
X103458506Y-67508296D01*
X103459289Y-67508329D01*
X103460386Y-67508500D01*
X103491377Y-67508500D01*
X103492147Y-67508502D01*
X103565785Y-67508952D01*
X103565786Y-67508952D01*
X103569721Y-67508976D01*
X103571065Y-67508592D01*
X103572410Y-67508500D01*
X116491377Y-67508500D01*
X116492148Y-67508502D01*
X116569721Y-67508976D01*
X116598152Y-67500850D01*
X116614915Y-67497272D01*
X116615753Y-67497152D01*
X116644187Y-67493080D01*
X116667564Y-67482451D01*
X116685087Y-67476004D01*
X116709771Y-67468949D01*
X116717365Y-67464157D01*
X116717368Y-67464156D01*
X116734780Y-67453170D01*
X116749865Y-67445030D01*
X116776782Y-67432792D01*
X116796235Y-67416030D01*
X116811239Y-67404927D01*
X116832958Y-67391224D01*
X116838897Y-67384499D01*
X116838901Y-67384496D01*
X116852532Y-67369062D01*
X116864724Y-67357018D01*
X116880327Y-67343573D01*
X116880329Y-67343570D01*
X116887127Y-67337713D01*
X116901094Y-67316165D01*
X116912385Y-67301291D01*
X116923431Y-67288783D01*
X116923432Y-67288782D01*
X116929378Y-67282049D01*
X116941943Y-67255287D01*
X116950263Y-67240309D01*
X116961471Y-67223017D01*
X116961473Y-67223012D01*
X116966352Y-67215485D01*
X116968922Y-67206892D01*
X116968924Y-67206887D01*
X116973711Y-67190880D01*
X116980372Y-67173436D01*
X116987467Y-67158324D01*
X116987468Y-67158322D01*
X116991281Y-67150200D01*
X116995830Y-67120983D01*
X116999613Y-67104268D01*
X117005515Y-67084534D01*
X117005516Y-67084528D01*
X117008086Y-67075934D01*
X117008124Y-67069721D01*
X159991024Y-67069721D01*
X159993491Y-67078352D01*
X159999150Y-67098153D01*
X160002728Y-67114915D01*
X160006920Y-67144187D01*
X160010634Y-67152355D01*
X160010634Y-67152356D01*
X160017548Y-67167562D01*
X160023996Y-67185086D01*
X160031051Y-67209771D01*
X160035843Y-67217365D01*
X160035844Y-67217368D01*
X160046830Y-67234780D01*
X160054969Y-67249863D01*
X160067208Y-67276782D01*
X160073069Y-67283584D01*
X160083970Y-67296235D01*
X160095073Y-67311239D01*
X160108776Y-67332958D01*
X160115501Y-67338897D01*
X160115504Y-67338901D01*
X160130938Y-67352532D01*
X160142982Y-67364724D01*
X160156427Y-67380327D01*
X160156430Y-67380329D01*
X160162287Y-67387127D01*
X160169816Y-67392007D01*
X160169817Y-67392008D01*
X160183835Y-67401094D01*
X160198709Y-67412385D01*
X160211217Y-67423431D01*
X160217951Y-67429378D01*
X160244711Y-67441942D01*
X160259691Y-67450263D01*
X160276983Y-67461471D01*
X160276988Y-67461473D01*
X160284515Y-67466352D01*
X160293108Y-67468922D01*
X160293113Y-67468924D01*
X160309120Y-67473711D01*
X160326564Y-67480372D01*
X160341676Y-67487467D01*
X160341678Y-67487468D01*
X160349800Y-67491281D01*
X160358667Y-67492662D01*
X160358668Y-67492662D01*
X160361353Y-67493080D01*
X160379017Y-67495830D01*
X160395732Y-67499613D01*
X160415466Y-67505515D01*
X160415472Y-67505516D01*
X160424066Y-67508086D01*
X160433037Y-67508141D01*
X160433038Y-67508141D01*
X160443097Y-67508202D01*
X160458506Y-67508296D01*
X160459289Y-67508329D01*
X160460386Y-67508500D01*
X160491377Y-67508500D01*
X160492147Y-67508502D01*
X160565785Y-67508952D01*
X160565786Y-67508952D01*
X160569721Y-67508976D01*
X160571065Y-67508592D01*
X160572410Y-67508500D01*
X173491377Y-67508500D01*
X173492148Y-67508502D01*
X173569721Y-67508976D01*
X173598152Y-67500850D01*
X173614915Y-67497272D01*
X173615753Y-67497152D01*
X173644187Y-67493080D01*
X173667564Y-67482451D01*
X173685087Y-67476004D01*
X173709771Y-67468949D01*
X173717365Y-67464157D01*
X173717368Y-67464156D01*
X173734780Y-67453170D01*
X173749865Y-67445030D01*
X173776782Y-67432792D01*
X173796235Y-67416030D01*
X173811239Y-67404927D01*
X173832958Y-67391224D01*
X173838897Y-67384499D01*
X173838901Y-67384496D01*
X173852532Y-67369062D01*
X173864724Y-67357018D01*
X173880327Y-67343573D01*
X173880329Y-67343570D01*
X173887127Y-67337713D01*
X173901094Y-67316165D01*
X173912385Y-67301291D01*
X173923431Y-67288783D01*
X173923432Y-67288782D01*
X173929378Y-67282049D01*
X173941943Y-67255287D01*
X173950263Y-67240309D01*
X173961471Y-67223017D01*
X173961473Y-67223012D01*
X173966352Y-67215485D01*
X173968922Y-67206892D01*
X173968924Y-67206887D01*
X173973711Y-67190880D01*
X173980372Y-67173436D01*
X173987467Y-67158324D01*
X173987468Y-67158322D01*
X173991281Y-67150200D01*
X173995830Y-67120983D01*
X173999613Y-67104268D01*
X174005515Y-67084534D01*
X174005516Y-67084528D01*
X174008086Y-67075934D01*
X174008124Y-67069721D01*
X178991024Y-67069721D01*
X178993491Y-67078352D01*
X178999150Y-67098153D01*
X179002728Y-67114915D01*
X179006920Y-67144187D01*
X179010634Y-67152355D01*
X179010634Y-67152356D01*
X179017548Y-67167562D01*
X179023996Y-67185086D01*
X179031051Y-67209771D01*
X179035843Y-67217365D01*
X179035844Y-67217368D01*
X179046830Y-67234780D01*
X179054969Y-67249863D01*
X179067208Y-67276782D01*
X179073069Y-67283584D01*
X179083970Y-67296235D01*
X179095073Y-67311239D01*
X179108776Y-67332958D01*
X179115501Y-67338897D01*
X179115504Y-67338901D01*
X179130938Y-67352532D01*
X179142982Y-67364724D01*
X179156427Y-67380327D01*
X179156430Y-67380329D01*
X179162287Y-67387127D01*
X179169816Y-67392007D01*
X179169817Y-67392008D01*
X179183835Y-67401094D01*
X179198709Y-67412385D01*
X179211217Y-67423431D01*
X179217951Y-67429378D01*
X179244711Y-67441942D01*
X179259691Y-67450263D01*
X179276983Y-67461471D01*
X179276988Y-67461473D01*
X179284515Y-67466352D01*
X179293108Y-67468922D01*
X179293113Y-67468924D01*
X179309120Y-67473711D01*
X179326564Y-67480372D01*
X179341676Y-67487467D01*
X179341678Y-67487468D01*
X179349800Y-67491281D01*
X179358667Y-67492662D01*
X179358668Y-67492662D01*
X179361353Y-67493080D01*
X179379017Y-67495830D01*
X179395732Y-67499613D01*
X179415466Y-67505515D01*
X179415472Y-67505516D01*
X179424066Y-67508086D01*
X179433037Y-67508141D01*
X179433038Y-67508141D01*
X179443097Y-67508202D01*
X179458506Y-67508296D01*
X179459289Y-67508329D01*
X179460386Y-67508500D01*
X179491377Y-67508500D01*
X179492147Y-67508502D01*
X179565785Y-67508952D01*
X179565786Y-67508952D01*
X179569721Y-67508976D01*
X179571065Y-67508592D01*
X179572410Y-67508500D01*
X192491377Y-67508500D01*
X192492148Y-67508502D01*
X192569721Y-67508976D01*
X192598152Y-67500850D01*
X192614915Y-67497272D01*
X192615753Y-67497152D01*
X192644187Y-67493080D01*
X192667564Y-67482451D01*
X192685087Y-67476004D01*
X192709771Y-67468949D01*
X192717365Y-67464157D01*
X192717368Y-67464156D01*
X192734780Y-67453170D01*
X192749865Y-67445030D01*
X192776782Y-67432792D01*
X192796235Y-67416030D01*
X192811239Y-67404927D01*
X192832958Y-67391224D01*
X192838897Y-67384499D01*
X192838901Y-67384496D01*
X192852532Y-67369062D01*
X192864724Y-67357018D01*
X192880327Y-67343573D01*
X192880329Y-67343570D01*
X192887127Y-67337713D01*
X192901094Y-67316165D01*
X192912385Y-67301291D01*
X192923431Y-67288783D01*
X192923432Y-67288782D01*
X192929378Y-67282049D01*
X192941943Y-67255287D01*
X192950263Y-67240309D01*
X192961471Y-67223017D01*
X192961473Y-67223012D01*
X192966352Y-67215485D01*
X192968922Y-67206892D01*
X192968924Y-67206887D01*
X192973711Y-67190880D01*
X192980372Y-67173436D01*
X192987467Y-67158324D01*
X192987468Y-67158322D01*
X192991281Y-67150200D01*
X192995830Y-67120983D01*
X192999613Y-67104268D01*
X193005515Y-67084534D01*
X193005516Y-67084528D01*
X193008086Y-67075934D01*
X193008124Y-67069721D01*
X197991024Y-67069721D01*
X197993491Y-67078352D01*
X197999150Y-67098153D01*
X198002728Y-67114915D01*
X198006920Y-67144187D01*
X198010634Y-67152355D01*
X198010634Y-67152356D01*
X198017548Y-67167562D01*
X198023996Y-67185086D01*
X198031051Y-67209771D01*
X198035843Y-67217365D01*
X198035844Y-67217368D01*
X198046830Y-67234780D01*
X198054969Y-67249863D01*
X198067208Y-67276782D01*
X198073069Y-67283584D01*
X198083970Y-67296235D01*
X198095073Y-67311239D01*
X198108776Y-67332958D01*
X198115501Y-67338897D01*
X198115504Y-67338901D01*
X198130938Y-67352532D01*
X198142982Y-67364724D01*
X198156427Y-67380327D01*
X198156430Y-67380329D01*
X198162287Y-67387127D01*
X198169816Y-67392007D01*
X198169817Y-67392008D01*
X198183835Y-67401094D01*
X198198709Y-67412385D01*
X198211217Y-67423431D01*
X198217951Y-67429378D01*
X198244711Y-67441942D01*
X198259691Y-67450263D01*
X198276983Y-67461471D01*
X198276988Y-67461473D01*
X198284515Y-67466352D01*
X198293108Y-67468922D01*
X198293113Y-67468924D01*
X198309120Y-67473711D01*
X198326564Y-67480372D01*
X198341676Y-67487467D01*
X198341678Y-67487468D01*
X198349800Y-67491281D01*
X198358667Y-67492662D01*
X198358668Y-67492662D01*
X198361353Y-67493080D01*
X198379017Y-67495830D01*
X198395732Y-67499613D01*
X198415466Y-67505515D01*
X198415472Y-67505516D01*
X198424066Y-67508086D01*
X198433037Y-67508141D01*
X198433038Y-67508141D01*
X198443097Y-67508202D01*
X198458506Y-67508296D01*
X198459289Y-67508329D01*
X198460386Y-67508500D01*
X198491377Y-67508500D01*
X198492147Y-67508502D01*
X198565785Y-67508952D01*
X198565786Y-67508952D01*
X198569721Y-67508976D01*
X198571065Y-67508592D01*
X198572410Y-67508500D01*
X211491377Y-67508500D01*
X211492148Y-67508502D01*
X211569721Y-67508976D01*
X211598152Y-67500850D01*
X211614915Y-67497272D01*
X211615753Y-67497152D01*
X211644187Y-67493080D01*
X211667564Y-67482451D01*
X211685087Y-67476004D01*
X211709771Y-67468949D01*
X211717365Y-67464157D01*
X211717368Y-67464156D01*
X211734780Y-67453170D01*
X211749865Y-67445030D01*
X211776782Y-67432792D01*
X211796235Y-67416030D01*
X211811239Y-67404927D01*
X211832958Y-67391224D01*
X211838897Y-67384499D01*
X211838901Y-67384496D01*
X211852532Y-67369062D01*
X211864724Y-67357018D01*
X211880327Y-67343573D01*
X211880329Y-67343570D01*
X211887127Y-67337713D01*
X211901094Y-67316165D01*
X211912385Y-67301291D01*
X211923431Y-67288783D01*
X211923432Y-67288782D01*
X211929378Y-67282049D01*
X211941943Y-67255287D01*
X211950263Y-67240309D01*
X211961471Y-67223017D01*
X211961473Y-67223012D01*
X211966352Y-67215485D01*
X211968922Y-67206892D01*
X211968924Y-67206887D01*
X211973711Y-67190880D01*
X211980372Y-67173436D01*
X211987467Y-67158324D01*
X211987468Y-67158322D01*
X211991281Y-67150200D01*
X211995830Y-67120983D01*
X211999613Y-67104268D01*
X212005515Y-67084534D01*
X212005516Y-67084528D01*
X212008086Y-67075934D01*
X212008124Y-67069721D01*
X235891024Y-67069721D01*
X235893491Y-67078352D01*
X235899150Y-67098153D01*
X235902728Y-67114915D01*
X235906920Y-67144187D01*
X235910634Y-67152355D01*
X235910634Y-67152356D01*
X235917548Y-67167562D01*
X235923996Y-67185086D01*
X235931051Y-67209771D01*
X235935843Y-67217365D01*
X235935844Y-67217368D01*
X235946830Y-67234780D01*
X235954969Y-67249863D01*
X235967208Y-67276782D01*
X235973069Y-67283584D01*
X235983970Y-67296235D01*
X235995073Y-67311239D01*
X236008776Y-67332958D01*
X236015501Y-67338897D01*
X236015504Y-67338901D01*
X236030938Y-67352532D01*
X236042982Y-67364724D01*
X236056427Y-67380327D01*
X236056430Y-67380329D01*
X236062287Y-67387127D01*
X236069816Y-67392007D01*
X236069817Y-67392008D01*
X236083835Y-67401094D01*
X236098709Y-67412385D01*
X236111217Y-67423431D01*
X236117951Y-67429378D01*
X236144711Y-67441942D01*
X236159691Y-67450263D01*
X236176983Y-67461471D01*
X236176988Y-67461473D01*
X236184515Y-67466352D01*
X236193108Y-67468922D01*
X236193113Y-67468924D01*
X236209120Y-67473711D01*
X236226564Y-67480372D01*
X236241676Y-67487467D01*
X236241678Y-67487468D01*
X236249800Y-67491281D01*
X236258667Y-67492662D01*
X236258668Y-67492662D01*
X236261353Y-67493080D01*
X236279017Y-67495830D01*
X236295732Y-67499613D01*
X236315466Y-67505515D01*
X236315472Y-67505516D01*
X236324066Y-67508086D01*
X236333037Y-67508141D01*
X236333038Y-67508141D01*
X236343097Y-67508202D01*
X236358506Y-67508296D01*
X236359289Y-67508329D01*
X236360386Y-67508500D01*
X236391377Y-67508500D01*
X236392147Y-67508502D01*
X236465785Y-67508952D01*
X236465786Y-67508952D01*
X236469721Y-67508976D01*
X236471065Y-67508592D01*
X236472410Y-67508500D01*
X249391377Y-67508500D01*
X249392148Y-67508502D01*
X249469721Y-67508976D01*
X249498152Y-67500850D01*
X249514915Y-67497272D01*
X249515753Y-67497152D01*
X249544187Y-67493080D01*
X249567564Y-67482451D01*
X249585087Y-67476004D01*
X249609771Y-67468949D01*
X249617365Y-67464157D01*
X249617368Y-67464156D01*
X249634780Y-67453170D01*
X249649865Y-67445030D01*
X249676782Y-67432792D01*
X249696235Y-67416030D01*
X249711239Y-67404927D01*
X249732958Y-67391224D01*
X249738897Y-67384499D01*
X249738901Y-67384496D01*
X249752532Y-67369062D01*
X249764724Y-67357018D01*
X249780327Y-67343573D01*
X249780329Y-67343570D01*
X249787127Y-67337713D01*
X249801094Y-67316165D01*
X249812385Y-67301291D01*
X249823431Y-67288783D01*
X249823432Y-67288782D01*
X249829378Y-67282049D01*
X249841943Y-67255287D01*
X249850263Y-67240309D01*
X249861471Y-67223017D01*
X249861473Y-67223012D01*
X249866352Y-67215485D01*
X249868922Y-67206892D01*
X249868924Y-67206887D01*
X249873711Y-67190880D01*
X249880372Y-67173436D01*
X249887467Y-67158324D01*
X249887468Y-67158322D01*
X249891281Y-67150200D01*
X249895830Y-67120983D01*
X249899613Y-67104268D01*
X249905515Y-67084534D01*
X249905516Y-67084528D01*
X249908086Y-67075934D01*
X249908296Y-67041494D01*
X249908329Y-67040711D01*
X249908500Y-67039614D01*
X249908500Y-67008623D01*
X249908502Y-67007853D01*
X249908952Y-66934215D01*
X249908952Y-66934214D01*
X249908976Y-66930279D01*
X249908592Y-66928935D01*
X249908500Y-66927590D01*
X249908500Y-54008623D01*
X249908502Y-54007853D01*
X249908800Y-53959102D01*
X249908976Y-53930279D01*
X249900850Y-53901847D01*
X249897272Y-53885085D01*
X249894352Y-53864698D01*
X249893080Y-53855813D01*
X249882451Y-53832436D01*
X249876004Y-53814913D01*
X249871416Y-53798862D01*
X249868949Y-53790229D01*
X249864156Y-53782632D01*
X249853170Y-53765220D01*
X249845030Y-53750135D01*
X249842564Y-53744711D01*
X249832792Y-53723218D01*
X249816030Y-53703765D01*
X249804927Y-53688761D01*
X249791224Y-53667042D01*
X249784499Y-53661103D01*
X249784496Y-53661099D01*
X249769062Y-53647468D01*
X249757018Y-53635276D01*
X249743573Y-53619673D01*
X249743570Y-53619671D01*
X249737713Y-53612873D01*
X249724009Y-53603990D01*
X249716165Y-53598906D01*
X249701291Y-53587615D01*
X249688783Y-53576569D01*
X249688782Y-53576568D01*
X249682049Y-53570622D01*
X249655287Y-53558057D01*
X249640309Y-53549737D01*
X249623017Y-53538529D01*
X249623012Y-53538527D01*
X249615485Y-53533648D01*
X249606892Y-53531078D01*
X249606887Y-53531076D01*
X249590880Y-53526289D01*
X249573436Y-53519628D01*
X249558324Y-53512533D01*
X249558322Y-53512532D01*
X249550200Y-53508719D01*
X249541333Y-53507338D01*
X249541332Y-53507338D01*
X249530478Y-53505648D01*
X249520983Y-53504170D01*
X249504268Y-53500387D01*
X249484534Y-53494485D01*
X249484528Y-53494484D01*
X249475934Y-53491914D01*
X249466963Y-53491859D01*
X249466962Y-53491859D01*
X249456903Y-53491798D01*
X249441494Y-53491704D01*
X249440711Y-53491671D01*
X249439614Y-53491500D01*
X249408623Y-53491500D01*
X249407853Y-53491498D01*
X249334215Y-53491048D01*
X249334214Y-53491048D01*
X249330279Y-53491024D01*
X249328935Y-53491408D01*
X249327590Y-53491500D01*
X236408623Y-53491500D01*
X236407853Y-53491498D01*
X236407037Y-53491493D01*
X236330279Y-53491024D01*
X236307918Y-53497415D01*
X236301847Y-53499150D01*
X236285085Y-53502728D01*
X236255813Y-53506920D01*
X236247645Y-53510634D01*
X236247644Y-53510634D01*
X236232438Y-53517548D01*
X236214914Y-53523996D01*
X236190229Y-53531051D01*
X236182635Y-53535843D01*
X236182632Y-53535844D01*
X236165220Y-53546830D01*
X236150137Y-53554969D01*
X236123218Y-53567208D01*
X236116416Y-53573069D01*
X236103765Y-53583970D01*
X236088761Y-53595073D01*
X236067042Y-53608776D01*
X236061103Y-53615501D01*
X236061099Y-53615504D01*
X236047468Y-53630938D01*
X236035276Y-53642982D01*
X236019673Y-53656427D01*
X236019671Y-53656430D01*
X236012873Y-53662287D01*
X236007993Y-53669816D01*
X236007992Y-53669817D01*
X235998906Y-53683835D01*
X235987615Y-53698709D01*
X235976569Y-53711217D01*
X235970622Y-53717951D01*
X235964312Y-53731391D01*
X235958058Y-53744711D01*
X235949737Y-53759691D01*
X235938529Y-53776983D01*
X235938527Y-53776988D01*
X235933648Y-53784515D01*
X235931078Y-53793108D01*
X235931076Y-53793113D01*
X235926289Y-53809120D01*
X235919628Y-53826564D01*
X235912533Y-53841676D01*
X235908719Y-53849800D01*
X235907338Y-53858667D01*
X235907338Y-53858668D01*
X235904170Y-53879015D01*
X235900387Y-53895732D01*
X235894485Y-53915466D01*
X235894484Y-53915472D01*
X235891914Y-53924066D01*
X235891859Y-53933037D01*
X235891859Y-53933038D01*
X235891704Y-53958497D01*
X235891671Y-53959289D01*
X235891500Y-53960386D01*
X235891500Y-53991377D01*
X235891498Y-53992147D01*
X235891024Y-54069721D01*
X235891408Y-54071065D01*
X235891500Y-54072410D01*
X235891500Y-66991377D01*
X235891498Y-66992147D01*
X235891024Y-67069721D01*
X212008124Y-67069721D01*
X212008296Y-67041494D01*
X212008329Y-67040711D01*
X212008500Y-67039614D01*
X212008500Y-67008623D01*
X212008502Y-67007853D01*
X212008952Y-66934215D01*
X212008952Y-66934214D01*
X212008976Y-66930279D01*
X212008592Y-66928935D01*
X212008500Y-66927590D01*
X212008500Y-54607767D01*
X212028502Y-54539646D01*
X212082158Y-54493153D01*
X212108303Y-54484520D01*
X212182288Y-54468794D01*
X212188319Y-54466109D01*
X212350722Y-54393803D01*
X212350724Y-54393802D01*
X212356752Y-54391118D01*
X212511253Y-54278866D01*
X212639040Y-54136944D01*
X212734527Y-53971556D01*
X212793542Y-53789928D01*
X212797725Y-53750135D01*
X212812814Y-53606565D01*
X212813504Y-53600000D01*
X212803293Y-53502848D01*
X212794232Y-53416635D01*
X212794232Y-53416633D01*
X212793542Y-53410072D01*
X212734527Y-53228444D01*
X212639040Y-53063056D01*
X212511253Y-52921134D01*
X212356752Y-52808882D01*
X212350724Y-52806198D01*
X212350722Y-52806197D01*
X212188319Y-52733891D01*
X212188318Y-52733891D01*
X212182288Y-52731206D01*
X212088887Y-52711353D01*
X212001944Y-52692872D01*
X212001939Y-52692872D01*
X211995487Y-52691500D01*
X211804513Y-52691500D01*
X211798061Y-52692872D01*
X211798056Y-52692872D01*
X211711113Y-52711353D01*
X211617712Y-52731206D01*
X211611682Y-52733891D01*
X211611681Y-52733891D01*
X211449278Y-52806197D01*
X211449276Y-52806198D01*
X211443248Y-52808882D01*
X211288747Y-52921134D01*
X211160960Y-53063056D01*
X211065473Y-53228444D01*
X211063432Y-53234726D01*
X211008289Y-53404437D01*
X210968215Y-53463042D01*
X210902818Y-53490679D01*
X210888456Y-53491500D01*
X198508623Y-53491500D01*
X198507853Y-53491498D01*
X198507037Y-53491493D01*
X198430279Y-53491024D01*
X198407918Y-53497415D01*
X198401847Y-53499150D01*
X198385085Y-53502728D01*
X198355813Y-53506920D01*
X198347645Y-53510634D01*
X198347644Y-53510634D01*
X198332438Y-53517548D01*
X198314914Y-53523996D01*
X198290229Y-53531051D01*
X198282635Y-53535843D01*
X198282632Y-53535844D01*
X198265220Y-53546830D01*
X198250137Y-53554969D01*
X198223218Y-53567208D01*
X198216416Y-53573069D01*
X198203765Y-53583970D01*
X198188761Y-53595073D01*
X198167042Y-53608776D01*
X198161103Y-53615501D01*
X198161099Y-53615504D01*
X198147468Y-53630938D01*
X198135276Y-53642982D01*
X198119673Y-53656427D01*
X198119671Y-53656430D01*
X198112873Y-53662287D01*
X198107993Y-53669816D01*
X198107992Y-53669817D01*
X198098906Y-53683835D01*
X198087615Y-53698709D01*
X198076569Y-53711217D01*
X198070622Y-53717951D01*
X198064312Y-53731391D01*
X198058058Y-53744711D01*
X198049737Y-53759691D01*
X198038529Y-53776983D01*
X198038527Y-53776988D01*
X198033648Y-53784515D01*
X198031078Y-53793108D01*
X198031076Y-53793113D01*
X198026289Y-53809120D01*
X198019628Y-53826564D01*
X198012533Y-53841676D01*
X198008719Y-53849800D01*
X198007338Y-53858667D01*
X198007338Y-53858668D01*
X198004170Y-53879015D01*
X198000387Y-53895732D01*
X197994485Y-53915466D01*
X197994484Y-53915472D01*
X197991914Y-53924066D01*
X197991859Y-53933037D01*
X197991859Y-53933038D01*
X197991704Y-53958497D01*
X197991671Y-53959289D01*
X197991500Y-53960386D01*
X197991500Y-53991377D01*
X197991498Y-53992147D01*
X197991024Y-54069721D01*
X197991408Y-54071065D01*
X197991500Y-54072410D01*
X197991500Y-66991377D01*
X197991498Y-66992147D01*
X197991024Y-67069721D01*
X193008124Y-67069721D01*
X193008296Y-67041494D01*
X193008329Y-67040711D01*
X193008500Y-67039614D01*
X193008500Y-67008623D01*
X193008502Y-67007853D01*
X193008952Y-66934215D01*
X193008952Y-66934214D01*
X193008976Y-66930279D01*
X193008592Y-66928935D01*
X193008500Y-66927590D01*
X193008500Y-54008623D01*
X193008502Y-54007853D01*
X193008800Y-53959102D01*
X193008976Y-53930279D01*
X193000850Y-53901847D01*
X192997272Y-53885085D01*
X192994352Y-53864698D01*
X192993080Y-53855813D01*
X192982451Y-53832436D01*
X192976004Y-53814913D01*
X192971416Y-53798862D01*
X192968949Y-53790229D01*
X192964156Y-53782632D01*
X192953170Y-53765220D01*
X192945030Y-53750135D01*
X192942564Y-53744711D01*
X192932792Y-53723218D01*
X192916030Y-53703765D01*
X192904927Y-53688761D01*
X192891224Y-53667042D01*
X192884499Y-53661103D01*
X192884496Y-53661099D01*
X192869062Y-53647468D01*
X192857018Y-53635276D01*
X192843573Y-53619673D01*
X192843570Y-53619671D01*
X192837713Y-53612873D01*
X192824009Y-53603990D01*
X192816165Y-53598906D01*
X192801291Y-53587615D01*
X192788783Y-53576569D01*
X192788782Y-53576568D01*
X192782049Y-53570622D01*
X192755287Y-53558057D01*
X192740309Y-53549737D01*
X192723017Y-53538529D01*
X192723012Y-53538527D01*
X192715485Y-53533648D01*
X192706892Y-53531078D01*
X192706887Y-53531076D01*
X192690880Y-53526289D01*
X192673436Y-53519628D01*
X192658324Y-53512533D01*
X192658322Y-53512532D01*
X192650200Y-53508719D01*
X192641333Y-53507338D01*
X192641332Y-53507338D01*
X192630478Y-53505648D01*
X192620983Y-53504170D01*
X192604268Y-53500387D01*
X192584534Y-53494485D01*
X192584528Y-53494484D01*
X192575934Y-53491914D01*
X192566963Y-53491859D01*
X192566962Y-53491859D01*
X192556903Y-53491798D01*
X192541494Y-53491704D01*
X192540711Y-53491671D01*
X192539614Y-53491500D01*
X192508623Y-53491500D01*
X192507853Y-53491498D01*
X192434215Y-53491048D01*
X192434214Y-53491048D01*
X192430279Y-53491024D01*
X192428935Y-53491408D01*
X192427590Y-53491500D01*
X179508623Y-53491500D01*
X179507853Y-53491498D01*
X179507037Y-53491493D01*
X179430279Y-53491024D01*
X179407918Y-53497415D01*
X179401847Y-53499150D01*
X179385085Y-53502728D01*
X179355813Y-53506920D01*
X179347645Y-53510634D01*
X179347644Y-53510634D01*
X179332438Y-53517548D01*
X179314914Y-53523996D01*
X179290229Y-53531051D01*
X179282635Y-53535843D01*
X179282632Y-53535844D01*
X179265220Y-53546830D01*
X179250137Y-53554969D01*
X179223218Y-53567208D01*
X179216416Y-53573069D01*
X179203765Y-53583970D01*
X179188761Y-53595073D01*
X179167042Y-53608776D01*
X179161103Y-53615501D01*
X179161099Y-53615504D01*
X179147468Y-53630938D01*
X179135276Y-53642982D01*
X179119673Y-53656427D01*
X179119671Y-53656430D01*
X179112873Y-53662287D01*
X179107993Y-53669816D01*
X179107992Y-53669817D01*
X179098906Y-53683835D01*
X179087615Y-53698709D01*
X179076569Y-53711217D01*
X179070622Y-53717951D01*
X179064312Y-53731391D01*
X179058058Y-53744711D01*
X179049737Y-53759691D01*
X179038529Y-53776983D01*
X179038527Y-53776988D01*
X179033648Y-53784515D01*
X179031078Y-53793108D01*
X179031076Y-53793113D01*
X179026289Y-53809120D01*
X179019628Y-53826564D01*
X179012533Y-53841676D01*
X179008719Y-53849800D01*
X179007338Y-53858667D01*
X179007338Y-53858668D01*
X179004170Y-53879015D01*
X179000387Y-53895732D01*
X178994485Y-53915466D01*
X178994484Y-53915472D01*
X178991914Y-53924066D01*
X178991859Y-53933037D01*
X178991859Y-53933038D01*
X178991704Y-53958497D01*
X178991671Y-53959289D01*
X178991500Y-53960386D01*
X178991500Y-53991377D01*
X178991498Y-53992147D01*
X178991024Y-54069721D01*
X178991408Y-54071065D01*
X178991500Y-54072410D01*
X178991500Y-66991377D01*
X178991498Y-66992147D01*
X178991024Y-67069721D01*
X174008124Y-67069721D01*
X174008296Y-67041494D01*
X174008329Y-67040711D01*
X174008500Y-67039614D01*
X174008500Y-67008623D01*
X174008502Y-67007853D01*
X174008952Y-66934215D01*
X174008952Y-66934214D01*
X174008976Y-66930279D01*
X174008592Y-66928935D01*
X174008500Y-66927590D01*
X174008500Y-54008623D01*
X174008502Y-54007853D01*
X174008800Y-53959102D01*
X174008976Y-53930279D01*
X174000850Y-53901847D01*
X173997272Y-53885085D01*
X173994352Y-53864698D01*
X173993080Y-53855813D01*
X173982451Y-53832436D01*
X173976004Y-53814913D01*
X173971416Y-53798862D01*
X173968949Y-53790229D01*
X173964156Y-53782632D01*
X173953170Y-53765220D01*
X173945030Y-53750135D01*
X173942564Y-53744711D01*
X173932792Y-53723218D01*
X173916030Y-53703765D01*
X173904927Y-53688761D01*
X173891224Y-53667042D01*
X173884499Y-53661103D01*
X173884496Y-53661099D01*
X173869062Y-53647468D01*
X173857018Y-53635276D01*
X173843573Y-53619673D01*
X173843570Y-53619671D01*
X173837713Y-53612873D01*
X173824009Y-53603990D01*
X173816165Y-53598906D01*
X173801291Y-53587615D01*
X173788783Y-53576569D01*
X173788782Y-53576568D01*
X173782049Y-53570622D01*
X173755287Y-53558057D01*
X173740309Y-53549737D01*
X173723017Y-53538529D01*
X173723012Y-53538527D01*
X173715485Y-53533648D01*
X173706892Y-53531078D01*
X173706887Y-53531076D01*
X173690880Y-53526289D01*
X173673436Y-53519628D01*
X173658324Y-53512533D01*
X173658322Y-53512532D01*
X173650200Y-53508719D01*
X173641333Y-53507338D01*
X173641332Y-53507338D01*
X173630478Y-53505648D01*
X173620983Y-53504170D01*
X173604268Y-53500387D01*
X173584534Y-53494485D01*
X173584528Y-53494484D01*
X173575934Y-53491914D01*
X173566963Y-53491859D01*
X173566962Y-53491859D01*
X173556903Y-53491798D01*
X173541494Y-53491704D01*
X173540711Y-53491671D01*
X173539614Y-53491500D01*
X173508623Y-53491500D01*
X173507853Y-53491498D01*
X173434215Y-53491048D01*
X173434214Y-53491048D01*
X173430279Y-53491024D01*
X173428935Y-53491408D01*
X173427590Y-53491500D01*
X160508623Y-53491500D01*
X160507853Y-53491498D01*
X160507037Y-53491493D01*
X160430279Y-53491024D01*
X160407918Y-53497415D01*
X160401847Y-53499150D01*
X160385085Y-53502728D01*
X160355813Y-53506920D01*
X160347645Y-53510634D01*
X160347644Y-53510634D01*
X160332438Y-53517548D01*
X160314914Y-53523996D01*
X160290229Y-53531051D01*
X160282635Y-53535843D01*
X160282632Y-53535844D01*
X160265220Y-53546830D01*
X160250137Y-53554969D01*
X160223218Y-53567208D01*
X160216416Y-53573069D01*
X160203765Y-53583970D01*
X160188761Y-53595073D01*
X160167042Y-53608776D01*
X160161103Y-53615501D01*
X160161099Y-53615504D01*
X160147468Y-53630938D01*
X160135276Y-53642982D01*
X160119673Y-53656427D01*
X160119671Y-53656430D01*
X160112873Y-53662287D01*
X160107993Y-53669816D01*
X160107992Y-53669817D01*
X160098906Y-53683835D01*
X160087615Y-53698709D01*
X160076569Y-53711217D01*
X160070622Y-53717951D01*
X160064312Y-53731391D01*
X160058058Y-53744711D01*
X160049737Y-53759691D01*
X160038529Y-53776983D01*
X160038527Y-53776988D01*
X160033648Y-53784515D01*
X160031078Y-53793108D01*
X160031076Y-53793113D01*
X160026289Y-53809120D01*
X160019628Y-53826564D01*
X160012533Y-53841676D01*
X160008719Y-53849800D01*
X160007338Y-53858667D01*
X160007338Y-53858668D01*
X160004170Y-53879015D01*
X160000387Y-53895732D01*
X159994485Y-53915466D01*
X159994484Y-53915472D01*
X159991914Y-53924066D01*
X159991859Y-53933037D01*
X159991859Y-53933038D01*
X159991704Y-53958497D01*
X159991671Y-53959289D01*
X159991500Y-53960386D01*
X159991500Y-53991377D01*
X159991498Y-53992147D01*
X159991024Y-54069721D01*
X159991408Y-54071065D01*
X159991500Y-54072410D01*
X159991500Y-66991377D01*
X159991498Y-66992147D01*
X159991024Y-67069721D01*
X117008124Y-67069721D01*
X117008296Y-67041494D01*
X117008329Y-67040711D01*
X117008500Y-67039614D01*
X117008500Y-67008623D01*
X117008502Y-67007853D01*
X117008952Y-66934215D01*
X117008952Y-66934214D01*
X117008976Y-66930279D01*
X117008592Y-66928935D01*
X117008500Y-66927590D01*
X117008500Y-54008623D01*
X117008502Y-54007853D01*
X117008800Y-53959102D01*
X117008976Y-53930279D01*
X117000850Y-53901847D01*
X116997272Y-53885085D01*
X116994352Y-53864698D01*
X116993080Y-53855813D01*
X116982451Y-53832436D01*
X116976004Y-53814913D01*
X116971416Y-53798862D01*
X116968949Y-53790229D01*
X116964156Y-53782632D01*
X116953170Y-53765220D01*
X116945030Y-53750135D01*
X116942564Y-53744711D01*
X116932792Y-53723218D01*
X116916030Y-53703765D01*
X116904927Y-53688761D01*
X116891224Y-53667042D01*
X116884499Y-53661103D01*
X116884496Y-53661099D01*
X116869062Y-53647468D01*
X116857018Y-53635276D01*
X116843573Y-53619673D01*
X116843570Y-53619671D01*
X116837713Y-53612873D01*
X116824009Y-53603990D01*
X116816165Y-53598906D01*
X116801291Y-53587615D01*
X116788783Y-53576569D01*
X116788782Y-53576568D01*
X116782049Y-53570622D01*
X116755287Y-53558057D01*
X116740309Y-53549737D01*
X116723017Y-53538529D01*
X116723012Y-53538527D01*
X116715485Y-53533648D01*
X116706892Y-53531078D01*
X116706887Y-53531076D01*
X116690880Y-53526289D01*
X116673436Y-53519628D01*
X116658324Y-53512533D01*
X116658322Y-53512532D01*
X116650200Y-53508719D01*
X116641333Y-53507338D01*
X116641332Y-53507338D01*
X116630478Y-53505648D01*
X116620983Y-53504170D01*
X116604268Y-53500387D01*
X116584534Y-53494485D01*
X116584528Y-53494484D01*
X116575934Y-53491914D01*
X116566963Y-53491859D01*
X116566962Y-53491859D01*
X116556903Y-53491798D01*
X116541494Y-53491704D01*
X116540711Y-53491671D01*
X116539614Y-53491500D01*
X116508623Y-53491500D01*
X116507853Y-53491498D01*
X116434215Y-53491048D01*
X116434214Y-53491048D01*
X116430279Y-53491024D01*
X116428935Y-53491408D01*
X116427590Y-53491500D01*
X103508623Y-53491500D01*
X103507853Y-53491498D01*
X103507037Y-53491493D01*
X103430279Y-53491024D01*
X103407918Y-53497415D01*
X103401847Y-53499150D01*
X103385085Y-53502728D01*
X103355813Y-53506920D01*
X103347645Y-53510634D01*
X103347644Y-53510634D01*
X103332438Y-53517548D01*
X103314914Y-53523996D01*
X103290229Y-53531051D01*
X103282635Y-53535843D01*
X103282632Y-53535844D01*
X103265220Y-53546830D01*
X103250137Y-53554969D01*
X103223218Y-53567208D01*
X103216416Y-53573069D01*
X103203765Y-53583970D01*
X103188761Y-53595073D01*
X103167042Y-53608776D01*
X103161103Y-53615501D01*
X103161099Y-53615504D01*
X103147468Y-53630938D01*
X103135276Y-53642982D01*
X103119673Y-53656427D01*
X103119671Y-53656430D01*
X103112873Y-53662287D01*
X103107993Y-53669816D01*
X103107992Y-53669817D01*
X103098906Y-53683835D01*
X103087615Y-53698709D01*
X103076569Y-53711217D01*
X103070622Y-53717951D01*
X103064312Y-53731391D01*
X103058058Y-53744711D01*
X103049737Y-53759691D01*
X103038529Y-53776983D01*
X103038527Y-53776988D01*
X103033648Y-53784515D01*
X103031078Y-53793108D01*
X103031076Y-53793113D01*
X103026289Y-53809120D01*
X103019628Y-53826564D01*
X103012533Y-53841676D01*
X103008719Y-53849800D01*
X103007338Y-53858667D01*
X103007338Y-53858668D01*
X103004170Y-53879015D01*
X103000387Y-53895732D01*
X102994485Y-53915466D01*
X102994484Y-53915472D01*
X102991914Y-53924066D01*
X102991859Y-53933037D01*
X102991859Y-53933038D01*
X102991704Y-53958497D01*
X102991671Y-53959289D01*
X102991500Y-53960386D01*
X102991500Y-53991377D01*
X102991498Y-53992147D01*
X102991024Y-54069721D01*
X102991408Y-54071065D01*
X102991500Y-54072410D01*
X102991500Y-66991377D01*
X102991498Y-66992147D01*
X102991024Y-67069721D01*
X98008124Y-67069721D01*
X98008296Y-67041494D01*
X98008329Y-67040711D01*
X98008500Y-67039614D01*
X98008500Y-67008623D01*
X98008502Y-67007853D01*
X98008952Y-66934215D01*
X98008952Y-66934214D01*
X98008976Y-66930279D01*
X98008592Y-66928935D01*
X98008500Y-66927590D01*
X98008500Y-54008623D01*
X98008502Y-54007853D01*
X98008800Y-53959102D01*
X98008976Y-53930279D01*
X98000850Y-53901847D01*
X97997272Y-53885085D01*
X97994352Y-53864698D01*
X97993080Y-53855813D01*
X97982451Y-53832436D01*
X97976004Y-53814913D01*
X97971416Y-53798862D01*
X97968949Y-53790229D01*
X97964156Y-53782632D01*
X97953170Y-53765220D01*
X97945030Y-53750135D01*
X97942564Y-53744711D01*
X97932792Y-53723218D01*
X97916030Y-53703765D01*
X97904927Y-53688761D01*
X97891224Y-53667042D01*
X97884499Y-53661103D01*
X97884496Y-53661099D01*
X97869062Y-53647468D01*
X97857018Y-53635276D01*
X97843573Y-53619673D01*
X97843570Y-53619671D01*
X97837713Y-53612873D01*
X97824009Y-53603990D01*
X97816165Y-53598906D01*
X97801291Y-53587615D01*
X97788783Y-53576569D01*
X97788782Y-53576568D01*
X97782049Y-53570622D01*
X97755287Y-53558057D01*
X97740309Y-53549737D01*
X97723017Y-53538529D01*
X97723012Y-53538527D01*
X97715485Y-53533648D01*
X97706892Y-53531078D01*
X97706887Y-53531076D01*
X97690880Y-53526289D01*
X97673436Y-53519628D01*
X97658324Y-53512533D01*
X97658322Y-53512532D01*
X97650200Y-53508719D01*
X97641333Y-53507338D01*
X97641332Y-53507338D01*
X97630478Y-53505648D01*
X97620983Y-53504170D01*
X97604268Y-53500387D01*
X97584534Y-53494485D01*
X97584528Y-53494484D01*
X97575934Y-53491914D01*
X97566963Y-53491859D01*
X97566962Y-53491859D01*
X97556903Y-53491798D01*
X97541494Y-53491704D01*
X97540711Y-53491671D01*
X97539614Y-53491500D01*
X97508623Y-53491500D01*
X97507853Y-53491498D01*
X97434215Y-53491048D01*
X97434214Y-53491048D01*
X97430279Y-53491024D01*
X97428935Y-53491408D01*
X97427590Y-53491500D01*
X84508623Y-53491500D01*
X84507853Y-53491498D01*
X84507037Y-53491493D01*
X84430279Y-53491024D01*
X84407918Y-53497415D01*
X84401847Y-53499150D01*
X84385085Y-53502728D01*
X84355813Y-53506920D01*
X84347645Y-53510634D01*
X84347644Y-53510634D01*
X84332438Y-53517548D01*
X84314914Y-53523996D01*
X84290229Y-53531051D01*
X84282635Y-53535843D01*
X84282632Y-53535844D01*
X84265220Y-53546830D01*
X84250137Y-53554969D01*
X84223218Y-53567208D01*
X84216416Y-53573069D01*
X84203765Y-53583970D01*
X84188761Y-53595073D01*
X84167042Y-53608776D01*
X84161103Y-53615501D01*
X84161099Y-53615504D01*
X84147468Y-53630938D01*
X84135276Y-53642982D01*
X84119673Y-53656427D01*
X84119671Y-53656430D01*
X84112873Y-53662287D01*
X84107993Y-53669816D01*
X84107992Y-53669817D01*
X84098906Y-53683835D01*
X84087615Y-53698709D01*
X84076569Y-53711217D01*
X84070622Y-53717951D01*
X84064312Y-53731391D01*
X84058058Y-53744711D01*
X84049737Y-53759691D01*
X84038529Y-53776983D01*
X84038527Y-53776988D01*
X84033648Y-53784515D01*
X84031078Y-53793108D01*
X84031076Y-53793113D01*
X84026289Y-53809120D01*
X84019628Y-53826564D01*
X84012533Y-53841676D01*
X84008719Y-53849800D01*
X84007338Y-53858667D01*
X84007338Y-53858668D01*
X84004170Y-53879015D01*
X84000387Y-53895732D01*
X83994485Y-53915466D01*
X83994484Y-53915472D01*
X83991914Y-53924066D01*
X83991859Y-53933037D01*
X83991859Y-53933038D01*
X83991704Y-53958497D01*
X83991671Y-53959289D01*
X83991500Y-53960386D01*
X83991500Y-53991377D01*
X83991498Y-53992147D01*
X83991024Y-54069721D01*
X83991408Y-54071065D01*
X83991500Y-54072410D01*
X83991500Y-66991377D01*
X83991498Y-66992147D01*
X83991024Y-67069721D01*
X79008124Y-67069721D01*
X79008296Y-67041494D01*
X79008329Y-67040711D01*
X79008500Y-67039614D01*
X79008500Y-67008623D01*
X79008502Y-67007853D01*
X79008952Y-66934215D01*
X79008952Y-66934214D01*
X79008976Y-66930279D01*
X79008592Y-66928935D01*
X79008500Y-66927590D01*
X79008500Y-54008623D01*
X79008502Y-54007853D01*
X79008800Y-53959102D01*
X79008976Y-53930279D01*
X79000850Y-53901847D01*
X78997272Y-53885085D01*
X78994352Y-53864698D01*
X78993080Y-53855813D01*
X78982451Y-53832436D01*
X78976004Y-53814913D01*
X78971416Y-53798862D01*
X78968949Y-53790229D01*
X78964156Y-53782632D01*
X78953170Y-53765220D01*
X78945030Y-53750135D01*
X78942564Y-53744711D01*
X78932792Y-53723218D01*
X78916030Y-53703765D01*
X78904927Y-53688761D01*
X78891224Y-53667042D01*
X78884499Y-53661103D01*
X78884496Y-53661099D01*
X78869062Y-53647468D01*
X78857018Y-53635276D01*
X78843573Y-53619673D01*
X78843570Y-53619671D01*
X78837713Y-53612873D01*
X78824009Y-53603990D01*
X78816165Y-53598906D01*
X78801291Y-53587615D01*
X78788783Y-53576569D01*
X78788782Y-53576568D01*
X78782049Y-53570622D01*
X78755287Y-53558057D01*
X78740309Y-53549737D01*
X78723017Y-53538529D01*
X78723012Y-53538527D01*
X78715485Y-53533648D01*
X78706892Y-53531078D01*
X78706887Y-53531076D01*
X78690880Y-53526289D01*
X78673436Y-53519628D01*
X78658324Y-53512533D01*
X78658322Y-53512532D01*
X78650200Y-53508719D01*
X78641333Y-53507338D01*
X78641332Y-53507338D01*
X78630478Y-53505648D01*
X78620983Y-53504170D01*
X78604268Y-53500387D01*
X78584534Y-53494485D01*
X78584528Y-53494484D01*
X78575934Y-53491914D01*
X78566963Y-53491859D01*
X78566962Y-53491859D01*
X78556903Y-53491798D01*
X78541494Y-53491704D01*
X78540711Y-53491671D01*
X78539614Y-53491500D01*
X78508623Y-53491500D01*
X78507853Y-53491498D01*
X78434215Y-53491048D01*
X78434214Y-53491048D01*
X78430279Y-53491024D01*
X78428935Y-53491408D01*
X78427590Y-53491500D01*
X65508623Y-53491500D01*
X65507853Y-53491498D01*
X65507037Y-53491493D01*
X65430279Y-53491024D01*
X65407918Y-53497415D01*
X65401847Y-53499150D01*
X65385085Y-53502728D01*
X65355813Y-53506920D01*
X65347645Y-53510634D01*
X65347644Y-53510634D01*
X65332438Y-53517548D01*
X65314914Y-53523996D01*
X65290229Y-53531051D01*
X65282635Y-53535843D01*
X65282632Y-53535844D01*
X65265220Y-53546830D01*
X65250137Y-53554969D01*
X65223218Y-53567208D01*
X65216416Y-53573069D01*
X65203765Y-53583970D01*
X65188761Y-53595073D01*
X65167042Y-53608776D01*
X65161103Y-53615501D01*
X65161099Y-53615504D01*
X65147468Y-53630938D01*
X65135276Y-53642982D01*
X65119673Y-53656427D01*
X65119671Y-53656430D01*
X65112873Y-53662287D01*
X65107993Y-53669816D01*
X65107992Y-53669817D01*
X65098906Y-53683835D01*
X65087615Y-53698709D01*
X65076569Y-53711217D01*
X65070622Y-53717951D01*
X65064312Y-53731391D01*
X65058058Y-53744711D01*
X65049737Y-53759691D01*
X65038529Y-53776983D01*
X65038527Y-53776988D01*
X65033648Y-53784515D01*
X65031078Y-53793108D01*
X65031076Y-53793113D01*
X65026289Y-53809120D01*
X65019628Y-53826564D01*
X65012533Y-53841676D01*
X65008719Y-53849800D01*
X65007338Y-53858667D01*
X65007338Y-53858668D01*
X65004170Y-53879015D01*
X65000387Y-53895732D01*
X64994485Y-53915466D01*
X64994484Y-53915472D01*
X64991914Y-53924066D01*
X64991859Y-53933037D01*
X64991859Y-53933038D01*
X64991704Y-53958497D01*
X64991671Y-53959289D01*
X64991500Y-53960386D01*
X64991500Y-53991377D01*
X64991498Y-53992147D01*
X64991024Y-54069721D01*
X64991408Y-54071065D01*
X64991500Y-54072410D01*
X64991500Y-66991377D01*
X64991498Y-66992147D01*
X64991024Y-67069721D01*
X60008124Y-67069721D01*
X60008296Y-67041494D01*
X60008329Y-67040711D01*
X60008500Y-67039614D01*
X60008500Y-67008623D01*
X60008502Y-67007853D01*
X60008952Y-66934215D01*
X60008952Y-66934214D01*
X60008976Y-66930279D01*
X60008592Y-66928935D01*
X60008500Y-66927590D01*
X60008500Y-54008623D01*
X60008502Y-54007853D01*
X60008800Y-53959102D01*
X60008976Y-53930279D01*
X60000850Y-53901847D01*
X59997272Y-53885085D01*
X59994352Y-53864698D01*
X59993080Y-53855813D01*
X59982451Y-53832436D01*
X59976004Y-53814913D01*
X59971416Y-53798862D01*
X59968949Y-53790229D01*
X59964156Y-53782632D01*
X59953170Y-53765220D01*
X59945030Y-53750135D01*
X59942564Y-53744711D01*
X59932792Y-53723218D01*
X59916030Y-53703765D01*
X59904927Y-53688761D01*
X59891224Y-53667042D01*
X59884499Y-53661103D01*
X59884496Y-53661099D01*
X59869062Y-53647468D01*
X59857018Y-53635276D01*
X59843573Y-53619673D01*
X59843570Y-53619671D01*
X59837713Y-53612873D01*
X59824009Y-53603990D01*
X59816165Y-53598906D01*
X59801291Y-53587615D01*
X59788783Y-53576569D01*
X59788782Y-53576568D01*
X59782049Y-53570622D01*
X59755287Y-53558057D01*
X59740309Y-53549737D01*
X59723017Y-53538529D01*
X59723012Y-53538527D01*
X59715485Y-53533648D01*
X59706892Y-53531078D01*
X59706887Y-53531076D01*
X59690880Y-53526289D01*
X59673436Y-53519628D01*
X59658324Y-53512533D01*
X59658322Y-53512532D01*
X59650200Y-53508719D01*
X59641333Y-53507338D01*
X59641332Y-53507338D01*
X59630478Y-53505648D01*
X59620983Y-53504170D01*
X59604268Y-53500387D01*
X59584534Y-53494485D01*
X59584528Y-53494484D01*
X59575934Y-53491914D01*
X59566963Y-53491859D01*
X59566962Y-53491859D01*
X59556903Y-53491798D01*
X59541494Y-53491704D01*
X59540711Y-53491671D01*
X59539614Y-53491500D01*
X59508623Y-53491500D01*
X59507853Y-53491498D01*
X59434215Y-53491048D01*
X59434214Y-53491048D01*
X59430279Y-53491024D01*
X59428935Y-53491408D01*
X59427590Y-53491500D01*
X47111544Y-53491500D01*
X47043423Y-53471498D01*
X46996930Y-53417842D01*
X46991711Y-53404437D01*
X46936568Y-53234726D01*
X46934527Y-53228444D01*
X46839040Y-53063056D01*
X46711253Y-52921134D01*
X46556752Y-52808882D01*
X46550724Y-52806198D01*
X46550722Y-52806197D01*
X46388319Y-52733891D01*
X46388318Y-52733891D01*
X46382288Y-52731206D01*
X46288887Y-52711353D01*
X46201944Y-52692872D01*
X46201939Y-52692872D01*
X46195487Y-52691500D01*
X46004513Y-52691500D01*
X45998061Y-52692872D01*
X45998056Y-52692872D01*
X45911113Y-52711353D01*
X45817712Y-52731206D01*
X45811682Y-52733891D01*
X45811681Y-52733891D01*
X45649278Y-52806197D01*
X45649276Y-52806198D01*
X45643248Y-52808882D01*
X45488747Y-52921134D01*
X45360960Y-53063056D01*
X45265473Y-53228444D01*
X45206458Y-53410072D01*
X45205768Y-53416633D01*
X45205768Y-53416635D01*
X45196707Y-53502848D01*
X45186496Y-53600000D01*
X24008500Y-53600000D01*
X24008500Y-34000000D01*
X24886526Y-34000000D01*
X24906391Y-34252403D01*
X24965495Y-34498591D01*
X25062384Y-34732502D01*
X25194672Y-34948376D01*
X25359102Y-35140898D01*
X25551624Y-35305328D01*
X25767498Y-35437616D01*
X25772068Y-35439509D01*
X25772072Y-35439511D01*
X25996836Y-35532611D01*
X26001409Y-35534505D01*
X26086032Y-35554821D01*
X26242784Y-35592454D01*
X26242790Y-35592455D01*
X26247597Y-35593609D01*
X26347416Y-35601465D01*
X26434345Y-35608307D01*
X26434352Y-35608307D01*
X26436801Y-35608500D01*
X26563199Y-35608500D01*
X26565648Y-35608307D01*
X26565655Y-35608307D01*
X26652584Y-35601465D01*
X26752403Y-35593609D01*
X26757210Y-35592455D01*
X26757216Y-35592454D01*
X26913968Y-35554821D01*
X26998591Y-35534505D01*
X27003164Y-35532611D01*
X27227928Y-35439511D01*
X27227932Y-35439509D01*
X27232502Y-35437616D01*
X27448376Y-35305328D01*
X27640898Y-35140898D01*
X27805328Y-34948376D01*
X27937616Y-34732502D01*
X28034505Y-34498591D01*
X28093609Y-34252403D01*
X28113474Y-34000000D01*
X266886526Y-34000000D01*
X266906391Y-34252403D01*
X266965495Y-34498591D01*
X267062384Y-34732502D01*
X267194672Y-34948376D01*
X267359102Y-35140898D01*
X267551624Y-35305328D01*
X267767498Y-35437616D01*
X267772068Y-35439509D01*
X267772072Y-35439511D01*
X267996836Y-35532611D01*
X268001409Y-35534505D01*
X268086032Y-35554821D01*
X268242784Y-35592454D01*
X268242790Y-35592455D01*
X268247597Y-35593609D01*
X268347416Y-35601465D01*
X268434345Y-35608307D01*
X268434352Y-35608307D01*
X268436801Y-35608500D01*
X268563199Y-35608500D01*
X268565648Y-35608307D01*
X268565655Y-35608307D01*
X268652584Y-35601465D01*
X268752403Y-35593609D01*
X268757210Y-35592455D01*
X268757216Y-35592454D01*
X268913968Y-35554821D01*
X268998591Y-35534505D01*
X269003164Y-35532611D01*
X269227928Y-35439511D01*
X269227932Y-35439509D01*
X269232502Y-35437616D01*
X269448376Y-35305328D01*
X269640898Y-35140898D01*
X269805328Y-34948376D01*
X269937616Y-34732502D01*
X270034505Y-34498591D01*
X270093609Y-34252403D01*
X270113474Y-34000000D01*
X270093609Y-33747597D01*
X270034505Y-33501409D01*
X269937616Y-33267498D01*
X269805328Y-33051624D01*
X269640898Y-32859102D01*
X269448376Y-32694672D01*
X269232502Y-32562384D01*
X269227932Y-32560491D01*
X269227928Y-32560489D01*
X269003164Y-32467389D01*
X269003162Y-32467388D01*
X268998591Y-32465495D01*
X268913968Y-32445179D01*
X268757216Y-32407546D01*
X268757210Y-32407545D01*
X268752403Y-32406391D01*
X268652584Y-32398535D01*
X268565655Y-32391693D01*
X268565648Y-32391693D01*
X268563199Y-32391500D01*
X268436801Y-32391500D01*
X268434352Y-32391693D01*
X268434345Y-32391693D01*
X268347416Y-32398535D01*
X268247597Y-32406391D01*
X268242790Y-32407545D01*
X268242784Y-32407546D01*
X268086032Y-32445179D01*
X268001409Y-32465495D01*
X267996838Y-32467388D01*
X267996836Y-32467389D01*
X267772072Y-32560489D01*
X267772068Y-32560491D01*
X267767498Y-32562384D01*
X267551624Y-32694672D01*
X267359102Y-32859102D01*
X267194672Y-33051624D01*
X267062384Y-33267498D01*
X266965495Y-33501409D01*
X266906391Y-33747597D01*
X266886526Y-34000000D01*
X28113474Y-34000000D01*
X28093609Y-33747597D01*
X28034505Y-33501409D01*
X27937616Y-33267498D01*
X27805328Y-33051624D01*
X27640898Y-32859102D01*
X27448376Y-32694672D01*
X27232502Y-32562384D01*
X27227932Y-32560491D01*
X27227928Y-32560489D01*
X27003164Y-32467389D01*
X27003162Y-32467388D01*
X26998591Y-32465495D01*
X26913968Y-32445179D01*
X26757216Y-32407546D01*
X26757210Y-32407545D01*
X26752403Y-32406391D01*
X26652584Y-32398535D01*
X26565655Y-32391693D01*
X26565648Y-32391693D01*
X26563199Y-32391500D01*
X26436801Y-32391500D01*
X26434352Y-32391693D01*
X26434345Y-32391693D01*
X26347416Y-32398535D01*
X26247597Y-32406391D01*
X26242790Y-32407545D01*
X26242784Y-32407546D01*
X26086032Y-32445179D01*
X26001409Y-32465495D01*
X25996838Y-32467388D01*
X25996836Y-32467389D01*
X25772072Y-32560489D01*
X25772068Y-32560491D01*
X25767498Y-32562384D01*
X25551624Y-32694672D01*
X25359102Y-32859102D01*
X25194672Y-33051624D01*
X25062384Y-33267498D01*
X24965495Y-33501409D01*
X24906391Y-33747597D01*
X24886526Y-34000000D01*
X24008500Y-34000000D01*
X24008500Y-31634500D01*
X24028502Y-31566379D01*
X24082158Y-31519886D01*
X24134500Y-31508500D01*
X270865500Y-31508500D01*
X270933621Y-31528502D01*
G37*
%TD.AperFunction*%
M02*
